<svg xmlns="http://www.w3.org/2000/svg" xmlns:xlink="http://www.w3.org/1999/xlink" viewBox="0 0 48 48"><defs><linearGradient id="activitypub_svg__a"><stop offset="0" stop-color="#f1007e"/></linearGradient><linearGradient id="activitypub_svg__c" x1="3225.8" x2="3239" y1="-1355.4" y2="-1355.4" gradientTransform="translate(-11936 4544.7) scale(3.7001)" gradientUnits="userSpaceOnUse"><stop offset="0" stop-color="#6d6d6d"/></linearGradient><linearGradient xlink:href="#activitypub_svg__a" id="activitypub_svg__b" x1="3241.7" x2="3255" y1="-1355.4" y2="-1355.4" gradientTransform="translate(-5304.2 2252.7) scale(1.6443)" gradientUnits="userSpaceOnUse"/></defs><g fill-rule="evenodd"><path fill="url(#activitypub_svg__b)" d="m26.083 8.817 21.82 12.595v5.04L26.083 39.05v-5.038l17.454-10.08-17.454-10.076z" transform="matrix(1.0018 0 0 1 .01 .103)"/><path fill="url(#activitypub_svg__b)" d="m26.083 18.894 8.728 5.04-8.728 5.038z" transform="matrix(1.0018 0 0 1 .01 .103)"/><path fill="url(#activitypub_svg__c)" d="M49.098-504.57 0-476.224v11.338l39.277-22.676v45.354l9.82 5.67zm-19.639 34.016L9.818-459.216l19.641 11.338z" transform="matrix(.44519 0 0 .44439 0 233.073)"/></g></svg>
