<svg xmlns="http://www.w3.org/2000/svg" viewBox="0 0 48 48"><g fill="#805ad5"><path d="M2.26 46.62 24.072.29a.51.51 0 0 1 .457-.29h.957c.193 0 .37.11.455.284l14.072 28.911 4.412-1.696c.26-.1.553.03.653.29l1.175 3.053c.1.261-.03.554-.29.654l-4.069 1.565 5.02 10.312a.506.506 0 0 1-.234.676l-2.942 1.432a.506.506 0 0 1-.676-.234l-5.18-10.643L3.138 47.967a.506.506 0 0 1-.657-.299l-.24-.66a.5.5 0 0 1 .017-.389zM25.057 8.253 9.709 40.851 36 30.74z"/><path d="m34.884 21.557 1.474 4.021-33.517 12.29a.506.506 0 0 1-.649-.301l-1.126-3.072a.506.506 0 0 1 .3-.649z"/></g></svg>
