<svg xmlns="http://www.w3.org/2000/svg" viewBox="0 0 48 48"><path d="M28.798 25.588c-1.849.295-3.443-.075-3.562-.824s1.282-1.596 3.13-1.89c1.848-.293 3.442.075 3.562.823.12.75-1.281 1.597-3.13 1.89m-1.756 7.72c-.677.345-1.915-.725-2.765-2.39-.85-1.668-.992-3.301-.314-3.646.674-.343 1.91.727 2.762 2.394.851 1.665.994 3.297.317 3.643m-7.282-3.103c-1.322 1.324-2.828 1.962-3.365 1.425-.538-.536.1-2.044 1.421-3.368 1.321-1.326 2.827-1.964 3.367-1.428.536.536-.1 2.046-1.423 3.37m-5.06-9.22c.342-.677 1.974-.536 3.64.312 1.669.847 2.743 2.084 2.399 2.76-.345.675-1.975.537-3.642-.31-1.668-.848-2.742-2.085-2.397-2.762m9.599-4.9c.75.116 1.122 1.712.828 3.56-.29 1.85-1.132 3.25-1.883 3.133-.749-.118-1.12-1.713-.83-3.56.29-1.849 1.134-3.251 1.885-3.134m23.67 5.06c-.155-.983-.69-1.264-1.976-1.675-.978-.314-7.526-2.4-7.526-2.4s-4.564-1.725-7.947.714c-.456.329-.928.703-1.402 1.102.398-.475.772-.946 1.1-1.402 2.432-3.388.7-7.95.7-7.95S28.821 2.99 28.505 2.01C28.09.725 27.81.19 26.825.04c-.985-.157-1.414.263-2.204 1.36-.6.832-4.609 6.415-4.609 6.415s-3.047 3.808-1.776 7.78c.173.533.383 1.099.617 1.673a24.407 24.407 0 0 0-.995-1.48c-2.472-3.357-7.343-3.123-7.343-3.123s-6.872-.026-7.899-.027c-1.351-.005-1.944.1-2.396.986-.452.887-.186 1.429.613 2.517.606.83 4.68 6.365 4.68 6.365s2.679 4.077 6.848 4.094c.56.003 1.16-.023 1.777-.068a24.633 24.633 0 0 0-1.71.488c-3.96 1.313-5.238 6.02-5.238 6.02l-2.47 7.506c-.42 1.282-.505 1.878.199 2.58.704.706 1.302.619 2.584.196.976-.32 7.5-2.483 7.5-2.483s4.703-1.29 6.007-5.25c.177-.531.337-1.11.487-1.707a22.163 22.163 0 0 0-.063 1.775c.022 4.17 4.105 6.842 4.105 6.842l6.372 4.666c1.092.795 1.632 1.061 2.52.609.885-.452.988-1.045.982-2.397-.004-1.027-.045-7.899-.045-7.899s.229-4.872-3.134-7.337a23.856 23.856 0 0 0-1.478-.991c.574.23 1.136.44 1.672.608 3.972 1.267 7.776-1.788 7.776-1.788l6.408-4.619c1.094-.791 1.512-1.226 1.357-2.208"/></svg>