<svg xmlns="http://www.w3.org/2000/svg" viewBox="0 0 48 48"><path fill="#3c507e" d="M13.697 42.578c7.222 0 12.276-2.829 12.272-4.123v-4.917c-2.03 1.706-6.193 3.042-12.272 3.042S3.452 35.243 1.423 33.537v4.903c0 1.674 5.041 4.13 12.273 4.13zm0-30.229c-7.232 0-12.273 2.178-12.273 4.13 0 1.954 5.041 4.132 12.273 4.132 7.222 0 12.257-2.171 12.272-4.122-.014-1.951-5.05-4.122-12.272-4.122zM25.97 23.762v-4.769c-2.03 1.705-6.193 3.041-12.272 3.041S3.452 20.697 1.423 18.991v4.755c0 1.953 5.041 4.13 12.273 4.13 7.222 0 12.258-2.17 12.272-4.121zm0 7.272v-4.77c-2.03 1.707-6.193 3.043-12.272 3.043S3.452 27.97 1.423 26.264v4.754c0 1.954 5.041 4.131 12.273 4.131 7.222 0 12.257-2.17 12.272-4.122zm1.346-15.137.05.315v22.427q-.092.29-.253.54c-1.092 2.328-5.724 4.483-13.443 4.483-7.717 0-12.35-2.154-13.442-4.482q-.202-.342-.227-.541V16.213l.08-.32c.644-2.506 5.368-4.966 13.617-4.966 8.255 0 12.98 2.464 13.618 4.97"/><path fill="red" d="m35.446 18.146-6.481-5.461 6.481-5.453 1.5 1.52-4.77 3.913 4.77 3.961zM45 16.608q0-.317-.125-.596c-.125-.279-.195-.349-.337-.49s-.308-.252-.5-.332-.397-.12-.615-.12a1.55 1.55 0 0 0-1.105.452q-.211.211-.337.49c-.126.28-.125.385-.125.596s.041.41.125.596a1.6 1.6 0 0 0 .337.49 1.55 1.55 0 0 0 1.105.452 1.58 1.58 0 0 0 1.115-.452 1.7 1.7 0 0 0 .337-.49 1.45 1.45 0 0 0 .125-.596m3-8.096a3.5 3.5 0 0 0-.371-1.559q-.37-.749-1.111-1.331-.742-.58-1.846-.932c-1.104-.352-1.6-.351-2.587-.351h-.663V6.52h.568q.904 0 1.548.174.645.172 1.062.475a1.9 1.9 0 0 1 .616.702 1.9 1.9 0 0 1 .196.86q0 .337-.1.64c-.1.303-.174.38-.318.534s-.33.276-.558.366a2.2 2.2 0 0 1-.812.134H42.23l.173 3.616h2.01l.096-1.808a5.2 5.2 0 0 0 1.443-.395 3.6 3.6 0 0 0 1.1-.755 3.2 3.2 0 0 0 .703-1.105A4 4 0 0 0 48 8.512"/></svg>
