<svg xmlns="http://www.w3.org/2000/svg" viewBox="0 0 48 48"><g transform="translate(-28.57 -62.245) scale(.50067)"><path fill="#2d4159" d="M103.41 219.69c-5.857-2.807-15.54-10.873-20.554-17.123-8.433-10.511-13.554-22-16.256-36.469-.613-3.284-.949-7.204-1.39-16.222-.498-10.223-.514-13.203-.068-13.372.214-.081 2.495-.489 5.07-.906 13.6-2.206 20.623-4.457 32.562-10.438 2.405-1.205 2.037-1.253 6.274.814 11.41 5.565 17.35 7.413 30.893 9.613 1.42.23 3.164.544 3.874.696l1.291.276.05 1.13c.186 4.162-.923 23-1.605 27.279-3.01 18.889-11.655 34.733-25.4 46.55-5.207 4.477-7.398 6.018-11.167 7.854-2.132 1.04-2.078 1.034-3.575.317zm2.979-3.303c6.181-2.897 15.622-10.943 20.558-17.522 7.826-10.432 12.2-20.542 14.378-33.23.753-4.389 1.753-20.731 1.577-25.762l-.054-1.53-1.534-.286c-.843-.158-2.695-.47-4.115-.694-11.476-1.808-17.455-3.687-28.486-8.952-3.996-1.908-3.559-1.86-5.971-.65-10.907 5.467-17.902 7.689-30.755 9.77-2.486.403-4.647.772-4.804.82-.322.1-.319.304.135 10.557.444 10.021.805 14.248 1.514 17.752 4.057 20.047 12.36 33.554 28.093 45.694 2.035 1.57 7.304 4.67 7.94 4.67.09 0 .775-.287 1.523-.637z"/><g fill="none" stroke="#2d4159" stroke-linecap="round"><path stroke-width="1.537" d="M117.12 167.89h10.555M82.309 167.91h15.836"/><path stroke-linejoin="round" stroke-width="2.048" d="M117.21 173.98c3.412-.009 6.822-.018 8.527 2.52s1.704 7.62 1.703 12.7"/></g><a stroke-width="2.261" transform="translate(-32.778 -49.614) scale(1.3101)"><path fill="#2d4159" d="M102.94 183.03c-3.576-.485-6.445-3.085-7.288-6.606-.25-1.042-.25-15.526 0-16.57.79-3.296 3.321-5.768 6.664-6.505.906-.2 4.78-.2 5.687 0 3.342.737 5.874 3.209 6.664 6.506.25 1.042.25 15.526 0 16.569-.787 3.284-3.212 5.876-6.525 6.608-.628.139-4.4.107-5.202-.002zm4.848-1.25c3.016-.688 5.21-2.922 5.787-5.89.103-.53.111-.886.111-4.92v-4.349H96.632v4.349c0 4.034.008 4.39.111 4.92.605 3.115 3.002 5.427 6.168 5.95.72.118 4.286.075 4.876-.06zm-3.213-17.428c0-1.1 0-1.1-.146-1.167-.23-.105-.67-.538-.808-.796-.173-.324-.227-3.29-.068-3.77.113-.34.486-.78.796-.938l.226-.116v-3.226l-.774.032c-3.546.145-6.388 2.567-7.058 6.017-.097.5-.11.85-.11 2.818v2.246h7.942zm9.111-1.146c0-1.968-.014-2.317-.11-2.818-.67-3.45-3.512-5.872-7.059-6.017l-.774-.032v3.227l.227.115c.304.155.678.592.791.923.154.451.134 3.229-.027 3.657-.122.327-.54.786-.842.923-.149.068-.149.068-.149 1.168v1.1h7.943z"/></a><g fill="none" stroke="#2d4159" stroke-linecap="round" stroke-linejoin="round" stroke-width="2.048"><path d="M92.778 174.02c-3.412-.009-6.822-.018-8.527 2.52s-1.704 7.62-1.703 12.7M117.22 163.17c3.412.009 6.822.018 8.527-2.52 1.704-2.537 1.704-7.62 1.703-12.7M92.793 163.13c-3.412.009-6.822.018-8.527-2.52s-1.704-7.62-1.703-12.7"/></g></g></svg>