<?xml version="1.0" encoding="utf-8"?>
<!-- Generator: Adobe Illustrator 27.1.1, SVG Export Plug-In . SVG Version: 6.00 Build 0)  -->
<svg version="1.1"
	 id="svg8" xmlns:svg="http://www.w3.org/2000/svg" xmlns:dc="http://purl.org/dc/elements/1.1/" xmlns:inkscape="http://www.inkscape.org/namespaces/inkscape" xmlns:rdf="http://www.w3.org/1999/02/22-rdf-syntax-ns#" xmlns:cc="http://creativecommons.org/ns#" xmlns:sodipodi="http://sodipodi.sourceforge.net/DTD/sodipodi-0.dtd" inkscape:version="0.92.1 r15371"
	 xmlns="http://www.w3.org/2000/svg" xmlns:xlink="http://www.w3.org/1999/xlink" x="0px" y="0px" viewBox="0 0 48 48"
	 style="enable-background:new 0 0 48 48;" xml:space="preserve">
<style type="text/css">
	.st0{fill:#2F7BD9;}
</style>
<sodipodi:namedview  bordercolor="#666666" borderopacity="1.0" id="base" inkscape:current-layer="layer1" inkscape:cx="229.94912" inkscape:cy="256" inkscape:document-units="mm" inkscape:measure-end="0,0" inkscape:measure-start="0,0" inkscape:pageopacity="0.0" inkscape:pageshadow="2" inkscape:snap-smooth-nodes="false" inkscape:window-height="704" inkscape:window-maximized="1" inkscape:window-width="1366" inkscape:window-x="0" inkscape:window-y="27" inkscape:zoom="0.99804688" pagecolor="#ffffff" showgrid="false" units="px">
	</sodipodi:namedview>
<g id="layer1" transform="translate(0,-161.53332)" inkscape:groupmode="layer" inkscape:label="Calque 1">
	<g id="g4559" transform="matrix(1.0343609,0,0,1.0868666,-2.0684717,-19.990901)">
		<path id="rect4504" class="st0" d="M3.7,187.2L3.7,187.2c0.7,0,1.2,0.5,1.2,1.2v6.9c0,0.7-0.5,1.2-1.2,1.2l0,0
			c-0.7,0-1.2-0.5-1.2-1.2v-6.9C2.5,187.7,3,187.2,3.7,187.2z"/>
		<path id="rect4506" class="st0" d="M7.6,183.5L7.6,183.5c0.7,0,1.2,0.5,1.2,1.1V199c0,0.6-0.5,1.1-1.2,1.1l0,0
			c-0.7,0-1.2-0.5-1.2-1.1v-14.3C6.4,184,6.9,183.5,7.6,183.5z"/>
		<path id="rect4508" class="st0" d="M11.5,182.1L11.5,182.1c0.7,0,1.2,0.5,1.2,1.2v17.1c0,0.7-0.5,1.2-1.2,1.2l0,0
			c-0.7,0-1.2-0.5-1.2-1.2v-17.1C10.3,182.6,10.8,182.1,11.5,182.1z"/>
		<path id="rect4529" class="st0" d="M15.4,178.3L15.4,178.3c0.7,0,1.2,0.5,1.2,1.2v20.8c0,0.7-0.5,1.2-1.2,1.2l0,0
			c-0.7,0-1.2-0.5-1.2-1.2v-20.8C14.2,178.8,14.8,178.3,15.4,178.3z"/>
		<path id="rect4531" class="st0" d="M19.3,176.8L19.3,176.8c0.7,0,1.2,0.5,1.2,1.2v22.3c0,0.7-0.5,1.2-1.2,1.2l0,0
			c-0.7,0-1.2-0.5-1.2-1.2V178C18.1,177.4,18.7,176.8,19.3,176.8z"/>
		<path id="rect4533" class="st0" d="M23.2,176.7L23.2,176.7c0.7,0,1.2,0.5,1.2,1.2v22.4c0,0.7-0.5,1.2-1.2,1.2h0
			c-0.7,0-1.2-0.5-1.2-1.2v-22.4C22.1,177.2,22.6,176.7,23.2,176.7z"/>
		<path id="rect4535" class="st0" d="M27.2,178.2L27.2,178.2c0.7,0,1.2,0.5,1.2,1.2v20.9c0,0.7-0.5,1.2-1.2,1.2h0
			c-0.7,0-1.2-0.5-1.2-1.2v-20.9C26,178.8,26.5,178.2,27.2,178.2z"/>
		<path id="rect4537" class="st0" d="M31.1,182L31.1,182c0.7,0,1.2,0.5,1.2,1.2v17.1c0,0.7-0.5,1.2-1.2,1.2h0
			c-0.7,0-1.2-0.5-1.2-1.2v-17.1C29.9,182.5,30.4,182,31.1,182z"/>
		<path id="rect4539" class="st0" d="M35,182.2L35,182.2c0.7,0,1.2,0.5,1.2,1.2v17c0,0.7-0.5,1.2-1.2,1.2h0c-0.7,0-1.2-0.5-1.2-1.2
			v-17C33.8,182.7,34.3,182.2,35,182.2z"/>
		<path id="rect4541" class="st0" d="M38.9,184L38.9,184c0.7,0,1.2,0.5,1.2,1.2v15.1c0,0.7-0.5,1.2-1.2,1.2h0
			c-0.7,0-1.2-0.5-1.2-1.2v-15.1C37.7,184.6,38.3,184,38.9,184z"/>
		<path id="rect4543" class="st0" d="M42.8,186.8L42.8,186.8c0.7,0,1.2,0.5,1.2,1.2v12.2c0,0.7-0.5,1.2-1.2,1.2h0
			c-0.7,0-1.2-0.5-1.2-1.2V188C41.6,187.3,42.2,186.8,42.8,186.8z"/>
		<path id="rect4545" class="st0" d="M46.7,189.7L46.7,189.7c0.7,0,1.2,0.5,1.2,1.2v6.5c0,0.7-0.5,1.2-1.2,1.2h0
			c-0.7,0-1.2-0.5-1.2-1.2v-6.5C45.6,190.2,46.1,189.7,46.7,189.7z"/>
	</g>
</g>
</svg>
