<svg xmlns="http://www.w3.org/2000/svg" viewBox="0 0 48 48"><style>.almalinux_svg__st1{fill:#86da2f}.almalinux_svg__st2{fill:#24c2ff}.almalinux_svg__st3{fill:#ffcb12}.almalinux_svg__st4{fill:#0069da}.almalinux_svg__st5{fill:#ff4649}</style><path d="M44.135 27.04c2.045-.157 3.696 1.18 3.854 3.225.157 2.123-1.337 3.854-3.382 4.011-1.967.157-3.697-1.337-3.854-3.303-.158-2.124 1.258-3.697 3.382-3.933z" class="almalinux_svg__st1"/><path d="M19.28 43.793c0-2.045 1.574-3.618 3.461-3.618s3.697 1.73 3.697 3.697c0 1.887-1.573 3.539-3.382 3.618-2.28 0-3.775-1.416-3.775-3.697z" class="almalinux_svg__st2"/><path d="M24.865 20.827c-.315.157-.472-.079-.55-.315-2.91-5.427-2.045-12.27 3.067-16.36 1.337-1.1 3.854-1.337 4.955-.236.472.394.55.866.63 1.416.157 1.18.392 2.36 1.179 3.304.865 1.022 1.966 1.415 3.225 1.337 1.1 0 2.202-.158 2.91 1.1.393.709.236 3.461-.393 4.012-.315.236-.551.079-.787 0-1.809-.708-3.697-.708-5.584-.393-.63.078-.944-.079-.944-.787-.079-1.18-.315-2.28-.944-3.303-1.18-2.124-3.382-2.202-4.798-.236-1.18 1.573-1.494 3.46-1.809 5.348-.314 1.652-.236 3.382-.157 5.113 0 0-.079 0 0 0z" class="almalinux_svg__st3"/><path d="M26.831 22.006c-.157-.236-.078-.471.158-.629 4.483-4.09 11.168-4.876 16.36-.865 1.336 1.101 2.202 3.382 1.494 4.72-.315.55-.708.786-1.18.943-1.101.472-2.124.944-2.832 1.966s-.865 2.203-.55 3.461c.236 1.022.63 2.124-.393 3.067-.551.551-3.225 1.023-3.933.551-.315-.236-.236-.472-.157-.787.236-1.966-.236-3.775-.944-5.505-.236-.63-.157-.944.472-1.101 1.1-.315 2.123-.865 2.91-1.652 1.73-1.652 1.337-3.775-.944-4.72-1.809-.786-3.697-.628-5.506-.471-1.73.079-3.382.55-4.955 1.022z" class="almalinux_svg__st1"/><path d="M25.809 24.051c.236-.236.393-.157.63 0 5.19 3.146 7.864 9.36 5.505 15.416-.63 1.573-2.674 3.146-4.169 2.753-.629-.157-.944-.472-1.258-.865-.708-.944-1.495-1.81-2.674-2.202-1.259-.394-2.36-.158-3.461.471-.944.551-1.888 1.259-3.068.551-.707-.393-1.887-2.831-1.651-3.618.157-.315.472-.315.786-.315 1.967-.314 3.54-1.258 5.034-2.516.472-.394.865-.394 1.258.157.63.944 1.416 1.73 2.439 2.28 2.045 1.18 4.01.158 4.247-2.201.236-1.967-.472-3.697-1.101-5.427-.708-1.573-1.573-3.068-2.517-4.484z" class="almalinux_svg__st2"/><path d="M23.292 24.523c-.315 1.573-1.022 3.068-1.966 4.405-2.832 4.247-6.922 5.977-11.955 5.505-1.81-.157-3.304-1.651-3.461-3.146-.079-.629.079-1.1.472-1.573.55-.708 1.022-1.337 1.258-2.202.472-1.73-.157-3.146-1.415-4.404-1.73-1.73-1.495-3.304.55-4.562a8.58 8.58 0 0 1 .865-.472c.472-.236.865-.236 1.023.314.708 1.81 2.123 3.147 3.696 4.248.55.472.55.786.079 1.337a5.84 5.84 0 0 0-1.573 3.696c-.157 1.73.865 2.832 2.596 2.832 1.1 0 2.123-.393 3.067-.865 2.438-1.259 4.326-3.068 6.135-4.955.236-.08.314-.236.629-.158z" class="almalinux_svg__st4"/><path d="M10.393 8.007c.157 0 .55.078.944.157 2.91.55 4.719-.472 5.663-3.225.63-1.809 1.966-2.36 3.696-1.416.08 0 .08.08.158.08 1.809 1.022 1.809 1.179.708 2.752-.944 1.258-1.416 2.674-1.652 4.168-.157.866-.472 1.023-1.258.708-1.259-.472-2.596-.472-3.933 0-1.494.472-2.124 1.81-1.652 3.304.63 1.966 2.36 2.831 3.854 3.854s3.225 1.573 4.877 2.28c.236.08.629.08.55.472-.078.236-.393.236-.708.236-3.539.158-6.921-.393-9.674-2.752-2.595-2.124-4.483-4.72-4.168-8.337.236-1.18 1.1-2.045 2.595-2.281z" class="almalinux_svg__st5"/><path d="M3.943 30.108C2.056 30.344.168 28.77.011 26.804c-.157-1.887 1.416-3.775 3.225-3.932 2.045-.236 3.932 1.18 4.09 3.067.078 1.809-1.102 4.011-3.383 4.169z" class="almalinux_svg__st4"/><path d="M36.977 2.108c1.967-.158 3.854 1.415 4.012 3.382.157 1.887-1.416 3.696-3.304 3.854-2.045.157-3.854-1.337-4.01-3.304s1.257-3.775 3.302-3.932z" class="almalinux_svg__st3"/><path d="M16.45 3.602c.235 2.045-1.18 3.775-3.304 4.09-1.81.236-3.697-1.258-3.933-2.989C8.977 2.423 10.236.771 12.36.535c1.967-.236 3.854 1.258 4.09 3.067z" class="almalinux_svg__st5"/></svg>