<svg xmlns="http://www.w3.org/2000/svg" xml:space="preserve" width="48" height="48"><g style="stroke-width:3.87763"><g style="fill:#0d597f;fill-opacity:1;stroke-width:3.87763"><path d="M0 0v15.687L-11.296 4.379A32.388 32.388 0 0 1-7.853 2.27 23.072 23.072 0 0 1-4.823.932a17.078 17.078 0 0 1 2.617-.71A13.247 13.247 0 0 1 0 0m57.751 1.304c.02-.017.13-.11.333-.239a5.89 5.89 0 0 1 .898-.462 8.04 8.04 0 0 1 1.485-.448 10.45 10.45 0 0 1 2.098-.202c.671 0 1.411.059 2.222.2.812.142 1.693.367 2.645.699.953.333 1.976.773 3.07 1.344a32.525 32.525 0 0 1 3.495 2.136l-8.572 8.397-28.41 28.516-12.466-12.469L7.733 46.117-34.471 4.39a32.497 32.497 0 0 1 3.491-2.136A23.13 23.13 0 0 1-27.913.91 16.712 16.712 0 0 1-25.27.212a12.85 12.85 0 0 1 2.22-.201c.804 0 1.502.08 2.097.202a7.982 7.982 0 0 1 1.485.449c.396.164.693.331.897.461.204.13.314.223.334.24L.815 20.415l6.813 6.533L26.494 8.082l6.591-6.778c.02-.017.13-.11.334-.239a5.87 5.87 0 0 1 .897-.462c.396-.164.89-.327 1.485-.448A10.461 10.461 0 0 1 37.9-.047c.67 0 1.411.059 2.222.2a16.88 16.88 0 0 1 2.645.699c.952.333 1.975.773 3.069 1.344a32.525 32.525 0 0 1 3.495 2.136L34.192 19.157l2.818 2.818L50.111 8.874l7.64-7.57m-.163 79.016 37.219-64.482-37.219-64.482h-74.463l-37.219 64.482 37.219 64.482z" style="fill:#0d597f;fill-opacity:1;fill-rule:nonzero;stroke:none;stroke-width:3.87763" transform="matrix(.32236 0 0 -.32236 17.438 29.106)"/></g><g style="fill:#0d597f;fill-opacity:1;stroke-width:3.87763"><path d="m0 0-9.913 9.895.705.709L.775.73Z" style="fill:#0d597f;fill-opacity:1;fill-rule:nonzero;stroke:none;stroke-width:3.87763" transform="matrix(.32236 0 0 -.32236 28.516 22.987)"/></g></g></svg>