<svg xmlns="http://www.w3.org/2000/svg" viewBox="0 0 48 48"><g fill="#0d597f" stroke-width="3.878"><path d="M17.438 29.106v-5.057l-3.641 3.645a10.44 10.44 0 0 0 1.11.68 7.437 7.437 0 0 0 .976.432 5.505 5.505 0 0 0 .844.228 4.27 4.27 0 0 0 .711.072m18.617-.42a.974.974 0 0 0 .107.077 1.899 1.899 0 0 0 .29.149 2.592 2.592 0 0 0 .478.144 3.369 3.369 0 0 0 .676.065c.217 0 .455-.019.717-.064.261-.046.545-.119.852-.226.308-.107.637-.249.99-.433a10.485 10.485 0 0 0 1.127-.688l-2.764-2.707-9.158-9.193-4.018 4.02-5.421-5.59L6.326 27.69a10.476 10.476 0 0 0 1.125.69 7.456 7.456 0 0 0 .989.433 5.387 5.387 0 0 0 .852.225 4.142 4.142 0 0 0 .716.064c.259 0 .484-.025.676-.065a2.573 2.573 0 0 0 .478-.144c.128-.053.224-.107.29-.149a.986.986 0 0 0 .107-.077l6.142-6.142 2.196-2.106 6.082 6.082 2.124 2.185a.96.96 0 0 0 .108.077 1.892 1.892 0 0 0 .29.149c.127.052.286.105.478.144a3.372 3.372 0 0 0 .676.065c.216 0 .455-.019.717-.064a5.441 5.441 0 0 0 .852-.226 7.48 7.48 0 0 0 .99-.433 10.485 10.485 0 0 0 1.126-.688l-4.88-4.78.909-.908 4.223 4.223 2.463 2.44m-.053-25.471L48 24 36.002 44.787H11.998L0 24 11.998 3.214z"/><path d="m28.516 22.987-3.196-3.19.228-.228 3.218 3.183Z"/></g></svg>