<svg xmlns="http://www.w3.org/2000/svg" viewBox="0 0 48 48"><path fill="#f90" d="M43.388 23.467c-5.258 3.874-12.875 5.94-19.434 5.94-9.196 0-17.478-3.402-23.744-9.059-.49-.444-.049-1.051.541-.704 6.761 3.932 15.119 6.3 23.753 6.3 5.823 0 12.23-1.207 18.12-3.706.89-.377 1.634.583.764 1.229"/><path fill="#f90" d="M45.574 20.966c-.67-.859-4.442-.405-6.134-.205-.516.064-.596-.386-.132-.709 3.006-2.114 7.933-1.503 8.51-.795.575.713-.15 5.653-2.974 8.013-.433.361-.846.17-.652-.311.633-1.583 2.054-5.131 1.382-5.993"/></svg>