<svg xmlns="http://www.w3.org/2000/svg" width="48" height="48" style="fill:#221f1f"><path d="M29.778 28.08c-2.79 2.056-6.832 3.152-10.313 3.152-4.88 0-9.275-1.805-12.6-4.807-.26-.236-.026-.558.287-.374 3.588 2.087 8.023 3.343 12.605 3.343 3.09 0 6.49-.64 9.616-1.966.472-.2.867.309.405.652" style="fill:#f90;stroke-width:.0796972" transform="translate(-12.726 -29.447) scale(1.88437)"/><path d="M30.938 26.753c-.355-.456-2.357-.215-3.255-.109-.274.034-.316-.205-.07-.376 1.595-1.122 4.21-.798 4.516-.422.305.378-.08 3-1.578 4.252-.23.192-.449.09-.346-.165.336-.84 1.09-2.723.733-3.18" style="fill:#f90;stroke-width:.0796972" transform="translate(-12.726 -29.447) scale(1.88437)"/></svg>