<svg xmlns="http://www.w3.org/2000/svg" fill="#221f1f" viewBox="0 0 48 48"><g stroke-width=".08"><path fill="#f90" d="M29.78 28.08c-2.79 2.056-6.833 3.153-10.314 3.153-4.881 0-9.275-1.805-12.6-4.808-.261-.236-.027-.558.286-.374 3.588 2.087 8.024 3.343 12.606 3.343 3.09 0 6.49-.64 9.616-1.966.472-.2.867.31.405.652"/><path fill="#f90" d="M30.939 26.753c-.355-.455-2.357-.215-3.255-.109-.274.034-.316-.204-.07-.376 1.595-1.122 4.211-.798 4.516-.422.305.378-.08 3-1.578 4.252-.23.193-.449.09-.346-.165.336-.84 1.09-2.722.733-3.18"/><path d="M4.378 21.574v-.322c-1.074 0-2.209.23-2.209 1.496 0 .642.332 1.076.903 1.076.417 0 .792-.257 1.028-.675.292-.514.278-.996.278-1.575m1.498 3.621a.31.31 0 0 1-.351.036c-.493-.41-.581-.6-.853-.99-.815.83-1.391 1.08-2.449 1.08C.973 25.32 0 24.548 0 23.004c0-1.205.654-2.026 1.584-2.428.806-.355 1.933-.418 2.793-.516v-.192c0-.353.028-.771-.18-1.076-.181-.274-.528-.387-.833-.387-.566 0-1.072.29-1.195.893-.025.133-.123.265-.257.271L.47 19.416c-.121-.028-.255-.126-.221-.312.332-1.747 1.91-2.273 3.322-2.273.723 0 1.667.192 2.238.74.723.674.654 1.575.654 2.555v2.315c0 .696.288 1.001.56 1.377.096.134.117.295-.005.395-.302.253-.842.723-1.138.986l-.004-.004m17.978-3.621v-.322c-1.074 0-2.209.23-2.209 1.496 0 .642.332 1.076.903 1.076.418 0 .792-.257 1.028-.675.292-.514.278-.996.278-1.575m1.498 3.621a.31.31 0 0 1-.351.036c-.493-.41-.581-.6-.853-.99-.815.83-1.391 1.08-2.449 1.08-1.25 0-2.223-.772-2.223-2.316 0-1.205.654-2.026 1.584-2.428.806-.355 1.933-.418 2.794-.516v-.192c0-.353.027-.771-.18-1.076-.182-.274-.529-.387-.834-.387-.566 0-1.072.29-1.195.893-.025.133-.123.265-.257.271l-1.442-.154c-.121-.027-.255-.126-.221-.312.332-1.747 1.91-2.273 3.322-2.273.723 0 1.667.192 2.238.74.723.674.654 1.575.654 2.555v2.315c0 .696.288 1.001.56 1.377.096.134.117.295-.004.395-.303.253-.842.723-1.14.986l-.003-.004m2.394-6.848v-1.09a.27.27 0 0 1 .276-.277h4.883c.156 0 .282.113.282.276v.934c-.002.157-.134.362-.368.685l-2.53 3.613c.94-.023 1.932.117 2.785.598.192.108.245.267.26.424v1.164c0 .158-.176.344-.36.248-1.503-.787-3.498-.873-5.16.009-.168.092-.346-.092-.346-.251v-1.105c0-.178.002-.48.18-.75l2.931-4.205h-2.551c-.157 0-.282-.11-.282-.273M9.933 25.152H8.447a.28.28 0 0 1-.265-.253v-7.624c0-.153.127-.274.286-.274h1.385a.28.28 0 0 1 .27.255v.997h.027c.362-.964 1.04-1.413 1.956-1.413.93 0 1.51.45 1.928 1.413.36-.964 1.177-1.413 2.052-1.413.623 0 1.304.257 1.72.834.47.641.374 1.573.374 2.39l-.002 4.812a.28.28 0 0 1-.286.276h-1.484a.282.282 0 0 1-.267-.276v-4.04c0-.322.029-1.125-.042-1.43-.11-.512-.443-.656-.874-.656a.987.987 0 0 0-.888.625c-.152.384-.137 1.028-.137 1.46v4.041a.28.28 0 0 1-.287.276H12.43a.28.28 0 0 1-.268-.276l-.002-4.04c0-.851.14-2.103-.915-2.103-1.068 0-1.026 1.22-1.026 2.102v4.041a.28.28 0 0 1-.286.276M37.39 16.84c2.204 0 3.397 1.893 3.397 4.3 0 2.326-1.318 4.171-3.397 4.171-2.165 0-3.343-1.893-3.343-4.252 0-2.374 1.193-4.219 3.343-4.219m.012 1.557c-1.095 0-1.164 1.492-1.164 2.422 0 .931-.014 2.92 1.152 2.92 1.151 0 1.205-1.604 1.205-2.582 0-.643-.027-1.412-.221-2.022-.167-.531-.5-.738-.972-.738m6.244 6.755h-1.48a.282.282 0 0 1-.267-.276l-.002-7.626a.281.281 0 0 1 .286-.249h1.377c.13.006.236.094.265.213v1.166h.028c.415-1.042.998-1.54 2.024-1.54.667 0 1.317.24 1.735.899.388.61.388 1.636.388 2.373v4.8a.285.285 0 0 1-.286.24h-1.49a.281.281 0 0 1-.263-.24V20.77c0-.833.096-2.054-.93-2.054-.361 0-.694.243-.859.61-.209.467-.236.93-.236 1.444v4.106a.286.286 0 0 1-.29.276"/></g></svg>