<svg xmlns="http://www.w3.org/2000/svg" viewBox="0 0 48 48"><style>.amazonwebservices_svg__st1{fill-rule:evenodd;clip-rule:evenodd;fill:#f90}</style><path fill="#252f3e" d="M13.527 20.072c0 .59.064 1.07.176 1.42.127.352.287.735.51 1.15.08.128.112.256.112.367 0 .16-.096.32-.303.48l-1.006.67a.765.765 0 0 1-.415.144c-.16 0-.32-.08-.479-.224a4.939 4.939 0 0 1-.575-.75c-.16-.272-.319-.575-.495-.942-1.245 1.469-2.81 2.203-4.693 2.203-1.34 0-2.41-.383-3.193-1.15s-1.181-1.787-1.181-3.065c0-1.357.479-2.458 1.453-3.288s2.267-1.245 3.91-1.245c.544 0 1.102.048 1.693.127s1.197.208 1.836.352v-1.166c0-1.213-.256-2.06-.75-2.554-.511-.495-1.373-.734-2.603-.734-.558 0-1.133.063-1.724.207s-1.165.32-1.724.543c-.255.112-.447.176-.559.207s-.191.048-.255.048c-.223 0-.335-.16-.335-.495v-.782c0-.255.032-.447.112-.559s.223-.223.447-.335c.558-.287 1.229-.527 2.011-.718a9.679 9.679 0 0 1 2.49-.303c1.9 0 3.289.43 4.183 1.293.878.862 1.325 2.17 1.325 3.927v5.172zM7.046 22.5c.526 0 1.07-.096 1.644-.288s1.085-.543 1.516-1.021c.256-.304.447-.639.543-1.022s.16-.846.16-1.389v-.67c-.463-.112-.958-.208-1.469-.272s-1.006-.096-1.5-.096c-1.07 0-1.852.208-2.38.639s-.781 1.038-.781 1.836c0 .75.191 1.309.59 1.692.383.4.942.59 1.677.59zm12.819 1.724c-.288 0-.48-.048-.607-.16-.128-.096-.24-.32-.335-.622L15.17 11.1c-.096-.32-.143-.527-.143-.64 0-.255.127-.398.383-.398h1.564c.303 0 .511.048.623.16.127.095.223.319.319.622l2.682 10.568 2.49-10.568c.08-.32.176-.527.304-.623s.35-.16.638-.16h1.277c.304 0 .511.049.639.16.128.096.24.32.303.623l2.523 10.696 2.761-10.696c.096-.32.208-.527.32-.623.127-.095.335-.16.622-.16h1.485c.255 0 .399.128.399.4 0 .08-.016.16-.032.255s-.048.224-.112.4l-3.847 12.34c-.096.319-.208.526-.335.622s-.336.16-.607.16h-1.373c-.303 0-.51-.048-.638-.16s-.24-.32-.304-.638l-2.474-10.297-2.459 10.28c-.08.32-.175.527-.303.64s-.351.159-.638.159zm20.513.43c-.83 0-1.66-.095-2.458-.287s-1.42-.399-1.836-.638c-.255-.144-.431-.303-.495-.447s-.096-.303-.096-.447v-.814c0-.336.128-.495.368-.495.095 0 .191.016.287.048s.24.095.399.16c.543.239 1.133.43 1.756.558a9.587 9.587 0 0 0 1.9.192c1.005 0 1.788-.176 2.33-.527s.83-.862.83-1.517c0-.447-.143-.814-.43-1.117s-.83-.575-1.613-.83l-2.315-.719c-1.165-.367-2.027-.91-2.554-1.628-.527-.702-.798-1.485-.798-2.315 0-.67.144-1.261.431-1.772s.67-.958 1.15-1.309c.478-.367 1.021-.638 1.66-.83s1.309-.271 2.011-.271c.351 0 .719.016 1.07.063.367.048.702.112 1.037.176.32.08.623.16.91.255s.511.192.67.288c.224.128.384.255.48.399.096.128.143.303.143.527v.75c0 .335-.127.51-.367.51-.127 0-.335-.063-.606-.19-.91-.416-1.932-.623-3.065-.623-.91 0-1.629.143-2.124.447s-.75.766-.75 1.42c0 .448.16.83.479 1.134s.91.607 1.756.878l2.267.718c1.15.368 1.98.878 2.474 1.533s.735 1.405.735 2.235c0 .686-.144 1.309-.415 1.852a4.293 4.293 0 0 1-1.166 1.405c-.495.399-1.085.686-1.772.894a7.591 7.591 0 0 1-2.283.335z"/><path d="M43.396 32.412c-5.253 3.88-12.883 5.939-19.445 5.939-9.195 0-17.48-3.4-23.738-9.052-.495-.447-.048-1.053.543-.702 6.768 3.927 15.118 6.306 23.754 6.306 5.827 0 12.229-1.214 18.12-3.704.877-.4 1.628.575.766 1.213z" class="amazonwebservices_svg__st1"/><path d="M45.583 29.922c-.67-.862-4.438-.415-6.147-.208-.51.064-.59-.383-.127-.718 3.001-2.107 7.934-1.5 8.509-.798.574.718-.16 5.651-2.97 8.014-.43.367-.846.175-.654-.304.638-1.58 2.06-5.14 1.389-5.986z" class="amazonwebservices_svg__st1"/></svg>