<svg xmlns="http://www.w3.org/2000/svg" viewBox="0 0 48 48"><path d="M11.273 28.963H8.611L7.797 27H3.36l-.742 1.964H0l4-9.92h2.866Zm-5.804-7.55-1.454 3.855h3.054Zm15.474-2.37h2.153v9.92h-2.473v-6.197l-2.676 3.113h-.379l-2.676-3.113v6.197H12.42v-9.92h2.153l3.185 3.68zm8.42 0c3.621 0 5.483 2.254 5.483 4.974 0 2.851-1.804 4.946-5.76 4.946h-4.102v-9.92Zm-1.906 8.102h1.614c2.488 0 3.23-1.688 3.23-3.143 0-1.702-.917-3.141-3.259-3.141h-1.585v6.284zm12.31-5.75-3.12-3.12H48V29.63l-3.118-3.119v-5.115Zm-.005.625-3.21 3.21v4.494h4.493l3.21-3.21h-4.493z" style="stroke-width:.06"/></svg>