<?xml version="1.0" encoding="utf-8"?>
<!-- Generator: Adobe Illustrator 27.1.1, SVG Export Plug-In . SVG Version: 6.00 Build 0)  -->
<svg version="1.1" id="Layer_1" xmlns="http://www.w3.org/2000/svg" xmlns:xlink="http://www.w3.org/1999/xlink" x="0px" y="0px"
	 viewBox="0 0 150 150" style="enable-background:new 0 0 150 150;" xml:space="preserve">
<style type="text/css">
	.st0{fill:#F7A93B;}
	.st1{fill:#442401;}
	.st2{fill:none;stroke:#D5A448;stroke-width:2;stroke-linecap:square;stroke-miterlimit:3;}
	.st3{fill:none;stroke:#442401;stroke-linecap:round;stroke-miterlimit:3;}
</style>
<g transform="matrix( 1, 0, 0, 1, 0,0) ">
	<g>
		<g id="Layer0_0_FILL">
			<path class="st0" d="M122.9,19.2c-0.2-0.2-0.3-0.4-0.6-0.5C109,7.2,93.2,1.5,75,1.5c-20.3,0-37.7,7.2-52.1,21.5
				C8.6,37.3,1.5,54.7,1.5,75s7.2,37.6,21.5,51.9c14.4,14.4,31.7,21.6,52.1,21.6s37.6-7.2,51.9-21.6c14.4-14.3,21.6-31.7,21.6-51.9
				s-7.2-37.7-21.6-52.1C125.7,21.6,124.3,20.4,122.9,19.2 M53.1,119l-20.2-15.5l38.3-80H87l27.3,85.3l-12.1,4.7l-5.7-19.2H61.8
				L53.1,119 M80.4,40.7L69.5,72.2l19.5-3L80.4,40.7 M93.2,82.8l-1.9-6.2l-23.1,5.9L93.2,82.8 M44.5,103.5H49l4.1-16.3L44.5,103.5z"
				/>
			<path class="st1" d="M93.2,82.8l3.4,11.5l5.7,19.2l12.1-4.7L87,23.5H71.2l-38.3,80L53.1,119l8.7-24.8l7.7-22l10.9-31.6L89,69.2
				l2.2,7.3L93.2,82.8 M49,103.5h-4.5l8.6-16.3L49,103.5 M96.6,94.2l-3.4-11.5l-25.1-0.2l23.1-5.9L89,69.2l-19.5,3l-7.7,22H96.6z"/>
		</g>
	</g>
	<g>
		<path id="Layer0_0_1_STROKES" class="st2" d="M148.5,75c0,20.3-7.2,37.6-21.6,51.9c-14.3,14.4-31.7,21.6-51.9,21.6
			s-37.7-7.2-52.1-21.6C8.6,112.6,1.5,95.3,1.5,75s7.2-37.7,21.5-52.1C37.3,8.6,54.7,1.5,75,1.5c18.2,0,34,5.7,47.4,17.2
			c0.2,0.2,0.4,0.4,0.6,0.5c1.4,1.2,2.7,2.4,4,3.7C141.3,37.3,148.5,54.7,148.5,75z"/>
	</g>
	<g>
		<path id="Layer0_0_2_STROKES" class="st3" d="M96.6,94.2l-3.4-11.5l-25.1-0.2l23.1-5.9L89,69.2l-19.5,3l-7.7,22H96.6l5.7,19.2
			l12.1-4.7L87,23.5H71.2l-38.3,80L53.1,119l8.7-24.8 M93.2,82.8l-1.9-6.2 M89,69.2l-8.6-28.6L69.5,72.2 M44.5,103.5H49l4.1-16.3
			L44.5,103.5z"/>
	</g>
</g>
</svg>
