<svg xmlns="http://www.w3.org/2000/svg" viewBox="0 0 48 48"><g style="stroke-width:4.4497"><path fill="#5bbdbf" d="M259.793 152.92A106.793 106.793 0 1 1 153 46.127 106.787 106.787 0 0 1 259.793 152.92" style="stroke-width:19.7999" transform="translate(-10.384 -10.366) scale(.22473)"/><path fill="#fff" d="m154.8 112.893 27.638 68.209-41.746-32.88zm49.095 83.922-42.51-102.3A6.856 6.856 0 0 0 154.799 90a7.088 7.088 0 0 0-6.765 4.513l-46.657 112.212h15.961l18.468-46.268 55.117 44.53c2.219 1.794 3.816 2.605 5.897 2.605a7.624 7.624 0 0 0 7.803-7.63 10.114 10.114 0 0 0-.728-3.148" style="stroke-width:19.7999" transform="translate(-10.384 -10.366) scale(.22473)"/></g></svg>