<svg xmlns="http://www.w3.org/2000/svg" viewBox="0 0 48 48"><g fill="#161b1f" style="stroke-width:4.44955"><path d="m203.795 195.287-41.59-100.09a6.712 6.712 0 0 0-6.443-4.414 6.936 6.936 0 0 0-6.62 4.414l-45.65 109.787h15.616l18.07-45.266 53.926 43.566c2.17 1.754 3.734 2.547 5.768 2.547a7.457 7.457 0 0 0 7.635-7.463 9.884 9.884 0 0 0-.712-3.08zm-48.033-82.106 27.038 66.734-40.84-32.171z" style="stroke-width:19.7985" transform="translate(-10.61 -10.367) scale(.22474)"/><path d="M154 259.708a106.79 106.79 0 1 1 106.79-106.789A106.91 106.91 0 0 1 154 259.708zm0-208.967a102.178 102.178 0 1 0 102.178 102.178A102.294 102.294 0 0 0 154 50.741z" style="stroke-width:19.7985" transform="translate(-10.61 -10.367) scale(.22474)"/></g></svg>