<svg xmlns="http://www.w3.org/2000/svg" viewBox="0 0 48 48"><g fill="#536af4"><path d="M29.938 16.919H18.356L6.42 48h3.783l2.522-6.45h22.988L38.265 48h3.783zm-9.178 3.518h6.744l1.349 3.52H19.44zm-2.668 7.038H30.26l1.35 3.518H16.742zM14.045 38.03l1.349-3.519h17.593l1.349 3.519zM26.888 9.735l1.173 3.46h-8.093l1.173-3.46zM13.81 17.916c-1.73-1.73-2.668-4.017-2.668-6.451s.939-4.72 2.669-6.45l2.492 2.491c-1.056 1.056-1.642 2.463-1.642 3.959s.586 2.903 1.642 3.958z"/><path d="M8.797 22.93C2.463 16.596 2.463 6.304 8.797 0l2.492 2.492c-4.955 4.956-4.955 13.02 0 17.945zM34.19 17.916l-2.464-2.493c1.056-1.055 1.642-2.463 1.642-3.958s-.586-2.903-1.642-3.959l2.493-2.492c1.73 1.73 2.668 4.017 2.668 6.45s-.968 4.722-2.698 6.452"/><path d="m39.203 22.93-2.492-2.493c4.956-4.955 4.956-13.019 0-17.945L39.203 0c6.334 6.304 6.334 16.596 0 22.93"/></g></svg>
