<svg xmlns="http://www.w3.org/2000/svg" xml:space="preserve" width="48" height="48" preserveAspectRatio="xMidYMid" style="fill-rule:evenodd;stroke-width:28.222;stroke-linejoin:round" version="1.2" viewBox="0 0 1270 1270"><g style="visibility:visible"><path d="M0 0h15240v13157H0z" style="fill:none;stroke:none"/></g><g style="visibility:visible"><path d="M7620 13157H0V0h15240v13157z" style="fill:#fff;stroke:none" transform="translate(0 86.786) scale(.08333)"/><path d="M0 0h15241v13158H0z" style="fill:none;stroke:none" transform="translate(0 86.786) scale(.08333)"/><path d="M0 0v4020c2059-862 4815-1729 8274-2603C10490 858 12632 386 14700 0Zm9847 1912c-1815 458-3275 924-4380 1397-1107 463-1624 840-1551 1129 64 255 527 371 1392 346 444-8 1165-56 2165-145 1000-88 2290-217 3870-385 1565-163 2858-274 3897-338V861c-2008 300-3808 650-5393 1051zm-909 4147c-786 59-1761 149-2927 272-1809 194-3312 341-4508 440-572 48-1070 83-1503 108v3258c2373-350 4519-766 6433-1249 1881-475 3330-936 4348-1383 1017-448 1486-824 1409-1132-67-266-537-402-1408-408-446 5-1060 36-1844 94zm6302 1054c-2086 822-4674 1623-7766 2404-2881 727-5370 1250-7474 1571v29h15240z" style="fill:#809cc9;stroke:none" transform="translate(0 86.828) scale(.08333)"/><path d="M656 7792c40 0 74 15 103 45 29 29 44 63 44 103 0 42-15 78-44 107s-64 43-105 43c-42 0-77-14-106-43-29-30-44-65-44-107 0-41 15-76 44-105s66-43 108-43zm103 1005c29 29 44 64 44 106 0 41-15 76-44 105-31 29-66 43-105 43-21 0-41-4-59-12-18-7-34-18-47-31-14-14-25-29-32-48-8-18-12-38-12-59 0-41 15-76 44-105s66-44 108-44c40 0 74 15 103 45zm413-1005c40 0 74 15 103 45 29 29 44 63 44 103 0 42-15 78-44 107s-64 43-105 43c-42 0-78-14-107-43-29-30-43-65-43-107 0-41 14-76 43-105 30-29 67-43 109-43zm103 1005c29 29 44 64 44 106 0 41-15 76-44 105-31 29-66 43-105 43-21 0-41-4-59-12-18-7-34-18-48-31-13-14-24-29-31-48-8-18-12-38-12-59 0-41 14-76 43-105 30-29 67-44 109-44 40 0 74 15 103 45z" style="fill:#fff;stroke:none" transform="translate(0 86.828) scale(.08333)"/><path d="M851 12433c-32 48-78 86-138 114-61 27-133 41-216 41-99 0-181-19-246-56-46-27-84-64-112-109-29-45-43-89-43-132 0-25 8-46 25-64 18-17 40-26 66-26 22 0 40 7 55 21 15 13 28 34 38 61 13 32 27 59 42 81 15 21 36 39 63 53s63 21 107 21c61 0 110-14 148-42 38-29 57-64 57-106 0-34-10-61-31-82-20-21-46-37-79-48-32-11-76-22-130-35-73-17-133-37-183-60-49-22-87-53-116-93-29-39-43-88-43-146 0-56 15-106 45-149 31-43 75-76 132-99 57-24 125-35 203-35 61 0 115 8 160 23s83 36 113 61c30 26 52 53 65 81 14 28 21 55 21 82 0 24-9 46-26 66-17 19-38 29-64 29-23 0-41-6-53-18-12-11-25-31-39-57-19-38-41-68-67-90-25-21-67-32-124-32-53 0-95 12-128 35-32 23-48 51-48 84 0 20 5 38 16 52 11 15 26 28 46 38 19 11 38 19 58 25s53 15 98 26c57 14 109 29 155 45s85 35 117 58 58 52 76 87c18 36 27 79 27 130 0 61-16 116-47 165zm859-766c0-41 9-72 28-93 18-21 43-31 73-31 32 0 57 10 76 31s28 52 28 93v498c0 57 6 104 19 142 12 38 35 68 67 89s77 31 134 31c80 0 136-21 169-64 33-42 50-107 50-194v-502c0-42 9-73 27-93 19-21 43-31 74-31s56 10 75 31c19 20 29 51 29 93v487c0 79-8 145-23 198-16 53-45 99-88 139-36 34-79 58-128 74-48 15-105 23-170 23-78 0-145-8-201-25s-101-43-137-78c-35-35-61-80-77-135-17-55-25-121-25-197zm1827 904c-44 0-76-10-95-30s-29-52-29-96v-759c0-45 10-77 29-96 20-20 52-29 95-29h328c49 0 90 2 126 8 35 6 67 18 95 34 24 15 45 33 63 55 19 21 33 45 42 72 10 26 15 54 15 83 0 102-51 175-152 222 133 43 199 125 199 247 0 57-14 108-43 153-29 46-68 79-117 101-31 13-66 21-107 27-39 5-86 8-140 8zm81-858v262h188c51 0 90-5 118-14 28-10 49-29 64-56 12-19 17-41 17-65 0-51-18-85-54-102s-92-25-167-25zm0 408v297h220c139 0 208-50 208-151 0-51-18-88-54-112-36-23-89-34-160-34z" style="fill:#809cc9;stroke:none" transform="translate(0 86.828) scale(.08333)"/><path d="m5443 12355 229-683c13-36 21-61 27-74 6-14 16-27 30-38 14-12 33-17 56-17 18 0 34 4 49 13s27 20 35 35c9 14 13 29 13 44 0 10-2 21-4 32-3 12-6 24-11 35-4 11-8 23-12 35l-244 660c-9 25-18 50-26 72-9 23-19 43-31 60-11 17-27 32-46 43s-42 16-69 16c-28 0-51-5-70-16s-35-25-46-43c-12-17-22-37-31-60s-17-47-26-72l-240-655c-5-12-9-24-13-35-5-12-8-24-11-37-3-14-5-25-5-34 0-24 10-45 29-64 18-20 42-29 70-29 35 0 60 10 75 32 14 21 29 55 44 102zm1434-638v249h425c31 0 54 7 70 21 15 14 23 33 23 56s-8 41-23 56c-15 14-39 22-70 22h-425v289h477c32 0 57 7 73 22s24 34 24 59c0 23-8 43-24 57-16 15-41 23-73 23h-556c-45 0-77-10-96-30-20-20-30-52-30-96v-759c0-30 5-53 13-72 9-19 23-32 41-41 19-8 43-12 72-12h540c33 0 57 7 73 21s24 33 24 56c0 24-8 43-24 57-16 15-40 22-73 22zm1575 421v325c0 43-10 75-29 95-18 20-43 30-74 30-32 0-57-10-76-32-17-21-26-52-26-93v-777c0-44 10-76 29-96 20-20 52-29 96-29h333c46 0 85 1 118 5 32 4 62 12 88 24 32 13 60 32 84 57s43 54 55 86c13 33 19 68 19 105 0 75-21 136-63 181-43 45-107 77-194 95 37 20 71 48 104 86s63 78 89 120c26 43 46 81 61 115 14 35 21 58 21 71 0 14-4 27-12 40-9 13-21 23-35 31-15 7-32 11-51 11-23 0-42-5-58-16s-29-25-40-41c-12-17-27-41-46-73l-82-137c-30-50-56-88-79-114-23-27-47-44-71-54-23-10-53-15-90-15zm0-425v280h183c49 0 90-5 124-13 33-9 59-23 77-44 17-20 26-49 26-85 0-28-7-53-21-75-15-21-34-37-60-48-23-10-70-15-141-15zm2167 720c-31 48-77 86-138 114-61 27-132 41-215 41-100 0-182-19-247-56-46-27-83-64-112-109s-43-89-43-132c0-25 9-46 26-64 17-17 39-26 66-26 21 0 40 7 55 21 14 13 27 34 38 61 13 32 27 59 41 81 16 21 37 39 64 53s63 21 107 21c60 0 110-14 148-42 38-29 57-64 57-106 0-34-11-61-31-82-21-21-47-37-80-48-32-11-75-22-130-35-72-17-133-37-182-60-49-22-88-53-117-93-28-39-43-88-43-146 0-56 15-106 46-149 30-43 74-76 131-99 58-24 125-35 203-35 62 0 115 8 161 23 45 15 83 36 112 61 30 26 52 53 66 81s20 55 20 82c0 24-8 46-25 66-17 19-39 29-64 29-24 0-41-6-54-18-12-11-25-31-39-57-18-38-40-68-66-90-26-21-67-32-124-32-53 0-96 12-128 35-33 23-49 51-49 84 0 20 5 38 17 52 11 15 26 28 45 38 20 11 39 19 59 25 19 6 52 15 98 26 57 14 108 29 154 45s85 35 118 58c32 23 57 52 75 87 18 36 27 79 27 130 0 61-15 116-47 165zm866-766c0-41 9-72 28-93s43-31 73-31c31 0 56 10 75 31 19 20 29 51 29 93v796c0 42-10 73-29 94s-44 31-75 31c-29 0-53-10-73-31-19-21-28-52-28-94zm1782-60c75 42 131 103 170 181s58 170 58 276c0 78-11 149-32 213s-53 120-95 166c-42 47-94 83-155 108-62 25-132 37-211 37s-150-13-212-38c-63-26-115-62-157-108-41-46-73-102-94-168-22-65-32-135-32-211 0-78 11-149 33-214s54-120 97-166c42-45 93-80 154-104s129-36 206-36c105 0 195 21 270 64zm-15 262c-24-54-58-95-102-123-45-28-96-42-153-42-40 0-78 8-113 23-34 15-64 38-89 68-25 29-45 67-59 113-15 46-22 97-22 155 0 57 7 110 22 156 14 47 35 86 61 116 26 31 57 54 91 69 34 16 71 23 112 23 52 0 100-13 144-39 44-27 79-67 105-122s39-123 39-203c0-75-12-139-36-194zm1716 393v-602c0-39 8-68 25-88s39-29 67-29c30 0 53 9 70 29s25 49 25 88v795c0 89-36 133-110 133-18 0-35-2-49-8-15-5-29-13-42-25-12-11-24-25-35-40-12-16-22-31-33-48l-386-589v593c0 38-9 68-27 87-18 20-41 30-69 30-29 0-52-10-69-30-18-20-27-49-27-87v-780c0-33 4-59 11-78 9-21 24-37 44-51 20-13 42-19 66-19 18 0 34 3 47 9s25 14 34 24c10 10 20 23 31 39 10 16 21 33 32 51z" style="fill:#999;stroke:none" transform="translate(0 86.828) scale(.08333)"/><path d="M0 13086h15240" style="fill:none;stroke:#809cc9;stroke-width:141" transform="translate(0 86.828) scale(.08333)"/><path d="M0 0h15241v13157H0z" style="fill:none;stroke:none" transform="translate(0 86.828) scale(.08333)"/></g></svg>