<svg xmlns="http://www.w3.org/2000/svg" viewBox="0 0 48 48"><defs><linearGradient id="apachehttpd_svg__a" x1="-6873.6" x2="-6636.2" y1="2774.3" y2="2496.7" gradientTransform="scale(1.0281 -1.0281) rotate(65 -830.484 7208.017)" gradientUnits="userSpaceOnUse"><stop offset="0" stop-color="#f59723"/><stop offset=".312" stop-color="#f69822"/><stop offset=".838" stop-color="#e87726"/></linearGradient><linearGradient id="apachehttpd_svg__b" x1="-8630.7" x2="-6936.9" y1="2805" y2="2805" gradientTransform="scale(1.0281 -1.0281) rotate(65 -830.484 7208.017)" gradientUnits="userSpaceOnUse"><stop offset=".323" stop-color="#9c2063"/><stop offset=".63" stop-color="#c82037"/><stop offset=".751" stop-color="#cc2135"/><stop offset="1" stop-color="#e87726"/></linearGradient><linearGradient id="apachehttpd_svg__c" x1="-8426.3" x2="-7416.9" y1="2635.3" y2="2635.3" gradientTransform="scale(1.0281 -1.0281) rotate(65 -830.484 7208.017)" gradientUnits="userSpaceOnUse"><stop offset="0" stop-color="#282661"/><stop offset=".095" stop-color="#662e8c"/><stop offset=".788" stop-color="#9e2064"/><stop offset=".949" stop-color="#cc2032"/></linearGradient><linearGradient id="apachehttpd_svg__d" x1="-8535.6" x2="-6841.8" y1="2820.9" y2="2820.9" gradientTransform="scale(1.0281 -1.0281) rotate(65 -830.484 7208.017)" gradientUnits="userSpaceOnUse"><stop offset=".323" stop-color="#9c2063"/><stop offset=".63" stop-color="#c82037"/><stop offset=".751" stop-color="#cc2135"/><stop offset="1" stop-color="#e87726"/></linearGradient><linearGradient id="apachehttpd_svg__e" x1="-8412.1" x2="-7521.9" y1="2797.9" y2="2797.9" gradientTransform="scale(1.0281 -1.0281) rotate(65 -830.484 7208.017)" gradientUnits="userSpaceOnUse"><stop offset="0" stop-color="#282661"/><stop offset=".095" stop-color="#662e8c"/><stop offset=".788" stop-color="#9e2064"/><stop offset=".949" stop-color="#cc2032"/></linearGradient><linearGradient id="apachehttpd_svg__f" x1="-8535.6" x2="-6841.8" y1="2645.5" y2="2645.5" gradientTransform="scale(1.0281 -1.0281) rotate(65 -830.484 7208.017)" gradientUnits="userSpaceOnUse"><stop offset=".323" stop-color="#9c2063"/><stop offset=".63" stop-color="#c82037"/><stop offset=".751" stop-color="#cc2135"/><stop offset="1" stop-color="#e87726"/></linearGradient><linearGradient id="apachehttpd_svg__g" x1="-8640.7" x2="-6946.9" y1="2654.3" y2="2654.3" gradientTransform="scale(1.0281 -1.0281) rotate(65 -830.484 7208.017)" gradientUnits="userSpaceOnUse"><stop offset=".323" stop-color="#9c2063"/><stop offset=".63" stop-color="#c82037"/><stop offset=".751" stop-color="#cc2135"/><stop offset="1" stop-color="#e87726"/></linearGradient><linearGradient id="apachehttpd_svg__h" x1="-8535.6" x2="-6841.8" y1="2593.4" y2="2593.4" gradientTransform="scale(1.0281 -1.0281) rotate(65 -830.484 7208.017)" gradientUnits="userSpaceOnUse"><stop offset=".323" stop-color="#9c2063"/><stop offset=".63" stop-color="#c82037"/><stop offset=".751" stop-color="#cc2135"/><stop offset="1" stop-color="#e87726"/></linearGradient><linearGradient id="apachehttpd_svg__i" x1="-8535.6" x2="-6841.8" y1="2599.3" y2="2599.3" gradientTransform="scale(1.0281 -1.0281) rotate(65 -830.484 7208.017)" gradientUnits="userSpaceOnUse"><stop offset=".323" stop-color="#9c2063"/><stop offset=".63" stop-color="#c82037"/><stop offset=".751" stop-color="#cc2135"/><stop offset="1" stop-color="#e87726"/></linearGradient><linearGradient id="apachehttpd_svg__j" x1="-7584" x2="-7209.7" y1="2600.6" y2="2600.6" gradientTransform="scale(1.0281 -1.0281) rotate(65 -830.484 7208.017)" gradientUnits="userSpaceOnUse"><stop offset=".323" stop-color="#9c2063"/><stop offset=".63" stop-color="#c82037"/><stop offset=".751" stop-color="#cc2135"/><stop offset="1" stop-color="#e87726"/></linearGradient></defs><g stroke-width="8.677"><path fill="url(#apachehttpd_svg__a)" d="M736.1 8.1c-27.1 16-72.2 61.3-125.8 127l49.3 93.2C694.3 178.8 729.5 134.1 765 96c2.8-3 4.1-4.4 4.1-4.4-1.3 1.4-2.8 3-4.1 4.4-11.5 12.6-46.4 53.4-99 134.2 50.7-2.5 128.5-12.9 192-23.7 19-105.9-18.5-154.3-18.5-154.3s-47.6-77-103.4-44.1z" transform="translate(12 .002) scale(.02778)"/><path fill="none" d="M30.124 14.999c.008-.003.02-.003.03-.006l-.197.023-.033.016a2.31 2.31 0 0 1 .2-.033zm-1.403 4.639zM19.205 30.04l.042-.114c.302-.797.602-1.572.897-2.328a218.366 218.366 0 0 1 1.997-4.891 142.9 142.9 0 0 1 1.03-2.372 155.025 155.025 0 0 1 1.078-2.375 91.796 91.796 0 0 1 .992-2.083c.053-.106.103-.211.155-.317a.955.955 0 0 0 .025-.053l-.169.017-.133-.264c-.014.025-.025.053-.04.078-.238.48-.48.96-.716 1.447-.136.283-.272.567-.408.847a166.51 166.51 0 0 0-1.106 2.378c-.366.808-.725 1.62-1.08 2.433a193.133 193.133 0 0 0-2.95 7.22c-.072.183-.139.363-.211.544-.25.65-.495 1.294-.73 1.927l.21.417.19-.02c.005-.019.013-.035.019-.058.308-.827.61-1.641.908-2.433z"/><g fill="#bd202e"><path d="M27.838 21.974c-.175.03-.353.064-.539.094 0 0-.003 0-.003.003l.278-.042c.086-.02.175-.036.264-.055z"/><path d="M27.838 21.974c-.175.03-.353.064-.539.094 0 0-.003 0-.003.003l.278-.042c.086-.02.175-.036.264-.055z" opacity=".35"/><path d="M28.296 19.71c-.002 0-.002 0-.002.003a.925.925 0 0 0 .086-.014c.116-.017.23-.036.341-.064-.139.025-.277.05-.425.075z"/><path d="M28.296 19.71c-.002 0-.002 0-.002.003a.925.925 0 0 0 .086-.014c.116-.017.23-.036.341-.064-.139.025-.277.05-.425.075z" opacity=".35"/></g><path fill="url(#apachehttpd_svg__b)" d="M514 469.2c15-28.1 30.2-55.5 45.5-82.1 15.9-27.8 32.1-54.6 48.4-80.6.9-1.5 2-3.1 2.9-4.6 16.1-25.5 32.4-50.1 48.7-73.5l-49.3-93.2c-3.7 4.5-7.4 9.1-11.2 13.9-14.3 17.8-29 36.8-44.2 57.1-17.1 22.8-34.6 47.2-52.5 72.8-16.4 23.6-33.2 48.3-50 74-14.3 21.8-28.5 44.2-42.7 67.2-.5.8-1 1.7-1.5 2.6l64.3 127c13.6-27.5 27.6-54.4 41.6-80.6z" transform="translate(12 .002) scale(.02778)"/><path fill="url(#apachehttpd_svg__c)" d="M221.2 1184.4c-8.5 23.3-17.1 47.2-25.6 71.5-.1.3-.2.7-.4 1-1.2 3.4-2.5 6.9-3.6 10.3-5.8 16.4-10.8 31.2-22.3 64.7 18.9 8.6 34.1 31.4 48.5 57.2-1.5-26.7-12.5-51.8-33.6-71.2 93.3 4.2 173.7-19.4 215.3-87.6 3.7-6.1 7.1-12.4 10.2-19.3-18.9 24-42.4 34.1-86.5 31.7-.1 0-.2.1-.3.1.1 0 .2-.1.3-.1 65-29.1 97.5-57 126.4-103.2 6.8-11 13.5-22.9 20.3-36.2-56.8 58.3-122.5 74.9-191.8 62.3l-52 5.7c-1.7 4.4-3.2 8.7-4.9 13.1z" transform="translate(12 .002) scale(.02778)"/><path fill="url(#apachehttpd_svg__d)" d="M245.5 1068.1c11.2-29 22.8-58.4 34.6-88 11.4-28.4 23-57 35-85.6s24.2-57.5 36.6-86.3c12.6-29.3 25.6-58.5 38.9-87.6 13.1-28.8 26.3-57.4 39.8-85.6 4.8-10.2 9.8-20.4 14.7-30.5 8.5-17.5 17.1-34.9 25.8-52.1.5-.9.9-1.9 1.4-2.8l-64.3-127c-1 1.7-2.1 3.5-3.2 5.1-15 24.5-29.9 49.5-44.5 75-14.8 25.8-29.3 52.1-43.5 78.8-11.9 22.5-23.6 45.1-35.1 68.1-2.3 4.6-4.5 9.3-6.8 13.9-14 28.9-26.6 56.6-38.1 83.5-13 30.3-24.4 59.3-34.3 86.8-6.6 18.1-12.5 35.5-18 52.3-4.5 14.3-8.7 28.7-12.9 43-9.6 33.6-17.9 67.2-24.7 100.6l64.6 127.5c8.5-22.8 17.3-46 26.3-69.4 2.7-6.7 5.1-13.3 7.7-19.7z" transform="translate(12 .002) scale(.02778)"/><path fill="url(#apachehttpd_svg__e)" d="M146.2 1034c-8.1 40.8-13.9 81.4-16.8 121.8l-.3 4.2c-20.2-32.3-74.1-63.8-74-63.5 38.7 56 68 111.6 72.3 166.2-20.7 4.2-49-1.9-81.7-13.9 34.1 31.4 59.7 40 69.8 42.4-31.4 2-64 23.5-96.9 48.3 48.1-19.6 87-27.4 114.8-21.1C89.2 1443.4 45 1581.4.7 1728c13.6-4 21.7-13.2 26.2-25.5 7.9-26.5 60.2-200.7 142.3-429.4 2.4-6.5 4.7-13.1 7.1-19.6.6-1.9 1.3-3.7 2-5.4 8.6-24 17.7-48.5 26.9-73.5 2.1-5.7 4.2-11.4 6.4-17.1 0-.1.1-.2.1-.3L147 1029.7c-.2 1.3-.5 2.8-.8 4.3z" transform="translate(12 .002) scale(.02778)"/><path fill="url(#apachehttpd_svg__f)" d="M482.3 560.2c-1.9 3.8-3.7 7.6-5.6 11.4-5.6 11.5-11.2 23.2-17 35.2-6.2 13-12.4 26.2-18.7 39.8-3.2 6.8-6.4 13.7-9.6 20.7-9.6 20.9-19.3 42.5-29.2 64.8-12.1 27.3-24.6 55.8-37.1 85.4-11.9 28.2-24.2 57.3-36.4 87.5-11.7 28.6-23.5 58.2-35.5 88.6-10.7 27.1-21.5 55.1-32.3 83.8-.5 1.3-1 2.8-1.5 4.1-10.8 28.5-21.7 57.8-32.6 87.8-.2.7-.5 1.3-.7 2.1l52-5.7c-1-.2-2.1-.3-3.1-.5 62.1-7.7 144.8-54.2 198.1-111.5 24.6-26.4 46.9-57.6 67.5-94.1 15.3-27.1 29.8-57.3 43.6-90.6 12-29.1 23.5-60.7 34.6-94.8-14.3 7.5-30.6 13.1-48.6 16.9-3.2.7-6.4 1.3-9.7 1.9s-6.6 1.1-10 1.5c0 0 .1 0 .1-.1 58-22.3 94.5-65.3 121-118-15.2 10.4-40 24-69.7 30.5-4 .9-8.1 1.6-12.3 2.3-1 .1-2.1.3-3.1.5h.2c20.2-8.4 37.1-17.9 51.8-29 3.2-2.4 6.3-4.8 9.1-7.4 4.5-3.9 8.7-8 12.9-12.2 2.6-2.8 5.1-5.6 7.6-8.5 5.8-6.9 11.2-14.3 16.2-22.3 1.5-2.5 3.1-4.9 4.5-7.5 2-3.7 3.8-7.4 5.6-10.9 8.1-16.2 14.6-30.8 19.7-43.5 2.6-6.4 4.8-12.2 6.8-17.8.8-2.2 1.5-4.3 2.2-6.4 2.1-6.1 3.7-11.5 5-16.3 2-7.2 3.2-12.9 3.8-17-2 1.5-4.2 3.1-6.8 4.6-17.5 10.5-47.5 19.9-71.7 24.4l47.7-5.2-47.7 5.2c-.3.1-.7.1-1.1.2-2.5.4-4.8.8-7.3 1.1l1.2-.6-163.3 17.9c0 .4-.3 1.1-.6 1.7z" transform="translate(12 .002) scale(.02778)"/><path fill="url(#apachehttpd_svg__g)" d="M666.1 230.2c-14.5 22.3-30.3 47.6-47.5 76.3-.9 1.4-1.9 3.1-2.7 4.5-14.7 24.8-30.3 52-46.9 81.9-14.2 25.8-29 53.4-44.4 83.1-13.4 25.9-27.2 53.4-41.5 82.5l163.3-17.9c47.6-21.9 68.8-41.6 89.4-70.3 5.4-7.9 11-16.1 16.4-24.7 16.8-26.2 33.2-55 47.9-83.7 14.2-27.7 26.7-55.1 36.3-79.9 6.1-15.7 11-30.3 14.4-43.2 3-11.3 5.3-22.1 7.1-32.4-63.3 10.9-141.2 21.3-191.8 23.8z" transform="translate(12 .002) scale(.02778)"/><path fill="#bd202e" d="M27.569 22.024z"/><path fill="#bd202e" d="M27.569 22.024z" opacity=".35"/><path fill="url(#apachehttpd_svg__h)" d="M560.5 792.8c-3.3.6-6.6 1.1-10 1.5 3.4-.3 6.8-.9 10-1.5z" transform="translate(12 .002) scale(.02778)"/><path fill="#bd202e" d="M28.294 19.713a.925.925 0 0 0 .086-.014c-.028.003-.056.01-.086.014z"/><path fill="#bd202e" d="M28.294 19.713a.925.925 0 0 0 .086-.014c-.028.003-.056.01-.086.014z" opacity=".35"/><path fill="url(#apachehttpd_svg__i)" d="M586.6 709.6c1-.1 2.1-.3 3.1-.5-1 .1-2 .4-3.1.5z" transform="translate(12 .002) scale(.02778)"/><path fill="#bd202e" d="M28.294 19.713c.002 0 .002-.003 0 0 .002-.003.002 0 0 0z"/><path fill="#bd202e" d="M28.294 19.713c.002 0 .002-.003 0 0 .002-.003.002 0 0 0z" opacity=".35"/><path fill="url(#apachehttpd_svg__j)" d="M586.6 709.6c.1 0 .1-.1 0 0 .1-.1.1 0 0 0z" transform="translate(12 .002) scale(.02778)"/></g></svg>