<svg xmlns="http://www.w3.org/2000/svg" viewBox="0 0 48 48"><g stroke-width=".265"><path fill="#d3b542" d="M21.45 47.883c-8.082-.714-15.581-6.017-19.159-13.55C.711 31.006.002 27.809.002 23.999s.708-7.007 2.29-10.336A24.166 24.166 0 0 1 13.664 2.29C16.994.709 20.191 0 24 0s7.007.708 10.336 2.289a24.164 24.164 0 0 1 11.373 11.373C47.29 16.991 48 20.188 48 23.998s-.709 7.007-2.29 10.335a24.162 24.162 0 0 1-11.373 11.374c-3.997 1.898-8.13 2.596-12.886 2.176zm5.915-8.923c5.312-.665 9.516-3.14 12.15-7.152.618-.942.617-1.014-.012-.542-2.47 1.855-6.76 3.38-11.087 3.94-6.078.788-12.417-.147-17.278-2.546-1.265-.624-2.229-1.214-2.898-1.772-.191-.16-.369-.29-.395-.29-.145 0 .66 1.377 1.295 2.212 2.426 3.193 6.025 5.195 10.709 5.956.793.129 1.792.236 3.139.338.764.057 3.48-.032 4.377-.144zm-.57-7.724c4.054-.358 7.727-1.322 11.104-2.914 1.538-.726 3.197-1.781 4.01-2.551.3-.284.394-.589.685-2.223.12-.68.29-1.432.376-1.668.282-.776.392-3.045.194-3.983-.182-.86-.946-2.002-1.558-2.332l-.261-.14-.46.353c-.253.195-.46.367-.46.382s.066.14.147.277c.418.71.501 2.063.188 3.054-.742 2.35-3.845 4.514-8.175 5.702-2.736.751-5.129 1.058-8.297 1.063-3.035.005-5.248-.251-7.835-.91-5.57-1.416-8.96-4.117-8.95-7.134.001-.796.235-1.384 1.013-2.552.393-.59.765-1.258.94-1.689.332-.816.35-.807-.546-.27-1.568.943-2.895 2.207-3.426 3.265-.377.752-.458 1.162-.458 2.312 0 1.253.108 1.967.382 2.507.19.376.245.613.331 1.429.217 2.046.183 1.943.844 2.587 2.476 2.413 8.344 4.71 13.593 5.32 2.124.248 4.622.291 6.619.115z"/><path fill="#578b34" d="M22.35 47.954a112.11 112.11 0 0 0-1.087-.11c-1.127-.111-2.87-.464-4.088-.829-2.941-.88-5.524-2.215-8.024-4.146-1.014-.782-3.24-3.008-4.022-4.021C2.398 35.31.761 31.407.175 27.026c-.18-1.353-.18-4.703 0-6.057.586-4.38 2.223-8.284 4.954-11.821.783-1.013 3.008-3.239 4.022-4.021C12.687 2.395 16.59.759 20.97.173c1.355-.182 4.704-.182 6.058 0 4.38.586 8.285 2.222 11.821 4.954 1.013.782 3.239 3.008 4.022 4.02 2.731 3.538 4.367 7.442 4.953 11.822.182 1.354.182 4.704 0 6.058-.586 4.38-2.222 8.284-4.953 11.82-.783 1.014-3.009 3.24-4.022 4.022-3.526 2.724-7.492 4.388-11.781 4.945-.874.113-4.11.21-4.719.14zm5.588-9.027c2.088-.33 3.755-.846 5.484-1.696a15.616 15.616 0 0 0 5.407-4.398c.589-.755 1.337-1.92 1.274-1.983-.024-.024-.243.11-.487.299-2.364 1.818-6.392 3.306-10.666 3.938-3.278.485-6.997.46-10.12-.07-4.316-.734-8.207-2.262-10.542-4.142-.289-.233-.535-.393-.548-.356-.033.096.238.607.715 1.345 2.548 3.95 6.412 6.228 11.908 7.02 1.484.213 2.22.252 4.387.23 1.768-.017 2.32-.05 3.188-.187zm-2.25-7.581c3.117-.167 6.078-.718 8.887-1.654 3.156-1.052 6.112-2.637 7.357-3.945.38-.4.45-.633.745-2.5.075-.474.194-.997.264-1.162.227-.532.329-1.378.332-2.744.002-1.448-.064-1.793-.485-2.513-.252-.43-.965-1.201-1.247-1.347-.184-.096-.224-.081-.656.24-.253.188-.46.378-.46.423s.069.223.152.395c.185.382.37 1.226.37 1.684 0 3.035-3.572 5.8-9.26 7.165-7.056 1.694-15.515.806-20.48-2.15-2.37-1.412-3.656-3.16-3.658-4.978-.001-.944.14-1.294 1.104-2.737.582-.872 1.264-2.375 1.039-2.291-.34.127-1.297.727-1.99 1.248-1.281.962-2.186 2.057-2.52 3.051-.135.397-.157.645-.157 1.767 0 1.497.064 1.934.37 2.562.177.362.237.621.305 1.32.046.478.128 1.148.183 1.487.091.571.124.645.427.96.18.187.66.59 1.066.894 3.477 2.61 9.35 4.521 14.807 4.82 1.627.088 1.94.088 3.505.005zm11.45-15.739c2.353-1.34 3.796-2.384 4.338-3.14.164-.23.3-.491.3-.58 0-.853-4.703-3.65-5.701-3.391-.237.061-.613.642-1.151 1.778-.338.714-1.174 2.815-1.174 2.95 0 .022.17.132.378.245.333.181.41.272.638.754.212.446.313.575.55.695.322.164.64.508.82.884.064.135.142.246.173.246.03 0 .403-.198.83-.44z"/><path fill="#030403" d="M22.65 47.923a29.64 29.64 0 0 1-4.462-.725A23.842 23.842 0 0 1 2.589 34.616C1.372 32.143.659 29.86.339 27.41a19.166 19.166 0 0 0-.203-1.275c-.115-.5-.115-3.775 0-4.275.047-.206.139-.78.204-1.275.32-2.45 1.032-4.734 2.25-7.207A23.544 23.544 0 0 1 13.38 2.585c2.473-1.216 4.756-1.93 7.207-2.25a18.978 18.978 0 0 0 1.275-.203c.5-.114 3.775-.114 4.275 0 .206.047.78.139 1.275.204 2.45.32 4.734 1.033 7.207 2.25a23.545 23.545 0 0 1 10.792 10.791c1.216 2.473 1.93 4.756 2.25 7.207.064.495.155 1.069.203 1.275.052.226.086 1.079.086 2.138s-.034 1.912-.086 2.137c-.048.206-.139.78-.204 1.275-.32 2.45-1.033 4.734-2.25 7.207a23.546 23.546 0 0 1-10.79 10.792c-2.473 1.217-4.756 1.93-7.207 2.25a24.43 24.43 0 0 0-1.238.187c-.466.098-2.66.146-3.525.078zm3.098-8.703c1.488-.083 2.45-.21 3.727-.496 4.344-.97 7.886-3.383 10.226-6.97.795-1.218.808-1.422.054-.83-2.267 1.778-6.015 3.257-9.98 3.938-2.16.37-2.84.421-5.662.42-2.112 0-2.923-.028-3.724-.13-1.992-.252-4.224-.73-5.876-1.258-2.5-.8-5.06-2.11-6.387-3.269-.423-.37-.625-.484-.625-.352 0 .094.536 1.105.848 1.599 2.865 4.528 7.803 7.018 14.564 7.344.66.032 1.267.062 1.35.068.082.005.75-.024 1.485-.064zm.465-7.8c3.594-.263 6.93-1.011 10.087-2.264 2.346-.93 4.74-2.329 5.723-3.342.333-.344.422-.631.69-2.236.1-.6.268-1.34.373-1.647.152-.439.209-.807.27-1.74.116-1.782.013-2.516-.473-3.38-.278-.493-.936-1.213-1.278-1.398l-.257-.138-.443.32c-.63.459-.65.492-.483.82.265.52.399 1.142.396 1.843-.007 1.259-.443 2.177-1.593 3.343-4.322 4.387-15.882 5.901-24.292 3.182-3.86-1.247-6.426-3.177-7.106-5.342-.169-.538-.19-.714-.16-1.35.041-.899.175-1.224 1.022-2.473.33-.486.704-1.15.833-1.475.13-.324.284-.686.344-.802.172-.332.011-.333-.585-.004-1.26.698-2.584 1.752-3.282 2.614-.936 1.157-1.18 2.017-1.091 3.86.053 1.122.173 1.706.448 2.186.131.23.19.48.226.95.084 1.1.276 2.199.428 2.45.2.329 1.23 1.185 2.128 1.77 4.648 3.025 11.807 4.71 18.075 4.252zm-.113-7.125c3.483-.214 6.586-.923 8.94-2.042 1.186-.564 1.864-1.028 2.656-1.815.827-.823 1.143-1.403 1.198-2.199.038-.562-.144-1.24-.344-1.274-.09-.015-1.798.917-3.054 1.667-.133.08-.26.126-.283.103-.023-.023-.087-.326-.143-.672-.142-.877-.27-1.143-.69-1.433-.647-.45-.78-.594-1.043-1.142-.231-.48-.297-.557-.576-.667-.518-.203-1.11-.595-1.11-.734 0-.143.476-1.503.778-2.22a6.69 6.69 0 0 0 .196-.496c0-.073-1.662-1.262-1.907-1.364-.32-.134-1.443-.255-2.405-.26-.946-.005-1.6-.112-2.513-.411-1.26-.415-1.326-.422-2.428-.26-.869.127-1.026.174-1.394.41-.977.631-1.755.857-2.95.86-.403 0-.99.054-1.305.119-1.02.21-1.318.363-2.058 1.054-.937.875-1.553 1.288-2.67 1.79-1.176.53-1.307.62-1.48 1.027-.396.936-.584 1.289-1.041 1.949-.732 1.058-.904 1.47-.846 2.028.144 1.377 1.632 2.891 3.887 3.955 3.268 1.542 8.024 2.307 12.585 2.027zm12.325-9.331c1.887-1.154 3.001-2.072 3.337-2.75.174-.353.152-.481-.15-.847-.743-.902-3.68-2.635-4.972-2.935-.597-.138-.716-.09-1.076.432-.552.805-1.889 3.89-1.889 4.36 0 .062.169.205.375.317.327.178.407.272.628.738.214.451.313.57.637.772.24.15.468.374.607.598.368.595.328.583.889.273a59.704 59.704 0 0 0 1.614-.958z"/></g><path fill="#fff" fill-opacity=".586" stroke="#fff" stroke-linecap="round" stroke-linejoin="round" stroke-width=".283" d="M22.201 31.261c-.25-.017-.954-.081-1.565-.143-5.19-.528-10.895-2.646-13.767-5.11-.788-.677-.876-.879-1.058-2.425-.116-.99-.195-1.373-.381-1.84-.433-1.088-.507-3.158-.15-4.209.364-1.074 1.519-2.369 3.027-3.392.8-.544 1.274-.818 1.324-.768.054.053-.475 1.178-.814 1.731l-.659 1.075c-.53.865-.641 1.21-.647 2.025-.01 1.328.444 2.302 1.624 3.489 1.897 1.909 5.186 3.35 9.392 4.116 1.397.254 2.267.344 4.11.422 2.72.116 5.52-.065 7.707-.498 5.766-1.14 9.745-3.593 10.492-6.469.198-.761.132-2.014-.138-2.603-.112-.245-.204-.47-.204-.502 0-.032.189-.2.42-.374.282-.214.464-.302.56-.271.281.089.984.894 1.282 1.469.362.697.465 1.209.465 2.316 0 1.013-.106 1.939-.305 2.654-.08.292-.266 1.137-.413 1.877-.146.741-.315 1.444-.376 1.562-.159.307-.788.85-1.628 1.408-3.334 2.21-7.956 3.751-12.957 4.322-.986.112-4.405.2-5.34.138z"/><path fill="#fff" fill-opacity=".586" stroke="#fff" stroke-linecap="round" stroke-linejoin="round" stroke-width=".283" d="M21.974 38.99c-.125-.018-.67-.085-1.212-.15-5.811-.698-10.214-3.361-12.611-7.628-.136-.242-.233-.454-.215-.471.017-.017.298.168.624.412.632.474 2.164 1.356 3.036 1.75 2.695 1.217 5.578 1.996 8.863 2.395 1.617.196 5.811.197 7.385.002 4.543-.564 8.745-1.972 11.387-3.816.327-.228.612-.396.633-.375.054.054-.814 1.334-1.342 1.98-.584.714-1.95 2.028-2.649 2.546-2.276 1.69-4.75 2.68-8.06 3.226-.66.109-5.258.21-5.84.129z"/></svg>