<svg xmlns="http://www.w3.org/2000/svg" width="48" height="48" viewBox="0 0 12.7 12.7"><path d="M-29.407 260.31c-28.514-2.519-54.968-21.227-67.589-47.8-5.577-11.744-8.075-23.022-8.075-36.462 0-13.44 2.498-24.72 8.075-36.462 8.29-17.452 22.671-31.834 40.124-40.123 11.743-5.577 23.021-8.075 36.461-8.075 13.44 0 24.719 2.498 36.462 8.075 17.452 8.289 31.834 22.67 40.123 40.123 5.577 11.743 8.075 23.022 8.075 36.462 0 13.44-2.498 24.718-8.075 36.461-8.289 17.453-22.67 31.835-40.123 40.123-14.099 6.697-28.68 9.159-45.458 7.677zm20.865-31.48c18.74-2.344 33.573-11.075 42.862-25.229 2.182-3.324 2.177-3.577-.04-1.912-8.713 6.545-23.847 11.924-39.115 13.9-21.441 2.777-43.804-.519-60.952-8.982-4.462-2.202-7.863-4.282-10.223-6.252-.675-.563-1.302-1.024-1.393-1.024-.514 0 2.33 4.86 4.567 7.805 8.558 11.263 21.257 18.326 37.779 21.01 2.797.455 6.324.835 11.074 1.192 2.697.203 12.277-.112 15.441-.508zm-2.01-27.247c14.301-1.262 27.26-4.663 39.173-10.282 5.427-2.56 11.28-6.282 14.148-8.998 1.06-1.003 1.39-2.077 2.414-7.843.426-2.401 1.024-5.05 1.328-5.885.995-2.737 1.384-10.741.683-14.05-.642-3.033-3.335-7.063-5.496-8.227l-.922-.496-1.621 1.247c-.892.687-1.622 1.294-1.622 1.35 0 .056.232.495.516.977 1.476 2.504 1.77 7.276.666 10.774-2.618 8.288-13.564 15.923-28.84 20.115-9.654 2.65-18.094 3.73-29.27 3.75-10.708.018-18.515-.888-27.643-3.21-19.649-4.996-31.606-14.527-31.575-25.168.008-2.809.832-4.884 3.575-9.002 1.388-2.084 2.7-4.441 3.319-5.96 1.17-2.877 1.23-2.848-1.928-.95-5.53 3.323-10.213 7.785-12.085 11.515-1.331 2.653-1.618 4.1-1.618 8.156 0 4.42.384 6.939 1.349 8.846.669 1.324.863 2.163 1.168 5.04.765 7.22.646 6.855 2.976 9.126 8.737 8.512 29.438 16.616 47.953 18.771 7.496.873 16.306 1.025 23.352.404z" style="fill:#d3b542;stroke-width:.264583" transform="matrix(.075 0 0 .075 7.88 -6.854)"/><path d="M-26.232 260.56c-.509-.058-2.235-.233-3.836-.39-3.975-.39-10.122-1.635-14.42-2.921-10.377-3.106-19.489-7.814-28.31-14.627-3.575-2.761-11.426-10.612-14.187-14.187-9.636-12.477-15.408-26.25-17.476-41.703-.639-4.776-.639-16.593 0-21.37 2.068-15.452 7.84-29.225 17.476-41.702 2.761-3.575 10.612-11.426 14.187-14.186 12.477-9.637 26.25-15.409 41.703-17.476 4.776-.64 16.593-.64 21.37 0 15.452 2.067 29.225 7.84 41.702 17.476 3.574 2.76 11.425 10.611 14.186 14.186 9.637 12.477 15.409 26.25 17.476 41.703.64 4.776.64 16.593 0 21.37-2.067 15.452-7.84 29.225-17.476 41.702-2.76 3.575-10.612 11.426-14.186 14.187-12.44 9.608-26.43 15.479-41.564 17.443-3.083.4-14.496.74-16.645.495zm19.712-31.845c7.366-1.167 13.246-2.986 19.346-5.983a55.09 55.09 0 0 0 19.077-15.516c2.076-2.663 4.714-6.772 4.492-6.995-.084-.084-.857.39-1.718 1.053-8.337 6.415-22.55 11.664-37.625 13.895-11.565 1.711-24.686 1.619-35.704-.251-15.225-2.585-28.953-7.978-37.189-14.61-1.019-.82-1.889-1.384-1.934-1.254-.116.338.842 2.14 2.522 4.745 8.99 13.935 22.622 21.97 42.01 24.762 5.237.755 7.834.891 15.478.815 6.235-.062 8.182-.176 11.245-.661zm-7.938-26.745c10.997-.588 21.443-2.533 31.354-5.836 11.132-3.711 21.561-9.303 25.953-13.916 1.342-1.41 1.588-2.234 2.628-8.816.264-1.674.683-3.52.93-4.101.801-1.88 1.161-4.862 1.171-9.683.01-5.106-.225-6.323-1.71-8.864-.887-1.52-3.403-4.238-4.398-4.753-.65-.337-.79-.285-2.315.847-.892.663-1.622 1.335-1.622 1.493 0 .158.241.785.536 1.394.652 1.347 1.307 4.323 1.307 5.94 0 10.707-12.605 20.46-32.667 25.277-24.894 5.976-54.735 2.843-72.249-7.585-8.367-4.981-12.9-11.15-12.909-17.56-.004-3.333.493-4.565 3.895-9.657 2.055-3.077 4.46-8.38 3.666-8.083-1.199.45-4.576 2.567-7.023 4.404-4.517 3.392-7.709 7.256-8.89 10.764-.472 1.401-.55 2.274-.55 6.232 0 5.28.224 6.824 1.306 9.04.623 1.276.834 2.19 1.073 4.655.163 1.687.454 4.049.646 5.248.322 2.014.438 2.272 1.507 3.382.636.661 2.33 2.082 3.762 3.157 12.264 9.207 32.982 15.95 52.234 17.001 5.739.313 6.844.315 12.365.02zm40.396-55.523c8.3-4.726 13.39-8.41 15.301-11.079.581-.811 1.057-1.732 1.057-2.046 0-3.007-16.589-12.874-20.111-11.962-.836.217-2.163 2.266-4.06 6.273-1.193 2.518-4.14 9.93-4.14 10.41 0 .075.6.463 1.334.862 1.174.639 1.443.957 2.25 2.658.748 1.576 1.105 2.028 1.94 2.454 1.134.578 2.26 1.792 2.892 3.117.227.477.501.868.61.868.107 0 1.424-.7 2.927-1.555z" style="fill:#578b34;stroke-width:.264583" transform="matrix(.075 0 0 .075 7.88 -6.854)"/><path d="M-25.173 260.454c-4.931-.389-11.13-1.395-15.743-2.555-24.038-6.046-44.143-22.263-55.03-44.388-4.292-8.724-6.806-16.779-7.935-25.425-.229-1.746-.552-3.77-.719-4.498-.405-1.762-.405-13.319 0-15.081.167-.728.49-2.752.719-4.498 1.129-8.646 3.643-16.701 7.936-25.424 8.189-16.644 21.428-29.883 38.071-38.072 8.724-4.292 16.779-6.807 25.425-7.936 1.746-.228 3.77-.552 4.498-.719 1.762-.404 13.319-.404 15.08 0 .729.167 2.753.49 4.499.719 8.646 1.13 16.701 3.644 25.424 7.936 16.644 8.19 29.883 21.428 38.072 38.072 4.292 8.723 6.807 16.778 7.936 25.424.228 1.746.551 3.77.719 4.498.182.795.303 3.805.303 7.54 0 3.736-.121 6.746-.303 7.541-.168.728-.49 2.752-.719 4.498-1.13 8.646-3.644 16.701-7.936 25.425-8.19 16.643-21.428 29.882-38.072 38.071-8.723 4.293-16.778 6.807-25.424 7.936-1.746.228-3.711.527-4.366.663-1.645.344-9.388.513-12.435.273zm10.926-30.703c5.252-.29 8.642-.741 13.15-1.748 15.326-3.42 27.82-11.936 36.075-24.59 2.803-4.295 2.85-5.014.19-2.928-7.997 6.274-21.219 11.491-35.206 13.893-7.618 1.308-10.02 1.487-19.976 1.484-7.45-.002-10.311-.102-13.137-.46-7.026-.89-14.902-2.577-20.73-4.439-8.821-2.819-17.85-7.44-22.53-11.531-1.494-1.307-2.208-1.709-2.208-1.243 0 .333 1.894 3.899 2.995 5.64 10.107 15.975 27.525 24.759 51.377 25.909 2.328.112 4.471.22 4.762.24.291.019 2.648-.083 5.238-.227zm1.641-27.518c12.68-.925 24.45-3.565 35.587-7.983 8.276-3.282 16.724-8.216 20.19-11.792 1.175-1.213 1.487-2.226 2.43-7.886.354-2.117.947-4.731 1.32-5.811.534-1.548.735-2.847.95-6.136.41-6.288.048-8.878-1.667-11.927-.98-1.74-3.302-4.28-4.51-4.931l-.905-.488-1.562 1.132c-2.227 1.615-2.297 1.733-1.706 2.89.937 1.837 1.408 4.028 1.396 6.5-.022 4.443-1.563 7.68-5.617 11.794-15.25 15.477-56.03 20.819-85.7 11.227-13.614-4.401-22.67-11.21-25.067-18.847-.595-1.897-.669-2.518-.566-4.762.147-3.17.62-4.316 3.606-8.723 1.162-1.715 2.485-4.056 2.94-5.203.455-1.146 1-2.42 1.212-2.83.607-1.172.04-1.176-2.063-.013-4.447 2.462-9.114 6.179-11.577 9.221-3.304 4.08-4.161 7.114-3.851 13.619.189 3.957.611 6.016 1.58 7.71.465.812.675 1.69.8 3.35.294 3.88.971 7.757 1.51 8.643.706 1.16 4.338 4.18 7.506 6.242 16.396 10.675 41.654 16.618 63.764 15.004zm-.396-25.133c12.286-.756 23.233-3.257 31.536-7.204 4.184-1.99 6.578-3.625 9.369-6.401 2.92-2.906 4.035-4.951 4.227-7.759.136-1.982-.508-4.372-1.212-4.494-.318-.055-6.345 3.234-10.773 5.88-.469.28-.918.443-1 .362-.08-.08-.308-1.147-.506-2.369-.5-3.093-.951-4.031-2.431-5.057-2.285-1.584-2.75-2.093-3.68-4.026-.816-1.698-1.05-1.968-2.033-2.354-1.827-.718-3.918-2.1-3.918-2.59 0-.505 1.683-5.303 2.747-7.829.38-.905.692-1.693.692-1.751 0-.258-5.863-4.453-6.729-4.815-1.125-.47-5.09-.897-8.484-.915-3.337-.017-5.647-.395-8.864-1.452-4.443-1.461-4.68-1.486-8.567-.916-3.064.45-3.62.614-4.918 1.45-3.447 2.223-6.191 3.021-10.405 3.029-1.424.003-3.497.192-4.605.42-3.598.744-4.65 1.282-7.26 3.72-3.307 3.087-5.478 4.543-9.418 6.315-4.151 1.867-4.614 2.189-5.22 3.623-1.398 3.302-2.063 4.547-3.675 6.875-2.584 3.733-3.19 5.186-2.985 7.155.508 4.857 5.758 10.199 13.712 13.951 11.531 5.44 28.307 8.141 44.4 7.152zm43.478-32.918c6.657-4.07 10.589-7.31 11.771-9.699.617-1.247.537-1.7-.528-2.992-2.621-3.18-12.982-9.295-17.54-10.352-2.107-.489-2.527-.32-3.794 1.525-1.95 2.84-6.664 13.719-6.664 15.378 0 .221.594.726 1.322 1.121 1.154.628 1.435.959 2.215 2.602.755 1.592 1.103 2.013 2.248 2.725.845.525 1.65 1.32 2.14 2.11 1.3 2.098 1.158 2.055 3.136.96.974-.538 3.536-2.059 5.694-3.378z" style="fill:#030403;stroke-width:.264583" transform="matrix(.075 0 0 .075 7.88 -6.854)"/><path d="M273.14 676.633c-3.334-.223-12.728-1.083-20.877-1.91-69.197-7.034-145.286-35.282-183.59-68.158-10.508-9.02-11.682-11.71-14.103-32.328-1.55-13.194-2.61-18.31-5.093-24.547-5.773-14.504-6.76-42.11-2.006-56.121 4.86-14.325 20.267-31.587 40.38-45.24 10.677-7.25 16.986-10.91 17.653-10.244.717.718-6.33 15.721-10.849 23.096-2.526 4.123-6.48 10.572-8.787 14.331-7.082 11.54-8.553 16.143-8.63 27.005-.125 17.709 5.919 30.698 21.65 46.525 25.306 25.46 69.162 44.68 125.26 54.894 18.631 3.393 30.232 4.585 54.813 5.631 36.258 1.545 73.603-.868 102.77-6.638 76.9-15.214 129.958-47.927 139.926-86.27 2.641-10.16 1.753-26.87-1.847-34.72-1.495-3.262-2.719-6.276-2.719-6.697 0-.422 2.515-2.666 5.59-4.987 3.771-2.847 6.204-4.024 7.483-3.618 3.748 1.19 13.12 11.93 17.098 19.597 4.826 9.299 6.195 16.123 6.195 30.89 0 13.5-1.418 25.853-4.063 35.395-1.078 3.89-3.555 15.154-5.505 25.032-1.95 9.879-4.212 19.252-5.027 20.83-2.114 4.087-10.502 11.34-21.705 18.766-44.456 29.472-106.098 50.034-172.802 57.642-13.14 1.499-58.735 2.68-71.216 1.844z" style="opacity:1;fill:#fff;fill-opacity:.585882;stroke:#fff;stroke-width:3.77953;stroke-linecap:round;stroke-linejoin:round;stroke-miterlimit:4;stroke-dasharray:none;stroke-opacity:1" transform="translate(.454 -5.153) scale(.01984)"/><path d="M270.109 779.697c-1.667-.234-8.94-1.135-16.162-2.002-77.494-9.3-136.213-44.82-168.178-101.73-1.808-3.22-3.099-6.044-2.868-6.275.232-.232 3.978 2.243 8.325 5.498 8.434 6.316 28.853 18.086 40.492 23.341 35.942 16.227 74.38 26.611 118.188 31.929 21.562 2.617 77.502 2.632 98.49.026 60.58-7.522 116.617-26.299 151.86-50.886 4.354-3.036 8.15-5.286 8.437-4.999.718.718-10.856 17.793-17.904 26.413-7.78 9.515-26.003 27.031-35.317 33.946-30.35 22.535-63.346 35.742-107.48 43.02-8.813 1.454-70.13 2.807-77.883 1.719z" style="opacity:1;fill:#fff;fill-opacity:.585882;stroke:#fff;stroke-width:3.77953;stroke-linecap:round;stroke-linejoin:round;stroke-miterlimit:4;stroke-dasharray:none;stroke-opacity:1" transform="translate(.454 -5.153) scale(.01984)"/></svg>