<svg xmlns="http://www.w3.org/2000/svg" viewBox="0 0 48 48"><path d="M19.422 4.271a2.856 2.856 0 0 0-2.052-.861c-.805 0-1.524.328-2.039.861h-.013a2.965 2.965 0 0 0-.843 2.084c0 .821.323 1.555.843 2.079l.013.014a2.825 2.825 0 0 0 2.039.853c.806 0 1.53-.324 2.052-.853l.006-.014c.522-.524.84-1.258.84-2.079 0-.816-.318-1.555-.84-2.084zm-2.052 40.32c.806 0 1.53-.335 2.052-.859l.006-.015a2.92 2.92 0 0 0 .84-2.072 2.96 2.96 0 0 0-.84-2.088h-.006a2.837 2.837 0 0 0-2.052-.864 2.8 2.8 0 0 0-2.039.864h-.013a2.972 2.972 0 0 0-.843 2.088c0 .811.323 1.55.843 2.072l.013.015a2.85 2.85 0 0 0 2.039.858zm15.77-8.925a2.857 2.857 0 0 0 1.762-1.368l.053-.104c.352-.67.417-1.445.229-2.133a2.902 2.902 0 0 0-1.35-1.792l-.04-.028a2.843 2.843 0 0 0-2.156-.264c-.72.182-1.366.67-1.76 1.372a2.981 2.981 0 0 0 1.057 4.03h.004a2.867 2.867 0 0 0 2.2.287zM20.337 20.982a4.159 4.159 0 0 0-2.968-1.255 4.145 4.145 0 0 0-2.963 1.255 4.28 4.28 0 0 0-1.222 3.013 4.33 4.33 0 0 0 1.222 3.027 4.156 4.156 0 0 0 2.963 1.245 4.17 4.17 0 0 0 2.968-1.245 4.325 4.325 0 0 0 1.224-3.027c0-1.18-.466-2.243-1.224-3.013zm-1.669-5.02a7.91 7.91 0 0 1 4.353 2.288h.01c.183.187.362.392.528.598l2.89-1.701a6.358 6.358 0 0 1-.094-3.616 6.3 6.3 0 0 1 2.91-3.852l.048-.032A6.114 6.114 0 0 1 34 9.036a6.252 6.252 0 0 1 3.793 2.963v.005a6.438 6.438 0 0 1 .625 4.815 6.293 6.293 0 0 1-2.91 3.857l-.394.237h-.04a6.173 6.173 0 0 1-4.305.4 6.242 6.242 0 0 1-3.025-1.886l-2.886 1.696c.332.893.515 1.855.515 2.872a8.329 8.329 0 0 1-.515 2.886l2.886 1.691a6.143 6.143 0 0 1 3.025-1.887 6.071 6.071 0 0 1 4.74.638l.095.046v.004a6.333 6.333 0 0 1 2.814 3.812 6.432 6.432 0 0 1-.625 4.81l-.052.105-.006-.009a6.297 6.297 0 0 1-3.73 2.872 6.187 6.187 0 0 1-4.74-.635v-.012a6.315 6.315 0 0 1-2.91-3.854 6.34 6.34 0 0 1 .094-3.61l-2.89-1.696a8.058 8.058 0 0 1-.529.588l-.009.009a7.863 7.863 0 0 1-4.353 2.275v3.398a6.17 6.17 0 0 1 3.117 1.723l.005.009a6.374 6.374 0 0 1 1.827 4.487 6.374 6.374 0 0 1-1.827 4.477l-.005.018A6.196 6.196 0 0 1 17.37 48a6.19 6.19 0 0 1-4.41-1.86h-.004v-.018a6.37 6.37 0 0 1-1.83-4.477c0-1.751.7-3.344 1.83-4.487v-.009h.005a6.178 6.178 0 0 1 3.114-1.723v-3.398a7.845 7.845 0 0 1-4.349-2.275l-.012-.009a8.196 8.196 0 0 1-2.345-5.749 8.2 8.2 0 0 1 2.345-5.745h.012a7.893 7.893 0 0 1 4.349-2.288v-3.384a6.285 6.285 0 0 1-3.114-1.727h-.005v-.01a6.39 6.39 0 0 1-1.83-4.486c0-1.742.7-3.337 1.83-4.486l.005-.005A6.174 6.174 0 0 1 17.37 0c1.72 0 3.28.71 4.416 1.864v.005h.005a6.4 6.4 0 0 1 1.827 4.486 6.393 6.393 0 0 1-1.827 4.487l-.005.009a6.28 6.28 0 0 1-3.117 1.727zm16.233-2.257-.025-.037a2.908 2.908 0 0 0-1.738-1.336 2.854 2.854 0 0 0-2.204.293h.004a2.913 2.913 0 0 0-1.353 1.791c-.19.73-.108 1.536.292 2.238l.013.019a2.856 2.856 0 0 0 1.747 1.345c.714.205 1.51.119 2.196-.288l.037-.018a2.938 2.938 0 0 0 1.313-1.769 2.995 2.995 0 0 0-.282-2.238" style="fill:#231f20;fill-opacity:1;fill-rule:nonzero;stroke:none;stroke-width:1.05769"/></svg>