<svg xmlns="http://www.w3.org/2000/svg" viewBox="0 0 48 48"><defs><linearGradient id="appimage_svg__e" x1="24.313" x2="24.313" y1="22.969" y2="41.031" gradientTransform="translate(-5.538 -6.729) scale(1.2308)" gradientUnits="userSpaceOnUse"><stop offset="0" stop-color="#fff"/><stop offset="1" stop-color="#fff" stop-opacity="0"/></linearGradient><linearGradient id="appimage_svg__d" x1="7.649" x2="41.862" y1="26.437" y2="26.437" gradientTransform="matrix(0 .456 -.44524 0 35.704 .86)" gradientUnits="userSpaceOnUse"><stop offset="0" stop-color="#fff"/><stop offset="1" stop-color="#fff" stop-opacity="0"/></linearGradient><linearGradient id="appimage_svg__c" x1="24" x2="24" y1="5" y2="43" gradientTransform="translate(-5.538 -5.499) scale(1.2308)" gradientUnits="userSpaceOnUse"><stop offset="0" stop-color="#fff"/><stop offset="1" stop-color="#fff" stop-opacity="0"/></linearGradient><radialGradient id="appimage_svg__b" cx="48.424" cy="-48.028" r="38.213" gradientTransform="matrix(0 1.263 -2.0383 .00116 -74.582 -62.524)" gradientUnits="userSpaceOnUse"><stop offset="0" stop-color="#fafafa"/><stop offset="1" stop-color="#e6e6e6"/></radialGradient><radialGradient id="appimage_svg__a" cx="9.333" cy="8.45" r="20" gradientTransform="matrix(0 2.5205 -3.3736 0 52.507 -17.606)" gradientUnits="userSpaceOnUse"><stop offset="0" stop-color="#a3c0d0"/><stop offset="1" stop-color="#427da1"/></radialGradient></defs><rect width="48" height="48" fill="url(#appimage_svg__a)" stroke="url(#appimage_svg__linearGradient2992)" stroke-linecap="round" stroke-linejoin="round" stroke-width="1.231" rx="2.747" ry="2.747"/><path d="M20.308 1.848a2.482 2.482 0 0 0-2.5 2.5v4.885h-1.423a2.482 2.482 0 0 0-1.846 4.153l6.23 7.078c-.077.135-.22.302-.268.423a3.696 3.696 0 0 0-.308 1.5v.154l-.115-.115a3.738 3.738 0 0 0-1.346-.886 2.693 2.693 0 0 0-1.193-.192c-.536.026-1.297.26-1.808.77l-1.884 1.884c-.51.51-.745 1.271-.77 1.808a2.71 2.71 0 0 0 .192 1.192c.24.609.543 1.004.886 1.347l.115.115h-.154c-.47 0-.911.066-1.5.308-.293.12-.662.264-1.038.653-.377.39-.77 1.126-.77 1.884v2.693c0 .758.393 1.495.77 1.884.376.39.744.534 1.038.655.589.241 1.03.308 1.5.308h.154l-.115.115a3.738 3.738 0 0 0-.885 1.346c-.12.304-.218.656-.192 1.192.025.536.259 1.298.769 1.808l1.884 1.884c.51.51 1.272.744 1.808.77.536.025.888-.073 1.193-.193a3.734 3.734 0 0 0 1.346-.884l.115-.115v.153c0 .47.066.912.308 1.5.12.294.264.663.654 1.039.388.375 1.125.77 1.884.77h2.692c.76 0 1.496-.395 1.884-.77.39-.376.534-.745.655-1.038.241-.59.308-1.03.308-1.5v-.154l.115.115c.343.342.738.645 1.346.884.304.12.656.218 1.192.192.536-.025 1.298-.258 1.808-.768l1.884-1.884c.51-.511.744-1.273.77-1.809a2.692 2.692 0 0 0-.191-1.192 3.725 3.725 0 0 0-.886-1.346l-.115-.115h.153c.47 0 .912-.068 1.5-.308.294-.121.663-.265 1.039-.655.375-.389.77-1.126.77-1.884V31.31c0-.759-.395-1.496-.77-1.885-.376-.39-.745-.534-1.038-.654a3.696 3.696 0 0 0-1.5-.307H34.5l.115-.115c.343-.343.646-.738.884-1.347.12-.305.218-.656.192-1.192-.025-.537-.258-1.297-.768-1.808l-1.884-1.884c-.511-.512-1.273-.745-1.809-.77a2.692 2.692 0 0 0-1.192.192 3.73 3.73 0 0 0-1.346.886l-.115.115v-.155c0-.47-.068-.91-.308-1.5a2.913 2.913 0 0 0-.615-.96l5.807-6.54a2.482 2.482 0 0 0-1.846-4.154h-1.423V4.347a2.482 2.482 0 0 0-2.5-2.499zm4.077 29.885a.903.903 0 0 1 .923.923.903.903 0 0 1-.923.923.903.903 0 0 1-.922-.923.903.903 0 0 1 .922-.923z" opacity=".05"/><path d="M20.193 3.156a1.186 1.186 0 0 0-1.077 1.192v6.192h-2.73a1.186 1.186 0 0 0-.885 1.963l7.115 8.037c-.196.076-.42.118-.539.232a1.607 1.607 0 0 0-.383.576 2.655 2.655 0 0 0-.192 1.038v2.039a8.65 8.65 0 0 0-.886.385l-1.46-1.461a2.484 2.484 0 0 0-.886-.578 1.626 1.626 0 0 0-.692-.115c-.287.013-.66.12-.923.385l-1.884 1.884c-.264.264-.372.637-.386.924a1.625 1.625 0 0 0 .116.691c.144.367.33.64.576.885l1.462 1.462c-.141.29-.274.575-.384.884h-2.038c-.342 0-.682.046-1.038.192a1.607 1.607 0 0 0-.578.385 1.45 1.45 0 0 0-.385.962v2.692c0 .39.184.754.384.961.203.21.4.312.577.385.358.147.698.192 1.038.192h2.04c.11.31.243.595.384.886l-1.461 1.46a2.482 2.482 0 0 0-.577.885c-.072.183-.13.406-.116.693.014.286.122.659.385.923l1.884 1.884c.264.264.637.372.924.385a1.625 1.625 0 0 0 .692-.115c.366-.144.64-.332.885-.577l1.461-1.462c.29.142.576.274.885.385v2.038c0 .34.045.68.192 1.038.073.18.177.377.384.578.209.2.572.383.963.383h2.692c.39 0 .753-.182.96-.383.21-.2.312-.398.385-.578.147-.357.192-.697.192-1.038v-2.038a8.845 8.845 0 0 0 .886-.384l1.46 1.46c.247.246.52.434.885.577.184.073.407.13.693.116.287-.014.66-.121.923-.384L34 40.387c.264-.264.372-.637.386-.923a1.625 1.625 0 0 0-.116-.693 2.484 2.484 0 0 0-.577-.884l-1.462-1.461c.142-.292.274-.577.385-.885h2.039c.34 0 .68-.046 1.038-.193a1.446 1.446 0 0 0 .96-1.346V31.31c0-.391-.182-.753-.383-.962a1.607 1.607 0 0 0-.576-.384 2.66 2.66 0 0 0-1.038-.193h-2.04a8.65 8.65 0 0 0-.384-.884l1.461-1.462a2.47 2.47 0 0 0 .577-.885 1.62 1.62 0 0 0 .116-.692c-.015-.286-.122-.66-.385-.924l-1.884-1.884c-.264-.264-.637-.37-.924-.383a1.625 1.625 0 0 0-.693.114 2.484 2.484 0 0 0-.884.577l-1.461 1.461a8.649 8.649 0 0 0-.885-.383v-2.04c0-.34-.045-.68-.191-1.038a1.607 1.607 0 0 0-.386-.577 1.446 1.446 0 0 0-.962-.384h-.191l6.96-7.885a1.186 1.186 0 0 0-.884-1.962h-2.73V4.348a1.186 1.186 0 0 0-1.193-1.193h-7.385a1.186 1.186 0 0 0-.115 0zm4.192 27.269a2.23 2.23 0 0 1 2.231 2.231 2.23 2.23 0 0 1-2.23 2.23 2.23 2.23 0 0 1-2.231-2.23 2.23 2.23 0 0 1 2.23-2.231z" opacity=".05"/><path fill="url(#appimage_svg__b)" d="M20.308 4.348v7.384h-3.923l7.616 8.616 7.615-8.616h-3.923V4.348zm2.73 17.231c-.212 0-.345.362-.345.807v2.81a7.672 7.672 0 0 0-2.385.998l-2-2c-.315-.314-.657-.458-.807-.308l-1.884 1.884c-.151.152-.008.495.307.808l2 2a7.672 7.672 0 0 0-1 2.386h-2.807c-.445 0-.807.133-.807.346v2.692c0 .212.362.346.807.346h2.807a7.672 7.672 0 0 0 1.001 2.384l-2 2c-.315.315-.458.658-.308.808l1.884 1.884c.151.152.494.007.809-.307l2-2a7.672 7.672 0 0 0 2.384 1v2.808c0 .444.133.808.347.808h2.691c.214 0 .347-.364.347-.808v-2.808a7.672 7.672 0 0 0 2.385-1l2 2c.314.314.657.459.807.307l1.884-1.884c.151-.15.008-.493-.307-.808l-2-2a7.672 7.672 0 0 0 1-2.384h2.808c.444 0 .807-.134.807-.346V31.31c0-.214-.363-.346-.807-.346h-2.807a7.672 7.672 0 0 0-1.001-2.385l2-2c.315-.314.458-.657.308-.809l-1.884-1.884c-.151-.15-.494-.006-.809.308l-2 2a7.672 7.672 0 0 0-2.384-1v-2.808c0-.445-.133-.807-.347-.807zm1.347 7.654a3.435 3.435 0 0 1 3.423 3.423 3.435 3.435 0 0 1-3.423 3.423 3.435 3.435 0 0 1-3.423-3.423 3.435 3.435 0 0 1 3.423-3.423z"/><g fill="none"><rect width="45.539" height="45.539" x="1.231" y="1.272" stroke="url(#appimage_svg__c)" stroke-linecap="round" stroke-linejoin="round" stroke-width="1.231" opacity=".4" rx="1.68" ry="1.68"/><path stroke="url(#appimage_svg__d)" stroke-width="1.229" d="m30.064 12.307-6.063 7.029-6.2-6.987h3.123V4.963h6.154v7.386z"/><path stroke="url(#appimage_svg__e)" stroke-width="1.231" d="M23.308 22.156c-.014.067-.038.124-.038.23v2.81a.593.593 0 0 1-.462.575 7.043 7.043 0 0 0-2.192.924.593.593 0 0 1-.731-.078l-2-2c-.066-.066-.103-.082-.154-.115l-1.5 1.5c.034.05.05.088.116.154l2 2a.593.593 0 0 1 .077.73 7.043 7.043 0 0 0-.923 2.193.593.593 0 0 1-.578.463h-2.805c-.109 0-.165.022-.232.037v2.155c.067.013.124.037.232.037h2.807a.593.593 0 0 1 .577.463c.178.785.501 1.523.923 2.192a.593.593 0 0 1-.077.73l-2 2c-.065.065-.081.103-.115.153l1.5 1.5c.05-.033.087-.049.154-.114l2-2a.593.593 0 0 1 .73-.077 7.032 7.032 0 0 0 2.192.923.593.593 0 0 1 .463.576v2.808c0 .107.022.165.037.232h2.155c.014-.068.038-.125.038-.232v-2.808a.593.593 0 0 1 .462-.576 7.043 7.043 0 0 0 2.192-.923.593.593 0 0 1 .731.076l2 2c.065.066.102.082.154.116l1.5-1.5c-.034-.051-.05-.089-.116-.154l-2-2a.593.593 0 0 1-.077-.73 7.037 7.037 0 0 0 .923-2.194.593.593 0 0 1 .578-.461h2.807c.107 0 .164-.024.23-.038v-2.154c-.066-.015-.123-.039-.23-.039h-2.807a.593.593 0 0 1-.578-.461 7.043 7.043 0 0 0-.923-2.192.593.593 0 0 1 .077-.731l2-2c.065-.066.081-.102.115-.154l-1.5-1.5c-.051.033-.088.05-.154.116l-1.999 1.999a.593.593 0 0 1-.731.078 7.043 7.043 0 0 0-2.192-.924.593.593 0 0 1-.463-.577v-2.808c0-.107-.022-.163-.038-.23zm1.077 6.5a4.005 4.005 0 0 1 4 4 4.005 4.005 0 0 1-4 4 4.005 4.005 0 0 1-4-4 4.005 4.005 0 0 1 4-4z"/></g></svg>