<svg xmlns="http://www.w3.org/2000/svg" xmlns:xlink="http://www.w3.org/1999/xlink" width="48" height="48"><defs><linearGradient xlink:href="#a" id="j" x1="24.313" x2="24.313" y1="22.969" y2="41.031" gradientTransform="translate(-2.182 -3.8) scale(1.0909)" gradientUnits="userSpaceOnUse"/><linearGradient id="a"><stop offset="0" style="stop-color:#fff;stop-opacity:1"/><stop offset="1" style="stop-color:#fff;stop-opacity:0"/></linearGradient><linearGradient xlink:href="#b" id="i" x1="7.649" x2="41.862" y1="26.437" y2="26.437" gradientTransform="matrix(0 .40418 -.39464 0 34.373 2.927)" gradientUnits="userSpaceOnUse"/><linearGradient id="b"><stop offset="0" style="stop-color:#fff;stop-opacity:1"/><stop offset="1" style="stop-color:#fff;stop-opacity:0"/></linearGradient><linearGradient xlink:href="#c" id="h" x1="24" x2="24" y1="5" y2="43" gradientTransform="translate(-2.182 -2.71) scale(1.0909)" gradientUnits="userSpaceOnUse"/><linearGradient id="c"><stop offset="0" style="stop-color:#fff;stop-opacity:1"/><stop offset="1" style="stop-color:#fff;stop-opacity:0"/></linearGradient><linearGradient id="d"><stop offset="0" style="stop-color:#fafafa;stop-opacity:1"/><stop offset="1" style="stop-color:#e6e6e6;stop-opacity:1"/></linearGradient><linearGradient id="e"><stop offset="0" style="stop-color:#a3c0d0;stop-opacity:1"/><stop offset="1" style="stop-color:#427da1;stop-opacity:1"/></linearGradient><radialGradient xlink:href="#d" id="g" cx="48.424" cy="-48.028" r="38.213" fx="48.424" fy="-48.028" gradientTransform="matrix(0 1.1195 -1.80667 .00103 -63.379 -53.254)" gradientUnits="userSpaceOnUse"/><radialGradient xlink:href="#e" id="f" cx="9.333" cy="8.45" r="20" fx="9.333" fy="8.45" gradientTransform="matrix(0 2.23405 -2.99024 0 49.267 -13.441)" gradientUnits="userSpaceOnUse"/></defs><g transform="matrix(1.1 0 0 1.1 -2.4 -1.78)"><rect width="42.545" height="42.545" x="2.727" y="2.164" rx="2.435" ry="2.435" style="fill:url(#f);fill-opacity:1;stroke:url(#linearGradient2992);stroke-width:1.09091;stroke-linecap:round;stroke-linejoin:round;stroke-miterlimit:4;stroke-dasharray:none;stroke-dashoffset:0;stroke-opacity:1"/><path d="M20.727 3.802a2.2 2.2 0 0 0-2.216 2.216v4.33H17.25a2.2 2.2 0 0 0-1.636 3.681l5.522 6.273c-.069.12-.195.268-.238.375a3.276 3.276 0 0 0-.273 1.33v.136l-.102-.102a3.313 3.313 0 0 0-1.193-.785 2.387 2.387 0 0 0-1.057-.17c-.475.023-1.15.23-1.603.682L15 23.438c-.452.453-.66 1.127-.682 1.603-.022.475.065.787.17 1.056.212.54.481.89.785 1.194l.102.102h-.136c-.417 0-.808.059-1.33.273-.26.106-.587.234-.92.579-.334.345-.682.998-.682 1.67v2.387c0 .672.348 1.325.682 1.67.333.345.66.473.92.58.522.214.913.273 1.33.273h.136l-.102.102a3.313 3.313 0 0 0-.784 1.193c-.106.27-.193.582-.17 1.057.022.475.229 1.15.681 1.602l1.67 1.67c.453.453 1.128.66 1.603.682.475.023.787-.064 1.057-.17a3.31 3.31 0 0 0 1.193-.784l.102-.102v.136c0 .417.059.808.273 1.33.107.26.234.587.58.92.344.333.997.682 1.67.682h2.386c.673 0 1.326-.349 1.67-.682.346-.333.473-.66.58-.92.214-.522.273-.913.273-1.33v-.136l.102.102c.304.303.654.572 1.193.784.27.106.582.193 1.057.17.475-.022 1.15-.229 1.602-.681l1.67-1.67c.453-.453.66-1.128.683-1.603a2.386 2.386 0 0 0-.17-1.057 3.302 3.302 0 0 0-.785-1.193l-.102-.102h.136c.417 0 .808-.06 1.33-.273.26-.107.587-.235.92-.58.333-.345.682-.998.682-1.67v-2.386c0-.673-.349-1.326-.682-1.671-.333-.345-.66-.473-.92-.58a3.276 3.276 0 0 0-1.33-.272h-.136l.102-.102c.304-.304.573-.654.784-1.194.106-.27.193-.581.17-1.056-.022-.476-.229-1.15-.681-1.603l-1.67-1.67c-.453-.453-1.128-.66-1.603-.682a2.386 2.386 0 0 0-1.057.17c-.54.212-.89.481-1.193.785l-.102.102v-.137c0-.417-.06-.807-.273-1.33a2.582 2.582 0 0 0-.545-.851l5.147-5.796a2.2 2.2 0 0 0-1.636-3.682h-1.261v-4.33a2.2 2.2 0 0 0-2.216-2.215Zm3.614 26.489a.8.8 0 0 1 .818.818.8.8 0 0 1-.818.818.8.8 0 0 1-.818-.818.8.8 0 0 1 .818-.818z" style="display:inline;overflow:visible;visibility:visible;opacity:.05;fill:#000;fill-opacity:1;fill-rule:nonzero;stroke:none;stroke-width:1.09286;marker:none;enable-background:accumulate"/><path d="M20.625 4.961a1.051 1.051 0 0 0-.955 1.057v5.488h-2.42a1.051 1.051 0 0 0-.784 1.74l6.307 7.124c-.174.067-.373.104-.478.205a1.424 1.424 0 0 0-.34.511c-.13.317-.17.618-.17.92v1.807a7.667 7.667 0 0 0-.785.341l-1.295-1.295a2.202 2.202 0 0 0-.785-.512 1.441 1.441 0 0 0-.613-.102c-.254.012-.585.107-.818.341l-1.67 1.67c-.234.234-.33.565-.342.819a1.44 1.44 0 0 0 .103.613c.127.325.293.567.51.784l1.296 1.296c-.125.257-.243.51-.34.784h-1.807c-.303 0-.604.04-.92.17a1.424 1.424 0 0 0-.512.341 1.285 1.285 0 0 0-.341.853v2.386c0 .346.163.668.34.852.18.185.354.276.512.341.317.13.618.17.92.17h1.807c.098.274.216.527.341.785l-1.295 1.295a2.2 2.2 0 0 0-.511.784c-.064.162-.115.36-.103.614.012.254.108.584.341.818l1.67 1.67c.234.234.565.33.819.341a1.44 1.44 0 0 0 .613-.102c.325-.127.567-.294.785-.511L21 38.063c.257.126.51.243.784.341v1.807c0 .302.04.603.17.92.065.159.157.334.341.512.185.178.507.34.853.34h2.386c.346 0 .668-.162.852-.34.185-.178.276-.353.341-.512.13-.317.17-.618.17-.92v-1.807a7.84 7.84 0 0 0 .785-.34l1.295 1.295c.218.217.46.384.784.511.163.064.36.114.614.102.254-.012.585-.107.818-.34l1.67-1.671c.234-.234.33-.564.342-.818a1.44 1.44 0 0 0-.103-.614 2.202 2.202 0 0 0-.511-.784l-1.296-1.295c.126-.258.243-.511.341-.784h1.807c.302 0 .604-.041.92-.171a1.282 1.282 0 0 0 .852-1.193v-2.386c0-.347-.162-.668-.34-.853a1.424 1.424 0 0 0-.511-.34 2.358 2.358 0 0 0-.92-.171h-1.808a7.667 7.667 0 0 0-.34-.784l1.295-1.296a2.19 2.19 0 0 0 .511-.784c.064-.162.115-.36.103-.613-.013-.254-.108-.585-.341-.819l-1.67-1.67c-.234-.234-.565-.329-.819-.34a1.44 1.44 0 0 0-.614.101 2.202 2.202 0 0 0-.784.512l-1.295 1.295a7.666 7.666 0 0 0-.784-.34v-1.808c0-.302-.04-.603-.17-.92a1.424 1.424 0 0 0-.342-.511 1.282 1.282 0 0 0-.852-.341h-.17l6.17-6.989a1.051 1.051 0 0 0-.784-1.739h-2.42V6.018a1.051 1.051 0 0 0-1.057-1.057h-6.546a1.051 1.051 0 0 0-.102 0zm3.716 24.17c1.093 0 1.977.884 1.977 1.978a1.976 1.976 0 0 1-1.977 1.977 1.976 1.976 0 0 1-1.977-1.977c0-1.094.884-1.978 1.977-1.978z" style="display:inline;overflow:visible;visibility:visible;opacity:.05;fill:#000;fill-opacity:1;fill-rule:nonzero;stroke:none;stroke-width:1.09286;marker:none;enable-background:accumulate"/><path d="M20.727 6.018v6.545H17.25L24 20.2l6.75-7.637h-3.477V6.018Zm2.42 15.273c-.188 0-.306.321-.306.715v2.49a6.8 6.8 0 0 0-2.114.885l-1.772-1.772c-.28-.279-.583-.406-.716-.273l-1.67 1.67c-.134.134-.007.438.272.716l1.773 1.773a6.8 6.8 0 0 0-.887 2.114H15.24c-.395 0-.716.118-.716.307v2.386c0 .188.321.307.716.307h2.488a6.8 6.8 0 0 0 .887 2.113l-1.773 1.773c-.279.279-.406.583-.273.716l1.67 1.67c.134.134.438.006.717-.272l1.772-1.773a6.8 6.8 0 0 0 2.114.886v2.489c0 .394.118.716.307.716h2.386c.189 0 .307-.322.307-.716v-2.489a6.8 6.8 0 0 0 2.114-.886l1.772 1.773c.279.278.583.406.716.272l1.67-1.67c.134-.133.007-.437-.272-.716l-1.773-1.773a6.8 6.8 0 0 0 .887-2.113h2.488c.394 0 .716-.119.716-.307v-2.386c0-.19-.322-.307-.716-.307h-2.488a6.8 6.8 0 0 0-.887-2.114l1.773-1.773c.279-.278.406-.582.273-.716l-1.67-1.67c-.134-.133-.438-.006-.717.273l-1.772 1.772a6.8 6.8 0 0 0-2.114-.886v-2.489c0-.394-.118-.715-.307-.715zm1.194 6.784a3.045 3.045 0 0 1 3.034 3.034 3.045 3.045 0 0 1-3.034 3.034 3.045 3.045 0 0 1-3.034-3.034 3.045 3.045 0 0 1 3.034-3.034z" style="display:inline;overflow:visible;visibility:visible;fill:url(#g);fill-opacity:1;fill-rule:nonzero;stroke:none;stroke-width:1.09286;marker:none;enable-background:accumulate"/><rect width="40.364" height="40.364" x="3.818" y="3.291" rx="1.489" ry="1.489" style="opacity:.4;fill:none;stroke:url(#h);stroke-width:1.09091;stroke-linecap:round;stroke-linejoin:round;stroke-miterlimit:4;stroke-dasharray:none;stroke-dashoffset:0;stroke-opacity:1"/><path d="M29.374 13.072 24 19.302l-5.495-6.193h2.768V6.563h5.454v6.546l2.647-.037z" style="display:inline;overflow:visible;visibility:visible;fill:none;stroke:url(#i);stroke-width:1.08905;stroke-linecap:butt;stroke-linejoin:miter;stroke-miterlimit:4;stroke-dasharray:none;stroke-dashoffset:0;stroke-opacity:1;marker:none"/><path d="M23.386 21.802c-.012.059-.034.11-.034.204v2.49a.526.526 0 0 1-.409.51 6.243 6.243 0 0 0-1.943.819.526.526 0 0 1-.648-.069l-1.772-1.772c-.059-.059-.092-.073-.137-.103l-1.33 1.33c.03.045.045.078.103.136l1.773 1.773a.526.526 0 0 1 .068.648 6.243 6.243 0 0 0-.818 1.943.526.526 0 0 1-.512.41H15.24c-.096 0-.146.02-.205.033v1.91c.059.012.11.033.205.033h2.488a.526.526 0 0 1 .512.41c.158.696.444 1.35.818 1.943a.526.526 0 0 1-.068.647l-1.773 1.773c-.058.058-.072.091-.102.136l1.33 1.33c.044-.03.077-.044.136-.102l1.772-1.773a.526.526 0 0 1 .648-.068c.592.374 1.247.66 1.943.818a.526.526 0 0 1 .41.511v2.489c0 .095.02.146.033.205h1.91c.012-.06.034-.11.034-.205v-2.489a.526.526 0 0 1 .409-.511 6.243 6.243 0 0 0 1.943-.818.526.526 0 0 1 .648.068l1.772 1.773c.058.058.091.072.137.102l1.33-1.33c-.03-.045-.045-.078-.103-.136l-1.773-1.773a.526.526 0 0 1-.068-.647c.374-.593.66-1.247.818-1.944a.526.526 0 0 1 .512-.409h2.488c.095 0 .146-.021.205-.034v-1.909c-.059-.013-.11-.034-.205-.034h-2.488a.526.526 0 0 1-.512-.409 6.243 6.243 0 0 0-.818-1.943.526.526 0 0 1 .068-.648l1.773-1.773c.058-.058.072-.09.102-.136l-1.33-1.33c-.045.03-.078.044-.136.103l-1.772 1.772a.526.526 0 0 1-.648.069 6.243 6.243 0 0 0-1.943-.819.526.526 0 0 1-.41-.511v-2.489c0-.095-.02-.145-.034-.204zm.955 5.761a3.55 3.55 0 0 1 3.545 3.546 3.55 3.55 0 0 1-3.545 3.545 3.55 3.55 0 0 1-3.546-3.545 3.55 3.55 0 0 1 3.546-3.546z" style="display:inline;overflow:visible;visibility:visible;fill:none;stroke:url(#j);stroke-width:1.09091;stroke-opacity:1;marker:none;enable-background:accumulate"/></g></svg>