<svg xmlns="http://www.w3.org/2000/svg" viewBox="0 0 48 48"><g filter="url(#arc_svg__a)" transform="translate(.624 3.728)scale(1.1759)"><path fill="#fffcea" d="m26.906 8.075-1.917-3.947a6.623 6.623 0 0 0-11.958.099l-2.644 5.676a6.617 6.617 0 0 0-6.431-.147c-3.162 1.652-4.271 5.564-2.95 8.602.755 1.747 1.857 3.37 3.207 4.808l-.696 1.495a6.612 6.612 0 0 0 .259 6.089 6.526 6.526 0 0 0 2.409 2.425 6.613 6.613 0 0 0 4.09.86l.02-.003.018-.002a6.7 6.7 0 0 0 5.252-3.874l.348-.747c1.014.163 2.04.244 3.07.241h.028a19.277 19.277 0 0 0 3.483-.36l.435.895.002.004a6.637 6.637 0 0 0 6 3.723h.015a6.63 6.63 0 0 0 6.407-5.204l.005-.025.005-.024a6.706 6.706 0 0 0-.574-4.334l-.781-1.616c2.557-2.793 4.433-6.282 5.17-10.145A6.59 6.59 0 0 0 38.14 7.59a6.63 6.63 0 0 0-5.524-2.891h-.014a6.628 6.628 0 0 0-5.697 3.377zm-7.27 8.277-.15-.307zm-1.078.045.173-.37zm-9.487-3.669a3.522 3.522 0 0 0-3.679-.235 3.523 3.523 0 0 1 3.679.235zM6.613 25.334l-.294.632zM30.185 8.821a3.535 3.535 0 0 1 2.455-1.032 3.539 3.539 0 0 1 2.95 1.546 3.498 3.498 0 0 1 .608 2.225l-6.013-2.74z"/></g><g stroke-width="1.176"><path fill="#210784" d="m13.701 22.146-1.818 3.91-1.9 4.08a21.484 21.484 0 0 0 2.252 1.635 21.539 21.539 0 0 0 5.058 2.333l1.835-3.94 1.722-3.704c-2.774-.58-5.55-2.253-7.15-4.315z"/><path fill="#26069c" d="m36.198 29.673-3.845-7.921a13.984 13.984 0 0 1-2.933 2.712 12.564 12.564 0 0 1-4.068 1.87l3.675 7.55a21.261 21.261 0 0 0 5.07-2.579 22.013 22.013 0 0 0 2.101-1.632z"/><path fill="#2404aa" d="M12.227 31.767a21.284 21.284 0 0 1-2.25-1.634l-1.922 4.13a4.142 4.142 0 0 0 .164 3.821 4.03 4.03 0 0 0 1.503 1.511 4.135 4.135 0 0 0 2.57.543 4.245 4.245 0 0 0 3.332-2.465l1.662-3.572a21.543 21.543 0 0 1-5.059-2.334z"/><path fill="#f99" d="M42.476 14.706a4.16 4.16 0 0 0-3.469-1.818 4.16 4.16 0 0 0-4.037 3.383 12.52 12.52 0 0 1-2.61 5.482l3.845 7.92c3.48-3.06 6.037-7.22 6.92-11.854a4.116 4.116 0 0 0-.649-3.113z"/></g><g filter="url(#arc_svg__b)" transform="translate(.624 3.728)scale(1.1759)"><path fill="#ff5060" d="m32.017 25.692-1.758-3.634-3.27-6.735-4.78-9.844a3.53 3.53 0 0 0-6.376.053l-4.717 10.125c1.359 1.754 3.726 3.184 6.079 3.667l1.535-3.298a.412.412 0 0 1 .744-.006l1.562 3.204 3.125 6.42 1.547 3.188a3.547 3.547 0 0 0 3.206 1.99 3.538 3.538 0 0 0 3.42-2.778 3.615 3.615 0 0 0-.317-2.352z"/></g><g filter="url(#arc_svg__c)" transform="translate(.624 3.728)scale(1.1759)"><path fill="#0034fe" d="M21.033 19.223a9.02 9.02 0 0 1-2.123.276 8.23 8.23 0 0 1-1.712-.178c-2.353-.489-4.715-1.912-6.073-3.665a6.195 6.195 0 0 1-.806-1.337 3.523 3.523 0 0 0-4.927-1.826c-1.616.84-2.28 2.962-1.55 4.635.844 1.955 2.272 3.792 4.12 5.328.608.505 1.247.97 1.915 1.39a18.316 18.316 0 0 0 4.302 1.985c1.552.487 3.169.733 4.795.728a16.19 16.19 0 0 0 5.177-.916z"/></g><defs><filter id="arc_svg__a" width="40.819" height="35.658" x="-.531" y="-.59" filterUnits="userSpaceOnUse"><feFlood result="BackgroundImageFix"/><feGaussianBlur in="BackgroundImageFix" stdDeviation=".495"/><feComposite in2="SourceAlpha" operator="in" result="effect1_backgroundBlur_259_65398"/><feBlend in="SourceGraphic" in2="effect1_backgroundBlur_259_65398" result="shape"/></filter><filter id="arc_svg__b" width="23.271" height="29.311" x="10.125" y="2.501" filterUnits="userSpaceOnUse"><feFlood result="BackgroundImageFix"/><feGaussianBlur in="BackgroundImageFix" stdDeviation=".495"/><feComposite in2="SourceAlpha" operator="in" result="effect1_backgroundBlur_259_65398"/><feBlend in="SourceGraphic" in2="effect1_backgroundBlur_259_65398" result="shape"/></filter><filter id="arc_svg__c" width="22.585" height="16.456" x="2.556" y="11.093" filterUnits="userSpaceOnUse"><feFlood result="BackgroundImageFix"/><feGaussianBlur in="BackgroundImageFix" stdDeviation=".495"/><feComposite in2="SourceAlpha" operator="in" result="effect1_backgroundBlur_259_65398"/><feBlend in="SourceGraphic" in2="effect1_backgroundBlur_259_65398" result="shape"/></filter></defs></svg>
