<svg xmlns="http://www.w3.org/2000/svg" viewBox="0 0 48 48"><g fill="#1793d1"><path fill-rule="evenodd" d="M22.78 1.21c-2.028 4.974-3.251 8.227-5.51 13.054 1.385 1.468 3.084 3.177 5.845 5.108-2.968-1.221-4.993-2.448-6.505-3.72C13.719 21.684 9.19 30.277 0 46.79c7.223-4.17 12.822-6.741 18.041-7.722a13.224 13.224 0 0 1-.343-3.094l.009-.232c.114-4.628 2.522-8.187 5.374-7.945 2.852.242 5.068 4.191 4.954 8.82a13.08 13.08 0 0 1-.292 2.485c5.162 1.01 10.702 3.574 17.828 7.688-1.405-2.587-2.66-4.919-3.857-7.14-1.887-1.462-3.854-3.365-7.868-5.425 2.759.717 4.734 1.544 6.274 2.469C27.943 14.022 26.956 11.009 22.78 1.208z"/><path d="M45.797 42.723v-1.25h-.467v-.167h1.123v.168h-.469v1.25h-.187m.851-.001v-1.417h.283l.335 1.004.068.21c.016-.052.04-.128.075-.228l.34-.986H48v1.417h-.18v-1.186l-.412 1.186h-.17l-.409-1.206v1.206h-.18"/></g></svg>