<svg xmlns="http://www.w3.org/2000/svg" width="48" height="48" version="1.0"><path d="M23.995 0c-2.136 5.238-3.425 8.664-5.803 13.747 1.458 1.545 3.248 3.346 6.156 5.379-3.126-1.286-5.258-2.577-6.851-3.917C14.453 21.56 9.683 30.609.005 48c7.607-4.392 13.504-7.1 19-8.132a13.927 13.927 0 0 1-.362-3.259l.01-.243c.12-4.874 2.655-8.622 5.658-8.368 3.004.255 5.338 4.415 5.217 9.288-.022.917-.126 1.8-.307 2.618 5.436 1.063 11.27 3.764 18.774 8.096-1.48-2.724-2.8-5.18-4.061-7.519-1.987-1.54-4.06-3.544-8.286-5.713 2.905.755 4.986 1.626 6.607 2.6C29.431 13.491 28.393 10.32 23.995 0Z" style="fill:#1793d1;fill-opacity:1;fill-rule:evenodd;stroke:none;stroke-width:1"/></svg>