<svg xmlns="http://www.w3.org/2000/svg" id="Layer_1" width="48" height="48" data-name="Layer 1" version="1.1"><defs id="defs7"><clipPath id="clip-path"><path id="path2" d="m241.019 115.687-7.173 163.792H126.245l-5.978-163.792" style="fill:none"/></clipPath><style id="style5">.cls-2{fill:#e9654b}.cls-3{fill:#b6cfea}.cls-6{fill:#ee794b}.cls-12{fill:#010101}.cls-13{fill:#fff}</style></defs><path id="path9" d="M16.464 33.912s-.328.983-.82 1.474a1.487 1.487 0 0 1-1.146.491 18.993 18.993 0 0 1-2.457.492s1.147.164 2.457.328c.492 0 .492 0 .82.164.818 0 1.146-.492 1.146-.492zm15.072 0s.328.983.82 1.474a1.487 1.487 0 0 0 1.146.491 18.993 18.993 0 0 0 2.457.492s-1.147.164-2.62.328c-.492 0-.492 0-.82.164-.983 0-1.147-.492-1.147-.492z" class="cls-2" style="stroke-width:1"/><circle id="circle11" cx="24.164" cy="17.693" r="17.693" class="cls-3" style="stroke-width:1"/><circle id="circle13" cx="24.164" cy="17.693" r="17.038" style="fill:#e6f5f8;stroke-width:1"/><circle id="circle15" cx="24.164" cy="18.021" r="13.925" style="fill:#d0e8f0;stroke-width:1"/><g id="Body" style="stroke-width:7.29784" transform="translate(-.507 -.617) scale(.13703)"><path id="path17" d="M120.267 183.834s8.37 135.1 8.37 137.49c0 1.196 1.195 3.587-4.783 5.978-5.978 2.391-25.107 7.173-25.107 7.173h28.694c13.151 0 13.151-10.76 13.151-13.15 0-2.39 3.587-53.801 3.587-53.801s1.195 60.974 1.195 63.365c0 2.391-1.195 5.978-9.564 8.369l-23.912 4.782h27.498c16.738 0 16.738-10.76 16.738-10.76l3.587-53.8s1.196 53.8 1.196 59.778c0 4.782-3.587 8.369-16.738 10.76-8.37 2.39-19.13 4.782-19.13 4.782h31.085c15.543-1.195 17.934-11.956 17.934-11.956l26.302-133.903Z" class="cls-6" style="stroke-width:7.29784"/><path id="path19" d="M239.824 183.834s-8.37 135.1-8.37 137.49c0 1.196-1.195 3.587 4.783 5.978 5.978 2.391 25.107 7.173 25.107 7.173H232.65c-13.15 0-13.15-10.76-13.15-13.15 0-2.39-3.588-53.801-3.588-53.801s-1.195 60.974-1.195 63.365c0 2.391 1.195 5.978 9.564 8.369l23.912 4.782h-27.498c-16.738 0-16.738-10.76-16.738-10.76l-3.587-53.8s-1.195 53.8-1.195 59.778c0 4.782 3.586 8.369 16.737 10.76 8.37 2.39 19.13 4.782 19.13 4.782h-31.085c-15.543-1.195-17.934-11.956-17.934-11.956l-26.302-133.903Zm1.196-65.755c0 33.475-27.499 59.778-59.779 59.778s-59.778-27.498-59.778-59.778S148.961 58.3 181.241 58.3s59.778 26.303 59.778 59.779z" class="cls-6" style="stroke-width:7.29784"/><circle id="circle21" cx="181.241" cy="150.359" r="106.405" class="cls-6" clip-path="url(#clip-path)" style="stroke-width:8.52146"/><g id="g25" style="opacity:.22;stroke-width:8.52146"><path id="path23" d="M237.433 183.834s7.173-63.364-2.392-87.276C217.108 54.714 175.263 58.3 175.263 58.3s23.912 9.565 25.107 45.432c1.196 25.107 0 62.169 0 62.169z" style="fill:#e34e3b;stroke-width:7.29784"/></g></g><g id="Face" style="stroke-width:7.29784" transform="translate(-.507 -.617) scale(.13703)"><g id="g30" style="opacity:.5;stroke-width:8.52146"><circle id="circle28" cx="156.134" cy="85.798" r="8.369" style="fill:#fbdfc3;stroke-width:7.29784"/></g><path id="path32" d="M201.566 207.746c0 20.324-9.565 33.475-21.52 33.475s-21.52-15.542-21.52-35.866c0 0 9.564 19.129 22.715 19.129s20.325-16.738 20.325-16.738z" class="cls-12" style="stroke-width:7.29784"/><path id="path34" d="M201.566 207.746c0 13.15-9.565 20.324-21.52 20.324s-20.325-9.564-20.325-21.52c0 0 9.565 11.956 22.716 11.956 13.151 0 19.129-10.76 19.129-10.76z" class="cls-13" style="stroke-width:7.29784"/><circle id="circle36" cx="221.89" cy="151.554" r="37.062" class="cls-2" style="stroke-width:7.29784"/><circle id="circle38" cx="138.201" cy="151.554" r="37.062" class="cls-2" style="stroke-width:7.29784"/><circle id="circle40" cx="221.89" cy="151.554" r="28.694" class="cls-13" style="stroke-width:7.29784"/><circle id="circle42" cx="135.81" cy="151.554" r="28.694" class="cls-13" style="stroke-width:7.29784"/><circle id="circle44" cx="135.81" cy="147.968" r="8.369" class="cls-12" style="stroke-width:7.29784"/><circle id="circle46" cx="221.89" cy="147.968" r="8.369" class="cls-12" style="stroke-width:7.29784"/></g><path id="path49" d="M6.143 22.117a.774.774 0 0 1-.82-.82v-6.553a.774.774 0 0 1 .82-.82.774.774 0 0 1 .82.82v6.553a.774.774 0 0 1-.82.82zm35.714 0a.774.774 0 0 1-.82-.82v-6.553a.774.774 0 0 1 .82-.82.774.774 0 0 1 .82.82v6.553a.774.774 0 0 1-.82.82z" class="cls-3" style="stroke-width:1"/><circle id="circle51" cx="18.594" cy="4.587" r=".819" class="cls-13" style="stroke-width:1"/><path id="path53" d="M12.696 26.703a.602.602 0 0 1-.491-.163c-1.966-2.458-2.95-5.57-2.95-8.683a14.618 14.618 0 0 1 1.967-7.372 16.033 16.033 0 0 1 5.242-5.243.72.72 0 0 1 .82.164.72.72 0 0 1-.165.82 13.223 13.223 0 0 0-6.717 11.467 12.911 12.911 0 0 0 2.786 8.027c.163.165.163.656-.164.82-.164.163-.164.163-.328.163z" class="cls-13" style="stroke-width:1"/><path id="path55" d="M31.536 34.403v-1.31c-2.294 1.31-4.75 2.62-7.7 2.62-3.276 0-5.406-1.474-7.535-2.62l.163 1.31S18.92 37.024 24 37.024c4.75-.163 7.536-2.62 7.536-2.62z" class="cls-2" style="opacity:.25;stroke-width:1"/></svg>