<svg xmlns="http://www.w3.org/2000/svg" xmlns:xlink="http://www.w3.org/1999/xlink" xml:space="preserve" id="Layer_1" width="48" height="48" x="0" y="0" version="1.1"><style id="style2" type="text/css">.st0{fill:#e9654b}.st1{fill:#b6cfea}.st4{fill:#ee794b}.st10{fill:#010101}.st11{fill:#fff}</style><g id="g132" transform="translate(-9.747 -11.468) scale(1.63823)"><g id="g12"><g id="g6"><path id="path4" d="M16 27.7s-.2.6-.5.9c-.2.2-.4.3-.7.3-.7.2-1.5.3-1.5.3s.7.1 1.5.2c.3 0 .3 0 .5.1.5 0 .7-.3.7-.3z" class="st0"/></g><g id="g10"><path id="path8" d="M25.2 27.7s.2.6.5.9c.2.2.4.3.7.3.7.2 1.5.3 1.5.3s-.7.1-1.6.2c-.3 0-.3 0-.5.1-.6 0-.7-.3-.7-.3z" class="st0"/></g></g><g id="g130"><g id="g16"><circle id="circle14" cx="20.7" cy="17.8" r="10.8" class="st1"/></g><g id="g20"><circle id="circle18" cx="20.7" cy="17.8" r="10.4" style="fill:#e6f5f8"/></g><g id="g24"><circle id="circle22" cx="20.7" cy="18" r="8.5" style="fill:#d0e8f0"/></g><g id="Body_1_"><g id="g28"><path id="path26" d="M15.7 22s.7 11.3.7 11.5c0 .1.1.3-.4.5s-2.1.6-2.1.6h2.4c1.1 0 1.1-.9 1.1-1.1 0-.2.3-4.5.3-4.5s.1 5.1.1 5.3c0 .2-.1.5-.8.7l-2 .4h2.3c1.4 0 1.4-.9 1.4-.9L19 30s.1 4.5.1 5c0 .4-.3.7-1.4.9-.7.2-1.6.4-1.6.4h2.6c1.3-.1 1.5-1 1.5-1l2.2-11.2z" class="st4"/></g><g id="g32"><path id="path30" d="M25.7 22S25 33.3 25 33.5c0 .1-.1.3.4.5s2.1.6 2.1.6h-2.4c-1.1 0-1.1-.9-1.1-1.1 0-.2-.3-4.5-.3-4.5s-.1 5.1-.1 5.3c0 .2.1.5.8.7l2 .4h-2.3c-1.4 0-1.4-.9-1.4-.9l-.3-4.5s-.1 4.5-.1 5c0 .4.3.7 1.4.9.7.2 1.6.4 1.6.4h-2.6c-1.3-.1-1.5-1-1.5-1L19 24.1Z" class="st4"/></g><g id="g36"><path id="path34" d="M25.8 16.5c0 2.8-2.3 5-5 5s-5-2.3-5-5 2.3-5 5-5 5 2.2 5 5z" class="st4"/></g><g id="g50"><g id="g48"><defs id="defs39"><path id="SVGID_1_" d="M25.8 16.3 25.2 30h-9l-.5-13.7"/></defs><clipPath id="SVGID_2_"><use xlink:href="#SVGID_1_" id="use41" style="overflow:visible"/></clipPath><g id="g46" clip-path="url(#SVGID_2_)" style="clip-path:url(#SVGID_2_)"><circle id="circle44" cx="20.8" cy="19.2" r="8.9" class="st4"/></g></g></g><g id="g54" style="opacity:.22"><path id="path52" d="M25.5 22s.6-5.3-.2-7.3c-1.5-3.5-5-3.2-5-3.2s2 .8 2.1 3.8c.1 2.1 0 5.2 0 5.2z" style="fill:#e34e3b"/></g></g><g id="Face_1_"><g id="g61" style="opacity:.5"><g id="g59"><circle id="circle57" cx="18.7" cy="13.8" r=".7" style="fill:#fbdfc3"/></g></g><g id="g107"><g id="g71"><g id="g65"><path id="path63" d="M22.5 24c0 1.7-.8 2.8-1.8 2.8s-1.8-1.3-1.8-3c0 0 .8 1.6 1.9 1.6 1.1 0 1.7-1.4 1.7-1.4z" class="st10"/></g><g id="g69"><path id="path67" d="M22.5 24c0 1.1-.8 1.7-1.8 1.7s-1.7-.8-1.7-1.8c0 0 .8 1 1.9 1 1.1 0 1.6-.9 1.6-.9z" class="st11"/></g></g><g id="g105"><g id="g93"><g id="g81"><g id="g75"><circle id="circle73" cx="24.2" cy="19.3" r="3.1" class="st0"/></g><g id="g79"><circle id="circle77" cx="17.2" cy="19.3" r="3.1" class="st0"/></g></g><g id="g91"><g id="g85"><circle id="circle83" cx="24.2" cy="19.3" r="2.4" class="st11"/></g><g id="g89"><circle id="circle87" cx="17" cy="19.3" r="2.4" class="st11"/></g></g></g><g id="g103"><g id="g97"><circle id="circle95" cx="17" cy="19" r=".7" class="st10"/></g><g id="g101"><circle id="circle99" cx="24.2" cy="19" r=".7" class="st10"/></g></g></g></g></g><g id="g112"><path id="path110" d="M9.7 20.5c-.3 0-.5-.2-.5-.5v-4c0-.3.2-.5.5-.5s.5.2.5.5v4c0 .3-.2.5-.5.5z" class="st1"/></g><g id="g116"><path id="path114" d="M31.5 20.5c-.3 0-.5-.2-.5-.5v-4c0-.3.2-.5.5-.5s.5.2.5.5v4c0 .3-.2.5-.5.5z" class="st1"/></g><g id="g120"><circle id="circle118" cx="17.3" cy="9.8" r=".5" class="st11"/></g><g id="g124"><path id="path122" d="M13.7 23.3c-.1 0-.2 0-.3-.1-1.2-1.5-1.8-3.4-1.8-5.3 0-1.6.4-3.1 1.2-4.5.8-1.3 1.9-2.4 3.2-3.2.2-.1.4 0 .5.1.1.2 0 .4-.1.5-2.5 1.4-4.1 4.1-4.1 7 0 1.8.6 3.5 1.7 4.9.1.1.1.4-.1.5-.1.1-.1.1-.2.1z" class="st11"/></g><g id="g128" style="opacity:.25"><path id="path126" d="M25.2 28v-.8c-1.4.8-2.9 1.6-4.7 1.6-2 0-3.3-.9-4.6-1.6l.1.8s1.5 1.6 4.6 1.6c2.9-.1 4.6-1.6 4.6-1.6z" class="st0"/></g></g></g></svg>