<svg xmlns="http://www.w3.org/2000/svg" viewBox="0 0 48 48"><path fill="url(#atlassianconfluence_svg__a)" d="M4.873 21.557c-.254.399-.544.87-.761 1.233s-.11.834.253 1.052l4.966 3.046a.764.764 0 0 0 1.051-.253c.181-.327.435-.762.725-1.234 1.957-3.227 3.95-2.865 7.503-1.16l4.929 2.321a.77.77 0 0 0 1.015-.363l2.356-5.331c.181-.363 0-.834-.363-1.016a152.694 152.694 0 0 1-4.929-2.357c-6.705-3.228-12.396-3.01-16.745 4.062z" transform="matrix(2 0 0 2 -8 -7)"/><path fill="url(#atlassianconfluence_svg__b)" d="M27.127 9.443c.254-.399.544-.87.761-1.233a.765.765 0 0 0-.254-1.052L22.67 4.112a.764.764 0 0 0-1.051.253c-.181.327-.435.762-.725 1.234-1.957 3.227-3.95 2.865-7.503 1.16L8.46 4.438a.771.771 0 0 0-1.014.363L5.09 10.132c-.181.363 0 .834.362 1.016 1.052.471 3.118 1.45 4.93 2.357 6.705 3.192 12.396 3.01 16.745-4.062z" transform="matrix(2 0 0 2 -8 -7)"/><defs><linearGradient id="atlassianconfluence_svg__a" x1="26.791" x2="11.792" y1="28.467" y2="19.855" gradientUnits="userSpaceOnUse"><stop offset="0" stop-color="#0052CC"/><stop offset=".918" stop-color="#2380FB"/><stop offset="1" stop-color="#2684FF"/></linearGradient><linearGradient id="atlassianconfluence_svg__b" x1="5.209" x2="20.208" y1="2.523" y2="11.136" gradientUnits="userSpaceOnUse"><stop offset="0" stop-color="#0052CC"/><stop offset=".918" stop-color="#2380FB"/><stop offset="1" stop-color="#2684FF"/></linearGradient></defs></svg>