<svg xmlns="http://www.w3.org/2000/svg" viewBox="0 0 48 48"><path fill="#2684ff" d="M1.54 2.42c-.958 0-1.678.88-1.518 1.758l6.474 39.644c.16 1.04 1.04 1.759 2.078 1.759h31.33c.72 0 1.359-.56 1.519-1.279L47.977 4.26c.16-.96-.56-1.758-1.519-1.758zm27.495 28.614h-9.991l-2.638-14.147h15.106z"/><path fill="url(#atlassianbitbucket_svg__a)" d="M26.91 12.233h-7.193l-1.2 7.073h-4.995L7.648 26.3s.28.24.68.24h15.664c.36 0 .68-.28.76-.64z" transform="matrix(2 0 0 2 -8 -7.58)"/><defs><linearGradient id="atlassianbitbucket_svg__a" x1="28.593" x2="16.672" y1="14.226" y2="23.532" gradientUnits="userSpaceOnUse"><stop offset=".176" stop-color="#0052CC"/><stop offset="1" stop-color="#2684FF"/></linearGradient></defs></svg>