<svg xmlns="http://www.w3.org/2000/svg" viewBox="0 0 48 48"><defs><filter id="audacity_svg__a" width="1.408" height="1.373" x="-.204" y="-.186" color-interpolation-filters="sRGB"><feMorphology in="SourceGraphic" radius="4" result="result0"/><feGaussianBlur in="result0" result="result91" stdDeviation="8"/><feComposite in="SourceGraphic" in2="result91" operator="in"/></filter><filter id="audacity_svg__b" width="1.056" height="1.069" x="-.028" y="-.034" color-interpolation-filters="sRGB"><feGaussianBlur in="SourceGraphic" result="blur" stdDeviation="1.5"/><feDiffuseLighting result="diffuse" surfaceScale="10"><feDistantLight azimuth="90" elevation="25"/></feDiffuseLighting><feComposite in="diffuse" in2="diffuse" k1="1" operator="arithmetic" result="composite1"/><feComposite in="composite1" in2="SourceGraphic" k1=".886" k3="1" operator="arithmetic" result="composite2"/></filter></defs><path fill="#f3e517" fill-rule="evenodd" d="M61.156 38.522c-2.294 5.742-4.504 15.245-7.173 4.313-2.002-7.765-6.279 4.865-9.39 7.03-6.272 4.77-9.744 11.489-12.53 18.688-7.378-6.273-4.61 3.795-5.063 8.719.402 7.38-.8 15.452.594 22.406 5.854 5.102 10.09 13.154 18.802 13.05 5.96 2.071 5.213-6.94 10.616.538 4.973 6.816 8.044 2.83 11.29-.523 4.744 7.261 6.197-8.687 10.198-1.534 6.184 2.407 11.73 3.552 12.744-4.61 1.27-6.446 12.353-6.577 9.756-14.327-.362-8.041.72-16.656-.531-24.344-4.198-3.276-7.436-10.841-12.219-11.5-5.918 2.872-3.637-9.79-6.073-13.516-.796-9.786-2.892-5.361-5.17 1.35-1.262 9.66-6.562 5.055-9.27-1.268-2.408-2.025-5.153-12.723-6.58-4.472z" filter="url(#audacity_svg__a)" transform="matrix(.37498 0 0 .37498 0 .724)"/><path fill="#ff7901" d="m11.25 34.574.75.75 1.124 3.75.375-4.5 1.125 5.625v-7.125l.75 1.875L16.5 40.2v-7.125l.75.75 1.125 6.375 1.125-8.625 2.48 9.72.145-5.97.75-2.25.75 9.375 2.25-9.375.75 7.875 1.875-8.25 1.875 9 .375-6.75 1.124-2.25.375 8.625 1.875-8.25 1.125 3.75.375-3.375 1.125 2.25v-7.125l-1.125 3-.375-6.374-.75 4.874-.75-1.5-.375-5.25-1.875 7.125-.375-1.5L30 17.7l-1.125 9.75-.75 3-1.5-10.125-1.5 8.624-.75 2.25-.375-15.488-2.25 17.363-2.25-15.749-1.125 13.5-.75-1.5-.75-9-.375 9-1.125 2.624-.75-9-.75 7.125L12.75 28.2v5.25l-1.5-5.624z"/><path fill="#ff0101" fill-rule="evenodd" d="m19.124 26.325-.435.724-.315 3.775-.75-1.5-.037-.439-.713 1.189-.46-.551-1.04 2.426-.34-4.081-.035-.043-1.125 3.375-1.125-.703v2.952l-.945-3.543-.555-.346v5.014l.59.59 1.285-.214.305.457.07-.832.267 1.338.108.161.75-.938v-2.061l.55 1.374.2-.25 1.126 1.407v-2.531l.75.75.034.199.34-1.7 1.487 2.23.388-2.98.636 2.494 1.239-.62.71 3.547.04-1.671.75-2.25.332 4.16 1.168-3.035.904 1.357.595-2.481.226 2.362.525-2.363 1.335 2.003.54-2.378.651 3.128 1.224-2.753.375 1.875.703-1.405.046-.47.15.075.225-.45.025.575 1.1.55.888.296.237-1.046.375 1.25.75.25.273-.205.102-.92.308.614.817-.614v-3l-.51-.51-.615 1.635-.14-2.39-.735-.735-.25 1.625-.624-1.25-1.25 1.25-.574-1.72-.552 2.095-.375-1.5-.133-1.334-1.366 2.46-.702-3.041-.048.416-.75 3-.514-3.472-1.362 2.721-.801-2.606-.323 1.856-.75 2.25-.113-4.638c-.444 1.58-1.012 3.635-1.012 3.888 0 .3-.606-1.272-.896-2.033l-.604 4.658-.6-4.2-.525-1.05-.75 3Z"/><g fill="#00c"><path d="M64 6.875c-13.263 0-25.359 4.14-34.281 11.094C20.796 24.922 15 34.87 15 45.937v4C6.141 54.426 0 66.2 0 80c0 17.664 10.05 32 23 32V45.937c0-8.288 4.29-15.915 11.656-21.656S52.425 14.875 64 14.875s21.977 3.666 29.344 9.406C100.71 30.021 105 37.65 105 45.938V112c12.95 0 23-14.336 23-32 0-13.8-6.141-25.574-15-30.063v-4c0-11.067-5.796-21.015-14.719-27.968C89.36 11.016 77.263 6.875 64 6.875" filter="url(#audacity_svg__b)" transform="matrix(.37498 0 0 .37498 0 .826)"/><path d="M9.75 19.2v23.624c.75 0 1.5-.375 1.874-1.125v-21.75c-.375-.374-1.125-.75-1.875-.75m28.498 0c-.75 0-1.5.375-1.875.75v21.749c.375.75 1.125 1.125 1.875 1.125z"/></g></svg>