<svg xmlns="http://www.w3.org/2000/svg" viewBox="0 0 48 48"><defs><style>.authentik_svg__cls-1{fill:#fd4b2d}</style></defs><path d="M18.777 5.62a7.537 7.537 0 0 0-.034.002c-.105 0-.21.002-.31.007h-.074l-.15.008a7.727 7.727 0 0 0-.446.066 7.537 7.537 0 0 0-.34.05 7.727 7.727 0 0 0-.234.034c-.06.01-.116.025-.171.039-.12.028-.234.06-.35.094a7.017 7.017 0 0 0-.198.07 7.537 7.537 0 0 0-.279.102 7.017 7.017 0 0 0-.406.146 3.307 3.307 0 0 0-.202.09c-.095.046-.19.1-.286.15a7.537 7.537 0 0 0-.115.061c-.068.037-.136.069-.204.108-.1.061-.212.129-.302.189-.091.06-.18.117-.266.18a7.64 7.64 0 0 0-.103.087 7.537 7.537 0 0 0-.409.341 7.64 7.64 0 0 0-.384.322 1.888 1.888 0 0 0-.127.127l-.008.009c-.025.024-.047.05-.07.075a7.537 7.537 0 0 0-.04.042c-.038.042-.078.083-.118.128a5.916 5.916 0 0 0-.413.501 5.792 5.792 0 0 0-.21.297l-.01.01a7.736 7.736 0 0 0-.02.038 7.456 7.456 0 0 0-.625 1.162 7.736 7.736 0 0 0-.04.072c-.022.057-.048.112-.07.169-.022.056-.046.118-.065.172s-.04.102-.056.156c-.017.053-.034.1-.05.154a.613.613 0 0 0-.026.08l-.033.116a7.456 7.456 0 0 0-.025.086c-.01.039-.022.077-.033.115a7.454 7.454 0 0 0-.146.8 7.456 7.456 0 0 0-.042.216 7.211 7.211 0 0 0-.05.865v5.81h.001-.002v3.336h.002v.006h12.53v-.006h.002v-3.335h-.003v-.001h.003v-3.338h-.003v-.648h2.471v3.034h1.68V14.98h2.688v1.786h1.68V14.98h3.18v.648h-.002v3.338h.003-.003v3.336h.003v5.72H11.238v6.82a7.547 7.547 0 0 0 7.54 7.537h3.199v-7.383h15.28v7.383h3.2a7.547 7.547 0 0 0 7.539-7.538V22.302h.002v-3.335h-.002v-.001h.002v-5.81a7.211 7.211 0 0 0-.05-.865 7.456 7.456 0 0 0-.04-.198 7.454 7.454 0 0 0-.15-.818c-.01-.043-.024-.085-.036-.129a7.456 7.456 0 0 0-.017-.057c-.012-.044-.024-.09-.037-.131a.613.613 0 0 0-.025-.08c-.017-.053-.034-.1-.05-.154-.018-.055-.035-.096-.057-.156s-.042-.116-.065-.172c-.023-.057-.048-.112-.07-.169a7.736 7.736 0 0 0-.047-.086 7.456 7.456 0 0 0-.544-1.01 7.736 7.736 0 0 0-.094-.175l-.01-.012c-.067-.094-.137-.195-.21-.296-.063-.082-.113-.151-.187-.24s-.153-.177-.226-.261c-.029-.034-.06-.066-.091-.099a7.537 7.537 0 0 0-.087-.094l-.05-.052a7.536 7.536 0 0 0-.182-.157 7.537 7.537 0 0 0-.772-.662 7.536 7.536 0 0 0-.078-.067 4.622 4.622 0 0 0-.266-.18c-.1-.065-.201-.128-.302-.19-.06-.033-.119-.06-.177-.092a7.537 7.537 0 0 0-.165-.087c-.087-.046-.173-.097-.263-.139l-.202-.09a7.017 7.017 0 0 0-.377-.136 7.537 7.537 0 0 0-.32-.115 7.017 7.017 0 0 0-.185-.067 6.606 6.606 0 0 0-.522-.133 7.727 7.727 0 0 0-.222-.033 7.537 7.537 0 0 0-.358-.052 7.727 7.727 0 0 0-.44-.065l-.15-.008H40.8c-.098-.007-.2-.007-.303-.007a7.537 7.537 0 0 0-.036-.003z" class="authentik_svg__cls-1"/><path d="M6.126 18.494a6.123 6.123 0 0 0-5.382 3.21c-2.235 3.895.853 9.145 5.382 9.026 3.502 0 6.393-5.198 6.393-6.118 0-.403-.564-1.648-1.497-2.908h.004c-1.178-1.59-2.946-3.21-4.9-3.21zm-.2 2.272c.733 0 1.465.28 2.086.938h-.005c1 .907 1.87 2.228 2.186 2.896C6.266 32.814-.62 25.81 3.59 21.704h.005c.67-.577 1.5-.938 2.331-.938z" class="authentik_svg__cls-1"/></svg>