<svg xmlns="http://www.w3.org/2000/svg" viewBox="0 0 48 48"><style>.authelia_svg__st1{fill:url(#authelia_svg__SVGID_00000020382678844779046530000008709155803122291897_)}.authelia_svg__st2{fill:url(#authelia_svg__SVGID_00000020365841079584481850000012758049290535045288_)}.authelia_svg__st3{fill:url(#authelia_svg__SVGID_00000156570584862978905120000004577359939532430742_)}.authelia_svg__st4{fill:url(#authelia_svg__SVGID_00000156572179170515777600000009973801908939641232_)}</style><g transform="translate(-22.449 -22.433) scale(.18091)"><linearGradient id="authelia_svg__SVGID_1_" x1="120.22" x2="375.87" y1="256.04" y2="257.41" gradientUnits="userSpaceOnUse"><stop offset="0" stop-color="#3F51B4"/><stop offset="1" stop-color="#123156"/></linearGradient><path fill="url(#authelia_svg__SVGID_1_)" d="M257.13 190.34c34.91-.99 66.49 27.08 66.66 66.29.17 37.66-30.11 66.66-67.02 66.61-36.36-.05-66.57-30.18-66.35-66.57.23-38.51 32.08-67.53 66.71-66.33zm17.25 40.1c.02-8.47-4.98-15.18-12.81-17.18-7.68-1.96-15.67 1.44-19.52 8.29-4.03 7.19-2.92 15.26 3.5 21.04 2.95 2.65 3.45 5.13 2.49 8.77-2.96 11.35-5.63 22.77-8.42 34.17-1.06 4.34.18 7.98 3.66 10.68 6.9 5.35 17.85 5.9 25.32 1.43 5.56-3.33 7.21-6.7 5.77-12.97-2.69-11.69-5.52-23.35-8.44-34.98-.66-2.64-.34-4.37 1.95-6.17 4.16-3.26 6.8-7.51 6.5-13.08z" style="fill:url(#authelia_svg__SVGID_1_)"/><linearGradient id="authelia_svg__SVGID_00000038382906507511258290000017335576914929244819_" x1="120.2" x2="375.84" y1="260.58" y2="261.95" gradientUnits="userSpaceOnUse"><stop offset="0" stop-color="#3F51B4"/><stop offset="1" stop-color="#123156"/></linearGradient><path fill="url(#authelia_svg__SVGID_00000038382906507511258290000017335576914929244819_)" d="M256.17 356c-47.55 1.3-92.31-34.98-98.39-87.37-3.95-34.11 6.43-63.49 32.11-86.68 6.14-5.55 13.62-9.71 20.79-14 5.1-3.05 9.64-1.57 12.36 3.08 2.81 4.8 1.59 9.23-3.48 12.71-5.05 3.46-10.41 6.54-15.08 10.45-16.94 14.19-26.39 32.51-28.43 54.47-1.86 20.08 2.58 38.8 14.6 55.11 15.71 21.32 37.07 32.77 63.66 33.78 23.7.9 44.08-7.51 60.43-24.32 6.65-6.84 11.25-15.72 16.48-23.87 2.81-4.39 6.58-6.73 10.78-5.63 5.83 1.53 8.93 6.6 6.18 12.39-3.75 7.88-7.87 15.85-13.26 22.64-17.32 21.82-40.41 33.71-67.95 37.15-.4.05-.8.08-1.2.08-3.2.01-6.4.01-9.6.01z"/><linearGradient id="authelia_svg__SVGID_00000106862338447951225940000015087345744282396828_" x1="120.31" x2="375.96" y1="238.68" y2="240.04" gradientUnits="userSpaceOnUse"><stop offset="0" stop-color="#3F51B4"/><stop offset="1" stop-color="#123156"/></linearGradient><path fill="url(#authelia_svg__SVGID_00000106862338447951225940000015087345744282396828_)" d="M241.54 126.36c2.13 0 4.26.03 6.4-.01 3.84-.07 6.83 1.03 7.76 5.27.87 3.97-.87 8.75-4.42 10.21-2.77 1.14-5.87 1.65-8.87 2.05-21.67 2.84-41.25 10.76-58.03 24.77-23.47 19.6-37.78 44.46-41.16 75.12-3.34 30.26 4.6 57.52 22.55 81.94 2.91 3.96 6.41 7.48 9.41 11.38 3.51 4.58 2.94 8.83-1.37 12.7-3.6 3.24-8.5 3.17-12.17-.61-21.75-22.4-34.36-48.95-36.98-80.26-1.14-13.54-.64-26.84 2.12-40.1 4.21-20.22 13.01-38.32 25.83-54.36 20.23-25.31 46.34-41.25 78.2-47.53 3.49-.69 7.15-.56 10.73-.81-.01.09 0 .17 0 .24z"/><linearGradient id="authelia_svg__SVGID_00000065779157083840213850000017713101339295302314_" x1="120.02" x2="375.66" y1="294.13" y2="295.5" gradientUnits="userSpaceOnUse"><stop offset="0" stop-color="#3F51B4"/><stop offset="1" stop-color="#123156"/></linearGradient><path fill="url(#authelia_svg__SVGID_00000065779157083840213850000017713101339295302314_)" d="M270.66 387.18c-1.47 0-2.94.11-4.4-.02-4.75-.42-8.01-3.36-8.5-7.56-.52-4.52 2.29-8.62 7.09-9.75 3.75-.88 7.63-1.23 11.42-1.93 35.41-6.53 62.2-25.21 80.08-56.6 9.3-16.34 14.14-34 14.59-52.62.34-14.16-1.91-28.14-7.17-41.49-.82-2.09-1.29-4.79-.71-6.86 1.09-3.88 3.72-6.78 8.18-7.14 4.14-.33 7.73 1.54 9.3 6.11 2.55 7.41 5.02 14.95 6.46 22.63 5.18 27.77 2.14 54.69-10.02 80.3-9.9 20.85-24.2 38.16-43.08 51.57-16.79 11.93-35.27 19.75-55.69 22.86-.92.14-1.83.41-2.76.45-1.6.08-3.2.02-4.8.02.01.02.01.02.01.03z"/><linearGradient id="authelia_svg__SVGID_00000183226693080654335290000007521799427861324986_" x1="120.5" x2="376.15" y1="204.04" y2="205.4" gradientUnits="userSpaceOnUse"><stop offset="0" stop-color="#3F51B4"/><stop offset="1" stop-color="#123156"/></linearGradient><path fill="url(#authelia_svg__SVGID_00000183226693080654335290000007521799427861324986_)" d="M354.44 235.7c.02 6.19-2.69 9.64-7.39 10.52-4.54.85-8.37-1.52-10.17-6.4-2.35-6.36-4.18-12.95-7.03-19.08-7.74-16.67-20.27-28.8-36.69-36.95-1.43-.71-2.9-1.37-4.26-2.2-4.35-2.67-6-7.7-4.05-12.11 2.06-4.65 6.67-7.13 11.55-4.77 7.5 3.62 15.03 7.59 21.65 12.59 18.03 13.61 29.57 31.82 35.48 53.59.52 1.92.74 3.91.91 4.81z"/></g></svg>