
<svg xmlns="http://www.w3.org/2000/svg" version="1.1" xmlns:xlink="http://www.w3.org/1999/xlink" preserveAspectRatio="none" x="0px" y="0px" width="48px" height="48px" viewBox="0 0 48 48">
<defs>
<g id="Layer0_0_FILL">
<path fill="#4788C7" stroke="none" d="
M 3.6 11.25
Q 2.85 11.25 2.3 11.8 1.75 12.35 1.75 13.1 1.75 13.85 2.3 14.4 2.8361328125 14.9361328125 3.55 14.95
L 7.6 14.95
Q 8.318359375 14.931640625 8.85 14.4 9.4 13.85 9.4 13.1 9.4 12.35 8.85 11.8 8.3138671875 11.2638671875 7.6 11.25
L 3.6 11.25
M 14.5 6.1
Q 13.9650390625 5.5650390625 13.15 5.55
L 6.9 5.55
Q 6.1740234375 5.5759765625 5.65 6.1 5.1 6.65 5.1 7.45 5.1 8.25 5.65 8.8 6.1826171875 9.3326171875 6.95 9.35
L 13.15 9.35
Q 13.9650390625 9.3349609375 14.5 8.8 15.05 8.25 15.05 7.45 15.05 6.65 14.5 6.1
M 40.85 17.25
Q 41.7 17.25 42.25 16.65 42.85 16.1 42.85 15.25 42.85 14.4 42.25 13.8 41.7 13.25 40.85 13.25 40 13.25 39.4 13.8 38.85 14.4 38.85 15.25 38.85 16.1 39.4 16.65 40 17.25 40.85 17.25 Z"/>

<path fill="#DFF0FE" stroke="none" d="
M 41.6 24.55
Q 46.7107421875 21.263671875 47.1 17.6 47.2669921875 14.1296875 45.05 12.05 35.08984375 3.9859375 24.4 3.85 23.3390625 3.8494140625 22.3 3.8 22.226953125 3.8 22.15 3.8 20.75 3.8 19.75 4.9 18.75 6.05 18.75 7.6 18.75 9.15 19.75 10.25 19.969921875 10.5029296875 21 10.7
L 29.85 10.7
Q 31.4177734375 10.7005859375 32.05 11.45 31.08046875 12.2576171875 30.3 14.2 8.4533203125 10.3708984375 7.25 21.15 2.2111328125 20.7611328125 1.7 24.9 1.5615234375 25.9513671875 3 27.2 4.63125 29.8328125 8.75 26 10.63203125 32.0240234375 7.35 36.9 15.6033203125 39.100390625 21.6 45.25 26.382421875 45.1302734375 25.75 40.95
L 22.35 37.65 17.85 35.2 17.85 34.4
Q 22.6931640625 33.0529296875 24.25 29 27.3671875 29.0529296875 26.95 31.05 26.6376953125 32.4251953125 25.1 33.1 22.8880859375 37.16640625 27.4 37.8 34.8392578125 34.978125 37.1 24.55 39.443359375 25.2033203125 41.6 24.55
M 42.25 16.65
Q 41.7 17.25 40.85 17.25 40 17.25 39.4 16.65 38.85 16.1 38.85 15.25 38.85 14.4 39.4 13.8 40 13.25 40.85 13.25 41.7 13.25 42.25 13.8 42.85 14.4 42.85 15.25 42.85 16.1 42.25 16.65 Z"/>
</g>

<path id="Layer0_0_1_STROKES" stroke="#4788C7" stroke-width="0.1" stroke-linejoin="round" stroke-linecap="round" fill="none" d="
M 42.85 15.25
Q 42.85 16.1 42.25 16.65 41.7 17.25 40.85 17.25 40 17.25 39.4 16.65 38.85 16.1 38.85 15.25 38.85 14.4 39.4 13.8 40 13.25 40.85 13.25 41.7 13.25 42.25 13.8 42.85 14.4 42.85 15.25 Z
M 13.175 9.35
L 6.95 9.35
Q 6.1826171875 9.3326171875 5.65 8.8 5.1 8.25 5.1 7.45 5.1 6.65 5.65 6.1 6.1740234375 5.5759765625 6.925 5.55
L 13.175 5.55
Q 13.9650390625 5.5650390625 14.5 6.1 15.05 6.65 15.05 7.45 15.05 8.25 14.5 8.8 13.9650390625 9.3349609375 13.175 9.35 Z
M 7.6 14.95
L 3.575 14.95
Q 2.8361328125 14.9361328125 2.3 14.4 1.75 13.85 1.75 13.1 1.75 12.35 2.3 11.8 2.85 11.25 3.6 11.25
L 7.6 11.25
Q 8.3138671875 11.2638671875 8.85 11.8 9.4 12.35 9.4 13.1 9.4 13.85 8.85 14.4 8.318359375 14.931640625 7.6 14.95 Z"/>

<path id="Layer0_0_2_STROKES" stroke="#4788C7" stroke-width="1" stroke-linejoin="round" stroke-linecap="round" fill="none" d="
M 19.75 10.25
Q 18.75 9.15 18.75 7.6 18.75 6.05 19.75 4.9 20.75 3.8 22.15 3.8 22.226953125 3.8 22.3 3.8 23.3390625 3.8494140625 24.4 3.85 35.08984375 3.9859375 45.05 12.05 47.2669921875 14.1296875 47.1 17.6 46.7107421875 21.263671875 41.6 24.55 39.443359375 25.2033203125 37.1 24.55 34.8392578125 34.978125 27.4 37.8 22.8880859375 37.16640625 25.1 33.1 26.6376953125 32.4251953125 26.95 31.05 27.3671875 29.0529296875 24.25 29 22.6931640625 33.0529296875 17.85 34.4
L 17.85 35.2 22.35 37.65 25.75 40.95
Q 26.382421875 45.1302734375 21.6 45.25 15.6033203125 39.100390625 7.35 36.9 10.63203125 32.0240234375 8.75 26 4.63125 29.8328125 3 27.2 1.5615234375 25.9513671875 1.7 24.9 2.2111328125 20.7611328125 7.25 21.15 8.4533203125 10.3708984375 30.3 14.2 31.08046875 12.2576171875 32.05 11.45 31.4177734375 10.7005859375 29.85 10.7
L 21 10.7
Q 19.969921875 10.5029296875 19.75 10.25 Z"/>
</defs>

<g transform="matrix( 1, 0, 0, 1, 0,0) ">
<use xlink:href="#Layer0_0_FILL"/>

<use xlink:href="#Layer0_0_1_STROKES"/>

<use xlink:href="#Layer0_0_2_STROKES"/>
</g>
</svg>
