<svg xmlns="http://www.w3.org/2000/svg" viewBox="0 0 48 48"><g transform="translate(-.03 2.01) scale(.05572)"><g stroke="#4788c7"><path fill="#dff0fe" stroke-linejoin="round" stroke-width="25" d="M194.48 213.5c53.2-42.4 255.5-24.333 350-10 5.849-20.866 12.102-32.673 30.5-54-39.082-11.614-84.126-13.53-206-8.5-58-9-58-118 0-128 268 0 455 125 471.5 200.5s8.099 53.102 0 84.5c-19.431 48.401-72.5 88-88.5 93.5s-86 0-86 0c-27.105 121.52-60.451 173.5-149.5 236-50.209 19.541-82.5 17-91-45.5l18.5-32 27-12.5c13.403-24.159 12.434-36.626 0-57.5-19.425-4.961-29.352-4.848-45.5 0-29.379 58.079-53.1 78.963-109.5 93.5V594l78.5 43 64 64c2 64.8-51.5 77-78.5 75-75.848-73.216-126.2-105.69-238.5-139-22.37-4.841-25.386-13.002-19.5-34 49.641-97.212 34.333-154.83 19.5-180.5-24.964 25.688-84.123 70.688-119 0-39.02-79.084 52-96.167 99.5-93.5 2-20.833 19.3-73.1 72.5-115.5z"/><path stroke-linecap="round" stroke-width="73" d="M49.5 180.5h69m-6-102h111"/></g><circle cx="738.5" cy="220.5" r="38.5" fill="#4788c7"/></g></svg>