<svg xmlns="http://www.w3.org/2000/svg" viewBox="0 0 48 48"><path fill="#0b1b64" d="m24 0 20.785 12v23.998L24 47.998l-20.784-12V12z"/><g transform="translate(-6.603 -3.99) scale(.17112)"><path fill="#0b1b64" d="m179.56 37.803 108.71 62.762v125.52l-108.71 62.763-108.71-62.763v-125.52z"/><clipPath id="azuracast_svg__a"><path d="m179.56 37.803 108.71 62.762v125.52l-108.71 62.763-108.71-62.763v-125.52z"/></clipPath><g clip-path="url(#azuracast_svg__a)"><path fill="url(#azuracast_svg__b)" d="M10.152-3.232h298.67v318.05H10.152z" transform="translate(24.257 24.526) scale(.99615)"/><path fill="#1f8df5" d="m154.26 61.836 62.883-15.805 4.505 17.925-62.883 15.805zM45.051 113.787l47.064-44.6 12.714 13.416-47.064 44.6z"/><g fill="#1f8df5"><path d="M227.667 131.022c-14.31.16-28.992 3.835-42.27 11.501s-23.802 18.543-31.096 30.856c-4.958 8.563-.556 19.825 8.933 22.748l1.42.38c6.874 2.033 14.405-.514 18.118-6.558 4.542-7.724 10.895-14.392 19.222-19.2s17.277-6.974 26.238-7.046c7.22.032 13.192-5.216 14.74-12.41l.38-1.42c1.988-9.55-5.564-18.993-15.685-18.851z"/><path d="M240.93 76.554c-27.86-2.52-56.842 3.412-82.948 18.483s-45.509 37.077-57.482 62.594c-4.023 8.623.308 18.725 9.443 21.553l1.195.51c7.714 2.448 15.886-1.07 19.173-8.368 9.197-19.413 24.013-36.368 44.042-47.932s42.122-15.917 63.307-14.045c7.965.803 15.097-4.515 16.835-12.42l.155-1.29c2.248-9.1-4.464-18.127-13.72-19.085z"/><path d="M253.069 22.736c-41.055-5.103-84.019 2.598-122.502 24.816s-66.636 55.575-82.744 93.68c-3.443 8.59.76 18.466 9.539 21.2l1.42.38c7.844 2.673 16.206-1.555 19.363-9.079 13.236-31.647 36.836-59.375 68.793-77.825s67.545-24.893 101.795-20.662c8.095 1.028 15.937-4.1 17.545-12.23l.38-1.42c1.798-8.84-4.43-17.546-13.59-18.86z"/></g></g></g><path fill="#0b1b64" d="M39.828 3.774c-.718-.575-1.653-.718-2.515-.503l-18.395 4.67c-1.293.36-2.227 1.51-2.227 2.803v21.844c-1.006-.43-2.156-.646-3.45-.646-3.952 0-7.041 2.443-7.041 5.46s3.09 5.462 7.042 5.462 7.041-2.443 7.041-5.461V16.996l16.958-4.312v14.587c-1.006-.431-2.155-.647-3.449-.647-3.952 0-7.042 2.443-7.042 5.461s3.09 5.461 7.042 5.461 7.042-2.443 7.042-5.46V6.073c.144-.935-.287-1.797-1.006-2.3z"/><defs><linearGradient id="azuracast_svg__b" x2="1" gradientTransform="matrix(-.29703 -250.7 250.7 -.29703 154.96 265.54)" gradientUnits="userSpaceOnUse"><stop offset="0" stop-color="#236be9"/><stop offset="1" stop-color="#236be9"/></linearGradient></defs></svg>