<svg xmlns="http://www.w3.org/2000/svg" viewBox="0 0 48 48"><style id="style2" type="text/css">.backblaze_svg__st1{fill:#e21e29}</style><g id="backblaze_svg__g32" style="stroke-width:1.78487" transform="translate(-55.177 -30.041) scale(.56027)"><path id="backblaze_svg__path26" d="M158.16 130.91c-3.97 1.27-12.56 1.95-17.02-3.57-5.44-6.73-1.54-12.01-4.85-11.25-12.91 2.98-18.8-5.23-19.8-7.5-.01-.01-.54-1.57-.75-.16 0 .02-.01.05-.02.07v.03c-.41 1.93-.59 6.51.41 10.6 1.26 5.15 5.06 13.93 15.75 18.31 8.99 3.69 20.41 1.93 28.02-5.81 1.89-1.94 1.46-1.75-1.74-.72z" class="backblaze_svg__st1" style="stroke-width:1.78487"/><path id="backblaze_svg__path28" d="M137.82 59.32c-3-3.69-6.1-5.7-6.1-5.7 2.33 4.82 5.59 14.57-4.96 25.61-6.46 6.71-10.99 13.74-8.39 21.65 1.3 3.94 4.24 8.95 10.31 9.94 2.18.36 4.79 0 6.21-.5 8.76-3.05 7.49-12.19 5.55-18.02-.25-.76-.68-2.62-.84-3.3-1.33-5.72 2.77-9.48 4.03-13.58.1-.33.19-.65.25-.97.15-.75.24-1.51.28-2.28 0-6.52-3.53-9.39-6.34-12.85z" class="backblaze_svg__st1" style="stroke-width:1.78487"/><path id="backblaze_svg__path30" d="M167.18 111.51c-.47-5.64-2.91-9.83-9.83-17.71-3.43-3.9-5.74-8.6-5.58-12.16.49-4.31 2.35-6.54 2.35-6.54s-2.53 1.2-4.35 3.15c-1.59 1.72-3.08 3.14-4.62 6.64-.1.5-.19 1.02-.27 1.56-.83 5.86 4.1 11.23 2.57 18.53-.4 1.91-1.27 2.54-2.79 5.84-1.82 3.95-1.37 9.24 1.28 12.6 2.4 3.03 6.71 4.4 10.9 3.39 7.52-1.8 10.94-8.15 10.34-15.3z" class="backblaze_svg__st1" style="stroke-width:1.78487"/></g></svg>