<svg xmlns="http://www.w3.org/2000/svg" fill="#dc2626" viewBox="0 0 48 48"><path d="M28.797 48h-24V0h24q3.017 0 5.623 1.166a14.7 14.7 0 0 1 4.526 3.085q1.988 1.92 3.085 4.526 1.166 2.674 1.166 5.623a10.6 10.6 0 0 1-.206 2.194 12 12 0 0 1-.137.549 13.3 13.3 0 0 1-1.028 2.743 11.7 11.7 0 0 1-1.646 2.331 9.3 9.3 0 0 1-1.783 1.577 9 9 0 0 1-.274.206q1.165.686 2.057 1.714.96 1.097 1.645 2.4a12.6 12.6 0 0 1 1.03 2.743 12 12 0 0 1 .342 2.057 11 11 0 0 1 0 .686q0 3.017-1.166 5.623a14.7 14.7 0 0 1-3.085 4.526q-1.92 1.988-4.526 3.154Q31.814 48 28.797 48m-14.4-38.4v9.6h14.4a4.8 4.8 0 0 0 1.577-.206 5 5 0 0 0 .274-.137q.892-.343 1.577-1.028a4.7 4.7 0 0 0 1.03-1.509q.342-.891.342-1.92a4.8 4.8 0 0 0-.274-1.577 5 5 0 0 0-.069-.274q-.411-.892-1.029-1.578a4.8 4.8 0 0 0-1.577-.96 4.7 4.7 0 0 0-1.714-.411h-.137zm0 19.2v9.6h14.4a4.8 4.8 0 0 0 1.577-.274 5 5 0 0 0 .274-.069q.892-.411 1.577-1.028a4.8 4.8 0 0 0 1.03-1.51 4.7 4.7 0 0 0 .342-1.782V33.6a4.8 4.8 0 0 0-.274-1.577 5 5 0 0 0-.069-.274q-.411-.892-1.029-1.578a4.8 4.8 0 0 0-1.577-1.028 4.7 4.7 0 0 0-1.714-.412H14.397z"/></svg>
