<svg xmlns="http://www.w3.org/2000/svg" viewBox="0 0 48 48"><path fill="#f7931a" d="M39.426 24.763c-2.613 10.479-13.227 16.856-23.707 14.243C5.242 36.394-1.135 25.78 1.479 15.3 4.09 4.82 14.704-1.559 25.182 1.054c10.48 2.613 16.857 13.229 14.244 23.709Z" style="stroke-width:.611292" transform="translate(-1.093 -.575) scale(1.2269)"/><path fill="#fff" d="M29.074 17.244c.39-2.603-1.593-4.003-4.303-4.936l.88-3.526-2.147-.535-.856 3.433a89.778 89.778 0 0 0-1.72-.404l.863-3.456-2.145-.535-.88 3.525a71.809 71.809 0 0 1-1.37-.322l.002-.011-2.96-.74-.57 2.293s1.592.365 1.558.387c.87.217 1.026.793 1 1.249l-1.001 4.017c.06.015.137.037.223.071l-.227-.056-1.403 5.627c-.107.264-.376.66-.984.51.021.03-1.56-.39-1.56-.39l-1.066 2.457 2.793.696c.52.13 1.03.267 1.53.395l-.888 3.566 2.144.535.88-3.528c.585.159 1.154.306 1.71.444l-.876 3.512 2.146.534.888-3.56c3.66.693 6.412.414 7.57-2.896.934-2.665-.046-4.203-1.972-5.205 1.403-.324 2.459-1.246 2.74-3.151zM24.17 24.12c-.663 2.665-5.15 1.224-6.606.863l1.179-4.724c1.455.363 6.12 1.081 5.427 3.861zm.664-6.915c-.605 2.424-4.34 1.193-5.552.89l1.069-4.284c1.211.302 5.113.865 4.483 3.394z" style="stroke-width:.611292" transform="translate(-1.093 -.575) scale(1.2269)"/></svg>