<svg xmlns="http://www.w3.org/2000/svg" viewBox="0 0 48 48"><g fill="#fff" fill-rule="evenodd" stroke="#0288d1" stroke-linejoin="round" stroke-width="1.25"><g stroke-linecap="round"><path d="m20.525 38.69 26.851-15.503-19.179-11.075L1.344 27.616z"/><path d="M1.344 27.615v4.43l19.18 11.073 26.852-15.502v-4.43"/><path d="M20.525 46.07 1.346 34.998s-1.564-3.525 0-5.906l19.18 11.073 26.85-15.502v5.906l-26.85 15.503"/><path d="M20.525 28.353 47.376 12.85 28.197 1.78 1.344 17.28Z"/><path d="M20.525 28.353 47.376 12.85v5.906L20.526 34.26 1.345 23.186s-1.266-3.674 0-5.907z"/><path d="M20.525 40.166 1.346 29.093s-1.564-3.525 0-5.906l19.18 11.073 26.85-15.502v5.905l-26.85 15.503"/></g><path d="m32.672 4.36-11.509 6.646 4.475.368.64 2.585 11.508-6.645z"/></g></svg>