<svg xmlns="http://www.w3.org/2000/svg" width="48" height="48" aria-label="BookStack Logo" viewBox="0 0 45 45"><g fill="#fff" fill-rule="evenodd" stroke="#0288d1" stroke-linejoin="round" stroke-width="1.172"><g stroke-linecap="round"><path d="m19.242 36.342 25.172-14.533-17.98-10.382L1.26 25.961z"/><path d="M1.26 25.96v4.153l17.981 10.381 25.173-14.533v-4.152"/><path d="M19.242 43.262 1.262 32.881s-1.466-3.305 0-5.537l17.98 10.381 25.172-14.533v5.537L19.242 43.262"/><path d="M19.242 26.652 44.414 12.12 26.434 1.74 1.26 16.27Z"/><path d="M19.242 26.652 44.414 12.12v5.536L19.242 32.19 1.262 21.808s-1.187-3.444 0-5.537z"/><path d="M19.242 37.727 1.262 27.346s-1.466-3.305 0-5.537l17.98 10.381 25.172-14.533v5.536L19.242 37.727"/></g><path d="M30.629 4.16 19.84 10.39l4.195.345.6 2.423 10.788-6.229z"/></g></svg>