<svg xmlns="http://www.w3.org/2000/svg" viewBox="0 0 48 48"><path fill="#000200" d="M0 14h48v20H0z"/><path fill="#0d0" d="M9.699 20.903H7.136v-2.07h4.008l2.078 2.07v2.11l-1.039 1.039 1.04 1.039v2.039l-2.079 2.07H7.136v-2.07H9.7v-2.211H7.136v-1.805H9.7zm-6.563-2.07H6.59V29.2H3.135zm20.835 8.297-2.07 2.07H19.59v-1.937h.859v-4.29h-.86v-2.07h2.313l2.07 2.07zm-5.828.133h.899V29.2h-2.32l-2.07-2.07v-4.156l2.07-2.07h2.32v2.07h-.899zm12.868-4.29h-1.469v-.906l1.157-1.164h2.093l1.68 1.938v2.148H31.01zM25.535 29.2v-8.297h3.453V29.2zm15.46-6.227h-1.531v-2.07h2.914l2.07 2.07v7.047l-2.07 2.086h-4.555l-1.039-1.047v-.765h4.211zm-.547 4.29v.914L39.417 29.2h-1.883l-2.07-2.07v-4.156l2.07-2.07h1.383v6.359z"/></svg>