<svg xmlns="http://www.w3.org/2000/svg" viewBox="0 0 48 48"><defs><linearGradient id="cacti_svg__a" x1="272.65" x2="358.84" y1="412.1" y2="367.54" gradientTransform="translate(-268.35 335.75)" gradientUnits="userSpaceOnUse"><stop offset="0" stop-color="#b1e356"/><stop offset=".685" stop-color="#080"/><stop offset=".978" stop-color="#006800"/><stop offset="1" stop-color="#006800"/></linearGradient><linearGradient id="cacti_svg__b" x1="326.96" x2="345.27" y1="408.84" y2="399.37" gradientTransform="translate(-268.35 335.75)" gradientUnits="userSpaceOnUse"><stop offset="0" stop-color="#080"/><stop offset=".051" stop-color="#080"/><stop offset=".978" stop-color="#006800"/><stop offset="1" stop-color="#006800"/></linearGradient><linearGradient id="cacti_svg__c" x1="281.43" x2="358.32" y1="410.21" y2="370.45" gradientTransform="translate(-268.35 335.75)" gradientUnits="userSpaceOnUse"><stop offset="0" stop-color="#60b656"/><stop offset=".494" stop-color="#086d05"/><stop offset=".528" stop-color="#080"/><stop offset=".978" stop-color="#004900"/><stop offset="1" stop-color="#004900"/></linearGradient><linearGradient id="cacti_svg__d" x1="321.17" x2="335.39" y1="396.93" y2="389.57" gradientTransform="translate(-268.35 335.75)" gradientUnits="userSpaceOnUse"><stop offset="0" stop-color="#080"/><stop offset=".051" stop-color="#080"/><stop offset=".978" stop-color="#006800"/><stop offset="1" stop-color="#006800"/></linearGradient><linearGradient id="cacti_svg__e" x1="280.25" x2="304.05" y1="414.8" y2="402.5" gradientTransform="translate(-268.35 335.75)" gradientUnits="userSpaceOnUse"><stop offset="0" stop-color="#7cac56"/><stop offset=".494" stop-color="#086d05"/><stop offset=".528" stop-color="#080"/><stop offset=".978" stop-color="#004900"/><stop offset="1" stop-color="#004900"/></linearGradient><linearGradient id="cacti_svg__f" x1="268.9" x2="303.23" y1="401.52" y2="383.77" gradientTransform="translate(-268.35 335.75)" gradientUnits="userSpaceOnUse"><stop offset="0" stop-color="#7cac56"/><stop offset=".494" stop-color="#086d05"/><stop offset=".528" stop-color="#080"/><stop offset=".978" stop-color="#004900"/><stop offset="1" stop-color="#004900"/></linearGradient></defs><path fill="#155104" d="M21.303 28.83s.2 5.483-.997 7.975c0 0-2.094 5.783.399 9.97 0 0 6.911 3.655 11.936-1.692 0 0 .692-1.432-.371-4.29 0 0-1.296-3.49-1.396-9.97 0 0 .1-2.692.399-4.386 0 0 7.178-.4 7.776-6.182 0 0 .598-6.38-2.393-7.178 0 0-4.187-.897-4.187 2.991 0 0 .598 4.287-1.595 4.387 0 0-.798-.399-.798-2.991 0 0 .997-8.175-2.592-14.157 0 0-2.99-4.785-7.776-.997 0 0-1.795 1.795 0 5.583 0 0 2.99 7.577 1.595 12.761 0 0-.3 2.692-1.795 2.592 0 0-1.994.2-.997-3.589 0 0 2.194-5.084-1.196-7.178 0 0-4.985-1.794-6.58 4.985 0 0-1.994 5.384.2 9.371 0 0 1.894 3.49 10.368 1.994z"/><path fill="url(#cacti_svg__a)" stroke="#000" d="M30.813 719.98s.5-13.75-2.5-20c0 0-5.25-14.5 1-25 0 0 17.332-9.168 29.932 4.242 0 0 1.734 3.59-.932 10.758 0 0-3.25 8.75-3.5 25 0 0 .25 6.75 1 11 0 0 18 1 19.5 15.5 0 0 1.5 16-6 18 0 0-10.5 2.25-10.5-7.5 0 0 1.5-10.75-4-11 0 0-2 1-2 7.5 0 0 2.5 20.5-6.5 35.5 0 0-7.5 12-19.5 2.5 0 0-4.5-4.5 0-14 0 0 7.5-19 4-32 0 0-.75-6.75-4.5-6.5 0 0-5-.5-2.5 9 0 0 5.5 12.75-3 18 0 0-12.5 4.5-16.5-12.5 0 0-5-13.5.5-23.5 0 0 4.75-8.75 26-5z" transform="matrix(.39879 0 0 -.39879 8.217 315.283)"/><path fill="url(#cacti_svg__b)" fill-opacity=".67" d="M65.98 759.14c1-.372 2.611-1.128 3.266-2.066.41-.589-.286-1.702.045-2.267.341-.587 1.521-1.382 1.689-1.706.992-1.898.855-1.75.992-3.62.149-2.006-.93-3.066-1.09-4.6-.306-2.949 1.125-5.272-.228-8.074-1.424-2.95-3.13-4.669-5.95-6.058.288-5.629-8.638-.283-9.013-5.224 3.648.242 8.912 2.04 11.012 5.225 6.32 2.013 10.297 10.268 9.611 16.724-.39 3.682-3.566 14.399-9.334 11.334" transform="matrix(.39879 0 0 -.39879 8.217 315.283)"/><path fill="url(#cacti_svg__c)" fill-opacity=".78" d="M37.313 787.81c4.336-.9 4.528-3.688 5.592-7 .875-2.723 2.49-5.015 3.075-7.982.591-3.003.279-6.044 1.074-8.936.646-2.351 1.613-4.983 1.851-7.49.531-5.628 1.408-10.69 1.408-16.259 0-3.33.424-5.717 1-8.666.14-.71-.189-1.545-.008-2.242.258-.986-.189-1.994.008-2.758.373-1.45-.431-2.771-.668-4.334-.703-4.644.502-8.39.018-13-.316-3.015 1.072-4.674 1.217-7.666.107-2.205.111-.855-.649-3.017-.373-1.059-1.285-1.305-1.257-2.725.043-2.19 2.314-3.924 2.923-5.934.678-2.226.288-3.875-.27-5.972-.372-1.406-.51-5.049-1.38-6.37-1.266-1.921-4.418-1.673-6.217-3.038-.047-.432-.027-.797 0-1.227 4.127-.621 4.744 1.858 7.95 3.3 1.728.778 5.32.325 6.265 2.726 1.014 2.572-2.318 4.36-2.6 6.923-.31 2.842-.224 4.934-.925 7.74-2.752 11.028-2.893 23.32-2.407 35.206.141 3.45.844 7.25.34 10.73-.324 2.236-1.324 4.403-1.654 6.677-.783 5.388-1.354 11.102-1.354 16.648 0 9.062-2.886 21.827-11.666 25.667-1.336.585-2.276 1.257-3.891 1.025 1.37-.715 2.197-1.915 3.558-2.692" transform="matrix(.39879 0 0 -.39879 8.217 315.283)"/><path fill="url(#cacti_svg__d)" fill-opacity=".67" d="M52.314 730.81c1.205-.012 2.428.01 3.617-.05 1.186-6.14 8.334 1.658 11.338 1-3.043-4.648-9.559-5.484-15.238-5.232.158 1.246-.193 2.283-1.025 2.873 4.1.305 8.478.23 12.59.027-.016-.166-.03-.742-.008-.894-.79-.258-1.754-.7-2.608-.725" transform="matrix(.39879 0 0 -.39879 8.217 315.283)"/><path fill="url(#cacti_svg__e)" fill-opacity=".48" d="M17.647 758.14c3.202-.86 1.694-7.09 1.083-9.091-.232-.765-1.35-.89-1.449-1.925-.046-.483 1.196-1.214 1.282-1.742.254-1.55.155-2.97.076-4.567-.14-2.864-.106-6.832 2.242-8.433 2.74-1.869 6.74.138 7.992 2.69-1.753-.115-3.298-.896-5.176-.548-.492 2.368-1.437 5.015-1.384 7.616.055 2.657 1.735 5.234 2 8 .276 2.866-.762 6.035-2.333 8.333-1.338 1.959-6.562 4.18-5.308-.258.317-.154.642-.29.975-.408" transform="matrix(.39879 0 0 -.39879 8.217 315.283)"/><path fill="url(#cacti_svg__f)" fill-opacity=".48" d="M4.313 745.14c-.359-3.602-1.527-7.263-.757-11.008.61-2.964 1.552-7.809 3.823-10 4.403-4.25 14.593-3.904 20.54-3.61.167.178.259.39.276.635-1.96 1.075-5.014.526-7.124 1.067-2.201.566-5.989 1.105-8.09 1.982-2.292.957-3.697 2.977-4.334 4.934-1.203 3.694.798 5.224-3.333 7.333 1.283 3.61-1.667 4.303-1.667 7" transform="matrix(.39879 0 0 -.39879 8.217 315.283)"/><g fill="none" stroke="#fff" stroke-linecap="round" stroke-opacity=".25"><g stroke-width=".798"><path d="M23.762.715s3.324 2.127 3.324 12.097l.797 33.747"/><path d="M21.237.583s4.12 2.526 4.12 10.768l.818 35.471"/><path d="M20.04 1.245s3.722 4.387 3.59 11.3c-.134 6.912.53 34.428.53 34.428"/><path d="M18.578 2.84s3.19 4.387 3.19 16.218c0 11.83.133 27.45.133 27.45"/></g><path stroke-width=".399" d="m20.439 20.786-.133 25.656M14.989 11.75s-6.646 3.057-3.722 15.685"/><path stroke-width=".399" d="M16.451 12.148s-5.117 3.19-4.054 15.42"/><path stroke-width=".399" d="M17.249 12.679s-3.789 5.317-3.257 15.42M18.18 15.27s-3.59 4.986-2.925 12.962m2.127-6.512s-.997 3.588-.732 6.513m2.01-5.501s-.282 2.442-.016 5.5M29.578 46.01l-.897-33.599s-.399-7.178-1.595-8.906m4.287 41.308-.832-8.275m2.925-23.728s2.924 3.855 1.994 11.033m-3.19-10.235s1.595 4.918 1.595 11.166m-2.127-7.178s.532 4.984.399 7.776m-1.729-5.515s.665 3.456.4 5.716"/></g></svg>