<?xml version="1.0" encoding="utf-8"?>
<!-- Generator: Adobe Illustrator 26.3.1, SVG Export Plug-In . SVG Version: 6.00 Build 0)  -->
<svg version="1.1" id="Laag_1" xmlns:serif="http://www.serif.com/"
	 xmlns="http://www.w3.org/2000/svg" xmlns:xlink="http://www.w3.org/1999/xlink" x="0px" y="0px" viewBox="0 0 48 48"
	 style="enable-background:new 0 0 48 48;" xml:space="preserve">
<style type="text/css">
	.st0{fill-rule:evenodd;clip-rule:evenodd;fill:#1F88C0;}
	.st1{fill:none;stroke:#1F88C0;stroke-linecap:round;stroke-linejoin:round;stroke-miterlimit:249.1448;}
	.st2{fill:none;stroke:#22B638;stroke-miterlimit:189.7593;}
	.st3{fill:none;stroke:#22B638;stroke-linecap:round;stroke-linejoin:round;stroke-miterlimit:189.7593;}
	.st4{fill:none;stroke:#1F88C0;stroke-linecap:round;stroke-linejoin:round;stroke-miterlimit:10;}
</style>
<g transform="matrix(1,0,0,1,-35.5985,-67.948)">
	<g transform="matrix(1.16548,0,0,1.10195,-124,-68.27)">
		<g id="Light-Logo" transform="matrix(0.858013,0,0,0.907485,-3243.42,-1469.17)" serif:id="Light Logo">
			<g id="Logo" transform="matrix(1,0,0,1,21.4759,36.7359)">
				<g id="Icon">
					<g>
						<g transform="matrix(-0.191794,-0.715786,0.715786,-0.191794,4329.14,4673.64)">
							<path class="st0" d="M3956.5,547.7c-4-0.2-7.6-1.3-11-2.9c-3.4-1.6-6.5-3.8-9.1-6.5c-1-1.1-2-2.2-2.9-3.4s-1.7-2.4-2.4-3.8
								c-2.1-3.9-3.4-8.2-3.6-12.9c-0.2-3.7,0.4-7.3,1.5-10.6c1.2-3.5,3-6.7,5.4-9.5l-0.5-0.5c-2.7,2.7-4.8,5.9-6.3,9.4
								c-1.5,3.4-2.4,7.2-2.6,11.2c-0.2,5.2,0.9,10.1,3,14.5c0.7,1.5,1.6,3,2.6,4.3c1,1.4,2.1,2.6,3.3,3.8c3,2.9,6.6,5.1,10.5,6.6
								c3.8,1.4,7.8,1.9,12.1,1.7V547.7z"/>
						</g>
						<g transform="matrix(-0.191794,-0.715786,0.715786,-0.191794,4329.14,4673.64)">
							<path class="st0" d="M3943.8,491.5c1.9-1,4-1.8,6.2-2.4c2.1-0.5,4.3-0.8,6.6-0.9c1.1,0,2.2,0.1,3.3,0.3
								c4.4,0.7,8.4,2.5,11.9,4.9c1.9,1.3,3.6,2.8,5.2,4.4c2.1,2.1,4,4.5,5.4,7.2c2.1,3.9,3.5,8.3,3.7,13.1
								c0.1,3.9-0.4,7.6-1.7,11.1c-0.9,2.4-2.1,4.6-3.6,6.7c-1.7,2.3-3.8,4.2-6.1,5.9c-2.3,1.6-4.8,2.9-7.5,3.8
								c-0.4,0.1-0.7,0.2-1.1,0.3c-0.3,0.1-0.4,0.3-0.6,0.5l0.3,1.1c0.3,0,0.5,0.1,0.8,0c0.4-0.1,0.7-0.3,1.1-0.4
								c3.8-1.6,7.2-4,10-7c1.2-1.2,2.3-2.6,3.3-4c1.1-1.6,2.1-3.2,3-4.9c2-3.9,3.2-8.3,3.4-13c0.2-5.1-0.8-10-2.9-14.3
								c-1.4-3-3.3-5.8-5.7-8.1c-1.8-1.7-3.8-3.2-6-4.4c-3.9-2.2-8.4-3.3-13-3.6c-1.1-0.1-2.2-0.1-3.4,0c-2.3,0-4.6,0.2-6.7,0.6
								c-2.3,0.4-4.4,1.1-6.5,2L3943.8,491.5z"/>
						</g>
					</g>
					<g>
						<g transform="matrix(-3.37109,-0.514565,0.514565,-3.37109,4078.07,1806.88)">
							<path class="st1" d="M38,16.3c0-0.5-0.4-1-1-1c-0.3,0-0.5,0.1-0.7,0.3S36,16,36,16.3c0,0.5,0.4,1,1,1
								C37.5,17.3,38,16.9,38,16.3z"/>
						</g>
						<g transform="matrix(-5.33921,-5.26159,-3.12106,-6.96393,4073.87,1861.55)">
							<path class="st0" d="M21.7,1.1c0,0-0.3,0.3-0.6,0.7c-0.6,0.7-1.5,1.5-1.5,1.5h0.1c0,0,0.9-0.9,1.5-1.5
								c0.4-0.4,0.7-0.7,0.7-0.7L21.7,1.1z"/>
						</g>
					</g>
					<g id="Padlock" transform="matrix(3.11426,0,0,3.11426,3938.31,1737.25)">
						<g>
							<path class="st2" d="M0,5.9h4.1c0.2,0,0.4-0.2,0.4-0.4V1.4C4.5,1.2,4.3,1,4.1,1H-2c-0.2,0-0.4,0.2-0.4,0.4v2.4"/>
							<path class="st3" d="M-0.9,1v-2c0-1.1,0.9-2,2-2S3-2,3-1v2"/>
						</g>
					</g>
					<g>
						<g transform="matrix(5.30977,0.697415,-0.697415,5.30977,3852.72,1727.97)">
							<path class="st4" d="M15.8,3.5c0-0.2,0-0.3-0.1-0.5c-0.2-0.3-0.5-0.5-0.9-0.5c-0.5,0-1,0.4-1,1c0,0.5,0.4,1,1,1
								S15.8,4.1,15.8,3.5z"/>
						</g>
						<g transform="matrix(4.93114,2.49604,1.11018,5.44847,3921.41,1726.72)">
							<path class="st0" d="M3.3,2.3c0,0-0.8,0.7-1.4,1.3C1.5,3.9,1.3,4.1,1.3,4.1l0.3,0.3c0,0,0.2-0.3,0.6-0.6
								c0.5-0.6,1.3-1.4,1.3-1.4L3.3,2.3z"/>
						</g>
					</g>
				</g>
			</g>
		</g>
	</g>
</g>
</svg>
