<?xml version="1.0" encoding="utf-8"?>
<!-- Generator: Adobe Illustrator 26.3.1, SVG Export Plug-In . SVG Version: 6.00 Build 0)  -->
<svg version="1.1" id="Laag_1" xmlns="http://www.w3.org/2000/svg" xmlns:xlink="http://www.w3.org/1999/xlink" x="0px" y="0px"
	 viewBox="0 0 163.09 159.06" style="enable-background:new 0 0 163.09 159.06;" xml:space="preserve">
<style type="text/css">
	.st0{fill-rule:evenodd;clip-rule:evenodd;fill:#2188C1;}
	.st1{fill:none;stroke:#2188C1;stroke-width:5.6239;stroke-linecap:round;stroke-linejoin:round;stroke-miterlimit:21.4244;}
	.st2{fill:none;stroke:#40AB3C;stroke-width:9.2447;stroke-miterlimit:19.5656;}
	.st3{fill:none;stroke:#40AB3C;stroke-width:9.2447;stroke-linecap:round;stroke-linejoin:round;stroke-miterlimit:19.5656;}
	.st4{fill:none;stroke:#2188C1;stroke-width:8.2432;stroke-linecap:round;stroke-linejoin:round;stroke-miterlimit:33.6456;}
</style>
<g transform="matrix(1,0,0,1,-35.5985,-67.948)">
	<g transform="matrix(1.16548,0,0,1.10195,-124,-68.27)">
		<g id="Light-Logo" transform="matrix(0.858013,0,0,0.907485,-3243.42,-1469.17)">
			<g id="Logo" transform="matrix(1,0,0,1,21.4759,36.7359)">
				<g id="Icon">
					<g>
						<g transform="matrix(-0.191794,-0.715786,0.715786,-0.191794,4329.14,4673.64)">
							<path class="st0" d="M3863.57,667.78c-12.61-0.74-24.34-4.14-35.12-9.2c-10.93-5.13-20.67-12.23-28.9-20.8
								c-3.28-3.42-6.35-7.04-9.16-10.88c-2.78-3.81-5.34-7.82-7.6-12c-6.66-12.32-10.87-26.21-11.37-41.15
								c-0.5-11.85,1.18-23.27,4.79-33.86c3.82-11.16,9.64-21.38,17.1-30.25l-1.63-1.5c-8.48,8.55-15.35,18.67-20.25,29.89
								c-4.81,10.99-7.65,23.02-8.2,35.72c-0.53,16.53,2.87,32.29,9.6,46.24c2.32,4.83,5.09,9.42,8.2,13.73
								c3.14,4.33,6.64,8.39,10.49,12.08c9.52,9.15,20.91,16.41,33.52,20.98c11.98,4.35,25.02,6.22,38.53,5.42V667.78z"/>
						</g>
						<g transform="matrix(-0.191794,-0.715786,0.715786,-0.191794,4329.14,4673.64)">
							<path class="st0" d="M3822.94,488.47c6.17-3.2,12.74-5.77,19.65-7.52c6.74-1.7,13.76-2.61,20.98-2.75
								c3.55,0.15,7.02,0.47,10.44,1.03c14.01,2.29,26.67,8.05,37.85,15.7c6,4.1,11.43,8.88,16.49,14.04
								c6.72,6.85,12.69,14.45,17.34,22.95c6.83,12.51,11.17,26.63,11.73,41.84c0.46,12.38-1.35,24.31-5.4,35.27
								c-2.81,7.61-6.57,14.81-11.34,21.23c-5.4,7.26-12.09,13.49-19.46,18.74c-7.24,5.16-15.3,9.19-23.84,12.11
								c-1.13,0.38-2.34,0.51-3.39,1.08c-0.8,0.44-1.24,1.08-1.95,1.66l1.07,3.4c0.96,0.07,1.73,0.29,2.67,0.13
								c1.24-0.2,2.32-0.93,3.47-1.43c12.11-5.26,22.84-12.9,31.87-22.21c3.85-3.97,7.35-8.25,10.59-12.74
								c3.58-4.95,6.83-10.16,9.61-15.66c6.35-12.58,10.33-26.58,10.88-41.59c0.6-16.27-2.67-31.79-9.24-45.55
								c-4.57-9.57-10.62-18.38-18.11-25.74c-5.62-5.52-12.08-10.19-19.02-14c-12.5-6.86-26.65-10.68-41.58-11.52
								c-3.53-0.2-7.08-0.27-10.7-0.12c-7.37-0.15-14.54,0.57-21.47,1.95c-7.21,1.43-14.14,3.59-20.7,6.48L3822.94,488.47z"/>
						</g>
					</g>
					<g>
						<g transform="matrix(-3.37109,-0.514565,0.514565,-3.37109,4078.07,1806.88)">
							<path class="st1" d="M8.86,10.66c0-1.72-1.42-3.14-3.14-3.14c-0.91,0-1.73,0.39-2.31,1.02C2.9,9.1,2.58,9.84,2.58,10.66
								c0,1.72,1.42,3.14,3.14,3.14C7.44,13.8,8.86,12.38,8.86,10.66z"/>
						</g>
						<g transform="matrix(-5.33921,-5.26159,-3.12106,-6.96393,4073.87,1861.55)">
							<path class="st0" d="M0.19,10.13c0,0-0.89,0.92-2.02,2.1c-1.98,2.08-4.67,4.92-4.67,4.92l0.29,0.09c0,0,2.84-2.8,4.91-4.85
								c1.17-1.17,2.09-2.08,2.09-2.08L0.19,10.13z"/>
						</g>
					</g>
					<g id="Padlock" transform="matrix(3.11426,0,0,3.11426,3938.31,1737.25)">
						<g>
							<path class="st2" d="M16.36,33.33h13.01c0.73,0,1.32-0.59,1.32-1.32V18.94c0-0.73-0.59-1.32-1.32-1.32H10.02
								c-0.73,0-1.32,0.59-1.32,1.32v7.73"/>
							<path class="st3" d="M13.41,17.63v-6.28c0-3.45,2.84-6.28,6.28-6.28s6.28,2.84,6.28,6.28v6.28"/>
						</g>
					</g>
					<g>
						<g transform="matrix(5.30977,0.697415,-0.697415,5.30977,3852.72,1727.97)">
							<path class="st4" d="M25.9,19.19c0-0.54-0.14-1.04-0.38-1.48c-0.53-0.98-1.58-1.66-2.76-1.66c-1.72,0-3.14,1.42-3.14,3.14
								s1.42,3.14,3.14,3.14C24.48,22.33,25.9,20.92,25.9,19.19z"/>
						</g>
						<g transform="matrix(4.93114,2.49604,1.11018,5.44847,3921.41,1726.72)">
							<path class="st0" d="M12.63,10.35c0,0-2.62,2.33-4.52,4.08c-1.07,0.99-1.9,1.78-1.9,1.78l1.1,1.04c0,0,0.79-0.83,1.77-1.91
								c1.73-1.9,4.04-4.53,4.04-4.53L12.63,10.35z"/>
						</g>
					</g>
				</g>
			</g>
		</g>
	</g>
</g>
</svg>
