<svg xmlns="http://www.w3.org/2000/svg" viewBox="0 0 48 48"><path d="M3901.56 610.734c-8.03-.473-15.5-2.634-22.36-5.857-6.96-3.269-13.16-7.784-18.4-13.244a68.432 68.432 0 0 1-5.83-6.924 67.159 67.159 0 0 1-4.84-7.643c-4.24-7.842-6.92-16.685-7.24-26.198-.32-7.547.75-14.813 3.05-21.561a60.13 60.13 0 0 1 10.89-19.258l-1.04-.954c-5.4 5.445-9.77 11.886-12.89 19.03-3.06 7-4.87 14.656-5.22 22.743-.34 10.523 1.83 20.557 6.11 29.438a57.913 57.913 0 0 0 5.22 8.743c2 2.757 4.23 5.341 6.68 7.693 6.06 5.826 13.31 10.448 21.34 13.358 7.63 2.767 15.93 3.959 24.53 3.452zM3875.69 496.573c3.93-2.035 8.11-3.676 12.51-4.787 4.29-1.082 8.76-1.662 13.36-1.754 2.26.098 4.47.3 6.65.656 8.92 1.459 16.98 5.126 24.1 9.995 3.82 2.611 7.28 5.652 10.5 8.936 4.28 4.361 8.08 9.197 11.04 14.613 4.35 7.965 7.11 16.954 7.47 26.636.29 7.88-.86 15.477-3.44 22.454-1.79 4.847-4.18 9.431-7.22 13.516-3.44 4.623-7.7 8.589-12.39 11.931-4.61 3.286-9.74 5.85-15.18 7.709-.72.243-1.49.327-2.16.689-.51.281-.79.687-1.24 1.057l.68 2.165c.61.043 1.1.184 1.7.085.79-.13 1.48-.591 2.21-.908 7.71-3.35 14.54-8.211 20.29-14.138 2.45-2.525 4.68-5.254 6.74-8.109 2.28-3.151 4.35-6.466 6.12-9.971 4.04-8.008 6.58-16.926 6.93-26.48.38-10.357-1.7-20.24-5.88-29-2.91-6.093-6.76-11.705-11.53-16.39-3.58-3.516-7.69-6.488-12.11-8.916-7.96-4.37-16.97-6.802-26.47-7.333-2.25-.125-4.51-.175-6.81-.075-4.69-.094-9.26.365-13.67 1.243-4.59.912-9 2.286-13.18 4.128z" style="fill:#1f88c0" transform="matrix(-.09514 -.35506 .35505 -.09514 198.649 1461.49)"/><path d="M22 12c0-1.097-.903-2-2-2-.579 0-1.103.251-1.47.649-.328.357-.53.832-.53 1.351 0 1.097.903 2 2 2s2-.903 2-2z" style="fill:none;fill-rule:nonzero;stroke:#1f88c0;stroke-width:1.05px" transform="matrix(-1.67217 -.25524 .25524 -1.67218 74.11 39.474)"/><path d="M10.315 5.333s-.567.588-1.285 1.34a1320.213 1320.213 0 0 0-2.976 3.132l.183.055S8.045 8.077 9.36 6.771c.747-.743 1.329-1.327 1.329-1.327z" style="fill:#1f88c0" transform="matrix(-2.64842 -2.60994 -1.54815 -3.45436 72.026 66.593)"/><path d="M9.876 21h8.286a.838.838 0 0 0 .838-.838v-8.324a.838.838 0 0 0-.838-.838H5.838a.838.838 0 0 0-.838.838v4.92" style="fill:none;stroke:#22b638;stroke-width:1.89px;stroke-linecap:butt;stroke-linejoin:miter" transform="matrix(1.54478 0 0 1.54478 4.784 4.935)"/><path d="M8 11V7c0-2.194 1.806-4 4-4s4 1.806 4 4v4" style="fill:none;fill-rule:nonzero;stroke:#22b638;stroke-width:1.89px" transform="matrix(1.54478 0 0 1.54478 4.784 4.935)"/><path d="M22 12a2.009 2.009 0 0 0-2-2c-1.097 0-2 .903-2 2s.903 2 2 2 2-.903 2-2z" style="fill:none;fill-rule:nonzero;stroke:#1f88c0;stroke-width:.98px" transform="matrix(2.63382 .34594 -.34594 2.63384 -37.671 .332)"/><path d="M8.902 6.77S7.235 8.253 6.027 9.366a78.273 78.273 0 0 0-1.208 1.136l.701.662s.501-.527 1.126-1.213c1.103-1.212 2.573-2.883 2.573-2.883Z" style="fill:#1f88c0" transform="matrix(2.446 1.23813 .55069 2.70264 -3.599 -.288)"/></svg>
