<svg xmlns="http://www.w3.org/2000/svg" viewBox="0 0 48 48"><path d="M0 0h254.06v400H0z" style="fill:#e95420" transform="translate(8.756)scale(.12)"/><path d="m35.165 28.252-2.039-4.107a.196.196 0 0 0-.176-.109h-8.176a.198.198 0 0 0-.073.38l10.215 4.107a.198.198 0 0 0 .218-.05.197.197 0 0 0 .032-.22zm-5.637-.51-16.576-6.923c-.044-.018-.093-.004-.12.035s-.022.09.01.123l11.217 12.001c.018.02.043.03.07.032h.002c.025 0 .049-.01.067-.028l5.36-5.078a.098.098 0 0 0-.03-.162zm-9.097 3.279a.1.1 0 0 0-.162.02L14.45 42.33a.098.098 0 0 0 .088.143c.025 0 .052-.01.07-.03l8.288-8.492a.1.1 0 0 0 .004-.134l-2.47-2.797z" style="fill:#fff"/></svg>