<svg xmlns="http://www.w3.org/2000/svg" xml:space="preserve" width="48" height="48" viewBox="-0.787 -0.867 48 48"><g fill="#772953" style="stroke-width:5.90873"><path d="M141.813 232.106c-49.872 0-90.298-40.414-90.298-90.298 0-49.873 40.426-90.294 90.298-90.294 49.873 0 90.297 40.421 90.297 90.294 0 49.884-40.423 90.298-90.297 90.298z" style="stroke-width:34.9131" transform="translate(-.787 -.867) scale(.16924)"/><path d="M283.619 141.812c0 78.316-63.49 141.806-141.81 141.806C63.487 283.618 0 220.127 0 141.812 0 63.488 63.487 0 141.81 0c78.319 0 141.809 63.488 141.809 141.812ZM141.81 34.495c-59.272 0-107.312 48.048-107.312 107.316 0 59.277 48.04 107.31 107.312 107.31 59.274 0 107.314-48.033 107.314-107.31 0-59.268-48.04-107.316-107.314-107.316z" style="stroke-width:34.9131" transform="translate(-.787 -.867) scale(.16924)"/></g></svg>