<svg xmlns="http://www.w3.org/2000/svg" viewBox="0 0 48 48"><path fill="none" d="M0 0h658v222H0z" style="fill:#fff;fill-opacity:0;stroke:none;stroke-width:1.00516"/><path d="m323.367 2798.161-5.407 5.8-5.406-5.8v-40.826h-18.013l23.42-24.898 23.024 24.898h-17.618z" style="display:inline;overflow:visible;visibility:visible;fill:#932279;fill-opacity:1;fill-rule:evenodd;stroke:none;stroke-width:30;marker:none" transform="matrix(0 -.3193 .29934 0 -817.386 125.498)"/><path d="m323.367 2798.161-5.407 5.8-5.406-5.8v-40.826h-18.013l23.42-24.898 23.024 24.898h-17.618z" style="display:inline;overflow:visible;visibility:visible;fill:#efa724;fill-opacity:1;fill-rule:evenodd;stroke:none;stroke-width:30;marker:none" transform="matrix(.3193 0 0 .29934 -77.497 -817.39)"/><path d="m323.367 2798.161-5.407 5.8-5.406-5.8v-40.826h-18.013l23.42-24.898 23.024 24.898h-17.618z" style="display:inline;overflow:visible;visibility:visible;fill:#262577;fill-opacity:1;fill-rule:evenodd;stroke:none;stroke-width:30;marker:none" transform="matrix(0 .3193 -.29934 0 865.386 -77.498)"/><path d="m323.367 2798.161-5.407 5.8-5.406-5.8v-40.826h-18.013l23.42-24.898 23.024 24.898h-17.618z" style="display:inline;overflow:visible;visibility:visible;fill:#9ccd2a;fill-opacity:1;fill-rule:evenodd;stroke:none;stroke-width:30;marker:none" transform="matrix(-.3193 0 0 -.29934 125.497 865.389)"/><path d="M671.984 2285.79h49.607v49.606h-49.607z" style="fill:#9ccd2a;fill-opacity:1;stroke:#fff;stroke-width:3.54331;stroke-linecap:butt;stroke-linejoin:miter;stroke-miterlimit:4;stroke-dashoffset:0;stroke-opacity:1" transform="translate(-193.593 -676.673) scale(.29934)"/><path d="M732.22 2285.79h49.607v49.606h-49.606z" style="fill:#932279;fill-opacity:1;stroke:#fff;stroke-width:3.54331;stroke-linecap:butt;stroke-linejoin:miter;stroke-miterlimit:4;stroke-dashoffset:0;stroke-opacity:1" transform="translate(-193.593 -676.673) scale(.29934)"/><path d="M732.22 2346.026h49.607v49.606h-49.606z" style="fill:#efa724;fill-opacity:1;stroke:#fff;stroke-width:3.54331;stroke-linecap:butt;stroke-linejoin:miter;stroke-miterlimit:4;stroke-dashoffset:0;stroke-opacity:1" transform="translate(-193.593 -676.673) scale(.29934)"/><path d="M671.984 2346.026h49.607v49.606h-49.607z" style="fill:#262577;fill-opacity:1;stroke:#fff;stroke-width:3.54331;stroke-linecap:butt;stroke-linejoin:miter;stroke-miterlimit:4;stroke-dashoffset:0;stroke-opacity:1" transform="translate(-193.593 -676.673) scale(.29934)"/><path d="M-784.629 642.409h49.607v49.606h-49.607z" style="fill:none;stroke:#fff;stroke-width:3.54331;stroke-linecap:butt;stroke-linejoin:miter;stroke-miterlimit:4;stroke-dashoffset:0;stroke-opacity:1" transform="rotate(-45 -320.222 -176.273) scale(.29935)"/><path d="M-724.392 642.409h49.606v49.606h-49.606z" style="fill:none;stroke:#fff;stroke-width:3.54307;stroke-linecap:butt;stroke-linejoin:miter;stroke-miterlimit:4;stroke-dasharray:none;stroke-dashoffset:0;stroke-opacity:1" transform="rotate(-45 -320.222 -176.273) scale(.29935)"/><path d="M-15.378 1009.068 19.7 973.99l35.077 35.077-35.077 35.077z" style="fill:none;stroke:#fff;stroke-width:3.54331;stroke-linecap:butt;stroke-linejoin:miter;stroke-miterlimit:4;stroke-dashoffset:0;stroke-opacity:1" transform="translate(30.853 -278.057) scale(.29934)"/><path d="M-784.629 702.645h49.607v49.607h-49.607z" style="fill:none;stroke:#fff;stroke-width:3.54331;stroke-linecap:butt;stroke-linejoin:miter;stroke-miterlimit:4;stroke-dashoffset:0;stroke-opacity:1" transform="rotate(-45 -320.222 -176.273) scale(.29935)"/></svg>