<svg xmlns="http://www.w3.org/2000/svg" viewBox="0 0 48 48"><g fill="#f0424d" class="ceph_svg__logo-ceph__icon"><path d="M39.07 42.978c-1.562-.893-2.567-1.898-2.79-3.014s.223-2.233 1.45-3.684A18.084 18.084 0 0 0 24.113 6.363H24A18.084 18.084 0 0 0 10.27 36.28c1.228 1.451 1.674 2.567 1.563 3.572s-1.228 2.233-2.903 3.126a25.452 25.452 0 0 1-6.363-8.038A23.777 23.777 0 0 1 0 24.447 23.889 23.889 0 0 1 24 .558h.112a23.889 23.889 0 0 1 23.889 23.89 24.112 24.112 0 0 1-.67 5.469 23.442 23.442 0 0 1-1.786 5.023 25.34 25.34 0 0 1-6.363 8.038"/><path d="M30.363 47.443a8.93 8.93 0 0 1-2.232-2.233 9.712 9.712 0 0 1-1.786-5.916 13.172 13.172 0 0 1 1.004-4.689 13.396 13.396 0 0 1 2.568-4.13l.223-.223a11.498 11.498 0 0 0 1.116-1.563 7.814 7.814 0 0 0 1.117-2.233 8.372 8.372 0 0 0-7.033-10.27 8.149 8.149 0 0 0-1.228 0H24a8.26 8.26 0 0 0-4.465 1.117 8.372 8.372 0 0 0-2.456 2.232 8.372 8.372 0 0 0-1.34 6.921 8.037 8.037 0 0 0 .894 2.233 10.828 10.828 0 0 0 1.228 1.563l.223.335a13.284 13.284 0 0 1 2.568 4.018 13.172 13.172 0 0 1 1.116 4.689 9.823 9.823 0 0 1-2.01 6.028 8.93 8.93 0 0 1-2.12 2.12l-1.34-.446a23.777 23.777 0 0 1-4.019-1.786 6.698 6.698 0 0 0 3.572-5.916 7.144 7.144 0 0 0-1.897-4.689l-.335-.446-1.005-1.116a14.289 14.289 0 0 1-.223-16.745 14.512 14.512 0 0 1 4.13-3.907 14.289 14.289 0 0 1 5.582-2.01A14.847 14.847 0 0 1 24 10.159h.224a14.958 14.958 0 0 1 2.009.224 14.289 14.289 0 0 1 5.47 2.01 14.512 14.512 0 0 1 4.019 3.794 14.177 14.177 0 0 1-.224 16.745l-1.004 1.116-.335.447a7.256 7.256 0 0 0-1.898 4.8 6.698 6.698 0 0 0 3.46 6.028 23.889 23.889 0 0 1-4.018 1.674l-1.34.447"/><path d="M24 29.359a4.688 4.688 0 1 1 4.689-4.689A4.688 4.688 0 0 1 24 29.36"/></g></svg>