<svg xmlns="http://www.w3.org/2000/svg" viewBox="0 0 48 48"><g fill="#3056d3"><path d="M24 0A24 24 0 0 0 0 24a24 24 0 0 0 24 24 24 24 0 0 0 24-24A24 24 0 0 0 24 0zm0 2.591a21.41 21.41 0 0 1 21.41 21.41A21.41 21.41 0 0 1 24 45.41 21.41 21.41 0 0 1 2.59 24 21.41 21.41 0 0 1 24 2.59z"/><path d="M6.981 14.56c.085-.012.492-.032.492-.032h6.159s.765.078.885.128c.603.254.96.456 1.457.862.174.14.994.967.994.967l12.465 13.844s.388.398.475.468c.29.234.598.473.96.56.12.029.656.05.656.05h6.59l-2.13-2.18s-.316-.398-.347-.468c-.109-.225-.142-.625-.031-.847.084-.166.352-.451.538-.478.248-.033.511-.094.728.034.08.048.396.319.396.319l4.219 4.219s.326.263.386.386c.04.082.07.197.036.284-.041.102-.343.394-.343.394l-.226.236-3.785 3.949s-.348.338-.432.403c-.183.145-.48.214-.714.217-.249 0-.632-.268-.786-.46-.145-.184-.266-.536-.186-.756.038-.108.309-.446.309-.446l2.74-2.726-7.11-.005-.404.022s-1.004-.16-1.27-.249c-.392-.135-.83-.439-1.145-.707a9.274 9.274 0 0 1-.434-.463l-12.472-14.3s-.483-.497-.586-.586c-.33-.282-.483-.39-.907-.565-.106-.043-.833-.132-.833-.132l-5.82-.053s-.538-.037-.63-.053c-.26-.051-.521-.259-.678-.442-.19-.222-.142-.738.015-.986.137-.215.516-.367.77-.4z"/><path d="m19.786 25.48-4.133 4.74s-.482.498-.586.587c-.33.282-.482.39-.907.564-.106.044-.832.133-.832.133l-5.821.053s-.538.036-.63.053c-.26.05-.52.258-.677.442-.191.221-.143.738.014.986.137.215.516.367.77.4.084.013.492.032.492.032h6.158s.765-.077.886-.128c.603-.253.96-.456 1.457-.861.173-.14.994-.967.994-.967l4.192-4.656zm22.123-10.155c-.041-.102-.343-.394-.343-.394l-.226-.236-3.785-3.949s-.348-.338-.432-.403c-.183-.145-.48-.215-.714-.217-.249 0-.632.268-.786.46-.145.184-.266.536-.186.756.038.108.309.446.309.446l2.74 2.726-7.11.005-.404-.022s-1.004.16-1.27.249c-.392.135-.83.439-1.145.706a9.41 9.41 0 0 0-.434.464l-4.562 5.232 1.443 1.442 4.433-4.923s.389-.398.476-.468c.29-.234.598-.473.96-.56.12-.029.656-.05.656-.05h6.59l-2.13 2.18s-.316.398-.347.468c-.109.225-.142.625-.032.847.085.166.353.451.538.478.249.033.512.094.729-.034.08-.048.396-.319.396-.319l4.219-4.219s.325-.263.386-.386c.04-.082.07-.197.036-.284z"/></g></svg>