<svg xmlns="http://www.w3.org/2000/svg" viewBox="0 0 48 48"><defs><linearGradient id="chromium_svg__b" x1=".465" x2=".557" y1="-.674" y2=".811" gradientTransform="matrix(231.63 0 0 231.62 111.11 159.99)" gradientUnits="userSpaceOnUse"><stop offset="0" stop-color="#1972e7"/><stop offset="1" stop-color="#1969d5"/></linearGradient><linearGradient id="chromium_svg__a" x1="101.74" x2="101.6" y1="33.726" y2="135.47" gradientTransform="translate(.002 .004) scale(3.7794)" gradientUnits="userSpaceOnUse"><stop offset="0" stop-color="#afccfb"/><stop offset="1" stop-color="#8bb5f8"/></linearGradient><linearGradient id="chromium_svg__c" x1=".018" x2="1.77" y1="-.512" y2=".499" gradientTransform="matrix(94.932 164.43 -164.43 94.931 97.556 173.61)" gradientUnits="userSpaceOnUse"><stop offset="0" stop-color="#659cf6"/><stop offset="1" stop-color="#4285f4"/></linearGradient><linearGradient id="chromium_svg__d" x1="67.452" x2="67.733" y1="40.321" y2="95.25" gradientTransform="translate(.002 .004) scale(3.7794)" gradientUnits="userSpaceOnUse"><stop offset="0" stop-color="#3680f0"/><stop offset="1" stop-color="#2678ec"/></linearGradient></defs><path fill="url(#chromium_svg__a)" d="m255.99 255.99 110.85 63.997-110.85 191.99c141.38 0 255.99-114.61 255.99-255.99 0-46.642-12.536-90.332-34.331-128h-221.66z" transform="scale(.09375)"/><path fill="url(#chromium_svg__b)" d="M255.99 0C161.24 0 78.58 51.513 34.31 128.03l110.83 191.96 110.85-63.997v-128h221.66c-44.272-76.495-126.92-128-221.66-128z" transform="scale(.09375)"/><path fill="url(#chromium_svg__c)" d="M.002 255.994c0 141.38 114.607 255.99 255.991 255.99l110.85-191.993-110.85-63.997-110.85 63.997L34.315 128.027C12.53 165.682 0 209.357 0 255.991" transform="scale(.09375)"/><path fill="#fff" d="M36 24c0 6.628-5.373 12-12 12s-12-5.372-12-12c0-6.627 5.373-12 12-12s12 5.373 12 12"/><path fill="url(#chromium_svg__d)" d="M359.99 255.99c0 57.436-46.563 104-104 104s-104-46.562-104-104c0-57.435 46.562-104 104-104s104 46.563 104 104" transform="scale(.09375)"/></svg>