<svg xmlns="http://www.w3.org/2000/svg" xmlns:xlink="http://www.w3.org/1999/xlink" width="48" height="48"><defs><linearGradient xlink:href="#a" id="f" x1=".465" x2=".557" y1="-.674" y2=".811" gradientTransform="matrix(231.62575 0 0 231.62472 111.11 159.994)" gradientUnits="userSpaceOnUse"/><linearGradient id="a"><stop offset="0" style="stop-color:#1972e7"/><stop offset="1" style="stop-color:#1969d5"/></linearGradient><linearGradient xlink:href="#b" id="e" x1="101.744" x2="101.599" y1="33.726" y2="135.466" gradientTransform="matrix(3.77942 0 0 3.7794 .002 .004)" gradientUnits="userSpaceOnUse"/><linearGradient id="b" x2="1" gradientTransform="translate(29.399 42.333) scale(61.286)" gradientUnits="userSpaceOnUse"><stop offset="0" style="stop-color:#afccfb"/><stop offset="1" style="stop-color:#8bb5f8"/></linearGradient><linearGradient xlink:href="#c" id="g" x1=".018" x2="1.77" y1="-.512" y2=".499" gradientTransform="matrix(94.93156 164.42687 -164.4276 94.93114 97.556 173.61)" gradientUnits="userSpaceOnUse"/><linearGradient id="c" x2="1" gradientTransform="rotate(60 -26.876 45.313) scale(50.236)" gradientUnits="userSpaceOnUse"><stop offset="0" style="stop-color:#659cf6"/><stop offset="1" style="stop-color:#4285f4"/></linearGradient><linearGradient xlink:href="#d" id="h" x1="67.452" x2="67.733" y1="40.321" y2="95.25" gradientTransform="matrix(3.77942 0 0 3.7794 .002 .004)" gradientUnits="userSpaceOnUse"/><linearGradient id="d"><stop offset="0" style="stop-color:#3680f0"/><stop offset="1" style="stop-color:#2678ec"/></linearGradient></defs><path d="m255.993 255.994 110.85 63.997-110.85 191.994c141.38 0 255.992-114.61 255.992-255.99 0-46.642-12.536-90.332-34.331-127.998H255.99z" style="fill:url(#e)" transform="scale(.09375)"/><path d="M255.99 0C161.24 0 78.578 51.513 34.313 128.027L145.14 319.991l110.85-63.997V127.997h221.664C433.382 51.502 350.729 0 255.99 0Z" style="fill:url(#f)" transform="scale(.09375)"/><path d="M.002 255.994c0 141.38 114.607 255.99 255.991 255.99l110.85-191.993-110.85-63.997-110.85 63.997L34.315 128.027C12.53 165.682 0 209.357 0 255.991" style="fill:url(#g)" transform="scale(.09375)"/><path fill="#fff" d="M36 24c0 6.628-5.373 12-12 12s-12-5.372-12-12c0-6.627 5.373-12 12-12s12 5.373 12 12"/><path d="M359.992 255.994c0 57.436-46.563 103.998-103.999 103.998-57.436 0-103.998-46.562-103.998-103.998 0-57.435 46.562-103.998 103.998-103.998 57.436 0 103.999 46.563 103.999 103.998" style="fill:url(#h)" transform="scale(.09375)"/></svg>