<svg xmlns="http://www.w3.org/2000/svg" viewBox="0 0 48 48"><style>.st0{fill:#0086ff}.st1{fill:#93eaff}</style><path d="M6.828 31.973H0V47.99H15.96v-6.885H6.828zM41.156 32.044v9.062h-9.148v6.885H47.97V31.973h-6.9zM.014 16.025h6.9l-.071-.07V6.906h9.147v-6.9H.014zM32.023.007v6.885h9.147v9.133h6.828V.007H32.023z" class="st0"/><path d="m31.112 16.025-9.147-9.133h10.043V.007H15.976v6.885l9.147 9.133zM22.875 31.973h-6.003l7.568 7.568 1.494 1.565H15.96v6.885h16.047v-6.97l-4.566-4.496zM41.156 16.025v9.959l-9.148-9.148v6.075l9.062 9.062h6.9V16.025zM15.976 25.087l-9.077-9.062H.014V31.96h6.829V22l9.147 9.133v-6.046z" class="st1"/></svg>
