<svg xmlns="http://www.w3.org/2000/svg" viewBox="0 0 48 48"><g fill="#eeeeec"><path d="M121.09 1042.8c-16.653 0-30.198 13.545-30.198 30.198s13.545 30.198 30.198 30.198 30.198-13.546 30.198-30.198-13.545-30.198-30.198-30.198zm0 4.525c14.209 0 25.685 11.464 25.685 25.672 0 14.21-11.476 25.672-25.685 25.672s-25.673-11.464-25.673-25.672c0-14.209 11.464-25.672 25.673-25.672z" color="#000" style="text-decoration-line:none;text-indent:0;text-transform:none" transform="translate(-72.234 -828.77) scale(.79476)"/><path d="m28.287 16.298-8.153 8.108c-1.785 1.775-2.607 3.851-1.844 4.656.762.805 2.813.024 4.597-1.75l8.154-8.108c1.784-1.775 2.606-3.851 1.844-4.656-.763-.805-2.813-.024-4.598 1.75z"/><path d="m16.761 16.244-1.685 1.741 8.124 6.173 6.226 8.176 1.74-1.685-3.62-10.784zm4.465 9.906-6.303-.47-.958.97 3.906 2.892 2.855 3.9.963-.965z"/></g></svg>