<svg xmlns="http://www.w3.org/2000/svg" viewBox="0 0 48 48"><defs id="consul_svg__defs4"><style id="style2">.consul_svg__cls-1{fill:#e03875}</style></defs><g id="consul_svg__g274" style="stroke-width:2.58958" transform="translate(-10.95 -10.168) scale(.38616)"><path id="consul_svg__path20" d="M91.09 150.63a62.15 62.15 0 1 1 42.06-107.89l-14.7 15.43a40.83 40.83 0 1 0 0 60.62l14.7 15.43a62 62 0 0 1-42.06 16.41z" class="consul_svg__cls-1" style="stroke-width:2.58958"/><path id="consul_svg__path22" d="M141.11 119.54a5.09 5.09 0 1 1 5.1-5.09 5.1 5.1 0 0 1-5.1 5.09z" class="consul_svg__cls-1" style="stroke-width:2.58958"/><path id="consul_svg__path24" d="M90.7 101.93a13.46 13.46 0 1 1 13.46-13.45 13.47 13.47 0 0 1-13.46 13.45Z" class="consul_svg__cls-1" style="stroke-width:2.58958"/><path id="consul_svg__path26" d="M147 102.13a5.09 5.09 0 1 1 5.05-5.13 5.11 5.11 0 0 1-5.05 5.13Z" class="consul_svg__cls-1" style="stroke-width:2.58958"/><path id="consul_svg__path28" d="M131.81 101.55a5.1 5.1 0 1 1 5.09-5.09 5.1 5.1 0 0 1-5.09 5.09z" class="consul_svg__cls-1" style="stroke-width:2.58958"/><path id="consul_svg__path30" d="M147 85a5.09 5.09 0 1 1 5.09-5.09A5.11 5.11 0 0 1 147 85Z" class="consul_svg__cls-1" style="stroke-width:2.58958"/><path id="consul_svg__path32" d="M131.81 85.59a5.09 5.09 0 1 1 5.09-5.09 5.09 5.09 0 0 1-5.09 5.09z" class="consul_svg__cls-1" style="stroke-width:2.58958"/><path id="consul_svg__path34" d="M141.4 67.88a5.1 5.1 0 1 1 5.09-5.09 5.1 5.1 0 0 1-5.09 5.09z" class="consul_svg__cls-1" style="stroke-width:2.58958"/></g></svg>