<svg xmlns="http://www.w3.org/2000/svg" fill="none" viewBox="0 0 48 48"><path fill="#272e6f" d="M0 0h27.84v48H0z"/><path fill="#f99d1c" d="M24 0h24v48H27.96c0-9.014.23-7.603-.72-14.64-.465-3.444-2.604-3.342-3.24-8.88-.767-6.678 0-19.16 0-24.48"/><path fill="#fff" d="M46.286 7.202h-4.709v-.566h-.372V5.127h-.555v1.698h-.557v-.378H29.898V6.07h-1.114l-2.262.566-.185-1.131 1.336-.755V2.83l-.187-.378-.185-.377V1.51C26.78.754 24.926 0 23.925 0c-1.038 0-1.966.113-3.003 1.697-1.039 1.584-.372 3.43-.372 3.43v.943c-.482-.415-1.52-.565-1.52-.565-2.743 0-3.967 4.261-3.967 5.695 0 1.431.185 2.487.185 2.487h-1.52c-.482 0-.558 1.018-.558 2.074-.036 1.056-.332 2.716-.185 3.055.111.302 1.335.377 1.335.377s-.334.151-.742.755c-.446.639 0 2.298 0 2.298v2.678l-.259.151-.37.377v.566l.185.377-.185.566v.754l.37.566s-.149.978-.37 2.074c-.223 1.131-.187 3.994-.187 3.994-.518.04-.555.754-.555.754s-.112.153-.743 1.132c-.668.98-.852 1.961-.925 2.678-.112.716-.595 1.244-1.115 2.074-.555.83.372 1.886.372 1.886-.965 2.374-1.186 4.071-1.224 5.09h3.597a6.6 6.6 0 0 1-.297-1.886c0-1.056.928-2.865.928-2.865l.742-.189.185-.754c.148-.64.816-1.999 1.336-3.055.48-1.056 0-1.697 0-1.697l.37-.943.555-.565.743-.943.557-.755.185-.942s.408-1.243.555-2.073c.15-.867 1.336-2.074 1.336-2.074l.185-.943.927 1.508 1.113.19 2.448 3.997h1.334l.372.377v1.697l-.557.754.372 2.865.185 2.074.37.377.37 2.865-.555.377-.185 2.64h7.342v-.15l-.185-.567-.742-.377-.926-.377-1.893-2.074.185-2.676.372-.754v-1.32l-.372-.755.372-1.885.186-3.62-.372-.188v-1.131h-.37s-.743-2.15-1.113-3.244c-.408-1.092-1.78-3.053-2.448-3.619-.667-.565-.703-1.546-.74-1.885-.039-.377.37-.754.37-.754s.185.113.557.188c.37.076.37-.188.37-.188l.37-.755.37-.565.187-1.698v-2.485c-.111-.943-.927-1.32-.927-1.32l.185-.755.742.378.926.377 1.114.565 1.334.378.927-.189.926-.566.93-1.32.37-1.697.555-.188.187-.378-.187-.754V9.955l.742-.566.185-.377.558-.377h4.337v-.564h6.046v-.867h.074zm-15.462 4.375-.558-1.132 1.521.189-.965.943zm1.333-1.509h-1.112l.37-.754h.742z"/></svg>