<svg xmlns="http://www.w3.org/2000/svg" viewBox="0 0 48 48"><g data-name="Layer 2"><path d="M10.56 16.83h7.984l-1.235 4.733a2.988 2.988 0 0 1-1.06 1.59 2.864 2.864 0 0 1-1.802.6h-3.71a3.595 3.595 0 0 0-2.237.742 3.886 3.886 0 0 0-1.36 2.013 3.757 3.757 0 0 0-.053 1.802 3.898 3.898 0 0 0 .684 1.501 3.567 3.567 0 0 0 1.272 1.042 3.737 3.737 0 0 0 1.695.389H13a1.272 1.272 0 0 1 1.042.512 1.225 1.225 0 0 1 .236 1.148l-1.413 5.228H10.39a9.982 9.982 0 0 1-4.68-1.112 10.572 10.572 0 0 1-3.558-2.95 10.41 10.41 0 0 1-1.925-4.18 10.304 10.304 0 0 1 .125-4.828l.141-.53a10.443 10.443 0 0 1 3.726-5.563 10.587 10.587 0 0 1 2.943-1.572 10.244 10.244 0 0 1 3.397-.566zm4.027 21.3 6.96-26.07a2.988 2.988 0 0 1 1.06-1.59 2.859 2.859 0 0 1 1.8-.6h7.385a9.985 9.985 0 0 1 4.68 1.113 10.504 10.504 0 0 1 5.494 7.136 9.867 9.867 0 0 1-.142 4.828l-.141.53a10.583 10.583 0 0 1-1.413 3.126 10.32 10.32 0 0 1-8.62 4.61h-6.393l1.271-4.77a2.988 2.988 0 0 1 1.06-1.554 2.864 2.864 0 0 1 1.802-.6h2.049a3.716 3.716 0 0 0 3.603-2.79 3.474 3.474 0 0 0 .047-1.738 3.898 3.898 0 0 0-.689-1.5 3.75 3.75 0 0 0-1.272-1.06 3.604 3.604 0 0 0-1.69-.407h-3.956l-5.157 19.182a2.988 2.988 0 0 1-1.06 1.554 2.812 2.812 0 0 1-1.766.6zm27.941-24.455h-.436v-3.368h-1.19V9.92h2.816v.387h-1.19zm3.416 0L44.67 10.34h-.02q.036.396.036.942v2.392h-.403V9.92h.657l1.19 3.097h.02l1.2-3.097H48v3.755h-.43v-2.42c0-.278.012-.578.036-.904h-.02l-1.29 3.324z" data-name="Layer 1" style="fill:#ff6c2c"/></g></svg>