<svg xmlns="http://www.w3.org/2000/svg" viewBox="0 0 48 48"><g transform="scale(.11294)"><rect width="425" height="425" fill="#22283a" rx="105" ry="105"/><path fill="#2fb789" d="m162.5 182.5 38-15q0-40-40-40h-95q-40 0-40 40v90q0 40 40 40h95q40 0 40-40l-38-20v28h-100v-108h100z"/><path fill="#01b7e5" d="m262.5 182.5-38-15q0-40 40-40h95q40 0 40 40v90q0 40-40 40h-95q-40 0-40-40l38-20v28h100v-108h-100z"/><path fill="#8743e0" d="M142.5 191.5q-10 0-10 10v19q0 10 10 10h140q10 0 10-10v-19q0-10-10-10z"/></g></svg>