<svg xmlns="http://www.w3.org/2000/svg" xmlns:xlink="http://www.w3.org/1999/xlink" viewBox="0 0 48 48"><defs><path id="crowdsec_svg__a" d="M0 0h27.492v49.459H0z"/></defs><g fill="none" fill-rule="evenodd"><g transform="translate(11.51) scale(.90566)"><mask id="crowdsec_svg__b" fill="#fff"><use xlink:href="#crowdsec_svg__a"/></mask><path fill="#f7aa13" d="M7.774 49.459c6.811 0 12.392-10.456 13.773-23.293a2.985 2.985 0 0 0 2.886-2.467c.027-.153.046-.31.05-.47.028.004.057.008.087.01a1.884 1.884 0 0 0 1.975-1.788 1.89 1.89 0 0 0-.828-1.663 3 3 0 0 0 1.775-2.74 2.994 2.994 0 0 0-2.53-2.962c.25-.32.399-.722.399-1.16 0-1.03-.82-1.865-1.84-1.887a3.052 3.052 0 0 0 1.208-1.065c.7-1.103.813-6.079-1.676-9.276-1.026-1.318-2.03-.524-2.094.376-.195 2.752-.219 4.82-.93 7.176a1.882 1.882 0 0 0-1.853-1.585c-.6 0-1.132.283-1.476.722a2.99 2.99 0 0 0-2.95-2.56 2.989 2.989 0 0 0-2.952 2.568 1.872 1.872 0 0 0-1.483-.73A1.88 1.88 0 0 0 7.462 8.25c-.71-2.356-.735-4.424-.93-7.176C6.47.174 5.464-.62 4.438.698 1.95 3.895 2.062 8.87 2.762 9.974a3.06 3.06 0 0 0 1.208 1.065 1.884 1.884 0 0 0-1.84 1.887c0 .438.15.84.399 1.16a2.994 2.994 0 0 0-2.53 2.961 3 3 0 0 0 1.775 2.74 1.89 1.89 0 0 0-.828 1.663 1.883 1.883 0 0 0 1.976 1.789c.03-.002.058-.006.087-.01.003.155.021.305.047.452a2.986 2.986 0 0 0 2.936 2.487h.006c-.825 3.592-2.095 13.873-3.12 23.285.058-.533.183-1.07.242-1.607 1.477 1.043 3 1.613 4.654 1.613" mask="url(#crowdsec_svg__b)"/></g><path fill="#f29219" d="M24 47.17c3.443 0 6.784.054 9.974.156-.083-.788-.168-1.588-.255-2.396-.34-3.174-.682-6.555-1.03-9.726-.603-5.085-1.197-9.475-1.663-11.507-1.251 11.626-6.305 21.096-12.474 21.096-1.498 0-2.877-.516-4.215-1.461-.053.487-.166.972-.219 1.456-.093.858-.174 1.708-.252 2.543 3.238-.105 6.634-.162 10.134-.162"/><path fill="#f7aa13" d="M13.57 21.756a2.45 2.45 0 0 1-1.31-.75c-.35.076-.698.177-1.043.309a3.073 3.073 0 0 1-2.19.001 8.17 8.17 0 0 0-2.685-.493c-1.252-.023-2.485.09-3.712.472 0 .421-.008.802.006 1.181.004.093.078.187.128.275.123.213.287.41.367.639.183.518.306 1.057.487 1.576.202.577.626.955 1.226 1.034.697.09 1.406.157 2.108.136.444-.013.837-.112 1.17-.302.206-.839.456-1.663.854-2.46.548-1.094 1.424-1.14 2.016 0 .379.731.62 1.49.814 2.262.204.173.449.291.73.361.929.231 1.855.23 2.793.031a2.16 2.16 0 0 0 .429-.138c.095-.571.189-1.094.279-1.552a3.456 3.456 0 0 1-2.467-2.582"/><path fill="#fefefe" d="M10.333 27.677c.008.52-.007 1.039-.049 1.548-.052.625-.078 1.247-.174 1.83-.068.413-.177.43-.25 0-.1-.579-.124-1.205-.175-1.83a15.788 15.788 0 0 1-.049-1.548c-.675-.18-1.21-.868-1.367-1.752.48.287 1.073.457 1.716.457.642 0 1.235-.17 1.715-.457-.157.884-.692 1.573-1.367 1.752m2.435 2.826a13.86 13.86 0 0 0-.373-2.276c-.218-.868-.374-1.738-.589-2.59-.194-.773-.435-1.532-.814-2.262-.592-1.142-1.468-1.095-2.015 0-.399.796-.648 1.62-.854 2.459-.194.789-.348 1.59-.55 2.393a13.838 13.838 0 0 0-.372 2.276c-.094 1.185.676 2.206 1.645 2.206h2.277c.969 0 1.74-1.021 1.645-2.206"/><path fill="#1d1a8b" d="M8.269 25.925c.156.884.692 1.572 1.367 1.752-.008.52.007 1.039.049 1.548.051.625.075 1.25.174 1.83.074.43.183.413.25 0 .097-.583.124-1.205.175-1.83.042-.51.057-1.027.049-1.548.675-.18 1.21-.868 1.367-1.752a3.348 3.348 0 0 1-1.716.457c-.642 0-1.235-.17-1.715-.457"/><path fill="#f7aa13" d="M34.35 21.756a3.474 3.474 0 0 1-2.421 2.566c.078.405.16.87.248 1.394.194.149.427.248.698.284.698.09 1.407.157 2.108.136.445-.013.838-.112 1.171-.302.206-.838.456-1.663.854-2.46.547-1.094 1.424-1.14 2.016 0 .378.731.62 1.49.814 2.263.204.172.448.29.73.36.928.231 1.855.23 2.792.031.674-.143 1.12-.518 1.337-1.164.159-.475.299-.957.428-1.442.073-.274.105-.554.414-.69.06-.026.097-.163.1-.25.01-.392.004-.784.004-1.253-.758-.123-1.497-.288-2.245-.356-1.407-.128-2.8-.073-4.15.442a3.072 3.072 0 0 1-2.19.001 7.956 7.956 0 0 0-1.347-.363 2.45 2.45 0 0 1-1.361.803"/><path fill="#fefefe" d="M38.364 27.677c.008.52-.007 1.039-.049 1.548-.051.625-.078 1.247-.174 1.83-.068.413-.177.43-.25 0-.1-.579-.123-1.205-.175-1.83a15.728 15.728 0 0 1-.048-1.548c-.676-.18-1.211-.868-1.368-1.752.48.287 1.073.457 1.716.457.642 0 1.235-.17 1.715-.457-.156.884-.692 1.573-1.367 1.752m2.435 2.826a13.839 13.839 0 0 0-.373-2.276c-.218-.868-.374-1.738-.588-2.59-.195-.773-.436-1.532-.815-2.262-.591-1.142-1.468-1.095-2.015 0-.399.796-.648 1.62-.854 2.459-.193.789-.348 1.59-.55 2.393a13.858 13.858 0 0 0-.372 2.276c-.094 1.185.676 2.206 1.645 2.206h2.277c.969 0 1.74-1.021 1.645-2.206"/><path fill="#1d1a8b" d="M36.3 25.925c.156.884.692 1.572 1.367 1.752-.008.52.007 1.039.049 1.548.051.625.075 1.25.174 1.83.074.43.183.413.25 0 .097-.583.123-1.205.175-1.83.042-.51.057-1.027.049-1.548.675-.18 1.21-.868 1.367-1.752a3.35 3.35 0 0 1-1.716.457c-.642 0-1.236-.17-1.715-.457"/><path fill="#f29219" d="M43.682 29.03c.373 1.629.85 5.15 1.333 9.227-.423-3.85-.861-7.314-1.333-9.227"/><path fill="#1d1a8b" d="M14.791 14.053c1.53-.476 3.067-.618 4.628-.588 1.15.021 2.263.217 3.348.615.902.33 1.839.338 2.73-.002 1.684-.642 3.42-.71 5.175-.55.932.084 1.854.289 2.798.443 0 .585.008 1.073-.005 1.562-.003.108-.05.279-.125.312-.385.17-.424.518-.515.86a30.3 30.3 0 0 1-.534 1.798c-.27.806-.827 1.273-1.667 1.452-1.168.249-2.324.25-3.48-.039-.639-.158-1.132-.508-1.425-1.116-.358-.742-.703-1.492-1.092-2.217-.097-.182-.336-.38-.522-.394-.151-.01-.375.217-.47.392a13.52 13.52 0 0 0-.765 1.612c-.477 1.253-1.414 1.859-2.69 1.896-.875.026-1.76-.056-2.629-.17-.748-.097-1.276-.57-1.528-1.289-.226-.647-.38-1.319-.607-1.965-.1-.284-.305-.53-.457-.797-.063-.11-.156-.226-.16-.342-.018-.473-.008-.947-.008-1.473"/><path fill="#fefefe" d="M26.966 22.696c-.517-2.063-.756-4.134-1.75-6.05-.737-1.423-1.83-1.365-2.512 0-.964 1.928-1.232 3.987-1.75 6.05a17.28 17.28 0 0 0-.465 2.838c-.117 1.477.844 2.75 2.052 2.75h2.839c1.208 0 2.169-1.273 2.051-2.75a17.28 17.28 0 0 0-.465-2.838"/><path fill="#f7aa13" d="M26.1 19.827a4.176 4.176 0 0 1-2.14.569c-.8 0-1.54-.212-2.139-.57.195 1.102.863 1.96 1.705 2.184-.01.65.008 1.296.06 1.931.065.778.095 1.56.218 2.282.092.537.228.515.312 0 .12-.727.154-1.504.218-2.282.052-.635.07-1.281.06-1.93.842-.224 1.51-1.083 1.705-2.184"/><path fill="#2f2bae" d="M5.647 45.949c3.778 0 7.034-4.43 8.81-10.675.419-3.406.882-6.88 1.301-9.385a2.148 2.148 0 0 1-.43.139 6.1 6.1 0 0 1-2.79-.031 1.78 1.78 0 0 1-.732-.361c.215.853.371 1.722.59 2.59.188.753.311 1.513.372 2.277.094 1.184-.676 2.205-1.645 2.205H8.846c-.969 0-1.74-1.02-1.645-2.205.06-.764.184-1.524.373-2.277.201-.802.356-1.604.55-2.393-.335.19-.727.29-1.172.303-.701.02-1.41-.046-2.108-.137-.6-.078-1.023-.457-1.225-1.034-.182-.518-.305-1.057-.487-1.576-.08-.228-.245-.425-.367-.639-.05-.088-.125-.181-.128-.274-.015-.38-.006-.76-.006-1.182 1.226-.381 2.46-.495 3.711-.472a8.17 8.17 0 0 1 2.685.494 3.071 3.071 0 0 0 2.19-.002 7.238 7.238 0 0 1 1.043-.308 2.466 2.466 0 0 1-.645-1.54 2.462 2.462 0 0 1 .343-1.397 3.485 3.485 0 0 1-.827-4.21 2.145 2.145 0 0 0-1.144-.33 2.17 2.17 0 0 0-2.144 1.866 1.36 1.36 0 0 0-2.423.62c-.516-1.71-.533-3.213-.675-5.212-.046-.653-.776-1.23-1.52-.273-1.808 2.322-1.727 5.936-1.218 6.738.206.324.519.594.877.774a1.368 1.368 0 0 0-1.336 1.37c0 .318.109.61.289.842A2.175 2.175 0 0 0 0 22.405c0 .889.53 1.652 1.289 1.991a1.372 1.372 0 0 0 .834 2.507l.063-.007c.002.112.015.22.034.328a2.169 2.169 0 0 0 2.133 1.807h.004c-.6 2.608-1.522 10.076-2.266 16.913.042-.388.133-.777.176-1.168 1.073.758 2.178 1.172 3.38 1.172"/><path fill="#0f0c63" d="M13.368 44.705a708.2 708.2 0 0 1 1.089-9.43C12.68 41.52 9.425 45.95 5.647 45.95c-1.202 0-2.308-.414-3.38-1.172-.044.39-.134.78-.176 1.167-.076.695-.14 1.38-.204 2.056 3.414-.282 7.188-.501 11.218-.643.08-.868.164-1.756.262-2.652"/><path fill="#2f2bae" d="M45.777 27.238c.02-.111.034-.225.037-.34.02.001.041.005.063.006a1.372 1.372 0 0 0 .834-2.507 2.18 2.18 0 0 0-.548-4.142 1.368 1.368 0 0 0-1.047-2.213c.358-.179.67-.449.877-.773.508-.801.59-4.415-1.218-6.738-.744-.957-1.474-.38-1.52.273-.142 2-.16 3.502-.676 5.213a1.36 1.36 0 0 0-2.418-.627 2.17 2.17 0 0 0-2.144-1.86c-.447 0-.862.139-1.207.373a3.496 3.496 0 0 1-.848 4.167c.246.413.369.895.343 1.396a2.467 2.467 0 0 1-.595 1.487c.456.082.905.202 1.347.364a3.072 3.072 0 0 0 2.19-.001c1.35-.515 2.744-.57 4.15-.442.748.068 1.487.232 2.245.355 0 .47.006.861-.004 1.253-.003.087-.04.224-.1.25-.31.137-.34.416-.414.69-.129.485-.27.967-.428 1.443-.216.646-.663 1.02-1.337 1.164-.937.2-1.864.2-2.791-.03a1.78 1.78 0 0 1-.731-.362c.214.853.371 1.722.589 2.59.189.753.312 1.513.373 2.277.094 1.184-.677 2.205-1.645 2.205h-2.277c-.97 0-1.74-1.02-1.646-2.205.061-.764.184-1.524.373-2.277.202-.802.356-1.604.55-2.393-.334.19-.727.29-1.171.303-.702.02-1.411-.046-2.108-.137a1.442 1.442 0 0 1-.699-.283c.579 3.502 1.34 9.712 2.351 19.132l.108 1.004c4.506-.904 8.109-8.108 9.047-16.822a2.169 2.169 0 0 0 2.095-1.793z"/><path fill="#0f0c63" d="M45.842 46.058c-.273-2.545-.547-5.257-.827-7.801-.483-4.078-.96-7.598-1.333-9.228-.938 8.715-4.54 15.919-9.047 16.823l.16 1.5c4.042.142 7.828.36 11.254.642l-.207-1.936"/><path fill="#4e4a98" d="m33.974 47.326.06.002-.256-2.398c-.349-3.25-.72-6.618-1.09-9.726.35 3.171.69 6.552 1.03 9.726.087.808.173 1.608.256 2.396"/><path fill="#3e3977" d="M31.026 23.697c.466 2.03 1.06 6.421 1.663 11.506-.528-4.8-1.074-9.12-1.663-11.506M14.117 44.788l-.275 2.544h.023c.078-.836.159-1.686.252-2.544"/></g></svg>