<svg xmlns="http://www.w3.org/2000/svg" viewBox="0 0 48 48"><path fill="#00599c" d="M44.784 35.999c.335-.58.543-1.233.543-1.82V13.82c0-.587-.208-1.24-.543-1.82L24 24z"/><path fill="#004482" d="m25.846 47.558 17.633-10.18c.508-.293.97-.8 1.304-1.38L24 24 3.215 36c.334.58.796 1.086 1.304 1.38l17.633 10.18c1.015.586 2.678.586 3.694 0z"/><path fill="#659ad2" d="M44.784 12c-.335-.58-.797-1.087-1.304-1.38L25.847.44c-1.016-.587-2.678-.587-3.694 0L4.52 10.62c-1.016.587-1.847 2.026-1.847 3.2v20.36c0 .586.208 1.24.543 1.82L24 24z"/><path fill="#fff" d="M24 38.218C16.16 38.218 9.781 31.84 9.781 24S16.16 9.782 23.999 9.782a14.27 14.27 0 0 1 12.313 7.105l-6.153 3.56a7.139 7.139 0 0 0-6.16-3.556 7.117 7.117 0 0 0-7.108 7.11 7.117 7.117 0 0 0 7.108 7.108 7.14 7.14 0 0 0 6.16-3.556l6.153 3.56A14.269 14.269 0 0 1 24 38.218z"/><g fill="#fff"><path d="M37.861 24.037v-1.58h1.58v-1.58h-1.58v-1.58h-1.58v1.58h-1.58v1.58h1.58v1.58zm3.924 0v-1.58h1.58v-1.58h-1.58v-1.58h-1.58v1.58h-1.58v1.58h1.58v1.58z"/><path d="M37.861 28.703v-1.58h1.58v-1.58h-1.58v-1.58h-1.58v1.58h-1.58v1.58h1.58v1.58zm3.924 0v-1.58h1.58v-1.58h-1.58v-1.58h-1.58v1.58h-1.58v1.58h1.58v1.58z"/></g></svg>