<svg xmlns="http://www.w3.org/2000/svg" viewBox="0 0 48 48"><path fill="#264de4" d="m41.311 43.201-17.332 4.805-17.285-4.798L2.844.006h42.323z"/><path fill="#2965f1" d="M41.305 3.538h-17.3v40.795L38.01 40.45z"/><g fill="#ebebeb"><path d="M12.148 24.86h11.857v-5.298H11.673zM23.986 8.836H10.72l.482 5.3h12.804v-5.3zM18.081 31.735l-.378-4.226h-5.318l.742 8.319 10.853 3.014.025-.007v-5.513l-.023.007z"/></g><path fill="#fff" d="m36.174 20.984.13-1.422.956-10.726H23.986v5.3h7.467l-.482 5.426h-6.985v5.298h6.525l-.615 6.871-5.91 1.595v5.513l10.863-3.011.08-.895z"/></svg>