<svg xmlns="http://www.w3.org/2000/svg" viewBox="0 0 48 48"><path fill="#0c544c" d="M44.46 9.419a1.933 1.933 0 1 1 0-3.866 1.933 1.933 0 0 1 0 3.866M25.262 42.447a1.933 1.933 0 1 1 0-3.865 1.933 1.933 0 0 1 0 3.865m19.198-38.5a3.539 3.539 0 0 0-3.539 3.539c0 .417.105.805.238 1.176L24.557 37.117c-1.604.336-2.834 1.692-2.834 3.397a3.539 3.539 0 0 0 7.076 0c0-.393-.105-.752-.222-1.105l16.685-28.547C46.818 10.489 48 9.155 48 7.486a3.539 3.539 0 0 0-3.539-3.54"/><path fill="#073551" d="M29.98 9.419a1.933 1.933 0 1 1 0-3.866 1.933 1.933 0 0 1 0 3.866M10.782 42.447a1.934 1.934 0 1 1 .002-3.867 1.934 1.934 0 0 1-.002 3.867m19.2-38.5a3.538 3.538 0 0 0-3.54 3.539c0 .417.106.805.238 1.176L10.078 37.117c-1.606.336-2.836 1.692-2.836 3.397a3.539 3.539 0 0 0 7.078 0c0-.393-.105-.752-.222-1.105l16.685-28.547c1.556-.373 2.737-1.707 2.737-3.376a3.54 3.54 0 0 0-3.54-3.54M3.539 15.335a1.934 1.934 0 1 1-.002 3.868 1.934 1.934 0 0 1 .002-3.868m0 5.472a3.539 3.539 0 0 0 3.539-3.538c0-.392-.107-.752-.224-1.105-.469-1.405-1.753-2.434-3.315-2.434-.25 0-.469.093-.705.143C1.23 14.208 0 15.563 0 17.269a3.539 3.539 0 0 0 3.539 3.538m-1.933 8.827a1.933 1.933 0 1 1 3.866 0 1.933 1.933 0 0 1-3.866 0m5.472 0c0-.393-.107-.752-.224-1.105-.469-1.405-1.752-2.434-3.315-2.434-.25 0-.469.093-.705.142C1.23 26.573 0 27.929 0 29.634a3.54 3.54 0 0 0 7.078 0"/></svg>