<svg xmlns="http://www.w3.org/2000/svg" viewBox="0 0 48 48"><defs><filter id="cyberchef_svg__a" width="1.073" height="1.086" x="-.037" y="-.042" color-interpolation-filters="sRGB"><feFlood flood-opacity=".498" result="flood"/><feComposite in="flood" in2="SourceGraphic" operator="in" result="composite1"/><feGaussianBlur in="composite1" result="blur" stdDeviation="5"/><feOffset dy=".7" result="offset"/><feComposite in="SourceGraphic" in2="offset" result="composite2"/></filter></defs><g filter="url(#cyberchef_svg__a)" transform="translate(-13.967 -89.722)scale(.14621)"><g color="#000"><path fill="gray" d="M243.67 877.6v32.01h97.944V877.6z" style="isolation:auto;mix-blend-mode:normal"/><path fill="#b3b3b3" d="M243.67 877.6h-97.945v32.01h97.945z" style="isolation:auto;mix-blend-mode:normal"/><path fill="#ccc" d="M252.43 634.66c-2.93.024-5.857.226-8.764.606v246.91h102.82v-51.593c.341-2.2.646-4.394.83-6.139l.747-7.062 6.411-2.556 6.411-2.558 9.349 7.557c5.141 4.158 10.347 7.56 11.567 7.564 3.054.01 24.902-22.495 24.902-25.65 0-1.333-3.326-6.687-7.389-11.894l-7.386-9.468 2.329-5.442c1.28-2.993 2.662-5.815 3.068-6.27.405-.454 6.446-1.77 13.424-2.924l12.688-2.097.32-17.456c.191-10.425-.14-17.923-.822-18.615-.629-.638-6.644-1.996-13.365-3.017l-12.217-1.856-2.695-6.714-2.69-6.712 7.368-9.557c4.052-5.256 7.367-10.339 7.367-11.295 0-2.045-22.898-25.963-24.856-25.963-.735 0-5.86 3.457-11.39 7.684l-10.052 7.689-6.16-2.589-5.964-2.503-.197-.091-1.896-12.342c-1.043-6.79-2.458-13.03-3.145-13.869-.961-1.174-9.08-1.716-17.203-1.665-8.122.052-16.25.692-17.221 1.878-.695.849-1.895 5.904-2.85 11.686-13.78-15.039-33.095-23.61-53.344-23.673zm-8.764 269.37v16.911h102.82v-16.91z" style="isolation:auto;mix-blend-mode:normal"/><path fill="#e6e6e6" d="M243.67 635.26a73.11 74.108 0 0 0-50.247 29.884 73.11 74.108 0 0 0-24.788-4.488 73.11 74.108 0 0 0-73.11 74.109 73.11 74.108 0 0 0 44.893 68.352v79.05h103.25zm0 268.77H140.42v16.911h103.25z" style="isolation:auto;mix-blend-mode:normal"/></g><path fill="none" d="M141.93 901.47h204.28"/></g></svg>