<svg xmlns="http://www.w3.org/2000/svg" viewBox="0 0 48 48"><path d="m39.141 34.082-3.993-2.634-3.332 5.565-3.874-1.133-3.412 5.207.175 1.639 18.55-3.418-1.078-11.589zm-17.298-4.997 2.976-.409c.482.216.817.299 1.394.446.9.234 1.94.459 3.482-.318.358-.178 1.106-.861 1.408-1.25l12.193-2.213 1.244 15.054-20.89 3.765zm22.65-5.424-1.204.229L40.977 0 1.578 4.568l4.854 39.39 4.612-.67c-.369-.526-.942-1.162-1.921-1.976-1.359-1.129-.878-3.045-.077-4.256 1.06-2.044 6.521-4.643 6.212-7.912-.111-1.188-.3-2.735-1.403-3.795-.042.44.033.864.033.864s-.453-.578-.679-1.367c-.224-.302-.4-.398-.638-.802-.17.467-.148 1.009-.148 1.009s-.37-.876-.43-1.615c-.22.331-.276.96-.276.96s-.481-1.38-.371-2.124c-.22-.647-.871-1.93-.687-4.848 1.202.842 3.85.642 4.88-.878.343-.503.578-1.878-.17-4.586-.48-1.736-1.67-4.322-2.134-5.303l-.055.04c.244.79.748 2.447.942 3.25.585 2.437.742 3.285.467 4.408-.234.977-.794 1.616-2.215 2.33-1.421.716-3.307-1.027-3.426-1.123-1.38-1.1-2.449-2.894-2.568-3.766-.124-.954.55-1.527.89-2.307-.487.139-1.029.385-1.029.385s.647-.669 1.445-1.248c.33-.219.524-.358.872-.647-.504-.008-.913.006-.913.006s.84-.454 1.711-.785c-.637-.028-1.247-.004-1.247-.004s1.875-.839 3.356-1.454c1.019-.418 2.014-.294 2.572.514.734 1.059 1.505 1.634 3.138 1.99 1.003-.444 1.308-.673 2.568-1.016 1.11-1.22 1.98-1.378 1.98-1.378s-.431.397-.547 1.02c.629-.496 1.318-.91 1.318-.91s-.266.33-.515.853l.058.086c.733-.44 1.596-.787 1.596-.787s-.247.312-.536.715c.553-.004 1.676.024 2.111.073 2.571.057 3.105-2.746 4.092-3.097 1.235-.441 1.787-.708 3.893 1.36 1.806 1.775 3.218 4.953 2.517 5.664-.587.591-1.747-.23-3.031-1.831a6.932 6.932 0 0 1-1.433-3.125 3.066 3.066 0 0 0-.993-1.699s.459 1.02.459 1.92c0 .491.061 2.33.85 3.36-.079.151-.115.747-.201.86-.917-1.108-2.887-1.901-3.208-2.135 1.087.891 3.585 2.937 4.545 4.898.908 1.854.373 3.554.832 3.994.13.126 1.952 2.395 2.302 3.535.611 1.987.037 4.075-.763 5.37l-2.234.349c-.327-.091-.547-.136-.84-.306.161-.286.482-1 .486-1.146l-.126-.221c-.696.984-1.86 1.94-2.828 2.49-1.266.718-2.726.607-3.676.313-2.697-.832-5.247-2.654-5.862-3.133 0 0-.019.382.097.468.68.767 2.238 2.154 3.744 3.121l-3.21.353 1.517 11.815c-.672.097-.777.144-1.514.249-.649-2.294-1.89-3.79-3.247-4.663-1.197-.77-2.848-.942-4.428-.63l-.102.118c1.099-.114 2.396.045 3.728.889 1.308.827 2.362 2.962 2.75 4.248.497 1.644.84 3.401-.497 5.265-.951 1.324-3.728 2.056-5.971.473.599.963 1.409 1.752 2.5 1.9 1.618.22 3.155-.06 4.212-1.147.903-.928 1.382-2.87 1.256-4.914l1.429-.207.515 3.67 23.654-2.849zm-14.391-9.965c-.066.15-.17.25-.014.74l.01.028.024.063.065.147c.281.574.59 1.115 1.104 1.392.134-.023.272-.038.415-.045.483-.021.789.056.983.16a2.09 2.09 0 0 0 .01-.446c-.037-.727.145-1.963-1.253-2.614-.527-.245-1.267-.17-1.514.136a.605.605 0 0 1 .117.026c.372.13.12.259.053.413m3.917 6.784c-.184-.101-1.04-.061-1.642.01-1.147.135-2.386.533-2.657.745-.493.381-.269 1.046.095 1.32 1.022.763 1.918 1.275 2.864 1.15.58-.076 1.092-.995 1.455-1.83.248-.574.248-1.194-.116-1.395m-10.154-5.884c.324-.307-1.61-.71-3.112.313-1.107.755-1.142 2.374-.082 3.291.106.091.193.156.275.208.31-.145.662-.293 1.068-.424a9.54 9.54 0 0 1 1.724-.399c.224-.25.485-.692.42-1.49-.088-1.084-.91-.912-.292-1.499" style="fill-rule:evenodd;clip-rule:evenodd;fill:#632ca6"/></svg>