
<svg xmlns="http://www.w3.org/2000/svg" version="1.1" xmlns:xlink="http://www.w3.org/1999/xlink" preserveAspectRatio="none" x="0px" y="0px" width="500px" height="500px" viewBox="0 0 500 500">
<defs>
<g id="Layer0_0_FILL">
<path fill="#5591CA" stroke="none" d="
M 346.55 253.7
Q 354.35 228 349.35 196.5 344.35 164.9 306.7 142.4 269.05 119.85 228 127.5 186.9 135.1 165.3 165.7 143.75 196.25 144.8 217.05 145.8 237.85 149.25 252
L 248.2 434.35 346.55 253.7
M 249.15 179.65
Q 266.15 179.65 278.2 191.7 290.25 203.75 290.25 220.8 290.25 237.8 278.2 249.85 266.15 261.9 249.15 261.9 232.1 261.9 220.05 249.85 208 237.8 208 220.8 208 203.75 220.05 191.7 232.1 179.65 249.15 179.65 Z"/>
</g>

<path id="Layer0_0_1_STROKES" stroke="#4D7CA4" stroke-width="14" stroke-linejoin="round" stroke-linecap="round" fill="none" d="
M 346.55 253.7
L 248.2 434.35 149.25 252
Q 145.8 237.85 144.8 217.05 143.75 196.25 165.3 165.7 186.9 135.1 228 127.5 269.05 119.85 306.7 142.4 344.35 164.9 349.35 196.5 354.35 228 346.55 253.7 Z
M 290.25 220.8
Q 290.25 237.8 278.2 249.85 266.15 261.9 249.15 261.9 232.1 261.9 220.05 249.85 208 237.8 208 220.8 208 203.75 220.05 191.7 232.1 179.65 249.15 179.65 266.15 179.65 278.2 191.7 290.25 203.75 290.25 220.8 Z"/>

<path id="Layer0_0_2_STROKES" stroke="#2E71BE" stroke-width="14" stroke-linejoin="round" stroke-linecap="round" fill="none" d="
M 265.9 39.8
Q 264.25 43.3 255.7 48.15 247.1 52.95 242.65 52.95 238.2 52.95 232.7 46.3 227.2 39.55 224.7 30.1 222.25 20.6 228.9 13.9 235.6 7.2 245.1 7.2 254.6 7.2 258.3 14.4 261.95 21.6 264.3 28.65 266.65 35.6 265.9 39.8 346 94.7 447.4 128.25 448.7 128.55 451.4 129.7 454.05 130.85 458.55 138.9 463 146.95 463.65 153.4 464.2 159.85 457.5 166.55 455.55 168.5 453.35 169.9 460.45 227.25 453.35 294.05
M 448.75 305.05
Q 450.6 304.7 452.85 305.8 455.1 306.85 465.85 312.4 476.6 317.95 476.6 327.4 476.6 336.9 469.85 343.6 463.2 350.3 453.7 350.3 450 350.3 446.8 349.3 355.6 399.7 266.9 464.9 267.95 468.2 266.75 472.45 265.55 476.65 260.1 485.8 254.6 494.85 244.5 490.65 234.4 486.4 228.35 484 222.25 481.55 222.25 472.1 222.25 462.6 228.9 455.9 235.6 449.2 245.1 449.2 254.6 449.2 261.3 455.9 263.05 457.7 264.4 459.7 355.1 406.95 438.5 344.5 438 344.1 437.5 343.6 430.85 336.9 430.85 327.4 430.85 317.95 437.5 311.2 442.4 306.35 448.75 305.05 449.15 239.15 442.75 173.2 442.05 173.25 441.35 173.25 431.85 173.25 425.15 166.55 418.45 159.85 420.3 152.5 422.15 145.2 427.1 140.25 432.05 135.3 432.2 129.3
L 274.15 51.7
M 432.2 129.3
Q 436.4 127.5 441.35 127.5 444.5 127.5 447.4 128.25
M 453.35 169.9
Q 448.6 172.9 442.75 173.2
M 446.8 349.3
Q 442.25 347.9 438.5 344.5
M 264.4 459.7
Q 266 462.15 266.9 464.9"/>
</defs>

<g transform="matrix( 1, 0, 0, 1, 0,0) ">
<use xlink:href="#Layer0_0_FILL"/>

<use xlink:href="#Layer0_0_1_STROKES"/>

<use xlink:href="#Layer0_0_2_STROKES"/>
</g>
</svg>
