<?xml version="1.0" encoding="UTF-8" standalone="no" ?>
<!DOCTYPE svg PUBLIC "-//W3C//DTD SVG 1.1//EN" "http://www.w3.org/Graphics/SVG/1.1/DTD/svg11.dtd">
<svg xmlns="http://www.w3.org/2000/svg" xmlns:xlink="http://www.w3.org/1999/xlink" version="1.1" width="48" height="48" viewBox="0 0 48 48" xml:space="preserve">
<desc>Created with Fabric.js 3.6.6</desc>
<defs>
</defs>
<g transform="matrix(1 0 0 1 213 186)"  >
<g style=""   >
		<g transform="matrix(3.78 0 0 3.78 0 0)" id="path2775"  >
<circle style="stroke: none; stroke-width: 0.881856; stroke-dasharray: none; stroke-linecap: round; stroke-dashoffset: 0; stroke-linejoin: round; stroke-miterlimit: 4; fill: rgb(0,0,0); fill-rule: nonzero; opacity: 1;"  cx="0" cy="0" r="10.583333" />
</g>
		<g transform="matrix(3.78 0 0 3.78 -29 0)" id="path8175"  >
<path style="stroke: none; stroke-width: 0.0673896; stroke-dasharray: none; stroke-linecap: butt; stroke-dashoffset: 0; stroke-linejoin: miter; stroke-miterlimit: 4; fill: rgb(255,255,255); fill-rule: nonzero; opacity: 1;"  transform=" translate(-5.56, -13.23)" d="m 1.0583333 15.404013 c 0 2.777434 1.6195133 4.439737 4.0258347 4.439737 c 1.1998823 0 2.2096194 -0.353238 2.7734987 -1.281359 V 19.84375 H 10.054166 V 6.6145835 H 7.7724295 V 12.23871 C 7.2544471 11.310591 6.2971638 10.895015 5.0972812 10.895015 C 2.7499705 10.888139 1.0583333 12.585023 1.0583333 15.404013 Z m 6.78622 0 c 0 1.586116 -1.0228506 2.576572 -2.24896 2.576572 c -1.2720065 0 -2.2489601 -0.990456 -2.2489601 -2.576572 c 0 -1.613818 0.9835102 -2.625053 2.2489601 -2.625053 c 1.2261094 0 2.24896 1.025086 2.24896 2.625053 z" stroke-linecap="round" />
</g>
		<g transform="matrix(3.78 0 0 3.78 0 0)" id="rect10263"  >
<rect style="stroke: none; stroke-width: 0.881856; stroke-dasharray: none; stroke-linecap: round; stroke-dashoffset: 0; stroke-linejoin: round; stroke-miterlimit: 4; fill: none; fill-rule: nonzero; opacity: 1;"  x="-13.229166" y="-13.229166" rx="0" ry="0" width="26.458332" height="26.458332" />
</g>
		<g transform="matrix(3.78 0 0 3.78 17 0)" id="rect3013"  >
<linearGradient id="SVGID_linearGradient10573_5" gradientUnits="userSpaceOnUse" gradientTransform="matrix(1 0 0 1 -17.73 -13.23)"  x1="17.671497" y1="6.6145835" x2="17.671497" y2="19.84375">
<stop offset="0%" style="stop-color:rgb(0,122,255);stop-opacity: 1"/>
<stop offset="100%" style="stop-color:rgb(88,86,214);stop-opacity: 1"/>
</linearGradient>
<rect style="stroke: none; stroke-width: 0.881856; stroke-dasharray: none; stroke-linecap: round; stroke-dashoffset: 0; stroke-linejoin: round; stroke-miterlimit: 4; fill: url(#SVGID_linearGradient10573_5); fill-rule: nonzero; opacity: 1;"  x="-6.614583" y="-6.614583" rx="0.017408287" ry="0.017408287" width="13.229166" height="13.229166" />
</g>
		<g transform="matrix(3.78 0 0 3.78 25.33 4.17)" id="path3056"  >
<linearGradient id="SVGID_linearGradient3386-6_6" gradientUnits="userSpaceOnUse" gradientTransform="matrix(1 0 0 1 0 0)"  x1="19.931946" y1="8.8194542" x2="19.930443" y2="14.211194">
<stop offset="0%" style="stop-color:rgb(0,122,255);stop-opacity: 1"/>
<stop offset="100%" style="stop-color:rgb(255,255,255);stop-opacity: 1"/>
</linearGradient>
<path style="stroke: none; stroke-width: 0.264583; stroke-dasharray: none; stroke-linecap: butt; stroke-dashoffset: 0; stroke-linejoin: miter; stroke-miterlimit: 4; fill: url(#SVGID_linearGradient3386-6_6); fill-rule: nonzero; opacity: 1;"  transform=" translate(-19.93, -14.33)" d="m 15.522216 15.434023 h 2.204873 V 8.8194374 h 4.409713 l 0.000017 6.6146026 h 2.204856 l -4.409729 4.409712 z" stroke-linecap="round" />
</g>
</g>
</g>
<g transform="matrix(0.47 0 0 0.47 24.35 24.35)"  >
<g style=""   >
		<g transform="matrix(3.78 0 0 3.78 0 0)" id="path2775"  >
<circle style="stroke: none; stroke-width: 0.881856; stroke-dasharray: none; stroke-linecap: round; stroke-dashoffset: 0; stroke-linejoin: round; stroke-miterlimit: 4; fill: rgb(0,0,0); fill-rule: nonzero; opacity: 1;"  cx="0" cy="0" r="10.583333" />
</g>
		<g transform="matrix(3.78 0 0 3.78 -29 0)" id="path8175"  >
<path style="stroke: none; stroke-width: 0.0673896; stroke-dasharray: none; stroke-linecap: butt; stroke-dashoffset: 0; stroke-linejoin: miter; stroke-miterlimit: 4; fill: rgb(255,255,255); fill-rule: nonzero; opacity: 1;"  transform=" translate(-5.56, -13.23)" d="m 1.0583333 15.404013 c 0 2.777434 1.6195133 4.439737 4.0258347 4.439737 c 1.1998823 0 2.2096194 -0.353238 2.7734987 -1.281359 V 19.84375 H 10.054166 V 6.6145835 H 7.7724295 V 12.23871 C 7.2544471 11.310591 6.2971638 10.895015 5.0972812 10.895015 C 2.7499705 10.888139 1.0583333 12.585023 1.0583333 15.404013 Z m 6.78622 0 c 0 1.586116 -1.0228506 2.576572 -2.24896 2.576572 c -1.2720065 0 -2.2489601 -0.990456 -2.2489601 -2.576572 c 0 -1.613818 0.9835102 -2.625053 2.2489601 -2.625053 c 1.2261094 0 2.24896 1.025086 2.24896 2.625053 z" stroke-linecap="round" />
</g>
		<g transform="matrix(3.78 0 0 3.78 0 0)" id="rect10263"  >
<rect style="stroke: none; stroke-width: 0.881856; stroke-dasharray: none; stroke-linecap: round; stroke-dashoffset: 0; stroke-linejoin: round; stroke-miterlimit: 4; fill: none; fill-rule: nonzero; opacity: 1;"  x="-13.229166" y="-13.229166" rx="0" ry="0" width="26.458332" height="26.458332" />
</g>
		<g transform="matrix(3.78 0 0 3.78 17 0)" id="rect3013"  >
<linearGradient id="SVGID_linearGradient10573_8" gradientUnits="userSpaceOnUse" gradientTransform="matrix(1 0 0 1 -17.73 -13.23)"  x1="17.671497" y1="6.6145835" x2="17.671497" y2="19.84375">
<stop offset="0%" style="stop-color:rgb(0,122,255);stop-opacity: 1"/>
<stop offset="100%" style="stop-color:rgb(88,86,214);stop-opacity: 1"/>
</linearGradient>
<rect style="stroke: none; stroke-width: 0.881856; stroke-dasharray: none; stroke-linecap: round; stroke-dashoffset: 0; stroke-linejoin: round; stroke-miterlimit: 4; fill: url(#SVGID_linearGradient10573_8); fill-rule: nonzero; opacity: 1;"  x="-6.614583" y="-6.614583" rx="0.017408287" ry="0.017408287" width="13.229166" height="13.229166" />
</g>
		<g transform="matrix(3.78 0 0 3.78 25.33 4.17)" id="path3056"  >
<linearGradient id="SVGID_linearGradient3386-6_9" gradientUnits="userSpaceOnUse" gradientTransform="matrix(1 0 0 1 0 0)"  x1="19.931946" y1="8.8194542" x2="19.930443" y2="14.211194">
<stop offset="0%" style="stop-color:rgb(0,122,255);stop-opacity: 1"/>
<stop offset="100%" style="stop-color:rgb(255,255,255);stop-opacity: 1"/>
</linearGradient>
<path style="stroke: none; stroke-width: 0.264583; stroke-dasharray: none; stroke-linecap: butt; stroke-dashoffset: 0; stroke-linejoin: miter; stroke-miterlimit: 4; fill: url(#SVGID_linearGradient3386-6_9); fill-rule: nonzero; opacity: 1;"  transform=" translate(-19.93, -14.33)" d="m 15.522216 15.434023 h 2.204873 V 8.8194374 h 4.409713 l 0.000017 6.6146026 h 2.204856 l -4.409729 4.409712 z" stroke-linecap="round" />
</g>
</g>
</g>
</svg>