<svg xmlns="http://www.w3.org/2000/svg" viewBox="0 0 48 48"><path fill="#007db8" d="m22.319 18.039-5.961 4.586c-.612-2.293-2.6-3.975-5.046-3.975h-4.28v10.548h4.28c2.446 0 4.586-1.683 5.045-3.976l5.962 4.586 5.962-4.586v3.976h6.726v-2.14h-4.433V18.65h-2.446v3.974L22.47 27.21l-1.223-1.07L24.001 24l2.904-2.293-1.681-1.375-5.657 4.432-1.223-1.07 5.657-4.28-1.683-1.375zm-12.993 2.75h1.835c.382 0 .755.087 1.099.245.344.157.658.386.925.673.268.287.488.63.641 1.017.153.387.238.817.238 1.276 0 .42-.076.831-.217 1.21a3.32 3.32 0 0 1-.604 1.026 2.89 2.89 0 0 1-.92.71c-.35.169-.742.264-1.162.264H9.326v-6.421zm33.325 6.269v2.14h-6.726V18.65h2.446v8.407h4.28zM24 0C10.853 0 0 10.853 0 24s10.701 24 24 24 24-10.701 24-24S37.147 0 24 0zm0 2.446c1.49 0 2.945.15 4.349.437a21.42 21.42 0 0 1 7.71 3.24 21.597 21.597 0 0 1 7.804 9.478c.545 1.29.968 2.645 1.254 4.05.287 1.404.436 2.858.436 4.349s-.15 2.944-.436 4.349a21.42 21.42 0 0 1-3.24 7.71 21.597 21.597 0 0 1-9.479 7.804c-1.29.545-2.645.967-4.05 1.254-1.404.287-2.858.436-4.348.436s-2.945-.15-4.349-.436a21.272 21.272 0 0 1-4.05-1.252 21.548 21.548 0 0 1-9.479-7.803 21.423 21.423 0 0 1-3.24-7.711A21.723 21.723 0 0 1 2.447 24c0-1.49.15-2.944.437-4.348a21.423 21.423 0 0 1 3.24-7.711A21.573 21.573 0 0 1 15.6 4.138a21.423 21.423 0 0 1 4.05-1.254A21.723 21.723 0 0 1 24 2.448z"/></svg>