<svg xmlns="http://www.w3.org/2000/svg" viewBox="0 0 48 48"><g fill-rule="evenodd"><path fill="#4c90e8" stroke="#094491" stroke-width="3.256" d="m24.014 2.974 12.156 18.6c7.788 11.914-.402 24.798-12.166 24.798-11.763 0-19.967-12.888-12.172-24.796z"/><path fill="#094491" d="M28.341 24.604c-6.648-2.711-10.137 4.215-9.027 7.45 2.413 7.04 11.51 8.803 18.23-2.924 0 0 .072 1.415.144 2.089.9 8.55-6.29 13.993-13.578 13.886-7.288-.107-9.513-2.937-11.661-6.195-3.484-5.285-2.614-13.896 2.07-17.922 5.346-4.42 11.231-2.061 13.821 3.616z"/><path fill="#83b8f9" d="M24.165 22.044c-7.446.18-8.86 8.761-6.798 12.437 2.868 5.109 7.22 6.092 13.173 4.205-3.399 3.696-10.376 4.674-15.116-.605-3.26-3.633-3.545-8.702-1.282-12.935 2.263-4.235 6.775-5.412 10.023-3.103z"/></g></svg>