<svg xmlns="http://www.w3.org/2000/svg" viewBox="0 0 48 48"><g stroke-width=".009"><path d="M24 0a24 24 0 1 1 0 48 24 24 0 0 1 0-48z"/><path fill="#fff" d="M23.062 13.584c-6.975 0-12.412 4.397-12.412 9.863 0 5.156 4.997 8.446 12.741 8.287l.234-.01.853-.028-.215.563.028.056a6.263 6.263 0 0 1 .169.44l.018.057.029.094.037.131.028.084.038.094.028.103.037.15.047.16.028.103.047.169.047.178.038.178.046.187.038.132.094.412.065.281.028.15.047.225.047.235.056.243.066.347.056.282.113.59.065.31.057.318.075.432.084.45.075.468.084.478.085.488.084.506.085.525.065.403.103.685.047.281.113.722.084.59.075.45.084.62.047.309a21.54 21.54 0 0 0 13.06-6.825l.102-.113-.478-1.781-1.265-4.734-.788-2.944-.693-2.588-.432-1.575-.272-.994-.159-.6-.15-.525-.056-.225-.038-.121-.018-.066-.02-.056a12.083 12.083 0 0 0-4.077-5.944c-2.27-1.772-5.147-2.7-8.503-2.7zm-6.131 25.022a1.166 1.166 0 0 0-1.425.797l-.01.028-1.05 3.9a21.441 21.441 0 0 0 2.016.872l.16.065 1.134-4.228.01-.028a1.163 1.163 0 0 0-.835-1.406zm6.534-2.86a1.171 1.171 0 0 0-1.434.797l-.01.029-1.593 5.906v.028a1.172 1.172 0 0 0 2.259.61l.01-.029 1.593-5.906v-.028l.028-.131.01-.047-.038-.197-.056-.272-.038-.169a1.172 1.172 0 0 0-.73-.59zm-11.109-6.084-.075.178-.01.038-1.593 5.906-.01.028a1.172 1.172 0 0 0 2.26.619l.01-.028 1.443-5.363a10.535 10.535 0 0 1-2.025-1.378zM8.56 22.865a1.187 1.187 0 0 0-1.434.797l-.01.028-1.593 5.906v.029a1.172 1.172 0 0 0 2.26.618l.009-.028 1.593-5.906v-.028a1.18 1.18 0 0 0-.825-1.416zm35.728-1.34a1.181 1.181 0 0 0-1.425.797l-.01.028-1.593 5.906-.01.028a1.176 1.176 0 0 0 2.27.619v-.028l1.603-5.907v-.037a1.172 1.172 0 0 0-.835-1.406zM5.081 13.64a21.412 21.412 0 0 0-2.503 7.856 1.163 1.163 0 0 0 .581.357 1.18 1.18 0 0 0 1.425-.797l.01-.028 1.594-5.906.009-.029a1.177 1.177 0 0 0-.834-1.415 1.19 1.19 0 0 0-.282-.038zm35.175.038a1.192 1.192 0 0 0-1.434.797v.028l-1.594 5.906-.01.028a1.172 1.172 0 0 0 2.26.619l.01-.028 1.593-5.906.01-.029a1.185 1.185 0 0 0-.835-1.415z"/><path d="M24.562 17.531a1.5 1.5 0 1 1 0 3 1.5 1.5 0 0 1 0-3z"/><path fill="#fff" d="M12.019 8.063a1.181 1.181 0 0 0-1.425.796l-.01.029-1.593 5.906-.01.028a1.172 1.172 0 0 0 2.26.619l.01-.029 1.593-5.906.01-.037a1.172 1.172 0 0 0-.835-1.406zm20.484 1.115a1.187 1.187 0 0 0-1.434.797l-.01.028-1.069 3.975a13.116 13.116 0 0 1 1.979 1.2l.103.084 1.256-4.64v-.028a1.18 1.18 0 0 0-.825-1.416zM22.078 2.522a21.553 21.553 0 0 0-2.231.319l-.16.028-1.48 5.503-.01.028a1.172 1.172 0 0 0 2.26.61l.009-.029 1.593-5.906.01-.028a1.163 1.163 0 0 0 .01-.525zM36.74 6.6l-.31 1.163-.009.028a1.172 1.172 0 0 0 2.26.609l.009-.028.038-.122a21.675 21.675 0 0 0-1.847-1.547zm-9.272-3.881-.562 2.09-.01.029a1.172 1.172 0 0 0 2.26.609l.009-.028.59-2.203a21.431 21.431 0 0 0-2.118-.47z"/></g></svg>