<svg xmlns="http://www.w3.org/2000/svg" viewBox="0 0 48 48"><style id="style10" type="text/css">.diagramsdotnet_svg__st3{fill:#333}</style><g id="diagramsdotnet_svg__g243" style="stroke-width:3.36667" transform="scale(.29703)"><path id="diagramsdotnet_svg__path12" d="M161.6 154.7c0 3.9-3.2 6.9-6.9 6.9H6.9c-3.9 0-6.9-3.2-6.9-6.9V6.9C0 3 3.2 0 6.9 0h147.8c3.9 0 6.9 3.2 6.9 6.9z" style="opacity:1;stroke-width:3.36667;stop-opacity:1;fill:#f08705"/><g id="diagramsdotnet_svg__g16" style="opacity:1;stroke-width:3.36667;stop-opacity:1"><path id="diagramsdotnet_svg__path14" d="M161.6 154.7c0 3.9-3.2 6.9-6.9 6.9H55.3l-32.2-32.7 20-32.7 59.4-73.8 58.9 60.7z" style="stroke-width:3.36667;fill:#df6c0c"/></g><path id="diagramsdotnet_svg__path18" d="M132.7 90.3h-17l-18-30.6c4-.8 7-4.4 7-8.6V28c0-4.9-3.9-8.8-8.8-8.8h-30c-4.9 0-8.8 3.9-8.8 8.8v23.1c0 4.3 3 7.8 6.9 8.6L46 90.4H29c-4.9 0-8.8 3.9-8.8 8.8v23.1c0 4.9 3.9 8.8 8.8 8.8h30c4.9 0 8.8-3.9 8.8-8.8V99.2c0-4.9-3.9-8.8-8.8-8.8h-2.9L73.9 60h13.9l17.9 30.4h-3c-4.9 0-8.8 3.9-8.8 8.8v23.1c0 4.9 3.9 8.8 8.8 8.8h30c4.9 0 8.8-3.9 8.8-8.8V99.2c0-4.9-3.9-8.9-8.8-8.9z" style="opacity:1;stroke-width:3.36667;stop-opacity:1;fill:#fff"/></g></svg>