<svg xmlns="http://www.w3.org/2000/svg" xml:space="preserve" id="Layer_1" width="48" height="48" x="0" y="0" version="1.1" viewBox="65.2 173.5 48 48"><style id="style2" type="text/css">.st0{fill:#0080ff}</style><g id="XMLID_229_" style="stroke-width:3.67656" transform="matrix(.272 0 0 .272 46.99 125.84)"><g id="XMLID_690_" style="stroke-width:3.67656"><g id="XMLID_691_" style="stroke-width:3.67656"><g id="g10" style="stroke-width:3.67656"><g id="XMLID_44_" style="stroke-width:3.67656"><g id="XMLID_48_" style="stroke-width:3.67656"><path id="XMLID_49_" d="M155.2 351.7v-34.2c36.2 0 64.3-35.9 50.4-74-5.1-14.1-16.4-25.4-30.5-30.5-38.1-13.8-74 14.2-74 50.4H67c0-57.7 55.8-102.7 116.3-83.8 26.4 8.3 47.5 29.3 55.7 55.7 18.9 60.6-26 116.4-83.8 116.4z" class="st0" style="stroke-width:3.67656"/></g><path id="XMLID_47_" d="M121.3 317.6v-34h34v34z" class="st0" style="stroke-width:3.67656"/><path id="XMLID_46_" d="M95.1 317.6h26.2v26.2H95.1z" class="st0" style="stroke-width:3.67656"/><path id="XMLID_45_" d="M95.1 317.6H73.2v-21.9h21.9z" class="st0" style="stroke-width:3.67656"/></g></g></g></g></g></svg>