<svg xmlns="http://www.w3.org/2000/svg" viewBox="0 0 48 48"><path d="M24.204 0C11.19 0 .232 10.556.232 23.581v24.42l23.967-.024c13.014 0 23.57-10.963 23.57-23.984C47.768 10.973 37.202 0 24.203 0z"/><path fill="#fff9ae" d="M24.435 9.127a14.613 14.613 0 0 0-12.548 7.14 14.628 14.628 0 0 0-.296 14.44l-2.643 8.508 9.492-2.145a14.602 14.602 0 0 0 16.116-2.78 14.622 14.622 0 0 0 3.44-15.997 14.608 14.608 0 0 0-13.548-9.165z"/><path fill="#00aeef" d="M35.858 32.79a14.6 14.6 0 0 1-17.418 4.257L8.948 39.22l9.663-1.142a14.598 14.598 0 0 0 19.064-3.84c4.455-5.942 3.745-14.283-1.65-19.385a14.618 14.618 0 0 1-.168 17.938z"/><path fill="#00a94f" d="M35.04 30.013a14.6 14.6 0 0 1-16.876 6.053L8.949 39.22l9.492-2.15c6.76 3.055 14.737.554 18.544-5.816 3.808-6.37 2.239-14.584-3.65-19.098a14.617 14.617 0 0 1 1.706 17.856z"/><path fill="#f15d22" d="M12.466 31.031a14.62 14.62 0 0 1 5.227-17.652 14.603 14.603 0 0 1 18.342 1.469c-4.63-6.08-13.16-7.563-19.568-3.405-6.41 4.159-8.534 12.556-4.875 19.264l-2.644 8.508z"/><path fill="#d0232b" d="M11.591 30.707a14.62 14.62 0 0 1 3.368-18.08 14.602 14.602 0 0 1 18.376-.471c-5.246-5.527-13.857-6.092-19.779-1.3-5.923 4.794-7.17 13.336-2.866 19.624l-1.737 8.74z"/></svg>