<svg xmlns="http://www.w3.org/2000/svg" viewBox="0 0 48 48"><g transform="scale(.24)"><rect width="200" height="200" fill="#168cb0" rx="50" ry="50"/><g fill="#fff"><path d="M56 59.3c-12.5 2.9-23.3 11-28.6 21.4-2.9 5.7-2.9 6-3.2 25.5l-.4 19.8h58.7c48.9 0 59.1-.2 61.4-1.4 3.5-1.9 11.1-11.1 16.3-19.8 3-5 4.7-7 6.7-7.4 6.1-1.3 9.7-3.2 11.8-6.2 2.7-4.1 3.8-10.4 2.3-13.2-1-1.9-1.7-2.1-5.3-1.5-6.5 1.1-10.6 3.4-12.6 7.3l-1.8 3.4-2.1-3.6c-2.6-4.3-8.7-7.3-15.9-7.8l-4.8-.3.2 3.5c.4 7.9 2.4 11.3 8.8 15 4.9 2.9 5.5 3.6 3.6 3.8-4.3.7-12.3-3.3-22.4-11.1-21-16.1-23.3-17.7-29.1-20.8-3.2-1.8-8.6-4-12-5.1-7.8-2.4-24.1-3.2-31.6-1.5m-3.2 39.9c.7.7 1.2 2.4 1.2 3.8 0 3.3-1.7 5-5 5s-5-1.7-5-5c0-1.4.5-3.1 1.2-3.8 1.5-1.5 6.1-1.5 7.6 0M24 130.6c0 1.7 4.4 7.5 7.5 9.8 6.8 5.2 9.4 5.6 39.9 5.6 15.4 0 31-.5 34.6-1 6.5-1.1 23.6-8.7 29-13 2.5-2 2.4-2-54.2-2-31.3 0-56.8.3-56.8.6"/></g></g></svg>
