<svg xmlns="http://www.w3.org/2000/svg" viewBox="0 0 48 48"><path fill="#fff" d="M47.01 19.899c-1.082-.75-3.559-1.032-5.495-.657-.225-1.875-1.261-3.515-3.063-4.968l-1.036-.75-.72 1.078c-.9 1.406-1.351 3.375-1.216 5.25.045.656.27 1.828.946 2.859-.63.375-1.937.844-3.648.844H.217l-.09.375c-.316 1.875-.316 7.734 3.377 12.234 2.792 3.421 6.936 5.156 12.385 5.156 11.8 0 20.537-5.672 24.635-15.937 1.621.047 5.09 0 6.845-3.516.046-.093.136-.281.45-.984l.181-.375ZM26.246 6.68h-4.954v4.688h4.954zm0 5.625h-4.954v4.687h4.954zm-5.854 0h-4.954v4.687h4.954zm-5.855 0H9.584v4.687h4.954ZM8.683 17.93H3.73v4.687h4.954zm5.855 0H9.584v4.687h4.954Zm5.855 0h-4.954v4.687h4.954zm5.854 0h-4.954v4.687h4.954zm5.855 0h-4.954v4.687h4.954z" style="fill:#2497ed;fill-opacity:1;stroke-width:1.33505"/></svg>