<?xml version="1.0" encoding="utf-8"?>
<svg version="1.0" width="200.000000pt" height="200.000000pt" viewBox="0 0 200.000000 200.000000" preserveAspectRatio="xMidYMid meet" xmlns="http://www.w3.org/2000/svg">
  <defs/>
  <rect x="0" y="0" width="200" height="200" rx="50" ry="50" style="fill: #168cb0; stroke-width: 0;"/>
  <g transform="translate(0.000000,200.000000) scale(0.100000,-0.100000)" fill="#fff" stroke="none">
    <path d="M560 1407 c-125 -29 -233 -110 -286 -214 -29 -57 -29 -60 -32 -255&#10;l-4 -198 587 0 c489 0 591 2 614 14 35 19 111 111 163 198 30 50 47 70 67 74&#10;61 13 97 32 118 62 27 41 38 104 23 132 -10 19 -17 21 -53 15 -65 -11 -106&#10;-34 -126 -73 l-18 -34 -21 36 c-26 43 -87 73 -159 78 l-48 3 2 -35 c4 -79 24&#10;-113 88 -150 49 -29 55 -36 36 -38 -43 -7 -123 33 -224 111 -210 161 -233 177&#10;-291 208 -32 18 -86 40 -120 51 -78 24 -241 32 -316 15z m-32 -399 c7 -7 12&#10;-24 12 -38 0 -33 -17 -50 -50 -50 -33 0 -50 17 -50 50 0 14 5 31 12 38 15 15&#10;61 15 76 0z"/>
    <path d="M240 694 c0 -17 44 -75 75 -98 68 -52 94 -56 399 -56 154 0 310 5&#10;346 10 65 11 236 87 290 130 25 20 24 20 -542 20 -313 0 -568 -3 -568 -6z"/>
  </g>
</svg>