<svg xmlns="http://www.w3.org/2000/svg" xmlns:xlink="http://www.w3.org/1999/xlink" viewBox="0 0 48 48"><defs><linearGradient id="dokuwiki_svg__a"><stop offset="0" stop-color="#d69c00"/><stop offset="1" stop-color="#ffe658"/></linearGradient><linearGradient id="dokuwiki_svg__n" x1="192.04" x2="263.67" y1="262.26" y2="262.26" gradientTransform="matrix(.36812 0 0 .36906 -57.848 -58.12)" gradientUnits="userSpaceOnUse"><stop offset="0" stop-color="#00a423"/><stop offset="1" stop-color="#00b427"/></linearGradient><linearGradient id="dokuwiki_svg__p" x1="191.75" x2="255.66" y1="258.92" y2="258.92" gradientTransform="matrix(.36812 0 0 .36906 -57.848 -58.12)" gradientUnits="userSpaceOnUse"><stop offset="0" stop-color="#00b62b"/><stop offset="1" stop-color="#a1d784"/></linearGradient><linearGradient xlink:href="#dokuwiki_svg__a" id="dokuwiki_svg__m" x1="184.07" x2="201.41" y1="246.36" y2="246.36" gradientTransform="matrix(.36812 0 0 .36906 -57.848 -58.12)" gradientUnits="userSpaceOnUse"/><linearGradient id="dokuwiki_svg__d" x1="162.76" x2="240.85" y1="184.99" y2="289.5" gradientTransform="matrix(.36653 -.03428 .02983 .36784 -57.848 -58.12)" gradientUnits="userSpaceOnUse"><stop offset="0" stop-color="#ede1ae"/><stop offset="1" stop-color="#fefdfa"/></linearGradient><linearGradient id="dokuwiki_svg__b" x1="140.16" x2="136.14" y1="303.79" y2="195.87" gradientTransform="matrix(.36443 -.05212 .07402 .36152 -57.848 -58.12)" gradientUnits="userSpaceOnUse"><stop offset="0" stop-color="#fbf6f0"/><stop offset="1" stop-color="#e9dac7"/></linearGradient><linearGradient id="dokuwiki_svg__c" x1="286.16" x2="185.81" y1="262.29" y2="172.32" gradientTransform="matrix(.36812 0 0 .36906 -57.848 -58.12)" gradientUnits="userSpaceOnUse"><stop offset="0" stop-color="#fbfaf9"/><stop offset="1" stop-color="#e9dac7"/></linearGradient><linearGradient id="dokuwiki_svg__h" x1="213.97" x2="244.79" y1="220.07" y2="265.4" gradientTransform="matrix(.36812 0 0 .36906 -57.848 -58.12)" gradientUnits="userSpaceOnUse"><stop offset="0" stop-opacity=".173"/><stop offset="1" stop-color="#c7cec2" stop-opacity="0"/></linearGradient><linearGradient id="dokuwiki_svg__l" x1="184.31" x2="224.67" y1="241.53" y2="307.53" gradientTransform="matrix(.36812 0 0 .36906 -57.848 -58.12)" gradientUnits="userSpaceOnUse"><stop offset="0" stop-opacity=".173"/><stop offset="1" stop-color="#c7cec2" stop-opacity="0"/></linearGradient><linearGradient id="dokuwiki_svg__e" x1="202.42" x2="206.06" y1="222.05" y2="210.36" gradientTransform="matrix(.36812 0 0 .36906 -57.848 -58.12)" gradientUnits="userSpaceOnUse"><stop offset="0" stop-color="#e32525" stop-opacity=".816"/><stop offset="1" stop-color="#e32525" stop-opacity=".571"/></linearGradient><linearGradient id="dokuwiki_svg__f" x1="248.62" x2="251.64" y1="234.52" y2="213.12" gradientTransform="matrix(.36812 0 0 .36906 -57.848 -58.12)" gradientUnits="userSpaceOnUse"><stop offset="0" stop-color="#25901b" stop-opacity=".837"/><stop offset="1" stop-color="#25901b" stop-opacity=".378"/></linearGradient><linearGradient id="dokuwiki_svg__g" x1="275.72" x2="255.68" y1="251.56" y2="217.94" gradientTransform="matrix(.36812 0 0 .36906 -57.848 -58.12)" gradientUnits="userSpaceOnUse"><stop offset="0" stop-color="#3a9030" stop-opacity=".837"/><stop offset="1" stop-color="#3d9c32" stop-opacity=".796"/></linearGradient><linearGradient id="dokuwiki_svg__k" x1="219.66" x2="277.88" y1="192.73" y2="192.73" gradientTransform="matrix(.36812 0 0 .36906 -57.848 -58.12)" gradientUnits="userSpaceOnUse"><stop offset="0" stop-color="#ce411e"/><stop offset="1" stop-color="#ecad8d"/></linearGradient><linearGradient id="dokuwiki_svg__j" x1="219.21" x2="286.23" y1="189.02" y2="189.02" gradientTransform="matrix(.36812 0 0 .36906 -57.848 -58.12)" gradientUnits="userSpaceOnUse"><stop offset="0" stop-color="#8f2a15"/><stop offset="1" stop-color="#c8381b"/></linearGradient><radialGradient xlink:href="#dokuwiki_svg__a" id="dokuwiki_svg__o" cx="257.41" cy="274.64" r="7.144" gradientTransform="matrix(.36812 0 0 .60208 -57.848 -122.12)" gradientUnits="userSpaceOnUse"/><radialGradient xlink:href="#dokuwiki_svg__a" id="dokuwiki_svg__i" cx="224.41" cy="212.8" r="8.681" gradientTransform="matrix(.36812 0 0 .36322 -57.848 -56.877)" gradientUnits="userSpaceOnUse"/></defs><g fill-rule="evenodd" stroke="#000"><path fill="url(#dokuwiki_svg__b)" stroke-width=".72" d="m.502 6.63 25.782-3.982 7.197 39.55-26.108 3.873z" transform="translate(0 -.001)"/><path fill="url(#dokuwiki_svg__c)" stroke-width=".998" d="m8.12 9.081 29.39-7.203 9.797 37.543-30.37 7.967z" transform="translate(0 -.001)"/><path fill="url(#dokuwiki_svg__d)" stroke-width="1.002" d="M5.857 3.282 37.242.544l3.295 40.637-31.059 1.974z" transform="translate(0 -.001)"/></g><path fill="#6184a3" d="m11.07 14.596-.71-7.416 1.96-.188.084.872-.91.087.543 5.671.91-.087.083.872-1.96.189m2.692-.26-.71-7.415 1.96-.188.084.872-.91.087.543 5.672.91-.088.083.872-1.96.189m1.99-7.675 2.13-.205c.48-.046.85-.045 1.11.005a1.939 1.944.025 0 1 .92.45c.266.231.48.527.641.885.161.356.268.806.32 1.348.045.476.025.892-.06 1.248-.104.435-.277.795-.52 1.081-.183.217-.442.397-.775.54-.25.107-.589.181-1.02.222l-2.192.211-.553-5.785m1.259.867.366 3.831.87-.083c.325-.032.559-.073.7-.123.184-.065.332-.16.445-.286.115-.125.2-.32.254-.586.053-.268.059-.626.016-1.073-.043-.447-.115-.786-.216-1.018a1.33 1.33 0 0 0-.385-.529 1.112 1.112 0 0 0-.565-.22c-.166-.021-.487-.009-.962.037l-.524.05m5.944 4.28-1.931-5.654 1.192-.114 1.25 3.89.675-4.075 1.385-.134 1.4 3.944.498-4.126 1.173-.113-.848 5.92-1.236.12-1.563-4.215-.732 4.435-1.263.121m7.787-6.587.71 7.415-1.961.189-.083-.872.91-.088-.544-5.679-.91.088-.082-.865 1.96-.188m2.693-.259.71 7.416-1.961.188-.084-.872.91-.088-.544-5.678-.909.087-.083-.864 1.96-.189"/><g fill-rule="evenodd"><path fill="url(#dokuwiki_svg__e)" d="M6.483 16.283c-2.225.91-3.743 1.631-4.743 2.344-1 .713-1.175 1.697-1.195 2.312-.01.308.03.656.233.9.202.245.665.693 1.015.881.7.378 2.776.897 3.872 1.135 4.384.95 9.868.62 9.868.62.623.46 1.043 1.042 1.204 1.576 1.684-.697 4.347-2.43 4.843-3.166-2.007-1.55-3.975-2.337-6.08-3.066-.588-.266-1.06-.453-.264.943.363.913.316 1.864.211 2.738 0 0-6.084.15-10.395-.785-1.078-.234-2.013-.352-2.658-.7-.322-.175-.545-.303-.705-.495-.16-.192-.08-.476-.074-.686.014-.42.093-.617 1.054-1.301.96-.685 2.081-1.241 4.292-2.145-.033-.477-.107-.925-.478-1.105z" transform="translate(0 -.001)"/><path fill="url(#dokuwiki_svg__f)" d="M41.406 23.349c-.528-.052-.95.112-.942.554.347.317.496.9.546 1.16.05.26.014.45-.178.697-.384.495-1.15.58-2.393 1.004-2.486.85-6.22.932-10.273 1.42-8.11.974-14.368 1.387-14.368 1.387.73-1.715 2.33-1.628 2.337-3.03.1-.33-1.158-.485-1.877-.039-1.571 1.366-2.795 2.493-3.937 3.88l.695 1.138s9.62-1.066 17.743-2.043c4.062-.488 7.714-.738 10.237-1.6 1.261-.432 2.194-.55 2.813-1.3.232-.28.498-1.124.393-1.747-.081-.48-.424-1.143-.795-1.481z" transform="translate(0 -.001)"/><path fill="url(#dokuwiki_svg__g)" d="M35.788 23.199c-2.522 1.196-2.633 3.177-2.194 4.723.44 1.547 1.937 3.232 3.432 4.579 2.987 2.694 4.44 3.444 4.44 3.444-1.369-.038-2.909-.521-2.995.182-.349 1.098 4.23 1.282 6.42.997-.514-2.797-1.397-4.877-2.847-5.5-.62-.055.115 1.743.284 3.468 0 0-1.334-.64-4.272-3.288-1.47-1.324-2.715-2.71-3.12-4.133-.404-1.425.029-2.26 1.823-3.518.342-.368-.475-.908-.971-.954z" transform="translate(0 -.001)"/></g><path fill="url(#dokuwiki_svg__h)" d="m20.917 28.453.805-5.325 5.603 2.247 7.912 11.053-7.512 3.402z" transform="translate(0 -.001)"/><g fill-rule="evenodd"><path fill="url(#dokuwiki_svg__i)" stroke="#000" stroke-linejoin="round" stroke-width=".998" d="m27.761 22.9-5.863.118 1.136-5.593z" transform="translate(0 -.001)"/><path fill="#812310" d="m23.726 22.81-1.624.03.315-1.47z"/><path fill="url(#dokuwiki_svg__j)" stroke="#000" stroke-linejoin="round" stroke-width=".998" d="m41.339.662.036 3.29 2.966 3.22 2.857.294-19.44 15.441-2.453-1.22-1.871-2.073-.401-2.182z" transform="translate(0 -.001)"/><path fill="url(#dokuwiki_svg__k)" d="m41.157 4.003 3.07 3.258-18.81 14.276-1.811-2.009z" transform="translate(0 -.001)"/><path fill="#ffe965" stroke="#000" stroke-linejoin="round" stroke-width=".998" d="m47.19 7.472-3.005-.32-2.853-3.202.005-3.375 3.078.278 2.646 3.534.129 3.086z"/><path fill="#cb391c" d="m45.49 4.052.06 1.497-1.403-.265-1.058-1.177-.104-1.304 1.42-.061z"/></g><path fill="url(#dokuwiki_svg__l)" d="m9.844 36.665.368-6.018 6.364 3.115 9.592 14.028-10.78-.419z" transform="translate(0 -.001)"/><g stroke="#000" stroke-linejoin="round" stroke-width=".998"><path fill="url(#dokuwiki_svg__m)" d="m16.11 29.882-2.962 5.822-2.597-5.01z" transform="translate(0 -.001)"/><path fill="url(#dokuwiki_svg__n)" d="m16.164 29.921 22.867 9.197-2.903 1.186-1.602 3.436.431 3.677-21.835-11.709-.182-2.718 1.14-2.151z" transform="translate(0 -.001)"/><path fill="url(#dokuwiki_svg__o)" d="m36.125 40.247 2.917-1.125.314 3.78-1.436 3.059-2.962 1.395-.493-3.555z" transform="translate(0 -.001)"/></g><path fill="url(#dokuwiki_svg__p)" d="M14.213 30.979 35.98 40.13l-1.69 3.604-21.163-10.706z" transform="translate(0 -.001)"/><path fill="#00b527" d="m36.03 43.448.767-1.516 1.091-.395.256 1.245-.65 1.423-1.162.51z"/><path fill="#258209" d="m10.83 30.824 1.307-.175-.745 1.306z"/></svg>