<svg xmlns="http://www.w3.org/2000/svg" viewBox="0 0 48 48"><path fill="#512bd4" d="M0 0h48v48H0z"/><path fill="#fff" d="M8.555 30.667c-.34 0-.628-.113-.865-.34a1.116 1.116 0 0 1-.357-.826c0-.325.12-.603.357-.835.237-.232.526-.348.865-.348.345 0 .637.116.874.348.243.232.365.51.365.835 0 .319-.122.594-.365.826a1.22 1.22 0 0 1-.874.34zm13.568-.192h-2.206l-5.812-9.17a4.103 4.103 0 0 1-.365-.721h-.051c.045.267.068.838.068 1.714v8.177h-1.952V18h2.35l5.618 8.952c.237.371.39.626.458.765h.034c-.057-.33-.085-.89-.085-1.679V18h1.943zm9.503 0h-6.83V18h6.559v1.757h-4.54v3.532h4.183v1.749h-4.183v3.689h4.811zm9.707-10.718h-3.495v10.718h-2.02V19.757h-3.487V18h9.002z"/></svg>