<svg xmlns="http://www.w3.org/2000/svg" viewBox="0 0 48 48"><path fill="#54bbab" d="M17.571 16.779c-.397 0-.793.127-1.128.381L.241 29.544a.617.617 0 0 0 0 .98l.67.508a.874.874 0 0 0 1.053 0l8.033-6.124a1.246 1.246 0 0 1 1.5 0l5.318 4.066a1.246 1.246 0 0 0 1.5 0l7.028-5.368a.848.848 0 0 0 0-1.363l-6.644-5.082a1.862 1.862 0 0 0-1.128-.381zm18.594 0c-.397 0-.793.127-1.128.381L18.835 29.556a.617.617 0 0 0 0 .98l.67.508a.874.874 0 0 0 1.053 0l9.272-7.066a1.246 1.246 0 0 1 1.5 0l9.05 6.905a1.246 1.246 0 0 0 1.5 0l5.776-4.426a.86.86 0 0 0 0-1.376l-10.363-7.92a1.862 1.862 0 0 0-1.128-.382z"/></svg>