<svg xmlns="http://www.w3.org/2000/svg" viewBox="0 0 48 48"><g transform="scale(.375)"><rect width="128" height="128" fill="#222" rx="6"/><path fill="#ffdd57" d="M82.325 94.386H123v9.707H67.802V95.35l38.362-50.977H68.381v-9.835h52.691v8.421z"/><path fill="#ffdd57" d="m8 107.11 9.566-93.107 26.272 2.701c8.096.833 15.072 3.36 20.926 7.58 5.853 4.22 10.124 9.808 12.812 16.762 2.73 6.959 3.676 14.724 2.838 23.298l-.61 5.947c-.903 8.782-3.398 16.302-7.486 22.56-4.045 6.26-9.403 10.836-16.074 13.726-6.628 2.894-14.122 3.955-22.483 3.181zm20.8-81.742-7.496 72.963 12.912 1.328c9.46.972 17.114-1.213 22.959-6.558 5.888-5.34 9.391-13.445 10.508-24.316l.558-5.435c1.086-10.572-.563-19.035-4.95-25.388-4.338-6.391-11.063-10.098-20.173-11.122z"/></g></svg>
