<svg xmlns="http://www.w3.org/2000/svg" viewBox="0 0 48 48"><path fill="#00abe4" fill-rule="evenodd" d="m9.67 4.651-.207.206 8.411 8.411C16.685 15.125 16 17.406 16 20c0 7.212 5.294 12 12 12 2.506 0 4.814-.669 6.723-1.882l8.455 8.454C38.798 44.357 31.837 48 24 48 10.747 48 0 37.582 0 24 0 15.923 3.8 8.965 9.67 4.651Zm4-2.375A24.3 24.3 0 0 1 24 0c13.253 0 24 10.418 24 24 0 3.736-.813 7.232-2.268 10.338l-7.606-7.606C39.315 24.875 40 22.594 40 20c0-7.212-5.294-12-12-12-2.506 0-4.814.669-6.723 1.882zM28 27.2c-4.024 0-7.2-2.873-7.2-7.2s3.176-7.2 7.2-7.2 7.2 2.873 7.2 7.2-3.176 7.2-7.2 7.2z"/></svg>