<svg xmlns="http://www.w3.org/2000/svg" viewBox="0 0 48 48"><g data-name="Livello 2"><path fill="#009cde" d="M31.558 10.223C28.18 6.847 24.958 3.63 23.999 0c-.959 3.63-4.181 6.847-7.558 10.223-5.065 5.062-10.808 10.8-10.808 19.403a18.368 18.368 0 1 0 36.735 0c0-8.603-5.742-14.34-10.81-19.403M13.44 33.907c-1.126-.038-5.282-7.202 2.428-14.83l5.103 5.574a.436.436 0 0 1-.034.65c-1.218 1.25-6.408 6.453-7.053 8.253-.133.371-.327.357-.444.353M24 43.35a6.317 6.317 0 0 1-6.316-6.317 6.582 6.582 0 0 1 1.574-4.172C20.398 31.467 24 27.55 24 27.55s3.547 3.974 4.733 5.296a6.178 6.178 0 0 1 1.585 4.186A6.317 6.317 0 0 1 24 43.349m12.09-10.244c-.136.298-.445.795-.862.81-.743.027-.822-.354-1.371-1.166-1.206-1.785-11.728-12.782-13.696-14.909-1.732-1.87-.244-3.189.446-3.88.865-.867 3.392-3.392 3.392-3.392s7.534 7.148 10.672 12.032 2.057 9.11 1.42 10.505" data-name="Livello 1"/></g></svg>