<svg xmlns="http://www.w3.org/2000/svg" viewBox="0 0 48 48"><path fill="#00598e" d="M34.457 8.922c-2.454-1.53-4.76-2.127-7.078-3.65-1.43-.975-3.422-3.28-5.087-5.272-.32 3.194-1.295 4.489-2.404 5.413-2.356 1.85-3.836 2.405-5.87 3.515-1.714.875-11.006 6.425-11.006 18.355S13.05 48 24.192 48 45 39.91 45 27.653 35.937 9.847 34.457 8.922z"/><path fill="#fff" d="M30.696 37.635c.74 0 1.53.05 2.084.42s.876 1.202 1.06 1.664 0 .74-.37.925c-.32.185-.37.093-.69-.505s-.604-1.203-2.22-1.203-2.127.555-2.91 1.203-1.06.875-1.344.505-.185-.74.32-1.202 1.345-1.202 2.128-1.53 1.202-.277 1.942-.277zm-7.67 5.272c.925.74 2.312 1.344 5.272 1.344s5.037-.838 5.962-1.529c.419-.32.604-.05.647.136s.136.462-.185.789c-.234.234-2.355 1.714-4.858 1.942s-5.87.37-7.905-1.48c-.32-.32-.234-.789 0-.974s.42-.32.69-.32.235 0 .377.092z"/><path fill="#0073ba" d="M11.693 39.393c3.515-.05 4.162-.648 7.263-2.035 16.74-7.491 19.842-14.335 20.44-15.908s1.48-4.118.555-6.936a23.09 23.09 0 0 1-.401-1.332c-2.226-2.485-4.433-3.847-5.1-4.26-2.404-1.53-4.765-2.127-7.077-3.65-1.43-.925-3.422-3.28-5.087-5.272-.32 3.194-1.246 4.532-2.405 5.413-2.355 1.85-3.835 2.405-5.87 3.515C12.299 9.847 3 15.346 3 27.277c0 3.81 1.023 7.3 2.78 10.284l.457-.018c.968.875 2.497 1.899 5.456 1.85z"/><path fill="#004975" d="M34.445 8.922c-2.405-1.53-4.76-2.127-7.079-3.65-1.43-.925-3.421-3.28-5.086-5.272-.32 3.194-1.246 4.532-2.405 5.413-2.355 1.85-3.835 2.405-5.87 3.515C12.298 9.847 3 15.346 3 27.277c0 3.81 1.023 7.3 2.78 10.284 3.743 6.363 10.815 10.433 18.399 10.433 11.147 0 20.81-8.09 20.81-20.347 0-6.727-2.732-11.437-5.445-14.465-2.226-2.49-4.433-3.847-5.1-4.26zm5.623 5.407c3.033 3.798 4.575 8.274 4.575 13.318 0 2.923-.555 5.685-1.653 8.213a18.956 18.956 0 0 1-4.457 6.307c-3.792 3.54-8.885 5.488-14.348 5.488-2.7 0-5.352-.518-7.88-1.536a21.05 21.05 0 0 1-6.646-4.254c-4.076-3.847-6.314-9.027-6.314-14.588 0-4.951 1.61-9.353 4.778-13.084 2.423-2.848 5.038-4.427 6.043-4.97.493-.264.95-.505 1.393-.733 1.394-.715 2.713-1.393 4.526-2.811.968-.734 1.997-1.9 2.435-4.853 1.53 1.82 3.299 3.86 4.655 4.735 1.203.796 2.436 1.35 3.626 1.887 1.128.506 2.293 1.036 3.446 1.77l.044.024c3.385 2.103 5.185 4.353 5.777 5.087z"/><path fill="#93c5e4" d="M22.514.919c.647 1.899.555 2.867.555 3.28s-.234 1.529-.974 2.084c-.32.234-.42.42-.42.462 0 .185.42.32.42.74 0 .506-.234 1.53-2.682 3.977s-5.969 4.624-8.694 5.968-4.02 1.246-4.39.598.136-2.084 1.85-3.976S15.3 9.427 15.3 9.427l6.752-4.716.37-1.8"/><path fill="#fff" d="M22.514.87c-.42 3.051-1.344 3.976-2.59 4.944-2.084 1.572-4.118 2.54-4.574 2.775-1.203.604-5.55 3.009-7.819 6.474-.69 1.06 0 1.48.136 1.572s1.714.277 5.087-1.757 4.858-3.231 6.757-5.216c1.018-1.06 1.16-1.665 1.16-1.943 0-.32-.235-.462-.605-.554-.185-.05-.234-.136 0-.278s1.196-.604 1.43-.79 1.345-.924 1.388-2.126-.043-2.035-.37-3.102zM12.113 34.49c.049-3.606 3.422-6.979 7.676-7.028 5.413-.05 9.156 5.364 11.887 5.315 2.312-.05 6.752-4.575 8.928-4.575 2.312 0 2.96 2.405 2.96 3.835s-.463 4.02-1.572 5.642-1.8 2.22-3.096 2.127c-1.664-.136-4.994-5.315-7.121-5.414-2.682-.092-8.509 5.599-13.084 5.599-2.774 0-3.607-.42-4.531-1.018-1.406-.968-2.097-2.447-2.047-4.482z"/><path fill="none" d="M39.945 14.514c.924 2.824.049 5.364-.555 6.936s-3.7 8.417-20.44 15.908c-3.095 1.387-3.748 1.985-7.263 2.035-2.96.049-4.489-.975-5.457-1.85l-.456.018c3.743 6.363 10.815 10.433 18.399 10.433 11.147 0 20.809-8.09 20.809-20.347 0-6.727-2.732-11.437-5.444-14.465.098.352.234.79.407 1.332z"/></svg>