<svg xmlns="http://www.w3.org/2000/svg" viewBox="0 0 48 48"><path fill="#040502" d="M21.266 20.042c-1.451 0-4.778.704-5.98-.006-.885-.523-1.458-1.755-2.172-2.488a16.486 16.486 0 0 0-4.569-3.291c-.764-.373-1.834-1.014-2.71-.725-1.642.542-2.865 3.21-3.62 4.633-2.966 5.583-2.756 12.764-.538 18.56 1.604 4.188 4.456 5.591 8.537 6.95 6.043 2.013 13.46 2.413 19.602.598 3.772-1.115 6.501-1.804 8.485-5.464 1.906-3.515 2.84-7.9 2.269-11.886-.243-1.698-1.84-4.686-1.551-6.243.23-1.242 2.792-.83 3.726-1.184 2.734-1.038 6.882-6.03 4.59-9.19-1.182-1.628-5.004.317-6.594-.697-.928-.591-1.439-2.255-2.13-3.121-1.546-1.941-3.687-3.13-6.084-3.666-6.635-1.484-12.741 3.69-13.118 10.338-.144 2.538.892 4.63 1.857 6.882z"/><path fill="#fcfc01" d="M28.564 5.125c-5.325 1.005-7.837 7-6.073 11.788.465 1.262 3.794 4.164 2.462 5.297-.642.545-1.864.342-2.645.333-1.886-.022-3.736-.166-5.63.06-1.044.125-2.21.54-3.047-.316-1.714-1.752-2.685-3.788-4.877-5.151-.638-.397-1.68-1.174-2.44-.7-1.339.833-2.225 3.237-2.76 4.648-1.593 4.196-1.335 9.108-.072 13.346.438 1.47 1.032 3.437 2.188 4.506 1.442 1.334 3.942 2.08 5.795 2.613 5.238 1.508 10.913 1.855 16.265.746 2.018-.419 5.226-.956 6.814-2.339 3.392-2.954 4.062-9.103 3.553-13.241-.255-2.074-1.784-4.075-1.913-6.048-.107-1.618 2.067-3.616 2.327-5.422.846-5.87-3.806-11.279-9.947-10.12z"/><path fill="#040502" d="M31.902 8.936c-2.744 1.048-.941 5.087 1.664 4.014 2.704-1.114.94-5.01-1.664-4.014z"/><path fill="#fd0101" d="M40.868 11.492c.464 2.5-.27 4.458-.626 6.881 3.845-.335 5.829-3.197 5.839-6.881z"/></svg>