<svg width="160.352" height="32.012" viewBox="0 0 160.352 32.012" xmlns="http://www.w3.org/2000/svg"><g id="svgGroup" stroke-linecap="round" fill-rule="evenodd" font-size="9pt" stroke="#ffffff" stroke-width="0.35mm" fill="#ffffff" style="stroke:#ffffff;stroke-width:0.35mm;fill:#ffffff"><path d="M 33.789 31.445 L 28.965 14.961 L 26.992 14.453 Q 26.953 14.355 26.953 14.199 L 26.953 13.906 Q 26.953 13.633 27.031 13.33 Q 27.099 13.068 27.181 12.93 A 0.581 0.581 0 0 1 27.207 12.891 L 35.547 12.891 L 35.664 14.414 A 28.52 28.52 0 0 1 35.042 14.553 Q 34.615 14.643 34.121 14.736 A 39.87 39.87 0 0 1 33.336 14.877 Q 32.913 14.948 32.539 15 L 35.625 27.051 L 36.152 29.336 L 36.543 27.754 L 40.391 12.891 Q 41.214 12.663 41.974 12.663 A 5.008 5.008 0 0 1 42.148 12.666 A 12.677 12.677 0 0 1 43.396 12.774 A 14.805 14.805 0 0 1 43.906 12.852 L 47.695 27.051 L 48.281 29.336 L 48.75 27.695 L 52.383 15.039 L 49.023 14.453 Q 48.995 14.382 48.982 14.28 A 1.281 1.281 0 0 1 48.975 14.199 A 5.084 5.084 0 0 1 48.966 14.012 A 4.145 4.145 0 0 1 48.965 13.906 Q 48.965 13.633 49.043 13.33 A 3.859 3.859 0 0 1 49.082 13.189 Q 49.126 13.043 49.169 12.949 A 0.775 0.775 0 0 1 49.199 12.891 L 56.68 12.891 L 56.855 14.551 Q 56.484 14.727 55.957 14.854 Q 55.485 14.967 55.17 15.042 A 91.228 91.228 0 0 1 55.098 15.059 L 49.941 31.484 A 5.759 5.759 0 0 1 49.304 31.593 A 7.234 7.234 0 0 1 48.828 31.631 A 14.816 14.816 0 0 1 48.112 31.648 A 13.744 13.744 0 0 1 47.646 31.641 A 13.525 13.525 0 0 1 47.097 31.611 A 10.034 10.034 0 0 1 46.602 31.563 A 14.06 14.06 0 0 1 46.381 31.533 Q 46.142 31.5 45.975 31.466 A 3.447 3.447 0 0 1 45.879 31.445 L 42.188 18.32 L 41.777 16.035 L 41.445 18.281 L 37.852 31.406 A 3.459 3.459 0 0 1 37.609 31.463 Q 37.326 31.52 36.94 31.56 A 10.993 10.993 0 0 1 36.914 31.563 A 12.068 12.068 0 0 1 35.713 31.621 A 17.169 17.169 0 0 1 34.974 31.606 A 14.047 14.047 0 0 1 34.561 31.582 A 5.816 5.816 0 0 1 34.311 31.559 Q 34.068 31.531 33.909 31.486 A 1.047 1.047 0 0 1 33.789 31.445 Z M 122.422 20.313 L 122.422 5.508 L 119.18 4.902 Q 119.141 4.805 119.131 4.58 A 14.627 14.627 0 0 1 119.127 4.473 Q 119.121 4.321 119.121 4.219 A 2.405 2.405 0 0 1 119.165 3.768 A 2.797 2.797 0 0 1 119.199 3.613 A 3.961 3.961 0 0 1 119.238 3.468 Q 119.297 3.267 119.355 3.164 L 129.434 3.164 L 129.609 4.805 Q 129.258 4.941 128.789 5.049 Q 128.32 5.156 127.822 5.244 Q 127.324 5.332 126.865 5.4 A 27.868 27.868 0 0 1 126.484 5.455 Q 126.31 5.478 126.156 5.496 A 15.481 15.481 0 0 1 126.055 5.508 L 126.055 19.59 A 56.346 56.346 0 0 0 126.081 21.356 A 47.102 47.102 0 0 0 126.123 22.354 A 16.037 16.037 0 0 0 126.266 23.827 A 12.988 12.988 0 0 0 126.436 24.756 A 7.417 7.417 0 0 0 126.889 26.157 A 6.439 6.439 0 0 0 127.188 26.748 A 4.763 4.763 0 0 0 128.564 28.262 A 5.432 5.432 0 0 0 129.575 28.828 Q 130.103 29.058 130.732 29.219 A 9.62 9.62 0 0 0 131.88 29.434 Q 132.785 29.551 133.887 29.551 A 12.634 12.634 0 0 0 135.035 29.501 Q 135.641 29.446 136.162 29.329 A 6.574 6.574 0 0 0 136.65 29.199 A 6.755 6.755 0 0 0 137.64 28.812 A 5.027 5.027 0 0 0 138.564 28.232 A 4.698 4.698 0 0 0 139.785 26.787 Q 140.234 25.957 140.469 25.01 A 11.289 11.289 0 0 0 140.762 23.156 A 12.47 12.47 0 0 0 140.771 23.027 Q 140.84 21.992 140.84 20.957 L 140.84 5.508 L 137.5 4.902 Q 137.461 4.805 137.451 4.58 A 14.627 14.627 0 0 1 137.447 4.473 Q 137.441 4.321 137.441 4.219 A 2.405 2.405 0 0 1 137.485 3.768 A 2.797 2.797 0 0 1 137.52 3.613 A 3.961 3.961 0 0 1 137.559 3.468 Q 137.617 3.267 137.676 3.164 L 146.738 3.164 L 146.914 4.844 Q 146.662 4.944 146.338 5.038 A 8.859 8.859 0 0 1 146.23 5.068 A 10.257 10.257 0 0 1 145.43 5.254 A 20.72 20.72 0 0 1 144.653 5.387 A 18.931 18.931 0 0 1 144.629 5.391 A 34.7 34.7 0 0 1 144.269 5.443 Q 144.098 5.467 143.946 5.486 A 21.34 21.34 0 0 1 143.926 5.488 L 143.926 20.957 Q 143.926 23.359 143.438 25.381 A 8.518 8.518 0 0 1 142.401 27.897 A 7.803 7.803 0 0 1 141.689 28.867 A 7.478 7.478 0 0 1 139.771 30.442 A 10.027 10.027 0 0 1 138.271 31.152 Q 136.595 31.789 134.218 31.932 A 23.873 23.873 0 0 1 132.793 31.973 A 21.586 21.586 0 0 1 130.989 31.901 Q 130.118 31.828 129.36 31.68 A 11.693 11.693 0 0 1 128.867 31.572 A 10.981 10.981 0 0 1 127.467 31.139 Q 126.734 30.855 126.134 30.48 A 6.741 6.741 0 0 1 126.055 30.43 A 6.587 6.587 0 0 1 124.599 29.171 A 6.022 6.022 0 0 1 124.189 28.633 A 8.594 8.594 0 0 1 123.111 26.369 A 9.605 9.605 0 0 1 123.086 26.289 A 13.204 13.204 0 0 1 122.672 24.433 A 15.888 15.888 0 0 1 122.559 23.486 A 34.161 34.161 0 0 1 122.43 21.133 A 39.005 39.005 0 0 1 122.422 20.313 Z M 99.238 22.246 L 99.238 2.734 L 95.762 2.734 L 95.547 1.016 A 3.88 3.88 0 0 1 95.684 0.962 Q 95.895 0.883 96.252 0.77 A 28.232 28.232 0 0 1 96.338 0.742 Q 96.895 0.566 97.578 0.4 A 18.919 18.919 0 0 1 98.975 0.117 A 9.765 9.765 0 0 1 99.57 0.037 Q 99.867 0.007 100.133 0.001 A 5.703 5.703 0 0 1 100.254 0 A 4.834 4.834 0 0 1 100.725 0.021 Q 101.197 0.068 101.503 0.214 A 1.397 1.397 0 0 1 101.523 0.225 A 2.172 2.172 0 0 1 101.839 0.415 Q 102.057 0.575 102.188 0.772 Q 102.402 1.094 102.451 1.475 Q 102.493 1.802 102.499 2.064 A 3.743 3.743 0 0 1 102.5 2.148 L 102.5 14.59 A 71.519 71.519 0 0 0 102.936 14.315 Q 103.159 14.173 103.407 14.014 A 124.56 124.56 0 0 0 103.574 13.906 A 8.762 8.762 0 0 1 104.273 13.502 A 11.721 11.721 0 0 1 104.98 13.164 A 9.412 9.412 0 0 1 105.895 12.821 A 12.464 12.464 0 0 1 106.807 12.568 Q 107.767 12.34 108.993 12.325 A 14.141 14.141 0 0 1 109.16 12.324 A 10.572 10.572 0 0 1 110.609 12.418 Q 111.363 12.522 111.992 12.743 A 5.35 5.35 0 0 1 112.637 13.018 Q 114.004 13.711 114.775 15 Q 115.536 16.27 115.812 18.071 A 11.965 11.965 0 0 1 115.82 18.125 A 20.243 20.243 0 0 1 116.002 19.922 Q 116.067 21.02 116.035 22.246 Q 115.972 24.06 115.681 25.452 A 12.03 12.03 0 0 1 115.537 26.064 A 13.169 13.169 0 0 1 115.135 27.339 Q 114.84 28.122 114.473 28.74 A 7.385 7.385 0 0 1 113.832 29.66 A 5.455 5.455 0 0 1 113.018 30.469 A 7.337 7.337 0 0 1 112.045 31.127 A 6.02 6.02 0 0 1 111.367 31.455 A 7.067 7.067 0 0 1 110.239 31.811 A 6.08 6.08 0 0 1 109.717 31.904 A 13.203 13.203 0 0 1 108.943 31.985 A 9.662 9.662 0 0 1 108.242 32.012 A 7.85 7.85 0 0 1 107.065 31.927 A 6.213 6.213 0 0 1 106.182 31.729 A 10.036 10.036 0 0 1 104.98 31.279 A 8.6 8.6 0 0 1 104.482 31.035 Q 103.711 30.625 103.096 30.137 A 60.188 60.188 0 0 1 102.512 29.668 A 44.06 44.06 0 0 1 101.992 29.238 Q 101.855 29.98 101.582 30.684 A 22.165 22.165 0 0 1 101.161 31.694 A 19.387 19.387 0 0 1 101.016 32.012 A 4.623 4.623 0 0 1 99.873 31.865 A 4.166 4.166 0 0 1 99.473 31.743 Q 99.28 31.673 99.122 31.589 A 2.03 2.03 0 0 1 98.945 31.484 Q 99.063 30.488 99.121 29.346 Q 99.18 28.203 99.209 27.012 A 97.726 97.726 0 0 0 99.238 24.609 L 99.238 22.246 Z M 0.117 31.445 L 0 29.59 A 50.591 50.591 0 0 1 1.65 29.297 Q 2.5 29.16 3.32 29.063 L 3.32 5.449 A 75.887 75.887 0 0 1 2.123 5.297 A 68.165 68.165 0 0 1 1.738 5.244 Q 0.977 5.137 0.176 4.941 A 4.36 4.36 0 0 1 0.15 4.47 A 4.373 4.373 0 0 1 0.352 3.164 L 11.523 3.164 A 23.143 23.143 0 0 1 14.502 3.351 A 21.114 21.114 0 0 1 14.912 3.408 A 13.503 13.503 0 0 1 17.232 3.961 A 12.032 12.032 0 0 1 17.949 4.229 A 9.787 9.787 0 0 1 20.508 5.762 A 8.473 8.473 0 0 1 22.209 7.697 A 9.819 9.819 0 0 1 22.471 8.125 A 10.8 10.8 0 0 1 23.263 9.851 A 14.365 14.365 0 0 1 23.73 11.436 A 15.858 15.858 0 0 1 24.053 13.352 Q 24.18 14.512 24.18 15.84 L 24.18 17.441 A 27.544 27.544 0 0 1 24.044 20.255 Q 23.899 21.668 23.597 22.878 A 14.204 14.204 0 0 1 23.291 23.936 A 12.154 12.154 0 0 1 22.235 26.285 A 9.472 9.472 0 0 1 20.684 28.272 A 9.899 9.899 0 0 1 17.227 30.436 A 11.84 11.84 0 0 1 16.465 30.693 A 17.105 17.105 0 0 1 13.65 31.275 A 23.555 23.555 0 0 1 10.742 31.445 L 0.117 31.445 Z M 149.824 31.445 L 149.648 29.688 A 7.34 7.34 0 0 1 150.543 29.432 A 9.725 9.725 0 0 1 151.377 29.287 A 169.517 169.517 0 0 1 152.307 29.168 A 132.252 132.252 0 0 1 153.164 29.063 L 153.164 5.508 L 149.961 4.902 A 0.402 0.402 0 0 1 149.943 4.843 Q 149.921 4.744 149.913 4.559 A 3.802 3.802 0 0 1 149.912 4.541 A 20.559 20.559 0 0 1 149.908 4.416 Q 149.904 4.294 149.903 4.2 A 6.301 6.301 0 0 1 149.902 4.121 Q 149.902 3.848 149.98 3.574 A 3.477 3.477 0 0 1 150.027 3.424 Q 150.074 3.284 150.121 3.193 A 0.818 0.818 0 0 1 150.137 3.164 L 159.844 3.164 L 160.039 4.805 Q 159.429 5.025 158.643 5.186 A 14.493 14.493 0 0 1 158.398 5.234 A 31.301 31.301 0 0 1 157.495 5.391 A 24.351 24.351 0 0 1 156.66 5.508 L 156.66 29.063 L 160.293 29.727 A 0.503 0.503 0 0 1 160.315 29.796 Q 160.332 29.87 160.34 29.975 A 1.903 1.903 0 0 1 160.342 30.01 Q 160.349 30.152 160.351 30.265 A 4.328 4.328 0 0 1 160.352 30.332 Q 160.352 30.567 160.294 30.86 A 4.14 4.14 0 0 1 160.273 30.957 A 4.432 4.432 0 0 1 160.234 31.119 Q 160.176 31.343 160.117 31.445 L 149.824 31.445 Z M 74.824 21.094 L 62.715 21.191 A 69.175 69.175 0 0 0 62.727 22.52 A 52.492 52.492 0 0 0 62.764 23.73 A 13.922 13.922 0 0 0 62.852 24.827 A 10.401 10.401 0 0 0 63.018 25.811 A 6.701 6.701 0 0 0 63.278 26.705 A 5.123 5.123 0 0 0 63.613 27.432 Q 64.004 28.125 64.697 28.584 A 4.351 4.351 0 0 0 65.474 28.987 Q 65.85 29.139 66.289 29.247 A 7.373 7.373 0 0 0 66.416 29.277 Q 67.213 29.46 68.276 29.5 A 16.542 16.542 0 0 0 68.906 29.512 A 9.312 9.312 0 0 0 69.781 29.468 A 12.023 12.023 0 0 0 70.518 29.375 A 25.865 25.865 0 0 0 71.666 29.169 A 22.041 22.041 0 0 0 72.158 29.063 A 28.07 28.07 0 0 0 72.707 28.932 Q 72.976 28.865 73.214 28.799 A 14.669 14.669 0 0 0 73.486 28.721 A 45.937 45.937 0 0 0 73.711 28.653 Q 73.974 28.573 74.111 28.527 A 2.843 2.843 0 0 0 74.199 28.496 L 74.863 30.156 A 1.356 1.356 0 0 1 74.797 30.2 Q 74.62 30.311 74.16 30.557 A 7.405 7.405 0 0 1 73.698 30.782 Q 73.26 30.978 72.686 31.182 A 13.002 13.002 0 0 1 71.829 31.451 Q 71.239 31.615 70.547 31.758 A 12.158 12.158 0 0 1 69.003 31.97 A 15.339 15.339 0 0 1 67.852 32.012 A 18.03 18.03 0 0 1 65.788 31.898 A 14.712 14.712 0 0 1 64.482 31.689 A 6.153 6.153 0 0 1 62.506 30.922 A 5.723 5.723 0 0 1 61.797 30.41 A 5.353 5.353 0 0 1 60.731 29.167 Q 60.322 28.519 60.02 27.695 Q 59.375 25.938 59.355 23.047 A 26.315 26.315 0 0 1 59.355 22.867 Q 59.355 20.562 59.764 18.804 A 11.67 11.67 0 0 1 59.932 18.164 A 11.048 11.048 0 0 1 60.548 16.527 Q 61.006 15.565 61.621 14.834 A 6.477 6.477 0 0 1 64.287 12.93 A 8.995 8.995 0 0 1 66.458 12.402 A 11.386 11.386 0 0 1 67.813 12.324 Q 69.941 12.324 71.309 12.822 A 4.892 4.892 0 0 1 72.596 13.511 A 4.224 4.224 0 0 1 73.457 14.385 A 5.434 5.434 0 0 1 74.119 15.598 Q 74.347 16.173 74.491 16.854 A 9.524 9.524 0 0 1 74.541 17.109 A 16.038 16.038 0 0 1 74.73 18.53 Q 74.825 19.574 74.825 20.814 A 33.241 33.241 0 0 1 74.824 21.094 Z M 94.023 21.094 L 81.914 21.191 A 69.175 69.175 0 0 0 81.926 22.52 A 52.492 52.492 0 0 0 81.963 23.73 A 13.922 13.922 0 0 0 82.051 24.827 A 10.401 10.401 0 0 0 82.217 25.811 A 6.701 6.701 0 0 0 82.478 26.705 A 5.123 5.123 0 0 0 82.813 27.432 Q 83.203 28.125 83.896 28.584 A 4.351 4.351 0 0 0 84.673 28.987 Q 85.049 29.139 85.488 29.247 A 7.373 7.373 0 0 0 85.615 29.277 Q 86.412 29.46 87.475 29.5 A 16.542 16.542 0 0 0 88.105 29.512 A 9.312 9.312 0 0 0 88.981 29.468 A 12.023 12.023 0 0 0 89.717 29.375 A 25.865 25.865 0 0 0 90.866 29.169 A 22.041 22.041 0 0 0 91.357 29.063 A 28.07 28.07 0 0 0 91.906 28.932 Q 92.176 28.865 92.413 28.799 A 14.669 14.669 0 0 0 92.686 28.721 A 45.937 45.937 0 0 0 92.91 28.653 Q 93.173 28.573 93.31 28.527 A 2.843 2.843 0 0 0 93.398 28.496 L 94.063 30.156 A 1.356 1.356 0 0 1 93.996 30.2 Q 93.82 30.311 93.359 30.557 A 7.405 7.405 0 0 1 92.897 30.782 Q 92.459 30.978 91.885 31.182 A 13.002 13.002 0 0 1 91.028 31.451 Q 90.438 31.615 89.746 31.758 A 12.158 12.158 0 0 1 88.202 31.97 A 15.339 15.339 0 0 1 87.051 32.012 A 18.03 18.03 0 0 1 84.987 31.898 A 14.712 14.712 0 0 1 83.682 31.689 A 6.153 6.153 0 0 1 81.706 30.922 A 5.723 5.723 0 0 1 80.996 30.41 A 5.353 5.353 0 0 1 79.93 29.167 Q 79.521 28.519 79.219 27.695 Q 78.574 25.938 78.555 23.047 A 26.315 26.315 0 0 1 78.554 22.867 Q 78.554 20.562 78.963 18.804 A 11.67 11.67 0 0 1 79.131 18.164 A 11.048 11.048 0 0 1 79.747 16.527 Q 80.205 15.565 80.82 14.834 A 6.477 6.477 0 0 1 83.486 12.93 A 8.995 8.995 0 0 1 85.657 12.402 A 11.386 11.386 0 0 1 87.012 12.324 Q 89.141 12.324 90.508 12.822 A 4.892 4.892 0 0 1 91.795 13.511 A 4.224 4.224 0 0 1 92.656 14.385 A 5.434 5.434 0 0 1 93.318 15.598 Q 93.547 16.173 93.69 16.854 A 9.524 9.524 0 0 1 93.74 17.109 A 16.038 16.038 0 0 1 93.93 18.53 Q 94.025 19.574 94.025 20.814 A 33.241 33.241 0 0 1 94.023 21.094 Z M 6.816 29.063 L 11.035 29.199 L 12.012 29.199 Q 14.277 29.199 15.879 28.389 A 6.764 6.764 0 0 0 18.486 26.074 A 9.292 9.292 0 0 0 19.448 24.178 A 12.572 12.572 0 0 0 19.961 22.422 Q 20.43 20.273 20.43 17.598 L 20.43 16.113 A 24.664 24.664 0 0 0 20.347 14.027 Q 20.262 13.03 20.09 12.176 A 11.565 11.565 0 0 0 19.814 11.074 A 8.543 8.543 0 0 0 19.09 9.36 A 6.564 6.564 0 0 0 17.91 7.832 Q 16.621 6.602 14.6 6.055 A 16.745 16.745 0 0 0 12.689 5.664 Q 11.353 5.465 9.766 5.41 L 6.816 5.449 L 6.816 29.063 Z M 102.5 16.602 L 102.5 24.668 Q 102.5 25 102.461 25.645 A 104.965 104.965 0 0 0 102.422 26.323 Q 102.403 26.681 102.383 27.077 A 169.974 169.974 0 0 0 102.383 27.09 A 9.06 9.06 0 0 0 102.843 27.463 Q 103.09 27.65 103.375 27.845 A 15.054 15.054 0 0 0 103.457 27.9 A 10.653 10.653 0 0 0 104.795 28.662 Q 105.508 29.004 106.289 29.229 A 5.718 5.718 0 0 0 107.392 29.435 A 5.03 5.03 0 0 0 107.812 29.453 A 5.788 5.788 0 0 0 108.778 29.377 Q 109.342 29.281 109.813 29.067 A 3.648 3.648 0 0 0 109.844 29.053 A 3.419 3.419 0 0 0 111.112 28.026 A 4.174 4.174 0 0 0 111.279 27.793 Q 111.754 27.085 112.043 26.025 A 9.665 9.665 0 0 0 112.158 25.557 A 13.34 13.34 0 0 0 112.351 24.44 Q 112.433 23.815 112.479 23.099 A 26.756 26.756 0 0 0 112.52 22.207 Q 112.534 21.046 112.476 19.987 A 27.17 27.17 0 0 0 112.432 19.336 A 9.508 9.508 0 0 0 112.264 18.145 Q 112.132 17.512 111.914 16.973 A 3.903 3.903 0 0 0 111.349 15.99 A 3.371 3.371 0 0 0 110.703 15.371 A 2.824 2.824 0 0 0 109.782 14.936 Q 109.392 14.828 108.928 14.797 A 5.685 5.685 0 0 0 108.555 14.785 Q 107.656 14.785 106.787 14.941 A 13.584 13.584 0 0 0 105.538 15.225 A 11.929 11.929 0 0 0 105.146 15.342 A 10.503 10.503 0 0 0 103.957 15.797 A 9.424 9.424 0 0 0 103.701 15.918 A 12.117 12.117 0 0 0 103.064 16.255 A 9.388 9.388 0 0 0 102.5 16.602 Z M 62.832 19.297 L 71.465 18.984 A 12.492 12.492 0 0 0 71.407 18.017 Q 71.31 17.064 71.062 16.43 A 3.545 3.545 0 0 0 71.045 16.387 A 4.924 4.924 0 0 0 70.762 15.799 Q 70.59 15.498 70.392 15.269 A 2.403 2.403 0 0 0 70.107 14.99 A 2.722 2.722 0 0 0 69.453 14.585 A 2.356 2.356 0 0 0 68.906 14.424 A 7.891 7.891 0 0 0 68.052 14.327 A 6.709 6.709 0 0 0 67.676 14.316 Q 66.704 14.316 65.967 14.482 A 4.764 4.764 0 0 0 65.537 14.6 Q 64.668 14.883 64.102 15.488 A 3.527 3.527 0 0 0 63.525 16.328 A 4.697 4.697 0 0 0 63.242 17.041 A 8.679 8.679 0 0 0 63.019 17.939 Q 62.898 18.561 62.832 19.297 Z M 82.031 19.297 L 90.664 18.984 A 12.492 12.492 0 0 0 90.606 18.017 Q 90.509 17.064 90.261 16.43 A 3.545 3.545 0 0 0 90.244 16.387 A 4.924 4.924 0 0 0 89.962 15.799 Q 89.79 15.498 89.591 15.269 A 2.403 2.403 0 0 0 89.307 14.99 A 2.722 2.722 0 0 0 88.653 14.585 A 2.356 2.356 0 0 0 88.105 14.424 A 7.891 7.891 0 0 0 87.252 14.327 A 6.709 6.709 0 0 0 86.875 14.316 Q 85.903 14.316 85.166 14.482 A 4.764 4.764 0 0 0 84.736 14.6 Q 83.867 14.883 83.301 15.488 A 3.527 3.527 0 0 0 82.725 16.328 A 4.697 4.697 0 0 0 82.441 17.041 A 8.679 8.679 0 0 0 82.219 17.939 Q 82.097 18.561 82.031 19.297 Z" vector-effect="non-scaling-stroke"/></g></svg>