<?xml version="1.0" encoding="UTF-8" standalone="no"?>
<!-- Created with Inkscape (http://www.inkscape.org/) -->

<svg
   width="26.80512mm"
   height="27.371582mm"
   viewBox="0 0 26.80512 27.371582"
   version="1.1"
   id="svg198"
   xmlns:inkscape="http://www.inkscape.org/namespaces/inkscape"
   xmlns:sodipodi="http://sodipodi.sourceforge.net/DTD/sodipodi-0.dtd"
   xmlns="http://www.w3.org/2000/svg"
   xmlns:svg="http://www.w3.org/2000/svg">
  <sodipodi:namedview
     id="namedview200"
     pagecolor="#ffffff"
     bordercolor="#000000"
     borderopacity="0.25"
     inkscape:showpageshadow="2"
     inkscape:pageopacity="0.0"
     inkscape:pagecheckerboard="0"
     inkscape:deskcolor="#d1d1d1"
     inkscape:document-units="mm"
     showgrid="false" />
  <defs
     id="defs195" />
  <g
     inkscape:label="Laag 1"
     inkscape:groupmode="layer"
     id="layer1"
     transform="translate(-30.843787,-30.560557)">
    <path
       class="cls-1"
       d="M 56.846988,34.733473 C 54.936696,30.907598 50.118634,29.470911 46.324509,31.442056 l -11.231563,5.842 2.516188,4.833938 -2.537354,1.317625 c -3.757084,1.952625 -5.352521,6.686021 -3.373438,10.429875 1.367896,2.584979 4.024313,4.066645 6.765396,4.066645 1.185333,0 2.389187,-0.277812 3.513667,-0.859895 l 11.38502,-5.924021 -2.50825,-4.828646 2.680229,-1.394354 c 3.698875,-1.923521 5.167313,-6.474354 3.312584,-10.189104 z M 40.670363,54.550765 c -2.733146,1.420812 -6.220354,-0.05027 -6.932083,-3.304646 -0.08731,-0.388938 -0.116417,-0.791104 -0.09261,-1.187979 0.113771,-1.772709 1.09273,-3.257021 2.592917,-4.03225 l 2.680229,-1.394355 1.108604,2.132542 c 1.172105,2.251604 3.95023,3.130021 6.204479,1.960563 l 2.106084,-1.095375 1.203854,2.315104 -8.868833,4.609041 z m 3.987271,-12.488334 c 0.865187,0.164042 1.561041,0.859896 1.727729,1.722438 0.293687,1.547812 -1.037167,2.878666 -2.584979,2.587625 -0.865188,-0.164042 -1.561042,-0.862542 -1.727729,-1.727729 -0.293688,-1.547813 1.039812,-2.876021 2.584979,-2.584979 z m 7.453312,0.402167 -2.566458,1.336146 -1.108604,-2.129896 c -1.17475,-2.25425 -3.952875,-3.132667 -6.204479,-1.960562 l -2.10873,1.095375 -1.203854,-2.315105 8.868833,-4.609041 c 2.328334,-1.209146 5.199063,-0.322792 6.442605,1.973791 1.277937,2.36273 0.261937,5.371042 -2.121959,6.611938 z"
       id="path6"
       style="fill:#121642;stroke-width:0.264583" />
  </g>
</svg>
