<svg xmlns="http://www.w3.org/2000/svg" viewBox="0 0 48 48"><path fill="#f3771c" fill-rule="evenodd" d="m24 42.299.67-9.143.543-7.424a3.12 3.12 0 0 0-1.212-5.99 3.118 3.118 0 0 0-1.213 5.99l.544 7.424z"/><path fill="#3c5280" fill-rule="evenodd" d="M2.707 22.846A21.223 21.223 0 0 0 7.98 36.873L5.965 38.68A23.936 23.936 0 0 1 0 22.846C0 16.13 2.76 10.057 7.209 5.701l.101.09 5.962 5.345C7.67 16.273 6.51 24.627 10.408 31.062l2.058-1.845A13.18 13.18 0 0 1 15.3 12.953l2.041 1.83 1.816 1.628 1.883 1.688a5.615 5.615 0 0 0-1.75 1.737 5.557 5.557 0 0 0-.872 2.997 5.587 5.587 0 0 0 3.797 5.291l.19 2.595a8.048 8.048 0 0 1-6.448-7.886 8.007 8.007 0 0 1 1.484-4.655l-1.802-1.616-.007-.006a10.466 10.466 0 0 0 .41 13.09l-6.046 5.42c-5.952-6.816-6.122-16.933-.421-23.94L7.558 9.318A21.197 21.197 0 0 0 2.743 21.6l-.012.014.01.01c-.022.404-.034.812-.034 1.222zm23.081 5.278a5.587 5.587 0 0 0 2.925-8.288 5.614 5.614 0 0 0-1.75-1.737l1.884-1.688 1.816-1.628 2.04-1.83a13.18 13.18 0 0 1 2.835 16.264l2.058 1.845c3.898-6.435 2.738-14.789-2.866-19.926l5.963-5.345.101-.09a23.928 23.928 0 0 1 7.208 17.145c0 5.96-2.189 11.539-5.963 15.834l-2.016-1.807a21.222 21.222 0 0 0 5.238-15.25l.011-.009-.012-.014a21.197 21.197 0 0 0-4.814-12.282l-2.017 1.808c5.7 7.008 5.53 17.124-.421 23.94l-6.046-5.42a10.466 10.466 0 0 0 .41-13.09l-.007.006-1.802 1.616a8.007 8.007 0 0 1 1.484 4.655 8.048 8.048 0 0 1-6.449 7.886z"/></svg>