<svg xmlns="http://www.w3.org/2000/svg" xmlns:xlink="http://www.w3.org/1999/xlink" viewBox="0 0 48 48"><defs><path id="elastic-beats_svg__c" d="M0 0h21v13.554H0z"/><path id="elastic-beats_svg__a" d="M0 .624h25V17H0z"/><path id="elastic-beats_svg__b" d="M0 0h20.338v8H0z"/><mask id="elastic-beats_svg__e" fill="#fff"><use xlink:href="#elastic-beats_svg__a"/></mask><mask id="elastic-beats_svg__f" fill="#fff"><use xlink:href="#elastic-beats_svg__b"/></mask><mask id="elastic-beats_svg__d" fill="#fff"><use xlink:href="#elastic-beats_svg__c"/></mask></defs><g fill-rule="evenodd"><path fill="#07c" d="M20.338 13.554A9.96 9.96 0 0 0 21 10c0-5.523-4.477-10-10-10H0v12h15c1.965 0 3.792.575 5.338 1.554" mask="url(#elastic-beats_svg__d)" transform="translate(5.25) scale(1.5)"/><path fill="#00bfb3" d="M22.702.624C20.6 4.98 16.152 8 11 8H0v9h15c5.522 0 10-4.478 10-10A9.957 9.957 0 0 0 22.702.624" mask="url(#elastic-beats_svg__e)" transform="matrix(1.5 0 0 1.5 5.25 22.5)"/><path fill="#343741" d="M20.338 1.554A9.942 9.942 0 0 0 15 0H0v8h11c4.27 0 7.903-2.68 9.338-6.446" mask="url(#elastic-beats_svg__f)" transform="matrix(1.5 0 0 1.5 5.25 18)"/></g></svg>