<svg xmlns="http://www.w3.org/2000/svg" xmlns:xlink="http://www.w3.org/1999/xlink" width="48" height="48"><defs><path id="a" d="M0 0h21v13.554H0z"/><path id="c" d="M0 .624h25V17H0z"/><path id="e" d="M0 0h20.338v8H0z"/></defs><g fill="none" fill-rule="evenodd"><g transform="translate(5.25) scale(1.5)"><mask id="b" fill="#fff"><use xlink:href="#a"/></mask><path fill="#07c" d="M20.338 13.554A9.96 9.96 0 0 0 21 10c0-5.523-4.477-10-10-10H0v12h15c1.965 0 3.792.575 5.338 1.554" mask="url(#b)"/></g><g transform="matrix(1.5 0 0 1.5 5.25 22.5)"><mask id="d" fill="#fff"><use xlink:href="#c"/></mask><path fill="#00bfb3" d="M22.702.624C20.6 4.98 16.152 8 11 8H0v9h15c5.522 0 10-4.478 10-10A9.957 9.957 0 0 0 22.702.624" mask="url(#d)"/></g><g transform="matrix(1.5 0 0 1.5 5.25 18)"><mask id="f" fill="#fff"><use xlink:href="#e"/></mask><path fill="#343741" d="M20.338 1.554A9.942 9.942 0 0 0 15 0H0v8h11c4.27 0 7.903-2.68 9.338-6.446" mask="url(#f)"/></g></g></svg>