<svg xmlns="http://www.w3.org/2000/svg" xmlns:xlink="http://www.w3.org/1999/xlink" viewBox="0 0 48 48"><defs><path id="elastic-elasticsearch_svg__b" d="M.644 0h26.835v9H.644z"/><path id="elastic-elasticsearch_svg__a" d="M.644 0h26.835v9H.644z"/><mask id="elastic-elasticsearch_svg__d" fill="#fff"><use xlink:href="#elastic-elasticsearch_svg__a"/></mask><mask id="elastic-elasticsearch_svg__c" fill="#fff"><use xlink:href="#elastic-elasticsearch_svg__b"/></mask></defs><g fill-rule="evenodd"><path fill="#343741" d="M2.64 24c0 2.076.291 4.079.786 6h29.215a6 6 0 0 0 0-12H3.426a23.976 23.976 0 0 0-.786 6"/><path fill="#fec514" d="M25.924 7.662A15.279 15.279 0 0 0 27.48 6C24.547 2.346 20.05 0 15 0 8.679 0 3.239 3.678.644 9H22.51a5.035 5.035 0 0 0 3.413-1.34" mask="url(#elastic-elasticsearch_svg__c)" transform="translate(4.14) scale(1.5)"/><path fill="#00bfb3" d="M22.51 0H.645C3.24 5.322 8.679 9 15 9c5.05 0 9.547-2.346 12.48-6a15.197 15.197 0 0 0-1.556-1.662A5.03 5.03 0 0 0 22.51 0" mask="url(#elastic-elasticsearch_svg__d)" transform="matrix(1.5 0 0 1.5 4.14 34.5)"/></g></svg>