<?xml version="1.0" encoding="UTF-8" standalone="no"?>
<svg
   enable-background="new 0 0 652 652"
   height="48"
   viewBox="0 0 98.966646 98.966646"
   width="48"
   version="1.1"
   id="svg30"
   sodipodi:docname="elastic.svg"
   inkscape:version="1.2.1 (9c6d41e410, 2022-07-14, custom)"
   xmlns:inkscape="http://www.inkscape.org/namespaces/inkscape"
   xmlns:sodipodi="http://sodipodi.sourceforge.net/DTD/sodipodi-0.dtd"
   xmlns="http://www.w3.org/2000/svg"
   xmlns:svg="http://www.w3.org/2000/svg">
  <defs
     id="defs34" />
  <sodipodi:namedview
     id="namedview32"
     pagecolor="#ffffff"
     bordercolor="#666666"
     borderopacity="1.0"
     inkscape:showpageshadow="2"
     inkscape:pageopacity="0.0"
     inkscape:pagecheckerboard="0"
     inkscape:deskcolor="#d1d1d1"
     showgrid="false"
     inkscape:zoom="3.2476593"
     inkscape:cx="157.95992"
     inkscape:cy="158.26783"
     inkscape:window-width="2560"
     inkscape:window-height="1367"
     inkscape:window-x="0"
     inkscape:window-y="0"
     inkscape:window-maximized="1"
     inkscape:current-layer="svg30" />
  <g
     id="g324"
     transform="matrix(0.47902539,0,0,0.47902539,-9.8679228,-104.33173)">
    <path
       d="m 227.2,326.1 c 0,-17.3 -10.7,-32.5 -26.9,-38.3 0.7,-3.7 1,-7.3 1,-11.1 0,-32.2 -26.2,-58.4 -58.3,-58.4 -18.9,0 -36.3,9 -47.3,24.2 -5.4,-4.2 -12,-6.5 -18.9,-6.5 -17.1,0 -31,13.9 -31,31 0,3.8 0.7,7.4 1.9,10.8 -16.1,5.8 -27.1,21.2 -27.1,38.4 0,17.4 10.8,32.6 27,38.4 -0.7,3.6 -1,7.3 -1,11.1 0,32.1 26.1,58.2 58.2,58.2 18.9,0 36.3,-9.1 47.2,-24.3 5.4,4.3 12,6.6 18.9,6.6 17.1,0 31,-13.9 31,-31 0,-3.8 -0.7,-7.4 -1.9,-10.8 16.2,-5.7 27.2,-21.1 27.2,-38.3"
       fill="#ffffff"
       id="path2" />
    <path
       d="m 101.9,306.9 45.2,20.6 45.6,-40 c 0.7,-3.3 1,-6.5 1,-10 0,-28.1 -22.9,-51 -51,-51 -16.8,0 -32.5,8.3 -42,22.2 L 93.1,288 Z"
       fill="#fed10a"
       id="path4" />
    <path
       d="m 55.1,354.7 c -0.7,3.3 -1,6.7 -1,10.2 0,28.2 23,51.1 51.1,51.1 16.9,0 32.7,-8.4 42.2,-22.3 l 7.5,-39.2 -10,-19.2 -45.4,-20.7 z"
       fill="#24bbb1"
       id="path6" />
    <path
       d="m 54.9,276.5 31,7.3 6.8,-35.2 c -4.2,-3.2 -9.4,-5 -14.8,-5 -13.4,0 -24.4,10.9 -24.4,24.4 -0.1,3 0.4,5.9 1.4,8.5"
       fill="#ef5098"
       id="path8" />
    <path
       d="m 52.2,283.9 c -13.8,4.5 -23.5,17.8 -23.5,32.4 0,14.2 8.8,26.9 22,31.9 L 94.1,309 86.2,292 Z"
       fill="#17a8e0"
       id="path10" />
    <path
       d="m 155.4,393.6 c 4.3,3.2 9.4,5.1 14.7,5.1 13.4,0 24.4,-10.9 24.4,-24.4 0,-3 -0.5,-5.8 -1.5,-8.5 l -30.9,-7.2 z"
       fill="#93c83e"
       id="path12" />
    <path
       d="m 161.7,350.4 34,7.9 c 13.9,-4.5 23.5,-17.8 23.5,-32.5 0,-14.1 -8.8,-26.9 -22,-31.9 l -44.5,39 z"
       fill="#0779a1"
       id="path14" />
  </g>
</svg>
