<svg xmlns="http://www.w3.org/2000/svg" viewBox="0 0 48 48"><path fill="#fff" d="M48 25.161c0-4.02-2.486-7.55-6.25-8.898a13.653 13.653 0 0 0 .232-2.579c0-7.481-6.086-13.568-13.544-13.568-4.392 0-8.434 2.09-10.99 5.622a7.131 7.131 0 0 0-4.391-1.51 7.209 7.209 0 0 0-7.202 7.202c0 .883.163 1.72.44 2.51C2.557 15.287 0 18.865 0 22.86a9.433 9.433 0 0 0 6.273 8.922 13.453 13.453 0 0 0-.233 2.579c0 7.458 6.064 13.522 13.522 13.522 4.392 0 8.434-2.115 10.966-5.646a7.013 7.013 0 0 0 4.392 1.533 7.209 7.209 0 0 0 7.202-7.202 7.52 7.52 0 0 0-.441-2.51C45.444 32.737 48 29.159 48 25.162"/><path fill="#fed10a" d="m18.889 20.7 10.501 4.787 10.594-9.293c.163-.767.233-1.51.233-2.323 0-6.529-5.32-11.85-11.85-11.85A11.816 11.816 0 0 0 18.61 7.18l-1.765 9.131z"/><path fill="#24bbb1" d="M8.015 31.806a11.395 11.395 0 0 0-.232 2.37c0 6.552 5.344 11.872 11.873 11.872a11.89 11.89 0 0 0 9.804-5.181l1.742-9.108-2.323-4.46-10.548-4.81z"/><path fill="#ef5098" d="m7.969 13.638 7.202 1.696 1.58-8.178a5.682 5.682 0 0 0-3.438-1.162 5.676 5.676 0 0 0-5.67 5.669 5.044 5.044 0 0 0 .326 1.975"/><path fill="#17a8e0" d="M7.342 15.357c-3.206 1.045-5.46 4.135-5.46 7.527a7.928 7.928 0 0 0 5.111 7.411l10.084-9.107-1.836-3.949z"/><path fill="#93c83e" d="M31.319 40.844c.999.743 2.183 1.185 3.415 1.185a5.677 5.677 0 0 0 5.669-5.67c0-.696-.117-1.347-.349-1.974l-7.18-1.673z"/><path fill="#0779a1" d="m32.782 30.807 7.9 1.835c3.229-1.045 5.459-4.135 5.459-7.55a7.951 7.951 0 0 0-5.111-7.412l-10.34 9.061z"/></svg>