<svg xmlns="http://www.w3.org/2000/svg" width="48" height="48" viewBox="0 0 98.967 98.967"><path fill="#fff" d="M98.967 51.878c0-8.287-5.126-15.568-12.886-18.346a28.15 28.15 0 0 0 .479-5.317C86.56 12.79 74.01.24 58.633.24c-9.054 0-17.389 4.31-22.658 11.592a14.703 14.703 0 0 0-9.054-3.114c-8.191 0-14.85 6.659-14.85 14.85 0 1.82.336 3.545.91 5.174C5.27 31.52 0 38.897 0 47.136c0 8.335 5.173 15.616 12.934 18.395-.336 1.724-.48 3.497-.48 5.317 0 15.377 12.503 27.88 27.88 27.88 9.054 0 17.389-4.36 22.61-11.641a14.46 14.46 0 0 0 9.054 3.161c8.19 0 14.85-6.658 14.85-14.85 0-1.82-.336-3.544-.91-5.173 7.76-2.73 13.029-10.107 13.029-18.347"/><path fill="#fed10a" d="m38.945 42.681 21.652 9.868L82.44 33.39c.336-1.582.48-3.115.48-4.791 0-13.46-10.97-24.43-24.431-24.43a24.363 24.363 0 0 0-20.12 10.634l-3.64 18.826Z"/><path fill="#24bbb1" d="M16.526 65.579c-.335 1.58-.479 3.209-.479 4.886 0 13.508 11.018 24.478 24.479 24.478A24.515 24.515 0 0 0 60.74 84.26l3.593-18.778-4.79-9.198-21.748-9.915z"/><path fill="#ef5098" d="m16.43 28.119 14.85 3.497 3.258-16.862a11.715 11.715 0 0 0-7.09-2.395c-6.419 0-11.688 5.221-11.688 11.688a10.4 10.4 0 0 0 .67 4.072"/><path fill="#17a8e0" d="M15.137 31.664C8.527 33.819 3.88 40.19 3.88 47.184a16.347 16.347 0 0 0 10.539 15.28l20.79-18.777-3.785-8.143Z"/><path fill="#93c83e" d="M64.573 84.213c2.06 1.533 4.502 2.443 7.041 2.443 6.42 0 11.689-5.222 11.689-11.689 0-1.437-.24-2.778-.719-4.071l-14.802-3.45z"/><path fill="#0779a1" d="m67.59 63.519 16.287 3.784c6.659-2.156 11.257-8.527 11.257-15.568 0-6.755-4.215-12.886-10.538-15.281L63.279 55.136z"/></svg>