<svg xmlns="http://www.w3.org/2000/svg" viewBox="0 0 48 48"><circle cx="24" cy="24" r="24" fill="#2f3242"/><g fill="#a2ecfb"><path d="M19.273 14.814a.675.675 0 0 0 .242-1.329zm-8.542 1.527.585.337zm.121 6.51a.675.675 0 0 0 1.172-.67zm3.283 2.179a.675.675 0 0 0-1 .908zm6.02 5.608-.337.585zm16.19 2.93a.675.675 0 1 0-.761-1.114zm-16.83-20.082c-2.088-.381-4.034-.4-5.65-.01-1.62.392-2.959 1.208-3.72 2.528l1.17.674c.523-.907 1.49-1.556 2.867-1.889 1.38-.333 3.126-.333 5.091.025zm-9.37 2.518c-1.13 1.96-.666 4.449.707 6.847l1.172-.67c-1.278-2.232-1.484-4.159-.709-5.503zm2.99 9.934c1.73 1.902 4.008 3.738 6.683 5.285l.675-1.17c-2.565-1.483-4.732-3.233-6.358-5.024zm6.683 5.285c3.186 1.842 6.45 2.994 9.332 3.412 2.86.416 5.453.123 7.195-1.067l-.761-1.115c-1.337.913-3.525 1.24-6.24.846-2.69-.39-5.79-1.476-8.85-3.245zm19.691.618a2.36 2.36 0 0 0-2.358-2.361v1.35a1.01 1.01 0 0 1 1.008 1.01zm-2.358-2.361a2.36 2.36 0 0 0-2.358 2.36h1.35a1.01 1.01 0 0 1 1.008-1.01zm-2.358 2.36a2.36 2.36 0 0 0 2.358 2.361v-1.35a1.01 1.01 0 0 1-1.008-1.01zm2.358 2.361a2.36 2.36 0 0 0 2.358-2.36h-1.35a1.01 1.01 0 0 1-1.008 1.01z"/><path d="M34.308 24.518a.675.675 0 1 0 1.03.872zm2.936-8.155-.585.337zm-5.554-3.148a.675.675 0 1 0-.017 1.35zm-3.587 1.74a.675.675 0 0 0-.284-1.32zm-7.934 2.435.338.584zM9.58 30.339a.675.675 0 0 0 1.336-.195zm25.758-4.95c1.368-1.618 2.351-3.291 2.819-4.885.468-1.596.43-3.161-.33-4.478l-1.168.674c.522.906.6 2.065.202 3.424-.4 1.36-1.267 2.871-2.554 4.394zm2.49-9.363c-1.112-1.928-3.438-2.775-6.138-2.81l-.018 1.35c2.502.032 4.225.813 4.987 2.134zm-10.01-2.391c-2.53.543-5.286 1.608-7.988 3.17l.676 1.17c2.592-1.5 5.216-2.51 7.596-3.02zm-7.988 3.17c-3.28 1.897-5.968 4.23-7.775 6.592-1.79 2.34-2.788 4.808-2.475 6.942l1.336-.195c-.236-1.605.51-3.704 2.211-5.926 1.683-2.2 4.229-4.422 7.379-6.244z"/><path d="M18.406 32.711a.675.675 0 1 0-1.271.455zM29.46 36.16a.675.675 0 0 0-1.157-.695zm.378-4.217a.675.675 0 1 0 1.288.402zm1.805-7.917h-.675zm-5.71-15.577a.675.675 0 1 0-.55 1.234zm-8.8 24.717c.716 2 1.672 3.694 2.817 4.899 1.148 1.207 2.522 1.96 4.043 1.96v-1.35c-1.045 0-2.088-.513-3.064-1.54-.979-1.03-1.851-2.542-2.524-4.423zm6.86 6.859c2.207 0 4.09-1.571 5.467-3.865l-1.157-.695c-1.275 2.124-2.8 3.21-4.31 3.21zm7.134-7.68c.757-2.425 1.19-5.276 1.19-8.32h-1.35c0 2.92-.416 5.635-1.129 7.918zm1.19-8.32c0-3.732-.651-7.179-1.757-9.906-1.095-2.702-2.682-4.805-4.627-5.67l-.55 1.234c1.48.657 2.885 2.376 3.926 4.943 1.031 2.543 1.659 5.814 1.659 9.4z"/></g><path fill="none" stroke="#a2ecfb" stroke-linecap="round" stroke-width="1.35" d="M38.835 31.84a1.684 1.684 0 0 0-1.683-1.686c-.93 0-1.683.755-1.683 1.686s.754 1.686 1.683 1.686a1.684 1.684 0 0 0 1.683-1.686zm-28.03 1.686c.93 0 1.683-.755 1.683-1.686s-.754-1.686-1.683-1.686a1.685 1.685 0 0 0 0 3.372z" clip-rule="evenodd"/><ellipse cx="23.994" cy="8.701" fill="#2f3242" stroke="#a2ecfb" stroke-linecap="round" stroke-width="1.35" rx="1.683" ry="1.686"/><path fill="#a2ecfb" fill-rule="evenodd" d="M24.319 25.532a1.542 1.542 0 0 1-.65-3.014A1.54 1.54 0 0 1 25.5 23.7a1.542 1.542 0 0 1-1.18 1.833z" clip-rule="evenodd"/></svg>