<svg xmlns="http://www.w3.org/2000/svg" viewBox="0 0 48 48"><path d="M24 0A24 24 0 0 0 0 24a24 24 0 0 0 24 24 24 24 0 0 0 24-24A24 24 0 0 0 24 0zm0 4.8c10.604 0 19.2 8.596 19.2 19.2S34.604 43.2 24 43.2 4.8 34.604 4.8 24 13.396 4.8 24 4.8zm0 1.6C14.28 6.4 6.4 14.28 6.4 24c0 3.393.96 6.56 2.624 9.248a28.79 28.79 0 0 0 5.692-1.364 11.501 11.501 0 0 1-.926-1.156c-1.266-1.814-2.005-3.98-2.182-6.186-.353-4.41 1.573-8.842 4.69-11.982 1.768-1.782 3.973-3.217 6.442-3.668 1.235-.226 2.522-.2 3.732.134 1.21.334 2.338.982 3.198 1.896.88.936 1.461 2.135 1.724 3.392.263 1.258.215 2.57-.066 3.824-.562 2.507-2.022 4.728-3.69 6.682a32.025 32.025 0 0 1-9.088 7.328 9.963 9.963 0 0 0 4.246 1.218c1.974.113 3.956-.348 5.758-1.16 1.802-.812 3.434-1.966 4.928-3.26a30.538 30.538 0 0 0 7.46-9.73C38.858 11.821 32.062 6.4 24 6.4zm.112 3.556c-1.237-.002-2.463.358-3.546.956-2.167 1.195-3.715 3.277-4.85 5.476-.98 1.896-1.708 3.943-1.912 6.068-.204 2.124.142 4.332 1.192 6.19a9.087 9.087 0 0 0 1.93 2.36c.369-.165.736-.336 1.098-.516 3.533-1.76 6.71-4.274 9.1-7.416 1.35-1.774 2.467-3.805 2.722-6.02.127-1.107.031-2.248-.342-3.298-.374-1.05-1.033-2.006-1.922-2.678-.987-.746-2.233-1.12-3.47-1.122zm17.33 11.688a32.002 32.002 0 0 1-6.396 8.354c-2.16 2.02-4.64 3.756-7.434 4.724-2.795.967-5.93 1.12-8.692.062a10.831 10.831 0 0 1-2.678-1.5 31.685 31.685 0 0 1-5.808 1.93A17.564 17.564 0 0 0 24 41.6c9.72 0 17.6-7.88 17.6-17.6 0-.8-.055-1.585-.158-2.356z"/></svg>