<?xml version="1.0" encoding="utf-8"?>
<!-- Generator: Adobe Illustrator 27.1.1, SVG Export Plug-In . SVG Version: 6.00 Build 0)  -->
<svg version="1.1" id="Layer_1" xmlns="http://www.w3.org/2000/svg" xmlns:xlink="http://www.w3.org/1999/xlink" x="0px" y="0px"
	 viewBox="0 0 48 48" style="enable-background:new 0 0 48 48;" xml:space="preserve">
<style type="text/css">
	.st0{fill:#00B173;}
	.st1{fill:none;stroke:#00B173;stroke-linecap:round;stroke-linejoin:round;}
	.st2{fill:#CCCCCC;}
	.st3{font-family:'Arial-BoldMT';}
	.st4{font-size:13.8541px;}
</style>
<g transform="matrix( 1, 0, 0, 1, 0,0) ">
	<g>
		<g id="Layer0_0_FILL">
			<path class="st0" d="M36.4,9.5C36.1,9.2,36,9,35.8,9c-0.1-0.1-0.2-0.1-0.2-0.1L24.6,2.6c-0.1-0.1-0.2-0.1-0.3-0.2
				c-0.2-0.1-0.5-0.2-0.8-0.2c-0.4,0-0.7,0.1-1,0.3c0,0,0,0,0,0L11.7,8.9l-0.8,0.5c0,0,0,0,0,0c-0.4,0.4-0.6,0.8-0.6,1.4v13.1
				c0,0,0,0,0,0.1c0,0.5,0.2,0.9,0.6,1.3c0.1,0.1,0.1,0.1,0.2,0.1l0.6,0.3L22.4,32c0.1,0.1,0.2,0.1,0.3,0.2c0.3,0.1,0.5,0.2,0.8,0.2
				c0.4,0,0.7-0.1,1.1-0.3l11.3-6.4c0.1,0,0.2-0.1,0.3-0.2c0.1-0.1,0.2-0.2,0.4-0.5c0.2-0.2,0.3-0.6,0.3-0.9c0-0.4,0-0.6,0-0.8v-12
				c0-0.1,0-0.3,0-0.5c0-0.1,0-0.2,0-0.3C36.9,10.2,36.7,9.8,36.4,9.5 M34.6,10.6c0.1,0,0.2,0.1,0.3,0.2c0.1,0.1,0.2,0.2,0.2,0.4
				c0,0,0,0,0,0.1c0,0,0,0.1,0,0.1v12.3c0,0,0,0,0,0.1c0,0,0,0,0,0c0,0.2-0.1,0.3-0.2,0.4c0,0-0.1,0.1-0.1,0.1c0,0-0.1,0-0.1,0
				L24,30.2c0,0,0,0-0.1,0c-0.1,0-0.2,0.1-0.3,0.1c-0.1,0-0.2,0-0.3-0.1c0,0-0.1,0-0.1,0l-10.8-6.1v0c0,0,0,0,0,0
				c0,0-0.1-0.1-0.1-0.1c-0.1-0.1-0.2-0.2-0.2-0.4c0,0,0,0,0,0l0-12.3c0,0,0-0.1,0-0.1c0-0.2,0.1-0.3,0.2-0.4
				c0.1-0.1,0.1-0.1,0.2-0.1l10.8-6.1c0,0,0,0,0.1,0c0.1,0,0.2-0.1,0.3-0.1c0.1,0,0.2,0,0.3,0.1c0,0,0,0,0,0L34.6,10.6 M19.1,21.4
				h-0.2c-0.2,0-0.5,0.1-0.6,0.3c-0.2,0.2-0.3,0.5-0.3,0.8s0.1,0.5,0.3,0.8c0.2,0.2,0.5,0.3,0.8,0.3c0,0,0,0,0,0h11.6c0,0,0,0,0,0
				c0.3,0,0.5-0.1,0.8-0.3c0.2-0.2,0.3-0.5,0.3-0.8s-0.1-0.6-0.3-0.8c-0.2-0.2-0.4-0.3-0.7-0.3c0,0,0,0,0,0L19.1,21.4 M27.3,16.6
				c-0.2-0.2-0.5-0.3-0.8-0.3c0,0,0,0,0,0h-10c0,0,0,0,0,0c-0.3,0-0.5,0.1-0.7,0.3c-0.2,0.2-0.3,0.5-0.3,0.8c0,0.3,0.1,0.5,0.3,0.8
				c0.2,0.2,0.5,0.3,0.8,0.3c0,0,0,0,0,0h9.9c0,0,0,0,0.1,0c0.3,0,0.5-0.1,0.8-0.3c0.2-0.2,0.3-0.5,0.3-0.8
				C27.6,17.1,27.5,16.8,27.3,16.6 M30.6,11.1C30.6,11.1,30.6,11.1,30.6,11.1c-0.1,0-0.1,0-0.1,0l-11.3,0h-0.3
				c-0.2,0-0.4,0.1-0.6,0.3c-0.2,0.2-0.3,0.5-0.3,0.8c0,0.3,0.1,0.5,0.3,0.8c0.2,0.2,0.5,0.3,0.8,0.3c0,0,0,0,0,0c0,0,0,0,0.1,0
				l11.5,0c0.3,0,0.5-0.1,0.7-0.3c0.2-0.2,0.3-0.5,0.3-0.8c0-0.3-0.1-0.6-0.3-0.8C31.2,11.2,30.9,11.1,30.6,11.1z"/>
		</g>
	</g>
	<g>
		<path id="Layer0_0_1_STROKES" class="st1" d="M19.2,11.1l11.3,0c0,0,0.1,0,0.1,0c0,0,0,0,0,0c0.3,0,0.5,0.1,0.8,0.3
			c0.2,0.2,0.3,0.5,0.3,0.8c0,0.3-0.1,0.5-0.3,0.8c-0.2,0.2-0.4,0.3-0.7,0.3l-11.5,0c0,0-0.1,0-0.1,0c0,0,0,0,0,0
			c-0.3,0-0.6-0.1-0.8-0.3c-0.2-0.2-0.3-0.5-0.3-0.8c0-0.3,0.1-0.6,0.3-0.8c0.2-0.2,0.4-0.3,0.6-0.3c0,0,0.1,0,0.1,0
			C19.1,11.1,19.1,11.1,19.2,11.1h-0.3 M35,23.6c0,0.2-0.1,0.3-0.2,0.4c0,0-0.1,0.1-0.1,0.1c0,0-0.1,0-0.1,0L24,30.2c0,0,0,0-0.1,0
			c-0.1,0-0.2,0.1-0.3,0.1c-0.1,0-0.2,0-0.3-0.1c0,0-0.1,0-0.1,0l-10.8-6.1v0c0,0,0,0,0,0c0,0-0.1-0.1-0.1-0.1
			c-0.1-0.1-0.2-0.2-0.2-0.4c0,0,0,0,0,0l0-12.3c0,0,0-0.1,0-0.1c0-0.2,0.1-0.3,0.2-0.4c0.1-0.1,0.1-0.1,0.2-0.1l10.8-6.1
			c0,0,0,0,0.1,0c0.1,0,0.2-0.1,0.3-0.1c0.1,0,0.2,0,0.3,0.1c0,0,0,0,0,0l10.6,6.1c0.1,0,0.2,0.1,0.3,0.2c0.1,0.1,0.2,0.2,0.2,0.4
			c0,0,0,0,0,0.1c0,0,0,0.1,0,0.1L35,23.6C35,23.5,35,23.5,35,23.6C35,23.6,35,23.6,35,23.6z M35,11.1l0,0.2 M11.7,8.9l10.8-6.3
			c0,0,0,0,0,0c0.3-0.2,0.6-0.3,1-0.3c0.3,0,0.6,0.1,0.8,0.2c0.1,0.1,0.2,0.1,0.3,0.2l10.9,6.3c0,0,0.1,0,0.2,0.1
			C36,9,36.1,9.2,36.4,9.5c0.3,0.3,0.4,0.6,0.5,1c0,0.1,0,0.2,0,0.3c0,0.2,0,0.4,0,0.5v12c0,0.2,0,0.4,0,0.8c0,0.4-0.2,0.7-0.3,0.9
			c-0.2,0.2-0.3,0.4-0.4,0.5c-0.1,0.1-0.2,0.1-0.3,0.2l-11.3,6.4c-0.3,0.2-0.7,0.3-1.1,0.3c-0.3,0-0.6-0.1-0.8-0.2
			c-0.1-0.1-0.2-0.1-0.3-0.2l-10.8-6.3c-0.2-0.1-0.4-0.2-0.6-0.3c-0.1,0-0.1-0.1-0.2-0.1c-0.4-0.4-0.5-0.8-0.6-1.3c0,0,0,0,0-0.1
			V10.8c0-0.5,0.2-1,0.6-1.4c0,0,0,0,0,0C11.1,9.1,11.4,9,11.7,8.9l-0.8,0.5 M27.6,17.4c0,0.3-0.1,0.5-0.3,0.8
			c-0.2,0.2-0.5,0.3-0.8,0.3c0,0,0,0-0.1,0h-9.9c0,0,0,0,0,0c-0.3,0-0.6-0.1-0.8-0.3c-0.2-0.2-0.3-0.5-0.3-0.8
			c0-0.3,0.1-0.6,0.3-0.8c0.2-0.2,0.4-0.3,0.7-0.3c0,0,0,0,0,0h10c0,0,0,0,0,0c0.3,0,0.5,0.1,0.8,0.3C27.5,16.8,27.6,17.1,27.6,17.4
			z M18.9,21.4h0.2c0,0-0.1,0-0.1,0C19,21.4,18.9,21.4,18.9,21.4c-0.2,0-0.5,0.1-0.6,0.3c-0.2,0.2-0.3,0.5-0.3,0.8s0.1,0.5,0.3,0.8
			c0.2,0.2,0.5,0.3,0.8,0.3c0,0,0,0,0,0h11.6c0,0,0,0,0,0c0.3,0,0.5-0.1,0.8-0.3c0.2-0.2,0.3-0.5,0.3-0.8s-0.1-0.6-0.3-0.8
			c-0.2-0.2-0.4-0.3-0.7-0.3c0,0,0,0,0,0l-11.5,0 M11.6,25.7L11,25.4"/>
	</g>
</g>
<g transform="matrix( 1, 0, 0, 1, 16.35,288.9) ">
	<g>
		<defs>
			<rect id="SVGID_1_" x="-13.8" y="-255.6" width="42.2" height="15.9"/>
		</defs>
		<clipPath id="SVGID_00000083780473326950457910000016021738161217590436_">
			<use xlink:href="#SVGID_1_"  style="overflow:visible;"/>
		</clipPath>
		<text transform="matrix(1 0 0 1 -12.672 -242.8099)" class="st2 st3 st4">EMQX</text>
	</g>
</g>
</svg>
