<svg xmlns="http://www.w3.org/2000/svg" viewBox="0 0 48 48"><g fill="none" fill-rule="evenodd"><path fill="#fff" stroke="#000" stroke-width="1.432" d="M42.196 10.721V7.974a1.748 1.748 0 1 1 3.497 0v2.747m-9.38 0V7.974c0-.967.782-1.749 1.748-1.749a1.742 1.742 0 0 1 1.748 1.742v2.748m-9.387.006V7.974a1.748 1.748 0 1 1 3.497 0v2.747m-9.387 0V7.974a1.748 1.748 0 1 1 3.498 0v2.747m-9.388 0V7.974a1.748 1.748 0 1 1 3.498 0v2.747m-9.38 0V7.974a1.748 1.748 0 1 1 3.496 0v2.747m29.437 26.222v3.077a1.748 1.748 0 1 1-3.497 0v-3.077m-2.387 0v3.077a1.748 1.748 0 1 1-3.497 0v-3.077m-2.393 0v3.077a1.748 1.748 0 1 1-3.497 0v-3.077m-2.392 0v3.077a1.748 1.748 0 1 1-3.498 0v-3.077m-2.392 0v3.077a1.748 1.748 0 1 1-3.498 0v-3.077m-2.386.171v2.912a1.748 1.748 0 1 1-3.497 0v-2.912"/><path fill="#fff" stroke="#000" stroke-width="1.591" d="M46.574 10.721H11.878a.638.638 0 0 0-.637.638v24.953c0 .349.282.638.637.638h34.69a.638.638 0 0 0 .637-.638V11.36a.633.633 0 0 0-.631-.638z"/><path fill="#000" fill-rule="nonzero" d="M34.945 23.369v-3.333h-1.183v2.156l-4.477-4.476-7.553 7.56h1.887v5.094h11.34v-5.095h1.886z"/><path stroke="#000" stroke-linecap="round" stroke-linejoin="round" stroke-width="1.289" d="M34.945 23.369v-3.333h-1.183v2.156l-4.477-4.476-7.553 7.56h1.887v5.094h11.34v-5.095h1.886z"/><path stroke="#000" stroke-linecap="round" stroke-linejoin="round" stroke-width="1.419" d="M11.11 35.432H.71v-2.558h7.796v-2.557H.71v-2.55h7.796V25.21H.71v-2.558h7.796v-2.55H.71v-7.875"/></g></svg>