<svg xmlns="http://www.w3.org/2000/svg" id="svg10" width="48" height="48" version="1.1" viewBox="-6.31 3.69 48 48"><defs id="defs4"><style id="style2">.cls-1{fill:#419eda}</style></defs><path id="path6" d="M15.665 27.688a3.13 3.13 0 1 1-3.13-3.129 3.131 3.131 0 0 1 3.13 3.129zm4.047 0a3.13 3.13 0 1 0 3.13-3.129 3.129 3.129 0 0 0-3.13 3.129z" class="cls-1" style="stroke-width:1"/><path id="path8" d="M41.012 28.517a8.59 8.59 0 0 1-.691.026 9.034 9.034 0 0 1-3.973-.925 36.896 36.896 0 0 0 .535-7.028 36.367 36.367 0 0 0-4.55-5.39 9.037 9.037 0 0 1 3.206-3.434l.589-.365-.46-.518a23.955 23.955 0 0 0-8.365-6.102l-.636-.276-.162.671a9.013 9.013 0 0 1-2.268 4.118 36.38 36.38 0 0 0-6.554-2.7 36.252 36.252 0 0 0-6.545 2.695 8.99 8.99 0 0 1-2.26-4.108l-.164-.673-.634.275a24.182 24.182 0 0 0-8.365 6.1l-.458.518.587.364a9.023 9.023 0 0 1 3.198 3.415 36.643 36.643 0 0 0-4.54 5.37 36.87 36.87 0 0 0 .52 7.076 9.01 9.01 0 0 1-3.949.917 8.447 8.447 0 0 1-.693-.026l-.69-.054.064.689a23.809 23.809 0 0 0 3.218 9.847l.35.597.526-.448a9.004 9.004 0 0 1 4.263-1.996 36.579 36.579 0 0 0 3.65 5.943 36.945 36.945 0 0 0 6.914 1.7 8.986 8.986 0 0 1-.576 4.718l-.262.64.674.15a24.097 24.097 0 0 0 5.181.572l5.18-.573.675-.15-.261-.639a8.975 8.975 0 0 1-.575-4.723 36.952 36.952 0 0 0 6.887-1.695 36.416 36.416 0 0 0 3.652-5.948 9.022 9.022 0 0 1 4.285 1.998l.526.445.35-.592a23.753 23.753 0 0 0 3.215-9.846l.064-.689zm-15.916 8.417a27.963 27.963 0 0 1-14.831 0A28.378 28.378 0 0 1 5.75 22.909a28.236 28.236 0 0 1 5.376-5.117 28.665 28.665 0 0 1 6.556-3.566 28.754 28.754 0 0 1 6.543 3.557 28.452 28.452 0 0 1 5.399 5.152 28.586 28.586 0 0 1-1.352 7.305 28.73 28.73 0 0 1-3.177 6.694z" class="cls-1" style="stroke-width:1"/></svg>