<svg xmlns="http://www.w3.org/2000/svg" xml:space="preserve" width="48" height="48" style="clip-rule:evenodd;fill-rule:evenodd;stroke-linecap:round;stroke-linejoin:round;stroke-miterlimit:7"><path d="m1394.74 693.463-64.38-89.439v50.214z" style="fill:#c8b2f5;stroke:#3441c0;stroke-width:2.27px" transform="matrix(.24184 0 0 -.23087 -297.73 187.19)"/><path d="m1394.74 693.463-64.38-89.439v50.214z" style="fill:#eecbc0;stroke:#3441c0;stroke-width:2.27px" transform="matrix(-.24184 0 0 -.23087 345.73 187.19)"/><path d="m1398.61 639.614-69.66-30.973v70.608z" style="fill:#87a9f0;stroke:#3441c0;stroke-width:2.4px" transform="matrix(-.22355 0 0 .22355 321.083 -118.288)"/><path d="m1398.61 639.614-69.66-30.973v70.608z" style="fill:#cab3f5;stroke:#3441c0;stroke-width:2.4px" transform="translate(-273.084 -118.288) scale(.22355)"/><path d="m1394.74 709.855-64.38-105.831v75.841z" style="fill:#eecbc0;stroke:#3441c0;stroke-width:2.27px" transform="matrix(-.24184 0 0 .23087 345.73 -139.19)"/><path d="m1394.74 709.855-64.38-105.831v75.841z" style="fill:#b8fbf6;stroke:#3441c0;stroke-width:2.27px" transform="matrix(.24184 0 0 .23087 -297.73 -139.19)"/></svg>