<svg xmlns="http://www.w3.org/2000/svg" viewBox="0 0 48 48"><g fill="#015d8e"><path d="M12.463 23.133a.933.933 0 0 0-.933.934 4.84 4.84 0 0 1-4.832 4.832c-2.665 0-4.832-2.167-4.832-4.832s2.167-4.832 4.832-4.832a4.8 4.8 0 0 1 3.16 1.177L6.96 23.204a.934.934 0 1 0 1.297 1.344l3.57-3.44.007-.007.022-.024q.022-.022.042-.046l.018-.024q.021-.025.038-.051l.013-.02.035-.059.007-.015.032-.068.004-.01.027-.074.002-.008a.8.8 0 0 0 .033-.167v-.014q.004-.038.005-.074v-.021q0-.035-.003-.068 0-.014-.003-.027-.004-.031-.01-.062-.002-.015-.006-.03-.005-.03-.014-.058l-.01-.03-.019-.057-.012-.027-.026-.057-.014-.025-.033-.055q-.008-.015-.018-.026-.017-.026-.036-.05l-.004-.006a6.68 6.68 0 0 0-5.205-2.48C3.005 17.368 0 20.373 0 24.067s3.005 6.7 6.7 6.7c3.693 0 6.699-3.006 6.699-6.7a.933.933 0 0 0-.934-.934zM34.352 12.717c-1.702-.365-3.25-.075-4.357.82-.844.682-1.851 2.068-1.851 4.791v.338l-.001.03.001.028v11.108a.933.933 0 1 0 1.867 0V19.629h4.144a.933.933 0 1 0 0-1.867H30.03c.087-1.285.476-2.236 1.14-2.773.466-.377 1.329-.76 2.791-.447a.933.933 0 1 0 .392-1.826zM47.409 17.437a.934.934 0 0 0-1.211.527c-.112.283-2.124 5.402-3.631 9.44l-3.81-9.447a.934.934 0 1 0-1.732.698l4.583 11.37q-.148.414-.268.768c-.973 2.857-2.597 2.797-2.805 2.777q-.036-.002-.07-.003a.94.94 0 0 0-.937.936.927.927 0 0 0 .922.935h.014l.02-.001c1.035-.013 3.397-.438 4.625-4.042 1.21-3.553 4.79-12.655 4.826-12.747a.934.934 0 0 0-.528-1.212zM24.391 17.37a.933.933 0 0 0-.933.933v7.438c0 1.742-1.417 3.159-3.159 3.159s-3.158-1.417-3.158-3.159v-7.438a.933.933 0 1 0-1.867 0v7.438c0 2.772 2.254 5.026 5.025 5.026s5.026-2.255 5.026-5.026v-7.438a.933.933 0 0 0-.934-.934"/></g></svg>
