<svg xmlns="http://www.w3.org/2000/svg" viewBox="0 0 48 48"><path fill="none" d="M.002 28.038h1000v943.92H.002z" clip-rule="evenodd"/><path fill="#6965db" d="M47.893 39.563a.33.33 0 0 0-.317-.072c-2.51-3.706-5.701-7.222-8.791-10.617l-.509-.557a.3.3 0 0 0-.072-.18.33.33 0 0 0-.203-.12l-.102-.107-.072-.054c-.09-.191-.318-.335-.569-.21-.946.486-1.796 1.18-2.635 1.821a44 44 0 0 0-3.245 2.707c-.42.389-.833.796-1.18 1.251-.168.222-.042.431.162.521a98 98 0 0 0-2.204 2.24c-.066.072-.102.167-.096.263s.054.186.132.246l1.293.988s.006.018.018.024c1.85 1.826 5.096 4.359 8.533 7.042q.766.6 1.54 1.203.348.424.67.839c.114.15.33.18.48.065.077.06.155.126.233.186a.34.34 0 0 0 .479-.06.35.35 0 0 0 .066-.185c.024 0 .042.018.06.018.09 0 .185-.036.251-.108l6.096-6.66a.335.335 0 0 0-.024-.478zM30.39 37.258q.063.078.126.15c.694.586 1.437 1.22 2.191 1.868l-3.065-2.342-.312-.215q-.098-.072-.185-.144l-.228-.192s.042-.042.06-.066l.21-.21a169 169 0 0 1 3.706-3.628c-.964.97-2.916 3.814-2.497 4.779zm10.497 8.27-2.527-1.929a63 63 0 0 0-3.138-3.012c1.365 1.054 2.533 1.946 2.707 2.102 1.323 1.18 1.263.964 2.174 1.742l1.095.797c-.107.096-.215.197-.317.293zm.635.484-.048-.036c.096-.078.197-.15.293-.227l-.24.263zM1.444 6.91c.084.431.161.857.24 1.264.412 2.215.796 4.21 1.526 5.724l.288 1.15c.113.437.275.982.425 1.096 1.706 1.509 4.323 3.76 7.12 5.88.126.096.3.09.419-.006.006.012.018.018.024.024q.1.09.227.09a.32.32 0 0 0 .252-.114c3.58-3.982 6.246-7.257 8.144-10 .12-.15.18-.323.173-.503a9 9 0 0 1 .36-.407.334.334 0 0 0-.06-.515.35.35 0 0 0-.102-.216c-.832-.802-1.45-1.383-2.072-1.964a178 178 0 0 1-4.653-4.497c-.012-.012-.03-.024-.042-.036a.33.33 0 0 0-.131-.084c-.665-.233-2.03-.467-3.749-.766C7.306 2.599 3.845 2 .731 1.072H.707v-.006s-.012 0-.018.012H.683l.024-.012s-.185.006-.221.024a.35.35 0 0 0-.114.09c-.03.036-.054.071-.282.12-.227.047.048 0 .066 0H.09v.017c.042.204.03.348.096.581-.012.06.126.611.144.665L1.426 6.91zm18.533 3.916-.024.03-.384-.425c.132.126.264.252.408.395M15.73 16.45s-.042.048-.06.072l-.012-.012c.024-.018.048-.042.078-.06zM13.306 4.413c.21.21 1.042.988 1.234 1.18-.869-.395-3.03-1.401-4.036-1.725.988.174 2.353.395 2.802.545M1.82 2.754c.503.863.898 3.887 1.293 6.827a93 93 0 0 1-.592-2.755c-.312-1.533-.6-2.904-1-4.12.083.007.185.019.293.03 0 .007 0 .013.012.019zm-.174-.724Q1.44 2.01 1.276 2q-.016-.036-.024-.072l.395.108zm-1.33.27v-.013zm47.032-.707c.024-.138-.659-.743-.443-.755.509-.024.515-.808 0-.784-.677.036-1.36.191-2.018.317a120 120 0 0 0-3.545.725c-2.629.563-5.252 1.155-7.845 1.862-.814.222-1.712.42-2.46.814-.252.132-.24.402-.103.57a.4.4 0 0 1-.167.053q-.333.061-.665.114a.34.34 0 0 0-.233.515 187 187 0 0 1-4.683 5.958 602 602 0 0 0-5.222 6.072C14.33 23.677 7.941 31.186.863 37.797a.34.34 0 0 0-.018.48c.03.035.072.06.114.077q-.144.137-.287.264a.3.3 0 0 0-.096.191 3 3 0 0 0-.138.15.34.34 0 0 0 .018.479.34.34 0 0 0 .48-.018c.023-.024.047-.054.071-.078a.503.503 0 0 1 .73 0l1.168 1.252-.826-.69a.34.34 0 0 0-.48.043.34.34 0 0 0 .043.479l8.874 7.443a.346.346 0 0 0 .461-.024l.216-.215a.335.335 0 0 0 .377-.072C23.6 35.474 33.29 26.342 44.385 18.18a.33.33 0 0 0 .138-.306.34.34 0 0 0 .287-.233c2.048-6.264 2.443-11.81 2.563-14.533q.002-.026.012-.042.017-.046.024-.084l.03-.114a1.64 1.64 0 0 0-.09-1.287zm-21.51 9.802q.81-.926 1.6-1.808c-3.45 4.539-9.162 11.533-17.252 19.845 5.509-6.096 11.06-12.413 15.653-18.036zM6.35 43.018 6.33 43c.066.012.114.024.12.024a.3.3 0 0 0-.102 0zm4.132 3.845-.03-.024.018-.018c.012 0 .018.012.024.012 0 .012-.012.018-.018.03zm5.006-4.318.826-.862a.1.1 0 0 1 .018.03c-.281.275-.563.557-.85.832zm1.341-1.323c.156-.18.335-.39.521-.61.006-.007.012-.019.024-.025 1.97-2.03 4-4.084 6.096-6.138.012-.012.03-.024.042-.036.515-.395 1.09-.832 1.629-1.245a885 885 0 0 0-8.312 8.06zM29.792 7.76c-1.114 1.449-2.335 3.33-3.371 4.832-3.27 4.737-13.797 16.336-14.03 16.557a1374 1374 0 0 1-9.635 9.204c-.084.078-.15.144-.204.21a.475.475 0 0 1 .018-.677C17.433 23.874 26.451 12.203 30.115 7.119c-.078.198-.143.413-.33.653zm9.886 4.252-.006.012c0-.012-.012-.042.006-.012m-4.071 2.586c-1.354-.784-1.989-1.958-1.623-3.143l.114-.396q.07-.17.167-.34a3.77 3.77 0 0 1 1.51-1.414q.045-.017.089-.024a.5.5 0 0 1-.024-.258c.03-.185.15-.347.395-.347.401 0 1.647.371 2.12.779q.217.17.407.377c.18.21.443.55.575.796.078.036.138.372.228.545q.126.415.107.839c0 .012 0 .012.006.018-.018.041 0 .221-.024.239-.06.431-.215.856-.449 1.228-.024.03-.042.066-.066.095 0 .006-.012.012-.018.024-.18.258-.389.497-.646.677a3 3 0 0 1-2.515.473 4 4 0 0 1-.342-.15zm9.742-.976a51 51 0 0 1-1.078 3.82c-.018.049-.018.097-.018.139a.3.3 0 0 0-.161.065 181 181 0 0 0-7.773 6.054 427 427 0 0 1 6.725-5.958 3.84 3.84 0 0 0 1.263-2.24l.336-2.017.018-.06c.15-.425.802-.24.7.197z" clip-rule="evenodd"/></svg>