<svg xmlns="http://www.w3.org/2000/svg" viewBox="0 0 48 48"><linearGradient id="a" x1="-277.38" x2="-277.38" y1="406.6" y2="407.57" gradientTransform="matrix(40 0 0 -39.778 11115 16212)" gradientUnits="userSpaceOnUse"><stop offset="0" stop-color="#0062E0"/><stop offset="1" stop-color="#19AFFF"/></linearGradient><path fill="url(#a)" d="M16.7 39.8C7.2 38.1 0 29.9 0 20 0 9 9 0 20 0s20 9 20 20c0 9.9-7.2 18.1-16.7 19.8l-1.1-.9h-4.4z" style="fill:url(#a)" transform="scale(1.2)"/><path d="m27.8 25.6.9-5.6h-5.3v-3.9c0-1.6.6-2.8 3-2.8H29V8.2c-1.4-.2-3-.4-4.4-.4-4.6 0-7.8 2.8-7.8 7.8V20h-5v5.6h5v14.1c1.1.2 2.2.3 3.3.3s2.2-.1 3.3-.3V25.6z" style="fill:#fff" transform="scale(1.2)"/></svg>