<svg xmlns="http://www.w3.org/2000/svg" viewBox="0 0 48 48"><path fill="#1877f2" d="M48 24C48 10.745 37.255 0 24 0S0 10.745 0 24c0 11.979 8.776 21.908 20.25 23.708v-16.77h-6.094V24h6.094v-5.288c0-6.015 3.583-9.337 9.065-9.337 2.626 0 5.373.469 5.373.469v5.906H31.66c-2.981 0-3.911 1.85-3.911 3.748V24h6.656l-1.064 6.938H27.75v16.77C39.224 45.908 48 35.978 48 24"/><path fill="#fff" d="M33.342 30.937 34.406 24H27.75v-4.502c0-1.898.93-3.748 3.911-3.748h3.027V9.844s-2.747-.469-5.373-.469c-5.482 0-9.065 3.322-9.065 9.337V24h-6.094v6.937h6.094v16.771a24.18 24.18 0 0 0 7.5 0v-16.77h5.592"/></svg>