<?xml version="1.0" encoding="utf-8"?>
<!-- Generator: Adobe Illustrator 27.1.1, SVG Export Plug-In . SVG Version: 6.00 Build 0)  -->
<svg version="1.1" id="Layer_1" xmlns="http://www.w3.org/2000/svg" xmlns:xlink="http://www.w3.org/1999/xlink" x="0px" y="0px"
	 viewBox="0 0 48 48" style="enable-background:new 0 0 48 48;" xml:space="preserve">
<style type="text/css">
	.st0{fill-rule:evenodd;clip-rule:evenodd;fill:url(#SVGID_1_);}
	.st1{fill-rule:evenodd;clip-rule:evenodd;fill:#FFFFFF;}
</style>
<g>
	
		<linearGradient id="SVGID_1_" gradientUnits="userSpaceOnUse" x1="-133.2269" y1="208.9716" x2="-116.2759" y2="225.9225" gradientTransform="matrix(1.9606 0 0 -1.9606 268.6776 450.4167)">
		<stop  offset="0" style="stop-color:#7266F0"/>
		<stop  offset="1" style="stop-color:#734ED3"/>
	</linearGradient>
	<circle class="st0" cx="24.1" cy="24.1" r="23.5"/>
	<path class="st1" d="M24.1,18.8c-1.4,0-7.9,5.1-9,5.1c-1.2,0-8.8-2.9-9.6-2.3c-0.5,1.1,7.4,9.3,9.6,9.3c2.1,0,8.4-4.4,9.1-4.4
		c0.7,0,7,4.4,9.1,4.4c2.1,0,10-8.3,9.6-9.3c-0.9-0.6-8.4,2.3-9.6,2.3C32,23.9,25.5,18.8,24.1,18.8L24.1,18.8z"/>
</g>
</svg>
