<svg xmlns="http://www.w3.org/2000/svg" viewBox="0 0 48 48"><defs><linearGradient id="filezilla_svg__a" x1="187.95" x2="187.95" y1="123.86" y2="258.87" gradientTransform="translate(-218.69 -223.17) scale(2.1744)" gradientUnits="userSpaceOnUse"><stop offset="0" stop-color="#bf0000"/><stop offset="1" stop-color="#8f0000"/></linearGradient></defs><path fill="url(#filezilla_svg__a)" d="M0 12.724v16.775c7.015 0 12.723 5.708 12.723 12.72 0 7.017-5.708 12.724-12.723 12.724v16.775c7.015 0 12.723 5.708 12.723 12.72 0 7.017-5.708 12.724-12.723 12.724v16.775c7.015 0 12.723 5.708 12.723 12.729S7.015 139.395 0 139.395v16.775c7.015 0 12.723 5.703 12.723 12.72S7.015 181.614 0 181.614v16.775c7.015 0 12.723 5.703 12.723 12.72S7.015 223.833 0 223.833v16.775c7.015 0 12.723 5.703 12.723 12.72S7.015 266.052 0 266.052v16.775c7.015 0 12.723 5.703 12.723 12.72S7.015 308.271 0 308.271v16.775c7.015 0 12.723 5.703 12.723 12.72S7.015 350.49 0 350.49v16.784a12.81 12.81 0 0 1 8.998 3.725 12.81 12.81 0 0 1 3.725 8.995h16.776c0-7.017 5.708-12.72 12.723-12.72 7.014 0 12.723 5.703 12.723 12.72H71.72c0-7.017 5.708-12.72 12.723-12.72 7.014 0 12.723 5.703 12.723 12.72h16.776c0-7.017 5.708-12.72 12.723-12.72s12.723 5.703 12.723 12.72h16.776c0-7.017 5.708-12.72 12.723-12.72s12.723 5.703 12.723 12.72h16.776c0-7.017 5.708-12.72 12.723-12.72 7.014 0 12.723 5.703 12.723 12.72h16.776c0-7.017 5.708-12.72 12.723-12.72 7.014 0 12.723 5.703 12.723 12.72h16.776c0-7.017 5.708-12.72 12.723-12.72 7.014 0 12.723 5.703 12.723 12.72h16.776c0-7.017 5.708-12.72 12.723-12.72 7.014 0 12.723 5.703 12.723 12.72h16.785c0-3.35 1.359-6.63 3.729-8.995a12.792 12.792 0 0 1 8.996-3.725v-16.775c-7.017 0-12.725-5.708-12.725-12.724 0-7.017 5.707-12.72 12.725-12.72V308.28c-7.017 0-12.725-5.708-12.725-12.724 0-7.017 5.707-12.72 12.725-12.72v-16.775c-7.017 0-12.725-5.708-12.725-12.724 0-7.017 5.707-12.72 12.725-12.72v-16.775c-7.017 0-12.725-5.708-12.725-12.724 0-7.017 5.707-12.72 12.725-12.72v-16.775c-7.017 0-12.725-5.708-12.725-12.724 0-7.017 5.707-12.72 12.725-12.72v-16.775c-7.017 0-12.725-5.708-12.725-12.729s5.707-12.729 12.725-12.729V97.171c-7.017 0-12.725-5.708-12.725-12.724 0-7.012 5.707-12.72 12.725-12.72V54.952c-7.017 0-12.725-5.708-12.725-12.724 0-7.012 5.707-12.72 12.725-12.72V12.724c-3.351 0-6.63-1.359-8.996-3.725a12.814 12.814 0 0 1-3.73-9h-16.775c0 7.017-5.708 12.725-12.723 12.725-7.015 0-12.723-5.708-12.723-12.724h-16.776c0 7.016-5.708 12.724-12.723 12.724-7.015 0-12.723-5.708-12.723-12.724h-16.776c0 7.016-5.708 12.724-12.723 12.724-7.015 0-12.723-5.708-12.723-12.724h-16.776c0 7.016-5.708 12.724-12.723 12.724-7.015 0-12.723-5.708-12.723-12.724H181.62c0 7.016-5.708 12.724-12.723 12.724-7.015 0-12.723-5.708-12.723-12.724h-16.776c0 7.016-5.708 12.724-12.723 12.724-7.015 0-12.723-5.708-12.723-12.724H97.176c0 7.016-5.708 12.724-12.723 12.724C77.438 12.724 71.73 7.016 71.73 0H54.954c0 7.016-5.708 12.724-12.723 12.724-7.015 0-12.723-5.708-12.723-12.724H12.724c0 3.35-1.36 6.63-3.725 9A12.828 12.828 0 0 1 0 12.723z" transform="scale(.12632)"/><path fill="#fff" d="M40.891 19.207H16.938l1.25-5.848h14.6l1.338-6.295H13.143L6.536 38.226h6.34l2.901-13.618h15.207L17.77 37.688l2.322 4.108c1.071-.714 2.812-.804 4.018-.804 2.143 0 4.242.715 6.428.715 2.006 0 4.059-.134 7.408-1.742l1.17-5.49c-2.278.936-5.647 1.83-8.578 1.83-1.204 0-2.32-.268-3.481-.447l12.809-12.455z"/></svg>