<svg xmlns="http://www.w3.org/2000/svg" fill-rule="evenodd" clip-rule="evenodd" image-rendering="optimizeQuality" shape-rendering="geometricPrecision" text-rendering="geometricPrecision" viewBox="0 0 48 48"><defs><style>.filebrowser_svg__fil1{fill:#fefefe}.filebrowser_svg__fil6{fill:#006498}</style></defs><path fill="#fefefe" d="M24 .086C37.2.086 47.914 10.8 47.914 24S37.2 47.914 24 47.914.086 37.2.086 24 10.8.086 24 .086z" class="filebrowser_svg__fil1"/><path fill="#332c2b" fill-opacity=".149" d="m475 236 118 151c3 116-149 252-292 198l-76-99 114-156s138-95 136-94z" style="fill:#332c2b;fill-opacity:.14902" transform="translate(-6 -6) scale(.08571)"/><path fill="#2bbcff" d="M231 211h208l38 24v246c0 5-3 8-8 8H231c-5 0-8-3-8-8V219c0-5 3-8 8-8z" style="fill:#2bbcff" transform="translate(-6 -6) scale(.08571)"/><path fill="#53c6fc" d="M231 211h208l38 24v2l-37-23H231c-4 0-7 3-7 7v263c-1-1-1-2-1-3V219c0-5 3-8 8-8z" style="fill:#53c6fc" transform="translate(-6 -6) scale(.08571)"/><path fill="#bdeaff" d="M29.828 12.171v8.4h-9.685v-8.4zM15.857 25.114h16.2c.257 0 .429.172.429.343V35.4H15.429v-9.943c0-.171.17-.343.428-.343z" style="fill:#bdeaff"/><path fill="#006498" d="M32.486 34.286V35.4H15.429v-1.114zm-5.915-20.915h.857c.258 0 .515.172.515.429v3.428c0 .258-.257.515-.515.515h-.857c-.257 0-.514-.257-.514-.515V13.8c0-.257.257-.429.514-.429z" class="filebrowser_svg__fil6"/><path fill="#fefefe" d="M15.771 13.371c.857 0 1.457.6 1.457 1.458 0 .77-.6 1.37-1.457 1.37-.771 0-1.457-.6-1.457-1.37 0-.858.686-1.458 1.457-1.458z" class="filebrowser_svg__fil1"/><path fill="#006498" d="M16.886 32.4h14.142c.172 0 .258.086.258.257 0 .086-.086.257-.258.257H16.886c-.172 0-.258-.171-.258-.257 0-.171.086-.257.258-.257zm0-2.829h14.142c.172 0 .258.086.258.257 0 .086-.086.172-.258.172H16.886c-.172 0-.258-.086-.258-.172 0-.171.086-.257.258-.257zm0-2.914h14.142c.172 0 .258.171.258.257 0 .172-.086.257-.258.257H16.886c-.172 0-.258-.085-.258-.257 0-.086.086-.257.258-.257z" class="filebrowser_svg__fil6"/><path fill="#fefefe" d="M14.229 34.457c.257 0 .428.171.428.429 0 .171-.171.342-.428.342s-.43-.171-.43-.342c0-.258.172-.429.43-.429zm19.457 0c.257 0 .428.171.428.429 0 .171-.171.342-.428.342s-.429-.171-.429-.342c0-.258.171-.429.429-.429z" class="filebrowser_svg__fil1"/><path fill="#006498" d="M18.343 12.171v8.4h1.8v-8.4z" class="filebrowser_svg__fil6"/><path fill="#0ea5eb" d="M477 479v2c0 5-3 8-8 8H231c-5 0-8-3-8-8v-2c0 4 3 8 8 8h238c5 0 8-4 8-8z" style="fill:#0ea5eb" transform="translate(-6 -6) scale(.08571)"/><path fill="#2979ff" d="M350 70c155 0 280 125 280 280S505 630 350 630 70 505 70 350 195 70 350 70zm0 46c129 0 234 105 234 234S479 584 350 584 116 479 116 350s105-234 234-234z" style="fill:#2979ff" transform="translate(-6 -6) scale(.08571)"/></svg>