<svg xmlns="http://www.w3.org/2000/svg" viewBox="0 0 48 48"><path fill="#cd5029" d="M0 0h48v48H0z"/><g transform="translate(2.748 2.715) scale(.09837)"><path fill="#fff" d="m140.49 78.646 2.249 53.018s-40.103 29.566-45.538 68L81.2 200.895s-11.539 2.564-11.539 14.103v37.18s3.846 11.538 12.82 11.538l16.487-.319s8 30.5 36.5 50.5v25.5s-2 8.5 15.5 11 40.75 2.25 44.5-1.5 3.75-4.5 3.75-9c0 0 21.25 5 60.25 0v5s3.5 7 29 7 33-3 37.5-12v-25s37.009-36.264 35.75-91.75c-1.083-47.75-15.901-64.299-35.806-82.96-22.67-21.254-69.944-31.165-117.94-25.353.001-.001-24.341-43.938-67.478-36.188z"/><circle cx="135.47" cy="214.4" r="9.5" fill="#cd5029"/><path fill="#cd5029" d="M360.08 190.51s-18.218-8.742-40.662 3.996c0 0-26.711-8.987-40.99 2.593-14.828 12.025-16.299 26.115-15.525 42.785 0 0 12.837-43.915 45.252-32.571 0 0-22.947 40.43 12.761 47.508 0 0 8.436-.05 15.401-4.256 6.644-4.011 11.842-11.433 9.711-24.814 0 0-4.348-13.336-15.569-21.42 0 0 11.042-7.806 31.988-2.209z"/><path fill="#fff" d="M320.19 213.02s-16.689 31.461 5.607 29.767c0 0 11.838-5.656 4.887-17.127-7.147-11.796-10.494-12.64-10.494-12.64z"/></g><path fill="#ffa284" d="M24 22.314s.51 1.728-.469 2.734c-.98 1.006-.874 2.118-.476 2.647.397.53.37.927.052 1.218-.317.291-.582.503-.767.027-.186-.477-.397-.477-.477-.715-.08-.238-.238-.662-.238-.662s-.503.794-.82 1.27c-.319.477-.318 1.218-.107 1.616.212.397.133.873-.026 1.535-.159.662.053 1.668.794 2.065s1.642.715 2.039 1.085 1.323.715 2.515.45c1.191-.264 2.7-1.482 2.965-2.303 0 0 .688-.767.556-1.774s-.61-.98-.821-1.747c-.212-.768.458-.578-.106-1.896 0 0-.251-.628-1.207-1.08-.614-.29-.196-1.604-1.281-2.928S24 22.314 24 22.314z"/></svg>