<svg xmlns="http://www.w3.org/2000/svg" viewBox="0 0 48 48"><g stroke-width="1.333" transform="translate(0 -4)"><rect width="48" height="48" y="4" fill="#f8a66b" rx="5.333"/><path fill="#fff" d="M13.205 42.507c-.2 0-.412-.142-.64-.427-.2-.284-.37-.611-.512-.981-.114-.37-.17-.668-.17-.896.056-1.11.312-2.36.767-3.755.143-.398.356-.569.64-.512a47.24 47.24 0 0 0 .171-1.834c.085-.74.185-1.593.299-2.56-.143-.399-.441-.598-.896-.598-.114 0-.54.071-1.28.214-.711.142-1.764.355-3.158.64-.028 0-.057.014-.085.042a.328.328 0 0 1-.128-.042c-.284 0-.427-.171-.427-.512 0-.399.185-.683.555-.854l-.043.043c.427-.2 1.465-.498 3.115-.896 1.223-.313 2.204-.711 2.944-1.195l.256-2.176c.114-1.052.299-2.133.555-3.242a24.01 24.01 0 0 1 1.066-3.456c.94-2.532 2.048-4.566 3.328-6.102 1.081-1.251 2.162-1.877 3.243-1.877.939 0 1.764.44 2.475 1.323a.53.53 0 0 1 .17.384c0 .313-.17.469-.511.469-.2 0-.37-.085-.512-.256-.456-.54-.953-.81-1.494-.81-1.28 0-2.63 1.407-4.053 4.223-.569 1.138-1.067 2.49-1.493 4.054-.427 1.536-.754 3.27-.982 5.205l-.042.725L16.277 28c.825.256 1.735.384 2.731.384l2.73-.085c.854.028 1.28.313 1.28.853 0 .484-.227.726-.682.726h-3.328c-1.195.085-2.247.412-3.157.98-.854 6.6-1.579 10.369-2.176 11.308-.143.227-.299.341-.47.341zm10.58-1.365c-.654 0-1.166-.086-1.536-.256-.341-.171-.512-.356-.512-.555 0-.17.085-.327.256-.47.2-.142.526-.227.981-.255.57-.029 1.366-.057 2.39-.086s2.147-.057 3.37-.085c1.252-.028 2.475-.043 3.67-.043h1.834c.598 0 1.124.015 1.579.043.484.028.84.071 1.067.128s.341.213.341.47c0 .312-.128.511-.384.597a2.994 2.994 0 0 1-.939.128c-.654 0-1.507.014-2.56.042-1.052.057-2.176.1-3.37.128-1.195.057-2.347.1-3.456.128-1.081.057-1.991.086-2.731.086z"/></g></svg>
