<svg xmlns="http://www.w3.org/2000/svg" viewBox="0 0 48 48"><g transform="translate(-193.14 -105.16) scale(1.2252)"><circle cx="166.69" cy="95.647" r="9.048"/><rect width="15.875" height="15.875" x="158.75" y="108.33" rx="4.233" ry="4.233"/><path d="m195.534 93.49-10.96-6.33a2.572 2.572 0 0 0-3.859 2.228v12.656a2.572 2.572 0 0 0 3.858 2.228l10.961-6.328a2.572 2.572 0 0 0 0-4.455zM194.99 116.31c0 .88-.708 1.587-1.587 1.587h-12.7c-.88 0-1.588-.708-1.588-1.587s.708-1.588 1.587-1.588h12.7c.88 0 1.588.709 1.588 1.588zm-7.938-7.938c.88 0 1.588.709 1.588 1.588v12.7c0 .88-.708 1.587-1.587 1.587-.88 0-1.588-.708-1.588-1.587v-12.7c0-.88.708-1.587 1.587-1.587z"/></g></svg>