<svg xmlns="http://www.w3.org/2000/svg" viewBox="0 0 48 48"><g style="mix-blend-mode:normal;fill:#000;stroke-width:1.04284"><path d="M474.61 255.118V406.3l-130.927 75.59V330.71zm-130.927 75.591V179.528l-130.927 75.59Z" style="fill:#000;stroke:none;stroke-width:1.04284px;stroke-linecap:butt;stroke-linejoin:miter;stroke-opacity:1" transform="translate(-26.634 -24.723) scale(.14733)"/><path d="M218.612 233.262a43.667 43.667 0 0 0-21.856 37.856V390.3a43.667 43.667 0 0 0 21.856 37.857l103.214 59.59a43.667 43.667 0 0 0 43.713 0l103.214-59.59a43.667 43.667 0 0 0 21.856-37.857V271.12a43.667 43.667 0 0 0-21.856-37.857l-103.214-59.59a43.667 43.667 0 0 0-43.713 0zm130.927-31.878 103.214 59.59a11.759 11.759 0 0 1 5.856 10.144V390.3c0 4.166-2.249 8.06-5.856 10.144l-103.214 59.59a11.759 11.759 0 0 1-11.713 0l-103.214-59.59a11.759 11.759 0 0 1-5.856-10.144V271.12c0-4.167 2.249-8.062 5.856-10.144l103.214-59.591a11.759 11.759 0 0 1 11.713 0z" style="fill:#000;fill-opacity:1;fill-rule:nonzero;stroke:none;stroke-width:86.4893;stroke-linecap:round;stroke-linejoin:round;stroke-dasharray:none;stroke-opacity:1" transform="translate(-26.634 -24.723) scale(.14733)"/></g></svg>