<svg xmlns="http://www.w3.org/2000/svg" id="svg16" width="48" height="48" version="1.1" viewBox="48 -2.25 48 48"><defs id="defs4"><style id="style2">.cls-1{fill:#326ce5}.cls-3{fill:none}</style></defs><path id="path6" d="M55.595 10.488a1.397 1.397 0 0 1 0-2.342l15.644-10.17a1.397 1.397 0 0 1 1.522 0l15.644 10.17a1.396 1.396 0 0 1 0 2.342l-15.644 10.17a1.397 1.397 0 0 1-1.522 0z" class="cls-1" style="stroke-width:1"/><path id="path8" fill="#c1d2f7" d="M74.47 12.283h1.085a.823.823 0 0 0 .713-1.235L72.713 4.89a.823.823 0 0 0-1.426 0l-3.555 6.158a.823.823 0 0 0 .713 1.235h1.085a.823.823 0 0 1 .823.823v7.03l.728.473a1.685 1.685 0 0 0 1.838 0l.728-.474v-7.03a.823.823 0 0 1 .823-.822z" style="stroke-width:1"/><path id="path10" d="M69.477 45.527a1.389 1.389 0 0 0 .474.192 16.325 16.325 0 0 0-.909-.475zM68.59 23.42l-1.552 1.009a15.222 15.222 0 0 0 1.552.905zm3.294 3.252c1.335.428 2.717.775 4.129 1.123 1.498.37 3.013.744 4.5 1.236l-4.856-3.158a29.607 29.607 0 0 1-3.773-1.29zm0 8.53v.08c0 .352-.369.638-.824.638h-1.647c-.454 0-.823-.286-.823-.638v-.906c-3.416-.878-6.84-1.987-9.718-4.638l-1.992 1.295c3.081 3.024 6.895 3.968 10.932 4.963 3.727.919 7.568 1.872 10.791 4.587l2.013-1.31c-2.541-2.263-5.542-3.248-8.732-4.072Zm-13.445 3.15 5.336 3.468c2.751.701 5.513 1.543 7.996 3.204l2.044-1.329c-2.709-1.875-5.836-2.648-9.109-3.455-2.096-.517-4.229-1.045-6.267-1.889zM68.59 27.07a17.05 17.05 0 0 1-2.953-1.731l-2.03 1.32a17.08 17.08 0 0 0 4.983 2.566zm7.05 2.234c-1.248-.308-2.51-.62-3.756-1v1.876q.692.176 1.395.348c4.106 1.012 8.35 2.058 11.755 5.462.083.084.159.17.24.255l1.368-.89a1.386 1.386 0 0 0 .476-.52 13.82 13.82 0 0 0-.45-.479c-3.098-3.097-6.95-4.047-11.027-5.052Zm-2.733 2.734-1.023-.254v1.811c3.54.9 7.104 2.015 10.073 4.806l1.992-1.295-.015-.016c-3.098-3.098-6.95-4.047-11.027-5.052zM68.59 30.86c-2.233-.724-4.405-1.7-6.356-3.31l-2.013 1.31c2.45 2.133 5.319 3.11 8.37 3.908z" class="cls-3" style="stroke-width:1"/><path id="path12" d="M62.263 32.044c-.048-.048-.09-.097-.137-.145l-1.717 1.115a1.394 1.394 0 0 0-.225.192c.144.159.29.317.445.472 3.097 3.097 6.949 4.047 11.027 5.052 3.475.856 7.049 1.744 10.13 4.06l2.03-1.32c-2.861-2.252-6.244-3.088-9.8-3.964-4.104-1.012-8.35-2.058-11.753-5.462z" class="cls-3" style="stroke-width:1"/><path id="path14" d="m77.418 25.873-3.773-2.453v1.162a29.606 29.606 0 0 0 3.773 1.29zm-3.773.8v1.631c1.247.38 2.508.693 3.757 1.001 4.077 1.005 7.929 1.955 11.026 5.052a13.807 13.807 0 0 1 .452.478 1.398 1.398 0 0 0-.477-1.82l-6.128-3.985c-1.487-.49-3.003-.866-4.5-1.235-1.413-.348-2.795-.695-4.13-1.123zm-3.294-1.34a15.222 15.222 0 0 1-1.552-.904l-1.401.91a17.05 17.05 0 0 0 2.953 1.732zm4.69 5.196q-.703-.174-1.396-.348v1.604l1.023.254c4.078 1.005 7.93 1.954 11.027 5.052l.015.016 1.325-.861c-.08-.085-.157-.171-.24-.255-3.404-3.404-7.65-4.45-11.755-5.462zm-4.69-1.303a17.08 17.08 0 0 1-4.984-2.566l-1.371.892c1.95 1.61 4.123 2.585 6.355 3.31zm0 3.544c-3.05-.8-5.918-1.776-8.369-3.909l-1.349.877c2.879 2.651 6.303 3.76 9.718 4.638zm3.294 2.431c3.19.824 6.19 1.81 8.732 4.073l1.342-.872c-2.97-2.791-6.534-3.906-10.074-4.806ZM58.64 31.033l-1.331.866c.046.048.089.097.137.145 3.404 3.404 7.649 4.45 11.754 5.462 3.555.877 6.938 1.712 9.799 3.964l1.364-.887c-3.223-2.715-7.064-3.668-10.79-4.587-4.038-.995-7.852-1.939-10.933-4.963Zm-2.828 2.645a14 14 0 0 1-.445-.472 1.393 1.393 0 0 0 .225 2.15l4.607 2.995c2.038.844 4.17 1.372 6.267 1.889 3.274.807 6.4 1.58 9.109 3.456l1.393-.906c-3.08-2.316-6.654-3.203-10.13-4.06-4.077-1.005-7.929-1.955-11.026-5.052zm14.99 11.567a16.333 16.333 0 0 1 .908.474 1.393 1.393 0 0 0 1.048-.192l.774-.503c-2.484-1.661-5.246-2.502-7.997-3.204z" class="cls-1" style="stroke-width:1"/></svg>