<?xml version="1.0" encoding="utf-8"?>
<!-- Generator: Adobe Illustrator 27.1.1, SVG Export Plug-In . SVG Version: 6.00 Build 0)  -->
<svg version="1.1"
	 id="svg2" xmlns:svg="http://www.w3.org/2000/svg" xmlns:inkscape="http://www.inkscape.org/namespaces/inkscape" xmlns:sodipodi="http://sodipodi.sourceforge.net/DTD/sodipodi-0.dtd" inkscape:export-xdpi="373.59207" inkscape:export-ydpi="373.59207" inkscape:version="1.2.1 (9c6d41e410, 2022-07-14, custom)"
	 xmlns="http://www.w3.org/2000/svg" xmlns:xlink="http://www.w3.org/1999/xlink" x="0px" y="0px" viewBox="0 0 48 48"
	 style="enable-background:new 0 0 48 48;" xml:space="preserve">
<style type="text/css">
	.st0{fill-rule:evenodd;clip-rule:evenodd;}
	.st1{fill:#FFFFFF;}
</style>
<sodipodi:namedview  bordercolor="#666666" borderopacity="1.0" id="namedview6" inkscape:current-layer="svg2" inkscape:cx="53.205126" inkscape:cy="57.93447" inkscape:deskcolor="#d1d1d1" inkscape:pagecheckerboard="0" inkscape:pageopacity="0.0" inkscape:showpageshadow="2" inkscape:window-height="1020" inkscape:window-maximized="1" inkscape:window-width="1920" inkscape:window-x="0" inkscape:window-y="32" inkscape:zoom="2.9602411" pagecolor="#ffffff" showgrid="false">
	</sodipodi:namedview>
<path id="rect341" class="st0" d="M24,0.5L24,0.5C37,0.5,47.5,11,47.5,24v0C47.5,37,37,47.5,24,47.5l0,0C11,47.5,0.5,37,0.5,24v0
	C0.5,11,11,0.5,24,0.5z"/>
<path id="text2502" class="st1" d="M27,21h2.1c0.3,0,0.5-0.1,0.7-0.3c0.2-0.2,0.3-0.4,0.3-0.7c0-0.3-0.1-0.5-0.3-0.7
	c-0.2-0.2-0.4-0.3-0.7-0.3h-1.5c0.2-1.1,0.6-2.1,1-3c0.4-0.9,1.1-1.4,2-1.5h0.3c0.2,0,0.4,0,0.5,0.1c0.2,0,0.2,0.1,0.2,0.3
	c-0.1,0.5-0.3,0.8-0.7,1c-0.4,0.2-0.6,0.5-0.7,1c0,0.4,0.2,0.8,0.5,1.1c0.3,0.3,0.7,0.5,1.1,0.5c0.6,0,1.1-0.3,1.4-0.9
	c0.3-0.6,0.5-1.2,0.5-1.9c0-0.9-0.3-1.7-0.9-2.3c-0.6-0.6-1.3-0.9-2.2-0.9c-1.7,0.1-3.2,0.7-4.5,2c-1.4,1.3-2.4,2.8-3,4.5h-1.9
	c-0.3,0-0.5,0.1-0.7,0.3c-0.2,0.2-0.3,0.4-0.3,0.7c0,0.3,0.1,0.5,0.3,0.7c0.2,0.2,0.4,0.3,0.7,0.3h1.3l-2.4,9.4
	c-0.2,0.8-0.5,1.5-0.9,2.2c-0.4,0.6-1,1-1.7,1h-0.2c-0.2,0-0.4,0-0.6-0.1c-0.2,0-0.2-0.2-0.3-0.3c0.1-0.5,0.3-0.8,0.7-1
	c0.4-0.2,0.6-0.5,0.7-1c0-0.4-0.2-0.8-0.5-1.1c-0.3-0.3-0.7-0.4-1.1-0.4c-0.6,0-1.1,0.3-1.4,0.9c-0.3,0.5-0.5,1.2-0.5,1.9
	c0,0.9,0.3,1.6,0.9,2.2c0.6,0.6,1.3,0.9,2.2,0.9c1.2,0,2.3-0.6,3.4-1.6c1.1-1,2-2.2,2.7-3.6c0.8-1.4,1.4-2.7,1.7-4L27,21z"/>
</svg>
