<svg xmlns="http://www.w3.org/2000/svg" viewBox="0 0 48 48"><path fill="#1f1f1f" d="m46.371 18.141-3.548-2.104c-1.662-.989-2.689-2.812-2.689-4.783V7.045c0-.862-.381-1.673-1.032-2.215A23.93 23.93 0 0 0 32.634.986a2.712 2.712 0 0 0-2.387.182l-3.553 2.11a5.243 5.243 0 0 1-5.377 0l-3.554-2.11a2.696 2.696 0 0 0-2.387-.182 23.86 23.86 0 0 0-6.462 3.839A2.881 2.881 0 0 0 7.882 7.04v4.208c0 1.972-1.022 3.795-2.688 4.783l-3.549 2.104a2.847 2.847 0 0 0-1.35 2.027A24.479 24.479 0 0 0 0 24.001c0 1.304.097 2.585.29 3.833.13.85.624 1.602 1.35 2.033l3.548 2.104c1.661.988 2.688 2.811 2.688 4.783v4.209c0 .861.382 1.673 1.033 2.214a23.946 23.946 0 0 0 6.462 3.839c.785.31 1.661.249 2.387-.182l3.554-2.11a5.244 5.244 0 0 1 5.376 0l3.554 2.11c.726.43 1.607.491 2.387.182a23.947 23.947 0 0 0 6.462-3.839 2.881 2.881 0 0 0 1.033-2.214v-4.21c0-1.97 1.027-3.794 2.688-4.782l3.548-2.104a2.846 2.846 0 0 0 1.35-2.033c.188-1.248.29-2.53.29-3.833 0-1.303-.097-2.585-.29-3.833a2.819 2.819 0 0 0-1.339-2.027zM24.005 38.82c-7.962 0-14.419-6.633-14.419-14.813S16.043 9.194 24.005 9.194c7.962 0 14.419 6.633 14.419 14.813S31.967 38.82 24.005 38.82z"/></svg>
