<svg xmlns="http://www.w3.org/2000/svg" xml:space="preserve" viewBox="0 0 48 48"><path fill="#b11107" stroke="none" d="M4.645 23.704H0V20.22h4.645v-2.71h-.774v-1.935h.774V14.8h1.936v.775h11.612c3.208-1.681 6.973-2.008 10.228-2.048 3.592-.046 3.778-.006 5.244.005 6.202.046 6.63.073 7.505-.065.353-.058.74.176.77.35.072.385-.732.832-.98.91-.772.245-2.153.356-5.91.573l-.09.002c-5.967.563-9.314 1.97-10.18 2.372-3.42 1.597-3.79 2.34-3.345 2.815.471.503 3.135-.603 4.44-.976 2.597-.74 4.126-.032 5.093.707h2.322v-.387h1.549v.387h13.16v3.484H34.84v2.71h11.225v1.935H34.84v6.193H33.29V28.35h-.774v-1.936h.774v-2.71h-.774c-.013 1.37-.414 2.625-.798 3.142-3.583 4.812-19.832 5.432-24.865 5.514-1.27.022-2.18-.191-2.208-.526m8.999-11.698c.217-.913.824-1.844 1.55-2.618l-8.505.034-.03 2.68 6.941.027.033.056m26.795-6.385c-.089-.044-4.606.208-4.86.185-.254-.023-2.975.016-4.467-.023a46.05 46.05 0 0 0-5.345.161c-1.743.162-3.544.704-5.033 1.328-1.416.593-2.828 1.339-3.936 2.216a6.02 6.02 0 0 0-1.385 1.558c-.439.693-.65 1.484-.358 2.147.315.715 1.02 1.03 1.893 1.166.793.124 1.766.058 2.39.185.37.075.977.175 1.015.53.035.324-.548.865-.82.994-.507.242-1.188.034-1.846-.104a8.661 8.661 0 0 1-1.547-.508c-.284-.13-.587-.233-.645-.233-.023 0-8.914-.023-8.903 0 0 .15-.012 7.396 0 7.742.012.383 1.332.27 2.149.19a105.77 105.77 0 0 0 4.814-.577 55.88 55.88 0 0 0 2.793-.485c1.454-.288 3.194-.693 3.917-.923 1.808-.578 3.678-1.085 5.387-1.824.768-.332 1.685-.75 2.308-1.178.665-.455 1.374-1.085 1.674-1.731.333-.718.436-1.582.093-2.366-.324-.74-1.213-1.397-1.986-1.524-.44-.072-.785-.116-1.212-.081-.491.04-1.327.22-1.881.289-.911.114-1.982.276-2.875.138-.6-.092-1.547-.866-1.212-1.766.246-.66 1.196-1.338 1.766-1.708 1.386-.9 3.877-1.687 6.014-2.194 1.8-.427 4.329-.773 6.464-.796.206-.002 2.135-.132 2.332-.139 3.244-.115 3.347-.646 3.301-.669"/></svg>