<svg xmlns="http://www.w3.org/2000/svg" viewBox="0 0 48 48"><g fill="#ab2327"><path d="M47.074 5.192a.937.937 0 0 0 .093-.004c.03-.002.055-.01.077-.021s.04-.029.054-.05.02-.051.02-.09a.12.12 0 0 0-.022-.077.143.143 0 0 0-.054-.043.231.231 0 0 0-.074-.019.888.888 0 0 0-.079-.004h-.208v.308zm-.193.597h-.173V4.737h.4a.48.48 0 0 1 .286.071c.065.047.097.125.097.231 0 .095-.026.165-.079.209a.356.356 0 0 1-.196.078l.295.463h-.196l-.271-.45h-.163zm.915-.544a.89.89 0 0 0-.056-.318.725.725 0 0 0-.386-.41.708.708 0 0 0-.285-.057.722.722 0 0 0-.521.219.745.745 0 0 0-.155.248.872.872 0 0 0-.056.318c0 .109.017.21.05.305s.083.178.147.25a.694.694 0 0 0 .535.23.708.708 0 0 0 .671-.466.875.875 0 0 0 .056-.319zm.203 0a.986.986 0 0 1-.075.39.9.9 0 0 1-.5.492.935.935 0 0 1-.355.069.965.965 0 0 1-.378-.072.882.882 0 0 1-.488-.501 1.004 1.004 0 0 1-.07-.378.964.964 0 0 1 .279-.689.951.951 0 0 1 1.31 0c.085.083.152.183.202.3s.075.247.075.39m-3.405-2.689c2.392 2.39-4.237 12.897-5.358 14.019-1.12 1.118-3.967.089-6.358-2.302-2.39-2.39-3.42-5.237-2.3-6.358 1.12-1.121 11.626-7.75 14.016-5.359M11.063 5.088C7.412 3.017 2.218.712.565 2.365-1.11 4.04 1.28 9.351 3.372 13.008a22.45 22.45 0 0 1 7.69-7.92"/><path d="M40.947 15.751c.336 1.14.276 2.083-.27 2.627-1.273 1.274-4.713-.082-7.813-3.034a15.645 15.645 0 0 1-.643-.606c-1.12-1.122-1.994-2.317-2.551-3.416-1.087-1.948-1.358-3.669-.537-4.49.447-.447 1.163-.568 2.036-.411a41.72 41.72 0 0 1 1.978-1.172A21.6 21.6 0 0 0 23.13 2.803c-11.988 0-21.707 9.717-21.707 21.706 0 11.987 9.719 21.706 21.707 21.706 11.988 0 21.706-9.719 21.706-21.706a21.61 21.61 0 0 0-2.791-10.65c-.383.7-.756 1.342-1.097 1.892"/></g></svg>