<svg xmlns="http://www.w3.org/2000/svg" xml:space="preserve" fill-rule="evenodd" clip-rule="evenodd" image-rendering="optimizeQuality" shape-rendering="geometricPrecision" text-rendering="geometricPrecision" viewBox="0 0 48 48"><path d="M27.826 25.188zm-.094.05zm-.15.07zm-8.516-6.348-4.68-4.68a2.142 2.142 0 0 1-.05-.064c1.573 1.573 3.153 3.16 4.73 4.744zm-4.522-7.92L18 7.585l-3.457 3.457zM18 7.584l-4.32-4.32c-.523-.523-1.312-.422-1.719-.015l-8.646 8.646c-.49.49-.457 1.266.002 1.726l.766.767L.73 11.035l.008-.009L11.093.673c.809-.81 2.271-.938 3.26-.11L24.98 11.19l-5.294-5.294L18 7.583zm-6.002 14.719c.04.034.08.066.123.096.457.311 1.067.288 1.528-.173l2.616-2.61 1.724 1.724-3.473 3.474c-1.147 1.147-2.697.766-3.46.004L.74 14.5a2.481 2.481 0 0 1 0-.001l10.316 10.317c.761.76 2.309 1.141 3.455 0zM0 12.802zm21.435 5.091 3.596 3.596-.004.004c-1.195-1.198-2.39-2.397-3.592-3.6zm-1.713-8.587 2.57 2.57zm1.31 5.55-.423.421-.02.02.02-.02z" style="fill:#78bf40" transform="translate(0 2.366) scale(1.6944)"/><path d="M48 44.383c-1.25 1.345-3.997 1.84-5.833.004-5.91-5.91-11.92-11.977-17.876-17.935-1.126-1.507-1.205-3.822.352-5.38l5.858-5.857-.001-.001 2.857-2.857 8.969 8.969c1.217 1.46 1.457 3.895-.17 5.522l-5.835 5.835c3.912 3.912 7.767 7.794 11.68 11.7zm-16.05-16.07-2.898-2.898c-.75-.75-.862-2.054.002-2.918l4.364-4.364 4.354 4.354c.791.791.875 2.046.007 2.912-.952.95-1.905 1.9-2.857 2.852l-.069.068a2.057 2.057 0 0 1-2.903-.006zm-7.362 16.099c-1.943 1.934-4.565 1.29-5.854 0L1.253 26.931c-1.586-1.586-1.748-4.123-.016-5.87l11.416 11.417 7.567 7.57c.026.027.054.053.082.078l4.286 4.286z" style="fill:#00689e"/></svg>