<svg xmlns="http://www.w3.org/2000/svg" viewBox="0 0 48 48"><defs><clipPath id="freenas_svg__a"><path d="M0 42.493h180.37V.06H0Z"/></clipPath></defs><g fill="#343434"><path d="M39.196 5.441h.286c.12 0 .201.02.248.064a.219.219 0 0 1 .069.166c0 .09-.035.153-.102.193a.625.625 0 0 1-.306.06h-.195zm0 .783h.18l.428.673h.407l-.485-.713V6.17a.584.584 0 0 0 .323-.162.477.477 0 0 0 .117-.337.49.49 0 0 0-.06-.25c-.04-.068-.093-.121-.16-.164s-.143-.072-.228-.09a1.253 1.253 0 0 0-.266-.027h-.606v1.757h.35v-.673"/><g clip-path="url(#freenas_svg__a)" transform="matrix(.93014 0 0 -.93014 0 43.79)"><path d="M41.098 41.178c.068.182.164.34.293.473.126.133.279.239.455.316.179.078.376.115.595.115.218 0 .415-.037.595-.115a1.37 1.37 0 0 0 .748-.789 1.6 1.6 0 0 0 .105-.58c0-.206-.035-.399-.105-.582a1.366 1.366 0 0 0-.748-.787 1.46 1.46 0 0 0-.595-.116 1.414 1.414 0 0 0-1.05.431c-.129.133-.225.29-.293.472a1.59 1.59 0 0 0-.105.582c0 .205.034.398.105.58zm.028-1.9c.167-.164.362-.292.588-.385.226-.092.468-.138.727-.138s.502.046.728.138c.225.093.419.221.585.385a1.84 1.84 0 0 1 .535 1.32 1.837 1.837 0 0 1-.535 1.319c-.166.165-.36.292-.585.385-.226.092-.469.138-.728.138s-.501-.046-.727-.138a1.796 1.796 0 0 1-.588-.385 1.769 1.769 0 0 1-.389-.583 1.82 1.82 0 0 1-.143-.736c0-.268.045-.513.143-.738.094-.226.224-.418.389-.582"/><path d="M37.119 12.7c-.492-1.086-1.184-1.959-2.001-2.612A6.89 6.89 0 0 0 30.8 8.593c-1.942 0-3.877.793-5.21 2.332a4.293 4.293 0 0 0-.945 1.838 4.786 4.786 0 0 0-.128 1.117c.004 1.837.92 3.677 1.817 5.079.452.702.899 1.294 1.237 1.707l.448-.547c.022-.029.047-.062.078-.099a16.211 16.211 0 0 1 2.421-2.328c1.647-1.284 3.978-2.574 6.722-2.643.025 0 .05-.007.075-.009a.345.345 0 0 0 .41-.407 8.562 8.562 0 0 0-.606-1.933zm14.448 15.104v.001a11.553 11.553 0 0 0-1.766-1.948c-1.616-1.428-4.163-2.888-7.846-3.086L40.87 20.78a.37.37 0 0 0-.642-.016l-1.249 2.051a22.215 22.215 0 0 0-3.887-.361c-2.958.064-3.886.519-4.865 1.143l3.308 4.456-7.094 1.643 8.894 1.709c2.597 5.24 3.403 9.722 3.601 11.088-9.972-1.104-17.42-3.58-22.209-5.657l-.385-.17-.073-.031-.535.518c-.13.109-.288.237-.472.38a20.058 20.058 0 0 1-2.664 1.737c-2.311 1.266-5.638 2.529-9.712 2.529-.621 0-1.267-.02-1.923-.092-1.056-.066-.545-.329-.417-.436.485-.398 1.17-1.234 1.62-2.392.454-1.163.761-2.73.761-4.846 0-.591-.026-1.245-.077-1.926-.42-.781-.81-1.595-1.16-2.436C.668 27.21 0 24.518 0 21.747c0-4.926 1.936-9.414 4.689-13.061l.373-.563-2.913-5.806a.135.135 0 0 1 .045-.172.132.132 0 0 1 .076-.022c.037 0 .074.015.1.044l4.551 4.006.533-.517A21.716 21.716 0 0 1 22.101 0c9.711 0 17.936 6.35 20.754 15.12l.62.266c.13.046.322.118.559.219.477.2 1.139.519 1.875.974 1.471.911 3.23 2.38 4.398 4.604.777 1.481 1.298 3.302 1.298 5.542 0 .351-.013.709-.038 1.079"/></g></g></svg>