<svg xmlns="http://www.w3.org/2000/svg" viewBox="0 0 48 48"><path d="M9.004 45.451c.173 1.385 1.624 2.327.758 2.544-.866.216-4.655-6.874-5.52-9.904s-1.354-6.44-1.137-8.389c.216-1.948 11.419-4.98 11.419-5.79s-3.626-.055-3.789-.704c-.162-.65 2.739-.26 3.518-1.3 1.218-1.623 2.76-1.352 3.735-2.218.974-.866 2.164-4.168 2.38-5.575.217-1.407-2.164-3.03-2.813-4.113-.65-1.082 1.407-1.84 6.386-3.897C28.92 4.05 44.723-.497 44.94.044s-5.196 2.814-8.984 4.221c-3.789 1.407-9.958 4.114-9.958 4.871 0 .758.324 1.353.108 3.085-.217 1.732-.243 2.54-.65 3.68-.27.758-.54 2.544 0 4.168.433 1.298 1.84 2.273 2.49 2.489.541.036 2.035.087 3.68 0 2.057-.108 4.98.108 4.98.65 0 .54-4.439.216-4.439.974s4.546-.109 4.438.65-3.788.432-5.737.432c-1.558 0-3.86-.072-4.87-.433l-.217.758c-.36 0-1.115.216-1.894.216-.974 0-1.028.325-2.814.325s-1.245-.108-2.869-.216-7.685 4.546-8.767 6.061c-1.083 1.515-.433 5.196-.433 6.873 0 1.508-.217 4.871 0 6.603z"/></svg>