<svg xmlns="http://www.w3.org/2000/svg" viewBox="0 0 48 48"><defs id="garage_svg__defs1"><style id="garage_svg__style1">.garage_svg__cls-3{fill:#45c8ff}</style></defs><path id="garage_svg__path1" fill="#ffd952" d="M24.002 7.644a5.3 5.3 0 0 0-2.09.451L.59 17.53a.77.77 0 0 0-.404 1.031.4.4 0 0 0 .032.086L3.64 25.41h2.969l-.422-2.358a36 36 0 0 0-.635-2.507l9.98 3.117c.13.622.305 1.202.512 1.748h16.181a11 11 0 0 0 .415-1.748l9.958-3.108a35 35 0 0 0-.631 2.498l-.422 2.358h2.968l3.39-6.702.031-.061.033-.083v-.022a.7.7 0 0 0 .032-.248.76.76 0 0 0-.48-.764L26.198 8.095a5.3 5.3 0 0 0-2.195-.45" style="stroke-width:.267783"/><path id="garage_svg__path2" d="m30.868 29.083 9.22-3.71a.39.39 0 0 0 0-.726c-1.071-.448-2.394-.962-3.69-1.5-.238-.099-2.496 1.521-2.702 1.687l-3.974 3.176c-.961.806-.128 1.585 1.146 1.074z" class="garage_svg__cls-3" style="stroke-width:.267783"/><circle id="garage_svg__circle2" cx="24.184" cy="32.71" r="4.806" class="garage_svg__cls-3" style="stroke-width:.267783"/><path id="garage_svg__path3" fill="#ff9329" d="M24.002 7.644a5.3 5.3 0 0 0-2.09.451L.59 17.53a.77.77 0 0 0-.404 1.031.4.4 0 0 0 .032.086L3.64 25.41h2.969l-.422-2.358a36 36 0 0 0-.635-2.507l9.98 3.117c.13.622.305 1.202.512 1.748h16.181a11 11 0 0 0 .415-1.748l9.958-3.108a35 35 0 0 0-.631 2.498l-.422 2.358h2.968l3.39-6.702.031-.061.033-.083v-.022a.7.7 0 0 0 .032-.248.76.76 0 0 0-.48-.764L26.198 8.095a5.3 5.3 0 0 0-2.195-.45" style="stroke-width:.267783"/><path id="garage_svg__path4" fill="#4e4e4e" d="M24.002 12.107a5.3 5.3 0 0 0-2.09.452L.59 21.992a.77.77 0 0 0-.404 1.03.4.4 0 0 0 .032.086l1.856 3.667h3.943a32 32 0 0 0-.465-1.769l5.664 1.77h25.74l5.64-1.761a31 31 0 0 0-.461 1.76h3.942L47.9 23.17l.032-.061.033-.083v-.022a.7.7 0 0 0 .032-.248.76.76 0 0 0-.48-.763l-21.323-9.434a5.3 5.3 0 0 0-2.194-.45z" style="stroke-width:.267783"/><path id="garage_svg__path5" d="M47.881 27.306a.7.7 0 0 1-.032.249v.021l-.032.083-.032.062-5.16 10.202c-.717 1.416-2.038 1.373-1.815-.06l1.039-5.8c.034-.19.34-1.528.632-2.497l-9.959 3.109c-1.564 10.156-14.928 10.325-17.107 0l-9.98-3.117c.292.97.6 2.316.634 2.506l1.04 5.8c.222 1.433-1.098 1.475-1.816.059L.101 27.659a.4.4 0 0 1-.032-.085.77.77 0 0 1 .404-1.031l21.323-9.434a5.3 5.3 0 0 1 4.284 0l21.322 9.434a.76.76 0 0 1 .48.763z" style="stroke-width:.267783;fill:#ff9329;fill-opacity:1"/><path id="garage_svg__path6" fill="#4e4e4e" d="m30.868 29.083 9.22-3.71a.39.39 0 0 0 0-.726c-1.071-.448-2.394-.962-3.69-1.5-.238-.099-2.496 1.521-2.702 1.687l-3.974 3.176c-.961.806-.128 1.585 1.146 1.074z" class="garage_svg__cls-3" style="stroke-width:.267783;fill:#4e4e4e;fill-opacity:1"/><circle id="garage_svg__circle6" cx="24.184" cy="32.71" r="4.806" fill="#4e4e4e" class="garage_svg__cls-3" style="stroke-width:.267783;fill:#4e4e4e;fill-opacity:1"/></svg>