<svg xmlns="http://www.w3.org/2000/svg" xml:space="preserve" fill-rule="evenodd" stroke-linejoin="round" stroke-miterlimit="1.414" clip-rule="evenodd" viewBox="0 0 48 48"><path fill="url(#gentoolinux_svg__a)" d="M13.83 315.95c.043-16.447 14.024-39.408 33.889-60.268 13.276-13.941 26.759-26.178 56.15-51.238-20.33-11.156-51.95-24.615-67.815-42.242-5.87-6.522-16.511-21.298-14.447-41.039 4.206-40.236 53.869-101.3 124.46-114.21 23.488-4.296 50.455-1.195 72.65 8.783 69.629 31.304 154.78 109.07 165.26 147.05 3.688 13.366 2.979 34.671-3.379 46.545-7.879 14.716-35.156 44.606-72.475 75.449-58.556 48.394-140.61 100.36-201.88 109.1-19.798 2.826-40.024-.121-54.218-8.13-22.209-12.532-29.581-29.262-32.172-34.277-6.891-13.334-6.036-30.228-6.021-35.525zm164.8-184.78c.756-9.325 37.321-.042 35.011 7.343-2.437 7.791-35.879 3.354-35.011-7.343z" transform="translate(-.624 -.624) scale(.12312)"/><path fill="url(#gentoolinux_svg__b)" d="M123.66 189.04c-19.242 16.246-32.036 27.2-48.075 41.86-38.626 35.304-64.871 62.176-51.34 98.909 15.609 42.374 49.824 40.226 89.947 32.35 103.42-20.398 273.43-151.1 264.76-199.37-7.012-39.061-101.99-116.72-158.23-144.36-17.569-8.634-37.816-13.099-58.124-12.143-77.327 3.65-137.72 74.052-134.63 112.2 3.001 37.11 96.795 69.446 95.688 70.553zM112.053 59.49c-23.268 25.888-8.392 75.974 30.195 103.27 45.152 31.945 118.27 37.729 132.82 13.093 27.14-45.952-2.493-94.54-46.727-116.21-43.711-21.418-101.78-16.29-116.29-.153z" transform="translate(-.624 -.624) scale(.12312)"/><path fill="url(#gentoolinux_svg__c)" d="M191.4 161.67c32.666 4.541 60.822-8.541 65.225-40.798 3.354-24.571-34.25-51.417-56.859-57.608-18.88-5.171-59.869 1.478-62.633 37.186-2.872 37.121 35.22 58.573 54.267 61.22zm-15.996-61.739c-21.468 33.258 31.169 43.483 39.228 37.418 34.744-26.149-29.77-52.07-39.228-37.418z" transform="translate(-.624 -.624) scale(.12312)"/><path fill="url(#gentoolinux_svg__d)" d="M156.37 15.122c-37.974 4.001-45.246 8.889-79.647 34.916-11.53 8.723-32.75 29.948-38.187 55.128-2.071 9.59.377 17.87 7.283 23.676 22.116 18.593 59.131 33.677 89.498 48.259 8.894 4.271 3.005 12.015-11.338 24.432-36.194 31.334-85.128 69.476-88.544 98.54-1.61 13.695 3.079 32.305 19.702 41.828 19.419 11.125 59.729 3.864 86.646-6.159 39.334-14.647 91.003-46.973 132.02-78.748 42.655-33.043 82.316-75.011 84.277-81.856 2.409-8.406 2.169-16.169-2.48-25.096-7.301-14.017-17.062-24.432-27.542-36.091-28.122-29.647-57.876-55.697-93.475-75.66-25.707-14.416-48.325-26.319-78.216-23.169zm55.781 66.466c27.434 13.263 55.606 48.102-.245 68.154-15.187 5.453-63.352-13.391-61.878-39.107 2.15-37.987 28.625-45.242 62.123-29.047z" transform="translate(-.624 -.624) scale(.12312)"/><defs><radialGradient id="gentoolinux_svg__c" cx="0" cy="0" r="1" gradientTransform="matrix(65.776 0 0 50.415 169.62 91.661)" gradientUnits="userSpaceOnUse"><stop offset="0" stop-color="#fff"/><stop offset=".34" stop-color="#fff"/><stop offset=".51" stop-color="#bebbdb"/><stop offset=".75" stop-color="#928bbe"/><stop offset=".87" stop-color="#9f99c7"/><stop offset="1" stop-color="#524c76"/></radialGradient><radialGradient id="gentoolinux_svg__d" cx="0" cy="0" r="1" gradientTransform="matrix(-9.0171 572.14 -487.96 -7.683 19.969 107.8)" gradientUnits="userSpaceOnUse"><stop offset="0" stop-color="#fff"/><stop offset=".34" stop-color="#fff"/><stop offset=".51" stop-color="#bebbdb"/><stop offset=".75" stop-color="#928bbe"/><stop offset=".87" stop-color="#9f99c7"/><stop offset="1" stop-color="#524c76"/></radialGradient><linearGradient id="gentoolinux_svg__a" x2="1" gradientTransform="rotate(79.191 513.61 -470.326) scale(1304.75)" gradientUnits="userSpaceOnUse"><stop offset="0" stop-color="#fff"/><stop offset=".34" stop-color="#fff"/><stop offset=".51" stop-color="#bebdf3"/><stop offset=".75" stop-color="#867fb7"/><stop offset=".87" stop-color="#9f99c7"/><stop offset="1" stop-color="#524c76"/></linearGradient><linearGradient id="gentoolinux_svg__b" x2="1" gradientTransform="rotate(-102.573 245.637 43.839) scale(339.53)" gradientUnits="userSpaceOnUse"><stop offset="0" stop-color="#fff"/><stop offset=".34" stop-color="#fff"/><stop offset=".51" stop-color="#bebbdb"/><stop offset=".75" stop-color="#928bbe"/><stop offset=".87" stop-color="#9f99c7"/><stop offset="1" stop-color="#524c76"/></linearGradient></defs></svg>