<svg xmlns="http://www.w3.org/2000/svg" xmlns:xlink="http://www.w3.org/1999/xlink" width="48" height="48" style="enable-background:new" version="1.0"><defs><radialGradient xlink:href="#a" id="aH" cx="170.059" cy="55.712" r="14.849" fx="170.059" fy="55.712" gradientTransform="matrix(1.62363 -1.43738 1.49984 1.69418 -186.613 203.765)" gradientUnits="userSpaceOnUse"/><radialGradient xlink:href="#b" id="aG" cx="184.188" cy="75.323" r="2" fx="184.188" fy="75.323" gradientTransform="matrix(1.40625 -.03125 .05664 2.54883 -79.093 -110.543)" gradientUnits="userSpaceOnUse"/><radialGradient xlink:href="#c" id="aF" cx="115.75" cy="234.591" r="60.25" fx="115.75" fy="234.591" gradientTransform="matrix(-.64425 -.49533 .31535 -.41015 159.529 378.64)" gradientUnits="userSpaceOnUse"/><radialGradient xlink:href="#e" id="aD" cx="60.32" cy="192.487" r="12.625" fx="60.32" fy="192.487" gradientTransform="matrix(-.49154 -.08773 -.0912 .511 280.422 115.577)" gradientUnits="userSpaceOnUse"/><radialGradient xlink:href="#e" id="aC" cx="60.32" cy="192.487" r="12.625" fx="60.32" fy="192.487" gradientTransform="matrix(-.40626 -.1882 -.1796 .46012 289.32 121.064)" gradientUnits="userSpaceOnUse"/><radialGradient xlink:href="#f" id="aB" cx="147.25" cy="101.5" r="70.75" fx="147.25" fy="101.5" gradientTransform="matrix(-.49457 .0686 .06544 .47185 242.623 97.03)" gradientUnits="userSpaceOnUse"/><radialGradient xlink:href="#g" id="aA" cx="37.875" cy="200.75" r="14.625" fx="37.875" fy="200.75" gradientTransform="matrix(1 0 0 1.23077 33.25 -53.577)" gradientUnits="userSpaceOnUse"/><radialGradient xlink:href="#e" id="az" cx="60.32" cy="192.487" r="12.625" fx="60.32" fy="192.487" gradientTransform="matrix(-.49457 .0686 .07131 .51416 239.055 96.804)" gradientUnits="userSpaceOnUse"/><radialGradient xlink:href="#e" id="ay" cx="60.32" cy="192.487" r="12.625" fx="60.32" fy="192.487" gradientTransform="matrix(-.48033 -.13634 -.14174 .49935 282.874 109.662)" gradientUnits="userSpaceOnUse"/><radialGradient xlink:href="#e" id="ax" cx="60.32" cy="192.487" r="12.625" fx="60.32" fy="192.487" gradientTransform="matrix(-.45949 -.19538 -.20312 .47769 296.81 120.679)" gradientUnits="userSpaceOnUse"/><radialGradient xlink:href="#h" id="aw" cx="158.5" cy="116.719" r="8.5" fx="158.5" fy="116.719" gradientTransform="matrix(2.32528 -.8465 .60997 1.67557 -294.439 52.466)" gradientUnits="userSpaceOnUse"/><radialGradient xlink:href="#i" id="av" cx="156.125" cy="118.5" r="11.125" fx="156.125" fy="118.5" gradientTransform="matrix(.93967 -.34208 .26905 .73907 -32.213 75.984)" gradientUnits="userSpaceOnUse"/><radialGradient xlink:href="#h" id="au" cx="158.5" cy="116.719" r="8.5" fx="158.5" fy="116.719" gradientTransform="matrix(.93967 -.34208 .2465 .67712 -30.084 83.293)" gradientUnits="userSpaceOnUse"/><radialGradient xlink:href="#j" id="at" cx="154.625" cy="121.543" r="11.125" fx="154.625" fy="121.543" gradientTransform="matrix(1.30337 0 0 1.02512 -47.034 -3.471)" gradientUnits="userSpaceOnUse"/><radialGradient xlink:href="#o" id="ak" cx="14.755" cy="39.448" r="7.579" fx="14.755" fy="39.448" gradientTransform="matrix(-1.69993 -3.8273 1.0368 -.46027 211.648 270.555)" gradientUnits="userSpaceOnUse"/><radialGradient xlink:href="#q" id="ah" cx="204.161" cy="82.396" r="6.627" fx="204.161" fy="82.396" gradientTransform="matrix(.95236 .30499 -1.308 4.08435 119.686 -321.645)" gradientUnits="userSpaceOnUse"/><radialGradient xlink:href="#r" id="ag" cx="200.292" cy="86.399" r="6.627" fx="200.292" fy="86.399" gradientTransform="matrix(2.99713 .0303 -.05041 4.98652 -398.072 -344.899)" gradientUnits="userSpaceOnUse"/><radialGradient xlink:href="#r" id="af" cx="202.373" cy="86.136" r="6.627" fx="202.373" fy="86.136" gradientTransform="matrix(2.99522 -.11118 .0877 2.36253 -411.332 -90.499)" gradientUnits="userSpaceOnUse"/><radialGradient xlink:href="#s" id="ae" cx="4.066" cy="21.483" r="1.768" fx="4.066" fy="21.483" gradientTransform="matrix(2.84615 -.07824 .09466 3.41538 -9.54 -51.926)" gradientUnits="userSpaceOnUse"/><radialGradient xlink:href="#s" id="ad" cx="4.066" cy="21.483" r="1.768" fx="4.066" fy="21.483" gradientTransform="matrix(2.84615 -.07824 .09466 3.41538 -9.54 -51.926)" gradientUnits="userSpaceOnUse"/><radialGradient xlink:href="#t" id="ac" cx="21.587" cy="20.331" r="1.768" fx="21.587" fy="20.331" gradientTransform="matrix(1.59496 .03703 -.03734 1.59496 -12.084 -12.896)" gradientUnits="userSpaceOnUse"/><radialGradient xlink:href="#u" id="aa" cx="203.647" cy="500.904" r="478.004" fx="203.647" fy="500.904" gradientTransform="matrix(1 0 0 .58876 0 219.335)" gradientUnits="userSpaceOnUse"/><radialGradient xlink:href="#v" id="Z" cx="181.893" cy="356.048" r="478.004" fx="181.893" fy="356.048" gradientTransform="matrix(1.11086 0 0 .7667 1.589 146.436)" gradientUnits="userSpaceOnUse"/><radialGradient xlink:href="#t" id="Y" cx="21.587" cy="20.331" r="1.768" fx="21.587" fy="20.331" gradientTransform="matrix(1.59496 .03703 -.03734 1.59496 -12.084 -12.896)" gradientUnits="userSpaceOnUse"/><radialGradient xlink:href="#w" id="ab" cx="173.948" cy="99.426" r="12.374" fx="173.948" fy="99.426" gradientUnits="userSpaceOnUse"/><radialGradient xlink:href="#u" id="V" cx="203.647" cy="500.904" r="478.004" fx="203.647" fy="500.904" gradientTransform="matrix(1 0 0 .58876 0 219.335)" gradientUnits="userSpaceOnUse"/><radialGradient xlink:href="#v" id="U" cx="181.893" cy="356.048" r="478.004" fx="181.893" fy="356.048" gradientTransform="matrix(1.11086 0 0 .7667 1.589 146.436)" gradientUnits="userSpaceOnUse"/><radialGradient xlink:href="#x" id="T" cx="106.42" cy="104.018" r="51.972" fx="106.42" fy="104.018" gradientTransform="matrix(.99984 .01762 -.0136 .77215 1.432 -7.74)" gradientUnits="userSpaceOnUse"/><radialGradient xlink:href="#y" id="S" cx="401" cy="675.862" r="186" fx="401" fy="675.862" gradientTransform="matrix(.90735 0 0 .37903 37.155 419.688)" gradientUnits="userSpaceOnUse"/><radialGradient xlink:href="#y" id="R" cx="401" cy="675.862" r="186" fx="401" fy="675.862" gradientTransform="matrix(1 0 0 .37903 0 419.689)" gradientUnits="userSpaceOnUse"/><radialGradient xlink:href="#z" id="Q" cx="6.024" cy="25.271" r="4.831" fx="6.024" fy="25.271" gradientTransform="matrix(-1.2392 -.01453 .03198 -1.93792 12.681 73.615)" gradientUnits="userSpaceOnUse"/><radialGradient xlink:href="#A" id="M" cx="94.25" cy="136.638" r="32.25" fx="94.25" fy="136.638" gradientTransform="matrix(1 0 0 .52988 29.184 105.431)" gradientUnits="userSpaceOnUse"/><radialGradient xlink:href="#y" id="L" cx="401" cy="675.862" r="186" fx="401" fy="675.862" gradientTransform="matrix(.90735 0 0 .37903 37.155 419.688)" gradientUnits="userSpaceOnUse"/><radialGradient xlink:href="#y" id="K" cx="401" cy="675.862" r="186" fx="401" fy="675.862" gradientTransform="matrix(1 0 0 .37903 0 419.689)" gradientUnits="userSpaceOnUse"/><radialGradient xlink:href="#B" id="J" cx="164.91" cy="167.153" r="27.063" fx="164.91" fy="167.153" gradientTransform="matrix(1.96386 -1.1593 .25614 .4339 -217.927 249.385)" gradientUnits="userSpaceOnUse"/><radialGradient xlink:href="#D" id="H" cx="21.333" cy="22.79" r="19.229" fx="21.333" fy="22.79" gradientTransform="matrix(5.97618 0 0 4.95795 -12.673 -21.216)" gradientUnits="userSpaceOnUse"/><radialGradient xlink:href="#y" id="G" cx="401" cy="675.862" r="186" fx="401" fy="675.862" gradientTransform="matrix(.90735 0 0 .37903 37.155 419.688)" gradientUnits="userSpaceOnUse"/><radialGradient xlink:href="#y" id="F" cx="401" cy="675.862" r="186" fx="401" fy="675.862" gradientTransform="matrix(1 0 0 .37903 0 419.689)" gradientUnits="userSpaceOnUse"/><radialGradient xlink:href="#E" id="aI" cx="60.625" cy="180.014" r="18.375" fx="60.625" fy="180.014" gradientTransform="matrix(1 0 0 .3069 -25.003 81.825)" gradientUnits="userSpaceOnUse"/><radialGradient xlink:href="#w" id="X" cx="173.948" cy="99.426" r="12.374" fx="173.948" fy="99.426" gradientUnits="userSpaceOnUse"/><linearGradient id="E"><stop offset="0" style="stop-color:#fff;stop-opacity:1"/><stop offset="1" style="stop-color:#fff;stop-opacity:0"/></linearGradient><linearGradient id="a"><stop offset="0" style="stop-color:#fff;stop-opacity:1"/><stop offset="1" style="stop-color:#fff;stop-opacity:0"/></linearGradient><linearGradient id="b"><stop offset="0" style="stop-color:#000;stop-opacity:1"/><stop offset="1" style="stop-color:#000;stop-opacity:0"/></linearGradient><linearGradient id="c"><stop offset="0" style="stop-color:#fff;stop-opacity:1"/><stop offset="1" style="stop-color:#fff;stop-opacity:0"/></linearGradient><linearGradient id="d"><stop offset="0" style="stop-color:#000;stop-opacity:1"/><stop offset="1" style="stop-color:#000;stop-opacity:0"/></linearGradient><linearGradient xlink:href="#d" id="aE" x1="169.175" x2="173.241" y1="148.785" y2="154.442" gradientTransform="translate(29.184 44.744)" gradientUnits="userSpaceOnUse"/><linearGradient id="f"><stop offset="0" style="stop-color:#fff;stop-opacity:1"/><stop offset="1" style="stop-color:#fff;stop-opacity:0"/></linearGradient><linearGradient id="g"><stop offset="0" style="stop-color:#fff;stop-opacity:1"/><stop offset="1" style="stop-color:#fff;stop-opacity:0"/></linearGradient><linearGradient id="e"><stop offset="0" style="stop-color:#000;stop-opacity:1"/><stop offset="1" style="stop-color:#000;stop-opacity:0"/></linearGradient><linearGradient id="i"><stop offset="0" style="stop-color:#fff;stop-opacity:1"/><stop offset="1" style="stop-color:#fff;stop-opacity:0"/></linearGradient><linearGradient id="h"><stop offset="0" style="stop-color:#fff;stop-opacity:1"/><stop offset="1" style="stop-color:#fff;stop-opacity:0"/></linearGradient><linearGradient id="j"><stop offset="0" style="stop-color:#000;stop-opacity:1"/><stop offset="1" style="stop-color:#000;stop-opacity:0"/></linearGradient><linearGradient id="k"><stop offset="0" style="stop-color:#bdbdbd;stop-opacity:1"/><stop offset=".333" style="stop-color:#e2e2e2;stop-opacity:1"/><stop offset=".667" style="stop-color:#a3a3a3;stop-opacity:1"/><stop offset="1" style="stop-color:#ddd;stop-opacity:1"/></linearGradient><linearGradient xlink:href="#k" id="ao" x1="24.505" x2="20.655" y1="31.019" y2="27.741" gradientTransform="scale(-4.40219) rotate(-25.067 -119.307 133.106)" gradientUnits="userSpaceOnUse"/><linearGradient id="l"><stop offset="0" style="stop-color:#fff;stop-opacity:1"/><stop offset="1" style="stop-color:#fff;stop-opacity:0"/></linearGradient><linearGradient xlink:href="#l" id="an" x1="144.5" x2="92.5" y1="127" y2="213.75" gradientUnits="userSpaceOnUse"/><linearGradient id="m"><stop offset="0" style="stop-color:#d87711;stop-opacity:1"/><stop offset=".242" style="stop-color:#f3ae66;stop-opacity:1"/><stop offset=".621" style="stop-color:#713e08;stop-opacity:1"/><stop offset="1" style="stop-color:#e07c12;stop-opacity:1"/></linearGradient><linearGradient xlink:href="#m" id="am" x1="30.386" x2="24.873" y1="24.775" y2="20.352" gradientTransform="scale(-4.40219) rotate(-25.067 -119.307 133.106)" gradientUnits="userSpaceOnUse"/><linearGradient id="n"><stop offset="0" style="stop-color:#fff;stop-opacity:1"/><stop offset="1" style="stop-color:#fff;stop-opacity:0"/></linearGradient><linearGradient xlink:href="#n" id="al" x1="13.236" x2="7.752" y1="37.752" y2="42.282" gradientTransform="scale(-3.75197) rotate(-23.963 -126.525 139.672)" gradientUnits="userSpaceOnUse"/><linearGradient id="o"><stop offset="0" style="stop-color:#696969;stop-opacity:1"/><stop offset="1" style="stop-color:#000;stop-opacity:1"/></linearGradient><linearGradient id="p"><stop offset="0" style="stop-color:#eac586;stop-opacity:1"/><stop offset="1" style="stop-color:#eac586;stop-opacity:0"/></linearGradient><linearGradient xlink:href="#p" id="aj" x1="38.289" x2="36.611" y1="5.254" y2="7.331" gradientTransform="matrix(-2.13725 .07215 .9828 2.10804 217.29 112.357)" gradientUnits="userSpaceOnUse"/><linearGradient id="q"><stop offset="0" style="stop-color:#fff;stop-opacity:1"/><stop offset="1" style="stop-color:#fff;stop-opacity:0"/></linearGradient><linearGradient id="r"><stop offset="0" style="stop-color:#23211a;stop-opacity:1"/><stop offset="1" style="stop-color:#23211a;stop-opacity:0"/></linearGradient><linearGradient id="s"><stop offset="0" style="stop-color:#fff;stop-opacity:1"/><stop offset="1" style="stop-color:#fff;stop-opacity:0"/></linearGradient><linearGradient id="t"><stop offset="0" style="stop-color:#fff;stop-opacity:1"/><stop offset="1" style="stop-color:#fff;stop-opacity:0"/></linearGradient><linearGradient id="w"><stop offset="0" style="stop-color:#596569;stop-opacity:1"/><stop offset="1" style="stop-color:#2e3436;stop-opacity:1"/></linearGradient><linearGradient id="u"><stop offset="0" style="stop-color:#000;stop-opacity:0"/><stop offset=".881" style="stop-color:#000;stop-opacity:0"/><stop offset="1" style="stop-color:#000;stop-opacity:1"/></linearGradient><linearGradient id="v"><stop offset="0" style="stop-color:#fff;stop-opacity:1"/><stop offset=".833" style="stop-color:#c3c3c3;stop-opacity:1"/><stop offset="1" style="stop-color:#f0f0f0;stop-opacity:1"/></linearGradient><linearGradient id="x"><stop offset="0" style="stop-color:#fff;stop-opacity:1"/><stop offset="1" style="stop-color:#fff;stop-opacity:0"/></linearGradient><linearGradient id="z"><stop offset="0" style="stop-color:#5b676b;stop-opacity:1"/><stop offset=".816" style="stop-color:#000;stop-opacity:1"/><stop offset="1" style="stop-color:#606e73;stop-opacity:1"/></linearGradient><linearGradient id="A"><stop offset="0" style="stop-color:#c0baab;stop-opacity:1"/><stop offset="1" style="stop-color:#bfb9a9;stop-opacity:.17647059"/></linearGradient><linearGradient id="B"><stop offset="0" style="stop-color:black;stop-opacity:1"/><stop offset="1" style="stop-color:black;stop-opacity:0"/></linearGradient><linearGradient id="C"><stop offset="0" style="stop-color:#fff;stop-opacity:1"/><stop offset="1" style="stop-color:#fff;stop-opacity:0"/></linearGradient><linearGradient xlink:href="#C" id="I" x1="175.655" x2="151.718" y1="158.667" y2="155.595" gradientTransform="translate(29.184 44.744)" gradientUnits="userSpaceOnUse"/><linearGradient id="D"><stop offset="0" style="stop-color:#b5ae9c;stop-opacity:1"/><stop offset=".342" style="stop-color:#8e8469;stop-opacity:1"/><stop offset=".642" style="stop-color:#39352a;stop-opacity:1"/><stop offset="1" style="stop-color:#5c5443;stop-opacity:1"/></linearGradient><linearGradient id="y"><stop offset="0" style="stop-color:#000;stop-opacity:1"/><stop offset="1" style="stop-color:#000;stop-opacity:0"/></linearGradient><filter id="as" width="1.4" height="1.287" x="-.2" y="-.144"><feGaussianBlur stdDeviation=".957"/></filter><filter id="ar" width="1.772" height="1.772" x="-.386" y="-.386"><feGaussianBlur stdDeviation=".402"/></filter><filter id="aq" width="1.118" height="1.139" x="-.059" y="-.069"><feGaussianBlur stdDeviation=".263"/></filter><filter id="ap" width="1.426" height="1.339" x="-.213" y="-.17"><feGaussianBlur stdDeviation="1.124"/></filter><filter id="W" width="1.324" height="1.7" x="-.162" y="-.35"><feGaussianBlur stdDeviation="8.172"/></filter><filter id="N" width="1.044" height="1.054" x="-.022" y="-.027"><feGaussianBlur stdDeviation="1.374"/></filter><clipPath id="ai" clipPathUnits="userSpaceOnUse"><path d="M126 141.25c13.634-.029 30.696-3.486 43.875-22L254.5 182l3.5 78.5-99-51z" style="display:inline;overflow:visible;visibility:visible;opacity:.578313;fill:#000;fill-opacity:1;fill-rule:evenodd;stroke:none;stroke-width:20;stroke-linecap:round;stroke-linejoin:miter;stroke-miterlimit:4;stroke-dasharray:none;stroke-dashoffset:0;stroke-opacity:1;marker:none;marker-start:none;marker-mid:none;marker-end:none;enable-background:accumulate"/></clipPath><clipPath id="O" clipPathUnits="userSpaceOnUse"><path d="M78.352 58.82s14.636 30.307 48.877 29.452c71.754-1.808 84.337-39.393 86.137-44.816 1.8-5.423 4.555-4.601 5.191.41 23.403 213.296-162.409 121.78-169.008 85.45 29.404-9.345 27.403-20.132 27.903-31.632Z" style="display:inline;overflow:visible;visibility:visible;fill:none;fill-opacity:1;fill-rule:evenodd;stroke:#000;stroke-width:1;stroke-linecap:butt;stroke-linejoin:miter;stroke-miterlimit:10;stroke-dasharray:none;stroke-dashoffset:0;stroke-opacity:1;marker:none;marker-start:none;marker-mid:none;marker-end:none"/></clipPath></defs><g style="display:inline"><g transform="matrix(.20137 0 0 .20137 -.846 1.186)"><g transform="translate(371.115 -169.89) scale(1.06379)"><ellipse cx="401" cy="675.862" rx="186" ry="70.5" style="display:inline;overflow:visible;visibility:visible;fill:url(#F);fill-opacity:1;fill-rule:nonzero;stroke:none;stroke-width:1;stroke-linecap:round;stroke-linejoin:round;stroke-miterlimit:4;stroke-dasharray:none;stroke-dashoffset:0;stroke-opacity:1;marker:none;marker-start:none;marker-mid:none;marker-end:none" transform="matrix(.26055 0 0 .27865 -340.224 114.95)"/><ellipse cx="401" cy="675.862" rx="186" ry="70.5" style="display:inline;overflow:visible;visibility:visible;opacity:.740964;fill:url(#G);fill-opacity:1;fill-rule:nonzero;stroke:none;stroke-width:1;stroke-linecap:round;stroke-linejoin:round;stroke-miterlimit:4;stroke-dasharray:none;stroke-dashoffset:0;stroke-opacity:1;marker:none;marker-start:none;marker-mid:none;marker-end:none;filter:url(#filter5909)" transform="matrix(.4642 0 0 .4063 -422.89 24.67)"/></g><path id="P" d="M54.48 37.36s15.57 32.238 51.994 31.329c76.332-1.923 89.717-41.906 91.632-47.674 1.915-5.77 4.845-4.895 5.523.436C228.524 248.354 30.859 151 23.839 112.352c31.28-9.941 29.151-21.417 29.683-33.65Z" style="display:inline;overflow:visible;visibility:visible;fill:url(#H);fill-opacity:1;fill-rule:evenodd;stroke:none;stroke-width:1;stroke-linecap:butt;stroke-linejoin:miter;stroke-miterlimit:10;stroke-dasharray:none;stroke-dashoffset:0;stroke-opacity:1;marker:none;marker-start:none;marker-mid:none;marker-end:none"/><path d="M153.839 198.42c27.067 5.435 41.735-.489 49.802-6.744-2.13-2.763-6.653-4.909-6.653-4.909s5.268 1 8.698 4.634c2.349 2.488 2.564 6.507 2.05 12.01-.513-2.338-1.017-7.33-1.683-8.983-7.255 8.822-27.282 12.83-52.214 3.991z" style="display:inline;overflow:visible;visibility:visible;opacity:.114458;fill:url(#I);fill-opacity:1;fill-rule:evenodd;stroke:none;stroke-width:1;stroke-linecap:butt;stroke-linejoin:miter;stroke-miterlimit:10;stroke-dasharray:none;stroke-dashoffset:0;stroke-opacity:1;marker:none;marker-start:none;marker-mid:none;marker-end:none;filter:url(#filter6708)" transform="translate(-59.916 -72.812) scale(1.06379)"/><path d="M102.672 137.2c28.794 5.783 44.398-.519 52.98-7.173-2.266-2.938-7.077-5.222-7.077-5.222s5.603 1.064 9.252 4.93c2.498 2.647 2.728 6.922 2.181 12.777-.546-2.488-1.082-7.799-1.791-9.558-7.718 9.386-29.022 13.65-55.545 4.247z" style="display:inline;overflow:visible;visibility:visible;fill:url(#J);fill-opacity:1;fill-rule:evenodd;stroke:none;stroke-width:1;stroke-linecap:butt;stroke-linejoin:miter;stroke-miterlimit:10;stroke-dasharray:none;stroke-dashoffset:0;stroke-opacity:1;marker:none;marker-start:none;marker-mid:none;marker-end:none"/><g transform="matrix(.37384 0 0 .37384 182.237 56.535)"><ellipse cx="401" cy="675.862" rx="186" ry="70.5" style="display:inline;overflow:visible;visibility:visible;fill:url(#K);fill-opacity:1;fill-rule:nonzero;stroke:none;stroke-width:1;stroke-linecap:round;stroke-linejoin:round;stroke-miterlimit:4;stroke-dasharray:none;stroke-dashoffset:0;stroke-opacity:1;marker:none;marker-start:none;marker-mid:none;marker-end:none" transform="matrix(.26055 0 0 .27865 -266.224 -55.05)"/><ellipse cx="401" cy="675.862" rx="186" ry="70.5" style="display:inline;overflow:visible;visibility:visible;opacity:.740964;fill:url(#L);fill-opacity:1;fill-rule:nonzero;stroke:none;stroke-width:1;stroke-linecap:round;stroke-linejoin:round;stroke-miterlimit:4;stroke-dasharray:none;stroke-dashoffset:0;stroke-opacity:1;marker:none;marker-start:none;marker-mid:none;marker-end:none;filter:url(#filter5909)" transform="matrix(.4642 0 0 .4063 -348.89 -145.33)"/></g><path d="M142.184 166.244s-1.875 7.5-13.5 8-33-6-33-6 26.375 11.5 42.5 13 22-7 22-7z" style="display:inline;overflow:visible;visibility:visible;opacity:.86747;fill:url(#M);fill-opacity:1;fill-rule:nonzero;stroke:none;stroke-width:3;stroke-linecap:butt;stroke-linejoin:miter;stroke-miterlimit:4;stroke-dasharray:none;stroke-dashoffset:0;stroke-opacity:1;marker:none;marker-start:none;marker-mid:none;marker-end:none;filter:url(#filter6363);enable-background:accumulate" transform="translate(-59.916 -72.812) scale(1.06379)"/><path d="M78.352 58.82s14.636 30.307 48.877 29.452c71.754-1.808 84.337-39.393 86.137-44.816 1.8-5.423 4.555-4.601 5.191.41 23.403 213.296-162.409 121.78-169.008 85.45 29.404-9.345 27.403-20.132 27.903-31.632Z" clip-path="url(#O)" style="display:inline;overflow:visible;visibility:visible;fill:none;fill-opacity:1;fill-rule:evenodd;stroke:#000;stroke-width:.940033;stroke-linecap:butt;stroke-linejoin:miter;stroke-miterlimit:10;stroke-dasharray:none;stroke-dashoffset:0;stroke-opacity:1;marker:none;marker-start:none;marker-mid:none;marker-end:none;filter:url(#N)" transform="translate(-28.87 -25.214) scale(1.06379)"/><path d="M201.168 18.13c-.068-.01-.258-.014-.672.468-.414.481-.923 1.397-1.373 2.754-.96 2.89-4.908 14.638-18.238 25.765-13.33 11.127-36.031 21.679-74.383 22.645-31.167.778-46.663-21.303-51.035-28.678l-.873 37.643a1.073 1.073 0 0 1 0 .021c-.263 6.04.17 12.24-3.467 18.197-3.55 5.813-10.967 11.148-25.959 16.057 1.08 4.303 4.596 9.593 10.186 15.08 5.943 5.834 14.077 11.878 23.576 17.348 18.996 10.94 43.45 19.581 66.79 19.98 23.34.4 45.494-7.336 60.42-29.201 14.925-21.862 22.629-58.053 16.424-114.623v-.002c-.157-1.24-.451-2.18-.76-2.752-.307-.572-.569-.69-.636-.701z" style="display:inline;overflow:visible;visibility:visible;opacity:.185393;fill:none;fill-opacity:1;fill-rule:evenodd;stroke:none;stroke-width:1;stroke-linecap:butt;stroke-linejoin:miter;stroke-miterlimit:10;stroke-dasharray:none;stroke-dashoffset:0;stroke-opacity:1;marker:none;marker-start:none;marker-mid:none;marker-end:none" transform="translate(-10.786 -15.64) scale(1.06379)"/><ellipse cx="6.099" cy="27.229" rx="4.331" ry="6.099" style="display:inline;overflow:visible;visibility:visible;fill:url(#Q);fill-opacity:1;fill-rule:evenodd;stroke:none;stroke-width:.195996;stroke-linecap:butt;stroke-linejoin:miter;stroke-miterlimit:10;stroke-dasharray:none;stroke-dashoffset:0;stroke-opacity:1;marker:none;marker-start:none;marker-mid:none;marker-end:none" transform="matrix(4.3927 -3.18207 3.16902 4.41077 -81.758 7.333)"/><g transform="matrix(.26603 0 0 .26603 115.759 67.014)"><ellipse cx="401" cy="675.862" rx="186" ry="70.5" style="display:inline;overflow:visible;visibility:visible;fill:url(#R);fill-opacity:1;fill-rule:nonzero;stroke:none;stroke-width:1;stroke-linecap:round;stroke-linejoin:round;stroke-miterlimit:4;stroke-dasharray:none;stroke-dashoffset:0;stroke-opacity:1;marker:none;marker-start:none;marker-mid:none;marker-end:none" transform="matrix(.26055 0 0 .27865 -266.224 -55.05)"/><ellipse cx="401" cy="675.862" rx="186" ry="70.5" style="display:inline;overflow:visible;visibility:visible;opacity:.740964;fill:url(#S);fill-opacity:1;fill-rule:nonzero;stroke:none;stroke-width:1;stroke-linecap:round;stroke-linejoin:round;stroke-miterlimit:4;stroke-dasharray:none;stroke-dashoffset:0;stroke-opacity:1;marker:none;marker-start:none;marker-mid:none;marker-end:none;filter:url(#filter5909)" transform="matrix(.4642 0 0 .4063 -348.89 -145.33)"/></g><path d="M65.76 56.596c32.166 26.784 68.111 13.87 103.946 2.121C135.01 78.326 96.127 89.42 65.76 56.596Z" style="display:inline;overflow:visible;visibility:visible;opacity:.578313;fill:url(#T);fill-opacity:1;fill-rule:evenodd;stroke:none;stroke-width:20;stroke-linecap:round;stroke-linejoin:miter;stroke-miterlimit:4;stroke-dasharray:none;stroke-dashoffset:0;stroke-opacity:1;marker:none;marker-start:none;marker-mid:none;marker-end:none;filter:url(#filter7998);enable-background:accumulate" transform="matrix(1 0 0 1.16946 0 -9.59)"/><g transform="matrix(.34343 0 0 .34343 216.552 53.813)"><ellipse cx="203.647" cy="533.346" rx="478.004" ry="281.428" style="display:inline;overflow:visible;visibility:visible;fill:url(#U);fill-opacity:1;fill-rule:nonzero;stroke:none;stroke-width:4.37477;stroke-linecap:round;stroke-linejoin:round;stroke-miterlimit:4;stroke-dasharray:none;stroke-dashoffset:0;stroke-opacity:1;marker:none;marker-start:none;marker-mid:none;marker-end:none" transform="matrix(.18146 0 0 .28795 -308.322 -64.458)"/><ellipse cx="203.647" cy="533.346" rx="478.004" ry="281.428" style="display:inline;overflow:visible;visibility:visible;opacity:.0742857;fill:url(#V);fill-opacity:1;fill-rule:nonzero;stroke:none;stroke-width:4.37477;stroke-linecap:round;stroke-linejoin:round;stroke-miterlimit:4;stroke-dasharray:none;stroke-dashoffset:0;stroke-opacity:1;marker:none;marker-start:none;marker-mid:none;marker-end:none;filter:url(#filter5638)" transform="matrix(.16859 0 0 .25597 -305.701 -50.901)"/><ellipse cx="130.5" cy="105" rx="60.5" ry="28" style="display:inline;overflow:visible;visibility:visible;opacity:.84;fill:#fff;fill-opacity:1;fill-rule:evenodd;stroke:none;stroke-width:4;stroke-linecap:round;stroke-linejoin:round;stroke-miterlimit:4;stroke-dasharray:none;stroke-dashoffset:0;stroke-opacity:1;marker:none;marker-start:none;marker-mid:none;marker-end:none;filter:url(#W);enable-background:accumulate" transform="matrix(.50384 0 0 .56976 -337.284 -23.404)"/></g><g transform="translate(-55.393 -11.202) scale(1.06379)"><circle cx="173.948" cy="94.426" r="12.374" style="display:inline;overflow:visible;visibility:visible;opacity:1;fill:url(#X);fill-opacity:1;fill-rule:nonzero;stroke:none;stroke-width:3;stroke-linecap:butt;stroke-linejoin:miter;stroke-miterlimit:4;stroke-dasharray:none;stroke-dashoffset:0;stroke-opacity:1;marker:none;marker-start:none;marker-mid:none;marker-end:none;enable-background:accumulate"/><path d="m182.627 103.105-7.002-6.504 4.022 8.67-4.65-8.35 1.147 9.488-1.842-9.378-1.842 9.378 1.146-9.488-4.65 8.35 4.023-8.67-7.003 6.504 6.505-7.002-8.67 4.022 8.35-4.65-9.488 1.147 9.378-1.842-9.378-1.842 9.488 1.146-8.35-4.65 8.67 4.022-6.505-7.002 7.003 6.504-4.022-8.669 4.65 8.35-1.147-9.488 1.842 9.377 1.842-9.377-1.147 9.488 4.65-8.35-4.022 8.67 7.002-6.505-6.504 7.002 8.67-4.022-8.35 4.65 9.488-1.146-9.378 1.842 9.378 1.842-9.488-1.147 8.35 4.65-8.67-4.022z" style="display:inline;overflow:visible;visibility:visible;opacity:1;fill:#222628;fill-opacity:1;fill-rule:nonzero;stroke:none;stroke-width:3;stroke-linecap:butt;stroke-linejoin:miter;stroke-miterlimit:4;stroke-dasharray:none;stroke-dashoffset:0;stroke-opacity:1;marker:none;marker-start:none;marker-mid:none;marker-end:none;enable-background:accumulate" transform="translate(0 -.354)"/><circle cx="173.948" cy="94.426" r="12.374" style="display:inline;overflow:visible;visibility:visible;opacity:1;fill:#000;fill-opacity:1;fill-rule:nonzero;stroke:none;stroke-width:3;stroke-linecap:butt;stroke-linejoin:miter;stroke-miterlimit:4;stroke-dasharray:none;stroke-dashoffset:0;stroke-opacity:1;marker:none;marker-start:none;marker-mid:none;marker-end:none;enable-background:accumulate" transform="matrix(.45714 0 0 .45714 94.43 51.26)"/></g><circle cx="21.39" cy="20.953" r="1.768" style="display:inline;overflow:visible;visibility:visible;fill:url(#Y);fill-opacity:1;fill-rule:evenodd;stroke:none;stroke-width:1;stroke-linecap:butt;stroke-linejoin:miter;stroke-miterlimit:10;stroke-dasharray:none;stroke-dashoffset:0;stroke-opacity:1;marker:none;marker-start:none;marker-mid:none;marker-end:none" transform="matrix(9.954 0 0 9.99499 -92.994 -133.96)"/><circle cx="21.39" cy="20.953" r="1.768" style="display:inline;overflow:visible;visibility:visible;fill:#fff;fill-opacity:1;fill-rule:evenodd;stroke:none;stroke-width:1;stroke-linecap:butt;stroke-linejoin:miter;stroke-miterlimit:10;stroke-dasharray:none;stroke-dashoffset:0;stroke-opacity:1;marker:none;marker-start:none;marker-mid:none;marker-end:none" transform="matrix(4.87485 0 0 4.89491 16.546 -21.668)"/><g transform="matrix(.21772 0 0 .21772 131.375 69.537)"><ellipse cx="203.647" cy="533.346" rx="478.004" ry="281.428" style="display:inline;overflow:visible;visibility:visible;fill:url(#Z);fill-opacity:1;fill-rule:nonzero;stroke:none;stroke-width:4.37477;stroke-linecap:round;stroke-linejoin:round;stroke-miterlimit:4;stroke-dasharray:none;stroke-dashoffset:0;stroke-opacity:1;marker:none;marker-start:none;marker-mid:none;marker-end:none" transform="matrix(.18146 0 0 .28795 -308.322 -64.458)"/><ellipse cx="203.647" cy="533.346" rx="478.004" ry="281.428" style="display:inline;overflow:visible;visibility:visible;opacity:.0742857;fill:url(#aa);fill-opacity:1;fill-rule:nonzero;stroke:none;stroke-width:4.37477;stroke-linecap:round;stroke-linejoin:round;stroke-miterlimit:4;stroke-dasharray:none;stroke-dashoffset:0;stroke-opacity:1;marker:none;marker-start:none;marker-mid:none;marker-end:none;filter:url(#filter5638)" transform="matrix(.16859 0 0 .25597 -305.701 -50.901)"/><ellipse cx="130.5" cy="105" rx="60.5" ry="28" style="display:inline;overflow:visible;visibility:visible;opacity:.84;fill:#fff;fill-opacity:1;fill-rule:evenodd;stroke:none;stroke-width:4;stroke-linecap:round;stroke-linejoin:round;stroke-miterlimit:4;stroke-dasharray:none;stroke-dashoffset:0;stroke-opacity:1;marker:none;marker-start:none;marker-mid:none;marker-end:none;filter:url(#W);enable-background:accumulate" transform="matrix(.50384 0 0 .56976 -337.284 -23.404)"/></g><g transform="matrix(.6744 0 0 .6744 -41.025 28.321)"><circle cx="173.948" cy="94.426" r="12.374" style="display:inline;overflow:visible;visibility:visible;opacity:1;fill:url(#ab);fill-opacity:1;fill-rule:nonzero;stroke:none;stroke-width:4.73222;stroke-linecap:butt;stroke-linejoin:miter;stroke-miterlimit:4;stroke-dasharray:none;stroke-dashoffset:0;stroke-opacity:1;marker:none;marker-start:none;marker-mid:none;marker-end:none;enable-background:accumulate"/><path d="m182.627 103.105-7.002-6.504 4.022 8.67-4.65-8.35 1.147 9.488-1.842-9.378-1.842 9.378 1.146-9.488-4.65 8.35 4.023-8.67-7.003 6.504 6.505-7.002-8.67 4.022 8.35-4.65-9.488 1.147 9.378-1.842-9.378-1.842 9.488 1.146-8.35-4.65 8.67 4.022-6.505-7.002 7.003 6.504-4.022-8.669 4.65 8.35-1.147-9.488 1.842 9.377 1.842-9.377-1.147 9.488 4.65-8.35-4.022 8.67 7.002-6.505-6.504 7.002 8.67-4.022-8.35 4.65 9.488-1.146-9.378 1.842 9.378 1.842-9.488-1.147 8.35 4.65-8.67-4.022z" style="display:inline;overflow:visible;visibility:visible;opacity:1;fill:#000;fill-opacity:1;fill-rule:nonzero;stroke:none;stroke-width:4.73222;stroke-linecap:butt;stroke-linejoin:miter;stroke-miterlimit:4;stroke-dasharray:none;stroke-dashoffset:0;stroke-opacity:1;marker:none;marker-start:none;marker-mid:none;marker-end:none;enable-background:accumulate" transform="translate(0 -.354)"/><circle cx="173.948" cy="94.426" r="12.374" style="display:inline;overflow:visible;visibility:visible;opacity:1;fill:#000;fill-opacity:1;fill-rule:nonzero;stroke:none;stroke-width:3;stroke-linecap:butt;stroke-linejoin:miter;stroke-miterlimit:4;stroke-dasharray:none;stroke-dashoffset:0;stroke-opacity:1;marker:none;marker-start:none;marker-mid:none;marker-end:none;enable-background:accumulate" transform="matrix(.45714 0 0 .45714 94.43 51.26)"/></g><circle cx="21.39" cy="20.953" r="1.768" style="display:inline;overflow:visible;visibility:visible;fill:url(#ac);fill-opacity:1;fill-rule:evenodd;stroke:none;stroke-width:1;stroke-linecap:butt;stroke-linejoin:miter;stroke-miterlimit:10;stroke-dasharray:none;stroke-dashoffset:0;stroke-opacity:1;marker:none;marker-start:none;marker-mid:none;marker-end:none" transform="matrix(6.31036 0 0 6.33634 -64.862 -49.501)"/><circle cx="21.39" cy="20.953" r="1.768" style="display:inline;overflow:visible;visibility:visible;fill:#fff;fill-opacity:1;fill-rule:evenodd;stroke:none;stroke-width:1;stroke-linecap:butt;stroke-linejoin:miter;stroke-miterlimit:10;stroke-dasharray:none;stroke-dashoffset:0;stroke-opacity:1;marker:none;marker-start:none;marker-mid:none;marker-end:none" transform="matrix(3.09042 0 0 3.10314 4.581 21.686)"/><ellipse cx="4.066" cy="23.251" rx="1.768" ry="2.121" style="display:inline;overflow:visible;visibility:visible;opacity:.439639;fill:url(#ad);fill-opacity:1;fill-rule:evenodd;stroke:none;stroke-width:1;stroke-linecap:butt;stroke-linejoin:miter;stroke-miterlimit:10;stroke-dasharray:none;stroke-dashoffset:0;stroke-opacity:1;marker:none;marker-start:none;marker-mid:none;marker-end:none;filter:url(#filter6525)" transform="matrix(7.65046 0 0 8.09827 -6.47 -88.15)"/><ellipse cx="4.066" cy="23.251" rx="1.768" ry="2.121" style="display:inline;overflow:visible;visibility:visible;fill:url(#ae);fill-opacity:1;fill-rule:evenodd;stroke:none;stroke-width:1;stroke-linecap:butt;stroke-linejoin:miter;stroke-miterlimit:10;stroke-dasharray:none;stroke-dashoffset:0;stroke-opacity:1;marker:none;marker-start:none;marker-mid:none;marker-end:none" transform="matrix(5.4165 0 0 4.43584 -.805 -11.295)"/><g style="opacity:.457831"><path d="M213 65s-10 16.375-10.25 25.75S212 102.5 212 102.5s-12.5-2.125-12.25-11.5S213 65 213 65Z" style="display:inline;overflow:visible;visibility:visible;opacity:1;fill:url(#af);fill-opacity:1;fill-rule:nonzero;stroke:none;stroke-width:3;stroke-linecap:butt;stroke-linejoin:miter;stroke-miterlimit:4;stroke-dasharray:none;stroke-dashoffset:0;stroke-opacity:1;marker:none;marker-start:none;marker-mid:none;marker-end:none;filter:url(#filter6627);enable-background:accumulate" transform="translate(-63.743 -39.395) scale(1.23287)"/><path d="M214.75 65.25s-6.25 14.875-6.5 24.25 5.5 13.25 5.5 13.25-12.5-2.125-12.25-11.5 13.25-26 13.25-26z" style="display:inline;overflow:visible;visibility:visible;opacity:.662651;fill:url(#ag);fill-opacity:1;fill-rule:nonzero;stroke:none;stroke-width:3;stroke-linecap:butt;stroke-linejoin:miter;stroke-miterlimit:4;stroke-dasharray:none;stroke-dashoffset:0;stroke-opacity:1;marker:none;marker-start:none;marker-mid:none;marker-end:none;filter:url(#filter6583);enable-background:accumulate" transform="translate(-63.743 -39.395) scale(1.23287)"/><path d="M215.015 51.808c-.9 15.548-13.372 27.01-16.015 38.942-2.029 9.156 11 11.75 11 11.75s-13.408-2.193-12.25-11.5c1.603-12.876 14-25.271 17.265-39.192z" style="display:inline;overflow:visible;visibility:visible;opacity:1;fill:url(#ah);fill-opacity:1;fill-rule:nonzero;stroke:none;stroke-width:3;stroke-linecap:butt;stroke-linejoin:miter;stroke-miterlimit:4;stroke-dasharray:none;stroke-dashoffset:0;stroke-opacity:1;marker:none;marker-start:none;marker-mid:none;marker-end:none;filter:url(#filter6657);enable-background:accumulate" transform="translate(-63.743 -39.395) scale(1.23287)"/></g><g clip-path="url(#ai)"><path d="m136.308 122.585 8.973 6.784" style="fill:none;fill-opacity:1;fill-rule:evenodd;stroke:url(#aj);stroke-width:1px;stroke-linecap:round;stroke-linejoin:miter;stroke-opacity:1"/><path d="M242.57 222.944c-7.663-19.55-2.075-35.432-17.184-41.036-10.791-4.002-15.43 9.088-9.407 20.247 7.855 14.553 26.592 20.79 26.592 20.79z" style="display:inline;overflow:visible;visibility:visible;fill:url(#ak);fill-opacity:1;fill-rule:nonzero;stroke:none;stroke-width:.2;stroke-linecap:round;stroke-linejoin:miter;stroke-miterlimit:4;stroke-dasharray:none;stroke-dashoffset:0;stroke-opacity:1;marker:none;marker-start:none;marker-mid:none;marker-end:none"/><path d="M169.734 10.036s-10.505 12.578-11.86 24.96c-.48 4.38-6.389 3.45-5.102-1.272 2.78-10.197 16.962-23.688 16.962-23.688z" style="display:inline;overflow:visible;visibility:visible;opacity:.427778;fill:url(#al);fill-opacity:1;fill-rule:nonzero;stroke:none;stroke-width:1;stroke-linecap:round;stroke-linejoin:miter;stroke-miterlimit:4;stroke-dasharray:none;stroke-dashoffset:0;stroke-opacity:1;marker:none;marker-start:none;marker-mid:none;marker-end:none;filter:url(#filter6586)" transform="matrix(-.26375 .47458 -.47464 -.2638 278.48 119.84)"/><path d="m158.3 114.018-23.302-7.572c-15.488 41.568-26.19 128.778-26.19 128.778.571 5.684 8.058 5.931 9.545 1.224 0 0 28.297-81.747 39.946-122.43z" style="display:inline;overflow:visible;visibility:visible;fill:url(#am);fill-opacity:1;fill-rule:nonzero;stroke:none;stroke-width:1;stroke-linecap:round;stroke-linejoin:miter;stroke-miterlimit:4;stroke-dasharray:none;stroke-dashoffset:0;stroke-opacity:1;marker:none;marker-start:none;marker-mid:none;marker-end:none" transform="matrix(-.18991 .50865 -.50873 -.18994 276.054 112.285)"/><path d="M146 116.5c-24.98 33.85-45.868 71.209-66.25 109 22.755-35.772 45.131-71.986 71.75-103.25z" style="display:inline;overflow:visible;visibility:visible;opacity:.390805;fill:url(#an);fill-opacity:1;fill-rule:evenodd;stroke:none;stroke-width:3;stroke-linecap:butt;stroke-linejoin:miter;stroke-miterlimit:4;stroke-dasharray:none;stroke-dashoffset:0;stroke-opacity:1;marker:none;marker-start:none;marker-mid:none;marker-end:none;filter:url(#filter6532);enable-background:accumulate" transform="matrix(-.00443 .54294 -.543 -.00448 257.253 81.58)"/><path d="M170.16 58.56c-5.084 2.024-11.014-.47-13.886-5.117l-19.428 47.311.22 3.328-4.33 2.112c4.658 5.414 19.904 11.993 27.38 8.496l-2.36-4.194 1.964-2.765z" style="display:inline;overflow:visible;visibility:visible;fill:url(#ao);fill-opacity:1;fill-rule:nonzero;stroke:none;stroke-width:1;stroke-linecap:round;stroke-linejoin:miter;stroke-miterlimit:4;stroke-dasharray:none;stroke-dashoffset:0;stroke-opacity:1;marker:none;marker-start:none;marker-mid:none;marker-end:none" transform="matrix(-.18991 .50865 -.50873 -.18994 276.054 112.285)"/><path d="m158.406 107.67 25.641-32.18" style="display:inline;overflow:visible;visibility:visible;fill:none;fill-opacity:1;fill-rule:nonzero;stroke:#fff;stroke-width:5.52499;stroke-linecap:round;stroke-linejoin:round;stroke-miterlimit:4;stroke-dasharray:none;stroke-dashoffset:0;stroke-opacity:1;marker:none;marker-start:none;marker-mid:none;marker-end:none;filter:url(#ap)" transform="matrix(-.00443 .54294 -.543 -.00448 257.253 81.58)"/><path d="M184.064 70.155c2.051 4.487 6.149 7.537 10.733 9.118-7.057.047-10.352-4.42-10.733-9.118z" style="display:inline;overflow:visible;visibility:visible;opacity:1;fill:#fff;fill-opacity:1;fill-rule:evenodd;stroke:none;stroke-width:10;stroke-linecap:butt;stroke-linejoin:miter;stroke-miterlimit:4;stroke-dasharray:none;stroke-dashoffset:0;stroke-opacity:1;marker:none;marker-start:none;marker-mid:none;marker-end:none;filter:url(#aq);enable-background:accumulate" transform="matrix(-.00443 .54294 -.543 -.00448 257.253 81.58)"/><g transform="matrix(-.00443 .54294 -.543 -.00448 258.74 76.649)"><circle cx="7.625" cy="37.75" r="1.25" style="display:inline;overflow:visible;visibility:visible;fill:#fff;fill-opacity:1;fill-rule:nonzero;stroke:none;stroke-width:1;stroke-linecap:round;stroke-linejoin:miter;stroke-miterlimit:4;stroke-dasharray:none;stroke-dashoffset:0;stroke-opacity:1;marker:none;marker-start:none;marker-mid:none;marker-end:none;filter:url(#ar)" transform="matrix(-3.4548 .30614 -.30614 -3.4548 200.239 243.869)"/><circle cx="7.625" cy="37.75" r="1.25" style="display:inline;overflow:visible;visibility:visible;fill:#fff;fill-opacity:1;fill-rule:nonzero;stroke:none;stroke-width:1;stroke-linecap:round;stroke-linejoin:miter;stroke-miterlimit:4;stroke-dasharray:none;stroke-dashoffset:0;stroke-opacity:1;marker:none;marker-start:none;marker-mid:none;marker-end:none" transform="matrix(-2.06034 .18257 -.18257 -2.06034 184.941 192.17)"/></g><path d="m166.125 126.875-.75-4.75 3.75-1.875 5.75-9.375-6.625 8.625-4.875 1.875z" style="display:inline;overflow:visible;visibility:visible;opacity:1;fill:#000;fill-opacity:1;fill-rule:evenodd;stroke:none;stroke-width:3;stroke-linecap:butt;stroke-linejoin:miter;stroke-miterlimit:4;stroke-dasharray:none;stroke-dashoffset:0;stroke-opacity:1;marker:none;marker-start:none;marker-mid:none;marker-end:none;filter:url(#as);enable-background:accumulate" transform="matrix(-.00443 .54294 -.543 -.00448 257.253 81.58)"/><path d="m167.125 127.875-1.5-5.25c-9.779-2.305-13.686-8.359-16-12.25l-4.75.25c5.052 7.852 10.252 15.184 22.25 17.25z" style="display:inline;overflow:visible;visibility:visible;opacity:1;fill:url(#at);fill-opacity:1;fill-rule:evenodd;stroke:none;stroke-width:3;stroke-linecap:butt;stroke-linejoin:miter;stroke-miterlimit:4;stroke-dasharray:none;stroke-dashoffset:0;stroke-opacity:1;marker:none;marker-start:none;marker-mid:none;marker-end:none;filter:url(#filter6142);enable-background:accumulate" transform="matrix(-.00443 .54294 -.543 -.00448 257.253 81.58)"/><path d="M137.98 102.439c6.442 4.245 13.212 5.889 20.164 5.695-7.958 2.234-14.635-.095-20.165-5.695z" style="display:inline;overflow:visible;visibility:visible;opacity:1;fill:url(#au);fill-opacity:1;fill-rule:evenodd;stroke:none;stroke-width:3;stroke-linecap:butt;stroke-linejoin:miter;stroke-miterlimit:4;stroke-dasharray:none;stroke-dashoffset:0;stroke-opacity:1;marker:none;marker-start:none;marker-mid:none;marker-end:none;enable-background:accumulate" transform="matrix(-.18991 .50865 -.50873 -.18994 276.054 112.285)"/><path d="m159.823 114.573-3.205-4.42c-9.978 1.18-15.72-3.173-19.225-6.037l-4.378 1.86c7.433 5.65 14.827 10.76 26.808 8.597z" style="display:inline;overflow:visible;visibility:visible;opacity:1;fill:url(#av);fill-opacity:1;fill-rule:evenodd;stroke:none;stroke-width:3;stroke-linecap:butt;stroke-linejoin:miter;stroke-miterlimit:4;stroke-dasharray:none;stroke-dashoffset:0;stroke-opacity:1;marker:none;marker-start:none;marker-mid:none;marker-end:none;enable-background:accumulate" transform="matrix(-.18991 .50865 -.50873 -.18994 276.054 112.285)"/><path d="M133.57 106.462c6.347 6.04 16.993 9.369 26.66 8.073-10.468 1.963-23.065-1.025-26.66-8.073z" style="display:inline;overflow:visible;visibility:visible;opacity:1;fill:url(#aw);fill-opacity:1;fill-rule:evenodd;stroke:none;stroke-width:3;stroke-linecap:butt;stroke-linejoin:miter;stroke-miterlimit:4;stroke-dasharray:none;stroke-dashoffset:0;stroke-opacity:1;marker:none;marker-start:none;marker-mid:none;marker-end:none;enable-background:accumulate" transform="matrix(-.18991 .50865 -.50873 -.18994 276.054 112.285)"/><path d="M226.76 192.344c1.59 5.547 4.083 11.282 6.473 16.995 0 0-4.578-10.289-4.744-11.173-.167-.885-1.778-5.707-1.73-5.822z" style="display:inline;overflow:visible;visibility:visible;opacity:.355422;fill:url(#ax);fill-opacity:1;fill-rule:nonzero;stroke:none;stroke-width:2;stroke-linecap:butt;stroke-linejoin:miter;stroke-miterlimit:4;stroke-dasharray:none;stroke-dashoffset:0;stroke-opacity:1;marker:none;marker-start:none;marker-mid:none;marker-end:none;enable-background:accumulate"/><path d="M222.342 189.53c2.272 5.305 5.464 10.682 8.55 16.052 0 0-5.83-9.635-6.105-10.492-.276-.857-2.479-5.44-2.445-5.56z" style="display:inline;overflow:visible;visibility:visible;opacity:.355422;fill:url(#ay);fill-opacity:1;fill-rule:nonzero;stroke:none;stroke-width:2;stroke-linecap:butt;stroke-linejoin:miter;stroke-miterlimit:4;stroke-dasharray:none;stroke-dashoffset:0;stroke-opacity:1;marker:none;marker-start:none;marker-mid:none;marker-end:none;enable-background:accumulate"/><path d="M215.805 194.285c4.215 3.94 9.301 7.578 14.288 11.25 0 0-9.215-6.472-9.812-7.145-.598-.673-4.46-3.982-4.476-4.105z" style="display:inline;overflow:visible;visibility:visible;opacity:.355422;fill:url(#az);fill-opacity:1;fill-rule:nonzero;stroke:none;stroke-width:2;stroke-linecap:butt;stroke-linejoin:miter;stroke-miterlimit:4;stroke-dasharray:none;stroke-dashoffset:0;stroke-opacity:1;marker:none;marker-start:none;marker-mid:none;marker-end:none;enable-background:accumulate"/><path d="m56.5 211.5 29.25-36L71 200Z" style="display:inline;overflow:visible;visibility:visible;opacity:.355422;fill:url(#aA);fill-opacity:1;fill-rule:nonzero;stroke:none;stroke-width:2;stroke-linecap:butt;stroke-linejoin:miter;stroke-miterlimit:4;stroke-dasharray:none;stroke-dashoffset:0;stroke-opacity:1;marker:none;marker-start:none;marker-mid:none;marker-end:none;filter:url(#filter7068);enable-background:accumulate" transform="matrix(-.53731 .09381 .07452 .6764 246.028 67.27)"/><path d="m136.854 126.74 2.439-.59 53.803 35.385.59 2.438 2.253 1.704 19.951 16.64-1.56 1.477-21.605-17.67-1.333-2.337z" style="display:inline;overflow:visible;visibility:visible;opacity:.355422;fill:url(#aB);fill-opacity:1;fill-rule:nonzero;stroke:none;stroke-width:2;stroke-linecap:butt;stroke-linejoin:miter;stroke-miterlimit:4;stroke-dasharray:none;stroke-dashoffset:0;stroke-opacity:1;marker:none;marker-start:none;marker-mid:none;marker-end:none;enable-background:accumulate"/><path d="M227.384 190.094c1.406 5.343 3.61 10.867 5.724 16.37 0 0-4.048-9.91-4.195-10.762-.147-.852-1.572-5.497-1.529-5.608z" style="display:inline;overflow:visible;visibility:visible;opacity:.355422;fill:url(#aC);fill-opacity:1;fill-rule:nonzero;stroke:none;stroke-width:2;stroke-linecap:butt;stroke-linejoin:miter;stroke-miterlimit:4;stroke-dasharray:none;stroke-dashoffset:0;stroke-opacity:1;marker:none;marker-start:none;marker-mid:none;marker-end:none;enable-background:accumulate"/><path d="M228.163 201.087c2.79 5.052 6.502 10.084 10.108 15.118 0 0-6.761-9.005-7.121-9.83-.36-.825-3.01-5.165-2.987-5.288z" style="display:inline;overflow:visible;visibility:visible;opacity:.355422;fill:url(#aD);fill-opacity:1;fill-rule:nonzero;stroke:none;stroke-width:2;stroke-linecap:butt;stroke-linejoin:miter;stroke-miterlimit:4;stroke-dasharray:none;stroke-dashoffset:0;stroke-opacity:1;marker:none;marker-start:none;marker-mid:none;marker-end:none;enable-background:accumulate"/></g><path d="m201.364 192.203-9.369 4.773 6.364 5.304c-.654-3.943.051-7.05 5.48-7.248z" style="display:inline;overflow:visible;visibility:visible;fill:url(#aE);fill-opacity:1;fill-rule:nonzero;stroke:none;stroke-width:3;stroke-linecap:butt;stroke-linejoin:miter;stroke-miterlimit:4;stroke-dasharray:none;stroke-dashoffset:0;stroke-opacity:1;marker:none;marker-start:none;marker-mid:none;marker-end:none;filter:url(#filter8275);enable-background:accumulate" transform="translate(-59.916 -72.812) scale(1.06379)"/><path d="M98.684 195.244s40.375 23.25 70.5 25.5 50-16.5 50-16.5-21.375 11.75-51.5 9.5-69-18.5-69-18.5z" style="display:inline;overflow:visible;visibility:visible;opacity:.313253;fill:url(#aF);fill-opacity:1;fill-rule:nonzero;stroke:none;stroke-width:3;stroke-linecap:butt;stroke-linejoin:miter;stroke-miterlimit:4;stroke-dasharray:none;stroke-dashoffset:0;stroke-opacity:1;marker:none;marker-start:none;marker-mid:none;marker-end:none;filter:url(#filter8393);enable-background:accumulate" transform="translate(-59.916 -72.812) scale(1.06379)"/><ellipse cx="185.25" cy="74.875" rx="2" ry="3.625" style="display:inline;overflow:visible;visibility:visible;opacity:.578313;fill:url(#aG);fill-opacity:1;fill-rule:evenodd;stroke:none;stroke-width:20;stroke-linecap:round;stroke-linejoin:miter;stroke-miterlimit:4;stroke-dasharray:none;stroke-dashoffset:0;stroke-opacity:1;marker:none;marker-start:none;marker-mid:none;marker-end:none;filter:url(#filter7768);enable-background:accumulate" transform="matrix(1.4138 0 0 1.4138 -76.655 -30.983)"/><path d="M187.908 43.282c-6.81 9.424-18.293 15.11-29.698 20.86 13.374-1.017 27.232-6.228 29.698-20.86z" style="display:inline;overflow:visible;visibility:visible;opacity:.271084;fill:url(#aH);fill-opacity:1;fill-rule:evenodd;stroke:none;stroke-width:20;stroke-linecap:round;stroke-linejoin:miter;stroke-miterlimit:4;stroke-dasharray:none;stroke-dashoffset:0;stroke-opacity:1;marker:none;marker-start:none;marker-mid:none;marker-end:none;filter:url(#filter8088);enable-background:accumulate"/><path d="M18.872 128.791c13.778 9.054 26.929 13.987 36.75-3-10.249 15.806-23.2 11.623-36.75 3z" style="display:inline;overflow:visible;visibility:visible;opacity:.891566;fill:url(#aI);fill-opacity:1;fill-rule:nonzero;stroke:none;stroke-width:3.19138;stroke-linecap:butt;stroke-linejoin:miter;stroke-miterlimit:4;stroke-dasharray:none;stroke-dashoffset:0;stroke-opacity:1;marker:none;marker-start:none;marker-mid:none;marker-end:none;filter:url(#filter8622);enable-background:accumulate"/></g></g></svg>