<svg xmlns="http://www.w3.org/2000/svg" xmlns:xlink="http://www.w3.org/1999/xlink" viewBox="0 0 48 48"><defs><radialGradient id="gimp_svg__Y" cx="170.06" cy="55.712" r="14.849" gradientTransform="matrix(1.6236 -1.4374 1.4998 1.6942 -186.61 203.76)" gradientUnits="userSpaceOnUse"><stop offset="0" stop-color="#fff"/><stop offset="1" stop-color="#fff" stop-opacity="0"/></radialGradient><radialGradient id="gimp_svg__X" cx="184.19" cy="75.323" r="2" gradientTransform="matrix(1.4062 -.03125 .05664 2.5488 -79.093 -110.54)" gradientUnits="userSpaceOnUse"><stop offset="0"/><stop offset="1" stop-opacity="0"/></radialGradient><radialGradient id="gimp_svg__W" cx="115.75" cy="234.59" r="60.25" gradientTransform="matrix(-.64425 -.49533 .31535 -.41015 159.53 378.64)" gradientUnits="userSpaceOnUse"><stop offset="0" stop-color="#fff"/><stop offset="1" stop-color="#fff" stop-opacity="0"/></radialGradient><radialGradient xlink:href="#gimp_svg__a" id="gimp_svg__U" cx="60.32" cy="192.49" r="12.625" gradientTransform="matrix(-.49154 -.08773 -.0912 .511 280.42 115.58)" gradientUnits="userSpaceOnUse"/><radialGradient xlink:href="#gimp_svg__a" id="gimp_svg__T" cx="60.32" cy="192.49" r="12.625" gradientTransform="matrix(-.40626 -.1882 -.1796 .46012 289.32 121.06)" gradientUnits="userSpaceOnUse"/><radialGradient id="gimp_svg__S" cx="147.25" cy="101.5" r="70.75" gradientTransform="matrix(-.49457 .0686 .06544 .47185 242.62 97.03)" gradientUnits="userSpaceOnUse"><stop offset="0" stop-color="#fff"/><stop offset="1" stop-color="#fff" stop-opacity="0"/></radialGradient><radialGradient id="gimp_svg__R" cx="37.875" cy="200.75" r="14.625" gradientTransform="matrix(1 0 0 1.2308 33.25 -53.577)" gradientUnits="userSpaceOnUse"><stop offset="0" stop-color="#fff"/><stop offset="1" stop-color="#fff" stop-opacity="0"/></radialGradient><radialGradient xlink:href="#gimp_svg__a" id="gimp_svg__Q" cx="60.32" cy="192.49" r="12.625" gradientTransform="matrix(-.49457 .0686 .07131 .51416 239.06 96.804)" gradientUnits="userSpaceOnUse"/><radialGradient xlink:href="#gimp_svg__a" id="gimp_svg__P" cx="60.32" cy="192.49" r="12.625" gradientTransform="matrix(-.48033 -.13634 -.14174 .49935 282.87 109.66)" gradientUnits="userSpaceOnUse"/><radialGradient xlink:href="#gimp_svg__a" id="gimp_svg__O" cx="60.32" cy="192.49" r="12.625" gradientTransform="matrix(-.45949 -.19538 -.20312 .47769 296.81 120.68)" gradientUnits="userSpaceOnUse"/><radialGradient xlink:href="#gimp_svg__b" id="gimp_svg__N" cx="158.5" cy="116.72" r="8.5" gradientTransform="matrix(2.3253 -.8465 .60997 1.6756 -294.44 52.466)" gradientUnits="userSpaceOnUse"/><radialGradient id="gimp_svg__M" cx="156.12" cy="118.5" r="11.125" gradientTransform="matrix(.93967 -.34208 .26905 .73907 -32.213 75.984)" gradientUnits="userSpaceOnUse"><stop offset="0" stop-color="#fff"/><stop offset="1" stop-color="#fff" stop-opacity="0"/></radialGradient><radialGradient xlink:href="#gimp_svg__b" id="gimp_svg__L" cx="158.5" cy="116.72" r="8.5" gradientTransform="matrix(.93967 -.34208 .2465 .67712 -30.084 83.293)" gradientUnits="userSpaceOnUse"/><radialGradient id="gimp_svg__K" cx="154.62" cy="121.54" r="11.125" gradientTransform="matrix(1.3034 0 0 1.0251 -47.034 -3.471)" gradientUnits="userSpaceOnUse"><stop offset="0"/><stop offset="1" stop-opacity="0"/></radialGradient><radialGradient id="gimp_svg__B" cx="14.755" cy="39.448" r="7.579" gradientTransform="matrix(-1.6999 -3.8273 1.0368 -.46027 211.65 270.56)" gradientUnits="userSpaceOnUse"><stop offset="0" stop-color="#696969"/><stop offset="1"/></radialGradient><radialGradient id="gimp_svg__y" cx="204.16" cy="82.396" r="6.627" gradientTransform="matrix(.95236 .30499 -1.308 4.0844 119.69 -321.64)" gradientUnits="userSpaceOnUse"><stop offset="0" stop-color="#fff"/><stop offset="1" stop-color="#fff" stop-opacity="0"/></radialGradient><radialGradient xlink:href="#gimp_svg__c" id="gimp_svg__x" cx="200.29" cy="86.399" r="6.627" gradientTransform="matrix(2.9971 .0303 -.05041 4.9865 -398.07 -344.9)" gradientUnits="userSpaceOnUse"/><radialGradient xlink:href="#gimp_svg__c" id="gimp_svg__w" cx="202.37" cy="86.136" r="6.627" gradientTransform="matrix(2.9952 -.11118 .0877 2.3625 -411.33 -90.499)" gradientUnits="userSpaceOnUse"/><radialGradient xlink:href="#gimp_svg__b" id="gimp_svg__v" cx="4.066" cy="21.483" r="1.768" gradientTransform="matrix(2.8462 -.07824 .09466 3.4154 -9.54 -51.926)" gradientUnits="userSpaceOnUse"/><radialGradient xlink:href="#gimp_svg__b" id="gimp_svg__u" cx="21.587" cy="20.331" r="1.768" gradientTransform="matrix(1.595 .03703 -.03734 1.595 -12.084 -12.896)" gradientUnits="userSpaceOnUse"/><radialGradient xlink:href="#gimp_svg__d" id="gimp_svg__r" cx="203.65" cy="500.9" r="478" gradientTransform="matrix(1 0 0 .58876 0 219.34)" gradientUnits="userSpaceOnUse"/><radialGradient xlink:href="#gimp_svg__e" id="gimp_svg__q" cx="181.89" cy="356.05" r="478" gradientTransform="matrix(1.1109 0 0 .7667 1.589 146.44)" gradientUnits="userSpaceOnUse"/><radialGradient xlink:href="#gimp_svg__f" id="gimp_svg__t" cx="173.95" cy="99.426" r="12.374" gradientUnits="userSpaceOnUse"/><radialGradient id="gimp_svg__p" cx="106.42" cy="104.02" r="51.972" gradientTransform="matrix(.99984 .01762 -.0136 .77215 1.432 -7.74)" gradientUnits="userSpaceOnUse"><stop offset="0" stop-color="#fff"/><stop offset="1" stop-color="#fff" stop-opacity="0"/></radialGradient><radialGradient xlink:href="#gimp_svg__a" id="gimp_svg__h" cx="401" cy="675.86" r="186" gradientTransform="matrix(.90735 0 0 .37903 37.155 419.69)" gradientUnits="userSpaceOnUse"/><radialGradient xlink:href="#gimp_svg__a" id="gimp_svg__g" cx="401" cy="675.86" r="186" gradientTransform="matrix(1 0 0 .37903 0 419.69)" gradientUnits="userSpaceOnUse"/><radialGradient id="gimp_svg__o" cx="6.024" cy="25.271" r="4.831" gradientTransform="matrix(-1.2392 -.01453 .03198 -1.9379 12.681 73.615)" gradientUnits="userSpaceOnUse"><stop offset="0" stop-color="#5b676b"/><stop offset=".816"/><stop offset="1" stop-color="#606e73"/></radialGradient><radialGradient id="gimp_svg__l" cx="94.25" cy="136.64" r="32.25" gradientTransform="matrix(1 0 0 .52988 29.184 105.43)" gradientUnits="userSpaceOnUse"><stop offset="0" stop-color="#c0baab"/><stop offset="1" stop-color="#bfb9a9" stop-opacity=".176"/></radialGradient><radialGradient id="gimp_svg__k" cx="164.91" cy="167.15" r="27.063" gradientTransform="matrix(1.9639 -1.1593 .25614 .4339 -217.93 249.38)" gradientUnits="userSpaceOnUse"><stop offset="0"/><stop offset="1" stop-opacity="0"/></radialGradient><radialGradient id="gimp_svg__i" cx="21.333" cy="22.79" r="19.229" gradientTransform="matrix(5.9762 0 0 4.958 -12.673 -21.216)" gradientUnits="userSpaceOnUse"><stop offset="0" stop-color="#b5ae9c"/><stop offset=".342" stop-color="#8e8469"/><stop offset=".642" stop-color="#39352a"/><stop offset="1" stop-color="#5c5443"/></radialGradient><radialGradient id="gimp_svg__Z" cx="60.625" cy="180.01" r="18.375" gradientTransform="matrix(1 0 0 .3069 -25.003 81.825)" gradientUnits="userSpaceOnUse"><stop offset="0" stop-color="#fff"/><stop offset="1" stop-color="#fff" stop-opacity="0"/></radialGradient><linearGradient id="gimp_svg__V" x1="169.18" x2="173.24" y1="148.78" y2="154.44" gradientTransform="translate(29.184 44.744)" gradientUnits="userSpaceOnUse"><stop offset="0"/><stop offset="1" stop-opacity="0"/></linearGradient><linearGradient id="gimp_svg__a"><stop offset="0"/><stop offset="1" stop-opacity="0"/></linearGradient><linearGradient id="gimp_svg__b"><stop offset="0" stop-color="#fff"/><stop offset="1" stop-color="#fff" stop-opacity="0"/></linearGradient><linearGradient id="gimp_svg__F" x1="24.505" x2="20.655" y1="31.019" y2="27.741" gradientTransform="rotate(154.93 130.26 116.76) scale(4.4022)" gradientUnits="userSpaceOnUse"><stop offset="0" stop-color="#bdbdbd"/><stop offset=".333" stop-color="#e2e2e2"/><stop offset=".667" stop-color="#a3a3a3"/><stop offset="1" stop-color="#ddd"/></linearGradient><linearGradient id="gimp_svg__E" x1="144.5" x2="92.5" y1="127" y2="213.75" gradientUnits="userSpaceOnUse"><stop offset="0" stop-color="#fff"/><stop offset="1" stop-color="#fff" stop-opacity="0"/></linearGradient><linearGradient id="gimp_svg__D" x1="30.386" x2="24.873" y1="24.775" y2="20.352" gradientTransform="rotate(154.93 130.26 116.76) scale(4.4022)" gradientUnits="userSpaceOnUse"><stop offset="0" stop-color="#d87711"/><stop offset=".242" stop-color="#f3ae66"/><stop offset=".621" stop-color="#713e08"/><stop offset="1" stop-color="#e07c12"/></linearGradient><linearGradient id="gimp_svg__C" x1="13.236" x2="7.752" y1="37.752" y2="42.282" gradientTransform="rotate(156.04 111.21 100.74) scale(3.752)" gradientUnits="userSpaceOnUse"><stop offset="0" stop-color="#fff"/><stop offset="1" stop-color="#fff" stop-opacity="0"/></linearGradient><linearGradient id="gimp_svg__A" x1="38.289" x2="36.611" y1="5.254" y2="7.331" gradientTransform="matrix(-2.1372 .07215 .9828 2.108 217.29 112.36)" gradientUnits="userSpaceOnUse"><stop offset="0" stop-color="#eac586"/><stop offset="1" stop-color="#eac586" stop-opacity="0"/></linearGradient><linearGradient id="gimp_svg__c"><stop offset="0" stop-color="#23211a"/><stop offset="1" stop-color="#23211a" stop-opacity="0"/></linearGradient><linearGradient id="gimp_svg__f"><stop offset="0" stop-color="#596569"/><stop offset="1" stop-color="#2e3436"/></linearGradient><linearGradient id="gimp_svg__d"><stop offset="0" stop-opacity="0"/><stop offset=".881" stop-opacity="0"/><stop offset="1"/></linearGradient><linearGradient id="gimp_svg__e"><stop offset="0" stop-color="#fff"/><stop offset=".833" stop-color="#c3c3c3"/><stop offset="1" stop-color="#f0f0f0"/></linearGradient><linearGradient id="gimp_svg__j" x1="175.66" x2="151.72" y1="158.67" y2="155.6" gradientTransform="translate(29.184 44.744)" gradientUnits="userSpaceOnUse"><stop offset="0" stop-color="#fff"/><stop offset="1" stop-color="#fff" stop-opacity="0"/></linearGradient><filter id="gimp_svg__J" width="1.399" height="1.287" x="-.2" y="-.144"><feGaussianBlur stdDeviation=".957"/></filter><filter id="gimp_svg__I" width="1.772" height="1.772" x="-.386" y="-.386"><feGaussianBlur stdDeviation=".402"/></filter><filter id="gimp_svg__H" width="1.118" height="1.138" x="-.059" y="-.069"><feGaussianBlur stdDeviation=".263"/></filter><filter id="gimp_svg__G" width="1.426" height="1.339" x="-.213" y="-.17"><feGaussianBlur stdDeviation="1.124"/></filter><filter id="gimp_svg__s" width="1.324" height="1.7" x="-.162" y="-.35"><feGaussianBlur stdDeviation="8.172"/></filter><filter id="gimp_svg__n" width="1.044" height="1.054" x="-.022" y="-.027"><feGaussianBlur stdDeviation="1.374"/></filter><clipPath id="gimp_svg__z"><path fill-rule="evenodd" d="M126 141.25c13.634-.029 30.696-3.486 43.875-22L254.5 182l3.5 78.5-99-51z" enable-background="accumulate" opacity=".578"/></clipPath><clipPath id="gimp_svg__m"><path fill="none" stroke="#000" stroke-miterlimit="10" d="M78.352 58.82s14.636 30.307 48.877 29.452c71.754-1.808 84.337-39.393 86.137-44.816s4.555-4.601 5.191.41c23.403 213.3-162.41 121.78-169.01 85.45 29.404-9.345 27.403-20.132 27.903-31.632z"/></clipPath></defs><g transform="translate(-.846 1.186) scale(.20137)"><g transform="translate(371.12 -169.89) scale(1.0638)"><ellipse cx="401" cy="675.86" fill="url(#gimp_svg__g)" rx="186" ry="70.5" transform="matrix(.26055 0 0 .27865 -340.22 114.95)"/><ellipse cx="401" cy="675.86" fill="url(#gimp_svg__h)" filter="url(#gimp_svg__filter5909)" opacity=".741" rx="186" ry="70.5" transform="matrix(.4642 0 0 .4063 -422.89 24.67)"/></g><g fill-rule="evenodd"><path fill="url(#gimp_svg__i)" d="M54.48 37.36s15.57 32.238 51.994 31.329c76.332-1.923 89.717-41.906 91.632-47.674 1.915-5.77 4.845-4.895 5.523.436C228.524 248.354 30.859 151 23.839 112.352c31.28-9.941 29.151-21.417 29.683-33.65Z"/><path fill="url(#gimp_svg__j)" d="M153.839 198.42c27.067 5.435 41.735-.489 49.802-6.744-2.13-2.763-6.653-4.909-6.653-4.909s5.268 1 8.698 4.634c2.349 2.488 2.564 6.507 2.05 12.01-.513-2.338-1.017-7.33-1.683-8.983-7.255 8.822-27.282 12.83-52.214 3.991z" filter="url(#gimp_svg__filter6708)" opacity=".114" transform="translate(-59.916 -72.812) scale(1.0638)"/><path fill="url(#gimp_svg__k)" d="M102.672 137.2c28.794 5.783 44.398-.519 52.98-7.173-2.266-2.938-7.077-5.222-7.077-5.222s5.603 1.064 9.252 4.93c2.498 2.647 2.728 6.922 2.181 12.777-.546-2.488-1.082-7.799-1.791-9.558-7.718 9.386-29.022 13.65-55.545 4.247z"/></g><g transform="translate(182.24 56.535) scale(.37384)"><ellipse cx="401" cy="675.86" fill="url(#gimp_svg__g)" rx="186" ry="70.5" transform="matrix(.26055 0 0 .27865 -266.22 -55.05)"/><ellipse cx="401" cy="675.86" fill="url(#gimp_svg__h)" filter="url(#gimp_svg__filter5909)" opacity=".741" rx="186" ry="70.5" transform="matrix(.4642 0 0 .4063 -348.89 -145.33)"/></g><path fill="url(#gimp_svg__l)" d="M142.18 166.24s-1.875 7.5-13.5 8-33-6-33-6 26.375 11.5 42.5 13 22-7 22-7z" enable-background="accumulate" filter="url(#gimp_svg__filter6363)" opacity=".867" transform="translate(-59.916 -72.812) scale(1.0638)"/><path fill="none" stroke="#000" stroke-miterlimit="10" stroke-width=".94" d="M78.352 58.82s14.636 30.307 48.877 29.452c71.754-1.808 84.337-39.393 86.137-44.816s4.555-4.601 5.191.41c23.403 213.3-162.41 121.78-169.01 85.45 29.404-9.345 27.403-20.132 27.903-31.632z" clip-path="url(#gimp_svg__m)" filter="url(#gimp_svg__n)" transform="translate(-28.87 -25.214) scale(1.0638)"/><path fill="none" d="M203.217 3.647c-.073-.01-.275-.015-.715.498-.44.511-.982 1.486-1.461 2.93-1.021 3.074-5.221 15.571-19.402 27.408-14.18 11.837-38.33 23.062-79.128 24.09C69.355 59.4 52.87 35.91 48.22 28.065l-.93 40.045a1.141 1.141 0 0 1 0 .022c-.28 6.425.18 13.021-3.688 19.358-3.777 6.184-11.667 11.86-27.615 17.082 1.149 4.577 4.889 10.205 10.836 16.042 6.322 6.206 14.975 12.635 25.08 18.454 20.208 11.638 46.222 20.83 71.05 21.255 24.83.426 48.397-7.804 64.276-31.064 15.877-23.257 24.072-61.757 17.472-121.936v-.002c-.167-1.32-.48-2.319-.809-2.928-.326-.608-.605-.734-.676-.745z" opacity=".185"/><ellipse cx="6.099" cy="27.229" fill="url(#gimp_svg__o)" fill-rule="evenodd" rx="4.331" ry="6.099" transform="matrix(4.3927 -3.1821 3.169 4.4108 -81.758 7.333)"/><g transform="translate(115.76 67.014) scale(.26603)"><ellipse cx="401" cy="675.86" fill="url(#gimp_svg__g)" rx="186" ry="70.5" transform="matrix(.26055 0 0 .27865 -266.22 -55.05)"/><ellipse cx="401" cy="675.86" fill="url(#gimp_svg__h)" filter="url(#gimp_svg__filter5909)" opacity=".741" rx="186" ry="70.5" transform="matrix(.4642 0 0 .4063 -348.89 -145.33)"/></g><path fill="url(#gimp_svg__p)" fill-rule="evenodd" d="M65.76 56.596c32.166 26.784 68.111 13.87 103.95 2.121-34.696 19.609-73.579 30.703-103.95-2.121z" enable-background="accumulate" filter="url(#gimp_svg__filter7998)" opacity=".578" transform="matrix(1 0 0 1.1695 0 -9.59)"/><g transform="translate(216.55 53.813) scale(.34343)"><ellipse cx="203.65" cy="533.35" fill="url(#gimp_svg__q)" rx="478" ry="281.43" transform="matrix(.18146 0 0 .28795 -308.32 -64.458)"/><ellipse cx="203.65" cy="533.35" fill="url(#gimp_svg__r)" filter="url(#gimp_svg__filter5638)" opacity=".074" rx="478" ry="281.43" transform="matrix(.16859 0 0 .25597 -305.7 -50.901)"/><ellipse cx="130.5" cy="105" fill="#fff" fill-rule="evenodd" enable-background="accumulate" filter="url(#gimp_svg__s)" opacity=".84" rx="60.5" ry="28" transform="matrix(.50384 0 0 .56976 -337.28 -23.404)"/></g><g transform="translate(-55.393 -11.202) scale(1.0638)"><circle cx="173.95" cy="94.426" r="12.374" fill="url(#gimp_svg__t)" enable-background="accumulate"/><path fill="#222628" d="m182.63 102.746-7.002-6.504 4.022 8.67-4.65-8.35 1.147 9.488-1.842-9.378-1.842 9.378 1.146-9.488-4.65 8.35 4.023-8.67-7.003 6.504 6.505-7.002-8.67 4.022 8.35-4.65-9.488 1.147 9.378-1.842-9.378-1.842 9.488 1.146-8.35-4.65 8.67 4.022-6.505-7.002 7.003 6.504-4.022-8.669 4.65 8.35-1.147-9.488 1.842 9.377 1.842-9.377L175 92.28l4.65-8.35-4.022 8.67 7.002-6.505-6.504 7.002 8.67-4.022-8.35 4.65 9.488-1.146-9.378 1.842 9.378 1.842-9.488-1.147 8.35 4.65-8.67-4.022z" enable-background="accumulate"/><circle cx="173.95" cy="94.426" r="12.374" enable-background="accumulate" transform="translate(94.43 51.26) scale(.45714)"/></g><circle cx="21.39" cy="20.953" r="1.768" fill="url(#gimp_svg__u)" fill-rule="evenodd" transform="matrix(9.954 0 0 9.995 -92.994 -133.96)"/><circle cx="21.39" cy="20.953" r="1.768" fill="#fff" fill-rule="evenodd" transform="matrix(4.8748 0 0 4.8949 16.546 -21.668)"/><g transform="translate(131.38 69.537) scale(.21772)"><ellipse cx="203.65" cy="533.35" fill="url(#gimp_svg__q)" rx="478" ry="281.43" transform="matrix(.18146 0 0 .28795 -308.32 -64.458)"/><ellipse cx="203.65" cy="533.35" fill="url(#gimp_svg__r)" filter="url(#gimp_svg__filter5638)" opacity=".074" rx="478" ry="281.43" transform="matrix(.16859 0 0 .25597 -305.7 -50.901)"/><ellipse cx="130.5" cy="105" fill="#fff" fill-rule="evenodd" enable-background="accumulate" filter="url(#gimp_svg__s)" opacity=".84" rx="60.5" ry="28" transform="matrix(.50384 0 0 .56976 -337.28 -23.404)"/></g><g transform="translate(-41.025 28.321) scale(.6744)"><circle cx="173.95" cy="94.426" r="12.374" fill="url(#gimp_svg__t)" enable-background="accumulate"/><path d="m182.63 102.746-7.002-6.504 4.022 8.67-4.65-8.35 1.147 9.488-1.842-9.378-1.842 9.378 1.146-9.488-4.65 8.35 4.023-8.67-7.003 6.504 6.505-7.002-8.67 4.022 8.35-4.65-9.488 1.147 9.378-1.842-9.378-1.842 9.488 1.146-8.35-4.65 8.67 4.022-6.505-7.002 7.003 6.504-4.022-8.669 4.65 8.35-1.147-9.488 1.842 9.377 1.842-9.377L175 92.28l4.65-8.35-4.022 8.67 7.002-6.505-6.504 7.002 8.67-4.022-8.35 4.65 9.488-1.146-9.378 1.842 9.378 1.842-9.488-1.147 8.35 4.65-8.67-4.022z" enable-background="accumulate"/><circle cx="173.95" cy="94.426" r="12.374" enable-background="accumulate" transform="translate(94.43 51.26) scale(.45714)"/></g><g fill-rule="evenodd"><circle cx="21.39" cy="20.953" r="1.768" fill="url(#gimp_svg__u)" transform="matrix(6.3104 0 0 6.3363 -64.862 -49.501)"/><circle cx="21.39" cy="20.953" r="1.768" fill="#fff" transform="matrix(3.0904 0 0 3.1031 4.581 21.686)"/><ellipse cx="4.066" cy="23.251" fill="url(#gimp_svg__v)" filter="url(#gimp_svg__filter6525)" opacity=".44" rx="1.768" ry="2.121" transform="matrix(7.6505 0 0 8.0983 -6.47 -88.15)"/><ellipse cx="4.066" cy="23.251" fill="url(#gimp_svg__v)" rx="1.768" ry="2.121" transform="matrix(5.4165 0 0 4.4358 -.805 -11.295)"/></g><g opacity=".458"><path fill="url(#gimp_svg__w)" d="M213 65s-10 16.375-10.25 25.75S212 102.5 212 102.5s-12.5-2.125-12.25-11.5S213 65 213 65Z" enable-background="accumulate" filter="url(#gimp_svg__filter6627)" opacity="1" transform="translate(-63.743 -39.395) scale(1.2329)"/><path fill="url(#gimp_svg__x)" d="M214.75 65.25s-6.25 14.875-6.5 24.25 5.5 13.25 5.5 13.25-12.5-2.125-12.25-11.5 13.25-26 13.25-26z" enable-background="accumulate" filter="url(#gimp_svg__filter6583)" opacity=".663" transform="translate(-63.743 -39.395) scale(1.2329)"/><path fill="url(#gimp_svg__y)" d="M215.02 51.808c-.9 15.548-13.372 27.01-16.015 38.942-2.029 9.156 11 11.75 11 11.75s-13.408-2.193-12.25-11.5c1.603-12.876 14-25.271 17.265-39.192z" enable-background="accumulate" filter="url(#gimp_svg__filter6657)" opacity="1" transform="translate(-63.743 -39.395) scale(1.2329)"/></g><g clip-path="url(#gimp_svg__z)"><path fill="none" stroke="url(#gimp_svg__A)" stroke-linecap="round" d="m136.31 122.58 8.973 6.784"/><path fill="url(#gimp_svg__B)" d="M242.57 222.94c-7.663-19.55-2.075-35.432-17.184-41.036-10.791-4.002-15.43 9.088-9.407 20.247 7.855 14.553 26.592 20.79 26.592 20.79z"/><path fill="url(#gimp_svg__C)" d="M169.73 10.036s-10.505 12.578-11.86 24.96c-.48 4.38-6.389 3.45-5.102-1.272 2.78-10.197 16.962-23.688 16.962-23.688z" filter="url(#gimp_svg__filter6586)" opacity=".428" transform="matrix(-.26375 .47458 -.47464 -.2638 278.48 119.84)"/><path fill="url(#gimp_svg__D)" d="m158.3 114.02-23.302-7.572c-15.488 41.568-26.19 128.78-26.19 128.78.571 5.684 8.058 5.931 9.545 1.224 0 0 28.297-81.747 39.946-122.43z" transform="matrix(-.18991 .50865 -.50873 -.18994 276.05 112.28)"/><path fill="url(#gimp_svg__E)" fill-rule="evenodd" d="M146 116.5c-24.98 33.85-45.868 71.209-66.25 109 22.755-35.772 45.131-71.986 71.75-103.25z" enable-background="accumulate" filter="url(#gimp_svg__filter6532)" opacity=".391" transform="matrix(-.00443 .54294 -.543 -.00448 257.25 81.58)"/><path fill="url(#gimp_svg__F)" d="M170.16 58.56c-5.084 2.024-11.014-.47-13.886-5.117l-19.428 47.311.22 3.328-4.33 2.112c4.658 5.414 19.904 11.993 27.38 8.496l-2.36-4.194 1.964-2.765z" transform="matrix(-.18991 .50865 -.50873 -.18994 276.05 112.28)"/><path fill="none" stroke="#fff" stroke-linecap="round" stroke-linejoin="round" stroke-width="5.525" d="m158.41 107.67 25.641-32.18" filter="url(#gimp_svg__G)" transform="matrix(-.00443 .54294 -.543 -.00448 257.25 81.58)"/><path fill="#fff" fill-rule="evenodd" d="M184.064 70.155c2.051 4.487 6.149 7.537 10.733 9.118-7.057.047-10.352-4.42-10.733-9.118z" enable-background="accumulate" filter="url(#gimp_svg__H)" transform="matrix(-.00443 .54294 -.543 -.00448 257.25 81.58)"/><g fill="#fff" transform="matrix(-.00443 .54294 -.543 -.00448 258.74 76.649)"><circle cx="7.625" cy="37.75" r="1.25" filter="url(#gimp_svg__I)" transform="matrix(-3.4548 .30614 -.30614 -3.4548 200.24 243.87)"/><circle cx="7.625" cy="37.75" r="1.25" transform="matrix(-2.0603 .18257 -.18257 -2.0603 184.94 192.17)"/></g><g fill-rule="evenodd"><path d="m166.12 126.88-.75-4.75 3.75-1.875 5.75-9.375-6.625 8.625-4.875 1.875z" enable-background="accumulate" filter="url(#gimp_svg__J)" transform="matrix(-.00443 .54294 -.543 -.00448 257.25 81.58)"/><path fill="url(#gimp_svg__K)" d="m167.12 127.88-1.5-5.25c-9.779-2.305-13.686-8.359-16-12.25l-4.75.25c5.052 7.852 10.252 15.184 22.25 17.25z" enable-background="accumulate" filter="url(#gimp_svg__filter6142)" transform="matrix(-.00443 .54294 -.543 -.00448 257.25 81.58)"/><path fill="url(#gimp_svg__L)" d="M137.98 102.44c6.442 4.245 13.212 5.889 20.164 5.695-7.958 2.234-14.635-.095-20.165-5.695z" enable-background="accumulate" transform="matrix(-.18991 .50865 -.50873 -.18994 276.05 112.28)"/><path fill="url(#gimp_svg__M)" d="m159.82 114.57-3.205-4.42c-9.978 1.18-15.72-3.173-19.225-6.037l-4.378 1.86c7.433 5.65 14.827 10.76 26.808 8.597z" enable-background="accumulate" transform="matrix(-.18991 .50865 -.50873 -.18994 276.05 112.28)"/><path fill="url(#gimp_svg__N)" d="M133.57 106.46c6.347 6.04 16.993 9.369 26.66 8.073-10.468 1.963-23.065-1.025-26.66-8.073z" enable-background="accumulate" transform="matrix(-.18991 .50865 -.50873 -.18994 276.05 112.28)"/></g><path fill="url(#gimp_svg__O)" d="M226.76 192.344c1.59 5.547 4.083 11.282 6.473 16.995 0 0-4.578-10.289-4.744-11.173-.167-.885-1.778-5.707-1.73-5.822z" enable-background="accumulate" opacity=".355"/><path fill="url(#gimp_svg__P)" d="M222.342 189.53c2.272 5.305 5.464 10.682 8.55 16.052 0 0-5.83-9.635-6.105-10.492-.276-.857-2.479-5.44-2.445-5.56z" enable-background="accumulate" opacity=".355"/><path fill="url(#gimp_svg__Q)" d="M215.8 194.28c4.215 3.94 9.301 7.578 14.288 11.25 0 0-9.215-6.472-9.812-7.145-.598-.673-4.46-3.982-4.476-4.105z" enable-background="accumulate" opacity=".355"/><path fill="url(#gimp_svg__R)" d="m56.5 211.5 29.25-36L71 200Z" enable-background="accumulate" filter="url(#gimp_svg__filter7068)" opacity=".355" transform="matrix(-.53731 .09381 .07452 .6764 246.03 67.27)"/><path fill="url(#gimp_svg__S)" d="m136.854 126.74 2.439-.59 53.803 35.385.59 2.438 2.253 1.704 19.951 16.64-1.56 1.477-21.605-17.67-1.333-2.337z" enable-background="accumulate" opacity=".355"/><path fill="url(#gimp_svg__T)" d="M227.38 190.09c1.406 5.343 3.61 10.867 5.724 16.37 0 0-4.048-9.91-4.195-10.762s-1.572-5.497-1.529-5.608z" enable-background="accumulate" opacity=".355"/><path fill="url(#gimp_svg__U)" d="M228.16 201.09c2.79 5.052 6.502 10.084 10.108 15.118 0 0-6.761-9.005-7.121-9.83s-3.01-5.165-2.987-5.288z" enable-background="accumulate" opacity=".355"/></g><path fill="url(#gimp_svg__V)" d="m201.36 192.2-9.369 4.773 6.364 5.304c-.654-3.943.051-7.05 5.48-7.248z" enable-background="accumulate" filter="url(#gimp_svg__filter8275)" transform="translate(-59.916 -72.812) scale(1.0638)"/><path fill="url(#gimp_svg__W)" d="M98.684 195.24s40.375 23.25 70.5 25.5 50-16.5 50-16.5-21.375 11.75-51.5 9.5-69-18.5-69-18.5z" enable-background="accumulate" filter="url(#gimp_svg__filter8393)" opacity=".313" transform="translate(-59.916 -72.812) scale(1.0638)"/><ellipse cx="185.25" cy="74.875" fill="url(#gimp_svg__X)" fill-rule="evenodd" enable-background="accumulate" filter="url(#gimp_svg__filter7768)" opacity=".578" rx="2" ry="3.625" transform="translate(-76.655 -30.983) scale(1.4138)"/><path fill="url(#gimp_svg__Y)" fill-rule="evenodd" d="M187.91 43.282c-6.81 9.424-18.293 15.11-29.698 20.86 13.374-1.017 27.232-6.228 29.698-20.86z" enable-background="accumulate" filter="url(#gimp_svg__filter8088)" opacity=".271"/><path fill="url(#gimp_svg__Z)" d="M18.872 128.79c13.778 9.054 26.929 13.987 36.75-3-10.249 15.806-23.2 11.623-36.75 3z" enable-background="accumulate" filter="url(#gimp_svg__filter8622)" opacity=".892"/></g></svg>