<svg xmlns="http://www.w3.org/2000/svg" viewBox="0 0 48 48"><path fill="#b2c8ff" fill-rule="evenodd" d="M26.984 7.618 42.63 15.44a.993.993 0 0 1 .02 1.766L22.33 27.931a3.972 3.972 0 0 1-3.631.04L5.94 21.591c-1.554-.624-3.292.517-3.292 2.235 0 1.38.78 2.643 2.015 3.261l12.791 6.395a4.29 4.29 0 0 1 3.07-1.288 4.29 4.29 0 0 1 3.003 1.221l15.932-8.408a4.303 4.303 0 1 1 1.246 2.337l-15.94 8.412a4.303 4.303 0 1 1-8.495.094L3.293 29.364A5.959 5.959 0 0 1 0 24.034v-1.257c0-1.719.95-3.296 2.471-4.099l20.882-11.02a3.972 3.972 0 0 1 3.63-.04zm-6.459 30.535a1.655 1.655 0 1 0 0-3.31 1.655 1.655 0 0 0 0 3.31zm24.827-13.904a1.655 1.655 0 1 1-3.31 0 1.655 1.655 0 0 1 3.31 0z" clip-rule="evenodd"/></svg>