<?xml version="1.0" encoding="UTF-8" standalone="no"?>
<!-- Created with Inkscape (http://www.inkscape.org/) -->

<svg
   width="48"
   height="48"
   viewBox="0 0 12.7 12.7"
   version="1.1"
   id="svg830"
   inkscape:version="1.2.1 (9c6d41e410, 2022-07-14, custom)"
   sodipodi:docname="drawing.svg"
   xmlns:inkscape="http://www.inkscape.org/namespaces/inkscape"
   xmlns:sodipodi="http://sodipodi.sourceforge.net/DTD/sodipodi-0.dtd"
   xmlns="http://www.w3.org/2000/svg"
   xmlns:svg="http://www.w3.org/2000/svg">
  <sodipodi:namedview
     id="namedview832"
     pagecolor="#ffffff"
     bordercolor="#666666"
     borderopacity="1.0"
     inkscape:showpageshadow="2"
     inkscape:pageopacity="0.0"
     inkscape:pagecheckerboard="0"
     inkscape:deskcolor="#d1d1d1"
     inkscape:document-units="mm"
     showgrid="false"
     inkscape:zoom="3.659624"
     inkscape:cx="50.278389"
     inkscape:cy="47.81912"
     inkscape:window-width="2560"
     inkscape:window-height="1367"
     inkscape:window-x="0"
     inkscape:window-y="0"
     inkscape:window-maximized="1"
     inkscape:current-layer="layer1" />
  <defs
     id="defs827" />
  <g
     inkscape:label="Layer 1"
     inkscape:groupmode="layer"
     id="layer1">
    <g
       id="g1005"
       transform="matrix(0.29807494,0,0,0.29807494,-25.027104,-19.941254)">
      <g
         id="g576"
         transform="matrix(0.35277777,0,0,-0.35277777,-18.421062,241.54122)">
        <path
           d="m 350.609,493.555 c -33.347,0 -60.388,-27.036 -60.388,-60.388 0,-26.681 17.303,-49.317 41.297,-57.302 3.018,-0.559 4.126,1.31 4.126,2.905 0,1.44 -0.056,6.197 -0.082,11.243 -16.8,-3.653 -20.345,7.125 -20.345,7.125 -2.747,6.98 -6.705,8.836 -6.705,8.836 -5.479,3.748 0.413,3.671 0.413,3.671 6.064,-0.425 9.257,-6.224 9.257,-6.224 5.386,-9.231 14.127,-6.562 17.573,-5.019 0.542,3.903 2.107,6.568 3.834,8.075 -13.413,1.527 -27.513,6.705 -27.513,29.844 0,6.593 2.359,11.98 6.222,16.209 -0.627,1.522 -2.694,7.663 0.585,15.981 0,0 5.071,1.623 16.611,-6.19 4.817,1.338 9.983,2.009 15.115,2.032 5.132,-0.023 10.302,-0.694 15.128,-2.032 11.526,7.813 16.59,6.19 16.59,6.19 3.287,-8.318 1.219,-14.459 0.592,-15.981 3.872,-4.229 6.215,-9.616 6.215,-16.209 0,-23.194 -14.127,-28.301 -27.574,-29.796 2.166,-1.874 4.096,-5.549 4.096,-11.183 0,-8.08 -0.07,-14.583 -0.07,-16.572 0,-1.607 1.087,-3.49 4.148,-2.897 23.981,7.994 41.262,30.622 41.262,57.294 0,33.352 -27.037,60.388 -60.387,60.388"
           style="fill:#1b1817;fill-opacity:1;fill-rule:evenodd;stroke:none;stroke-width:0.1"
           id="path18" />
        <path
           d="m 313.093,406.851 c -0.133,-0.301 -0.605,-0.39 -1.035,-0.184 -0.438,0.197 -0.684,0.606 -0.542,0.907 0.13,0.308 0.603,0.394 1.04,0.189 0.439,-0.198 0.689,-0.611 0.537,-0.912 v 0"
           style="fill:#1b1817;fill-opacity:1;fill-rule:nonzero;stroke:none;stroke-width:0.1"
           id="path20" />
        <path
           d="m 315.539,404.123 c -0.288,-0.267 -0.851,-0.143 -1.233,0.279 -0.395,0.421 -0.469,0.984 -0.177,1.255 0.297,0.266 0.843,0.141 1.239,-0.279 0.395,-0.426 0.472,-0.985 0.171,-1.255 v 0"
           style="fill:#1b1817;fill-opacity:1;fill-rule:nonzero;stroke:none;stroke-width:0.1"
           id="path22" />
        <path
           d="m 317.92,400.645 c -0.37,-0.257 -0.975,-0.016 -1.349,0.521 -0.37,0.537 -0.37,1.181 0.008,1.439 0.375,0.258 0.971,0.025 1.35,-0.507 0.369,-0.546 0.369,-1.19 -0.009,-1.453 v 0"
           style="fill:#1b1817;fill-opacity:1;fill-rule:nonzero;stroke:none;stroke-width:0.1"
           id="path24" />
        <path
           d="m 321.182,397.285 c -0.331,-0.365 -1.036,-0.267 -1.552,0.231 -0.528,0.487 -0.675,1.178 -0.343,1.543 0.335,0.366 1.044,0.263 1.564,-0.231 0.524,-0.486 0.684,-1.182 0.331,-1.543 v 0"
           style="fill:#1b1817;fill-opacity:1;fill-rule:nonzero;stroke:none;stroke-width:0.1"
           id="path26" />
        <path
           d="m 325.682,395.334 c -0.146,-0.473 -0.825,-0.688 -1.509,-0.487 -0.683,0.207 -1.13,0.761 -0.992,1.239 0.142,0.476 0.824,0.7 1.513,0.485 0.682,-0.206 1.13,-0.756 0.988,-1.237 v 0"
           style="fill:#1b1817;fill-opacity:1;fill-rule:nonzero;stroke:none;stroke-width:0.1"
           id="path28" />
        <path
           d="m 330.624,394.972 c 0.017,-0.498 -0.563,-0.911 -1.281,-0.92 -0.722,-0.016 -1.306,0.387 -1.314,0.877 0,0.503 0.567,0.912 1.289,0.924 0.718,0.014 1.306,-0.386 1.306,-0.881 v 0"
           style="fill:#1b1817;fill-opacity:1;fill-rule:nonzero;stroke:none;stroke-width:0.1"
           id="path30" />
        <path
           d="m 335.223,395.755 c 0.086,-0.486 -0.413,-0.985 -1.126,-1.118 -0.701,-0.128 -1.35,0.172 -1.439,0.654 -0.087,0.498 0.421,0.997 1.121,1.126 0.714,0.124 1.353,-0.168 1.444,-0.662 v 0"
           style="fill:#1b1817;fill-opacity:1;fill-rule:nonzero;stroke:none;stroke-width:0.1"
           id="path32" />
      </g>
    </g>
  </g>
</svg>
