<svg xmlns="http://www.w3.org/2000/svg" viewBox="0 0 48 48"><g fill="#1b1817"><path fill-rule="evenodd" d="M24 .59c-13.253 0-24 10.745-24 24 0 10.605 6.877 19.601 16.413 22.775 1.2.222 1.64-.521 1.64-1.155 0-.572-.022-2.463-.032-4.468-6.677 1.452-8.086-2.832-8.086-2.832-1.092-2.774-2.665-3.512-2.665-3.512-2.178-1.49.164-1.459.164-1.459 2.41.17 3.68 2.474 3.68 2.474 2.14 3.669 5.614 2.608 6.983 1.995.216-1.552.838-2.61 1.524-3.21-5.33-.607-10.935-2.664-10.935-11.86 0-2.621.938-4.762 2.473-6.443-.249-.605-1.07-3.045.233-6.351 0 0 2.015-.645 6.601 2.46 1.915-.532 3.968-.799 6.008-.808 2.04.01 4.094.276 6.012.808 4.581-3.105 6.594-2.46 6.594-2.46 1.306 3.306.484 5.746.235 6.351 1.539 1.681 2.47 3.822 2.47 6.442 0 9.218-5.615 11.248-10.959 11.842.86.745 1.628 2.206 1.628 4.445 0 3.211-.028 5.796-.028 6.586 0 .639.432 1.387 1.649 1.151C41.132 44.184 48 35.191 48 24.591c0-13.256-10.746-24-24-24"/><path d="M9.089 35.052c-.053.12-.24.155-.411.073-.174-.078-.272-.24-.216-.36.052-.123.24-.157.414-.075.174.078.273.242.213.362m.972 1.084c-.114.106-.338.057-.49-.11-.157-.168-.186-.392-.07-.5.118-.105.335-.055.492.111.157.17.188.392.068.5m.946 1.382c-.147.102-.387.006-.536-.208-.147-.213-.147-.469.003-.571.15-.103.386-.01.537.201.147.217.147.473-.004.578m1.297 1.335c-.132.145-.412.106-.617-.092-.21-.193-.268-.468-.136-.613.133-.146.415-.105.621.092.209.193.272.47.132.613m1.788.775c-.058.188-.328.274-.6.194-.27-.082-.449-.303-.394-.493.057-.189.328-.278.602-.192.27.082.449.3.392.491m1.964.144c.007.198-.223.362-.509.366-.287.006-.519-.154-.522-.349 0-.2.225-.362.512-.367.286-.006.52.153.52.35m1.827-.311c.034.193-.164.391-.447.444-.279.051-.537-.068-.572-.26-.035-.198.167-.396.445-.447.284-.05.538.067.574.263"/></g></svg>