<svg xmlns="http://www.w3.org/2000/svg" xmlns:xlink="http://www.w3.org/1999/xlink" viewBox="0 0 48 48"><path fill="#9edcf2" d="M37.669 40.31c0 2.607-6.038 4.707-13.481 4.707-7.444 0-13.482-2.119-13.482-4.706 0-2.607 6.038-4.707 13.482-4.707 7.443 0 13.48 2.1 13.48 4.707zm0 0"/><g transform="translate(0 2.848) scale(.1875)"><defs><path id="github-octocat_svg__a" d="M98.1 244.8c1.6 7.5 5.5 11.9 9.4 14.5h41.1c5-3.4 10.1-9.8 10.1-21.8v-31s.6-7.7 7.7-10.2c0 0 4.1-2.9-.3-4.5 0 0-19.5-1.6-19.5 14.4v23.6s.8 8.7-3.8 12.3v-29.2s.3-9.3 5.1-12.8c0 0 3.2-5.7-3.8-4.2 0 0-13.4 1.9-14 17.6l-.3 30h-3.2l-.3-30c-.6-15.6-14-17.6-14-17.6-7-1.6-3.8 4.2-3.8 4.2 4.8 3.5 5.1 12.8 5.1 12.8v29.5c-4.6-3.3-3.8-12.6-3.8-12.6v-23.6c0-16-19.5-14.4-19.5-14.4-4.5 1.6-.3 4.5-.3 4.5 7 2.6 7.7 10.2 7.7 10.2v21.7z"/></defs><clipPath id="github-octocat_svg__b"><use xlink:href="#github-octocat_svg__a" overflow="visible"/></clipPath><path fill="#7dbce7" d="M200.9 199.8c0 13.9-32.2 25.1-71.9 25.1s-71.9-11.3-71.9-25.1c0-13.9 32.2-25.1 71.9-25.1s71.9 11.2 71.9 25.1zm0 0" clip-path="url(#github-octocat_svg__b)"/></g><path fill="#9edcf2" d="m8.794 26.454-.394 1.35s-.094.488.356.582c.488-.02.45-.47.413-.6zm0 0"/><path fill="#010101" d="m47.963 20.773.037-.169c-3.956-.787-8.006-.806-10.462-.693.393-1.444.525-3.132.525-4.988 0-2.681-1.013-4.819-2.625-6.431.28-.919.656-2.963-.375-5.569 0 0-1.838-.581-6.02 2.213a21.026 21.026 0 0 0-5.118-.62 22.04 22.04 0 0 0-5.662.732c-4.313-2.944-6.207-2.344-6.207-2.344-1.237 3.094-.469 5.4-.243 5.963-1.463 1.575-2.344 3.581-2.344 6.037 0 1.857.206 3.525.731 4.969-2.475-.094-6.375-.056-10.2.713l.038.168c3.824-.768 7.762-.787 10.218-.693.113.3.244.6.375.88-2.437.076-6.581.395-10.556 1.52l.056.168c4.013-1.125 8.194-1.425 10.613-1.5 1.462 2.7 4.312 4.463 9.412 5.007-.731.487-1.462 1.312-1.762 2.718-.994.469-4.106 1.632-5.981-1.593 0 0-1.05-1.913-3.057-2.063 0 0-1.95-.037-.131 1.219 0 0 1.294.619 2.194 2.925 0 0 1.181 3.937 6.825 2.662v4.032s-.113 1.443-1.444 1.912c0 0-.788.544.056.844 0 0 3.656.3 3.656-2.7v-4.425s-.15-1.763.713-2.363v7.275s-.056 1.744-.956 2.4c0 0-.6 1.069.712.788 0 0 2.513-.356 2.625-3.3l.056-7.369h.6l.057 7.369c.112 2.925 2.625 3.3 2.625 3.3 1.312.3.712-.788.712-.788-.9-.656-.956-2.4-.956-2.4v-7.218c.862.675.712 2.306.712 2.306v4.425c0 3 3.657 2.7 3.657 2.7.843-.3.056-.844.056-.844-1.313-.487-1.444-1.912-1.444-1.912v-5.813c0-2.269-.956-3.469-1.894-4.087 5.438-.544 8.044-2.288 9.244-5.025 2.381.056 6.675.356 10.763 1.518l.056-.168c-4.069-1.144-8.325-1.444-10.744-1.52.113-.28.206-.562.3-.862 2.513-.093 6.581-.093 10.556.694zm0 0"/><path fill="#f5ccb3" d="M32.737 14.792c1.163 1.069 1.857 2.344 1.857 3.712 0 6.45-4.8 6.619-10.725 6.619s-10.725-.9-10.725-6.619c0-1.368.675-2.643 1.837-3.693 1.931-1.763 5.194-.825 8.888-.825 3.693 0 6.937-.957 8.868.806zm0 0"/><path fill="#fff" d="M20.306 18.842c0 1.781-.994 3.206-2.231 3.206-1.237 0-2.231-1.444-2.231-3.206 0-1.781.994-3.206 2.231-3.206 1.237-.02 2.231 1.425 2.231 3.206zm0 0"/><path fill="#af5c51" d="M19.594 18.88c0 1.18-.675 2.137-1.482 2.137-.824 0-1.48-.956-1.48-2.138 0-1.181.674-2.137 1.48-2.137.807 0 1.482.956 1.482 2.137zm0 0"/><path fill="#fff" d="M32.287 18.842c0 1.781-.993 3.206-2.23 3.206-1.238 0-2.232-1.444-2.232-3.206 0-1.781.994-3.206 2.231-3.206 1.219-.02 2.231 1.425 2.231 3.206zm0 0"/><path fill="#af5c51" d="M31.556 18.88c0 1.18-.675 2.137-1.481 2.137-.825 0-1.481-.956-1.481-2.138 0-1.181.675-2.137 1.481-2.137.825 0 1.481.956 1.481 2.137zm-7.087 2.812c0 .3-.244.562-.563.562a.564.564 0 0 1-.562-.562c0-.319.243-.563.562-.563.3 0 .563.244.563.563zm-1.857 1.406c-.037-.094.02-.187.113-.225.094-.037.187.019.225.113.15.412.525.675.956.675.432 0 .807-.282.957-.675.037-.094.13-.15.225-.113.093.038.15.131.112.225a1.376 1.376 0 0 1-1.294.919 1.376 1.376 0 0 1-1.293-.919zm0 0"/><path fill="#c4e5d9" d="M10.219 25.648c0 .15-.169.263-.394.263-.206 0-.394-.113-.394-.263 0-.15.169-.262.394-.262s.394.112.394.262zm1.087.6c0 .15-.169.263-.394.263-.206 0-.393-.113-.393-.263 0-.15.168-.262.393-.262s.394.112.394.262zm.656.788c0 .15-.168.262-.393.262-.207 0-.394-.112-.394-.262 0-.15.169-.263.394-.263.225-.019.393.113.393.263zm.601.9c0 .15-.17.262-.394.262-.207 0-.394-.112-.394-.262 0-.15.169-.263.394-.263.225-.019.393.113.393.263zm.656.824c0 .15-.169.263-.394.263-.206 0-.394-.112-.394-.262 0-.15.169-.263.394-.263s.394.113.394.263zm.9.732c0 .15-.169.262-.394.262-.206 0-.394-.112-.394-.262 0-.15.169-.263.394-.263.225-.018.394.113.394.263zm1.256.468c0 .15-.169.263-.394.263-.206 0-.394-.112-.394-.262 0-.15.17-.263.394-.263.225 0 .394.113.394.263zm1.256 0c0 .15-.168.263-.393.263-.207 0-.394-.112-.394-.262 0-.15.169-.263.394-.263s.393.113.393.263zm1.275-.206c0 .15-.168.263-.393.263-.207 0-.394-.113-.394-.263 0-.15.168-.262.393-.262.207 0 .394.112.394.262zm0 0"/></svg>