<svg xmlns="http://www.w3.org/2000/svg" viewBox="0 0 48 48"><defs id="gitlab_svg__defs4"><style id="style2">.gitlab_svg__cls-2{fill:#fc6d26}</style></defs><g id="gitlab_svg__LOGO" style="stroke-width:4.00112" transform="translate(-23.487 -23.49) scale(.24993)"><path id="gitlab_svg__path6" d="m282.83 170.73-.27-.69-26.14-68.22a6.81 6.81 0 0 0-2.69-3.24 7 7 0 0 0-8 .43 7 7 0 0 0-2.32 3.52l-17.65 54h-71.47l-17.65-54a6.86 6.86 0 0 0-2.32-3.53 7 7 0 0 0-8-.43 6.87 6.87 0 0 0-2.69 3.24L97.44 170l-.26.69a48.54 48.54 0 0 0 16.1 56.1l.09.07.24.17 39.82 29.82 19.7 14.91 12 9.06a8.07 8.07 0 0 0 9.76 0l12-9.06 19.7-14.91 40.06-30 .1-.08a48.56 48.56 0 0 0 16.08-56.04z" style="stroke-width:4.00112;fill:#e24329"/><path id="gitlab_svg__path8" d="m282.83 170.73-.27-.69a88.3 88.3 0 0 0-35.15 15.8L190 229.25c19.55 14.79 36.57 27.64 36.57 27.64l40.06-30 .1-.08a48.56 48.56 0 0 0 16.1-56.08z" class="gitlab_svg__cls-2" style="stroke-width:4.00112"/><path id="gitlab_svg__path10" d="m153.43 256.89 19.7 14.91 12 9.06a8.07 8.07 0 0 0 9.76 0l12-9.06 19.7-14.91S209.55 244 190 229.25c-19.55 14.75-36.57 27.64-36.57 27.64z" style="stroke-width:4.00112;fill:#fca326"/><path id="gitlab_svg__path12" d="M132.58 185.84A88.19 88.19 0 0 0 97.44 170l-.26.69a48.54 48.54 0 0 0 16.1 56.1l.09.07.24.17 39.82 29.82L190 229.21z" class="gitlab_svg__cls-2" style="stroke-width:4.00112"/></g></svg>