<svg xmlns="http://www.w3.org/2000/svg" viewBox="0 0 48 48"><defs><clipPath id="gluetun_svg__f"><rect width="45.088" height="44.901" x="80.261" y="77.425" fill="#f5ff00" fill-rule="evenodd" ry=".055" style="paint-order:markers fill stroke"/></clipPath><clipPath id="gluetun_svg__e"><rect width="45.088" height="44.901" x="116.99" y="84.882" fill="#f5ff00" fill-rule="evenodd" ry=".055" style="paint-order:markers fill stroke"/></clipPath><clipPath id="gluetun_svg__d"><rect width="45.088" height="44.901" x="80.328" y="78.748" fill="#f5ff00" fill-rule="evenodd" ry=".055" style="paint-order:markers fill stroke"/></clipPath><clipPath id="gluetun_svg__c"><rect width="45.088" height="44.901" x="80.328" y="78.748" fill="#f5ff00" fill-rule="evenodd" ry=".055" style="paint-order:markers fill stroke"/></clipPath><clipPath id="gluetun_svg__b"><rect width="45.088" height="44.901" x="116.99" y="84.882" fill="#f5ff00" fill-rule="evenodd" ry=".055" style="paint-order:markers fill stroke"/></clipPath><clipPath id="gluetun_svg__a"><rect width="45.088" height="44.901" x="56.371" y="84.32" fill="#f5ff00" fill-rule="evenodd" ry=".055" style="paint-order:markers fill stroke"/></clipPath><filter id="gluetun_svg__g" width="1.05" height="1.235" x="-.025" y="-.118" color-interpolation-filters="sRGB"><feGaussianBlur stdDeviation=".157"/></filter></defs><g transform="translate(-85.509 -84.909)scale(1.0646)"><g clip-path="url(#gluetun_svg__a)" transform="translate(23.951 -4.88)"><g transform="translate(-7.29 11.013)"><g fill="#2ca02c" stroke="#000" stroke-width=".141"><ellipse cx="84.924" cy="112.36" rx="10.755" ry="3.937"/><path d="M74.17 97.802h21.512v14.552H74.17z"/></g><g fill="#2ca02c"><path d="M74.246 112.1H95.61v.456H74.246z"/><ellipse cx="84.954" cy="95.456" stroke="#000" stroke-width=".141" rx="13.089" ry="3.93"/><path stroke="#000" stroke-width=".141" d="M71.866 88.14h26.177v7.256H71.866z"/><path d="M71.936 93.762h26.037v1.859H71.936z"/><ellipse cx="84.954" cy="88.088" stroke="#000" stroke-width=".141" rx="13.096" ry="3.93"/></g><ellipse cx="84.865" cy="87.979" stroke="#000" stroke-width=".244" rx="11.113" ry="2.373"/></g></g><g clip-path="url(#gluetun_svg__b)" transform="translate(-36.666 -5.44)"><path fill="#06f" stroke="#1f2980" stroke-linejoin="round" stroke-opacity=".232" stroke-width=".6" d="M128.72 100.94c3.517-3.257 9.714-4.76 13.13-1.885.847.712 4.976 2.568 3.779 2.438-3.93-.426-7.848-.845-11.836-.69-1.693.065-3.394-.13-5.073.137z"/></g><path fill="#06f" d="M92.059 94.811c2.683.73 2.834.702 2.844.694 1.266.113 2.468.302 3.804.33.918.07 1.844.108 2.778.1 1.521.025 3-.028 4.456-.204l1.596-.181 1.475-.22-.09-.253-6.677-1.126-7.706.033z" clip-path="url(#gluetun_svg__c)" transform="translate(-.006 .693)"/><ellipse cx="99.879" cy="93.102" fill="#00002d" clip-path="url(#gluetun_svg__d)" rx=".877" ry=".246" transform="translate(-.006 .693)"/><g fill="#13c9fe" fill-opacity=".658" stroke="#0056e3" stroke-linejoin="round" stroke-width=".2" clip-path="url(#gluetun_svg__e)" transform="translate(-36.666 -5.44)"><path d="M135.97 99.395c.492-2.875 1.055-4.671.536-7.29-1.124-5.68-4.217 4.204-6.119 2.582-1.543-1.315 3.365-8.518.543-4.448-1.165 1.68-7.172 2.585-3.642-.443 3.25-2.788 7.686-4.298 11.919-3.94 3.832.323 9.145 3.405 7.772 6.929-.885 2.273-8.142-2.792-5.631-1.934 2.684.916 2.59 5.774-.259 2.6-1.622-1.808-2.269-2.503-3.348.635-.565 1.644-.432 3.533-.65 5.269M148.76 93.535c.402.169.696.582.775.978.09.45.472 1.472-.018 1.416-.45-.052-1.241-.36-1.107-.778.137-.426-.307-.906.104-1.269a.6.6 0 0 1 .378-.149M124.82 94.594c.229-.433 1.26-.465 1.076.147a2.34 2.34 0 0 1-1.442 1.493c-.706.24-.598-.609-.29-1.074.33-.5 1.13-.796 1.185-1.426"/><path d="M145.06 94.329c.588.359.919 1.005 1.116 1.633.172.55-.63.347-.906.174-.522-.326-.75-1.069-.378-1.606q.075-.109.168-.2zM132.49 96.181c.194-.477.563-.821.876-1.246.311-.423 1.175-.606 1.085.18-.081.71-.41 1.535-1.109 1.808-.504.196-.99-.206-.897-.824.02-.127.042-.253.045-.381"/></g><path fill="#0081ff" d="M77.652 119.46c5.44-4.233 6.217-6.615 10.297-6.218s7.771 5.424 13.988 4.101 5.246-5.556 12.823-4.233 7.848 4.227 13.93 4.826 6.665-1.386 10.162-2.71c3.497-1.322 8.743.398 9.714 1.588s6.217 7.409 6.217 7.409l-80.433.396z" clip-path="url(#gluetun_svg__f)" transform="translate(.06 2.016)"/><text xml:space="preserve" x="98.136" y="108.839" fill="#a0cafc" fill-opacity=".762" stroke="#297fcd" stroke-width=".121" filter="url(#gluetun_svg__g)" font-family="'Trebuchet MS'" font-size="4.832" letter-spacing="0" opacity=".715" style="line-height:1.25" transform="matrix(1.0252 0 0 1.0927 -8.122 -6.617)" word-spacing="0"><tspan x="98.136" y="108.839">Gluetun</tspan></text></g></svg>