<?xml version="1.0" encoding="utf-8"?>
<!-- Generator: Adobe Illustrator 27.1.1, SVG Export Plug-In . SVG Version: 6.00 Build 0)  -->
<svg version="1.1" id="Layer_1" xmlns="http://www.w3.org/2000/svg" xmlns:xlink="http://www.w3.org/1999/xlink" x="0px" y="0px"
	 viewBox="0 0 150 150" style="enable-background:new 0 0 150 150;" xml:space="preserve">
<style type="text/css">
	.st0{clip-path:url(#SVGID_00000134251935770592688940000004958842034328723342_);}
	.st1{fill:#2FA148;stroke:#010101;stroke-width:0.3993;stroke-miterlimit:11.3386;}
	.st2{fill:#2FA148;stroke:#010101;stroke-width:0.3997;stroke-miterlimit:11.3386;}
	.st3{fill:#2FA148;}
	.st4{fill:#2FA148;stroke:#010101;stroke-width:0.3996;stroke-miterlimit:11.3386;}
	.st5{fill:#010101;stroke:#010101;stroke-width:0.6922;stroke-miterlimit:11.3386;}
	.st6{clip-path:url(#SVGID_00000156560548980009291800000011746321471903506832_);}
	.st7{fill:#4169B2;stroke:#2D317C;stroke-width:1.7008;stroke-linejoin:round;stroke-miterlimit:11.3386;stroke-opacity:0.232;}
	.st8{clip-path:url(#SVGID_00000159453394356692089500000000349453302489750190_);fill:#4169B2;}
	.st9{clip-path:url(#SVGID_00000129899178408117368650000004939432173044402606_);fill:#10112B;}
	.st10{clip-path:url(#SVGID_00000072280102327349906060000004777192408355648691_);}
	.st11{fill:#35C6F4;fill-opacity:0.6583;stroke:#3B5FAC;stroke-width:0.5669;stroke-linejoin:round;stroke-miterlimit:11.3386;}
	.st12{clip-path:url(#SVGID_00000049188005681057131940000010246427059309011108_);fill:#4479BD;}
	.st13{enable-background:new    ;}
	.st14{fill:#A5C8EA;}
	.st15{font-family:'TrebuchetMS';}
	.st16{font-size:17.6727px;}
	.st17{fill:none;stroke:#357EC2;stroke-width:0.1208;}
</style>
<g id="layer1" transform="translate(-80.321705,-80.239469)">
	<g>
		<defs>
			<path id="SVGID_1_" d="M80.1,80.1h150.5c0.1,0,0.2,0.1,0.2,0.2v149.9c0,0.1-0.1,0.2-0.2,0.2H80.1c-0.1,0-0.2-0.1-0.2-0.2V80.3
				C79.9,80.2,80,80.1,80.1,80.1z"/>
		</defs>
		<clipPath id="SVGID_00000027580445085164116960000001016247433928479383_">
			<use xlink:href="#SVGID_1_"  style="overflow:visible;"/>
		</clipPath>
		
			<g id="g3571" transform="translate(23.950508,-4.8791633)" style="clip-path:url(#SVGID_00000027580445085164116960000001016247433928479383_);">
			<g id="g4600" transform="translate(-7.2906688,11.012701)">
				<g id="g4586">
					<ellipse id="path3743-6-3-2" class="st1" cx="134.4" cy="204.7" rx="36" ry="13.2"/>
					<rect id="rect4570-7" x="98.4" y="155.9" class="st2" width="72" height="48.7"/>
				</g>
				<rect id="rect4570-5-6" x="98.6" y="203.8" class="st3" width="71.5" height="1.5"/>
			</g>
			<g id="g4605" transform="translate(-7.2906688,11.012701)">
				<ellipse id="path3743-6-3" class="st4" cx="134.5" cy="148.1" rx="43.8" ry="13.2"/>
				<rect id="rect4570" x="90.7" y="123.6" class="st2" width="87.6" height="24.3"/>
				<rect id="rect4570-5" x="90.9" y="142.4" class="st3" width="87.1" height="6.2"/>
			</g>
			<g id="g4609" transform="translate(-7.2906688,11.012701)">
				<ellipse id="path3743-6" class="st2" cx="134.5" cy="123.4" rx="43.8" ry="13.2"/>
				<ellipse id="path3743" class="st5" cx="134.2" cy="123.1" rx="37.2" ry="7.9"/>
			</g>
		</g>
	</g>
	<g>
		<defs>
			<path id="SVGID_00000083809974034344268330000002918541120613408915_" d="M80.1,80.1h150.5c0.1,0,0.2,0.1,0.2,0.2v149.9
				c0,0.1-0.1,0.2-0.2,0.2H80.1c-0.1,0-0.2-0.1-0.2-0.2V80.3C79.9,80.2,80,80.1,80.1,80.1z"/>
		</defs>
		<clipPath id="SVGID_00000058570453509083431920000008433591728611423372_">
			<use xlink:href="#SVGID_00000083809974034344268330000002918541120613408915_"  style="overflow:visible;"/>
		</clipPath>
		
			<g id="g3925" transform="translate(-36.666219,-5.4404293)" style="clip-path:url(#SVGID_00000058570453509083431920000008433591728611423372_);">
			<path id="path3793" class="st7" d="M155.8,139.3c2.6-3,6.1-5.3,9.9-6.2c2.5-0.6,5-1.6,7.6-1.9c3-0.3,6.1-0.7,9.2-0.7
				c2.8,0.1,5.6,0.2,8.3,0.8c4.2,0.9,8.4,1.3,12.3,3.5c2.3,1.3,4.6,2.1,7.1,3c1.3,0.5,5.6,3.4,1.7,3.3c-3.5-0.1-6.9-1.4-10.4-1.3
				c-3.7,0-7.2-1.1-10.9-1.2c-3.6-0.1-7.3-0.5-10.9-0.3c-3.3,0.2-6.6,0.6-9.9,0.6c-4.3,0-8.7-0.4-12.9,0.4l-0.4,0L155.8,139.3
				L155.8,139.3L155.8,139.3z"/>
		</g>
	</g>
	<g>
		<defs>
			<path id="SVGID_00000179646446999024011610000014275891245211843225_" d="M80.1,80.1h150.5c0.1,0,0.2,0.1,0.2,0.2v149.9
				c0,0.1-0.1,0.2-0.2,0.2H80.1c-0.1,0-0.2-0.1-0.2-0.2V80.3C79.9,80.2,80,80.1,80.1,80.1z"/>
		</defs>
		<clipPath id="SVGID_00000166651774185124789630000011642876900879487396_">
			<use xlink:href="#SVGID_00000179646446999024011610000014275891245211843225_"  style="overflow:visible;"/>
		</clipPath>
		<path id="path3797" style="clip-path:url(#SVGID_00000166651774185124789630000011642876900879487396_);fill:#4169B2;" d="
			M119.1,133.9c9,2.4,9.5,2.3,9.5,2.3c4.2,0.4,8.3,1,12.7,1.1c3.1,0.2,6.2,0.4,9.3,0.3c5.1,0.1,10-0.1,14.9-0.7l5.3-0.6l4.9-0.7
			l-0.3-0.8l-22.3-3.8l-25.8,0.1L119.1,133.9z"/>
	</g>
	<g>
		<defs>
			<path id="SVGID_00000116236950186159941160000013931274110516231865_" d="M80.1,80.1h150.5c0.1,0,0.2,0.1,0.2,0.2v149.9
				c0,0.1-0.1,0.2-0.2,0.2H80.1c-0.1,0-0.2-0.1-0.2-0.2V80.3C79.9,80.2,80,80.1,80.1,80.1z"/>
		</defs>
		<clipPath id="SVGID_00000141434688229791508030000013170167486439224962_">
			<use xlink:href="#SVGID_00000116236950186159941160000013931274110516231865_"  style="overflow:visible;"/>
		</clipPath>
		
			<ellipse id="path3803" style="clip-path:url(#SVGID_00000141434688229791508030000013170167486439224962_);fill:#10112B;" cx="145.3" cy="128.1" rx="2.9" ry="0.8"/>
	</g>
	<g>
		<defs>
			<path id="SVGID_00000068667694279983037710000018121647749321422011_" d="M80.1,80.1h150.5c0.1,0,0.2,0.1,0.2,0.2v149.9
				c0,0.1-0.1,0.2-0.2,0.2H80.1c-0.1,0-0.2-0.1-0.2-0.2V80.3C79.9,80.2,80,80.1,80.1,80.1z"/>
		</defs>
		<clipPath id="SVGID_00000072965747603042965130000015772200686081508242_">
			<use xlink:href="#SVGID_00000068667694279983037710000018121647749321422011_"  style="overflow:visible;"/>
		</clipPath>
		
			<g id="g3898" transform="translate(-36.666219,-5.4404293)" style="clip-path:url(#SVGID_00000072965747603042965130000015772200686081508242_);">
			<path id="path3869" class="st11" d="M180.1,134.1c0.6-3.6,1-7.1,1.2-10.7c0-0.8,0-2.9,0.1-3.2c0.5-2.3,0.1-7.6,0.5-11
				c0.5-3.6-3.3-9-5.9-6.9c-3,2.4-4,6.4-6.5,9.1c-2.4,2.6-5.1,9.2-8.1,7c-3.2-2.4,2-7.2,3.2-10.1c0.9-2.1,6.1-8.5,3.8-7.4
				c-4.5,2.2-9,4.5-13.1,7.5c-2.7,1.9-10.1,1.9-7.2-3c2.4-4,6.3-6.6,10.2-8.8c4.2-2.5,8.7-5.2,13.5-5.6c5-0.5,9.7-2.2,14.8-2.4
				c4.9-0.2,9.3,2.5,14.1,3.2c4.3,0.6,6.9,4.4,9.7,7.2c2.5,2.5,3.4,5.8,5,8.9c1.2,2.3,3.9,6.6-1.1,5.6c-3.1-0.6-5.1-4-7.6-5.8
				c-2.3-1.7-11.2-6.6-9.1-3.2c2.2,3.6,6.4,5.1,8,9.7c1.7,4.8-4.4,3.8-6.4,1.5c-2.2-2.5-4.8-3.9-7.2-6.7c-2-2.3-4.2-1.8-4.6,1.5
				c-0.5,3.5-1.8,6.8-2.2,10.2c-0.6,4.4-1,8.9-1.3,13.3"/>
			<path id="path3873" class="st11" d="M222.9,114.5c0.8,0.3,1.3,0.9,1.7,1.7c0.2,0.5,0.7,0.9,0.9,1.4c0.4,1.2,0.6,2.5,0.5,3.8
				c-0.1,0.4-0.1,1.1-0.5,1.2c-0.5,0.1-0.8-0.2-1.2-0.5c-0.9-0.6-2.1-1.1-2.4-2.1c-0.2-0.6,0.2-1.1-0.1-1.7
				c-0.4-0.8-0.4-1.9,0.3-2.5c0.4-0.4,0.9-0.6,1.4-0.6"/>
			<path id="path3877" class="st11" d="M142.7,118c0.7-0.8,1.8-1.4,2.9-1c0.6,0.2,0.8,0.9,0.7,1.5c-0.3,1.3-1.2,2.4-2.1,3.2
				c-0.9,0.8-1.9,1.6-3.2,1.8c-0.6,0.1-1.2-0.2-1.5-0.8c-0.4-0.9,0.2-1.9,0.7-2.6c1.1-1.5,2.8-2.4,3.9-3.9c0.2-0.3,0.5-0.7,0.3-1.1"
				/>
			<path id="path3881" class="st11" d="M210.5,117.2c1,0.6,1.8,1.5,2.3,2.5c0.5,1,1.1,2,1.4,3.1c0.1,0.4,0.2,0.9-0.3,1
				c-0.7,0.2-1.4,0.1-2.1-0.2c-1.4-0.7-2.6-2.1-2.6-3.7C209.2,118.9,209.7,117.9,210.5,117.2L210.5,117.2z"/>
			<path id="path3889" class="st11" d="M168.4,123.4c0.6-1.2,1.1-2.5,2.1-3.4c0.9-0.8,1.8-1.7,3-2c0.5-0.2,1.1,0.1,1.3,0.6
				c0.3,1,0.1,2.2-0.3,3.2c-0.5,1.5-1.4,2.9-2.7,3.8c-0.8,0.6-2,0.7-2.8,0.1c-0.4-0.3-1-0.6-1-1.1c0-0.9,0.3-1.8,0.3-2.7"/>
		</g>
	</g>
	<g>
		<defs>
			<path id="SVGID_00000130630511178717174540000002521848451392715669_" d="M80.1,80.1h150.5c0.1,0,0.2,0.1,0.2,0.2v149.9
				c0,0.1-0.1,0.2-0.2,0.2H80.1c-0.1,0-0.2-0.1-0.2-0.2V80.3C79.9,80.2,80,80.1,80.1,80.1z"/>
		</defs>
		<clipPath id="SVGID_00000095310108358907328200000001614301803999901087_">
			<use xlink:href="#SVGID_00000130630511178717174540000002521848451392715669_"  style="overflow:visible;"/>
		</clipPath>
		<path id="path4859" style="clip-path:url(#SVGID_00000095310108358907328200000001614301803999901087_);fill:#4479BD;" d="
			M71.1,220.8c18.2-14.2,20.8-22.1,34.5-20.8c13.7,1.3,26,18.2,46.8,13.7c20.8-4.4,17.6-18.6,42.9-14.2
			c25.4,4.4,26.3,14.1,46.6,16.1c20.4,2,22.3-4.6,34-9.1c11.7-4.4,29.3,1.3,32.5,5.3c3.3,4,20.8,24.8,20.8,24.8l-269.2,1.3
			L71.1,220.8z"/>
	</g>
	<g class="st13">
		<text transform="matrix(0.9382 0 0 1 120.593 190.1304)" class="st14 st15 st16">Gluetun</text>
	</g>
	<g class="st13">
		<text transform="matrix(0.9382 0 0 1 120.593 190.1304)" class="st17 st15 st16">Gluetun</text>
	</g>
</g>
</svg>
