<svg xmlns="http://www.w3.org/2000/svg" width="48" height="48" version="1.0"><g style="fill:#000;fill-opacity:1;fill-rule:nonzero;stroke:none;stroke-miterlimit:4"><path d="M86.068 0C61.466 0 56.851 35.041 70.691 35.041 84.529 35.041 110.671 0 86.068 0ZM45.217 30.699c7.369.45 15.454-28.122 1.604-26.325-13.845 1.797-8.976 25.875-1.604 26.325ZM11.445 48.453c5.241-2.307.675-24.872-8.237-18.718-8.908 6.155 2.996 21.024 8.237 18.718Zm14.767-11.811c6.239-1.272 6.581-26.864-4.545-22.273-11.128 4.592-1.689 23.547 4.545 22.273Zm32.579 57.271c1.107 8.454-6.202 12.629-13.36 7.179-22.787-17.349 37.729-26.004 33.74-49.706-3.311-19.674-63.676-13.617-70.55 17.167-4.653 20.821 19.153 49.707 43.993 49.707 12.22 0 26.315-11.034 28.952-25.012 2.014-10.659-23.699-6.388-22.775.665Z" style="fill:#000;fill-opacity:1" transform="translate(4.475) scale(.40589)"/></g></svg>