<svg xmlns="http://www.w3.org/2000/svg" viewBox="0 0 48 48"><path d="M33.235 0c-7.602 0-9.028 10.826-4.751 10.826C32.759 10.826 40.836 0 33.234 0zM20.613 9.485c2.276.139 4.775-8.69.495-8.134-4.278.555-2.773 7.995-.495 8.134zM10.178 14.97c1.62-.713.208-7.685-2.545-5.783-2.753 1.902.925 6.496 2.545 5.783zm4.562-3.65c1.928-.392 2.034-8.3-1.404-6.881-3.438 1.419-.522 7.276 1.404 6.882zm10.067 17.696c.342 2.613-1.917 3.903-4.128 2.219-7.041-5.36 11.657-8.035 10.425-15.359-1.023-6.078-19.675-4.207-21.799 5.305-1.438 6.433 5.918 15.358 13.593 15.358 3.776 0 8.13-3.41 8.946-7.728.622-3.293-7.323-1.974-7.037.205zm-3.642 11.366c-.942.025-1.685.363-2.232 1.012-.566.676-.851 1.609-.851 2.799 0 1.187.285 2.117.851 2.793.569.675 1.35 1.012 2.347 1.012.999 0 1.782-.337 2.348-1.012.567-.676.85-1.606.85-2.793 0-1.19-.283-2.123-.85-2.799-.566-.675-1.349-1.012-2.348-1.012h-.115zm.07 1.37h.045c.491 0 .872.213 1.141.64.27.426.405 1.027.405 1.8 0 .771-.136 1.368-.405 1.795-.27.426-.65.64-1.141.64-.489 0-.866-.214-1.136-.64-.269-.427-.405-1.024-.405-1.794 0-.774.136-1.375.405-1.802.261-.412.624-.625 1.09-.638zM10.53 47.31c-.83.696-2.063.688-2.577.688-1.036 0-1.856-.34-2.461-1.023-.605-.685-.908-1.613-.908-2.783 0-1.184.308-2.115.925-2.793.616-.679 1.46-1.018 2.531-1.018.414 0 .81.046 1.187.138.38.091.738.227 1.074.408l-.431 1.275a4.393 4.393 0 0 0-.606-.277 3.21 3.21 0 0 0-1.028-.172c-.639 0-1.131.211-1.478.634-.344.42-.517 1.021-.517 1.805 0 .777.167 1.377.5 1.8.333.423.834.634 1.42.634.595 0 .964-.15 1.16-.308v-1.27h-1.29v-1.269h2.499m15-3.265h2.04l1.416 4.584 1.424-4.584h1.725l.779 7.342h-1.516l-.467-4.59-1.433 4.612h-1.015L27.05 43.11l-.467 4.746h-1.52l.78-7.342m8.164 0h4.326v1.431H35.61v1.523h2.093v1.275H35.61v1.682h2.815v1.431h-4.418v-7.342m-22.382 0h1.012l3.195 4.413v-4.413h1.364v7.342h-1.011l-3.196-4.412v4.412h-1.364v-7.342"/><text xml:space="preserve" x="-406.524" y="527.923" stroke-width="1pt" font-family="'Bitstream Vera Sans'" font-size="25.888" transform="matrix(.106 0 0 .106 82.706 -13.622)"><tspan x="-406.524" y="527.923" letter-spacing="9.332"><tspan letter-spacing=".213">TM</tspan></tspan></text></svg>