<svg xmlns="http://www.w3.org/2000/svg" viewBox="0 0 48 48"><path fill="#1b1b1b" d="M0 24V0h48v48H0z"/><path fill="#afd42a" d="M12.112 31.398V29.88h6.075v3.037h-6.074zm0 6.075v-1.518h6.075v3.039h-6.074zm0 6.075v-1.52h6.075v3.038h-6.074z"/><path fill="#fb1161" d="M3 31.398V29.88h6.075v3.037H3zm0 6.075v-1.518h6.075v3.039H3zm0 6.075v-1.52h6.075v3.038H3z"/><path fill="#585858" d="M0 24.3v-3.038h48v6.075H0zM0 3.036V0h48v6.075H0z"/><path fill="#65d7fd" d="M21.405 43.585v-1.414h5.858V45h-5.858zm0-12.12v-1.413h5.858v2.828h-5.858zm0 6.06v-1.413h5.858v2.828h-5.858z"/><path fill="#c6c6c6" d="M30.495 43.585v-1.414h5.856V45h-5.856zm0-6.06v-1.413h11.916v2.828H30.495zm0-6.06v-1.413h8.886v2.828h-8.886z"/><path fill="#afd42a" d="M15.15 10.52V9H27.3v3.037H15.15z"/><path fill="#c6c6c6" d="M3.024 10.524V9.009h9.09v3.03h-9.09z"/><path fill="#afd42a" d="M15.15 16.595v-1.52H27.3v3.037H15.15z"/><path fill="#c6c6c6" d="M3.024 16.599v-1.515h9.09v3.03h-9.09z"/></svg>