<svg xmlns="http://www.w3.org/2000/svg" viewBox="0 0 48 48"><defs><radialGradient id="gogs_svg__a" cx="222.02" cy="70.69" r="373.44" gradientTransform="matrix(.9818 0 0 1.0185 -161.41 -26.347)" gradientUnits="userSpaceOnUse"><stop offset="0" stop-color="#F47359"/><stop offset="1" stop-color="#BE4025"/></radialGradient></defs><path fill="url(#gogs_svg__a)" fill-rule="evenodd" d="M-61.186 262.42c-2.323-10.781-3.546-21.971-3.546-33.447s1.223-22.666 3.546-33.447l-20.433-21.024a6.32 6.32 0 0 1-.941-7.566l34.206-59.246a6.32 6.32 0 0 1 7.023-2.968l28.461 7.193C3.628 96.94 23.305 85.408 45.028 78.448l7.988-28.197a6.32 6.32 0 0 1 6.082-4.599h68.412a6.32 6.32 0 0 1 6.082 4.599l7.987 28.197c21.723 6.96 41.4 18.495 57.898 33.467l28.461-7.194a6.32 6.32 0 0 1 7.024 2.969l34.206 59.246a6.32 6.32 0 0 1-.942 7.566l-20.433 21.024c2.324 10.781 3.547 21.971 3.547 33.447s-1.224 22.666-3.547 33.447l20.433 21.024a6.32 6.32 0 0 1 .942 7.567l-34.206 59.246a6.32 6.32 0 0 1-7.024 2.968l-28.46-7.193c-16.499 14.973-36.176 26.506-57.899 33.467l-7.987 28.197a6.32 6.32 0 0 1-6.082 4.598H59.098a6.32 6.32 0 0 1-6.082-4.598l-7.988-28.197c-21.723-6.962-41.4-18.495-57.898-33.467l-28.461 7.193a6.32 6.32 0 0 1-7.023-2.968L-82.56 291.01a6.32 6.32 0 0 1 .941-7.567z" transform="translate(11.785 -5.977)scale(.13092)"/><path fill="#fff" d="M27.711 27.554a4.553 4.553 0 0 1-6.787-5.83 4.552 4.552 0 0 1 8.443 2.964l7.615 4.396a1.655 1.655 0 0 1 .606 2.261c-4.057 7.026-13.041 9.434-20.068 5.377-7.026-4.057-9.433-13.04-5.377-20.067C16.2 9.628 25.184 7.22 32.211 11.278a1.655 1.655 0 1 1-1.655 2.867c-5.443-3.143-12.403-1.278-15.545 4.165s-1.277 12.402 4.166 15.544c4.955 2.861 11.169 1.571 14.613-2.792z"/></svg>