<svg xmlns="http://www.w3.org/2000/svg" viewBox="0 0 48 48"><path fill="#0066da" d="m3.629 39.313 2.117 3.656a4.993 4.993 0 0 0 1.814 1.815l7.56-13.086H0c0 .852.22 1.704.66 2.474z"/><path fill="#00ac47" d="M24 16.302 16.44 3.216a4.993 4.993 0 0 0-1.815 1.815L.66 29.223A4.981 4.981 0 0 0 0 31.698h15.12z"/><path fill="#ea4335" d="M40.44 44.784a4.993 4.993 0 0 0 1.814-1.815l.88-1.512 4.206-7.285c.44-.77.66-1.622.66-2.474H32.88l3.217 6.323z"/><path fill="#00832d" d="m24 16.302 7.56-13.086a4.833 4.833 0 0 0-2.474-.66H18.914a5.12 5.12 0 0 0-2.474.66z"/><path fill="#2684fc" d="M32.88 31.698H15.12L7.56 44.784c.742.44 1.595.66 2.474.66h27.932a5.12 5.12 0 0 0 2.474-.66z"/><path fill="#ffba00" d="M40.358 17.127 33.375 5.031a4.993 4.993 0 0 0-1.815-1.815L24 16.302l8.88 15.396h15.093c0-.853-.22-1.705-.66-2.475z"/></svg>