<svg xmlns="http://www.w3.org/2000/svg" viewBox="0 0 48 48"><path fill="#fff" d="m36.631 11.368-11.368-1.263-13.895 1.263L10.105 24l1.263 12.632L24 38.21l12.631-1.58 1.263-12.947z"/><path fill="#1a73e8" d="M16.55 30.967c-.944-.638-1.597-1.57-1.954-2.8l2.192-.904c.198.758.546 1.345 1.042 1.762.492.417 1.092.622 1.793.622.717 0 1.333-.218 1.848-.654s.773-.991.773-1.664c0-.688-.271-1.25-.814-1.686s-1.226-.654-2.04-.654h-1.267v-2.17h1.137c.701 0 1.292-.188 1.772-.567s.72-.897.72-1.557c0-.588-.215-1.055-.644-1.405s-.973-.528-1.633-.528c-.644 0-1.156.17-1.535.515s-.654.767-.827 1.266l-2.17-.903c.288-.815.815-1.535 1.589-2.157.773-.622 1.762-.935 2.962-.935.887 0 1.686.171 2.394.515.707.344 1.263.821 1.664 1.428.4.609.6 1.291.6 2.049 0 .774-.187 1.427-.56 1.964s-.83.947-1.373 1.235v.13a4.17 4.17 0 0 1 1.762 1.373c.458.616.688 1.352.688 2.21s-.218 1.627-.653 2.3-1.04 1.203-1.804 1.588c-.767.385-1.629.581-2.586.581-1.108.003-2.131-.316-3.075-.954zM30 20.09l-2.394 1.74-1.203-1.825 4.317-3.113h1.655v14.687H30z"/><path fill="#ea4335" d="M36.631 48 48 36.632l-5.685-2.527-5.684 2.527-2.526 5.684z"/><path fill="#34a853" d="M8.842 42.317 11.368 48h25.263V36.633H11.368z"/><path fill="#4285f4" d="M3.79 0A3.788 3.788 0 0 0 0 3.79v32.84l5.684 2.526 5.684-2.526V11.369h25.263l2.526-5.685L36.631 0z"/><path fill="#188038" d="M0 36.631v7.58A3.788 3.788 0 0 0 3.79 48h7.578V36.63z"/><path fill="#fbbc04" d="M36.631 11.368v25.263H48V11.368l-5.685-2.526z"/><path fill="#1967d2" d="M48 11.368V3.79A3.788 3.788 0 0 0 44.21 0h-7.578v11.368z"/></svg>