<svg xmlns="http://www.w3.org/2000/svg" viewBox="0 0 48 48"><path fill="#4285f4" d="M3.272 42.005h7.636V23.459L0 15.278v23.454a3.272 3.272 0 0 0 3.273 3.273"/><path fill="#34a853" d="M37.09 42.005h7.636A3.272 3.272 0 0 0 48 38.732V15.278l-10.91 8.181"/><path fill="#fbbc04" d="M37.09 9.278v14.181l10.909-8.181v-4.364c0-4.047-4.62-6.355-7.854-3.927"/><path fill="#ea4335" d="M10.908 23.46V9.277L24 19.096l13.09-9.818v14.181L24 33.277"/><path fill="#c5221f" d="M0 10.914v4.364l10.908 8.181V9.278L7.854 6.987c-3.24-2.428-7.855-.12-7.855 3.927"/></svg>