<svg xmlns="http://www.w3.org/2000/svg" viewBox="0 0 48 48"><path fill="#ea4335" d="M20.541 24.415c0 2.273-1.778 3.948-3.96 3.948-2.183 0-3.962-1.675-3.962-3.948 0-2.29 1.779-3.949 3.961-3.949 2.183 0 3.961 1.66 3.961 3.949zm-1.734 0c0-1.42-1.03-2.393-2.227-2.393-1.196 0-2.227.972-2.227 2.393 0 1.406 1.031 2.392 2.227 2.392 1.197 0 2.227-.988 2.227-2.392z"/><path fill="#fbbc05" d="M29.086 24.415c0 2.273-1.778 3.948-3.96 3.948-2.183 0-3.962-1.675-3.962-3.948 0-2.288 1.779-3.949 3.961-3.949 2.183 0 3.96 1.66 3.96 3.949zm-1.734 0c0-1.42-1.03-2.393-2.227-2.393-1.196 0-2.227.972-2.227 2.393 0 1.406 1.03 2.392 2.227 2.392 1.196 0 2.227-.988 2.227-2.392z"/><path fill="#4285f4" d="M37.275 20.705v7.089c0 2.915-1.72 4.106-3.753 4.106-1.914 0-3.065-1.28-3.5-2.326l1.51-.629c.269.643.927 1.401 1.988 1.401 1.302 0 2.108-.803 2.108-2.314v-.568h-.06c-.389.479-1.136.897-2.08.897-1.974 0-3.783-1.72-3.783-3.932 0-2.229 1.809-3.963 3.783-3.963.942 0 1.69.419 2.08.883h.06v-.642h1.647zm-1.524 3.724c0-1.39-.928-2.407-2.108-2.407-1.196 0-2.198 1.017-2.198 2.407 0 1.376 1.002 2.378 2.198 2.378 1.18 0 2.108-1.002 2.108-2.378z"/><path fill="#34a853" d="M39.99 16.55v11.571h-1.692v-11.57Z"/><path fill="#ea4335" d="m46.58 25.714 1.345.897c-.434.643-1.48 1.75-3.29 1.75-2.242 0-3.918-1.733-3.918-3.948 0-2.348 1.69-3.948 3.724-3.948 2.05 0 3.052 1.63 3.38 2.511l.179.449-5.278 2.186c.404.792 1.032 1.196 1.914 1.196.882 0 1.495-.434 1.943-1.093zm-4.143-1.42 3.528-1.465c-.194-.493-.778-.837-1.465-.837-.881 0-2.107.778-2.063 2.302z"/><path fill="#4285f4" d="M6.218 23.388v-1.675h5.645c.055.291.084.637.084 1.01 0 1.257-.344 2.811-1.451 3.919-1.077 1.121-2.453 1.72-4.276 1.72C2.84 28.361 0 25.608 0 22.23c0-3.38 2.841-6.13 6.22-6.13 1.869 0 3.2.733 4.201 1.69l-1.182 1.18c-.717-.673-1.69-1.196-3.02-1.196-2.468 0-4.398 1.988-4.398 4.456 0 2.467 1.93 4.455 4.397 4.455 1.6 0 2.512-.642 3.096-1.226.473-.474.785-1.15.908-2.074z"/></svg>