<svg xmlns="http://www.w3.org/2000/svg" viewBox="0 0 48 48"><path fill="url(#grafanaloki_svg__a)" d="m12.048 54.925-.664-4.458-4.458.664.758 4.458z" transform="translate(3.276) scale(.86348)"/><path fill="url(#grafanaloki_svg__b)" d="m46.957 42.403-.759-4.364-19.447 3.036.57 4.364z" transform="translate(3.276) scale(.86348)"/><path fill="url(#grafanaloki_svg__c)" d="m20.395 46.577 4.458-.759-.664-4.364-4.458.664z" transform="translate(3.276) scale(.86348)"/><path fill="url(#grafanaloki_svg__d)" d="m19.067 53.786-.759-4.364-4.364.664.57 4.459z" transform="translate(3.276) scale(.86348)"/><path fill="url(#grafanaloki_svg__e)" d="m5.881 44.206.664 4.459L11.004 48l-.664-4.459z" transform="translate(3.276) scale(.86348)"/><path fill="url(#grafanaloki_svg__f)" d="m27.7 47.905.759 4.553L48 49.423l-.664-4.459z" transform="translate(3.276) scale(.86348)"/><path fill="url(#grafanaloki_svg__g)" d="m21.533 53.407 4.364-.57-.664-4.553-4.459.76z" transform="translate(3.276) scale(.86348)"/><path fill="url(#grafanaloki_svg__h)" d="m12.806 43.162.759 4.458 4.364-.664-.665-4.458z" transform="translate(3.276) scale(.86348)"/><path fill="url(#grafanaloki_svg__i)" d="M7.4 41.455 1.991 5.977 0 6.262 5.502 41.74z" transform="translate(3.276) scale(.86348)"/><path fill="url(#grafanaloki_svg__j)" d="M9.96 41.075 4.08 2.941l-1.897.38 5.881 38.04z" transform="translate(3.276) scale(.86348)"/><path fill="url(#grafanaloki_svg__k)" d="M14.324 40.411 8.158 0 6.261.38l6.166 40.22z" transform="translate(3.276) scale(.86348)"/><path fill="url(#grafanaloki_svg__l)" d="M16.885 40.032 11.193 3.226l-1.802.285 5.692 36.712z" transform="translate(3.276) scale(.86348)"/><path fill="url(#grafanaloki_svg__m)" d="M21.249 39.273 16.221 6.641l-1.897.285 5.028 32.727z" transform="translate(3.276) scale(.86348)"/><path fill="url(#grafanaloki_svg__n)" d="M23.81 38.894 18.593 5.028l-1.898.285 5.313 33.866z" transform="translate(3.276) scale(.86348)"/><defs><linearGradient id="grafanaloki_svg__a" x1="11.647" x2="1.232" y1="66.877" y2="-.802" gradientUnits="userSpaceOnUse"><stop offset="0" stop-color="#FAED1E"/><stop offset="1" stop-color="#F15B2B"/></linearGradient><linearGradient id="grafanaloki_svg__b" x1="39.992" x2="29.577" y1="62.515" y2="-5.164" gradientUnits="userSpaceOnUse"><stop offset="0" stop-color="#FAED1E"/><stop offset="1" stop-color="#F15B2B"/></linearGradient><linearGradient id="grafanaloki_svg__c" x1="25.506" x2="15.091" y1="64.744" y2="-2.935" gradientUnits="userSpaceOnUse"><stop offset="0" stop-color="#FAED1E"/><stop offset="1" stop-color="#F15B2B"/></linearGradient><linearGradient id="grafanaloki_svg__d" x1="18.579" x2="8.164" y1="65.811" y2="-1.869" gradientUnits="userSpaceOnUse"><stop offset="0" stop-color="#FAED1E"/><stop offset="1" stop-color="#F15B2B"/></linearGradient><linearGradient id="grafanaloki_svg__e" x1="11.639" x2="1.224" y1="66.878" y2="-.801" gradientUnits="userSpaceOnUse"><stop offset="0" stop-color="#FAED1E"/><stop offset="1" stop-color="#F15B2B"/></linearGradient><linearGradient id="grafanaloki_svg__f" x1="39.998" x2="29.583" y1="62.514" y2="-5.165" gradientUnits="userSpaceOnUse"><stop offset="0" stop-color="#FAED1E"/><stop offset="1" stop-color="#F15B2B"/></linearGradient><linearGradient id="grafanaloki_svg__g" x1="25.506" x2="15.091" y1="64.744" y2="-2.935" gradientUnits="userSpaceOnUse"><stop offset="0" stop-color="#FAED1E"/><stop offset="1" stop-color="#F15B2B"/></linearGradient><linearGradient id="grafanaloki_svg__h" x1="18.579" x2="8.164" y1="65.81" y2="-1.869" gradientUnits="userSpaceOnUse"><stop offset="0" stop-color="#FAED1E"/><stop offset="1" stop-color="#F15B2B"/></linearGradient><linearGradient id="grafanaloki_svg__i" x1="10.162" x2=".285" y1="65.76" y2="1.572" gradientUnits="userSpaceOnUse"><stop offset="0" stop-color="#FAED1E"/><stop offset="1" stop-color="#F15B2B"/></linearGradient><linearGradient id="grafanaloki_svg__j" x1="13.013" x2="2.408" y1="67.143" y2="-1.772" gradientUnits="userSpaceOnUse"><stop offset="0" stop-color="#FAED1E"/><stop offset="1" stop-color="#F15B2B"/></linearGradient><linearGradient id="grafanaloki_svg__k" x1="17.634" x2="6.389" y1="68.033" y2="-5.037" gradientUnits="userSpaceOnUse"><stop offset="0" stop-color="#FAED1E"/><stop offset="1" stop-color="#F15B2B"/></linearGradient><linearGradient id="grafanaloki_svg__l" x1="19.83" x2="9.579" y1="65.208" y2="-1.408" gradientUnits="userSpaceOnUse"><stop offset="0" stop-color="#FAED1E"/><stop offset="1" stop-color="#F15B2B"/></linearGradient><linearGradient id="grafanaloki_svg__m" x1="23.735" x2="14.629" y1="61.739" y2="2.563" gradientUnits="userSpaceOnUse"><stop offset="0" stop-color="#FAED1E"/><stop offset="1" stop-color="#F15B2B"/></linearGradient><linearGradient id="grafanaloki_svg__n" x1="26.447" x2="16.991" y1="62.197" y2=".752" gradientUnits="userSpaceOnUse"><stop offset="0" stop-color="#FAED1E"/><stop offset="1" stop-color="#F15B2B"/></linearGradient></defs></svg>