<svg xmlns="http://www.w3.org/2000/svg" viewBox="0 0 48 48"><linearGradient id="grafana_svg__a" x1="175.5" x2="175.5" y1="109.5" y2="361.35" gradientTransform="translate(.791 -.132) scale(.13223)" gradientUnits="userSpaceOnUse"><stop offset="0" style="stop-color:#f05a28"/><stop offset="1" style="stop-color:#fbca0a"/></linearGradient><path d="M46.014 21.183a18.113 18.113 0 0 0-.476-2.763 16.91 16.91 0 0 0-1.243-3.306 18.408 18.408 0 0 0-2.314-3.544 17.063 17.063 0 0 0-1.256-1.349c.674-2.684-.82-5.011-.82-5.011-2.578-.159-4.218.807-4.826 1.243-.106-.04-.199-.093-.304-.132a18.23 18.23 0 0 0-1.362-.49 22.494 22.494 0 0 0-1.429-.396c-.489-.12-.978-.212-1.48-.291-.093-.013-.172-.027-.265-.04C29.115 1.507 25.889 0 25.889 0c-3.61 2.288-4.285 5.488-4.285 5.488s-.013.066-.04.185c-.198.053-.396.119-.594.172a8.647 8.647 0 0 0-.82.29c-.278.106-.542.212-.82.331-.542.238-1.084.503-1.613.794a22.07 22.07 0 0 0-1.508.938l-.132-.053c-4.998-1.904-9.428.384-9.428.384-.41 5.316 1.997 8.661 2.473 9.27a22.935 22.935 0 0 0-1.217 5.263c-4.628 2.287-5.99 6.955-5.99 6.955 3.848 4.43 8.344 4.707 8.344 4.707l.013-.013a20.319 20.319 0 0 0 1.97 2.896c.318.383.635.74.979 1.097-1.402 4.02.198 7.352.198 7.352 4.284.159 7.101-1.877 7.696-2.34.423.145.86.277 1.296.383 1.322.344 2.671.542 4.02.595.33.013.674.027 1.005.013h.476l.211-.013v.013C30.146 47.59 33.69 48 33.69 48c2.526-2.658 2.671-5.302 2.671-5.871v-.238c.53-.37 1.032-.767 1.508-1.203a16.23 16.23 0 0 0 2.631-3.081l.199-.318c2.856.159 4.879-1.772 4.879-1.772-.476-2.975-2.169-4.43-2.526-4.707 0 0-.013-.013-.04-.027-.026-.013-.026-.026-.026-.026a.289.289 0 0 0-.066-.04l.04-.542c.026-.317.026-.648.026-.965v-.503l-.013-.198-.013-.264c0-.093-.014-.172-.027-.252-.013-.079-.013-.172-.026-.25l-.027-.252-.04-.251c-.052-.33-.105-.648-.184-.979a12.999 12.999 0 0 0-1.455-3.597 12.142 12.142 0 0 0-2.42-2.882 12.04 12.04 0 0 0-6.426-2.922 10.542 10.542 0 0 0-1.706-.093h-.423l-.212.013c-.08 0-.158.013-.225.013-.29.027-.581.067-.86.12a9.412 9.412 0 0 0-3.146 1.19 9.66 9.66 0 0 0-2.42 2.062 9.438 9.438 0 0 0-1.534 2.592 9.12 9.12 0 0 0-.608 2.777c-.013.225-.013.463-.013.687v.172l.013.186c.013.105.013.224.026.33.04.463.133.912.252 1.336.25.86.647 1.64 1.137 2.3a7.4 7.4 0 0 0 1.706 1.64 7.134 7.134 0 0 0 1.957.926 6.769 6.769 0 0 0 1.943.277h.345c.039 0 .078 0 .118-.013.066 0 .132-.013.198-.013.014 0 .04 0 .053-.013l.067-.013c.04 0 .079-.014.119-.014.079-.013.145-.026.224-.04a.99.99 0 0 0 .212-.052c.145-.027.278-.08.41-.12a5.61 5.61 0 0 0 .754-.317c.238-.119.45-.264.66-.396.054-.04.12-.08.173-.133a.502.502 0 0 0 .079-.7.487.487 0 0 0-.622-.12l-.158.08a4.299 4.299 0 0 1-1.19.397l-.33.04c-.054 0-.107.013-.173.013h-.318c-.065 0-.131 0-.198-.014h-.079c-.026 0-.066 0-.092-.013-.067-.013-.12-.013-.186-.026a5.144 5.144 0 0 1-1.44-.423 5.051 5.051 0 0 1-1.336-.873 5.035 5.035 0 0 1-1.613-2.949 4.982 4.982 0 0 1-.054-.886c0-.08.014-.159.014-.238v-.106c0-.04.013-.08.013-.119.013-.158.04-.317.066-.476a6.363 6.363 0 0 1 1.838-3.451 7.38 7.38 0 0 1 .793-.648 6.166 6.166 0 0 1 1.878-.873c.33-.092.675-.145 1.032-.185.171-.013.343-.026.528-.026h.411l.145.013c.383.026.754.08 1.124.172a7.92 7.92 0 0 1 2.142.807c1.349.753 2.5 1.917 3.2 3.319a7.385 7.385 0 0 1 .793 2.83l.014.145.013.145v.569c0 .092-.013.251-.013.344-.014.211-.04.436-.067.648-.026.211-.066.423-.105.634a8.71 8.71 0 0 1-.146.622c-.106.41-.238.82-.397 1.23a10.77 10.77 0 0 1-1.242 2.26 10.224 10.224 0 0 1-3.994 3.267 9.644 9.644 0 0 1-2.486.753 8.44 8.44 0 0 1-1.296.133h-.661c-.238 0-.463-.014-.7-.04a13.825 13.825 0 0 1-2.738-.49A13.872 13.872 0 0 1 21.46 37c-1.627-.873-3.094-2.063-4.232-3.505a13.633 13.633 0 0 1-1.48-2.3 13.763 13.763 0 0 1-.98-2.526 13.96 13.96 0 0 1-.449-2.658l-.013-.172v-1.177a15.845 15.845 0 0 1 .33-2.71c.093-.45.2-.9.331-1.35.252-.885.569-1.745.94-2.551.753-1.614 1.731-3.055 2.908-4.205.291-.291.595-.556.913-.82.317-.251.648-.49.991-.714.33-.225.688-.423 1.045-.609.172-.092.357-.185.542-.264a11585.171 11585.171 0 0 1 .555-.238c.37-.159.754-.29 1.15-.41.093-.026.2-.053.292-.092.092-.027.198-.053.29-.08.2-.053.397-.106.596-.145.092-.027.198-.04.304-.066.106-.027.198-.04.304-.067.106-.013.198-.04.304-.052l.146-.027.158-.026.304-.04.344-.04c.093-.013.251-.026.344-.04.066-.013.145-.013.212-.026l.145-.013.066-.013h.08c.119-.013.224-.013.343-.027l.172-.013h.133c.092 0 .198-.013.29-.013a15.59 15.59 0 0 1 3.412.251c1.468.278 2.843.74 4.1 1.362a16.221 16.221 0 0 1 3.345 2.182c.066.053.119.106.185.159.053.053.119.105.172.158.119.106.224.212.343.318.12.105.225.211.331.317.106.106.212.212.317.33a17.063 17.063 0 0 1 2.817 3.954l.08.159.079.159c.052.105.105.211.145.317.053.106.093.198.145.304.04.106.093.199.133.304.158.397.317.78.436 1.137.198.582.344 1.098.463 1.548.04.185.211.304.397.277a.365.365 0 0 0 .343-.37 13 13 0 0 0-.066-1.693z" style="fill:url(#grafana_svg__a);stroke-width:1"/></svg>