<svg xmlns="http://www.w3.org/2000/svg" viewBox="0 0 48 48"><path d="m13.906 14.487 6.917-3.94a3.803 3.803 0 0 1-.218-1.216c0-1.67 1.216-3.05 2.814-3.34V0h1.162v5.99c1.597.291 2.814 1.671 2.814 3.341 0 .436-.091.835-.236 1.217l6.935 3.939a4.13 4.13 0 0 1 .907-.762 3.411 3.411 0 0 1 4.303.762l5.192-2.995.58 1.016-5.191 2.996a3.381 3.381 0 0 1-2.487 4.484v8.024a3.381 3.381 0 0 1 2.487 4.484l5.192 2.996-.581 1.016-5.192-2.995a3.41 3.41 0 0 1-4.303.762 4.13 4.13 0 0 1-.907-.762c-2.306 1.307-4.612 2.632-6.935 3.94.145.38.236.78.236 1.216 0 1.67-1.217 3.05-2.814 3.34v5.99h-1.162v-5.99c-1.598-.29-2.814-1.67-2.814-3.34 0-.436.09-.835.218-1.217l-6.917-3.94a4.13 4.13 0 0 1-.908.763 3.411 3.411 0 0 1-4.302-.762l-5.192 2.995-.581-1.016 5.192-2.996a3.381 3.381 0 0 1 2.487-4.484v-8.024a3.381 3.381 0 0 1-2.487-4.484l-5.192-2.996.58-1.016 5.193 2.995a3.41 3.41 0 0 1 4.302-.762c.345.217.654.472.908.762zm19.607 18.009a3.364 3.364 0 0 1 .254-2.85 3.404 3.404 0 0 1 2.47-1.67v-7.952a3.404 3.404 0 0 1-2.47-1.67 3.364 3.364 0 0 1-.254-2.85l-6.935-3.958A3.396 3.396 0 0 1 24 12.726a3.396 3.396 0 0 1-2.578-1.18l-6.935 3.958c.327.907.273 1.96-.254 2.85a3.404 3.404 0 0 1-2.469 1.67v7.952a3.404 3.404 0 0 1 2.47 1.67c.526.89.58 1.942.253 2.85l6.935 3.958A3.396 3.396 0 0 1 24 35.274c1.035 0 1.943.454 2.578 1.18z" style="fill:#1a1a1a;fill-rule:nonzero"/></svg>
