<svg xmlns="http://www.w3.org/2000/svg" viewBox="0 0 48 48"><g fill="#221e1f"><path d="M25.457 17.84a.717.717 0 1 0-1.016-1.016.72.72 0 0 0 1.017 1.016zm-2.535.501a.72.72 0 1 0 1.017 0 .72.72 0 0 0-1.017 0zm4.41.374a1.126 1.126 0 0 0-1.59 0l-.936.934c-.44.44-.44 1.15 0 1.59l1.027 1.026c.44.439 1.152.438 1.59 0l.936-.935c.44-.439.44-1.15 0-1.59zm8.891-3.481c1.187-2.259-.492-3.578-1.647-4.66-1.849-1.737-3.693-2.487-5.8-.083-2.104 2.404-.767 5.192 1.159 6.568 1.926 1.376 5.1.433 6.288-1.825zm-3.19-.926c-.741-.889.645-2.501 1.515-1.538 1.603 1.774-.771 2.426-1.515 1.538z"/><path d="M24 .025C10.745.025 0 10.76 0 24s10.745 23.975 24 23.975c13.254 0 24-10.735 24-23.975C48 10.759 37.253.025 24 .025zM36.978 27.93c-2.503-1.652-3.933-3.048-5.178-5.551-.852 1.715-2.842 4.265-6.197 6.27-1.675 5.206-9.643 15.168-12.222 13.756-.763-.418-.908-.968-.736-1.535.185-1.423 3.132-4.694 3.132-4.694s.062.686 1.005 2.132c-1.245-3.861 2.057-8.626 2.932-10.248 1.375-.437 1.474-2.2 1.474-2.2a7.85 7.85 0 0 0-2.312-5.88c.849 1.035 1.124 2.599 1.164 4.03v.009c.004.161.004.32.004.478-.04 1.186-.4 2.823-1.168 2.823l.003.01c-.79-.034-1.765.135-2.636.407l-1.925.46s1.027-.048 1.581.431c-.617 1.004-1.99 2.251-3.52 2.96-2.228 1.031-2.868-1.022-1.737-2.357.277-.326.558-.602.823-.827a1.147 1.147 0 0 1-.307-.712l-.001-.005c-.156-.681-.07-1.566.895-2.971a7.44 7.44 0 0 1 .693-.913l.024-.03.037-.042.021-.024c.07-.078.142-.154.22-.228 1.15-1.177 2.967-2.4 5.83-3.498 3.337-4.902 4.56-5.821 4.56-5.821.37-.377 1.015-.847 1.252-.966-1.743-3.026-2.095-7.292-1.638-8.44a1.652 1.652 0 0 0-.1.19c.17-.393.283-.52.46-.726.475-.563 2.089-.858 2.668.334.309.635.367 1.458.357 2.076-1.278-.067-2.437 1.39-2.437 1.39s1.058-.499 2.373-.507c0 0 .35.304.788.876-.59 1.107-1.561 3.453-.858 5.916.116.485.292.902.511 1.257l.024.047.05.063c1.162 1.747 3.291 1.952 3.291 1.952a5.482 5.482 0 0 1-2.35-2.26 7.138 7.138 0 0 1-.55-1.297c-.564-2.176.266-3.446.741-4.297a5.478 5.478 0 0 1 5.227-2.476 5.471 5.471 0 0 1 4.82 6.055 5.462 5.462 0 0 1-2.809 4.175c.362.978-.024 2.164-.024 2.164.91 1.145.95 1.805.92 2.418-1.159-.194-2.284.587-2.284.587s2.234-.533 3.532.623c.844.907 1.407 1.727 1.743 2.332.48.863 2.711.925 2.457 2.477-.254 1.55-1.956 1.565-4.623-.193z"/></g></svg>