<svg xmlns="http://www.w3.org/2000/svg" viewBox="0 0 48 48"><path d="M488.3 45.2c32.6 0 56.1 25.1 56.1 54.3 0 29.7-22.3 54.2-56.1 54.2s-56.1-24.5-56.1-54.2c-.1-29.2 23.4-54.3 56.1-54.3zm-37.1 54.3c0 19.9 17.1 37.4 37 37.4s37-17.5 37-37.4c0-21.5-17.1-37.6-37-37.6-19.8 0-37 16.1-37 37.6z" style="fill:#ff3633" transform="translate(-184.898 -18.545) scale(.4278)"/><path d="M464.6 96.5c1.5 0 2.8.8 3.5 2.1h3.3l5.2-12.5c.2-.6.8-1.1 1.4-1.3 1.1-.2 2.2.4 2.4 1.5l5.5 24.2 5.6-32.6c.1-.8.7-1.4 1.5-1.6 1.1-.3 2.2.4 2.5 1.5l6 24.5 3.1-9.1c.1-.4.4-.8.8-1.1.9-.6 2.2-.4 2.8.5l2.6 3.7c.1.9.1 1.8.1 2.7 0 1.2-.1 2.4-.2 3.5-.4-.1-.7-.4-1-.7l-2.6-3.6-4 12.1c-.4 1.1-1.5 1.6-2.6 1.3-.7-.2-1.2-.8-1.3-1.4l-5.4-21.8-5.7 33.1c-.2 1.1-1.2 1.8-2.3 1.7-.9-.1-1.5-.8-1.7-1.7l-6.1-28-3.3 7.9c-.3.8-1.1 1.3-1.9 1.3h-4.7c-.7 1.2-2 2-3.5 2-2.2 0-4.1-1.8-4.1-4.1.1-2.2 1.9-4.1 4.1-4.1z" style="fill:#a6afbd" transform="translate(-184.898 -18.545) scale(.4278)"/></svg>