<svg xmlns="http://www.w3.org/2000/svg" viewBox="0 0 48 48"><style>.greenboneopenvas_svg__st0{fill:#11ab51}.greenboneopenvas_svg__st2{fill:#171717}.greenboneopenvas_svg__st3{fill:#fff}</style><path d="M45.105 28.839v.033c-.153 1.033-.729 1.948-1.897 2.083-.982 0-1.507-.847-.948-1.54.203-.238.322-.932.288-1.525-.05-.524.102-1.235.322-1.659.033-.05.05-.101.084-.135 1.084-1.185 2.015.118 2.184 1.659a5.8 5.8 0 0 1-.033 1.084zm-2.523-4.843a4.401 4.401 0 0 0-.762.762c-.322.407-.136.254-1.355-.305-1.1-.067-1.54-.778-1.083-2.438.05-.186.101-.338.135-.474.407-1.083.813-.778 1.643-.355.338.186.914.423 1.27.525.778.237.88 1.845.152 2.285zM32.05 40.707c-3.876 2.557-8.736 7.467-13.68 6.485-1.032-.407-1.354-.965-.694-1.067.068-.017.153-.017.237-.017 2.912-1.388 10.362-7.246 13.477-9.566.847-.779 1.456-1.168 1.456-2.743 0-2.048-1.1-4.3-2.082-4.3-.406 0-.491-.186-.305-.627.322-.795.474-1.286.407-1.676-.051-.39-.305-.677-.745-1.117-1.22-1.1-1.372-3.674-.288-4.64.762-.676 4.419-2.03 5.485-2.03.796 0 1.287 1.32.949 2.64-.187.728.05 1 1.49 1.846.948.542 2.014 1.303 2.404 1.659 3.657 5.723-3.539 11.97-8.11 15.153z" class="greenboneopenvas_svg__st0"/><path d="M38.942 19.07a1.28 1.28 0 0 0-.339.389 2.807 2.807 0 0 0-.457 1.337c-.085 1.846-.44 1.66-.627-.304-.084-1.016-.254-1.93-.372-2.015s-1.117-.288-2.235-.406c-1.93-.204-2.167-.136-4.114 1.202-3.454 2.336-4.047 4.012-2.201 6.4.542.694.982 1.506.982 1.828 0 .491-1.287 1.456-3.471 2.59-2.557 2.015-3.47 5.672-7.179 6.265-1.473.491-3.047 1.084-3.505 1.304-1.743 1.303-2.268 3.166-3.504 4.774-3.539 2.337-8.042-.592-9.786-5.215-.119-.321-.22-.626-.322-.948 5.875-13.917 12.97-20.537 24.72-28.63.118 0-.136 1.456-.441 2.049-.05.135-.119.237-.17.355-.355.864-.22 1.44.373 1.44.051 0 .085 0 .136-.018.728-.203 1.15-2.184 1.93-8.567.152-1.253.203-1.49.61-1.168.067.05.169.136.27.22.931.948 1.287 2.218 2.117 3.268 1.845 2.777 2.251 4.03 2.251 7.196 0 2.404.39 3.504 1.016 2.878.136-.119.254-.982.305-1.93.05-1.152-.119-2.912.22-2.912.152 0 .423.27.745.677.999 1.303 2.455 4.097 2.455 4.876 0 .457.322 1.202.677 1.66.644.795.644.829-.084 1.404z" class="greenboneopenvas_svg__st0"/><path d="M23.264 9.3c-.34 0-.322-1.744.033-4.876l.237-2.167.796 1.66c.44.913 1.05 1.862 1.389 2.132.761 1.236-1.524 2.54-2.455 3.251z" class="greenboneopenvas_svg__st0"/><path d="M119.3 96.4c-1.1.8-2.1 1.8-3.2 2.6.8-.8 1.5-1.4 2.7-2.4.1-.1.2-.2.5-.2z" style="fill:#87d050" transform="translate(-2.15 -3.178) scale(.16931)"/><path d="M7.907 32.208c-.49-.474-1.033-.762-1.253-.61-.44.288-1.219 2.422-1.219 3.37 0 .728.39.863.931.355.204-.186.762-.39 1.27-.457 1.253-.17 1.405-1.54.271-2.658zm13.545-15.695c-.406 0-1.118-.186-1.118-.627 0-1.27-.203-1.202-1.523.339-.728.83-1.304 1.642-1.304 1.795 0 .169-.491 1.337-1.1 2.59-1.101 2.269-1.355 3.471-.847 3.979.152.135.49-.017.745-.356 2.353-1.659 4.876 2.066 7.399-4.503 0-1.693-1.067-3.217-2.252-3.217zm-2.98 6.823c-1.388 0-1.744-.39-1.507-1.134.593-1.93 2.252-4.42 3.014-4.538 1.388-.203 2.286-.542 2.81 1.32.508 1.863-1.896 4.335-4.317 4.352zm2.98-6.823c-.406 0-1.118-.186-1.118-.627 0-1.27-.203-1.202-1.523.339-.728.83-1.304 1.642-1.304 1.795 0 .169-.491 1.337-1.1 2.59-1.101 2.269-1.355 3.471-.847 3.979.152.135.49-.017.745-.356 2.353-1.659 4.876 2.066 7.399-4.503 0-1.693-1.067-3.217-2.252-3.217zm-2.98 6.823c-1.388 0-1.744-.39-1.507-1.134.593-1.93 2.252-4.42 3.014-4.538 1.388-.203 2.286-.542 2.81 1.32.508 1.863-1.896 4.335-4.317 4.352zM7.907 32.208c-.49-.474-1.033-.762-1.253-.61-.44.288-1.219 2.422-1.219 3.37 0 .728.39.863.931.355.204-.186.762-.39 1.27-.457 1.253-.17 1.405-1.54.271-2.658zm0 0c-.49-.474-1.033-.762-1.253-.61-.44.288-1.219 2.422-1.219 3.37 0 .728.39.863.931.355.204-.186.762-.39 1.27-.457 1.253-.17 1.405-1.54.271-2.658zm13.545-15.695c-.406 0-1.118-.186-1.118-.627 0-1.27-.203-1.202-1.523.339-.728.83-1.304 1.642-1.304 1.795 0 .169-.491 1.337-1.1 2.59-1.101 2.269-1.355 3.471-.847 3.979.152.135.49-.017.745-.356 2.353-1.659 4.876 2.066 7.399-4.503 0-1.693-1.067-3.217-2.252-3.217zm-2.98 6.823c-1.388 0-1.744-.39-1.507-1.134.593-1.93 2.252-4.42 3.014-4.538 1.388-.203 2.286-.542 2.81 1.32.508 1.863-1.896 4.335-4.317 4.352zm2.98-6.823c-.406 0-1.118-.186-1.118-.627 0-1.27-.203-1.202-1.523.339-.728.83-1.304 1.642-1.304 1.795 0 .169-.491 1.337-1.1 2.59-1.101 2.269-1.355 3.471-.847 3.979.152.135.49-.017.745-.356 2.353-1.659 4.876 2.066 7.399-4.503 0-1.693-1.067-3.217-2.252-3.217zm-2.98 6.823c-1.388 0-1.744-.39-1.507-1.134.593-1.93 2.252-4.42 3.014-4.538 1.388-.203 2.286-.542 2.81 1.32.508 1.863-1.896 4.335-4.317 4.352zM7.907 32.208c-.49-.474-1.033-.762-1.253-.61-.44.288-1.219 2.422-1.219 3.37 0 .728.39.863.931.355.204-.186.762-.39 1.27-.457 1.253-.17 1.405-1.54.271-2.658zm0 0c-.49-.474-1.033-.762-1.253-.61-.44.288-1.219 2.422-1.219 3.37 0 .728.39.863.931.355.204-.186.762-.39 1.27-.457 1.253-.17 1.405-1.54.271-2.658zm13.545-15.695c-.406 0-1.118-.186-1.118-.627 0-1.27-.203-1.202-1.523.339-.728.83-1.304 1.642-1.304 1.795 0 .169-.491 1.337-1.1 2.59-1.101 2.269-1.355 3.471-.847 3.979.152.135.49-.017.745-.356 2.353-1.659 4.876 2.066 7.399-4.503 0-1.693-1.067-3.217-2.252-3.217zm-2.98 6.823c-1.388 0-1.744-.39-1.507-1.134.593-1.93 2.252-4.42 3.014-4.538 1.388-.203 2.286-.542 2.81 1.32.508 1.863-1.896 4.335-4.317 4.352zm2.98-6.823c-.406 0-1.118-.186-1.118-.627 0-1.27-.203-1.202-1.523.339-.728.83-1.304 1.642-1.304 1.795 0 .169-.491 1.337-1.1 2.59-1.101 2.269-1.355 3.471-.847 3.979.152.135.49-.017.745-.356 2.353-1.659 4.876 2.066 7.399-4.503 0-1.693-1.067-3.217-2.252-3.217zm-2.98 6.823c-1.388 0-1.744-.39-1.507-1.134.593-1.93 2.252-4.42 3.014-4.538 1.388-.203 2.286-.542 2.81 1.32.508 1.863-1.896 4.335-4.317 4.352zM7.907 32.208c-.49-.474-1.033-.762-1.253-.61-.44.288-1.219 2.422-1.219 3.37 0 .728.39.863.931.355.204-.186.762-.39 1.27-.457 1.253-.17 1.405-1.54.271-2.658zm0 0c-.49-.474-1.033-.762-1.253-.61-.44.288-1.219 2.422-1.219 3.37 0 .728.39.863.931.355.204-.186.762-.39 1.27-.457 1.253-.17 1.405-1.54.271-2.658zm13.545-15.695c-.406 0-1.118-.186-1.118-.627 0-1.27-.203-1.202-1.523.339-.728.83-1.304 1.642-1.304 1.795 0 .169-.491 1.337-1.1 2.59-1.101 2.269-1.355 3.471-.847 3.979.152.135.49-.017.745-.356 2.353-1.659 4.876 2.066 7.399-4.503 0-1.693-1.067-3.217-2.252-3.217zm-2.98 6.823c-1.388 0-1.744-.39-1.507-1.134.593-1.93 2.252-4.42 3.014-4.538 1.388-.203 2.286-.542 2.81 1.32.508 1.863-1.896 4.335-4.317 4.352zm2.98-6.823c-.406 0-1.118-.186-1.118-.627 0-1.27-.203-1.202-1.523.339-.728.83-1.304 1.642-1.304 1.795 0 .169-.491 1.337-1.1 2.59-1.101 2.269-1.355 3.471-.847 3.979.152.135.49-.017.745-.356 2.353-1.659 4.876 2.066 7.399-4.503 0-1.693-1.067-3.217-2.252-3.217zm-2.98 6.823c-1.388 0-1.744-.39-1.507-1.134.593-1.93 2.252-4.42 3.014-4.538 1.388-.203 2.286-.542 2.81 1.32.508 1.863-1.896 4.335-4.317 4.352zM7.907 32.208c-.49-.474-1.033-.762-1.253-.61-.44.288-1.219 2.422-1.219 3.37 0 .728.39.863.931.355.204-.186.762-.39 1.27-.457 1.253-.17 1.405-1.54.271-2.658zm0 0c-.49-.474-1.033-.762-1.253-.61-.44.288-1.219 2.422-1.219 3.37 0 .728.39.863.931.355.204-.186.762-.39 1.27-.457 1.253-.17 1.405-1.54.271-2.658zm13.545-15.695c-.406 0-1.118-.186-1.118-.627 0-1.27-.203-1.202-1.523.339-.728.83-1.304 1.642-1.304 1.795 0 .169-.491 1.337-1.1 2.59-1.101 2.269-1.355 3.471-.847 3.979.152.135.49-.017.745-.356 2.353-1.659 4.876 2.066 7.399-4.503 0-1.693-1.067-3.217-2.252-3.217zm-2.98 6.823c-1.388 0-1.744-.39-1.507-1.134.593-1.93 2.252-4.42 3.014-4.538 1.388-.203 2.286-.542 2.81 1.32.508 1.863-1.896 4.335-4.317 4.352zm2.98-6.823c-.406 0-1.118-.186-1.118-.627 0-1.27-.203-1.202-1.523.339-.728.83-1.304 1.642-1.304 1.795 0 .169-.491 1.337-1.1 2.59-1.101 2.269-1.355 3.471-.847 3.979.152.135.49-.017.745-.356 2.353-1.659 4.876 2.066 7.399-4.503 0-1.693-1.067-3.217-2.252-3.217zm-2.98 6.823c-1.388 0-1.744-.39-1.507-1.134.593-1.93 2.252-4.42 3.014-4.538 1.388-.203 2.286-.542 2.81 1.32.508 1.863-1.896 4.335-4.317 4.352zM7.907 32.208c-.49-.474-1.033-.762-1.253-.61-.44.288-1.219 2.422-1.219 3.37 0 .728.39.863.931.355.204-.186.762-.39 1.27-.457 1.253-.17 1.405-1.54.271-2.658zm0 0c-.49-.474-1.033-.762-1.253-.61-.44.288-1.219 2.422-1.219 3.37 0 .728.39.863.931.355.204-.186.762-.39 1.27-.457 1.253-.17 1.405-1.54.271-2.658zm13.545-15.695c-.406 0-1.118-.186-1.118-.627 0-1.27-.203-1.202-1.523.339-.728.83-1.304 1.642-1.304 1.795 0 .169-.491 1.337-1.1 2.59-1.101 2.269-1.355 3.471-.847 3.979.152.135.49-.017.745-.356 2.353-1.659 4.876 2.066 7.399-4.503 0-1.693-1.067-3.217-2.252-3.217zm-2.98 6.823c-1.388 0-1.744-.39-1.507-1.134.593-1.93 2.252-4.42 3.014-4.538 1.388-.203 2.286-.542 2.81 1.32.508 1.863-1.896 4.335-4.317 4.352zm9.261-22.112.051-.101c-.017 0-.034.033-.05.101zM7.907 32.208c-.49-.474-1.033-.762-1.253-.61-.44.288-1.219 2.422-1.219 3.37 0 .728.39.863.931.355.204-.186.762-.39 1.27-.457 1.253-.17 1.405-1.54.271-2.658zm13.545-15.695c-.406 0-1.118-.186-1.118-.627 0-1.27-.203-1.202-1.523.339-.728.83-1.304 1.642-1.304 1.795 0 .169-.491 1.337-1.1 2.59-1.101 2.269-1.355 3.471-.847 3.979.152.135.49-.017.745-.356 2.353-1.659 4.876 2.066 7.399-4.503 0-1.693-1.067-3.217-2.252-3.217zm-2.98 6.823c-1.388 0-1.744-.39-1.507-1.134.593-1.93 2.252-4.42 3.014-4.538 1.388-.203 2.286-.542 2.81 1.32.508 1.863-1.896 4.335-4.317 4.352zm2.98-6.823c-.406 0-1.118-.186-1.118-.627 0-1.27-.203-1.202-1.523.339-.728.83-1.304 1.642-1.304 1.795 0 .169-.491 1.337-1.1 2.59-1.101 2.269-1.355 3.471-.847 3.979.152.135.49-.017.745-.356 2.353-1.659 4.876 2.066 7.399-4.503 0-1.693-1.067-3.217-2.252-3.217zm-2.98 6.823c-1.388 0-1.744-.39-1.507-1.134.593-1.93 2.252-4.42 3.014-4.538 1.388-.203 2.286-.542 2.81 1.32.508 1.863-1.896 4.335-4.317 4.352zM7.907 32.208c-.49-.474-1.033-.762-1.253-.61-.44.288-1.219 2.422-1.219 3.37 0 .728.39.863.931.355.204-.186.762-.39 1.27-.457 1.253-.17 1.405-1.54.271-2.658zm0 0c-.49-.474-1.033-.762-1.253-.61-.44.288-1.219 2.422-1.219 3.37 0 .728.39.863.931.355.204-.186.762-.39 1.27-.457 1.253-.17 1.405-1.54.271-2.658zm13.545-15.695c-.406 0-1.118-.186-1.118-.627 0-1.27-.203-1.202-1.523.339-.728.83-1.304 1.642-1.304 1.795 0 .169-.491 1.337-1.1 2.59-1.101 2.269-1.355 3.471-.847 3.979.152.135.49-.017.745-.356 2.353-1.659 4.876 2.066 7.399-4.503 0-1.693-1.067-3.217-2.252-3.217zm-2.98 6.823c-1.388 0-1.744-.39-1.507-1.134.593-1.93 2.252-4.42 3.014-4.538 1.388-.203 2.286-.542 2.81 1.32.508 1.863-1.896 4.335-4.317 4.352zm2.98-6.823c-.406 0-1.118-.186-1.118-.627 0-1.27-.203-1.202-1.523.339-.728.83-1.304 1.642-1.304 1.795 0 .169-.491 1.337-1.1 2.59-1.101 2.269-1.355 3.471-.847 3.979.152.135.49-.017.745-.356 2.353-1.659 4.876 2.066 7.399-4.503 0-1.693-1.067-3.217-2.252-3.217zm-2.98 6.823c-1.388 0-1.744-.39-1.507-1.134.593-1.93 2.252-4.42 3.014-4.538 1.388-.203 2.286-.542 2.81 1.32.508 1.863-1.896 4.335-4.317 4.352zM7.907 32.208c-.49-.474-1.033-.762-1.253-.61-.44.288-1.219 2.422-1.219 3.37 0 .728.39.863.931.355.204-.186.762-.39 1.27-.457 1.253-.17 1.405-1.54.271-2.658zm0 0c-.49-.474-1.033-.762-1.253-.61-.44.288-1.219 2.422-1.219 3.37 0 .728.39.863.931.355.204-.186.762-.39 1.27-.457 1.253-.17 1.405-1.54.271-2.658zm13.545-15.695c-.406 0-1.118-.186-1.118-.627 0-1.27-.203-1.202-1.523.339-.728.83-1.304 1.642-1.304 1.795 0 .169-.491 1.337-1.1 2.59-1.101 2.269-1.355 3.471-.847 3.979.152.135.49-.017.745-.356 2.353-1.659 4.876 2.066 7.399-4.503 0-1.693-1.067-3.217-2.252-3.217zm-2.98 6.823c-1.388 0-1.744-.39-1.507-1.134.593-1.93 2.252-4.42 3.014-4.538 1.388-.203 2.286-.542 2.81 1.32.508 1.863-1.896 4.335-4.317 4.352zm2.98-6.823c-.406 0-1.118-.186-1.118-.627 0-1.27-.203-1.202-1.523.339-.728.83-1.304 1.642-1.304 1.795 0 .169-.491 1.337-1.1 2.59-1.101 2.269-1.355 3.471-.847 3.979.152.135.49-.017.745-.356 2.353-1.659 4.876 2.066 7.399-4.503 0-1.693-1.067-3.217-2.252-3.217zm-2.98 6.823c-1.388 0-1.744-.39-1.507-1.134.593-1.93 2.252-4.42 3.014-4.538 1.388-.203 2.286-.542 2.81 1.32.508 1.863-1.896 4.335-4.317 4.352zM7.907 32.208c-.49-.474-1.033-.762-1.253-.61-.44.288-1.219 2.422-1.219 3.37 0 .728.39.863.931.355.204-.186.762-.39 1.27-.457 1.253-.17 1.405-1.54.271-2.658zm0 0c-.49-.474-1.033-.762-1.253-.61-.44.288-1.219 2.422-1.219 3.37 0 .728.39.863.931.355.204-.186.762-.39 1.27-.457 1.253-.17 1.405-1.54.271-2.658zm13.545-15.695c-.406 0-1.118-.186-1.118-.627 0-1.27-.203-1.202-1.523.339-.728.83-1.304 1.642-1.304 1.795 0 .169-.491 1.337-1.1 2.59-1.101 2.269-1.355 3.471-.847 3.979.152.135.49-.017.745-.356 2.353-1.659 4.876 2.066 7.399-4.503 0-1.693-1.067-3.217-2.252-3.217zm-2.98 6.823c-1.388 0-1.744-.39-1.507-1.134.593-1.93 2.252-4.42 3.014-4.538 1.388-.203 2.286-.542 2.81 1.32.508 1.863-1.896 4.335-4.317 4.352zm2.98-6.823c-.406 0-1.118-.186-1.118-.627 0-1.27-.203-1.202-1.523.339-.728.83-1.304 1.642-1.304 1.795 0 .169-.491 1.337-1.1 2.59-1.101 2.269-1.355 3.471-.847 3.979.152.135.49-.017.745-.356 2.353-1.659 4.876 2.066 7.399-4.503 0-1.693-1.067-3.217-2.252-3.217zm-2.98 6.823c-1.388 0-1.744-.39-1.507-1.134.593-1.93 2.252-4.42 3.014-4.538 1.388-.203 2.286-.542 2.81 1.32.508 1.863-1.896 4.335-4.317 4.352zM7.907 32.208c-.49-.474-1.033-.762-1.253-.61-.44.288-1.219 2.422-1.219 3.37 0 .728.39.863.931.355.204-.186.762-.39 1.27-.457 1.253-.17 1.405-1.54.271-2.658zm0 0c-.49-.474-1.033-.762-1.253-.61-.44.288-1.219 2.422-1.219 3.37 0 .728.39.863.931.355.204-.186.762-.39 1.27-.457 1.253-.17 1.405-1.54.271-2.658zm13.545-15.695c-.406 0-1.118-.186-1.118-.627 0-1.27-.203-1.202-1.523.339-.728.83-1.304 1.642-1.304 1.795 0 .169-.491 1.337-1.1 2.59-1.101 2.269-1.355 3.471-.847 3.979.152.135.49-.017.745-.356 2.353-1.659 4.876 2.066 7.399-4.503 0-1.693-1.067-3.217-2.252-3.217zm-2.98 6.823c-1.388 0-1.744-.39-1.507-1.134.593-1.93 2.252-4.42 3.014-4.538 1.388-.203 2.286-.542 2.81 1.32.508 1.863-1.896 4.335-4.317 4.352zm2.98-6.823c-.406 0-1.118-.186-1.118-.627 0-1.27-.203-1.202-1.523.339-.728.83-1.304 1.642-1.304 1.795 0 .169-.491 1.337-1.1 2.59-1.101 2.269-1.355 3.471-.847 3.979.152.135.49-.017.745-.356 2.353-1.659 4.876 2.066 7.399-4.503 0-1.693-1.067-3.217-2.252-3.217zm-2.98 6.823c-1.388 0-1.744-.39-1.507-1.134.593-1.93 2.252-4.42 3.014-4.538 1.388-.203 2.286-.542 2.81 1.32.508 1.863-1.896 4.335-4.317 4.352zM7.907 32.208c-.49-.474-1.033-.762-1.253-.61-.44.288-1.219 2.422-1.219 3.37 0 .728.39.863.931.355.204-.186.762-.39 1.27-.457 1.253-.17 1.405-1.54.271-2.658zm0 0c-.49-.474-1.033-.762-1.253-.61-.44.288-1.219 2.422-1.219 3.37 0 .728.39.863.931.355.204-.186.762-.39 1.27-.457 1.253-.17 1.405-1.54.271-2.658zm13.545-15.695c-.406 0-1.118-.186-1.118-.627 0-1.27-.203-1.202-1.523.339-.728.83-1.304 1.642-1.304 1.795 0 .169-.491 1.337-1.1 2.59-1.101 2.269-1.355 3.471-.847 3.979.152.135.49-.017.745-.356 2.353-1.659 4.876 2.066 7.399-4.503 0-1.693-1.067-3.217-2.252-3.217zm-2.98 6.823c-1.388 0-1.744-.39-1.507-1.134.593-1.93 2.252-4.42 3.014-4.538 1.388-.203 2.286-.542 2.81 1.32.508 1.863-1.896 4.335-4.317 4.352zm2.98-6.823c-.406 0-1.118-.186-1.118-.627 0-1.27-.203-1.202-1.523.339-.728.83-1.304 1.642-1.304 1.795 0 .169-.491 1.337-1.1 2.59-1.101 2.269-1.355 3.471-.847 3.979.152.135.49-.017.745-.356 2.353-1.659 4.876 2.066 7.399-4.503 0-1.693-1.067-3.217-2.252-3.217zm-2.98 6.823c-1.388 0-1.744-.39-1.507-1.134.593-1.93 2.252-4.42 3.014-4.538 1.388-.203 2.286-.542 2.81 1.32.508 1.863-1.896 4.335-4.317 4.352zM7.907 32.208c-.49-.474-1.033-.762-1.253-.61-.44.288-1.219 2.422-1.219 3.37 0 .728.39.863.931.355.204-.186.762-.39 1.27-.457 1.253-.17 1.405-1.54.271-2.658zm13.545-15.695c-.406 0-1.118-.186-1.118-.627 0-1.27-.203-1.202-1.523.339-.728.83-1.304 1.642-1.304 1.795 0 .169-.491 1.337-1.1 2.59-1.101 2.269-1.355 3.471-.847 3.979.152.135.49-.017.745-.356 2.353-1.659 4.876 2.066 7.399-4.503 0-1.693-1.067-3.217-2.252-3.217zm-2.98 6.823c-1.388 0-1.744-.39-1.507-1.134.593-1.93 2.252-4.42 3.014-4.538 1.388-.203 2.286-.542 2.81 1.32.508 1.863-1.896 4.335-4.317 4.352zM7.907 32.208c-.49-.474-1.033-.762-1.253-.61-.44.288-1.219 2.422-1.219 3.37 0 .728.39.863.931.355.204-.186.762-.39 1.27-.457 1.253-.17 1.405-1.54.271-2.658zm0 0c-.49-.474-1.033-.762-1.253-.61-.44.288-1.219 2.422-1.219 3.37 0 .728.39.863.931.355.204-.186.762-.39 1.27-.457 1.253-.17 1.405-1.54.271-2.658zm13.545-15.695c-.406 0-1.118-.186-1.118-.627 0-1.27-.203-1.202-1.523.339-.728.83-1.304 1.642-1.304 1.795 0 .169-.491 1.337-1.1 2.59-1.101 2.269-1.355 3.471-.847 3.979.152.135.49-.017.745-.356 2.353-1.659 4.876 2.066 7.399-4.503 0-1.693-1.067-3.217-2.252-3.217zm-2.98 6.823c-1.388 0-1.744-.39-1.507-1.134.593-1.93 2.252-4.42 3.014-4.538 1.388-.203 2.286-.542 2.81 1.32.508 1.863-1.896 4.335-4.317 4.352z" class="greenboneopenvas_svg__st2"/><path d="M18.472 23.336c-1.388 0-1.744-.39-1.507-1.134.593-1.93 2.252-4.42 3.014-4.538 1.388-.203 2.286-.542 2.81 1.32.508 1.863-1.896 4.335-4.317 4.352z" class="greenboneopenvas_svg__st3"/><path d="M44.343 23.014v-2.353l-1.507.102c-1.406.084-1.558.016-1.93-1.033-.22-.61-.407-1.456-.407-1.846s-.406-1.185-.897-1.76-1.067-1.66-1.27-2.405c-.457-1.625-2.37-4.707-3.115-4.977-2.489-2.743-3.115-7.433-6.942-8.703-.948 0-.897-.491-.897 2.015s-.407 2.573-1.1 1.896c-.407-.39-1-1.117-1.338-1.642-.474-.745-1.456-2.1-2.303-2.015l-.05 1.338-.509 4.266c-.084 3.945.271 4.08-2.387 5.943-.559.423-1.117.846-1.66 1.304-.185.135-.355.304-.54.44l-.018.017c-7.128 5.926-12.986 13.358-16.05 22.213-.475 4.487 4.063 8.872 8.465 8.703.83-.136 1.964-.559 2.523-.948 1.845-1.253 3.623 2.353 4.825 3.572.88 1.117 1.05.88 4.504.728 5.435-1.304 14.493-7.585 17.811-12.461 1.22-1.846 2.387-3.352 2.608-3.352 1.743 1.845 7.652-5.435 2.184-9.042zM27.784 1.123l-.05.101c.016-.068.033-.101.05-.101zM23.297 4.44l.237-2.167.796 1.66c.44.913 1.05 1.862 1.389 2.132.761 1.22-1.524 2.54-2.455 3.251-.34-.017-.322-1.744.033-4.876zM11.903 42.417c-3.539 2.337-8.042-.592-9.786-5.214-.119-.322-.22-.627-.322-.949 5.875-13.917 12.97-20.537 24.72-28.63.118 0-.136 1.456-.44 2.049-.052.135-.12.237-.17.355-.356.864-.22 1.44.372 1.44.051 0 .085 0 .136-.018.728-.203 1.151-2.184 1.93-8.567.152-1.252.203-1.49.61-1.168.067.051.169.136.27.22.931.948 1.287 2.218 2.117 3.268 1.845 2.777 2.251 4.03 2.251 7.196 0 2.404.39 3.504 1.016 2.878.136-.119.254-.982.305-1.93.05-1.152-.118-2.912.22-2.912.153 0 .423.27.745.677 1 1.304 2.455 4.097 2.455 4.876 0 .457.322 1.202.677 1.66.678.812.678.846-.05 1.421a1.28 1.28 0 0 0-.34.39 2.807 2.807 0 0 0-.456 1.337c-.085 1.846-.44 1.66-.627-.304-.084-1.016-.254-1.93-.372-2.015s-1.118-.288-2.235-.406c-1.93-.204-2.167-.136-4.114 1.202-3.454 2.336-4.047 4.012-2.201 6.4.542.694.982 1.506.982 1.828 0 .491-1.287 1.456-3.471 2.59-2.557 2.015-3.471 5.672-7.179 6.265-1.473.491-3.047 1.084-3.505 1.304-1.794 1.303-2.302 3.149-3.538 4.757zm2.76.22-.762-1.1.914-1.507c.762-1.117 1.845-1.98 3.166-2.167.643-.05 2.235-.61 3.522-1.253 2.014-1.016 2.472-1.422 3.318-3.065 1.422-2.742 4.013-4.012 5.689-2.776.677.49.66.525-.406.542-1.389.016-1.998.575-1.998 1.879 0 .779-.17 1.016-.762 1.016-.508 0-.897.338-1.168 1.05-.237.643-.762 1.15-1.304 1.286-.491.119-1.473.61-2.201 1.1s-1.846.881-2.472.881c-.88 0-1.473.356-2.641 1.609-1.609 1.727-2.049 2.607-.677 1.388 1.168-1.05 2.268-1.558 3.42-1.558.558 0 1.303-.27 1.659-.592.372-.322 1.54-.88 2.59-1.22 1.473-.49 2.032-.863 2.438-1.726.339-.762.813-1.135 1.456-1.22.813-.1.965-.321 1.067-1.472.119-1.253.22-1.355 1.236-1.355 1.084 0 1.117.051.931 1.389-.135.948-.592 1.794-1.422 2.624-2.963 2.556-6.518 4.199-9.397 6.772-3.166 2.117-4.453 1.998-6.196-.525zm17.388-1.93c-3.877 2.557-8.737 7.467-13.68 6.485-1.033-.407-1.355-.965-.695-1.067.068-.017.153-.017.237-.017 2.912-1.388 10.362-7.246 13.477-9.566.847-.779 1.456-1.168 1.456-2.743 0-2.048-1.1-4.3-2.082-4.3-.406 0-.491-.186-.305-.627.322-.795.474-1.286.407-1.676-.051-.39-.305-.677-.745-1.117-1.22-1.1-1.372-3.674-.288-4.64.762-.676 4.419-2.03 5.485-2.03.796 0 1.287 1.32.949 2.64-.187.728.05 1 1.49 1.846.948.542 2.014 1.303 2.404 1.659 3.657 5.723-3.539 11.97-8.11 15.153zm9.786-15.966c-.322.407-.136.254-1.355-.304-1.1-.068-1.54-.78-1.083-2.439.05-.186.101-.338.135-.474.407-1.083.813-.778 1.643-.355.338.186.914.423 1.27.525.761.237.863 1.845.135 2.285-.423.373-.627.61-.745.762zm3.268 4.098v.033c-.153 1.033-.729 1.948-1.897 2.083-.982 0-1.507-.847-.948-1.54.203-.238.322-.932.288-1.525-.05-.524.102-1.235.322-1.659.033-.05.05-.101.084-.135 1.084-1.185 2.015.118 2.184 1.659a5.8 5.8 0 0 1-.033 1.084z" class="greenboneopenvas_svg__st2"/><path d="M31.661 33.782c-.135.949-.592 1.795-1.422 2.625-2.963 2.556-6.518 4.199-9.397 6.772-3.132 2.1-4.436 1.981-6.162-.542l-.762-1.1.914-1.507c.762-1.117 1.845-1.98 3.166-2.167.643-.05 2.235-.61 3.522-1.253 2.014-1.016 2.472-1.422 3.318-3.065 1.422-2.742 4.013-4.012 5.689-2.776.677.49.66.525-.406.542-1.389.016-1.998.575-1.998 1.879 0 .779-.17 1.016-.762 1.016-.508 0-.898.338-1.168 1.05-.237.643-.762 1.15-1.304 1.286-.491.119-1.473.61-2.201 1.1s-1.846.881-2.472.881c-.88 0-1.473.356-2.641 1.609-1.609 1.727-2.049 2.607-.678 1.388 1.169-1.05 2.27-1.558 3.42-1.558.56 0 1.304-.27 1.66-.592.372-.322 1.54-.88 2.59-1.22 1.473-.49 2.032-.863 2.438-1.726.339-.762.813-1.135 1.456-1.22.813-.1.965-.321 1.067-1.472.119-1.253.22-1.355 1.236-1.355 1.05 0 1.084.051.897 1.405z" class="greenboneopenvas_svg__st3"/><path d="M45.138 27.755c-.118-.05-.22-.085-.304-.152-.136-.136-.373-.356-.576-.457-.27-.136-.406-.238-.711-.39-.186-.085-.457-.322-.677-.525.033-.05.05-.101.084-.135 1.067-1.185 2.015.101 2.184 1.659zm-2.556-3.759a4.401 4.401 0 0 0-.762.762c-.22-.22-.305-.542-.508-.762-.27-.254-.593-.745-.779-1.1a3.914 3.914 0 0 0-.457-.711c-.135-.17-.39-.407-.542-.644.407-1.083.813-.778 1.643-.355.338.186.914.423 1.27.525.761.237.863 1.845.135 2.285zm-3.64-4.926a1.28 1.28 0 0 0-.339.389c-.119-.17-.27-.356-.339-.627-.101-.372-.321-.626-.406-.965-.085-.321-.17-.66-.322-.965-.135-.254-.22-.863-.406-1.1-.254-.322-.22-.627-.406-.965-.102-.22-.322-.644-.39-.898-.084-.304-.067-.71-.203-.965-.135-.237-.135-.558-.203-.846s-.085-.711-.085-1c1 1.304 2.455 4.098 2.455 4.877 0 .457.322 1.202.677 1.66.695.795.695.829-.033 1.404zM26.074 9.69c-.05.135-.118.237-.17.355a.234.234 0 0 0-.067.051c-.254.135-.796.406-1.033.643a4.072 4.072 0 0 1-1.117.762c-.491.237-.965.373-1.44.711-.338.254-.829.424-1.117.711-.27.271-.558.34-.914.508-.305.153-.61.288-.847.458-.254.203-.575.287-.914.457-.17.084-.49.406-.576.575-.101.187-.321.491-.406.762-.101.373-.338.407-.525.762-.152.322-.372.491-.575.762-.22.305-.424.559-.711.762-.305.22-.66.525-.915.762-.237.22-.49.44-.66.762-.22.457-.694.863-1.033 1.286-.694.83-1.54 1.88-2.1 2.828s-1.32 1.845-1.896 2.827c-.406.695-.778 1.44-1.303 2.066-.491.576-.847 1.338-1.372 1.862-.321.305-.762.982-.982 1.406s-.677.83-.779 1.286c-.084.356-.287.593-.507.898-.237.321-.44.83-.66 1.033-.17.152-.407.389-.526.643-.135.254-.321.406-.457.711-.101.254-.288.576-.355.813-.119-.322-.22-.627-.322-.948 5.875-13.918 12.97-20.538 24.72-28.63.118.067-.12 1.523-.44 2.116zm2.878-7.636V3.61c0 .424-.084.949-.084 1.27 0 .491-.187.948-.187 1.372v1.371c0 .406.102.965 0 1.371-.084.305 0 .949-.101 1.372-.136.525-.136.999-.83.999-.406 0-1.168.355-1.354.135.728-.203 1.151-2.184 1.93-8.567.152-1.253.203-1.49.61-1.168.016.068.016.17.016.288z" style="fill:#49be7a"/></svg>