<svg xmlns="http://www.w3.org/2000/svg" viewBox="0 0 48 48"><path fill="#0b024c" d="M3.006 15.114c-1.042.36-2.184 1.643-2.645 2.966C.08 18.862 0 19.724 0 21.527c0 2.085.06 2.546.461 3.408.862 1.884 2.285 2.886 4.109 2.906 1.182 0 2.244-.421 3.126-1.263l.662-.641-.14 1.503c-.201 1.924-.341 2.325-1.143 2.806-.862.52-2.606.52-4.67 0-.862-.22-1.603-.401-1.643-.401s-.06.601-.02 1.343l.06 1.363 1.002.26c.561.16 2.004.28 3.207.3 2.425.02 3.667-.28 4.89-1.202.721-.561 1.623-2.245 1.623-3.106 0-1.083.12-1.163 1.804-1.163h1.563l.08-3.868c.06-3.607.08-3.888.501-4.47.401-.56 1.985-1.442 2.205-1.222.04.06-.02.481-.12.962-.12.481-.22 1.584-.22 2.425 0 2.746 1.062 4.67 3.166 5.712 1.002.481 1.383.561 2.946.561 2.145 0 3.167-.4 4.39-1.663l.801-.822.461.682c.26.4.922.902 1.603 1.242 1.022.501 1.383.561 3.067.561 1.363 0 2.164-.1 2.866-.36l.942-.381v-2.966l-.842.42c-1.162.602-3.086.742-3.948.301-1.704-.882-1.964-5.01-.421-6.574.48-.48.721-.56 1.683-.56 1.985 0 1.844-.181 4.009 5.21l1.944 4.85-.461.922c-.641 1.303-1.343 1.744-2.686 1.744h-1.082v2.665l.902.12a5.267 5.267 0 0 0 5.391-2.565c.401-.661 5.933-15.111 5.933-15.452 0-.06-.802-.1-1.784-.1h-1.804l-1.283 3.948c-.701 2.185-1.383 4.289-1.503 4.67-.2.681-.2.681-.22.14-.02-.32-.622-2.405-1.363-4.65l-1.323-4.048-2.866-.16c-2.325-.1-3.086-.08-3.948.18-1.223.36-2.525 1.223-2.906 1.964l-.28.501-1.043-1.062c-.802-.782-1.343-1.122-2.124-1.363-1.744-.521-3.628-.38-5.452.38-.28.101-.36.04-.36-.28 0-.38-.12-.42-1.043-.42-1.282 0-2.585.6-3.287 1.523-.3.38-.601.681-.681.681s-.26-.461-.401-1.002l-.24-1.002H8.758l-.28 1.603-.722-.621c-1.343-1.183-3.006-1.503-4.75-.882zm4.129 2.826c.902.46 1.243 1.443 1.243 3.607.02 2.245-.361 3.047-1.584 3.448-2.505.841-4.028-1.604-3.267-5.211.421-1.924 1.944-2.706 3.608-1.844zm17.797.2c.802.662 1.083 1.784.982 3.688-.14 2.365-.821 3.207-2.625 3.207-1.744 0-2.425-1.062-2.425-3.708 0-2.706.681-3.708 2.505-3.708.721 0 1.102.12 1.563.521z"/></svg>