<?xml version="1.0" encoding="utf-8"?>
<!-- Generator: Adobe Illustrator 27.1.1, SVG Export Plug-In . SVG Version: 6.00 Build 0)  -->
<svg version="1.1" id="Layer_1" xmlns="http://www.w3.org/2000/svg" xmlns:xlink="http://www.w3.org/1999/xlink" x="0px" y="0px"
	 viewBox="0 0 150 150" style="enable-background:new 0 0 150 150;" xml:space="preserve">
<style type="text/css">
	.st0{fill:#D3B542;}
	.st1{fill:#578B34;}
	.st2{fill:#030403;}
</style>
<g>
	<path class="st0" d="M67.2,148.1c-24.8-2.2-47.7-18.4-58.7-41.5c-4.8-10.2-7-20-7-31.6s2.2-21.5,7-31.7
		c7.3-15.2,19.6-27.5,34.8-34.8c10.2-4.8,20-7,31.7-7s21.5,2.2,31.7,7c15.2,7.3,27.5,19.6,34.8,34.8c4.8,10.2,7,20,7,31.7
		s-2.2,21.5-7,31.7c-7.3,15.2-19.6,27.5-34.8,34.8C94.4,147.3,81.8,149.4,67.2,148.1L67.2,148.1z M85.3,120.8
		c16.3-2,29.1-9.6,37.2-21.9c1.9-2.9,1.9-3.1,0-1.7c-7.6,5.7-20.7,10.4-34,12.1c-18.6,2.4-38-0.5-52.9-7.8c-3.9-1.9-6.8-3.7-8.9-5.4
		c-0.6-0.5-1.1-0.9-1.2-0.9c-0.4,0,2,4.2,4,6.8c7.4,9.8,18.5,15.9,32.8,18.2c2.4,0.4,5.5,0.7,9.6,1
		C74.2,121.4,82.6,121.2,85.3,120.8z M83.6,97.2c12.4-1.1,23.7-4,34-8.9c4.7-2.2,9.8-5.5,12.3-7.8c0.9-0.9,1.2-1.8,2.1-6.8
		c0.4-2.1,0.9-4.4,1.2-5.1c0.9-2.4,1.2-9.3,0.6-12.2c-0.6-2.6-2.9-6.1-4.8-7.1l-0.8-0.4l-1.4,1.1c-0.8,0.6-1.4,1.1-1.4,1.2
		s0.2,0.4,0.5,0.8c1.3,2.2,1.5,6.3,0.6,9.4c-2.3,7.2-11.8,13.8-25,17.5c-8.4,2.3-15.7,3.2-25.4,3.3c-9.3,0-16.1-0.8-24-2.8
		c-17.1-4.3-27.4-12.6-27.4-21.8c0-2.4,0.7-4.2,3.1-7.8c1.2-1.8,2.3-3.9,2.9-5.2c1-2.5,1.1-2.5-1.7-0.8c-4.8,2.9-8.9,6.8-10.5,10
		c-1.2,2.3-1.4,3.6-1.4,7.1c0,3.8,0.3,6,1.2,7.7c0.6,1.2,0.8,1.9,1,4.4c0.7,6.3,0.6,6,2.6,7.9c7.6,7.4,25.6,14.4,41.6,16.3
		C69.8,97.6,77.4,97.7,83.6,97.2z"/>
	<path class="st1" d="M69.9,148.4c-1.1-0.1-2.2-0.2-3.3-0.3c-3.5-0.3-8.8-1.4-12.5-2.5c-9-2.7-16.9-6.8-24.6-12.7
		c-3.1-2.4-9.9-9.2-12.3-12.3C8.8,109.6,3.8,97.7,2,84.3c-0.6-4.1-0.6-14.4,0-18.6c1.8-13.4,6.8-25.4,15.2-36.2
		c2.4-3.1,9.2-9.9,12.3-12.3C40.3,8.8,52.3,3.8,65.7,2c4.1-0.6,14.4-0.6,18.6,0c13.4,1.8,25.4,6.8,36.2,15.2
		c3.1,2.4,9.9,9.2,12.3,12.3c8.4,10.8,13.4,22.8,15.2,36.2c0.6,4.1,0.6,14.4,0,18.6c-1.8,13.4-6.8,25.4-15.2,36.2
		c-2.4,3.1-9.2,9.9-12.3,12.3c-10.8,8.3-22.9,13.4-36.1,15.1C81.7,148.3,71.8,148.6,69.9,148.4L69.9,148.4z M87.1,120.7
		c6.4-1,11.5-2.6,16.8-5.2c6.5-3.2,12.1-7.8,16.6-13.5c1.8-2.3,4.1-5.9,3.9-6.1c-0.1-0.1-0.7,0.3-1.5,0.9
		c-7.2,5.6-19.6,10.1-32.7,12.1c-10,1.5-21.4,1.4-31-0.2c-13.2-2.2-25.1-6.9-32.3-12.7c-0.9-0.7-1.6-1.2-1.7-1.1
		c-0.1,0.3,0.7,1.9,2.2,4.1c7.8,12.1,19.6,19.1,36.5,21.5c4.5,0.7,6.8,0.8,13.4,0.7C82.7,121.2,84.4,121.1,87.1,120.7z M80.2,97.5
		c9.5-0.5,18.6-2.2,27.2-5.1c9.7-3.2,18.7-8.1,22.5-12.1c1.2-1.2,1.4-1.9,2.3-7.7c0.2-1.5,0.6-3.1,0.8-3.6c0.7-1.6,1-4.2,1-8.4
		c0-4.4-0.2-5.5-1.5-7.7c-0.8-1.3-3-3.7-3.8-4.1c-0.6-0.3-0.7-0.2-2,0.7c-0.8,0.6-1.4,1.2-1.4,1.3c0,0.1,0.2,0.7,0.5,1.2
		c0.6,1.2,1.1,3.8,1.1,5.2c0,9.3-10.9,17.8-28.4,21.9c-21.6,5.2-47.5,2.5-62.7-6.6c-7.3-4.3-11.2-9.7-11.2-15.2c0-2.9,0.4-4,3.4-8.4
		c1.8-2.7,3.9-7.3,3.2-7c-1,0.4-4,2.2-6.1,3.8c-3.9,2.9-6.7,6.3-7.7,9.3c-0.4,1.2-0.5,2-0.5,5.4c0,4.6,0.2,5.9,1.1,7.8
		c0.5,1.1,0.7,1.9,0.9,4c0.1,1.5,0.4,3.5,0.6,4.6c0.3,1.7,0.4,2,1.3,2.9c0.6,0.6,2,1.8,3.3,2.7c10.6,8,28.6,13.8,45.3,14.8
		C74.4,97.8,75.4,97.8,80.2,97.5z M115.2,49.3c7.2-4.1,11.6-7.3,13.3-9.6c0.5-0.7,0.9-1.5,0.9-1.8c0-2.6-14.4-11.2-17.5-10.4
		c-0.7,0.2-1.9,2-3.5,5.4c-1,2.2-3.6,8.6-3.6,9c0,0.1,0.5,0.4,1.2,0.8c1,0.6,1.3,0.8,2,2.3c0.6,1.4,1,1.8,1.7,2.1
		c1,0.5,2,1.6,2.5,2.7c0.2,0.4,0.4,0.8,0.5,0.8C112.8,50.6,113.9,50,115.2,49.3L115.2,49.3z"/>
	<path class="st2" d="M70.9,148.3c-4.6-0.4-9.2-1.1-13.7-2.2c-20.8-5.2-38.3-19.3-47.8-38.5c-3.7-7.6-5.9-14.6-6.9-22.1
		c-0.2-1.3-0.4-2.6-0.6-3.9C1.6,80,1.6,70,1.9,68.4c0.1-0.6,0.4-2.4,0.6-3.9C3.5,57,5.7,50,9.4,42.5c7-14.4,18.7-26,33-33.1
		C50,5.7,57,3.5,64.5,2.5c1.3-0.2,2.6-0.4,3.9-0.6C70,1.6,80,1.6,81.5,1.9c0.6,0.1,2.4,0.4,3.9,0.6c7.5,1,14.5,3.2,22.1,6.9
		c14.4,7,26,18.7,33.1,33c3.7,7.6,5.9,14.6,6.9,22.1c0.2,1.5,0.5,3.3,0.6,3.9c0.2,0.7,0.3,3.3,0.3,6.5c0,3.2-0.1,5.9-0.3,6.5
		c-0.1,0.6-0.4,2.4-0.6,3.9c-1,7.5-3.2,14.5-6.9,22.1c-7,14.4-18.7,26-33,33.1c-7.6,3.7-14.6,5.9-22.1,6.9c-1.3,0.2-2.5,0.3-3.8,0.6
		C80.2,148.3,73.5,148.5,70.9,148.3z M80.4,121.6c4.6-0.3,7.5-0.6,11.4-1.5c13.3-3,24.2-10.4,31.3-21.3c2.4-3.7,2.5-4.4,0.2-2.5
		c-6.9,5.4-18.4,10-30.6,12.1c-6.6,1.1-8.7,1.3-17.3,1.3c-6.5,0-9-0.1-11.4-0.4c-6.1-0.8-12.9-2.2-18-3.9c-7.7-2.5-15.5-6.5-19.6-10
		c-1.3-1.1-1.9-1.5-1.9-1.1c0,0.3,1.6,3.4,2.6,4.9c8.8,13.9,23.9,21.5,44.6,22.5c2,0.1,3.9,0.2,4.1,0.2
		C76.1,121.8,78.1,121.7,80.4,121.6z M81.8,97.7c11-0.8,21.2-3.1,30.9-6.9c7.2-2.8,14.5-7.1,17.5-10.2c1-1.1,1.3-1.9,2.1-6.8
		c0.3-1.8,0.8-4.1,1.1-5c0.5-1.3,0.6-2.5,0.8-5.3c0.4-5.5,0-7.7-1.4-10.4c-0.9-1.5-2.9-3.7-3.9-4.3l-0.8-0.4l-1.4,1
		c-1.9,1.4-2,1.5-1.5,2.5c0.8,1.6,1.2,3.5,1.2,5.6c0,3.9-1.4,6.7-4.9,10.2C108.4,81.1,73,85.7,47.2,77.4
		C35.4,73.6,27.5,67.7,25.5,61c-0.5-1.6-0.6-2.2-0.5-4.1c0.1-2.8,0.5-3.7,3.1-7.6c1-1.5,2.2-3.5,2.6-4.5c0.4-1,0.9-2.1,1.1-2.5
		c0.5-1,0-1-1.8,0c-3.9,2.1-7.9,5.4-10.1,8c-2.9,3.5-3.6,6.2-3.3,11.8c0.2,3.4,0.5,5.2,1.4,6.7c0.4,0.7,0.6,1.5,0.7,2.9
		c0.3,3.4,0.8,6.7,1.3,7.5c0.6,1,3.8,3.6,6.5,5.4C40.7,94,62.6,99.1,81.8,97.7L81.8,97.7z M81.4,75.9c10.7-0.7,20.2-2.8,27.4-6.3
		c3.6-1.7,5.7-3.1,8.1-5.6c2.5-2.5,3.5-4.3,3.7-6.7c0.1-1.7-0.4-3.8-1.1-3.9c-0.3,0-5.5,2.8-9.4,5.1c-0.4,0.2-0.8,0.4-0.9,0.3
		c-0.1-0.1-0.3-1-0.4-2.1c-0.4-2.7-0.8-3.5-2.1-4.4c-2-1.4-2.4-1.8-3.2-3.5c-0.7-1.5-0.9-1.7-1.8-2c-1.6-0.6-3.4-1.8-3.4-2.2
		c0-0.4,1.5-4.6,2.4-6.8c0.2-0.5,0.4-1,0.6-1.5c0-0.2-5.1-3.9-5.8-4.2c-1-0.4-4.4-0.8-7.4-0.8c-2.9,0-4.9-0.3-7.7-1.3
		c-3.9-1.3-4.1-1.3-7.4-0.8c-2.7,0.4-3.1,0.5-4.3,1.3c-3,1.9-5.4,2.6-9,2.6c-1.2,0-3,0.2-4,0.4c-3.1,0.6-4,1.1-6.3,3.2
		c-2.9,2.7-4.8,3.9-8.2,5.5c-3.6,1.6-4,1.9-4.5,3.1c-1.2,2.9-1.8,3.9-3.2,6c-2.2,3.2-2.8,4.5-2.6,6.2c0.4,4.2,5,8.9,11.9,12.1
		C52.9,74.4,67.5,76.8,81.4,75.9z M119.2,47.3c5.8-3.5,9.2-6.3,10.2-8.4c0.5-1.1,0.5-1.5-0.5-2.6c-2.3-2.8-11.3-8.1-15.2-9
		c-1.8-0.4-2.2-0.3-3.3,1.3c-1.7,2.5-5.8,11.9-5.8,13.4c0,0.2,0.5,0.6,1.1,1c1,0.5,1.2,0.8,1.9,2.3c0.7,1.4,1,1.7,2,2.4
		c0.7,0.5,1.4,1.1,1.9,1.8c1.1,1.8,1,1.8,2.7,0.8C115.9,49.3,117.5,48.3,119.2,47.3z"/>
</g>
</svg>
