<svg xmlns="http://www.w3.org/2000/svg" viewBox="0 0 48 48"><g fill="none" fill-rule="evenodd"><path fill="#f5c400" d="M0 0h48v48H0z"/><path fill="#111820" fill-rule="nonzero" d="M16.517 17.586s.022 3.178 1.654 6.464c1.676 3.163 3.987 5.195 5.894 6.005 1.97-.921 3.873-2.52 4.911-4.242h-5.408c-1.399-1.16-2.5-3.083-2.753-5.307H36.68c-.782 3.575-2.442 6.827-4.023 8.898a19.1 19.1 0 0 1-8.58 6.317h-.05c-5.69-2.267-8.752-5.838-10.772-9.867-1.296-2.583-2.65-7.271-2.65-13.575h26.79a38 38 0 0 1-.357 5.308z"/></g></svg>