<svg xmlns="http://www.w3.org/2000/svg" xmlns:xlink="http://www.w3.org/1999/xlink" viewBox="0 0 48 48"><defs><linearGradient id="harbor_svg__linear-gradient" x1="264.79" x2="267.27" y1="952.39" y2="952.39" gradientTransform="matrix(30.43 0 0 -30.43 -7955.2 29286)" gradientUnits="userSpaceOnUse"><stop offset="0" stop-color="#60b932"/><stop offset=".28" stop-color="#60b932"/><stop offset="1" stop-color="#367c34"/></linearGradient><linearGradient xlink:href="#harbor_svg__linear-gradient" id="harbor_svg__linear-gradient-2" x1="263.77" x2="266.26" y1="955.65" y2="955.65" gradientTransform="matrix(27.21 0 0 -27.21 -7073.8 26169)"/><linearGradient xlink:href="#harbor_svg__linear-gradient" id="harbor_svg__linear-gradient-3" x1="263.28" x2="265.76" y1="953.74" y2="953.74" gradientTransform="matrix(25.75 0 0 -25.75 -6671.1 24812)"/><linearGradient xlink:href="#harbor_svg__linear-gradient" id="harbor_svg__linear-gradient-4" x1="263.77" x2="266.25" y1="953.2" y2="953.2" gradientTransform="matrix(27.1 0 0 -27.1 -7040.9 26102)"/><linearGradient xlink:href="#harbor_svg__linear-gradient" id="harbor_svg__linear-gradient-5" x1="262.73" x2="265.21" y1="954.34" y2="954.34" gradientTransform="matrix(24.4 0 0 -24.4 -6301.4 23522)"/><linearGradient id="harbor_svg__linear-gradient-6" x1="272.14" x2="274.62" y1="955.15" y2="955.15" gradientTransform="matrix(53.113 -39.33 -39.33 -53.113 23289 61578)" gradientUnits="userSpaceOnUse"><stop offset="0" stop-color="#4596d8"/><stop offset=".2" stop-color="#4596d8"/><stop offset="1" stop-color="#fff"/></linearGradient><linearGradient id="harbor_svg__linear-gradient-7" x1="270.65" x2="273.13" y1="952.38" y2="952.38" gradientTransform="matrix(76.227 15.564 15.564 -76.227 -35281 68559)" gradientUnits="userSpaceOnUse"><stop offset="0" stop-color="#4194d7"/><stop offset=".2" stop-color="#4194d7"/><stop offset="1" stop-color="#fff"/></linearGradient><linearGradient id="harbor_svg__linear-gradient-8" x1="270.97" x2="273.45" y1="953.75" y2="953.75" gradientTransform="scale(71.35 -71.35) rotate(10.23 5477.257 -1024.589)" gradientUnits="userSpaceOnUse"><stop offset="0" stop-color="#4194d7"/><stop offset=".33" stop-color="#4496d8"/><stop offset="1" stop-color="#fff"/></linearGradient><linearGradient xlink:href="#harbor_svg__linear-gradient" id="harbor_svg__linearGradient323" x1="264.79" x2="267.27" y1="952.39" y2="952.39" gradientTransform="matrix(30.43 0 0 -30.43 -7955.2 29286)" gradientUnits="userSpaceOnUse"/><clipPath id="harbor_svg__clip-path"><path d="m174.4 302.52-68.65-30.26-3.83 43.21 75.5 23.98z" class="harbor_svg__cls-1"/></clipPath><clipPath id="harbor_svg__clip-path-2"><path d="M119.19 135.38h38.55v32.89h-9.15v-14a10.13 10.13 0 1 0-20.26 0v14h-9.15zm-7.7 72 57.2 25.21-3.94-48.24h7.49v-16.08h-5.55v-32.89h5.55v-9.45l-30.86-30.19v-2.12a2.91 2.91 0 0 0-5.82 0v2.12l-30.86 30.19v9.45h5.56v32.89h-5.56v16.12h8.82z" class="harbor_svg__cls-1"/></clipPath><clipPath id="harbor_svg__clip-path-3"><path d="m108.14 245.28 63.88 28.16-.96-11.73-61.96-27.3z" class="harbor_svg__cls-1"/></clipPath><clipPath id="harbor_svg__clip-path-4"><path d="m106.46 264.21 67.23 29.63-.96-11.72-65.31-28.78z" class="harbor_svg__cls-1"/></clipPath><clipPath id="harbor_svg__clip-path-5"><path d="m110.77 215.48-.96 10.87 60.54 26.68-.95-11.72z" class="harbor_svg__cls-1"/></clipPath><clipPath id="harbor_svg__clip-path-6"><path d="M313.13 67.59a175.31 175.31 0 0 0-29.75-28.13c-1.57-1.17-3.18-2.3-4.79-3.42L256 59.5l-82.34 85.63 113.41-58.68 29.07-15c-1.01-1.31-1.98-2.62-3.01-3.86z" class="harbor_svg__cls-1"/></clipPath><clipPath id="harbor_svg__clip-path-7"><path d="M353.59 177.61c0-2-.14-4-.22-5.93l-32.21-2.31-147.47-10.58L318.36 209l30.41 10.55c.09-.36.19-.71.28-1.08a173.65 173.65 0 0 0 4.57-39.47v-1.37z" class="harbor_svg__cls-1"/></clipPath><clipPath id="harbor_svg__clip-path-8"><path d="M348.84 138.61a172.55 172.55 0 0 0-13.84-37.7l-30.94 9.94L175.92 152l142-4.83 32.5-1.11c-.5-2.48-.99-4.98-1.58-7.45z" class="harbor_svg__cls-1"/></clipPath><style>.harbor_svg__cls-1{fill:none}.harbor_svg__cls-13{fill:#696566}</style></defs><path fill="#fff" d="M3.295 24.002a20.549 20.549 0 1 1 20.549 20.546A20.549 20.549 0 0 1 3.295 24.002"/><g clip-path="url(#harbor_svg__clip-path)" transform="translate(-.968 -.705) scale(.13803)"><path fill="url(#harbor_svg__linearGradient323)" d="m174.4 302.52-68.65-30.25-3.82 43.2 75.5 24-3-36.93"/></g><g clip-path="url(#harbor_svg__clip-path-2)" transform="translate(-.968 -.705) scale(.13803)"><path fill="url(#harbor_svg__linear-gradient-2)" d="M119.19 135.38h38.55v32.89h-9.15v-14a10.13 10.13 0 1 0-20.26 0v14h-9.15zm-7.7 72 57.2 25.21-3.94-48.24h7.49v-16.08h-5.55v-32.89h5.55v-9.45l-30.86-30.19v-2.12a2.91 2.91 0 0 0-5.82 0v2.12l-30.86 30.19v9.45h5.56v32.89h-5.56v16.12h8.82l-2 23"/></g><g clip-path="url(#harbor_svg__clip-path-3)" transform="translate(-.968 -.705) scale(.13803)"><path fill="url(#harbor_svg__linear-gradient-3)" d="M108.13 245.28 172 273.44l-1-11.72-62-27.31-1 10.87"/></g><g clip-path="url(#harbor_svg__clip-path-4)" transform="translate(-.968 -.705) scale(.13803)"><path fill="url(#harbor_svg__linear-gradient-4)" d="m106.46 264.21 67.23 29.63-1-11.72-65.31-28.78-1 10.87"/></g><g clip-path="url(#harbor_svg__clip-path-5)" transform="translate(-.968 -.705) scale(.13803)"><path fill="url(#harbor_svg__linear-gradient-5)" d="m110.77 215.48-1 10.88L170.35 253l-1-11.72-58.62-25.83"/></g><path d="m41.002 14.595 4.27-1.372-.044-.09a24.074 24.074 0 0 0-2.56-3.98l-4.013 2.07a19.698 19.698 0 0 1 2.309 3.295c.014.023.025.048.037.073m2.359 8.082 4.446.319a23.86 23.86 0 0 0-.414-3.533l-4.486.154a19.462 19.462 0 0 1 .449 3.06" class="harbor_svg__cls-13"/><path d="M24.153 43.576c-10.794 0-19.577-8.781-19.577-19.575S13.362 4.424 24.153 4.424a19.453 19.453 0 0 1 10.532 3.083l3.112-3.243A23.86 23.86 0 0 0 24.153 0C10.923 0 .157 10.766.157 24.002s10.766 23.997 23.996 23.997c11.305 0 20.8-7.868 23.327-18.403l-4.193-1.453c-1.905 8.812-9.757 15.436-19.131 15.436" class="harbor_svg__cls-13"/><g clip-path="url(#harbor_svg__clip-path-6)" transform="translate(-.968 -.705) scale(.13803)"><path fill="url(#harbor_svg__linear-gradient-6)" d="M313.13 67.59a175.31 175.31 0 0 0-29.75-28.13c-1.57-1.17-3.18-2.3-4.79-3.42L256 59.5l-82.34 85.63 113.41-58.68 29.07-15c-1-1.27-2-2.58-3-3.82"/></g><g clip-path="url(#harbor_svg__clip-path-7)" transform="translate(-.968 -.705) scale(.13803)"><path fill="url(#harbor_svg__linear-gradient-7)" d="M353.59 177.61c0-2-.14-4-.22-5.93l-32.21-2.31-147.47-10.58L318.36 209l30.41 10.55c.09-.36.19-.71.28-1.08a173.65 173.65 0 0 0 4.57-39.47v-1.37"/></g><g clip-path="url(#harbor_svg__clip-path-8)" transform="translate(-.968 -.705) scale(.13803)"><path fill="url(#harbor_svg__linear-gradient-8)" d="M348.84 138.61a172.55 172.55 0 0 0-13.84-37.7l-30.94 9.94L175.92 152l142-4.83 32.5-1.11c-.48-2.51-1-5-1.56-7.48"/></g></svg>