<svg xmlns="http://www.w3.org/2000/svg" viewBox="0 0 48 48"><g fill-rule="nonzero"><path fill="#b51f08" d="m45.57 26.439 2.431-2.43-2.43-2.431 1.828-2.91-2.91-1.829 1.135-3.244-3.244-1.135.385-3.415-3.415-.385-.385-3.416-3.415.385-1.136-3.244-3.243 1.135L29.34.61l-2.91 1.829-2.43-2.43-2.43 2.43L18.661.61l-1.829 2.91-3.244-1.135-1.135 3.244-3.415-.385-.385 3.415-3.415.385.385 3.415-3.245 1.136 1.136 3.244-2.91 1.828 1.828 2.91-2.43 2.431 2.43 2.43L.604 29.35l2.91 1.828-1.136 3.245 3.245 1.135-.385 3.415 3.415.385.385 3.415 3.415-.385 1.135 3.244 3.244-1.135 1.83 2.91 2.909-1.828 2.43 2.407 2.43-2.407 2.91 1.829 1.83-2.91 3.244 1.134 1.135-3.244 3.415.385.385-3.415 3.415-.385-.385-3.415 3.245-1.135-1.136-3.245 2.91-1.828z"/><path fill="#fcca8c" d="M40.648 27.851a8.505 8.505 0 0 0-14.488-6.043l-.001-.002-2.167 2.168-1.772-1.772a8.505 8.505 0 1 0-12.198 11.82L24 47.991l13.67-13.678c1.707-1.608 2.979-3.876 2.979-6.463"/><path fill="url(#hedgedoc_svg__a)" d="m885.58 884.73-54.862-54.862c-48.267-55.067-119.07-89.879-198.04-89.879-145.44 0-263.34 117.9-263.34 263.34 0 76 32.23 144.43 83.721 192.49l432.78 432.55" transform="matrix(.0323 0 0 .0323 -4.61 -4.602)"/></g><path fill="none" d="m24 47.992-.008-24.018"/><g fill-rule="nonzero"><path fill="#010007" d="M26.428 45.576a3.424 3.424 0 0 0-2.433-1.011c-.95 0-1.81.386-2.433 1.011a2.433 2.433 0 0 0 4.866 0M21.154 30.868a1.86 1.86 0 1 1-3.719 0 1.86 1.86 0 0 1 3.719 0"/><path fill="#fffffa" d="M20.516 30.59a.515.515 0 1 1-1.03 0 .515.515 0 0 1 1.03 0"/><path fill="#010007" d="M30.581 30.868a1.86 1.86 0 1 1-3.718 0 1.86 1.86 0 0 1 3.718 0"/><path fill="#fffffa" d="M29.945 30.59a.515.515 0 1 1-1.03 0 .515.515 0 0 1 1.03 0"/></g><defs><linearGradient id="hedgedoc_svg__a" x2="1" gradientTransform="matrix(200 -420 420 200 660 1340)" gradientUnits="userSpaceOnUse"><stop offset="0" stop-color="#fcca8c"/><stop offset="1" stop-color="#dca055"/></linearGradient></defs></svg>
