<?xml version="1.0" encoding="UTF-8" standalone="no"?><!DOCTYPE svg PUBLIC "-//W3C//DTD SVG 1.1//EN" "http://www.w3.org/Graphics/SVG/1.1/DTD/svg11.dtd"><svg width="100%" height="100%" viewBox="0 0 111 111" version="1.1" xmlns="http://www.w3.org/2000/svg" xmlns:xlink="http://www.w3.org/1999/xlink" xml:space="preserve" xmlns:serif="http://www.serif.com/" style="fill-rule:evenodd;clip-rule:evenodd;stroke-linejoin:round;stroke-miterlimit:2;"><circle cx="55.494" cy="55.494" r="55.494" style="fill:#4a5c67;"/><path d="M41.441,3.7c0.464,2.931 1.581,8.211 1.581,8.211c-3.694,2.102 -4.494,3.669 -4.345,4.87c0.081,-0.545 4.945,-3.879 4.891,-3.447l0.423,2.372c-7.953,4.974 -9.062,11.819 -9.096,17.589c-0.036,6.113 1.936,14.586 9.459,18.042c7.546,-3.932 14.925,-3.776 22.157,0c7.799,-4.505 9.469,-12.006 9.318,-18.205c-0.139,-5.693 -1.413,-12.28 -9.061,-17.428l0.417,-2.317c1.575,0.762 3.198,1.923 4.86,3.402c-0.113,-2.557 -2.112,-3.486 -4.157,-4.894l1.368,-8.236c3.816,3.524 7.182,7.333 9.934,11.529c-0.294,-3.793 -2.41,-6.91 -4.678,-9.971c17.69,16.056 20.013,31.311 21.788,46.735c-0.635,1.473 -1.374,2.831 -2.054,3.632c0.999,-0.226 1.816,-0.451 2.546,-0.677c-8.179,11.555 -17.791,21.736 -27.655,31.676l-2.134,6.073l0.082,5.95l1.6,-6.032l4.185,-6.811l0.123,7.18c-2.536,5.155 -5.31,9.953 -8.37,14.32l0.008,-20.294l25.308,-27.713c-6.801,5.444 -13.72,11.417 -20.434,17.561l-2.257,-2.421c9.641,-9.196 15.673,-18.021 16.823,-26.342c-2.146,5.587 -5.871,11.415 -11.074,17.198c-2.603,2.893 -5.842,5.445 -9.117,8.337c-1.84,1.624 -3.522,3.569 -5.52,5.222l0,2.052l-5.966,-0.066l0,-1.928c-1.864,-1.735 -3.027,-3.017 -4.717,-4.503c-4.645,-4.085 -9.179,-8.156 -12.514,-12.13c-3.857,-4.596 -6.605,-9.459 -8.413,-14.14c0.935,8.127 6.562,16.867 16.864,26.219l-2.421,2.462c-6.438,-5.792 -13.224,-11.641 -20.187,-17.52c8.191,9.331 16.646,18.504 25.275,27.573l0,20.499c-3.326,-4.391 -6.171,-9.448 -8.535,-14.714l0,-6.934l4.349,6.688l1.641,6.114l0,-5.867l-1.928,-6.114c-14.106,-14.078 -23.75,-24.915 -27.614,-31.553l2.257,0.451c-0.764,-0.927 -1.422,-2.011 -2.011,-3.2c1.406,-19.802 8.415,-35.7 21.993,-47.022c-2.778,3.71 -5.23,7.325 -4.708,10.073c2.622,-4.158 5.998,-7.939 9.714,-11.55Zm2.596,50.234l-0.328,8.822c-2.811,-2.294 -5.436,-5.023 -7.919,-8.083c2.826,6.985 9.548,13.504 19.705,19.613c10.093,-6.081 16.281,-12.657 19.48,-19.613c-2.705,3.206 -5.406,6.354 -8.001,8.124l-0.164,-8.863c-0.615,7.466 -4.025,13.419 -11.315,17.274c-7.067,-3.362 -11.066,-8.988 -11.458,-17.274Z" style="fill:#d5dadc;"/></svg>