<svg xmlns="http://www.w3.org/2000/svg" viewBox="0 0 48 48"><mask id="helm_svg__a" fill="#fff"><path fill-rule="evenodd" d="M0 0h313.303v159.865H0Z"/></mask><mask id="helm_svg__b" fill="#fff"><path fill-rule="evenodd" d="M0 0h313.303v159.865H0Z"/></mask><g fill="none" fill-rule="evenodd"><path fill="#0f1689" d="M3.249 18.887h2.714v3.675h3.28v-3.675h2.714V29.21H9.243v-3.936h-3.28v3.936H3.25ZM15.071 29.21V18.887h6.421v2.244h-3.706v1.679h3.28v2.285h-3.28v1.9h3.706v2.215Zm9.397 0V18.887h2.715v7.598h3.72v2.725Zm10.638-10.323 4.216 3.826 4.203-3.826h1.226V29.21h-2.728v-5.299l-2.7 2.464-2.715-2.45v5.285h-2.729V18.887Z"/><g fill="#0f1689" mask="url(#helm_svg__a)" transform="matrix(.1372 0 0 -.1372 3.287 55.38)"><path d="M223.651 143.376c5.682 3.979 18.782-4.927 29.26-19.891 10.479-14.965 14.367-30.32 8.685-34.3-5.682-3.978-18.782 4.928-29.26 19.892-10.479 14.965-14.367 30.32-8.685 34.3zm-135.373 0c-5.682 3.979-18.783-4.927-29.26-19.891-10.479-14.965-14.367-30.32-8.685-34.3 5.682-3.978 18.782 4.928 29.26 19.892 10.478 14.965 14.366 30.32 8.685 34.3zm67.618-23.43c-6.937 0-12.56-14.81-12.56-33.077 0-18.268 5.623-33.078 12.56-33.078 6.936 0 12.559 14.81 12.559 33.078s-5.623 33.077-12.56 33.077z"/></g><path stroke="#0f1689" stroke-width="20" d="M251.467 173.1c-20.23-33.61-56.89-56.068-98.756-56.068-40.72 0-76.516 21.246-97.058 53.335m2.198 129.17c20.84 30.232 55.556 50.026 94.86 50.026 39.376 0 74.147-19.866 94.974-50.192" mask="url(#helm_svg__a)" transform="matrix(.1372 0 0 -.1372 3.287 55.38)"/><g fill="#0f1689" mask="url(#helm_svg__b)" transform="translate(3.287 -7.042) scale(.1372)"><path d="M223.651 140.917c5.682 3.978 18.782-4.927 29.26-19.892 10.479-14.964 14.367-30.32 8.685-34.299-5.682-3.978-18.782 4.927-29.26 19.892-10.479 14.964-14.367 30.32-8.685 34.299zm-135.373 0c-5.682 3.978-18.783-4.927-29.26-19.892-10.479-14.964-14.367-30.32-8.685-34.299 5.682-3.978 18.782 4.927 29.26 19.892 10.478 14.964 14.366 30.32 8.685 34.299zm67.618-23.43c-6.937 0-12.56-14.81-12.56-33.078s5.623-33.077 12.56-33.077c6.936 0 12.559 14.81 12.559 33.077 0 18.268-5.623 33.078-12.56 33.078z"/></g><path stroke="#0f1689" stroke-width="20" d="M251.467 170.64c-20.23-33.61-56.89-56.068-98.756-56.068-40.72 0-76.516 21.246-97.058 53.335m2.198 129.17c20.84 30.232 55.556 50.026 94.86 50.026 39.376 0 74.147-19.866 94.974-50.191" mask="url(#helm_svg__b)" transform="translate(3.287 -7.042) scale(.1372)"/></g></svg>