<svg xmlns="http://www.w3.org/2000/svg" width="48" height="48" data-name="Layer 1"><path d="m13.041 11.426-.176-.167c-1.23-1.181-2.18-2.547-2.755-4.161-.161-.452-.283-.913-.261-1.4.002-.045.002-.092.005-.138.044-.628.464-.945 1.078-.796a2.662 2.662 0 0 1 .558.214c.671.336 1.219.834 1.722 1.38a10.964 10.964 0 0 1 2.116 3.257.808.808 0 0 0 .038.084c.007.013.022.02.055.05a17.183 17.183 0 0 1 7.894-2.422c-.017-.085-.028-.15-.044-.214a10.96 10.96 0 0 1-.258-3.6 8.192 8.192 0 0 1 .433-2.122 3.052 3.052 0 0 1 .533-.99 1.528 1.528 0 0 1 .309-.275.685.685 0 0 1 .782-.006 1.684 1.684 0 0 1 .57.656 5.17 5.17 0 0 1 .512 1.43 10.962 10.962 0 0 1 .207 3.216 9.315 9.315 0 0 1-.34 1.94c.694.128 1.384.227 2.06.387a18.16 18.16 0 0 1 1.992.585 18.349 18.349 0 0 1 1.926.835c.619.308 1.207.676 1.824 1.027.02-.042.05-.093.069-.146a10.587 10.587 0 0 1 3.205-4.557 3.679 3.679 0 0 1 1.152-.67 1.68 1.68 0 0 1 .359-.083c.61-.07.866.314.911.773a2.918 2.918 0 0 1-.075 1.009 8.565 8.565 0 0 1-1.045 2.405c-.662 1.07-1.447 2.032-2.445 2.81-.03.023-.056.05-.106.096a17.322 17.322 0 0 1 2.591 3.01 1.068 1.068 0 0 1-.164.028c-1.032.002-2.065-.002-3.097.005a.39.39 0 0 1-.31-.165 14.408 14.408 0 0 0-8.59-4.536 13.968 13.968 0 0 0-2.951-.113 14.265 14.265 0 0 0-8.042 3.099 13.647 13.647 0 0 0-1.654 1.544.46.46 0 0 1-.377.17c-.986-.006-1.972-.003-2.958-.003h-.21c.06-.234.667-1.065 1.353-1.807.512-.554 1.054-1.079 1.605-1.639zM38.18 33.522a17.21 17.21 0 0 1-2.336 2.647l.181.15a10.554 10.554 0 0 1 3.282 4.692 3.373 3.373 0 0 1 .215 1.405 1.45 1.45 0 0 1-.073.36.702.702 0 0 1-.795.489 2.166 2.166 0 0 1-.659-.195 4.992 4.992 0 0 1-.895-.567 10.483 10.483 0 0 1-3.209-4.55c-.018-.051-.038-.1-.07-.184a18.966 18.966 0 0 1-2.437 1.365 17.701 17.701 0 0 1-2.6.948 18.275 18.275 0 0 1-2.758.525c.016.081.026.147.042.21a10.637 10.637 0 0 1 .29 3.55 7.873 7.873 0 0 1-.431 2.19 7.624 7.624 0 0 1-.406.853 1.305 1.305 0 0 1-.228.29c-.388.4-.85.403-1.228-.008a2.658 2.658 0 0 1-.381-.547c-.3-.563-.454-1.175-.564-1.799a11.387 11.387 0 0 1-.133-2.578 9.206 9.206 0 0 1 .281-1.87 2.41 2.41 0 0 0 .036-.157c.003-.013-.006-.029-.016-.072a17.16 17.16 0 0 1-7.89-2.435l-.107.238a10.764 10.764 0 0 1-3.01 4.036 3.718 3.718 0 0 1-1.174.678 1.178 1.178 0 0 1-.635.069.694.694 0 0 1-.527-.438c-.138-.334-.113-.68-.066-1.025a5.403 5.403 0 0 1 .42-1.388 10.961 10.961 0 0 1 2.583-3.68c.044-.042.09-.083.134-.126a.366.366 0 0 0 .036-.064 17.432 17.432 0 0 1-2.774-3.051c.096-.008.16-.018.224-.018 1.024 0 2.049.003 3.073-.004a.459.459 0 0 1 .361.158 14.318 14.318 0 0 0 3.84 2.815 13.636 13.636 0 0 0 4.842 1.44q6.887.668 11.848-4.176a.745.745 0 0 1 .584-.239c.955.012 1.91.005 2.866.005h.247zm-4.267-14.63c.271 0 .533.019.79-.005.292-.026.501.078.714.274 1.229 1.133 2.47 2.251 3.708 3.374.062.057.126.112.206.182.074-.064.144-.12.21-.181q1.914-1.742 3.825-3.487a.53.53 0 0 1 .41-.16c.313.012.627.003.958.003V29.16c-.168.049-2.424.059-2.693.006v-5.2l-.052-.024-2.654 2.42-2.675-2.41-.051.019c-.003.434-.001.867-.001 1.301v3.912h-2.673c-.05-.173-.073-9.711-.022-10.292zm-24.661.012h2.656c.054.17.064 10.033.01 10.282h-2.66c-.014-.653-.004-1.304-.006-1.955-.002-.645 0-1.29 0-1.953H5.96v3.873c-.201.06-2.469.065-2.694.012V18.905h2.683v3.624c.192.055 3.013.065 3.3.012l.003-.884v-.924zm5.84 10.278V18.934c.158-.051 5.997-.071 6.378-.02v2.184c-.085.006-.174.018-.262.018q-1.56.002-3.12.001H17.8v1.699h3.25v2.26h-3.22c-.055.193-.07 1.54-.026 1.914.083.005.17.016.259.016q1.56.002 3.12.001h.29v2.175zm9.423.004c-.049-.275-.04-10.095.01-10.281h2.646v7.577c.114.006.204.014.293.014q1.572.002 3.143.001h.283v2.689z" style="fill:#0f1689;stroke-width:1"/></svg>