<svg xmlns="http://www.w3.org/2000/svg" viewBox="0 0 48 48"><path fill="#430098" fill-rule="evenodd" d="M41.28 0a4.32 4.32 0 0 1 4.32 4.32v39.36A4.32 4.32 0 0 1 41.28 48H6.72a4.32 4.32 0 0 1-4.32-4.32V4.32A4.32 4.32 0 0 1 6.72 0zm0 2.4H6.72c-1.058 0-1.92.861-1.92 1.92v39.36c0 1.058.862 1.92 1.92 1.92h34.56c1.059 0 1.92-.862 1.92-1.92V4.32c0-1.059-.861-1.92-1.92-1.92zM13.8 31.2l5.4 4.8-5.4 4.8zm4.8-24v13.627c2.396-.78 5.746-1.627 9-1.627 2.967 0 4.743 1.167 5.71 2.145 1.979 2.001 2.087 4.527 2.09 5.005V40.8h-4.8V26.466c-.023-1.12-.563-2.466-3-2.466-4.662 0-9.866 2.24-10.37 2.462l-.04.017-3.39 1.536V7.2zm16.8 0c-.324 2.726-1.43 5.34-3.6 7.8H27c1.886-2.475 3.07-5.08 3.6-7.8z"/></svg>