<svg xmlns="http://www.w3.org/2000/svg" viewBox="0 0 48 48"><path fill-rule="nonzero" d="M45.164.108H2.837A2.837 2.837 0 0 0 0 2.944v42.112a2.837 2.837 0 0 0 2.837 2.837h42.327a2.837 2.837 0 0 0 2.837-2.837V2.944A2.837 2.837 0 0 0 45.164.108m-24.19 40.764a.74.74 0 0 1-.74.74H7.187a.74.74 0 0 1-.74-.74V6.971c0-.408.332-.742.74-.742h12.843c.408 0 .74.333.74.742v12.904s-.07 5.552.206 9.91v11.089zm20.376 0c0 .59-.654.942-1.144.62l-5.95-3.89a.74.74 0 0 0-.84.02l-5.216 3.77a.72.72 0 0 1-.69.09.75.75 0 0 1-.317-.61V14.548c.706-.135 1.49-.211 2.399-.211 4.453 0 11.76 2.52 11.76 9.623v16.914z"/></svg>
