<svg xmlns="http://www.w3.org/2000/svg" viewBox="0 0 48 48"><defs><style>.homarr_svg__cls-1{fill:#fa5252}</style></defs><path d="M15.874 9.629c2.7 0 4.897 2.197 4.897 4.897v6.266c.165-.056.337-.093.52-.093.552 0 1.037.274 1.336.692v-6.865a6.76 6.76 0 0 0-6.753-6.753 6.752 6.752 0 0 0-5.601 2.985c.523.337 1.022.708 1.497 1.104a4.895 4.895 0 0 1 4.104-2.233zM26.71 20.7c.182 0 .355.036.52.092v-6.266c0-2.7 2.196-4.897 4.896-4.897 1.718 0 3.23.89 4.104 2.233.475-.396.974-.767 1.497-1.104a6.75 6.75 0 0 0-5.6-2.985 6.761 6.761 0 0 0-6.754 6.753v6.865c.298-.417.783-.69 1.335-.69zM20.216 30.52a15.64 15.64 0 0 0-10.945 9.57l4.369.026 24.889.11.004-.005c-2.738-7.293-10.548-11.568-18.316-9.7zM21.292 24.725a1.643 1.643 0 1 0-.001 3.286 1.643 1.643 0 0 0 0-3.286zM26.71 28.012a1.643 1.643 0 1 0 0-3.286 1.643 1.643 0 0 0 0 3.286zM41.94 20.926l2.502-10.2-.004-.005a12.987 12.987 0 0 0-5.762 2.191c-.593.407-1.15.86-1.665 1.355a13.038 13.038 0 0 0-4.022 9.432 13.045 13.045 0 0 0 5.634 10.752l.87-3.543c4.494-1.337 7.889-5.223 8.507-9.983h-6.06zM12.512 31.396c1.57-2.16 2.5-4.822 2.5-7.697 0-3.706-1.545-7.051-4.023-9.432a13.077 13.077 0 0 0-1.665-1.355 13.01 13.01 0 0 0-5.762-2.19s-.004 0-.004.003l2.502 10.2H0c.617 4.761 4.013 8.648 8.506 9.984l.87 3.543a13.113 13.113 0 0 0 3.136-3.055z" class="homarr_svg__cls-1"/></svg>
