<?xml version="1.0" encoding="utf-8"?>
<!-- Generator: Adobe Illustrator 26.3.1, SVG Export Plug-In . SVG Version: 6.00 Build 0)  -->
<svg version="1.1" id="Laag_1" xmlns="http://www.w3.org/2000/svg" xmlns:xlink="http://www.w3.org/1999/xlink" x="0px" y="0px"
	 viewBox="0 0 48 48" style="enable-background:new 0 0 48 48;" xml:space="preserve">
<style type="text/css">
	
		.st0{fill-rule:evenodd;clip-rule:evenodd;fill:#808080;stroke:#000000;stroke-linecap:round;stroke-linejoin:round;stroke-miterlimit:4.1099;}
	
		.st1{fill-rule:evenodd;clip-rule:evenodd;fill:#DADADA;stroke:#000000;stroke-linecap:round;stroke-linejoin:round;stroke-miterlimit:4.1099;}
	.st2{fill:none;stroke:#000000;stroke-linecap:round;stroke-linejoin:round;stroke-miterlimit:4.1099;}
	.st3{fill-rule:evenodd;clip-rule:evenodd;fill:#5B7F67;}
	.st4{fill-rule:evenodd;clip-rule:evenodd;}
	.st5{fill:none;stroke:#000000;stroke-linecap:round;stroke-miterlimit:4.1099;}
</style>
<path class="st0" d="M44.4,12.3c1.3,1.3,2.2,2.9,3,4.5c0.2,0.5,0.2,1.1-0.1,1.6c-0.3,0.5-0.9,0.7-1.5,0.6l0,0"/>
<path class="st1" d="M23.7,1.4c-0.7,0-1.3,0.2-2,0.5C17.7,4.1,9.1,8.8,4.9,11c-0.7,0.4-1.3,1-1.7,1.7l20.9,11.2c0,0-1.3,2.2-2.5,4.2
	c-1,1.7-3.1,2.3-4.9,1.4L2.5,21.9v11.7c0,1.2,0.7,2.3,1.8,2.9c4,2.2,13.8,7.5,17.9,9.7c1.1,0.6,2.5,0.6,3.6,0
	c4-2.2,13.8-7.5,17.9-9.7c1.1-0.6,1.8-1.7,1.8-2.9V15.1c0-1.7-0.9-3.2-2.4-4c-4.2-2.3-12.8-6.9-16.9-9.1C25.4,1.5,24.5,1.3,23.7,1.4
	"/>
<path class="st0" d="M24.1,23.9V1.4c-0.7,0-1.7,0.1-2.3,0.5C17.7,4.1,9.1,8.8,4.9,11c-0.7,0.4-1.3,1-1.7,1.7L24.1,23.9L24.1,23.9z"
	/>
<path class="st1" d="M2.9,13.2l-2,3.8c-0.9,1.8-0.2,4,1.5,4.9l0,0 M2.5,21.9l14.3,7.5c1.7,0.9,3.9,0.3,4.9-1.4
	c1.2-2,2.5-4.2,2.5-4.2L3.2,12.7l0,0l-0.2,0.5"/>
<path class="st2" d="M23.9,1.5v21.9"/>
<path class="st3" d="M42.5,20.5c0-0.2-0.1-0.4-0.3-0.5c-0.2-0.1-0.4-0.1-0.6,0l-12.9,7.4c-0.2,0.1-0.3,0.3-0.3,0.5v8.2
	c0,0.2,0.1,0.4,0.3,0.5c0.2,0.1,0.4,0.1,0.6,0l12.9-7.4c0.2-0.1,0.3-0.3,0.3-0.5V20.5L42.5,20.5z"/>
<path class="st4" d="M42.5,20.5c0-0.2-0.1-0.4-0.3-0.5c-0.2-0.1-0.4-0.1-0.6,0l-12.9,7.4c-0.2,0.1-0.3,0.3-0.3,0.5v8.2
	c0,0.2,0.1,0.4,0.3,0.5c0.2,0.1,0.4,0.1,0.6,0l12.9-7.4c0.2-0.1,0.3-0.3,0.3-0.5V20.5L42.5,20.5z M29.3,28.1v7.3l12.2-7v-7.3
	L29.3,28.1z"/>
<path class="st5" d="M23.9,46.5V23.9"/>
<path class="st5" d="M24.1,24l20.2-11.6"/>
</svg>
