<svg xmlns="http://www.w3.org/2000/svg" stroke-linejoin="round" viewBox="0 0 48 48"><g fill="#d1d3d4" stroke="#000" stroke-width=".858"><path d="M21.232 8.75c.132-4.204-1.284-6.684-5.357-8.321-1.157 4.049 3.622 7.782 5.357 8.322z"/><path d="M32.275 15.877c.133-3.453-.74-4.846-1.394-5.843-.664-.93-2.257-2.39-4.215-2.452-1.852-.058-2.297.966-4.005 1.027-.28-3.11 2.067-4.817 2.067-4.817s-.641-.907-1.172-1.128c-.764.678-2.866 2.942-2.38 5.856-1.572-.3-2.681-1.2-4.332-.876-2.249.443-4.103 1.803-5.16 4.787-1.056 2.984.373 6.465.684 7.46.311.994 2.611 5.22 4.414 5.843 1.802.622 1.803.342 2.766-.031.964-.373 2.425-1.057 4.57-.28 2.144.777 2.424.963 3.76.093 1.337-.87 3.077-3.574 3.48-4.351.405-.777.623-1.181.747-1.585 1.3-.648.051-.608.17-3.703z"/></g><path fill="#fff" stroke="#000" stroke-width=".858" d="M35.765 41.113a3.223 3.223 0 0 0 3.234-3.222V26.283a3.223 3.223 0 0 0-3.222-3.223H33.12a.716.716 0 0 1-.716-.716v-1.688H11.45l.053 24.745c0 .244.125.471.33.602.934.54 3.926 1.567 10.207 1.567 6.414 0 9.281-1.374 10.102-1.994a.712.712 0 0 0 .258-.549c.003-.685.003-2.271.003-3.209a.716.716 0 0 1 .73-.716c.789.011 1.733.013 2.63.01zm-3.361-14.289a.896.896 0 0 1 .895-.895h2.28a.896.896 0 0 1 .896.895v10.418a.896.896 0 0 1-.895.895H33.3a.896.896 0 0 1-.896-.895z"/><path fill="#fbb040" d="M13.517 20.448v22.2c0 .255.137.492.358.62.907.432 3.535 1.462 8.144 1.462 4.64 0 7.19-1.252 8.044-1.768a.714.714 0 0 0 .327-.6c.002-2.944.002-21.913.002-21.913z"/><path fill="none" stroke="#ffdb96" stroke-linecap="round" stroke-linejoin="miter" stroke-width="11.96" d="M35.521.249v112.82" transform="matrix(.17904 0 0 .15206 9.638 24.17)"/><path fill="#fff" stroke="#000" stroke-linecap="round" stroke-width=".858" d="M25.531 25.003c0-.358-.21-.786-.556-1a2.996 2.996 0 0 1-1.243-1.486c-4.582.154-8.764-.65-10.87-1.219-.542-.153-1.09-.28-1.643-.381A2.751 2.751 0 0 1 9 18.227a2.711 2.711 0 0 1 2.616-2.707 3.318 3.318 0 1 1 6.394 1.693l.01.002a3.177 3.177 0 0 1 6.04-.023 3.453 3.453 0 0 1 6.727-1.391l.302-.079a2.712 2.712 0 1 1 1.702 5.05 4 4 0 0 0-.876.228c-.787.296-1.59.542-2.403.745-.04.4-.16.777-.341 1.115a3.71 3.71 0 0 0-.427 2.016l.002.306c0 .887-.72 1.427-1.607 1.427a1.606 1.606 0 0 1-1.607-1.606z"/></svg>