<svg xmlns="http://www.w3.org/2000/svg" viewBox="0 0 48 48"><defs><radialGradient id="homebridge-color-round_svg__b" cx="500" cy="500" r="500" gradientUnits="userSpaceOnUse"><stop offset="0" stop-opacity="0"/><stop offset="1" stop-opacity=".1"/></radialGradient><linearGradient id="homebridge-color-round_svg__a" x1="500" x2="500" y2="1000" gradientUnits="userSpaceOnUse"><stop offset="0" stop-color="#57277c"/><stop offset="1" stop-color="#491f59"/></linearGradient></defs><g style="isolation:isolate" transform="scale(.048)"><circle cx="500" cy="500" r="500" style="fill:url(#homebridge-color-round_svg__a)"/><circle cx="500" cy="500" r="500" style="fill:url(#homebridge-color-round_svg__b)"/><path d="M839.05 449.21h-.52l-61.12-61.11a11.76 11.76 0 0 1-3.47-8.33v-141a54.15 54.15 0 0 0-54.08-54.08h-38.17a54.16 54.16 0 0 0-54.11 54.08v.81l-90.23-87.39a54.38 54.38 0 0 0-75.91.63L155.87 458.41a54 54 0 0 0-.08 76.44l.08.09L185 563.88a54.22 54.22 0 0 0 76.22.31L496 332.76a11.85 11.85 0 0 1 16.67 0l230.11 230.12a11.87 11.87 0 0 1 0 16.67l-28.28 28.28a11.87 11.87 0 0 1-16.67 0L536.27 451.27a54.29 54.29 0 0 0-76.06.66l-155 155.84a54.21 54.21 0 0 0 0 76.42l28.7 28.69a54.19 54.19 0 0 0 76.28.2l83.58-82.59a11.87 11.87 0 0 1 16.67 0l83.11 81.7a11.67 11.67 0 0 1 3.53 8.33 11.85 11.85 0 0 1-3.47 8.34l-82.31 82.55c-.36 0-.67-.22-1.06-.22a30.86 30.86 0 1 0 30.87 30.86v-.52l82.69-82.67a54.11 54.11 0 0 0 0-76.53l-.31-.31-83.11-81.67a54.26 54.26 0 0 0-76 0l-83.86 82.7a11.81 11.81 0 0 1-16.67 0l-28.64-28.72a11.87 11.87 0 0 1 0-16.67l155.14-155.84a11.81 11.81 0 0 1 16.67-.16L668.55 638.6a54.36 54.36 0 0 0 76-.55l28.3-28.31a54.16 54.16 0 0 0 0-76.5L542.6 303a54.25 54.25 0 0 0-76.25-.33L231.51 534.05a11.91 11.91 0 0 1-16.66 0l-29-29.06a11.81 11.81 0 0 1 0-16.67l305.59-305.56a11.83 11.83 0 0 1 16.66-.14l161.95 156.73V238.79A11.85 11.85 0 0 1 681.86 227H720a11.87 11.87 0 0 1 11.84 11.81V380a54.62 54.62 0 0 0 15.83 38.25l60.81 60.81c0 .38-.22.69-.22 1.05a30.86 30.86 0 1 0 30.83-30.89z" style="fill:#fff"/></g></svg>