<svg xmlns="http://www.w3.org/2000/svg" xml:space="preserve" fill-rule="evenodd" stroke-linecap="round" stroke-linejoin="round" stroke-miterlimit="5.427" clip-rule="evenodd" viewBox="0 0 48 48"><g stroke="#000"><path fill="gray" stroke-width="1.088" d="M44.323 12.332c1.293 1.317 2.213 2.846 2.98 4.456a1.575 1.575 0 0 1-1.627 2.237s0 0 0 0"/><g stroke-width="1.088"><path fill="#dadada" d="M23.715 1.397a4.574 4.574 0 0 0-1.956.547L4.924 11.056a4.567 4.567 0 0 0-1.734 1.65l20.896 11.191-2.481 4.15a3.662 3.662 0 0 1-4.847 1.36L2.525 21.925v11.682c0 1.193.68 2.295 1.781 2.892l17.85 9.662a3.768 3.768 0 0 0 3.562 0l17.851-9.662c1.102-.597 1.78-1.699 1.78-2.892V15.081c0-1.68-.92-3.225-2.397-4.025L26.117 1.944a4.575 4.575 0 0 0-2.402-.547"/><path fill="gray" d="M24.085 23.897V1.49c-.675.033-1.714.122-2.326.454L4.923 11.056a4.567 4.567 0 0 0-1.733 1.65l20.895 11.19z"/><path fill="#dadada" d="M2.93 13.202.957 16.976A3.662 3.662 0 0 0 2.5 21.91l.025.014 14.233 7.483a3.661 3.661 0 0 0 4.846-1.362l2.481-4.149L3.19 12.707l-.011.018-.25.477"/></g><path fill="none" stroke-width=".809" d="M23.937 1.576v21.88"/></g><path fill="#567f67" d="M42.431 20.46a.615.615 0 0 0-.922-.532l-12.864 7.428a.615.615 0 0 0-.307.532v8.155a.615.615 0 0 0 .922.532l12.864-7.427a.615.615 0 0 0 .307-.533v-8.154z"/><path d="M42.431 20.46a.615.615 0 0 0-.922-.532l-12.864 7.428a.615.615 0 0 0-.307.532v8.155a.615.615 0 0 0 .922.532l12.864-7.427a.615.615 0 0 0 .307-.533v-8.154zM29.316 28.1v7.313l12.137-7.007v-7.313z"/><path fill="none" stroke="#000" stroke-linejoin="miter" stroke-width="1.088" d="M23.937 46.502V23.944M24.085 24l20.19-11.538"/></svg>