<svg xmlns="http://www.w3.org/2000/svg" viewBox="0 0 48 48"><g fill-rule="evenodd"><path fill="#41bdf5" d="M0 0h48v48H0z"/><path fill="#fff" d="M23.988 6.72a1.116 1.116 0 0 0-.79.334L5.252 25.257a.896.896 0 0 0 .638 1.525h3.33v12.791c0 .412.334.747.746.747H38.02a.747.747 0 0 0 .747-.747V26.782h3.345a.896.896 0 0 0 .64-1.522l-3.985-4.075V14.76a.747.747 0 0 0-.747-.746h-3.11a.747.747 0 0 0-.747.746v1.75l-9.37-9.459-.01-.009a1.117 1.117 0 0 0-.794-.322zm.006 7.774a3.842 3.842 0 0 1 1.44 7.401l-.001 8.515 2.798-2.8a3.839 3.839 0 0 1 3.534-5.34 3.84 3.84 0 0 1 3.837 3.84 3.839 3.839 0 0 1-5.336 3.537l-4.833 4.836v5.836h-2.878v-5.836l-4.833-4.836a3.839 3.839 0 0 1-5.336-3.536 3.839 3.839 0 1 1 7.371 1.5l2.798 2.8v-8.516a3.841 3.841 0 0 1 1.439-7.401zm0 2.304a1.535 1.535 0 1 0 0 3.07 1.535 1.535 0 0 0 0-3.07zm-7.77 7.776a1.535 1.535 0 1 0 0 3.071 1.535 1.535 0 0 0 0-3.07zm15.54 0a1.535 1.535 0 1 0 .002 3.071 1.535 1.535 0 0 0-.001-3.07z"/></g></svg>