<svg xmlns="http://www.w3.org/2000/svg" viewBox="0 0 48 48"><g fill-rule="evenodd"><path fill="#41bdf5" d="M0 0h48v48H0z"/><path fill="#fff" d="M23.987 6.721a1.117 1.117 0 0 0-.79.335L5.244 25.316a.894.894 0 0 0-.252.584v.087a.894.894 0 0 0 .891.853H9.22v12.83c0 .412.334.746.746.746H38.02a.747.747 0 0 0 .747-.746V26.84h3.35a.89.89 0 0 0 .892-.846l-.001-.088a.889.889 0 0 0-.25-.587l-3.991-4.092v-6.445a.747.747 0 0 0-.747-.747h-3.11a.747.747 0 0 0-.747.747v1.757l-9.37-9.485-.011-.011a1.116 1.116 0 0 0-.795-.322zm-3.063 9.143a1.442 1.442 0 0 1 1.299 2.067l1.77 1.777 1.772-1.777c-.09-.189-.14-.4-.14-.623 0-.797.644-1.444 1.438-1.444.795 0 1.44.647 1.44 1.444a1.442 1.442 0 0 1-2.06 1.304l-1.97 1.976v14.14l2.398-2.408v-2.867a1.445 1.445 0 0 1-.959-1.362 1.44 1.44 0 1 1 2.878 0c0 .629-.4 1.164-.96 1.362v1.905l2.591-2.6V26.75l-2.066-2.073a1.442 1.442 0 0 1-2.06-1.303c0-.798.645-1.445 1.44-1.445a1.441 1.441 0 0 1 1.298 2.067l1.388 1.392v-4.407a1.445 1.445 0 0 1-.96-1.362c0-.798.645-1.445 1.44-1.445a1.446 1.446 0 0 1 .479 2.807v4.407l1.387-1.392a1.442 1.442 0 0 1 1.299-2.067c.795 0 1.439.647 1.439 1.445a1.441 1.441 0 0 1-2.06 1.303L31.38 26.75v2.407l-2.871 2.881h4.008a1.44 1.44 0 0 1 1.357-.962c.795 0 1.44.646 1.44 1.444s-.645 1.444-1.44 1.444a1.44 1.44 0 0 1-1.357-.963H27.55l-3.077 3.088v3.163l2.583-2.592h2.967a1.44 1.44 0 0 1 1.357-.963c.795 0 1.439.647 1.439 1.444s-.644 1.444-1.439 1.444a1.44 1.44 0 0 1-1.357-.962h-2.57l-2.781 2.792h-1.357l-2.686-2.696h-2.666a1.44 1.44 0 0 1-1.357.963 1.441 1.441 0 0 1-1.439-1.444 1.44 1.44 0 0 1 2.796-.482h1.706l-3.21-3.222a1.441 1.441 0 0 1-2.06-1.303c0-.798.645-1.444 1.44-1.444a1.441 1.441 0 0 1 1.299 2.067l3.21 3.221v-1.808a1.444 1.444 0 0 1-.96-1.362c0-.798.645-1.444 1.44-1.444a1.44 1.44 0 0 1 1.438 1.444c0 .629-.4 1.164-.959 1.362v2.771l2.206 2.214v-7.207l-4.131-4.147h-2.666a1.44 1.44 0 0 1-1.357.963 1.441 1.441 0 0 1-1.439-1.444 1.439 1.439 0 0 1 2.796-.481h1.706l-2.967-2.978v-3.074a1.445 1.445 0 0 1-.96-1.362c0-.797.645-1.444 1.44-1.444a1.445 1.445 0 0 1 .48 2.806v2.675l2.685 2.696v-1.809a1.444 1.444 0 0 1-.959-1.362c0-.797.644-1.444 1.439-1.444s1.44.647 1.44 1.444c0 .63-.401 1.164-.96 1.362v2.771l3.453 3.467V20.588l-1.97-1.977a1.441 1.441 0 0 1-2.06-1.303 1.443 1.443 0 0 1 1.44-1.444zm0 .867a.577.577 0 1 0 .002 1.153.577.577 0 0 0-.002-1.153zm6.14 0a.577.577 0 1 0 .002 1.153.577.577 0 0 0-.003-1.153zm-11.129 2.214a.577.577 0 1 0 .002 1.153.577.577 0 0 0-.002-1.153zm14.966.096a.577.577 0 1 0 .002 1.154.577.577 0 0 0-.002-1.154zm-11.32 3.466a.577.577 0 1 0 .001 1.153.577.577 0 0 0-.002-1.153zm8.154.289a.577.577 0 1 0 .002 1.153.577.577 0 0 0-.002-1.153zm6.331 0a.577.577 0 1 0 .002 1.153.577.577 0 0 0-.002-1.153zM15.36 26.84a.577.577 0 1 0 .002 1.153.577.577 0 0 0-.002-1.153zm11.99.673a.577.577 0 1 0 .003 1.154.577.577 0 0 0-.002-1.154zm-11.511 4.14a.577.577 0 1 0 .002 1.154.577.577 0 0 0-.002-1.154zm18.035.29a.577.577 0 1 0 .002 1.153.577.577 0 0 0-.002-1.154zm-13.046.384a.577.577 0 1 0 .002 1.154.577.577 0 0 0-.002-1.154zm10.552 4.237a.577.577 0 1 0 .002 1.153.577.577 0 0 0-.002-1.153zm-14.773.096a.577.577 0 1 0 .002 1.153.577.577 0 0 0-.002-1.153z"/></g></svg>