<svg xmlns="http://www.w3.org/2000/svg" viewBox="0 0 48 48"><g data-name="Layer 2"><path fill="#fff" d="M24 48c-.24 0-.477 0-.714-.012l4.905-13.48h6.75c1.185 0 2.485-.91 2.889-2.023l5.32-14.616c.87-2.392-.5-4.35-3.046-4.35h-9.362L22.889 35.11l-4.461 12.237C7.86 44.835 0 35.333 0 24 0 12.99 7.413 3.713 17.52.889l-4.596 12.633L5.282 34.51h5.087l6.497-17.836h3.823L14.19 34.51h5.084l6.058-16.641c.871-2.392-.5-4.35-3.043-4.35h-4.278L22.921.026Q23.458 0 24 0c13.254 0 24 10.745 24 24S37.254 48 24 48zm14.52-31.34H34.7l-5.353 14.684h3.823z" data-name="Layer 1"/></g></svg>