<svg xmlns="http://www.w3.org/2000/svg" viewBox="0 0 48 48"><path fill="#e34f26" d="M6.703 43.125 2.86 0h42.282l-3.844 43.125L23.953 48"/><path fill="#ef652a" d="m24.047 44.25 13.969-3.844 3.28-36.937h-17.25"/><path fill="#ebebeb" d="M24.047 19.5h-7.031l-.47-5.438h7.5v-5.25H10.735l.094 1.407 1.313 14.625h11.906zm0 13.781h-.094l-5.906-1.593-.375-4.22h-5.25l.656 8.345 10.875 3h.094z"/><path fill="#fff" d="M23.953 19.5v5.344h6.563l-.657 6.843-5.906 1.594v5.532l10.875-3 .094-.938 1.219-13.969.187-1.406h-1.5zm0-10.688v5.25h12.844l.094-1.124.28-2.72.095-1.405z"/></svg>