<svg xmlns="http://www.w3.org/2000/svg" viewBox="0 0 48 48"><path fill="#ff9d00" d="M47.463 38.134a3.2 3.2 0 0 0 .432-2.586 2.9 2.9 0 0 0-.974-1.533c.224-.368.37-.779.432-1.206.134-.929-.174-1.856-.868-2.612-.54-.589-1.303-.913-2.149-.913q-.147 0-.3.016c.64-2.048.965-4.182.963-6.327C45 11.3 35.536 1.837 23.864 1.837c-11.674 0-21.137 9.462-21.137 21.136-.003 2.14.32 4.268.958 6.311h-.023c-.845 0-1.608.324-2.148.912C.82 30.952.51 31.88.646 32.81c.061.427.208.837.432 1.206a2.9 2.9 0 0 0-.974 1.532 3.2 3.2 0 0 0 .432 2.587q-.066.104-.124.215a2.85 2.85 0 0 0-.076 2.524c.56 1.265 1.948 2.261 4.646 3.33 1.678.666 3.214 1.091 3.228 1.095 2.218.576 4.225.868 5.962.868 2.853 0 4.981-.78 6.34-2.322 2.3.365 4.645.352 6.94-.04 1.358 1.568 3.498 2.362 6.375 2.362 1.737 0 3.744-.292 5.963-.868.013-.004 1.55-.429 3.227-1.094 2.698-1.07 4.087-2.066 4.646-3.331a2.85 2.85 0 0 0-.2-2.739m-27.924 3.297a9 9 0 0 1-.375.598 3.8 3.8 0 0 1-1.35 1.2c-1.026.56-2.324.755-3.642.755-2.083 0-4.219-.488-5.415-.798-.06-.015-7.337-2.071-6.416-3.82.155-.295.41-.413.732-.413 1.297 0 3.66 1.932 4.675 1.932.226 0 .386-.096.452-.332.432-1.552-6.576-2.204-5.986-4.45.104-.398.387-.56.784-.56 1.715 0 5.565 3.016 6.37 3.016q.093 0 .13-.056l.01-.017c.378-.624.161-1.078-2.428-2.664l-.248-.15c-2.85-1.725-4.849-2.763-3.712-4 .131-.144.317-.207.542-.207.267 0 .59.09.947.24 1.504.634 3.59 2.364 4.46 3.119l.41.36s1.102 1.147 1.769 1.147c.154 0 .284-.06.372-.21.473-.797-4.392-4.484-4.667-6.005-.186-1.031.13-1.553.716-1.553.278 0 .618.118.993.356 1.163.738 3.408 4.597 4.23 6.098.276.503.746.715 1.17.715.841 0 1.499-.836.077-1.898-2.136-1.599-1.386-4.212-.367-4.373a1 1 0 0 1 .132-.01c.927 0 1.336 1.598 1.336 1.598s1.199 3.01 3.258 5.069c1.87 1.868 2.13 3.4 1.041 5.313m6.66.352-.107.013-.182.02-.288.03-.094.008-.085.007-.122.01-.134.01-.134.008-.03.002-.106.006-.044.003-.125.006-.146.006-.131.004-.089.003h-.044l-.083.002h-.125l-.112.002h-.157q-.184 0-.367-.003l-.1-.003q-.041 0-.083-.002l-.105-.003-.13-.005-.118-.005-.03-.001-.112-.006-.093-.006-.073-.004-.272-.019-.095-.008-.12-.01-.14-.013-.235-.024h-.004c1.143-2.55.565-4.93-1.744-7.239-1.515-1.512-2.523-3.746-2.732-4.237-.423-1.452-1.543-3.066-3.403-3.066q-.237 0-.47.038c-.815.128-1.527.597-2.035 1.303-.55-.683-1.083-1.226-1.566-1.533-.728-.462-1.454-.696-2.161-.696-.884 0-1.673.363-2.223 1.02l-.014.018-.03-.13-.002-.006q-.157-.672-.264-1.354l-.001-.009-.016-.103q-.023-.152-.043-.305l-.019-.139-.017-.139-.015-.132-.001-.01q-.03-.271-.053-.542l-.005-.069-.009-.118-.007-.097-.001-.023q-.01-.135-.016-.272l-.007-.142-.005-.124-.002-.037-.004-.114-.002-.098q0-.058-.003-.116l-.002-.122v-.123q-.002-.06 0-.122c0-10.468 8.485-18.954 18.954-18.954 10.468 0 18.954 8.486 18.954 18.954v.245l-.002.122q0 .05-.003.101 0 .045-.002.09l-.003.114v.003l-.006.133-.005.117-.001.027-.007.124q-.023.398-.06.797v.003l-.013.13-.012.103-.022.201-.013.102-.015.12-.018.13-.021.146-.018.115-.02.13-.023.13-.022.129a15 15 0 0 1-.125.642l-.027.127-.029.127a2.85 2.85 0 0 0-2.019-.801c-.707 0-1.434.234-2.161.695-.483.307-1.016.85-1.566 1.533-.509-.706-1.221-1.175-2.035-1.303a3 3 0 0 0-.47-.037c-1.86 0-2.98 1.614-3.403 3.065-.21.49-1.218 2.725-2.734 4.24-2.309 2.3-2.89 4.671-1.766 7.21m19.568-5.104-.007.022a1.4 1.4 0 0 1-.127.25 2 2 0 0 1-.137.177l-.036.039-.055.056c-.336.334-.85.627-1.43.895l-.2.09-.067.03-.136.058q-.068.03-.138.058l-.14.057c-.326.135-.66.263-.987.39l-.14.053-.137.054-.271.108-.133.053-.13.053-.065.027-.126.054c-.96.412-1.65.83-1.505 1.35a.5.5 0 0 0 .111.209c.17.177.481.15.873.008q.083-.03.164-.063l.034-.014q.136-.057.28-.126.038-.017.074-.036c.479-.234 1.021-.549 1.56-.836q.323-.174.654-.331c.51-.24.99-.41 1.374-.41.181 0 .34.037.474.122l.022.015a.7.7 0 0 1 .236.274c.19.362.03.736-.342 1.103-.358.352-.915.698-1.547 1.017l-.142.071c-1.884.925-4.35 1.621-4.384 1.63-.657.17-1.597.394-2.656.561l-.157.025-.025.004a17 17 0 0 1-.722.095l-.023.002q-.668.077-1.34.102h-.007q-.242.008-.485.008h-.187a12 12 0 0 1-.74-.033q-.009 0-.018-.002a8 8 0 0 1-.538-.057 6 6 0 0 1-.36-.057l-.082-.016-.006-.001a7 7 0 0 1-.26-.055q-.076-.016-.148-.036l-.03-.007-.073-.02-.013-.003-.077-.022-.084-.025-.01-.002-.073-.023-.082-.026-.067-.022-.05-.018-.14-.052-.045-.017-.037-.015a6 6 0 0 1-.211-.09l-.047-.022-.007-.003-.05-.023-.096-.047-.01-.005-.045-.024a4 4 0 0 1-.24-.137l-.044-.026-.064-.041-.056-.037-.06-.042-.036-.026-.112-.084-.058-.044-.07-.057-.056-.05h-.001a3 3 0 0 1-.118-.108l-.003-.002-.058-.058-.058-.06-.057-.06-.053-.06-.005-.006-.05-.06a3 3 0 0 1-.204-.27l-.03-.045a6 6 0 0 1-.205-.316l-.052-.085-.007-.012-.048-.081-.025-.045q-.013-.023-.027-.047l-.014-.025-.009-.016-.049-.09-.022-.04-.023-.044-.022-.043a7 7 0 0 1-.16-.342l-.018-.042-.033-.084-.016-.04a4 4 0 0 1-.194-.66l-.008-.041a3 3 0 0 1-.037-.242l-.004-.04a3 3 0 0 1-.012-.16l-.002-.04-.002-.08c-.014-1.068.527-2.095 1.683-3.251 2.06-2.058 3.259-5.068 3.259-5.068s.032-.127.099-.309l.03-.078q.058-.153.132-.3l.01-.018q.061-.124.136-.243l.035-.055a3 3 0 0 1 .187-.24l.03-.031c.119-.124.255-.224.41-.278l.019-.006.085-.023.008-.001a1 1 0 0 1 .098-.013h.003l.053-.002a.6.6 0 0 1 .132.01c.185.03.362.14.514.31q.087.099.155.21.045.072.085.152l.031.065q.04.084.07.173.074.206.11.423a3 3 0 0 1 .038.589c-.014.325-.08.645-.197.948q-.016.042-.034.084a2 2 0 0 1-.14.29l-.046.083q-.06.103-.13.204l-.03.04q-.166.233-.367.433a4 4 0 0 1-.425.368 3.5 3.5 0 0 0-.423.369c-.376.394-.463.743-.379 1.006a.7.7 0 0 0 .143.24l.013.014.013.014.043.038.015.012a1 1 0 0 0 .115.075l.036.018q.065.033.134.055l.039.012.016.004.022.006.02.005.02.004.021.004.02.004.045.006.014.003.026.002.016.002.026.002h.016l.027.001h.087l.025-.001.028-.002.035-.003.032-.004q.012 0 .023-.004.15-.02.292-.079l.04-.016.065-.031a1.2 1.2 0 0 0 .29-.2l.035-.034.016-.017.034-.034a1.5 1.5 0 0 0 .206-.29q.735-1.335 1.538-2.629l.074-.118.074-.118.112-.177.038-.058q.186-.293.38-.581l.076-.114q.23-.342.457-.657l.075-.104q.247-.341.514-.666l.07-.084.035-.042.07-.08.034-.04.067-.075.034-.037.099-.104.065-.066q.19-.195.417-.346l.035-.023q.051-.033.104-.062c.591-.336 1.08-.36 1.363-.079.17.17.265.454.26.847q0 .026-.002.053v.02l-.003.053q0 .034-.005.068l-.005.059-.002.017-.007.053q0 .007-.002.016a1 1 0 0 1-.02.137l-.007.037q-.01.052-.025.105a2 2 0 0 1-.07.19 3 3 0 0 1-.21.378 6 6 0 0 1-.336.468l-.039.05q-.208.258-.43.508l-.047.053-.193.212-.049.053-.1.108-.101.108-.103.108-.105.11-.105.108-.212.22c-1.014 1.04-2.083 2.076-2.444 2.723a1 1 0 0 0-.066.13.54.54 0 0 0-.058.299.2.2 0 0 0 .028.076.5.5 0 0 0 .115.132c.075.053.165.08.256.078h.029l.029-.002.03-.003.023-.004q.006 0 .01-.002l.023-.004.006-.001.024-.006.009-.002.026-.007.031-.01a1.3 1.3 0 0 0 .228-.091l.034-.017q.12-.062.234-.135l.033-.023.033-.022.034-.022.017-.012.048-.034q.067-.046.13-.095l.003-.003.067-.052q.139-.11.258-.214l.053-.046.004-.005.028-.024.17-.157.02-.019.047-.044.028-.028.01-.01.032-.032.018-.02h.002l.01-.009.01-.01.004-.003.009-.009.05-.044.03-.026.044-.04.034-.03.019-.017.036-.03.052-.047.028-.024q.164-.144.393-.338l.062-.053.103-.086.106-.088q.206-.172.442-.361l.103-.083.38-.298q.14-.109.28-.215.324-.244.66-.483l.097-.067.201-.138.06-.04q.18-.123.365-.238l.06-.039.06-.037q.091-.057.181-.11l.06-.036.12-.07.117-.067.024-.013.092-.05.116-.062.057-.03.056-.027.058-.029a5 5 0 0 1 .489-.211l.102-.036.09-.029.01-.003.046-.013.005-.002q.047-.014.095-.024h.002a2 2 0 0 1 .27-.046 1 1 0 0 1 .125-.006h.02q.043 0 .083.004.018.001.036.004h.005l.036.006.035.007h.004l.035.01a.65.65 0 0 1 .255.14l.007.007.013.012.012.014q.151.159.246.357l.01.023q.032.075.05.154a.83.83 0 0 1-.04.484 1 1 0 0 1-.084.18q-.117.196-.275.362l-.023.024q-.049.052-.104.105l-.05.047-.05.047-.027.024a5 5 0 0 1-.322.265 11 11 0 0 1-.725.51q-.345.226-.697.44c-.492.303-1.038.627-1.619.979l-.15.091q-.247.15-.468.288l-.073.047-.14.09-.277.178-.074.049-.109.071-.035.023-.108.073-.057.039-.067.046-.062.044q-.157.111-.291.21l-.034.026a7 7 0 0 0-.366.3l-.031.029-.052.049-.035.033-.016.016q-.053.054-.104.11l-.017.02a2 2 0 0 0-.097.122l-.012.018a1 1 0 0 0-.06.1l-.014.025-.012.025-.008.019-.006.012-.004.011-.006.016a.6.6 0 0 0-.032.13l-.002.016-.002.015v.078q0 .01.002.02l.001.012q0 .01.003.02.001.012.005.028l.005.027.008.028q.006.026.017.052.005.016.012.031l.002.007.01.02.012.028q.02.042.044.084l.016.028.017.029.01.013.006.006.006.006.007.005a.1.1 0 0 0 .048.02c.144.033.441-.086.835-.294l.07-.038.12-.065.06-.033q.062-.034.127-.072l.08-.045c.52-.3 1.143-.685 1.786-1.061l.181-.105.122-.078q.211-.12.425-.24.27-.147.542-.287l.12-.06q.118-.06.234-.114.224-.108.454-.203l.084-.034.01-.004c.443-.176.846-.284 1.171-.284q.106-.001.21.017h.003l.063.014h.004a.656.656 0 0 1 .483.456l.022.072c.053.189.048.39-.015.576"/><path fill="#ffd21e" fill-rule="evenodd" d="M42.819 23.093v-.123c0-10.467-8.483-18.953-18.952-18.953-10.468 0-18.954 8.486-18.954 18.953v.123q.002.061.001.122l.001.09.001.033.001.044.001.072.003.097.004.115.001.037.005.118v.006l.007.138v.004l.009.141q.002.066.008.131v.008l.008.112v.01l.009.108v.007l.005.062q.023.27.053.54l.001.012.015.132.017.139.013.094.006.045q.02.152.043.305v.007l.016.096q.107.686.265 1.363v.005l.009.034.023.096.014-.016c.55-.658 1.34-1.02 2.222-1.02.708 0 1.434.233 2.162.695.483.306 1.016.85 1.566 1.532.508-.706 1.22-1.175 2.035-1.303q.233-.037.47-.037c1.86 0 2.98 1.614 3.403 3.066.209.49 1.216 2.724 2.736 4.235 2.31 2.308 2.888 4.69 1.745 7.24h.004l.235.023q.07.008.14.013l.016.002.104.008.095.008.272.02.072.003.058.004.035.002.112.006h.03l.118.006.13.005.105.003h.018q.033.003.066.002l.024.001q.222.005.443.005h.156l.112-.001.083-.001h.043l.038-.001.045-.001h.044l.088-.003.132-.004.145-.007.125-.005.045-.003.067-.004.039-.002.03-.002.134-.009.134-.01.121-.01.086-.006.094-.009q.236-.02.47-.05l.107-.012c-1.125-2.539-.543-4.91 1.757-7.208 1.517-1.515 2.524-3.75 2.735-4.24.423-1.452 1.542-3.066 3.403-3.066q.236 0 .47.038c.814.128 1.526.597 2.035 1.303.55-.683 1.083-1.227 1.566-1.533.727-.462 1.454-.696 2.161-.696.78 0 1.486.283 2.02.801l.028-.127.027-.126.029-.139.049-.246.047-.258.008-.046.014-.083q.013-.064.023-.13l.002-.016.018-.113.018-.115v-.001l.036-.254.002-.021.016-.12.013-.102.022-.201.01-.08.001-.023.014-.13v-.004l.01-.104q.026-.295.044-.594l.006-.098v-.002l.007-.122.001-.028q.006-.125.01-.249v-.003l.002-.032.002-.083v-.01l.002-.08.001-.022.002-.078v-.023l.002-.1zM19.166 42.027c1.501-2.201 1.395-3.853-.665-5.911-2.06-2.059-3.258-5.07-3.258-5.07s-.448-1.748-1.468-1.587-1.769 2.773.368 4.373c2.136 1.599-.425 2.683-1.248 1.183-.822-1.502-3.067-5.36-4.231-6.098s-1.983-.324-1.708 1.197c.136.755 1.403 2.044 2.588 3.248 1.201 1.221 2.317 2.356 2.078 2.757-.473.797-2.14-.937-2.14-.937S4.26 30.431 3.123 31.67c-1.048 1.141.568 2.112 3.058 3.607l.653.393c2.849 1.725 3.07 2.18 2.666 2.832-.15.241-1.103-.331-2.276-1.035-2-1.2-4.636-2.784-5.009-1.367-.322 1.226 1.618 1.978 3.377 2.66 1.466.567 2.806 1.086 2.61 1.79-.205.732-1.313.122-2.524-.544-1.359-.748-2.848-1.568-3.336-.643-.92 1.748 6.355 3.806 6.415 3.822 2.351.61 8.322 1.901 10.408-1.157m9.67 0c-1.5-2.201-1.394-3.853.665-5.911 2.06-2.059 3.259-5.07 3.259-5.07s.447-1.748 1.467-1.587 1.77 2.773-.367 4.373c-2.137 1.599.425 2.683 1.247 1.183.823-1.502 3.067-5.36 4.23-6.098s1.984-.324 1.709 1.197c-.136.755-1.404 2.044-2.588 3.248-1.202 1.221-2.317 2.356-2.079 2.757.473.797 2.142-.938 2.142-.938s5.221-4.75 6.358-3.513c1.048 1.141-.568 2.112-3.059 3.607l-.652.393c-2.85 1.725-3.07 2.18-2.667 2.832.15.242 1.104-.331 2.276-1.035 2-1.2 4.637-2.784 5.01-1.367.321 1.227-1.619 1.978-3.378 2.66-1.465.567-2.806 1.086-2.609 1.791.204.73 1.312.121 2.522-.545 1.36-.748 2.85-1.568 3.336-.643.922 1.75-6.356 3.806-6.415 3.82-2.35.612-8.32 1.904-10.407-1.154" clip-rule="evenodd"/><path fill="#32343d" fill-rule="evenodd" d="M30.024 17.813c.295.105.515.423.724.726.283.41.546.79.95.575a2.726 2.726 0 1 0-3.69-1.127c.188.352.603.186 1.041.01.344-.137.702-.28.975-.184m-12.85 0c-.295.105-.515.423-.724.726-.283.41-.546.79-.95.575a2.727 2.727 0 1 1 3.386-4.142 2.73 2.73 0 0 1 .303 3.015c-.187.352-.602.186-1.04.01-.344-.137-.701-.28-.974-.184m10.862 11.693c2.036-1.605 2.784-4.224 2.784-5.838 0-1.275-.858-.874-2.232-.194l-.077.039c-1.261.624-2.94 1.456-4.783 1.456-1.842 0-3.521-.832-4.782-1.457-1.418-.702-2.308-1.143-2.308.157 0 1.664.796 4.398 2.98 5.985a4.74 4.74 0 0 1 2.895-2.447c.218-.065.443.31.673.695.222.37.448.75.679.75.246 0 .487-.374.723-.739.246-.381.487-.753.72-.678a4.74 4.74 0 0 1 2.728 2.27" clip-rule="evenodd"/><path fill="#ff323d" d="M28.035 29.506c-1.06.835-2.47 1.396-4.306 1.396-1.725 0-3.074-.495-4.11-1.248a4.74 4.74 0 0 1 2.894-2.447c.428-.128.882 1.444 1.352 1.444.503 0 .987-1.562 1.442-1.417a4.75 4.75 0 0 1 2.728 2.272"/><path fill="#ffad03" fill-rule="evenodd" d="M12.304 20.082a1.77 1.77 0 0 1-2.623-.796 1.771 1.771 0 0 1 1.984-2.417 1.773 1.773 0 0 1 .639 3.213m25.363 0a1.77 1.77 0 0 1-2.623-.796 1.776 1.776 0 0 1 .727-2.199 1.771 1.771 0 0 1 2.549 2.2c-.135.323-.362.6-.653.795" clip-rule="evenodd"/></svg>
