<svg xmlns="http://www.w3.org/2000/svg" width="48" height="48" fill-rule="evenodd" stroke-width="27" aria-label="Logo"><path fill="#ebb951" stroke="#fcd804" stroke-width=".869" d="m43.257 18.497 3.613 2.07a1.384 1.384 0 0 1 .696 1.2v4.577a1.287 1.287 0 0 1-.667 1.128l-3.89 2.143a1.352 1.352 0 0 1-1.326-.013l-3.419-1.968a1.834 1.834 0 0 1-.92-1.59v-3.878a2.06 2.06 0 0 1 1.004-1.768l3.154-1.885a1.738 1.738 0 0 1 1.755-.016z"/><path fill="#33ba91" stroke="#00a88a" stroke-width=".869" d="m30.799 18.437 3.775 2.148a1.32 1.32 0 0 1 .667 1.147v4.49a1.448 1.448 0 0 1-.744 1.265l-3.775 2.102a1.416 1.416 0 0 1-1.401-.013l-3.405-1.982a1.802 1.802 0 0 1-.896-1.558V22.21a2.188 2.188 0 0 1 1.07-1.881l3.155-1.878a1.545 1.545 0 0 1 1.554-.014z"/><path fill="#0594cb" stroke="#0083c0" stroke-width=".869" d="m18.48 18.377 3.772 2.217a1.287 1.287 0 0 1 .635 1.103l.024 4.462a1.545 1.545 0 0 1-.793 1.358l-3.705 2.063a1.448 1.448 0 0 1-1.433-.013l-3.406-1.982a1.77 1.77 0 0 1-.879-1.53v-3.96a2.027 2.027 0 0 1 .961-1.724l3.196-1.976a1.577 1.577 0 0 1 1.628-.018z"/><path fill="#ff4088" stroke="#c9177e" stroke-width=".869" d="m6.27 18.479 3.681 2.14a1.416 1.416 0 0 1 .704 1.225v4.39a1.545 1.545 0 0 1-.787 1.346l-3.654 2.058a1.577 1.577 0 0 1-1.56-.008L1.29 27.693a1.706 1.706 0 0 1-.855-1.478V22.05a1.77 1.77 0 0 1 .84-1.506l3.308-2.042a1.641 1.641 0 0 1 1.687-.022z"/><path fill="#fff" d="M42.469 20.571a3.43 3.43 0 0 1 3.428 3.427 3.43 3.43 0 0 1-3.428 3.428 3.43 3.43 0 0 1-3.428-3.428 3.43 3.43 0 0 1 3.428-3.427zm0 1.273c1.189 0 2.154.966 2.154 2.154a2.155 2.155 0 0 1-2.154 2.155 2.155 2.155 0 0 1-2.154-2.155 2.155 2.155 0 0 1 2.154-2.154zm-9.133 2.102c0 1.518-.287 1.96-.863 2.593-.575.632-1.337.887-2.288.887-.868 0-1.568-.308-2.175-.844-.672-.593-1.161-1.514-1.161-2.54 0-1.01.377-1.882 1.045-2.532a3.454 3.454 0 0 1 2.36-.939c1.086 0 2.214.514 2.91 1.53l-1.022.863c-.432-.806-1.06-1.077-1.957-1.103-.992-.028-2.084.918-2.003 2.18.045.706.375 1.92 1.962 2.143.833.116 1.781-.773 1.781-1.257H30.36V23.72h2.977v.225ZM15.232 20.9h1.36v3.61c0 .573.016.944.048 1.114.054.272.155.462.36.627.204.165.443.212.799.212.36 0 .481-.056.665-.212.183-.156.293-.305.33-.532.037-.228.1-.605.1-1.132V20.9h1.36v3.5c0 .8-.035 1.366-.104 1.696-.068.33-.195.61-.38.837a1.925 1.925 0 0 1-.741.543c-.31.135-.713.202-1.212.202-.601 0-1.057-.073-1.368-.22a1.967 1.967 0 0 1-.737-.573c-.18-.235-.3-.481-.356-.739-.083-.381-.125-.945-.125-1.69V20.9ZM2.99 27.354v-6.669h1.395v2.43H6.7v-2.43h1.399v6.669h-1.4v-2.916H4.386v2.916z"/></svg>