<svg xmlns="http://www.w3.org/2000/svg" width="48" height="48" fill-rule="evenodd" stroke-width="27" aria-label="Logo"><a transform="translate(2.627 -68.698) scale(3.85464)"><path fill="#ff4088" stroke="#c9177e" d="m6.27 18.479 3.681 2.14a1.416 1.416 0 0 1 .704 1.225v4.39a1.545 1.545 0 0 1-.787 1.346l-3.654 2.058a1.577 1.577 0 0 1-1.56-.008L1.29 27.693a1.706 1.706 0 0 1-.855-1.478V22.05a1.77 1.77 0 0 1 .84-1.506l3.308-2.042a1.641 1.641 0 0 1 1.687-.022z" style="stroke-width:.86886"/><path fill="#fff" d="M2.99 27.354v-6.669h1.395v2.43H6.7v-2.43h1.399v6.669h-1.4v-2.916H4.386v2.916z" style="stroke-width:.86886"/></a></svg>