<svg xmlns="http://www.w3.org/2000/svg" viewBox="0 0 48 48"><g color="#000"><path fill="#ff4088" d="m195.81 24.13 114.41 66.54a44 44 0 0 1 21.88 38.04v136.43a48 48 0 0 1-24.45 41.82L194.1 370.9a49 49 0 0 1-48.48-.23L41.05 310.48a53 53 0 0 1-26.56-45.93V135.08a55 55 0 0 1 26.1-46.8l102.8-63.46a51 51 0 0 1 52.42-.69z" style="-inkscape-stroke:none" transform="translate(2.504 -.464) scale(.12404)"/><path fill="#c9177e" d="M169.33 3.734a64.458 64.458 0 0 0-33.027 9.598l-102.8 63.461h-.002C13.309 89.263.993 111.35.995 135.083v129.47c.002 23.765 12.727 45.772 33.324 57.628l104.57 60.191h.002c19.099 10.992 42.634 11.103 61.836.293l113.55-63.94c19.33-10.885 31.323-31.397 31.326-53.58v-136.43c.002-20.459-10.907-39.427-28.592-49.712h-.002l-114.41-66.54a64.466 64.466 0 0 0-33.27-8.726zm.355 26.98a37.47 37.47 0 0 1 19.342 5.087h.002l114.41 66.54a30.448 30.448 0 0 1 15.166 26.368v136.43a34.447 34.447 0 0 1-17.572 30.057h-.002l-113.55 63.94a35.45 35.45 0 0 1-35.12-.167l-.003-.002-104.57-60.189a39.447 39.447 0 0 1-19.795-34.229V135.08a41.453 41.453 0 0 1 19.691-35.31l.002-.003 102.8-63.459v.002a37.464 37.464 0 0 1 19.201-5.595z" style="-inkscape-stroke:none" transform="translate(2.504 -.464) scale(.12404)"/></g><path fill="#fff" d="M14.153 36.74V11.038h5.377V20.4h8.921v-9.363h5.394v25.704H28.45V25.5h-8.92v11.24z"/></svg>