<svg xmlns="http://www.w3.org/2000/svg" viewBox="0 0 48 48"><path fill-rule="evenodd" d="m31.289 23.888-4.384-1.938 1.478 4.694c.28.836.988 1.656 2.182 1.656a2.265 2.265 0 0 0 2.26-2.257c0-1.053-.648-1.757-1.536-2.155zm9.554-.102-.28-.807h-4.992v.807h2.664v-.766l.271.766zM38.8 17.895h-5.003v.807h5.283zm.589 1.694h-5.592v.808h5.871zm2.74.808H48v-.808h-5.592zm-6.557 1.694h4.684l-.28-.807h-4.404zm3.533 3.39h3.587l.285-.807H38.82zm.599 1.695h2.39l.285-.807h-2.96zm.598 1.694h1.194l.285-.807h-1.764zm.597 1.69.283-.802h-.567zm2.098-12.665-.28.807H48v-.807zm3.228 3.39H41.82l-.28.806h4.684zm-2.663 2.501h2.663v-.807h-4.992l-.28.807h2.338l.271-.768zm0 1.695h2.663v-.807h-2.663zm0 1.695h2.663v-.807h-2.663zm0 1.695H48v-.808h-4.44zm0 1.694H48v-.807h-4.44zm-7.99-5.084h2.664v-.807H35.57zm0 1.695h2.664v-.807H35.57zm-1.775 1.695h4.438v-.807h-4.438zm0 1.694h4.438v-.807h-4.438zm-12.218-1.291a2.791 2.791 0 0 0 5.064 0zm5.327-2.798H21.31v1.506h5.596zm0-2.799H21.31v1.507h5.596zm-.263-1.291a2.79 2.79 0 0 0-5.064 0zM15.39 26.043a2.265 2.265 0 0 0 2.26 2.257c1.194 0 1.9-.82 2.181-1.656l1.478-4.693-4.383 1.938c-.889.398-1.536 1.102-1.536 2.155zm10.334-8.392a1.29 1.29 0 1 0 0 2.578 1.29 1.29 0 0 0 0-2.578zm-3.233 0a1.29 1.29 0 1 0 0 2.578 1.29 1.29 0 0 0 0-2.578zm-15.603-.539c-2.756 0-5.162 1.558-6.458 3.875v1.291c1.543-1.841 3.863-3.013 6.458-3.013s4.915 1.172 6.457 3.013v-1.291c-1.296-2.317-3.702-3.875-6.457-3.875zm3.874 9.04a3.874 3.874 0 1 0-7.749 0 3.874 3.874 0 0 0 7.75 0zm3.014 0c-1.134 2.783-3.791 4.736-6.888 4.736S1.134 28.935 0 26.153c1.134-2.783 3.79-4.736 6.888-4.736 3.097 0 5.753 1.953 6.888 4.736zm-5.166 0a1.722 1.722 0 1 1-3.444 0 1.722 1.722 0 0 1 3.444 0z"/></svg>