<svg xmlns="http://www.w3.org/2000/svg" viewBox="0 0 48 48"><path fill="#4589ff" fill-rule="evenodd" d="M47.088 31.985c.076 0 .119-.033.119-.105v-.071c0-.072-.043-.105-.119-.105h-.18v.281zm-.18.524h-.242v-.996h.45c.224 0 .338.134.338.315 0 .157-.071.257-.18.3l.222.381h-.265l-.185-.343h-.138zm.869-.443v-.124c0-.4-.314-.715-.727-.715s-.726.315-.726.715v.124c0 .4.313.715.726.715s.727-.315.727-.715zm-1.677-.062c0-.557.423-.981.95-.981.527 0 .95.424.95.98 0 .559-.423.983-.95.983-.527 0-.95-.424-.95-.982zM32.42 16.26l-.432-1.248h-7.121v1.248zm.826 2.382-.433-1.248h-7.946v1.248zm5.298 14.292h6.217v-1.248h-6.217zm0-2.382h6.217v-1.248h-6.217zm0-2.382h3.73v-1.248h-3.73zm0-2.382h3.73V24.54h-3.73zm0-2.382h3.73V22.16h-7.11l-.35 1.009-.35-1.009h-7.11v1.248h3.73v-1.146l.4 1.146h6.659l.4-1.146zm3.73-3.63h-6.285l-.433 1.248h6.718zm-14.92 6.012h3.73V24.54h-3.73zm0 2.382h3.73v-1.248h-3.73zm-2.487 2.382h6.217v-1.248h-6.217zm0 2.382h6.217v-1.248h-6.217zm12.773-17.92-.432 1.247h7.553v-1.247zm-1.258 3.63h8.38v-1.248h-7.947zm-9.028 2.381h6.718l-.433-1.247h-6.285zm4.964 4.764h4.992l.437-1.247h-5.865zm.834 2.382h3.325l.436-1.248h-4.197zm.833 2.382h1.658l.437-1.248h-2.531zm.827 2.382.434-1.248h-.864zm-24.865-.012 9.156.012a4.703 4.703 0 0 0 3.203-1.248H9.948zm9.721-6v1.248h4.182a4.8 4.8 0 0 0-.166-1.248zm-7.234 1.248h3.73v-1.248h-3.73zm7.234-7.146h4.016c.107-.397.166-.816.166-1.247h-4.182zm-7.234 0h3.73v-1.247h-3.73zm6.67-6.011H9.946v1.247h12.358a4.72 4.72 0 0 0-3.202-1.247zm4.11 2.382H9.948v1.247h13.767a4.767 4.767 0 0 0-.5-1.247zm-10.78 4.764v1.247h9.74a4.788 4.788 0 0 0 1.038-1.247zm9.74 2.382h-9.74v1.247h10.778a4.781 4.781 0 0 0-1.038-1.247zm-12.227 6.01h13.266c.222-.384.392-.803.5-1.246H9.946zM0 16.263h8.704v-1.248H0zm0 2.382h8.704v-1.248H0zm2.487 2.382h3.73v-1.248h-3.73zm0 2.382h3.73V22.16h-3.73zm0 2.382h3.73v-1.248h-3.73zm0 2.382h3.73v-1.248h-3.73zM0 30.553h8.704v-1.247H0zm0 2.383h8.704v-1.248H0z"/></svg>