<svg xmlns="http://www.w3.org/2000/svg" viewBox="0 0 48 48"><path fill="#fa2921" d="M22.384 14.575c3.143 2.782 5.675 5.764 7.305 8.574 2.8-5.007 4.67-10.957 4.694-14.746V8.33c0-5.607-5.593-7.79-10.411-7.79S13.56 2.723 13.56 8.33v.303c2.686 1.194 5.87 3.327 8.824 5.943"/><path fill="#ed79b5" d="M5.24 29.865c1.965-2.185 4.978-4.554 8.379-6.556 3.618-2.13 7.236-3.617 10.412-4.298-3.897-4.21-8.977-7.827-12.574-9.02l-.07-.023C6.054 8.236 2.25 12.88.762 17.463S-.38 28.039 4.953 29.77z"/><path fill="#ffb400" d="M47.238 17.385c-1.488-4.582-5.292-9.227-10.625-7.494l-.288.093c-.305 2.922-1.35 6.61-2.925 10.229-1.674 3.848-3.728 7.179-5.897 9.597 5.627 1.116 11.863 1.055 15.474-.093l.07-.023c5.333-1.733 5.68-7.727 4.191-12.309"/><path fill="#1e83f7" d="M19.217 34.345c-.907-4.099-1.204-8-.87-11.23-5.208 2.404-10.218 6.118-12.465 9.17l-.043.06c-3.296 4.537-.054 9.59 3.844 12.42 3.898 2.833 9.706 4.355 13.002-.181l.178-.245c-1.471-2.543-2.794-6.142-3.646-9.994"/><path fill="#18c249" d="M42.074 32.052c-2.874.613-6.704.759-10.632.379-4.178-.403-7.98-1.327-10.95-2.643.678 5.695 2.662 11.608 4.87 14.688l.044.06c3.295 4.536 9.103 3.014 13.001.182s7.14-7.885 3.845-12.421z"/></svg>
