<svg xmlns="http://www.w3.org/2000/svg" viewBox="0 0 48 48"><style>.immich_svg__st0{fill:#4081ef}.immich_svg__st0,.immich_svg__st1,.immich_svg__st2,.immich_svg__st3,.immich_svg__st4{stroke:#512d8c;stroke-miterlimit:10}.immich_svg__st1{fill:#31a452}.immich_svg__st2{fill:#de7fb3}.immich_svg__st3{fill:#ffb800}.immich_svg__st4{fill:#e64132}</style><path stroke-width=".086" d="M17.95 47.527c-.19-.018-.474-.086-.836-.19a23.871 23.871 0 0 1-11.53-7.626c-.758-.923-1.482-1.93-1.672-2.37-.698-1.56-.543-3.335.414-4.774.43-.647 1.137-1.293 1.767-1.612.103-.052 4.662-1.723 4.808-1.758.043-.009.043.017-.026.181a1.25 1.25 0 0 0-.094.474l-.01.276.242.5c.75 1.542 1.655 2.818 2.861 3.998.543.534.672.655 1.19 1.06 1.956 1.56 4.48 2.646 6.885 2.956.215.026.43.069.491.086.241.078.664-.069.948-.319l.155-.138-.017.414c-.009.233-.052 1.327-.086 2.439-.052 1.75-.07 2.068-.13 2.37a4.965 4.965 0 0 1-3.309 3.8c-.396.13-.689.19-1.129.233-.396.043-.508.034-.922 0z" class="immich_svg__st0"/><path stroke-width=".086" d="M29.093 47.51a5.706 5.706 0 0 1-1.138-.25 6.59 6.59 0 0 1-1.077-.526 5.121 5.121 0 0 1-1.99-2.585c-.19-.578-.199-.647-.285-3.18a311.335 311.335 0 0 1-.077-2.49v-.165l.198.156c.224.172.569.293.732.267.052-.009.259-.043.457-.07 3.249-.456 6.136-1.912 8.394-4.23 1.05-1.078 1.844-2.198 2.576-3.654l.302-.604v-.31c0-.267-.009-.327-.086-.491-.043-.103-.078-.18-.078-.19.017-.017 4.766 1.733 4.904 1.802.224.112.568.353.853.603.793.663 1.387 1.672 1.62 2.74.06.267.069.414.069.974 0 .741-.043 1.008-.25 1.611-.147.431-.25.62-.612 1.13a23.382 23.382 0 0 1-2.172 2.688c-2.826 3.05-6.592 5.386-10.634 6.575-.69.216-1.068.259-1.706.198z" class="immich_svg__st1"/><path stroke-width=".086" d="M21.837 37.91a13.83 13.83 0 0 1-6.179-2.672c-.448-.345-.75-.612-1.215-1.069-1.094-1.077-1.887-2.145-2.628-3.567-.199-.38-.207-.405-.207-.612 0-.758.732-1.31 1.456-1.095.483.147.828.586.836 1.052a.667.667 0 0 1-.62.698.75.75 0 0 1-.37-.138c-.182-.155-.173-.086.034.276 1.663 2.912 4.507 5.093 7.755 5.954.492.13.991.233 1.017.207.009-.008-.034-.069-.112-.138-.44-.387-.198-1.008.431-1.103.465-.069.983.233 1.198.69.069.146.086.215.086.457s-.008.301-.086.456c-.172.37-.586.681-.888.672-.077-.008-.31-.043-.508-.069z" class="immich_svg__st2"/><path stroke-width=".086" d="M25.456 37.927a1.195 1.195 0 0 1-.672-.698 1.24 1.24 0 0 1 .043-.88c.224-.456.75-.732 1.241-.646.25.043.405.164.517.37.07.139.086.19.07.311a.554.554 0 0 1-.234.414c-.068.06-.12.12-.112.13.044.042 1.155-.234 1.836-.466 2.896-.974 5.386-3.025 6.929-5.697.215-.379.224-.43.043-.275-.242.207-.604.163-.828-.086-.344-.397-.06-1.19.526-1.457.172-.077.233-.086.474-.086.25 0 .302.009.483.095.379.18.637.551.672.948.017.19.008.198-.19.594-1.982 3.956-5.774 6.73-10.1 7.403-.474.077-.543.086-.698.026z" class="immich_svg__st0"/><path stroke-width=".086" d="M18.002 34.506a2.549 2.549 0 0 1-1.112-.509 2.172 2.172 0 0 1-.568-2.904c.06-.103.094-.19.086-.207-.017-.017-.104-.052-.198-.095-.655-.258-1.12-.913-1.164-1.646a1.973 1.973 0 0 1 .776-1.671c.086-.06.19-.13.224-.156.069-.034 5.937-1.956 5.98-1.956.018 0 .06.06.104.13s.138.198.207.284c.103.12.129.164.103.198-.017.026-.594.819-1.275 1.767-1.37 1.887-1.336 1.835-1.155 2.016.112.112.25.12.38.026.05-.034.645-.836 1.335-1.784.965-1.327 1.258-1.715 1.293-1.697.077.034.474.163.568.18l.086.018v3.042c0 3.421 0 3.343-.215 3.792-.224.456-.62.801-1.094.965a1.649 1.649 0 0 1-.88.086 1.96 1.96 0 0 1-1.18-.638l-.19-.207-.051.078c-.259.37-.741.698-1.207.819-.241.077-.672.103-.853.069z" class="immich_svg__st1"/><path stroke-width=".086" d="M29.36 34.506c-.474-.078-.853-.276-1.232-.655l-.276-.276-.06.086c-.199.284-.586.56-.957.68-.319.104-.793.121-1.086.027a1.99 1.99 0 0 1-1.31-1.233l-.077-.224v-6.394l.155-.034c.086-.018.233-.07.336-.104.095-.043.181-.069.19-.06s.56.775 1.24 1.715c.673.939 1.267 1.732 1.31 1.766.19.164.466.035.466-.224 0-.12-.086-.25-1.19-1.766-.654-.905-1.223-1.69-1.266-1.758l-.078-.112.12-.147c.07-.077.165-.215.216-.293l.087-.138 2.964.965c1.629.535 3.025 1 3.094 1.043.586.345.956.974.956 1.646 0 .353-.043.552-.207.88a1.892 1.892 0 0 1-.827.835c-.138.069-.276.13-.293.13-.086 0-.077.06.026.223.241.37.345.733.336 1.18 0 .699-.319 1.31-.913 1.75-.56.414-1.155.578-1.724.492z" class="immich_svg__st3"/><path stroke-width=".086" d="M4.455 29.628c-.043-.009-.198-.035-.336-.06-1.344-.224-2.62-1.086-3.343-2.258a5.694 5.694 0 0 1-.673-1.715C0 25.069.034 23.173.173 21.88a24.003 24.003 0 0 1 3.636-10.402c.56-.879 1.284-1.852 1.568-2.12 1.534-1.43 3.715-1.766 5.585-.861.37.18.758.44 1.094.74.241.208.5.526 1.801 2.198.836 1.077 1.534 1.965 1.543 1.982.017.017-.078.035-.276.035-.216 0-.353.017-.491.06-.181.06-.224.095-.681.543-.707.698-1.241 1.318-1.75 2.06a14.35 14.35 0 0 0-2.481 6.446c-.19 1.456-.138 3.231.137 4.507.026.12.044.24.035.258s.017.112.069.207c.095.207.37.491.56.586l.13.069-.104.034-2.379.69c-1.413.405-2.387.672-2.568.698-.267.034-.956.051-1.146.017z" class="immich_svg__st2"/><path stroke-width=".086" d="M42.442 29.61c-.181-.025-2.913-.783-4.87-1.36l-.215-.061.138-.07c.293-.146.62-.568.63-.826 0-.06.034-.285.068-.5a14.307 14.307 0 0 0-.215-5.895 14.497 14.497 0 0 0-3.085-5.954c-.397-.457-1.276-1.328-1.414-1.388a1.408 1.408 0 0 0-.69-.12l-.232.017.104-.13c.06-.068.732-.93 1.508-1.921.767-.991 1.482-1.879 1.594-1.99.224-.234.603-.535.888-.708a4.947 4.947 0 0 1 5.308.104c.465.31.707.534 1.06 1.008a23.89 23.89 0 0 1 4.507 10.014 23.27 23.27 0 0 1 .43 4.515c0 1.12-.016 1.276-.215 1.879-.723 2.258-2.973 3.688-5.3 3.387z" class="immich_svg__st3"/><path stroke-width=".086" d="M11.35 27.611a1.267 1.267 0 0 1-.518-.284c-.215-.207-.267-.302-.319-.629-.379-2.353-.19-4.654.578-6.834a14.12 14.12 0 0 1 1.982-3.714c.5-.672 1.43-1.68 1.637-1.784.405-.207.974-.103 1.31.233a1.138 1.138 0 0 1-.026 1.646c-.37.345-.81.379-1.086.077a.59.59 0 0 1-.146-.551.586.586 0 0 0 .017-.19c-.026-.026-.31.285-.715.784-1.517 1.88-2.456 4.137-2.75 6.593-.094.801-.085 2.275.01 2.982.025.155.068.163.12.008.078-.224.345-.405.586-.405.259 0 .509.19.646.491.052.112.07.199.07.449 0 .284-.01.327-.095.49-.121.233-.397.492-.612.57s-.526.103-.69.068z" class="immich_svg__st4"/><path stroke-width=".086" d="M36.228 27.611a1.19 1.19 0 0 1-.81-.611c-.327-.647.009-1.457.595-1.457.267 0 .5.173.595.448.034.104.043.112.06.06.112-.318.146-2.274.052-3.076-.31-2.55-1.25-4.765-2.844-6.713-.474-.577-.724-.81-.612-.569.06.12.043.37-.026.509-.078.146-.276.301-.43.327-.277.052-.682-.138-.88-.413-.56-.759-.043-1.827.896-1.845.397-.008.448.026.966.552a13.182 13.182 0 0 1 2.481 3.473c1.138 2.266 1.603 4.73 1.388 7.282-.043.482-.173 1.353-.224 1.473-.112.242-.414.474-.724.56a1.138 1.138 0 0 1-.483 0z" class="immich_svg__st1"/><path stroke-width=".086" d="M15.167 26.638c-.517-.112-1.051-.535-1.284-1.009a1.93 1.93 0 0 1 .077-1.861c.06-.103.104-.198.095-.207s-.095-.052-.18-.086a2.254 2.254 0 0 1-.923-.715 2.202 2.202 0 0 1-.336-1.905c.25-.887.81-1.448 1.646-1.663.241-.06.776-.069 1.008 0 .095.026.19.043.207.043s.026-.06.026-.13c0-.249.069-.499.207-.792a1.898 1.898 0 0 1 2.499-.905c.233.104.534.328.672.5.06.069.888 1.206 1.853 2.534l1.75 2.404-.13.155a5.075 5.075 0 0 0-.215.302c-.052.086-.104.146-.13.138-.388-.147-4.024-1.293-4.11-1.293-.164 0-.267.112-.267.276 0 .086.017.146.068.198s.673.267 2.112.732l2.042.664-.017.741-2.81.905c-1.55.508-2.92.94-3.033.965a2.06 2.06 0 0 1-.827.009z" class="immich_svg__st0"/><path stroke-width=".086" d="M31.91 26.603a275.94 275.94 0 0 1-3.015-.974l-2.74-.896.086-.37v-.371l1.947-.664c1.293-.422 2.068-.689 2.12-.732.06-.052.078-.095.078-.19 0-.172-.104-.284-.268-.284-.077 0-.904.25-2.128.646-1.103.354-2.017.647-2.034.647a.625.625 0 0 1-.112-.164 2.546 2.546 0 0 0-.19-.276.513.513 0 0 1-.103-.138c0-.017.827-1.163 1.844-2.55 1.629-2.241 1.862-2.551 2.034-2.68.491-.38 1.129-.5 1.698-.337.775.233 1.387 1 1.387 1.75 0 .198-.008.198.267.129a2.44 2.44 0 0 1 1.38.13c.396.172.775.516.99.878.181.31.336.81.362 1.138a2.26 2.26 0 0 1-.345 1.318c-.224.354-.672.715-1.042.845-.078.026-.147.069-.147.086s.035.086.078.146c.207.31.31.664.301 1.095 0 .5-.18.922-.551 1.301a1.806 1.806 0 0 1-1.284.56c-.285.035-.37.026-.612-.043z" class="immich_svg__st4"/><path d="M276.2 298.9c-6.1-1.6-11.4-6.8-13.2-12.9-.7-2.4-.7-7.5 0-9.9 1.7-5.8 6.6-10.8 12.3-12.5 2.7-.8 7.2-.9 10-.2 6.2 1.6 11.6 7.1 13.2 13.3 1.6 6-.3 12.6-5 17.3-4.6 4.6-11.3 6.5-17.3 4.9z" style="fill:#f2f5fb;stroke:#512d8c;stroke-miterlimit:10" transform="translate(-.19 .164) scale(.08618)"/><path stroke-width=".086" d="M21.208 19.968c-1.146-1.577-1.827-2.551-1.896-2.68-.12-.259-.164-.474-.164-.81 0-1.216 1.13-2.103 2.336-1.845.12.026.224.043.232.043s.026-.112.035-.24a2.175 2.175 0 0 1 1.628-1.931 3.052 3.052 0 0 1 1.25 0 2.19 2.19 0 0 1 1.568 1.568c.035.13.06.319.06.422s.01.181.027.181.129-.025.258-.051c.638-.138 1.31.06 1.767.517.37.37.569.827.569 1.344 0 .345-.052.56-.207.862-.052.103-.897 1.293-1.87 2.645-1.534 2.112-1.793 2.456-1.844 2.44-.035-.01-.164-.052-.293-.096s-.25-.077-.285-.077c-.06 0-.06-.069-.026-2.198v-2.197l-.12-.078a.282.282 0 0 0-.328-.077c-.172.069-.172-.043-.155 2.344v2.223h-.103c-.043-.017-.207.026-.345.078s-.267.094-.276.094c-.017-.008-.827-1.12-1.818-2.481z" class="immich_svg__st2"/><path stroke-width=".086" d="M17.985 14.366a1.218 1.218 0 0 1-.827-.638 1.213 1.213 0 0 1-.044-.887c.147-.388.337-.526 1.345-.965a13.51 13.51 0 0 1 4.24-1.112c.629-.069 1.999-.069 2.637 0 1.5.155 2.87.517 4.23 1.12.63.276 1.078.526 1.173.647.37.482.327 1.094-.095 1.516-.44.44-1.112.466-1.56.06-.172-.154-.258-.301-.293-.482-.06-.345.25-.698.63-.707.12 0 .129-.008.094-.043-.026-.026-.19-.103-.37-.18a12.849 12.849 0 0 0-9.049-.466c-.646.207-1.637.62-1.603.664.009.017.07.025.138.025.483 0 .784.535.526.931-.25.388-.741.612-1.172.517z" class="immich_svg__st3"/><path stroke-width=".086" d="M14.865 10.798c-.767-1.128-1.447-2.163-1.508-2.292a5.908 5.908 0 0 1-.379-1.12 4.957 4.957 0 0 1 .43-3.232 5.088 5.088 0 0 1 1.604-1.835c.43-.293.525-.336 1.103-.543 1.99-.707 4.067-1.129 6.325-1.293.646-.051 2.456-.051 3.128 0 2.198.155 4.36.595 6.291 1.276.552.19.707.267 1.13.56.844.569 1.559 1.508 1.895 2.516.19.56.233.862.233 1.543s-.043.973-.233 1.542c-.198.586-.319.784-1.75 2.896l-1.387 2.05-.034-.189a1.483 1.483 0 0 0-.12-.345c-.087-.155-.38-.482-.406-.448-.009.009-.103-.034-.207-.094-.784-.449-1.887-.905-2.86-1.198a14.607 14.607 0 0 0-9.739.525c-.422.181-1.525.724-1.654.819-.19.138-.44.586-.44.776 0 .034-.008.086-.026.103.009.017-.534-.758-1.396-2.017z" class="immich_svg__st4"/></svg>