<svg xmlns="http://www.w3.org/2000/svg" viewBox="0 0 48 48"><path fill="#020a47" fill-rule="evenodd" d="m35.464 33.121 11.13-2.552a1.26 1.26 0 0 0 .958-1.594l-4.734-20.53a1.32 1.32 0 0 0-1.599-.958L30.093 10.04a1.315 1.315 0 0 0-.948 1.595l4.72 20.53a1.32 1.32 0 0 0 1.599.957zm-3.836 12.687 13.495-12.494c.509-.513.38-.83-.32-.577l-9.275 2.107a2.351 2.351 0 0 0-1.664 1.53l-2.813 9.054c-.193.7.064.893.577.38zM7.007 41.73l20.208 6.245a1.48 1.48 0 0 0 1.664-.953l3.386-10.84a1.337 1.337 0 0 0-.916-1.659L11.14 28.338a1.348 1.348 0 0 0-1.663.916L6.114 40.072a1.338 1.338 0 0 0 .893 1.658zM.482 19.541 4.578 37.48c.129.7.459.7.637 0l2.814-9.054a2.538 2.538 0 0 0-.509-2.231l-6.46-6.973c-.45-.527-.784-.38-.578.32ZM16.282.367.802 14.694a1.31 1.31 0 0 0-.064 1.833l7.74 8.37a1.32 1.32 0 0 0 1.856.064l15.475-14.35a1.301 1.301 0 0 0 .064-1.832L18.147.413a1.31 1.31 0 0 0-1.865-.046ZM31.243 32.8c.706.193 1.15-.187.963-.916l-4.477-19.38c-.193-.7-.77-.893-1.279-.385L11.87 25.663c-.514.508-.386 1.08.315 1.273zm7.612-27.03L21.203.366c-.7-.192-.83.065-.256.637l6.46 6.95a2.483 2.483 0 0 0 2.196.619l9.274-2.103c.683-.192.683-.513-.022-.7z" clip-rule="evenodd"/></svg>