<svg xmlns="http://www.w3.org/2000/svg" width="48" height="48" fill="none"><path fill="#020a47" fill-rule="evenodd" d="m43.312 9.926-.012-.041a5.607 5.607 0 0 0-1.317-2.376 5.563 5.563 0 0 0-2.275-1.472l-.03-.01L20.84.205l-.007-.002a4.447 4.447 0 0 0-1.552-.197 5.877 5.877 0 0 0-3.565 1.33l-.057.047L2.11 14.016l-.023.023a5.52 5.52 0 0 0-1.4 2.315 5.546 5.546 0 0 0-.136 2.707l.007.032 4.414 19.313.012.044c.24.887.692 1.7 1.319 2.37a5.571 5.571 0 0 0 2.271 1.469l.028.01 17.608 5.494.005.002c.509.16 1.042.227 1.574.199a5.9 5.9 0 0 0 3.546-1.303l.066-.052 14.517-13.525.047-.05a5.776 5.776 0 0 0 1.492-5.032l-.009-.048zM42.885 29.7l-9.19 2.12a1.09 1.09 0 0 1-.825-.123 1.096 1.096 0 0 1-.496-.672L28.476 13.97a1.097 1.097 0 0 1 .784-1.325l9.187-2.12a1.087 1.087 0 0 1 1.32.795l3.909 17.056a1.048 1.048 0 0 1-.79 1.324zm-1.214 2.28L30.527 42.36c-.423.426-.635.266-.476-.316l2.323-7.521a1.954 1.954 0 0 1 1.373-1.272l7.659-1.75c.58-.21.685.053.265.48zM26.884 44.16l-16.687-5.19a1.107 1.107 0 0 1-.651-.536 1.117 1.117 0 0 1-.087-.842l2.777-8.986c.083-.284.274-.523.531-.666.257-.142.56-.177.843-.095l16.687 5.138a1.103 1.103 0 0 1 .793.945c.016.145.004.292-.037.433l-2.796 9.005a1.227 1.227 0 0 1-1.373.792zM8.19 35.439 4.808 20.538c-.17-.582.106-.704.477-.267l5.335 5.793a2.113 2.113 0 0 1 .42 1.854l-2.323 7.52c-.147.583-.42.583-.526 0zM5.073 16.51 17.855 4.609a1.08 1.08 0 0 1 1.54.038l6.38 6.95a1.085 1.085 0 0 1-.053 1.523L12.944 25.04a1.086 1.086 0 0 1-1.533-.053l-6.39-6.954a1.092 1.092 0 0 1 .052-1.522Zm25.931 14.28c.155.606-.212.922-.795.762L14.472 26.68c-.578-.16-.684-.636-.26-1.058l12.04-11.251c.42-.422.896-.263 1.055.32zM21.92 4.61l14.575 4.488c.583.156.583.422.02.582l-7.66 1.747a2.04 2.04 0 0 1-1.812-.514l-5.335-5.774c-.473-.475-.367-.689.212-.529Z" clip-rule="evenodd" style="stroke-width:.352941"/></svg>