<svg xmlns="http://www.w3.org/2000/svg" viewBox="0 0 48 48"><defs><radialGradient id="instagram_svg__b" cx="158.43" cy="578.09" r="52.352" gradientTransform="matrix(0 -4.0342 4.2802 0 -2332.2 942.24)" gradientUnits="userSpaceOnUse"><stop offset="0" stop-color="#fc0"/><stop offset=".124" stop-color="#fc0"/><stop offset=".567" stop-color="#fe4a05"/><stop offset=".694" stop-color="#ff0f3f"/><stop offset="1" stop-color="#fe0657" stop-opacity="0"/></radialGradient><radialGradient id="instagram_svg__c" cx="172.61" cy="600.69" r="65" gradientTransform="matrix(.67441 -1.162 1.5128 .87801 -814.37 -47.835)" gradientUnits="userSpaceOnUse"><stop offset="0" stop-color="#fc0"/><stop offset="1" stop-color="#fc0" stop-opacity="0"/></radialGradient><radialGradient id="instagram_svg__d" cx="144.01" cy="51.337" r="67.081" gradientTransform="matrix(-2.3989 .67549 -.23008 -.81732 465 -26.404)" gradientUnits="userSpaceOnUse"><stop offset="0" stop-color="#780cff"/><stop offset="1" stop-color="#820bff" stop-opacity="0"/></radialGradient><radialGradient id="instagram_svg__a" cx="199.79" cy="628.44" r="52.352" gradientTransform="matrix(-3.108 .87652 -.6315 -2.2391 1345.7 1374.2)" gradientUnits="userSpaceOnUse"><stop offset="0" stop-color="#ff005f"/><stop offset="1" stop-color="#fc01d8"/></radialGradient></defs><path fill="url(#instagram_svg__a)" d="M204.15 18.143c-55.23 0-71.383.057-74.523.318-11.334.942-18.387 2.727-26.071 6.554-5.921 2.94-10.592 6.35-15.2 11.13-8.394 8.715-13.481 19.437-15.323 32.183-.895 6.188-1.156 7.45-1.209 39.056-.02 10.535 0 24.401 0 42.998 0 55.201.061 71.342.326 74.476.916 11.032 2.645 17.973 6.308 25.565 7 14.533 20.369 25.443 36.119 29.514 5.454 1.405 11.477 2.178 19.209 2.545 3.276.142 36.668.244 70.081.244 33.413 0 66.825-.04 70.02-.203 8.954-.422 14.153-1.12 19.901-2.606 15.852-4.091 28.977-14.838 36.119-29.575 3.592-7.409 5.413-14.614 6.237-25.07.179-2.28.254-38.626.254-74.924 0-36.304-.081-72.584-.26-74.863-.834-10.625-2.656-17.769-6.363-25.32-3.042-6.182-6.42-10.799-11.324-15.519-8.752-8.361-19.456-13.45-32.21-15.29-6.18-.893-7.411-1.158-39.033-1.213z" transform="translate(-13.029 -3.292) scale(.18142)"/><path fill="url(#instagram_svg__b)" d="M204.15 18.143c-55.23 0-71.383.057-74.523.318-11.334.942-18.387 2.727-26.071 6.554-5.921 2.94-10.592 6.35-15.2 11.13-8.394 8.715-13.481 19.437-15.323 32.183-.895 6.188-1.156 7.45-1.209 39.056-.02 10.535 0 24.401 0 42.998 0 55.201.061 71.342.326 74.476.916 11.032 2.645 17.973 6.308 25.565 7 14.533 20.369 25.443 36.119 29.514 5.454 1.405 11.477 2.178 19.209 2.545 3.276.142 36.668.244 70.081.244 33.413 0 66.825-.04 70.02-.203 8.954-.422 14.153-1.12 19.901-2.606 15.852-4.091 28.977-14.838 36.119-29.575 3.592-7.409 5.413-14.614 6.237-25.07.179-2.28.254-38.626.254-74.924 0-36.304-.081-72.584-.26-74.863-.834-10.625-2.656-17.769-6.363-25.32-3.042-6.182-6.42-10.799-11.324-15.519-8.752-8.361-19.456-13.45-32.21-15.29-6.18-.893-7.411-1.158-39.033-1.213z" transform="translate(-13.029 -3.292) scale(.18142)"/><path fill="url(#instagram_svg__c)" d="M204.15 18.143c-55.23 0-71.383.057-74.523.318-11.334.942-18.387 2.727-26.071 6.554-5.921 2.94-10.592 6.35-15.2 11.13-8.394 8.715-13.481 19.437-15.323 32.183-.895 6.188-1.156 7.45-1.209 39.056-.02 10.535 0 24.401 0 42.998 0 55.201.061 71.342.326 74.476.916 11.032 2.645 17.973 6.308 25.565 7 14.533 20.369 25.443 36.119 29.514 5.454 1.405 11.477 2.178 19.209 2.545 3.276.142 36.668.244 70.081.244 33.413 0 66.825-.04 70.02-.203 8.954-.422 14.153-1.12 19.901-2.606 15.852-4.091 28.977-14.838 36.119-29.575 3.592-7.409 5.413-14.614 6.237-25.07.179-2.28.254-38.626.254-74.924 0-36.304-.081-72.584-.26-74.863-.834-10.625-2.656-17.769-6.363-25.32-3.042-6.182-6.42-10.799-11.324-15.519-8.752-8.361-19.456-13.45-32.21-15.29-6.18-.893-7.411-1.158-39.033-1.213z" transform="translate(-13.029 -3.292) scale(.18142)"/><path fill="url(#instagram_svg__d)" d="M204.15 18.143c-55.23 0-71.383.057-74.523.318-11.334.942-18.387 2.727-26.071 6.554-5.921 2.94-10.592 6.35-15.2 11.13-8.394 8.715-13.481 19.437-15.323 32.183-.895 6.188-1.156 7.45-1.209 39.056-.02 10.535 0 24.401 0 42.998 0 55.201.061 71.342.326 74.476.916 11.032 2.645 17.973 6.308 25.565 7 14.533 20.369 25.443 36.119 29.514 5.454 1.405 11.477 2.178 19.209 2.545 3.276.142 36.668.244 70.081.244 33.413 0 66.825-.04 70.02-.203 8.954-.422 14.153-1.12 19.901-2.606 15.852-4.091 28.977-14.838 36.119-29.575 3.592-7.409 5.413-14.614 6.237-25.07.179-2.28.254-38.626.254-74.924 0-36.304-.081-72.584-.26-74.863-.834-10.625-2.656-17.769-6.363-25.32-3.042-6.182-6.42-10.799-11.324-15.519-8.752-8.361-19.456-13.45-32.21-15.29-6.18-.893-7.411-1.158-39.033-1.213z" transform="translate(-13.029 -3.292) scale(.18142)"/><path fill="#fff" d="M24.01 6.163c-4.846 0-5.454.022-7.358.108-1.9.087-3.197.388-4.332.829a8.738 8.738 0 0 0-3.16 2.056 8.753 8.753 0 0 0-2.06 3.159c-.442 1.134-.743 2.43-.829 4.328-.085 1.902-.107 2.51-.107 7.354s.021 5.45.107 7.352c.088 1.898.389 3.194.83 4.328a8.738 8.738 0 0 0 2.058 3.16 8.74 8.74 0 0 0 3.16 2.058c1.136.44 2.433.741 4.333.828 1.903.087 2.511.108 7.358.108 4.847 0 5.454-.021 7.357-.108 1.9-.087 3.199-.387 4.334-.828a8.731 8.731 0 0 0 3.16-2.059 8.753 8.753 0 0 0 2.06-3.159c.438-1.134.739-2.43.828-4.328.086-1.902.108-2.509.108-7.352s-.022-5.451-.108-7.354c-.089-1.898-.39-3.194-.829-4.328a8.752 8.752 0 0 0-2.06-3.16A8.722 8.722 0 0 0 35.7 7.1c-1.138-.44-2.435-.741-4.335-.828-1.904-.087-2.51-.108-7.359-.108zm-1.6 3.214h1.6c4.766 0 5.33.017 7.213.103 1.74.08 2.684.37 3.313.614a5.52 5.52 0 0 1 2.051 1.334 5.534 5.534 0 0 1 1.336 2.05c.244.629.535 1.572.614 3.311.086 1.88.104 2.445.104 7.204 0 4.76-.018 5.324-.104 7.204-.08 1.74-.37 2.683-.614 3.31a5.513 5.513 0 0 1-1.336 2.05 5.52 5.52 0 0 1-2.05 1.333c-.63.245-1.574.535-3.314.615-1.882.085-2.447.104-7.212.104-4.766 0-5.33-.019-7.212-.104-1.74-.08-2.684-.371-3.314-.615a5.528 5.528 0 0 1-2.052-1.334 5.527 5.527 0 0 1-1.336-2.05c-.244-.628-.535-1.571-.614-3.31-.086-1.88-.103-2.445-.103-7.207 0-4.762.017-5.324.103-7.204.08-1.74.37-2.683.614-3.311a5.526 5.526 0 0 1 1.336-2.051 5.539 5.539 0 0 1 2.052-1.335c.63-.245 1.574-.535 3.314-.615 1.647-.074 2.285-.096 5.61-.1zm11.127 2.961a2.14 2.14 0 1 0 2.142 2.14c0-1.182-.96-2.14-2.142-2.14zm-9.526 2.5c-5.061 0-9.165 4.102-9.165 9.16s4.104 9.156 9.165 9.156 9.164-4.099 9.164-9.157-4.103-9.158-9.164-9.158zm0 3.215a5.947 5.947 0 0 1 5.949 5.944 5.947 5.947 0 0 1-5.95 5.945 5.947 5.947 0 0 1-5.948-5.945 5.946 5.946 0 0 1 5.949-5.944z"/></svg>