<svg xmlns="http://www.w3.org/2000/svg" viewBox="0 0 48 48"><path d="M4.7 5.2h28.1v28.1H4.7z" style="fill:#00c7fd;fill-opacity:1" transform="translate(-.632 13.459) scale(.13445)"/><path d="M32.1 151.6V50.4H5.5v101.2zm176.8 1v-24.8c-3.9 0-7.2-.2-9.6-.6-2.8-.4-4.9-1.4-6.3-2.8-1.4-1.4-2.3-3.4-2.8-6-.4-2.5-.6-5.8-.6-9.8V73.2h19.3V50.4h-19.3V10.9h-26.7v97.9c0 8.3.7 15.3 2.1 20.9 1.4 5.5 3.8 10 7.1 13.4 3.3 3.4 7.7 5.8 13 7.3 5.4 1.5 12.2 2.2 20.3 2.2zm152.8-1V3.1H335v148.5ZM137.2 60.3c-7.4-8-17.8-12-31-12-6.4 0-12.2 1.3-17.5 3.9-5.2 2.6-9.7 6.2-13.2 10.8L74 64.9V50.4H47.7v101.2h26.5V97.7v3.7-1.8c.3-9.5 2.6-16.5 7-21 4.7-4.8 10.4-7.2 16.9-7.2 7.7 0 13.6 2.4 17.5 7 3.8 4.6 5.8 11.1 5.8 19.4v53.7h26.9V94.1c.1-14.4-3.7-25.8-11.1-33.8zm184 40.5c0-7.3-1.3-14.1-3.8-20.5-2.6-6.3-6.2-11.9-10.7-16.7-4.6-4.8-10.1-8.5-16.5-11.2-6.4-2.7-13.5-4-21.2-4-7.3 0-14.2 1.4-20.6 4.1-6.4 2.8-12 6.5-16.7 11.2-4.7 4.7-8.5 10.3-11.2 16.7-2.8 6.4-4.1 13.3-4.1 20.6 0 7.3 1.3 14.2 3.9 20.6 2.6 6.4 6.3 12 10.9 16.7 4.6 4.7 10.3 8.5 16.9 11.2 6.6 2.8 13.9 4.2 21.7 4.2 22.6 0 36.6-10.3 45-19.9l-19.2-14.6c-4 4.8-13.6 11.3-25.6 11.3-7.5 0-13.7-1.7-18.4-5.2-4.7-3.4-7.9-8.2-9.6-14.1l-.3-.9h79.5zm-79.3-9.3c0-7.4 8.5-20.3 26.8-20.4 18.3 0 26.9 12.9 26.9 20.3z" style="fill:#0068b5;fill-opacity:1" transform="translate(-.632 13.459) scale(.13445)"/></svg>