<svg xmlns="http://www.w3.org/2000/svg" viewBox="0 0 48 48"><path d="M14.142 21.6v7.75h-2.467v-9.742l5.094.005c2.163 0 2.9 1.526 2.9 2.912v6.826h-2.463v-6.814c0-.58-.3-.937-1.025-.937h-2.039zm16.778-.117c-.843 0-1.496.434-1.768 1.022-.162.354-.218.624-.237 1.057h3.796c-.048-1.057-.528-2.079-1.79-2.079m-2.006 3.758c0 1.263.785 2.191 2.186 2.191 1.09 0 1.631-.302 2.261-.928l1.524 1.455c-.975.963-2 1.548-3.803 1.548-2.362 0-4.623-1.288-4.623-5.042 0-3.207 1.974-5.022 4.567-5.022 2.629 0 4.147 2.125 4.147 4.91v.888h-6.259m-4.538 4.098c-2.01 0-2.863-1.4-2.863-2.782v-9.604h2.464v2.655h1.857V21.6h-1.857v4.803c0 .566.267.88.855.88h1.002v2.056h-1.458M9.48 18.26H6.995V15.9h2.484zm.006 11.192c-1.86-.179-2.493-1.307-2.493-2.61l.003-7.235h2.49v9.845zm29.61-.208c-1.856-.179-2.486-1.306-2.486-2.606V15.566h2.487zm8.693-12.08C45.534 6.18 24.209 5.486 10.463 13.853v.924C24.195 7.72 43.67 7.761 45.444 17.88c.594 3.345-1.292 6.834-4.659 8.839v2.623c4.053-1.483 8.21-6.29 7.003-12.176M22.8 36.387c-9.486.877-19.372-.5-20.755-7.913-.677-3.654.987-7.528 3.196-9.934v-1.287C1.266 20.739-.891 25.153.35 30.368c1.585 6.688 10.07 10.477 23.02 9.219 5.123-.5 11.83-2.148 16.492-4.707v-3.635c-4.23 2.52-11.231 4.602-17.062 5.142" style="fill:#0071c5;stroke-width:.161074"/></svg>