<svg xmlns="http://www.w3.org/2000/svg" viewBox="0 0 48 48"><path fill="#575757" d="M0 0h48v48H0z"/><path fill="#f0f0f0" d="M23.172 42.743a19.004 19.004 0 0 1-5.358-.981C12.1 39.835 7.626 35.332 5.91 29.776c-.74-2.395-.944-5.057-.587-7.694.348-2.572 1.275-5.017 2.75-7.25 1.132-1.714 2.732-3.401 4.428-4.67 3.458-2.589 8.057-3.984 12.41-3.765 2.426.122 4.682.634 6.854 1.557a21.15 21.15 0 0 1 2.596 1.361c1.326.837 2.097 1.453 3.232 2.585 1.243 1.239 2.075 2.276 2.85 3.554a18.282 18.282 0 0 1 1.71 3.787c.149.48.415 1.542.532 2.123.224 1.117.253 1.474.254 3.123 0 1.736-.044 2.289-.274 3.446-.874 4.399-3.335 8.265-7.019 11.028-2.138 1.605-4.69 2.77-7.363 3.362-1.567.347-3.32.492-5.11.42zm-3.29-7.385c0-.05-.007-.193-.015-.32l-.016-.228-.44-.025c-.38-.021-.45-.031-.505-.072-.19-.142-.138-.57.21-1.73.082-.27.314-1.062.516-1.76.202-.697.487-1.671.633-2.165.146-.494.394-1.339.55-1.878.156-.54.339-1.163.406-1.385.067-.221.305-1.034.53-1.806.464-1.595.765-2.6.838-2.795.049-.13.052-.132.094-.09.024.025.36.691.748 1.481.388.79 1.227 2.491 1.865 3.78 1.612 3.257 3.548 7.18 4.056 8.215l.425.868 1.065-.008c.586-.005 1.089-.019 1.118-.031.053-.022.05-.028-.128-.405-.1-.21-.764-1.556-1.475-2.99-4.564-9.215-5.739-11.612-6.364-12.983-.44-.966-.647-1.388-.723-1.477-.078-.092-.153-.1-.222-.024-.113.123-.385.943-.88 2.65-.193.665-.613 2.102-.934 3.195a7048.44 7048.44 0 0 0-2.48 8.47c-.403 1.395-.574 1.959-.692 2.274-.2.538-.241.593-.461.632a2.247 2.247 0 0 1-.317.026c-.206 0-.333.034-.38.102-.04.057-.053.458-.018.514.02.03.232.035 2.188.049l.808.005v-.09zm3.445-19.274c.406-.086.793-.463.885-.86a1.72 1.72 0 0 0-.007-.608 1.226 1.226 0 0 0-.567-.728 1.425 1.425 0 0 0-1.244 0c-.56.3-.764 1.04-.449 1.633.254.474.784.691 1.382.563z"/><path fill="#00b6f0" stroke="#00b6f0" stroke-width=".028" d="M22.409 13.889c-.813.426-.806 1.67.02 2.09.563.288 1.284.105 1.618-.406.38-.57.17-1.383-.44-1.69-.333-.171-.864-.171-1.198.006z"/><path fill="#575757" d="M23.031 17.565c-.078.104-.413 1.087-.668 1.985-.197.681-.662 2.293-1.081 3.702-.131.452-.38 1.304-.557 1.9-.17.596-.42 1.448-.557 1.9-.131.452-.38 1.304-.557 1.9-.17.596-.42 1.448-.557 1.9-.13.452-.373 1.278-.53 1.835-.387 1.356-.61 1.959-.754 2.03-.066.04-.23.066-.367.066-.478 0-.55.053-.53.354l.019.269 1.494.02 1.494.013-.02-.308-.02-.315-.478-.02c-.432-.02-.485-.032-.55-.176-.085-.184 0-.682.242-1.475.085-.268.308-1.022.492-1.67s.432-1.507.556-1.9l.557-1.9a84.66 84.66 0 0 1 .557-1.9l.557-1.9c.557-1.947.806-2.746.859-2.812.032-.032.11.072.183.23.066.157 1.258 2.575 2.64 5.366s2.93 5.91 3.427 6.932l.911 1.848h1.1c.604 0 1.102-.027 1.102-.053s-.492-1.035-1.088-2.24c-3.853-7.752-6.35-12.83-6.768-13.76-.19-.413-.453-.99-.584-1.278-.288-.622-.38-.72-.524-.543z"/></svg>