<svg xmlns="http://www.w3.org/2000/svg" viewBox="0 0 48 48"><path fill="#469ea2" d="m3.279 35.87 20.708 11.957L44.696 35.87V11.957L23.987 0 3.28 11.957z"/><path fill="#6acad1" d="M21.867 2.86 6.83 11.538a4.484 4.484 0 0 1 0 .813l15.013 8.678a3.587 3.587 0 0 1 4.265 0l15.014-8.678a4.484 4.484 0 0 1 0-.813L26.132 2.86a3.587 3.587 0 0 1-4.265 0zm20.709 11.882L27.537 23.52a3.631 3.631 0 0 1-2.12 3.698l.025 17.257a3.838 3.838 0 0 1 .69.394l15.014-8.677a3.631 3.631 0 0 1 2.12-3.698V15.137a4.93 4.93 0 0 1-.69-.395zm-37.177.099a3.838 3.838 0 0 1-.69.394v17.356a3.545 3.545 0 0 1 2.12 3.698l15.013 8.678a3.838 3.838 0 0 1 .69-.394V27.217a3.545 3.545 0 0 1-2.12-3.698z"/><path fill="#469ea2" d="m23.987 2.588 18.515 10.7v21.374l-18.515 10.7-18.514-10.7V13.263L23.987 2.588m0-2.539L3.28 12.006v23.913l20.708 11.957 20.709-11.957V12.006z"/><path fill="#469ea2" d="M24.135 27.981h-.296a3.86 3.86 0 0 1-3.87-3.87v-.296a3.86 3.86 0 0 1 3.87-3.87h.296a3.86 3.86 0 0 1 3.87 3.87v.296a3.86 3.86 0 0 1-3.87 3.87zm0 15.901h-.296a3.858 3.858 0 0 0-3.377 1.972l3.525 2.022 3.526-2.022a3.858 3.858 0 0 0-3.378-1.972zM44.72 31.926h-.147a3.86 3.86 0 0 0-3.871 3.87v.296a3.73 3.73 0 0 0 .493 1.874l3.525-2.047zM41.195 9.984a3.797 3.797 0 0 0-.493 1.874v.296a3.86 3.86 0 0 0 3.87 3.87h.148v-4.018zM23.987.05l-3.525 2.022a3.878 3.878 0 0 0 3.377 1.997h.296a3.858 3.858 0 0 0 3.378-1.973zM6.804 9.96 3.28 12.007v4.018h.148a3.86 3.86 0 0 0 3.87-3.87v-.296a4.1 4.1 0 0 0-.493-1.898zM3.427 31.927h-.148v3.993l3.525 2.047a3.797 3.797 0 0 0 .493-1.874v-.296a3.86 3.86 0 0 0-3.87-3.87z"/><path fill="#083b54" fill-opacity=".15" d="M23.987 48V24.06L3.28 12.105v23.938z"/><path fill="#083b54" fill-opacity=".05" d="M44.72 35.82V11.908L24.012 23.864v23.938z"/></svg>