
<svg xmlns="http://www.w3.org/2000/svg" version="1.1" xmlns:xlink="http://www.w3.org/1999/xlink" preserveAspectRatio="none" x="0px" y="0px" width="402px" height="401px" viewBox="0 0 402 401">
<defs>
<g id="Layer0_0_FILL">
<path fill="#1E1E1E" stroke="none" d="
M 181.85 159.9
L 218.75 129.65
Q 110.45 113.6 129.05 236.3
L 11.15 356.25
Q 11.1 357.7 11.15 359.15 12 395.05 47.8 393.15
L 165.7 273.2
Q 286.1 289.65 270.05 181.95
L 240.8 217.85 181.85 217.85 181.85 159.9 Z"/>

<path fill="#18A058" stroke="none" d="
M 326.25 45.35
Q 325.45 44.65 324.65 44.05
L 292.25 70.2 291.65 70.65 292.25 70.2
Q 264.25 50.05 230.4 44.05
L 226.45 2.15
Q 213.1 0.5 199.05 0.5 188.15 0.5 177.7 1.5 176.65 1.6 175.65 1.7
L 171.25 43.9
Q 170.45 44.05 169.65 44.2 136.95 50.2 109.7 69.45
L 76.9 41.45
Q 66.3 49.75 56.4 59.65 48.65 67.4 42 75.45 41.3 76.25 40.7 77.05
L 68.2 111.2
Q 48.7 139.05 43.05 172.6
L 2.15 176.45
Q 0.5 189.8 0.5 203.85 0.5 214.75 1.5 225.2 1.6 226.25 1.7 227.25
L 43.35 231.6
Q 46.1 246.8 51.7 260.8
L 88.95 220.3
Q 87.3 210.55 87.3 200.15 87.3 153.3 120.45 120.15 153.6 87 200.45 87 247.3 87 280.45 120.15 313.6 153.3 313.6 200.15 313.6 247 280.45 280.15 247.3 313.3 200.45 313.3 194.55 313.3 188.85 312.8
L 146.05 351.9
Q 158.25 356.25 171.35 358.55
L 175.2 399.25
Q 188.55 400.9 202.6 400.9 213.5 400.9 223.95 399.9 225 399.8 226 399.7
L 230.3 358.4
Q 261.95 352.8 288.45 334.85
L 324.45 360.95
Q 334.95 352.55 344.75 342.5 352.35 334.7 358.9 326.5 359.6 325.7 360.2 324.9
L 332.5 291.55
Q 351.75 264.15 357.6 231.25
L 400.05 227.3
Q 400.8 221.4 401.3 215.4 401.65 209.35 401.7 203.15 401.7 202.35 401.7 201.55 401.7 200.7 401.7 199.9 401.7 197.2 401.6 194.5 401.2 185.3 400.15 176.45
L 357.8 172.05
Q 352.15 139.55 333.55 112.4
L 333.3 112.7 333.55 112.4 360.2 80.35
Q 351.95 69.75 342 59.8 334.35 52.05 326.25 45.35 Z"/>
</g>

<path id="Layer0_0_1_STROKES" stroke="#18A058" stroke-width="1" stroke-linejoin="round" stroke-linecap="round" fill="none" d="
M 401.6 194.5
Q 401.7 197.2 401.7 199.9 401.7 200.7 401.7 201.55 401.7 202.35 401.7 203.15 401.65 209.35 401.3 215.4 400.8 221.4 400.05 227.3
L 357.6 231.25
Q 351.75 264.15 332.5 291.55
L 360.2 324.9
Q 359.6 325.7 358.9 326.5 352.35 334.7 344.75 342.5 334.95 352.55 324.45 360.95
L 288.45 334.85
Q 261.95 352.8 230.3 358.4
L 226 399.7
Q 225 399.8 223.95 399.9 213.5 400.9 202.6 400.9 188.55 400.9 175.2 399.25
L 171.35 358.55
Q 158.25 356.25 146.05 351.9
L 188.85 312.8
Q 194.55 313.3 200.45 313.3 247.3 313.3 280.45 280.15 313.6 247 313.6 200.15 313.6 153.3 280.45 120.15 247.3 87 200.45 87 153.6 87 120.45 120.15 87.3 153.3 87.3 200.15 87.3 210.55 88.95 220.3
L 51.7 260.8
Q 46.1 246.8 43.35 231.6
L 1.7 227.25
Q 1.6 226.25 1.5 225.2 0.5 214.75 0.5 203.85 0.5 189.8 2.15 176.45
L 43.05 172.6
Q 48.7 139.05 68.2 111.2
L 40.7 77.05
Q 41.3 76.25 42 75.45 48.65 67.4 56.4 59.65 66.3 49.75 76.9 41.45
L 109.7 69.45
Q 136.95 50.2 169.65 44.2 170.45 44.05 171.25 43.9
L 175.65 1.7
Q 176.65 1.6 177.7 1.5 188.15 0.5 199.05 0.5 213.1 0.5 226.45 2.15
L 230.4 44.05
Q 264.25 50.05 292.25 70.2
L 324.65 44.05
Q 325.45 44.65 326.25 45.35 334.35 52.05 342 59.8 351.95 69.75 360.2 80.35
L 333.55 112.4
Q 352.15 139.55 357.8 172.05
L 400.15 176.45 400.5 176.5
Q 400.6 177.5 400.7 178.55 401.45 186.4 401.6 194.5 401.2 185.3 400.15 176.45
M 333.55 112.4
L 333.3 112.7
M 291.65 70.65
L 292.25 70.2"/>

<path id="Layer0_0_2_STROKES" stroke="#1E1E1E" stroke-width="1" stroke-linejoin="round" stroke-linecap="round" fill="none" d="
M 11.15 356.25
L 129.05 236.3
Q 110.45 113.6 218.75 129.65
L 181.85 159.9 181.85 217.85 240.8 217.85 270.05 181.95
Q 286.1 289.65 165.7 273.2
L 47.8 393.15
Q 12 395.05 11.15 359.15 11.1 357.7 11.15 356.25 Z"/>
</defs>

<g transform="matrix( 1, 0, 0, 1, 0,0) ">
<use xlink:href="#Layer0_0_FILL"/>

<use xlink:href="#Layer0_0_1_STROKES"/>

<use xlink:href="#Layer0_0_2_STROKES"/>
</g>
</svg>
