<svg xmlns="http://www.w3.org/2000/svg" viewBox="0 0 48 48"><path fill="#18a058" d="M21.513.134c-.741.258-1.264.794-1.522 1.575-.092.284-.112.582-.112 1.567 0 .953-.02 1.23-.093 1.29-.053.04-.092.06-.092.04s-.152.007-.344.06a4.86 4.86 0 0 1-.47.125c-.066.02-.185.047-.265.073-.079.033-.172.053-.211.06-.033.006-.113.026-.166.046s-.35.126-.661.225-.589.205-.622.238a.324.324 0 0 1-.159.053c-.1 0-.45.146-.754.304-.106.06-.185.08-.185.047 0-.027-.027-.027-.053.013-.04.06-.682.384-.721.37-.013 0-.305.16-.655.358s-.662.363-.695.363-.06.02-.06.047c0 .06-.376.284-.469.284-.033 0-.457-.397-.94-.88-.873-.86-1.078-1.005-1.746-1.224-.503-.158-1.475.027-1.932.378-.37.277-2.917 2.857-3.082 3.115-.397.635-.497 1.628-.212 2.15.04.073.08.166.086.212.026.152.397.582 1.17 1.356.424.424.775.794.775.814 0 .026-.086.165-.192.317-.1.153-.205.344-.232.424-.026.086-.072.152-.099.152-.033 0-.092.1-.145.212-.047.119-.106.231-.126.251-.033.027-.542 1.039-.562 1.125-.007.02-.06.152-.126.297-.271.609-.681 1.687-.734 1.919a1.52 1.52 0 0 1-.053.165c-.06.133-.311 1.085-.39 1.469-.04.178-.087.317-.113.324-.02 0-.602.013-1.297.02s-1.376.053-1.528.092c-.794.232-1.521 1.059-1.66 1.9-.033.178-.053 1.223-.047 2.314.007 1.866.02 2.005.153 2.362.27.701.747 1.171 1.468 1.456.318.119.51.138 1.647.145l1.29.007.086.33c.047.18.1.384.113.45s.046.179.066.245.046.179.06.245c.099.496.767 2.282.846 2.256.033-.013 1.23-1.191 2.66-2.62l2.6-2.6-.053-.29c-.159-.834-.212-2.806-.1-3.64.034-.218.06-.47.067-.562.066-.655.569-2.408.913-3.175.463-1.032 1.045-2.05 1.468-2.593.08-.093.212-.272.304-.39.563-.748 1.674-1.833 2.514-2.462.768-.575 2.011-1.263 2.911-1.614.794-.31.933-.364 1.026-.383.04-.014.231-.067.43-.126.198-.053.482-.12.628-.146.146-.02.291-.053.318-.072.026-.014.145-.047.264-.06l.377-.06c.741-.119 2.415-.158 3.209-.072 1.978.211 3.618.74 5.358 1.72.258.145.476.284.496.304s.172.126.344.232c.179.112.318.218.318.244 0 .033.033.053.073.053.072 0 .555.39 1.111.893.271.245.384.358.933.96.33.357.94 1.177 1.283 1.706.596.94 1.43 2.838 1.594 3.652.014.053.053.218.086.364.04.145.086.35.106.463.02.106.047.271.066.364.047.238.113.72.14 1.025.04.404.04 2.084 0 2.382-.166 1.33-.192 1.462-.53 2.679-.205.754-.774 2.05-1.21 2.778-.08.126-.192.318-.252.43-.06.106-.132.212-.152.232s-.126.159-.225.318c-.212.33-1.138 1.435-1.422 1.713-.629.595-1.21 1.092-1.601 1.363-1.019.708-1.8 1.144-2.712 1.521-.523.219-1.476.543-1.76.609-1.508.33-2.038.397-3.301.39-1.125 0-1.965-.066-2.349-.192-.092-.026-.734.576-2.738 2.58-1.443 1.443-2.62 2.647-2.62 2.68 0 .026.159.105.35.172.186.06.378.132.41.158.04.027.378.146.761.258.384.12.768.245.86.272.093.033.331.092.53.132.7.152.641.007.648 1.475 0 .807.033 1.343.08 1.43.039.078.052.138.032.138s.04.146.133.324c.178.35.681.933.813.933.047 0 .08.026.08.06s.112.099.251.145c.132.04.285.112.338.152.066.053.774.073 2.315.073 2.03 0 2.256-.013 2.606-.132.205-.067.377-.153.377-.179s.04-.053.093-.053c.132 0 .741-.635.867-.906.238-.496.278-.787.278-2.031.006-.682.013-1.25.033-1.264.013-.013.099-.04.185-.06.926-.191 2.633-.747 3.526-1.15.245-.113.443-.186.443-.16s.027.014.053-.019c.026-.04.284-.185.576-.324.29-.146.542-.278.562-.298a.685.685 0 0 1 .212-.119c.099-.046.304-.165.463-.264.648-.424.549-.457 1.508.502.913.92 1.217 1.138 1.786 1.277.609.152 1.138.08 1.753-.238.265-.139 2.91-2.726 3.222-3.149.51-.708.562-1.727.126-2.554-.08-.152-.55-.681-1.04-1.177l-.899-.906.126-.172c.145-.212.317-.497.503-.847.08-.146.158-.278.185-.298.04-.04.675-1.336.681-1.396.007-.02.08-.198.166-.397s.178-.416.211-.49c.113-.277.47-1.342.563-1.686.125-.457.297-1.125.317-1.257.013-.086.212-.1 1.237-.106 1.33-.013 1.522-.033 1.958-.231.305-.14.464-.252.728-.523.159-.159.496-.688.53-.827.006-.033.046-.205.085-.37.08-.325.06-4.274-.02-4.552-.218-.774-.992-1.528-1.733-1.7-.106-.02-.76-.046-1.448-.053-1.396-.02-1.317.013-1.43-.549-.032-.172-.125-.53-.198-.78-.08-.259-.145-.51-.165-.563-.013-.053-.027-.106-.033-.119-.014-.007-.02-.033-.033-.066-.007-.027-.033-.093-.053-.146-.027-.053-.093-.251-.152-.43a7.172 7.172 0 0 0-.18-.496c-.032-.092-.072-.198-.078-.238-.047-.192-.986-2.057-1.337-2.646l-.397-.675.9-.913c.602-.608.953-1.025 1.052-1.237.45-.953.29-1.985-.417-2.745-.754-.814-2.66-2.666-2.878-2.805-.628-.384-1.548-.483-2.15-.225-.145.06-.277.112-.297.119-.086.007-.57.443-1.264 1.138-.423.423-.82.767-.873.767-.06 0-.165-.066-.245-.145-.073-.08-.132-.12-.132-.08 0 .033-.027.027-.053-.013-.06-.086-1.224-.734-1.833-1.019-.482-.225-1.74-.734-1.852-.754a.636.636 0 0 1-.132-.046c-.033-.027-.245-.093-.463-.159l-.794-.238a9.896 9.896 0 0 0-.76-.192l-.365-.08V3.178l-.006-1.363-.192-.396c-.192-.397-.827-1.092-1-1.092-.052 0-.092-.026-.092-.053 0-.033-.172-.106-.377-.165-.317-.086-.76-.106-2.467-.106-1.939-.007-2.11.006-2.481.132z"/><path fill="#1e1e1e" d="M23.643 14.06c-.007.006-.291.026-.622.052-.337.027-.648.053-.694.073-.047.013-.16.04-.252.06-.701.125-1.872.522-2.48.833-.43.225-1.171.662-1.224.721-.02.027-.153.12-.298.219s-.37.278-.503.397-.31.284-.397.363c-.49.437-1.204 1.304-1.568 1.906-.37.595-.86 1.647-1.005 2.15a4.95 4.95 0 0 1-.205.569c-.033.04-.047.086-.027.105.02.014 0 .133-.033.258-.04.126-.086.344-.106.49s-.053.337-.066.43c-.02.093-.04.582-.053 1.092-.02.813.047 1.62.185 2.282.02.092.053.231.067.317.02.08.099.358.185.609l.145.47-6.86 6.86C4.062 38.086.866 41.322.741 41.5s-.232.364-.232.417c0 .046-.02.086-.053.086-.053 0-.205.318-.245.523a.596.596 0 0 1-.06.191c-.138.225-.191 1.396-.092 1.926.06.337.364 1.19.443 1.263.02.02.08.113.126.205.113.218.767.906 1.072 1.131.727.53 1.62.794 2.567.755.727-.034 1.164-.146 1.832-.49.43-.218.999-.767 7.462-7.224l7-7 .323.127c.18.066.39.132.477.152s.211.046.284.066c.98.225 1.25.258 2.316.258.992.007 1.495-.046 2.282-.225.542-.126 1.541-.463 1.82-.609.072-.04.145-.079.165-.079.152-.026 1.587-.88 1.72-1.025.02-.02.165-.14.33-.272.887-.714 1.753-1.72 2.302-2.672.325-.57.8-1.654.907-2.084.006-.02.026-.08.046-.132.066-.16.245-.966.291-1.29.073-.464.093-.768.1-1.423 0-.668-.054-1.568-.106-1.654a2.408 2.408 0 0 1-.067-.33c-.145-1-1.058-1.542-1.898-1.132-.185.093-.88.735-2.005 1.866-.946.953-1.865 1.846-2.044 1.991a3.306 3.306 0 0 1-3.102.536c-.258-.093-.49-.185-.51-.205a.944.944 0 0 0-.212-.139c-.258-.132-.72-.589-.952-.94-.701-1.038-.76-2.249-.172-3.393.205-.39.516-.734 2.17-2.395 1.058-1.065 1.971-2.024 2.03-2.13.054-.106.093-.377.1-.595a1.26 1.26 0 0 0-.483-1.02c-.225-.191-1.138-.41-1.852-.449-.457-.026-1.158-.04-1.178-.026z"/></svg>
