<svg xmlns="http://www.w3.org/2000/svg" viewBox="0 0 48 48"><path fill="#2b93dd" d="m28.039 26.934-.54 1.063-6.626 13.025a40.008 40.008 0 0 0 9.663-3.14c.84-.395 1.64-.827 2.431-1.265l-4.387-8.62zm0-7.408.54-1.06 6.139-12.03c-3.784-.233-8.064.348-12.447 1.788l5.226 10.242zM13.62 17.548a1.577 1.577 0 0 1-1.578-1.577v-.004l.001-.004-.001-.008v-.006c0-.859.694-1.554 1.554-1.554h.024a1.577 1.577 0 0 1 0 3.153m1.528 18.863h-3.077V20.246h3.077zm10.908-13.12-.143-.279-6.96-13.544c-.501.209-1.001.418-1.5.652C4.7 16.128-2.705 27.215.908 34.883c2.27 4.817 8.365 7.11 15.737 6.679l9.268-17.994zM38.41 6.962l-8.242 16.051-.14.277.142.28 5.786 11.234c9.317-6.236 14.19-15.182 11.125-21.682-1.487-3.154-4.624-5.22-8.67-6.16"/><path fill="#fff" d="m30.03 23.288.141-.277 8.243-16.05c-.19-.044-.369-.1-.56-.139a22.248 22.248 0 0 0-2.516-.351c-.203-.019-.412-.023-.615-.036l-6.139 12.028-.542 1.061-.541-1.061-5.226-10.241c-.18.058-.36.109-.542.171a41.79 41.79 0 0 0-2.257.848c-.173.072-.346.153-.518.226l6.96 13.544.142.279-.142.278L16.65 41.56c.22-.014.433-.02.654-.038a33.63 33.63 0 0 0 2.869-.357c.231-.04.47-.102.704-.145L27.5 27.994l.541-1.063.542 1.063 4.385 8.62c.163-.089.34-.169.5-.26.695-.396 1.37-.805 2.023-1.23.16-.104.309-.217.467-.322l-5.786-11.234zM12.076 36.41h3.076V20.245h-3.076zm1.557-22.04h-.008a1.614 1.614 0 0 0-1.609 1.608l-.001.004v.004a1.616 1.616 0 1 0 1.618-1.617"/></svg>