<svg xmlns="http://www.w3.org/2000/svg" viewBox="0 0 48 48"><path fill="#fff" stroke="#000" stroke-linejoin="round" stroke-width=".797" d="M47.6 24C47.6 10.964 37.034.398 24 .398S.398 10.965.398 23.999 10.965 47.6 23.999 47.6 47.6 37.034 47.6 24z"/><path d="m34.152 39.36 4.306-.052-1.489-26.205s-2.893-2.386-8.026-2.87c-.026.032.179-1.831.053-2.127-.106-.25-2.061-1.28-5.209-1.136v.665c1.442-.035 2.932.149 3.561.471.3.154.335.808.054 1.01-.29.209-2.552.106-2.552.106l-.266 28.119s5.019-.37 7.07-1.701c-.037.018 0-4.465 0-4.465l-2.817.585-.053-1.063 2.923-.479.16-5.9s.507-.424 1.063-.053c-.014.063 1.222 15.096 1.222 15.096z"/><path d="m13.846 39.36-4.305-.052 1.488-26.205s2.894-2.386 8.027-2.87c.026.032-.179-1.831-.054-2.127.107-.25 2.062-1.28 5.21-1.136v.665c-1.442-.035-2.933.149-3.562.471-.3.154-.334.808-.053 1.01.29.209 2.552.106 2.552.106l.265 28.119s-5.018-.37-7.07-1.701c.038.018 0-4.465 0-4.465l2.818.585.053-1.063-2.924-.479-.159-5.9s-.508-.424-1.063-.053c.013.063-1.223 15.096-1.223 15.096z"/></svg>