<svg xmlns="http://www.w3.org/2000/svg" viewBox="0 0 48 48"><path fill="#f7df1e" d="M0 0h48v48H0z"/><path d="m12.621 40.112 3.673-2.223c.709 1.257 1.354 2.32 2.9 2.32 1.482 0 2.417-.58 2.417-2.835V22.037h4.51v15.4c0 4.673-2.738 6.8-6.734 6.8-3.608 0-5.703-1.87-6.766-4.125m15.95-.483 3.673-2.127c.967 1.58 2.224 2.74 4.447 2.74 1.869 0 3.06-.935 3.06-2.224 0-1.547-1.224-2.094-3.286-2.996l-1.127-.484c-3.255-1.385-5.414-3.125-5.414-6.798 0-3.383 2.578-5.961 6.606-5.961 2.867 0 4.93.999 6.412 3.609l-3.513 2.255c-.773-1.385-1.61-1.933-2.9-1.933-1.32 0-2.158.838-2.158 1.933 0 1.353.838 1.901 2.77 2.739l1.128.483c3.835 1.643 5.994 3.319 5.994 7.088 0 4.06-3.19 6.283-7.475 6.283-4.19 0-6.896-1.997-8.217-4.607"/></svg>