<svg xmlns="http://www.w3.org/2000/svg"  viewBox="0 0 48 48" width="48px" height="48px"><path fill="#006064" d="M23 4A19 19 0 1 0 23 42A19 19 0 1 0 23 4Z"/><path fill="#004D40" d="M30.2,38l1.9,1.7c4.3-2.4,7.6-6.3,9.1-11.1c-0.3-2-0.8-4.4-1.3-6.9c0.5-2,0.7-3.8,0.9-5.6c-0.5-1.3-1.1-2.5-1.9-3.6c0,0,0,0,0,0c-1-1.5-2.2-2.8-3.5-3.9c-0.2,0-0.5-0.2-0.7-0.6c-0.3-0.2-0.6-0.4-0.9-0.6c0,0,0,0,0,0c0,0,0,0,0,0c-0.1-0.1-0.3-0.2-0.4-0.2c0,0,0,0,0,0c-0.4-0.2-0.8-0.5-1.1-0.7c-0.2-0.1-0.5-0.2-0.7-0.4c-0.1-0.1-0.2-0.1-0.3-0.2c0,0,0,0,0,0l0,0c-0.6-0.3-1.2-0.6-1.9-0.8c0,0,0,0,0,0C27.2,4.4,25.2,4,23,4c-0.1,0-0.2,0-0.3,0c-0.2,0.1-0.4,0.1-0.6,0c0,0,0,0,0,0c-0.7,0-1.4,0.1-2,0.2c0,0,0,0,0,0c-0.7,0.1-1.3,0.2-2,0.4C20.3,5.4,21.6,6,21.6,6c3.7,1.1,6.9,6.1,9.2,14.7c-0.2,0.5-0.4,1.1-0.6,1.7c-1.4,3.3-6.7,14.2-18.2,14.2l-2.4,0c0,0,0,0,0,0c2.5,2.5,5.7,4.3,9.3,5.1c1.1-0.1,1.5-0.1,0.8,0.1c0,0,0,0,0,0c0.5,0.1,1,0.2,1.6,0.2c0.6,0,1.1,0.1,1.7,0.1c0.5,0,1,0,1.4-0.1C26.5,40.9,28.4,39.5,30.2,38z"/><path fill="#CDDC39" d="M9.2,26.4l-1.8-1.8l-1.6-1l-0.1-3.3l0.4-2.5l1.7-2.4l2.4-2.7l0.2-1.4l-1.2-0.7l2.9-0.6l2.2,1l-0.7,0.8l2.5-0.5l2.3,0.2L15.5,13l-0.9,0.9l0.3,1.7l1,0.2l1-1.7l1.4-0.9l1.4,0.7l0.5,1.3l-2.9,1.4l1,0.7l-3.1,1L13.6,20l-2.4,1.4l-0.1,1.7l-1.6-2.2l-2,0.1l-0.6,2L9.2,26.4z M21.8,7.8l-0.8,1.1l1.3,1.9l-0.3,0.9l1,1l2.6-2.3l-0.6-0.7l0.1-1.1l-1.5-1.1L21.8,7.8z M14.7,35.1l0.5,1.4l1.1,1.6c4.3-1,7.6-3.4,10.1-6.1l-3.8-0.3l-3-1.3L18.5,31l-0.4-1.8l-6.2-2.7L10,26.7l0.3,1.3l-0.7,3.1l1.7,1.5l0.9,1L14.7,35.1z"/><path fill="#7CB342" d="M26.4,32l-2.6-0.2c-2.2,2.1-5.1,3.8-8.7,4.5l0.1,0.2l1.1,1.6C20.6,37,24,34.6,26.4,32z"/><path fill="#FFC107" d="M36.7,24.9c1.6-4,2.2-8.5,2.1-12.5c-1.4-2-3.1-3.8-5.1-5.1c1.2,3.5,1,9.4-1.6,15.7c-1.5,3.6-7.3,15.5-20.1,15.5c2.3,1.6,4.9,2.7,7.7,3.2C27.4,39.3,33.2,33.5,36.7,24.9z"/><path fill="#FFC107" d="M45,33l-5,11l-6.1-5.4l-3.6-3.2l5.4-0.9C32.2,10.2,26.2,5.2,22.1,4c0.3,0,0.6,0,0.9,0c2.1,0,4.1,0.3,5.9,1L29,5c7.3,4.1,10,21.7,10.7,27.1c0.1,1,0.2,1.6,0.2,1.6L45,33z"/><path fill="#FFA000" d="M34.8,29c-0.5,0.9-1,1.8-1.6,2.6c-0.4-2.7-0.9-5.3-1.5-7.6c0.2-0.3,0.3-0.6,0.4-0.9c0.3-0.8,0.6-1.6,0.9-2.4C33.6,23.1,34.2,25.8,34.8,29z M38.6,17.1c-1-3.3-2.3-6.5-4-9.1c0,0-0.1-0.1-0.1-0.1c-0.3-0.2-0.5-0.4-0.8-0.5c0.4,1.2,0.6,2.6,0.7,4.3c1.5,3.1,2.6,6.7,3.4,10.1C38.2,20.2,38.4,18.6,38.6,17.1z"/></svg>