<svg xmlns="http://www.w3.org/2000/svg" viewBox="0 0 48 48"><style>.st1{fill:#fff}</style><g transform="matrix(.48 0 0 .48 -.048 .96)"><ellipse cx="50.1" cy="48" rx="50" ry="48" style="fill:#000b25"/><path d="M36.4 20.6h13.5v5.6H36.4z" class="st1"/><linearGradient id="SVGID_1_" x1="16.637" x2="85.968" y1="59.78" y2="19.752" gradientTransform="matrix(1 0 0 -1 0 98)" gradientUnits="userSpaceOnUse"><stop offset="0" stop-color="#fff"/><stop offset="0" stop-color="#A85DC3"/><stop offset=".147" stop-color="#9864C5"/><stop offset=".434" stop-color="#6F75CC"/><stop offset=".829" stop-color="#2E90D5"/><stop offset="1" stop-color="#0F9DDA"/></linearGradient><path fill="url(#SVGID_1_)" d="M85.9 51.5c-.5-18.3-17.8-35.6-35.7-35.8-18-.2-35.7 16.7-36.6 34.9-.4 8.6.2 9.4 8.9 10.9.9 9.6-.5 15-6.5 21.7.8.7 1.6 1.4 2.5 2.1.2-.2.4-.4.6-.7 5.3-7.3 7.9-10.3 7.3-18.8-.4-5.6 1.2-8.3 7.2-7.9.9 11.2-1.5 16.8-6.1 27.3-.7 1.6-1.5 3.1-2.4 4.4 1.1.6 2.3 1.2 3.4 1.8 1.2-2.1 2.2-4.4 2.9-6.8 2.7-9.6 5-14.3 6-24.4.4-3.8 1.4-5.3 5.7-4.4 1.4 12.2-1.3 18.7-5 30.5-.9 2.7-1.9 5.2-3.1 7.6 1.1.3 2.3.7 3.5.9.7-1.5 1.4-3 2-4.6C45 78.4 47.9 71.6 47 59.1c-.3-4.6 1.5-5.4 5-4 .5 9-1.1 12.1-.1 20.7.9 7.5 2.9 14.1 6 19.8l3.3-.6c-5.3-10.5-5.1-23.8-4.9-39 4.6-1 5.8.3 6.1 4.2.5 8.8-.7 12.2 1.1 20.9.9 4.3 2.6 8.3 5.1 11.7 1.2-.5 2.4-.9 3.5-1.5-7.6-8.8-6.2-19.6-6.1-33.6 7.4 1.5 6.7 1.5 7.4 7.9.8 7.9 1.3 9 3.5 16.6.3 1 1.3 2.8 2.6 4.8 1-.7 2-1.4 2.9-2.2-5.4-11.1-6.7-15.6-4.6-23.6 7.6-.9 8.3-1.7 8.1-9.7zm-65.4-.2c-2.1-9.1 5.7-23.1 12.9-24.1-4.1 7.7-8.5 15.9-12.9 24.1zm16.4-25c-.2-.9-.5-1.9-.7-2.8 4.3-1 8.5-2.1 12.8-3.1.2.9.5 1.8.7 2.8-4.3 1.1-8.5 2.1-12.8 3.1z" style="fill:url(#SVGID_1_)"/><path d="M20.5 51.3c-2.1-9.1 5.7-23.1 12.9-24.1-4.1 7.7-8.5 15.9-12.9 24.1z" class="st1"/><path d="M50.1 29.5c-1.7 0-3.2.5-4.5 1.4h.6c2.2 0 3.9 1.8 3.9 3.9s-1.8 3.9-3.9 3.9c-1.8 0-3.3-1.2-3.8-2.8-.1.5-.1.9-.1 1.4 0 4.3 3.5 7.8 7.8 7.8s7.8-3.5 7.8-7.8-3.5-7.8-7.8-7.8z" style="fill-rule:evenodd;clip-rule:evenodd;fill:#1d1d1b"/><circle cx="46.2" cy="34.6" r="3.9" style="fill-rule:evenodd;clip-rule:evenodd;fill:#fff"/></g></svg>