<svg xmlns="http://www.w3.org/2000/svg" xmlns:inkscape0="https://www.inkscape.org/namespaces/inkscape" xmlns:sodipodi0="https://sodipodi.sourceforge.net/DTD/sodipodi-0.dtd" inkscape0:version="0.48.0 r9654" sodipodi0:docname="logo.svg" xml:space="preserve" viewBox="0 0 48 48"><sodipodi0:namedview inkscape0:current-layer="g10" inkscape0:cx="-65.859" inkscape0:cy="172.531" inkscape0:pageopacity="0" inkscape0:pageshadow="2" inkscape0:window-height="844" inkscape0:window-maximized="0" inkscape0:window-width="1500" inkscape0:window-x="2189" inkscape0:window-y="496" inkscape0:zoom="1" bordercolor="#666666" borderopacity="1" gridtolerance="10" guidetolerance="10" objecttolerance="10" pagecolor="#ffffff" showgrid="false"/><g inkscape0:groupmode="layer" inkscape0:label="ink_ext_XXXXXX"><path inkscape0:connector-curvature="0" fill="#d33833" fill-rule="evenodd" d="M40.836 23.13c0 9.51-7.537 17.22-16.835 17.22-9.298 0-16.835-7.71-16.835-17.22 0-9.51 7.537-17.22 16.835-17.22 9.298 0 16.835 7.71 16.835 17.22"/><path inkscape0:connector-curvature="0" fill="#ef3d3a" d="M7.852 27.394S6.632 9.437 23.179 8.924L22.025 7l-8.979 3.014-2.565 2.95-2.245 4.297-1.282 5.002.385 3.335"/><path inkscape0:connector-curvature="0" fill="#231f20" d="M12.47 11.382c-2.954 3.023-4.782 7.195-4.782 11.812 0 4.615 1.828 8.788 4.782 11.81 2.955 3.022 7.028 4.886 11.53 4.886 4.503 0 8.576-1.864 11.53-4.886 2.954-3.022 4.782-7.195 4.782-11.81 0-4.617-1.828-8.79-4.782-11.812-2.954-3.02-7.027-4.885-11.53-4.886-4.502 0-8.575 1.865-11.53 4.886zm-.748 24.352c-3.139-3.21-5.08-7.647-5.08-12.54 0-4.896 1.941-9.332 5.08-12.542C14.861 7.44 19.205 5.45 24 5.45c4.795-.001 9.14 1.99 12.278 5.2 3.14 3.211 5.08 7.648 5.08 12.542s-1.94 9.331-5.08 12.541C33.14 38.945 28.795 40.936 24 40.936c-4.795 0-9.14-1.99-12.278-5.201"/><g fill-rule="evenodd"><path inkscape0:connector-curvature="0" fill="#f0d6b7" d="m31.087 23.225-2.566.384-3.463.385-2.244.064-2.18-.064-1.669-.513-1.475-1.603-1.154-3.27-.257-.706-1.539-.513-.898-1.476-.64-2.116.705-1.86 1.667-.577 1.347.641.641 1.411.77-.128.256-.32-.256-1.476-.064-1.86.384-2.565-.015-1.465 1.17-1.87 2.052-1.475 3.592-1.54 3.976.578 3.463 2.501 1.603 2.566 1.027 1.86.256 4.617-.77 3.976-1.41 3.528-1.347 1.86"/><path inkscape0:connector-curvature="0" fill="#335061" d="m28.907 34.32-9.171.385v1.539l.77 5.387-.385.45-6.414-2.181-.449-.77-.64-7.247-1.476-4.361-.32-1.026 5.13-3.527 1.603-.642 1.411 1.732 1.219 1.09 1.41.449.642.192.77 3.335.577.706 1.475-.513-1.026 1.988 5.58 2.63-.706.384"/><path inkscape0:connector-curvature="0" fill="#6d6b6d" d="m13.707 11.937 1.667-.578 1.347.642.641 1.41.77-.128.192-.77-.384-1.474.384-3.528-.32-1.924 1.154-1.346 2.501-1.989-.705-.962-3.527 1.732-1.476 1.154-.833 1.796-1.283 1.732-.385 2.052.257 2.18"/><path inkscape0:connector-curvature="0" fill="#dcd9d8" d="M16.336 5.909s.962-2.373 4.81-3.528.193-.833.193-.833L17.17 3.15l-1.603 1.603-.706 1.283 1.475-.128m-1.924 5.58s-1.347-4.49 3.784-5.13l-.192-.77-3.528.834-1.026 3.335.257 2.18.705-.449"/></g><g fill="#f7e4cd"><path inkscape0:connector-curvature="0" fill-rule="evenodd" d="m16.465 17.453.84-.814s.378.044.442.493.257 4.49 3.014 6.67c.252.199-2.052-.32-2.052-.32l-2.052-3.207m11.607-4.04s.15-1.944.673-1.795.524.673.524.673-1.271.823-1.197 1.122"/><path inkscape0:connector-curvature="0" d="M33.588 9.116s-1.057.223-1.154 1.154c-.098.932 1.154.193 1.347.129M25.828 9.18s-1.411.192-1.411 1.09c0 .898 1.603.833 2.052.449"/><g fill-rule="evenodd"><path inkscape0:connector-curvature="0" d="M17.106 13.349s-2.437-1.475-2.694-.064c-.256 1.41-.834 2.437.385 3.912l-.834-.257-.77-1.988-.256-1.924 1.475-1.54 1.668.13.962.769.064.962m1.154-4.041s1.09-5.643 6.606-6.734c4.54-.897 6.926.193 7.824 1.219 0 0-4.04-4.81-7.888-3.335-3.848 1.475-6.67 4.169-6.606 5.9.11 2.95.064 2.95.064 2.95m14.88-4.875s-1.86-.064-1.924 1.603c0 0 0 .257.128.513 0 0 1.475-1.667 2.373-.77"/><path inkscape0:connector-curvature="0" d="M24.995 6.724s-.32-2.56-2.502-1.071c-1.41.962-1.283 2.309-1.026 2.565.256.257.187.773.382.419.195-.355.13-1.51.836-1.83.706-.32 1.862-.679 2.31-.083"/></g></g><path inkscape0:connector-curvature="0" fill="#49728b" fill-rule="evenodd" d="m18.966 24.058-6.029 2.693s2.501 9.941 1.219 13.02l-.898-.321-.064-3.784-1.668-7.183-.705-1.988 6.285-4.233 1.86 1.796m.62 5.499.855 1.043v3.848h-1.026s-.128-2.693-.128-3.014c0-.32.128-1.475.128-1.475m.192 5.067-2.886.128.834.577 2.052.32"/><g fill-rule="evenodd"><path inkscape0:connector-curvature="0" fill="#335061" d="m29.484 34.384 2.373-.064.577 5.9-2.437.321-.513-6.157"/><path inkscape0:connector-curvature="0" fill="#335061" d="m30.125 34.384 3.591-.192s1.475-3.72 1.475-3.912 1.283-5.387 1.283-5.387l-2.886-3.015-.577-.513-1.54 1.54v5.964l-1.346 5.515"/><path inkscape0:connector-curvature="0" fill="#49728b" d="m31.728 33.935-2.245.45.32 1.795c.834.385 2.245-.641 2.245-.641m-.255-12.826 4.49 3.335.128-1.54-3.4-3.142-1.218 1.347"/><path inkscape0:connector-curvature="0" fill="#fff" d="m21.833 47.02-1.328-5.389-.66-3.975-.11-2.951 6.01-.32h3.739l-.34 6.734.577 5.195-.064.962-4.874.384-2.95-.64"/><path inkscape0:connector-curvature="0" fill="#dcd9d8" d="M28.65 34.32s-.321 6.67.64 11.416c0 0-1.923 1.218-4.745 1.539l5.387-.192.641-.385-.77-10.518-.192-2.245"/><path inkscape0:connector-curvature="0" fill="#fff" d="m32.543 39.708 2.502-.706 4.745-.256.706-2.18-1.283-3.784-1.475-.193-2.052.641-1.97.962L32.673 34l-.815.32"/><path inkscape0:connector-curvature="0" fill="#dcd9d8" d="M32.497 38.425s1.668-.77 1.924-.706l-.705-3.527.834-.32s.577 3.334.577 3.719c0 0 3.591.192 3.912.192 0 0 .77-1.475.577-3.014l.706 2.052.064 1.155-1.026 1.539-1.155.256-1.924-.064-.641-.833-2.245.32-.705.257"/></g><path inkscape0:connector-curvature="0" fill="#fff" d="m29.977 33.872-1.411-3.592-1.475-2.116s.32-.898.77-.898h1.475l1.41.513-.128 2.373-.641 3.72"/><path inkscape0:connector-curvature="0" fill="#dcd9d8" fill-rule="evenodd" d="M30.254 32.653s-1.796-3.463-1.796-3.977c0 0 .32-.77.77-.577s1.41.706 1.41.706v-1.219l-2.18-.449-1.475.193 2.501 5.9.513.064"/><path inkscape0:connector-curvature="0" fill="#fff" d="m22.41 24.189-1.777-.194-1.667-.513v.577l.814.899 2.566 1.154"/><path inkscape0:connector-curvature="0" fill="#dcd9d8" fill-rule="evenodd" d="M19.543 24.381s1.988.834 2.63.641l.063.77-1.795-.385-1.09-.77.192-.256"/><path inkscape0:connector-curvature="0" fill="#d33833" fill-rule="evenodd" d="M32.536 27.484c-1.089-.032-2.072-.16-2.932-.404.058-.353-.051-.699.036-.953.24-.173.642-.17 1.005-.21a1.748 1.748 0 0 0-1.116-.127c-.008-.245-.118-.396-.185-.588.612-.218 2.056-1.65 2.869-1.176.387.225.551 1.513.581 2.14.025.52-.047 1.043-.258 1.318"/><path inkscape0:connector-curvature="0" fill="none" stroke="#d33833" stroke-width=".385" d="M32.536 27.484c-1.089-.032-2.072-.16-2.932-.404.058-.353-.051-.699.036-.953.24-.173.642-.17 1.005-.21a1.748 1.748 0 0 0-1.116-.127c-.008-.245-.118-.396-.185-.588.612-.218 2.056-1.65 2.869-1.176.387.225.551 1.513.581 2.14.025.52-.047 1.043-.258 1.318z"/><path inkscape0:connector-curvature="0" fill="#d33833" fill-rule="evenodd" d="m27.333 25.705-.01.248c-.34.223-.888.22-1.26.408.55.024.982.157 1.356.343l-.024.622c-.623.427-1.192 1.062-1.925 1.461-.347.19-1.563.676-1.932.59-.209-.048-.228-.307-.311-.552-.178-.522-.587-1.354-.623-2.141-.045-.994-.146-2.66.925-2.455.865.165 1.87.563 2.539.928.408.224.645.5 1.265.548"/><path inkscape0:connector-curvature="0" fill="none" stroke="#d33833" stroke-width=".385" d="m27.333 25.705-.01.248c-.34.223-.888.22-1.26.408.55.024.982.157 1.356.343l-.024.622c-.623.427-1.192 1.062-1.925 1.461-.347.19-1.563.676-1.932.59-.209-.048-.228-.307-.311-.552-.178-.522-.587-1.354-.623-2.141-.045-.994-.146-2.66.925-2.455.865.165 1.87.563 2.539.928.408.224.645.5 1.265.548z"/><path inkscape0:connector-curvature="0" fill="#d33833" fill-rule="evenodd" d="M27.95 26.892c-.094-.542-.204-.696-.162-1.168 1.444-.963 1.715 1.653.163 1.168"/><path inkscape0:connector-curvature="0" fill="none" stroke="#d33833" stroke-width=".385" d="M27.95 26.892c-.094-.542-.204-.696-.162-1.168 1.444-.963 1.715 1.653.163 1.168z"/><path inkscape0:connector-curvature="0" fill="#ef3d3a" fill-rule="evenodd" d="M30.042 27.33s-.449-.641-.128-.833.641 0 .834-.32 0-.514.064-.899.385-.449.705-.513 1.219-.192 1.347.128l-.385-1.154-.77-.257-2.436 1.411-.129.706v1.41m-5.836 2.438c-.077-1.001-.159-2-.25-3-.135-1.494.359-1.233 1.653-1.233.198 0 1.217.236 1.29.385.35.714-.585.555.403 1.094.834.455 2.307-.276 1.97-1.287-.189-.224-.982-.07-1.267-.217l-1.503-.78c-.637-.33-2.11-.812-2.79-.35-1.722 1.17.108 4.097.723 5.319"/><path inkscape0:connector-curvature="0" fill="#231f20" fill-rule="evenodd" d="M24.995 6.724c-1.748-.407-2.616.732-3.146 1.913-.473-.115-.285-.758-.166-1.086.313-.86 1.574-2.006 2.604-1.85.444.066 1.044.472.708 1.023m8.518 1.99.083.003c.395.82.737 1.69 1.235 2.414-.334.778-2.528 1.466-2.494.07.475-.208 1.294-.043 1.714-.307-.243-.668-.594-1.236-.538-2.18m-7.623.021c.375.687.497 1.409 1.03 1.928.24.234.706.519.475 1.17-.054.152-.45.494-.677.561-.833.246-2.774.051-2.116-.987.688.032 1.614.447 2.129-.053-.395-.632-1.1-1.882-.84-2.619M33.2 15.72c-1.255.805-2.653 1.68-4.708 1.478-.439-.382-.606-1.232-.18-1.793.222.382.083 1.084.702 1.19 1.166.2 2.523-.713 3.361-1.032.52-.877-.045-1.2-.513-1.764-.96-1.156-2.246-2.59-2.199-4.32.388-.281.421.43.477.558.5 1.172 1.761 2.671 2.68 3.675.227.247.599.484.64.647.12.475-.31 1.044-.26 1.36m-16.533-.849c-.393-.224-.487-1.212-.948-1.24-.66-.04-.54 1.282-.537 2.055-.454-.412-.534-1.68-.2-2.333-.38-.186-.55.206-.76.345.27-1.969 2.879-.913 2.445 1.174m17.331 1.668c-.584 1.11-1.41 2.335-3.123 2.37-.034-.359-.061-.905.002-1.12 1.31-.127 2.118-.793 3.12-1.25m-8.206.719c1.093.575 3.1.637 4.586.593.08.325.078.727.08 1.124-1.908.095-4.165-.377-4.666-1.717m-.207 1.072c.755 1.897 3.352 1.678 5.542 1.626-.097.246-.306.537-.565.643-.702.285-2.638.502-3.612-.016-.617-.328-1.014-1.07-1.353-1.505-.163-.21-.977-.747-.012-.748"/><path inkscape0:connector-curvature="0" fill="#81b0c4" fill-rule="evenodd" d="M33.109 28.793c-.887 1.519-1.735 3.078-2.787 4.418.441-1.297.63-3.467.697-5.121.922-.432 1.712.097 2.09.703"/><path inkscape0:connector-curvature="0" fill="#231f20" fill-rule="evenodd" d="M37.879 34.25c-.993.2-1.69 1.164-2.659 1.102.532-.75 1.465-1.066 2.659-1.101m.438 1.553c-.809.086-1.759.217-2.58.15.389-.594 1.886-.39 2.58-.15m.279 1.34c-.909.02-2.04.001-2.903-.071.51-.55 2.314-.204 2.903.07"/><g fill-rule="evenodd"><path inkscape0:connector-curvature="0" fill="#dcd9d8" d="M31.397 40.809c.13 1.142.583 2.299.526 3.55-.503.169-.791.317-1.465.316-.048-1.063-.19-2.687-.147-3.7.331.021.82-.237 1.086-.166"/><path inkscape0:connector-curvature="0" fill="#f0d6b7" d="M29.93 23.979c-.456.298-.845.67-1.283.988-.973.048-1.503-.067-2.218-.625.012-.045.084-.025.086-.08 1.041.464 2.365-.19 3.416-.283"/><path inkscape0:connector-curvature="0" fill="#81b0c4" d="M24.467 31.074c.286-1.239 1.407-1.88 2.424-2.563 1.05 1.333 1.69 3.047 2.393 4.701-1.662-.5-3.36-1.314-4.817-2.138"/><path inkscape0:connector-curvature="0" fill="#231f20" d="M30.312 40.974c-.043 1.014.1 2.638.147 3.701.673.001.962-.147 1.465-.317.057-1.25-.396-2.407-.527-3.55-.266-.07-.754.188-1.085.166zm-10.489-5.762c.444 4.083 1.088 7.516 2.267 11.132 2.62.795 5.776.864 8.091.147-.425-2.041-.24-4.526-.488-6.703-.187-1.637-.091-3.284-.348-4.954-2.805-.584-6.77-.137-9.522.378zm10.185-.353c-.024 1.754.079 3.484.213 5.24.673-.101 1.13-.169 1.756-.306-.204-1.69-.179-3.593-.592-5.088-.479.005-.9-.005-1.377.154zm3.416-.282c-.32-.074-.691-.003-.997.003.144 1.43.492 3.007.615 4.507.48.015.737-.211 1.132-.288.02-1.317-.115-3.132-.75-4.222zm5.173 4.726c1.001-.244 1.63-1.47 1.35-2.73-.187-.846-.522-2.44-.88-2.982-.265-.4-.983-.925-1.556-.558-.932.597-2.575.77-3.255 1.493.341 1.135.447 2.694.588 4.133 1.164.072 2.598-.32 3.566.096-.676.22-1.554.221-2.138.54.478.231 1.596.185 2.325.008zm-9.313-6.09c-.703-1.655-1.342-3.37-2.393-4.702-1.017.682-2.138 1.324-2.424 2.563 1.457.824 3.155 1.637 4.817 2.138zm1.734-5.123c-.067 1.654-.255 3.824-.696 5.12 1.051-1.339 1.9-2.898 2.786-4.417-.378-.606-1.168-1.135-2.09-.703zm-1.966-.699c-.398-.043-.736.458-1.255.242-.118.13-.226.273-.347.401 1.144 1.38 1.664 3.336 2.548 4.957.474-1.557.42-3.263.524-4.962-.651.041-1.013-.59-1.47-.638zm-1.264-1.668c-.042.472.068.627.163 1.168 1.552.486 1.281-2.13-.163-1.168zm-1.721-.565c-.67-.366-1.674-.764-2.539-.929-1.07-.205-.97 1.461-.925 2.455.036.787.445 1.62.623 2.142.083.244.102.503.31.552.37.086 1.586-.4 1.933-.59.733-.4 1.302-1.035 1.925-1.461l.024-.622a3.277 3.277 0 0 0-1.357-.343c.373-.188.922-.185 1.262-.408l.01-.249c-.621-.047-.858-.324-1.266-.547zm-6.39-1.16c-.556.563 1.557 1.331 2.23 1.373-.004-.357.203-.693.16-.95-.798-.14-1.848-.047-2.39-.424zm6.84.264c-.003.055-.075.035-.087.08.715.558 1.245.673 2.218.625.438-.318.827-.69 1.284-.988-1.052.094-2.375.747-3.416.283zm6.278 1.904c-.03-.627-.195-1.915-.582-2.14-.812-.474-2.257.958-2.868 1.176.066.192.176.343.184.588a1.752 1.752 0 0 1 1.117.126c-.363.04-.765.038-1.005.211-.088.254.021.6-.037.953.86.243 1.844.372 2.932.404.212-.275.284-.799.259-1.318zm-14.053-1.624c-.175-.124-1.354-1.659-1.516-1.595-2.134.842-4.13 2.297-5.914 3.674 1.7 3.649 2.387 8.119 2.509 12.427 1.947.911 3.658 2.225 6.302 2.362-.306-2.164-.585-4.095-.76-6.132-.663-.28-1.616.012-2.238-.087-.005-.75.95-.328 1.03-.832.059-.38-.526-.41-.336-1.01.486.177.741.567 1.26.714.473-1.036-.007-2.87.061-3.735.013-.162.081-.9.446-.771.322.115-.019 1.963.016 2.782.033.755-.09 1.486.215 1.96a72.987 72.987 0 0 1 7.913-.649c-.608-.26-1.33-.507-2.122-.954-.43-.242-1.782-.745-1.906-1.153-.198-.65.518-.996.64-1.553-1.288.703-1.54-.674-1.845-1.65-.276-.883-.434-1.543-.501-2.053-1.111-.53-2.298-1.066-3.255-1.745zm12.925-1.41c1.778-.862 2.099 3.224 1.402 4.54.107.392.478.542.63.895-.993 1.778-2.095 3.437-3.108 5.194.753-.469 1.83-.084 2.715-.435.324-.128.559-.87.804-1.463.675-1.632 1.383-3.69 1.699-5.248.07-.355.265-1.129.221-1.445-.077-.565-.845-.985-1.235-1.335-.72-.646-1.172-1.214-1.922-1.818-.305.449-.957.75-1.206 1.116zM14.674 7.363c-.847.932-.67 2.68-.567 3.922 1.532-.963 3.565.076 3.546 1.715.73-.02.273-.913.14-1.489-.432-1.88.729-3.924.053-5.644-1.312.1-2.39.635-3.171 1.496zm6.064-5.411c-1.919.543-4.377 1.937-5.165 3.66.61-.088 1.034-.396 1.636-.434.227-.015.526.095.787.03.521-.129.961-1.298 1.354-1.732.384-.425.844-.606 1.16-.994.202-.097.502-.09.513-.395-.088-.094-.18-.165-.285-.135zm9.986.511c-1.991-1.123-5.362-1.968-7.48-.913-1.709.853-4.019 2.262-4.807 4.05.736 1.723-.218 3.303-.278 5.053-.033.932.438 1.745.474 2.759-.252.415-1.02.466-1.553.438-.18-.897-.493-1.905-1.417-2.006-1.307-.143-2.263.938-2.322 2.069-.07 1.329 1.021 3.532 2.568 3.38.597-.06.744-.659 1.395-.653.353.704-.544.925-.636 1.429-.024.13.074.638.131.877.281 1.16.907 2.663 1.524 3.546.782 1.121 2.32 1.29 3.973 1.4.295-.636 1.383-.584 2.092-.417-.85-.337-1.64-1.153-2.294-1.875-.752-.828-1.513-1.717-1.552-2.8 1.421 1.972 2.595 3.693 5.179 4.56 1.955.656 4.238-.3 5.74-1.355.624-.439.996-1.134 1.44-1.771 1.657-2.385 2.43-5.789 2.26-9.088-.07-1.36-.066-2.717-.523-3.632-.477-.958-2.09-1.814-3.035-.948-.176-.93.785-1.507 1.914-1.172-.805-1.038-1.65-2.286-2.793-2.931zm3.71 30.701c1.555-.773 4.463-2.082 5.438.003.36.769.782 2.068.969 2.86.263 1.12-.286 3.472-1.436 3.848-1.016.332-2.202.311-3.426.066a1.866 1.866 0 0 1-.416-.547c-.874-.034-1.692.047-2.383.406.066.646-.371.75-.781.883-.304 1.205.607 2.778.39 3.876-.156.783-1.12.904-1.827 1.05-.023.435.031.798.08 1.166-.162.596-.888.936-1.576 1.019-2.262.272-5.697.394-7.873-.389-.608-1.49-1.086-3.3-1.592-5.002-2.122.227-3.839-.915-5.457-1.664-.56-.26-1.335-.403-1.545-.849-.203-.431-.12-1.259-.17-2.04-.128-1.997-.238-3.923-.765-5.967-.237-.918-.65-1.727-.937-2.61-.266-.82-.731-1.832-.852-2.65-.18-1.21.96-1.278 1.689-1.802 1.127-.812 2.011-1.26 3.232-1.993.362-.216 1.452-.765 1.576-1.018.246-.501-.423-1.208-.602-1.6-.284-.622-.431-1.15-.472-1.763a3.4 3.4 0 0 1-2.269-1.458c-.775-1.137-1.313-3.24-.642-4.841.053-.126.315-.374.354-.567.076-.382-.144-.888-.158-1.294-.07-2.08.352-3.872 1.752-4.499.569-2.264 2.603-3.017 4.52-4.142.716-.421 1.506-.69 2.322-.99 2.926-1.077 7.415-.874 9.844.963 1.03.779 2.675 2.423 3.264 3.614 1.555 3.143 1.445 8.396.357 12.22-.146.513-.358 1.267-.654 1.884-.207.43-.848 1.292-.77 1.672.08.393 1.463 1.443 1.759 1.73.534.514 1.548 1.198 1.63 1.848.089.691-.304 1.638-.503 2.305-.666 2.228-1.316 4.286-2.07 6.272"/><path inkscape0:connector-curvature="0" fill="#f7e4cd" d="M24.053 17.743c.084-.112.548-.283 1.198.03 0 0-.77.128-.706 1.411l-.32-.064s-.332-1.163-.172-1.377"/><path inkscape0:connector-curvature="0" fill="#1d1919" d="M29.677 28.773a.353.353 0 1 1-.706 0 .353.353 0 0 1 .706 0m.352 1.635a.353.353 0 1 1-.706 0 .353.353 0 0 1 .706 0"/></g></g></svg>