<svg xmlns="http://www.w3.org/2000/svg" viewBox="0 0 48 48"><path fill="#40be46" fill-rule="evenodd" d="m46.264 32.762-1.179-1.883c-.653.62-1.452.974-2.232.974-.357 0-.546-.044-1.326-.243-.778-.222-1.326-.289-1.936-.289-2.759 0-4.548 1.507-4.548 3.834 0 1.684.758 2.726 2.316 3.147-.631.155-1.326.488-1.642.865-.231.265-.336.62-.336 1.04 0 .356.084.666.21.931.147.244.358.444.61.554.505.2 1.327.332 2.59.355.653 0 1.053.022 1.2.022.779.045 1.179.177 1.474.333.294.177.505.576.505 1.019 0 .443-.274.886-.674 1.152-.379.266-.99.377-1.79.377-1.305 0-2.02-.488-2.02-1.396 0-.4.041-.488.126-.732h-2.61c-.106.222-.253.532-.253 1.153 0 .776.294 1.44.884 2.016.969.954 2.547 1.219 4.084 1.219 1.684 0 3.306-.398 4.253-1.463.589-.665.862-1.396.862-2.348 0-1.02-.294-1.795-.925-2.416-.759-.732-1.621-.997-3.263-1.02l-1.517-.021c-.294 0-.462-.11-.462-.266 0-.31.4-.577 1.115-.93.211.021.295.021.42.021 2.296 0 3.98-1.418 3.98-3.368 0-.754-.21-1.33-.632-1.861.359.044.464.066.737.066.779 0 1.368-.244 1.98-.842zM48 21.764c0-1.274-.786-2.455-2.122-3.425.12.39.189.785.189 1.19 0 3.648-5.096 6.77-12.318 8.063a22.65 22.65 0 0 0 2.536.143c6.47 0 11.716-2.674 11.716-5.971zm-4.164-1.985c0 3.502-7.833 6.34-17.496 6.34-9.662 0-17.495-2.838-17.495-6.34 0-1.103.777-2.14 2.144-3.043a2.483 2.483 0 0 0-.323 1.199c0 3.235 6.89 5.857 15.388 5.857 8.499 0 15.389-2.622 15.389-5.857 0-.612-.249-1.203-.706-1.758 1.951 1.024 3.098 2.264 3.098 3.602zm-33.058-5.605c-3.53.862-5.926 2.55-5.926 4.493 0 1.202.92 2.306 2.455 3.178-.462-.738-.713-1.514-.713-2.317 0-2.02 1.565-3.877 4.184-5.354zM45.29 8.48c-.324-.39-.769-.39-1.12-.072-.339.45-.348.769-.108 1.017.257.265.788.494 1.171.19.383-.305.382-.744.057-1.135zm-4.445 1.456c1.095-1.528 3.19 1.173.815 1.55-.95.15-2.555 1.19-3.244 2.83-.972 2.429-.551 4.226-2.223 5.307-3.565 2.303-14.548 3.173-19.277.218-3.707-2.317-2.435-5.989-13.039-14.081-1.387-1.058.256-2.181 1.294-1.462 1.039.72.088.91 2.183 3.007 4.231 4.232 4.189.427 4.857 1.866 1.405 3.027 4.505 6.075 4.505 6.075 3.104 2.021 5.583 2.463 10.162-.636 2.904-1.964 1.716 3.125 8.837-.543 2.598-1.338 2.49-.45 5.13-4.131zm-30.9-3.883c-.18-.253-.713-.369-1.07-.01-.356.36-.181.714.025.927.295.306.796.28 1.094.115.3-.166.237-.63-.05-1.032zm-7.362-2.81c.232-.255.526-.738.021-1.663C2.236.904 1.018.627.59.885c-.429.26-.953 1.259-.235 1.698.925.568 1.53 1.425 2.229.66zm43.903-1.255c-.326-.473-1.013-.388-1.694.106-.68.493-.552 1.431-.327 1.65.395.383 1.447.124 1.692-.15.632-.707.654-1.133.329-1.606zM42.568 4.99c.975-.46 2.507 1.034.29 2.155-3.17 1.604-3.506 3.593-5.509 4.858-3.368 2.127-2.337.085-7.755-.687-2.086-.298-2.758 2.03-4.386 1.357-3.755-1.55-6.378-1.254-8.81.724-.88-.388-1.801-1.887-2.162-2.488.986-.966.587-2.58.03-3.465-.556-.885-1.23-.634-1.969-1.448-.74-.814.28-2.936 1.227-1.306 3.551 6.11 5.883 3.569 8.783 3.204 2.784-.35 5.245 1.167 6-3.128.124-.702.807-.87.877.29.07 1.163.506 3.991 2.036 4.357 1.53.364 2.746-.359 3.104-.76.359-.402.546-.343.703.653.158.996.546 2.373 2.695.84 4.396-3.137 3.138-4.35 4.846-5.156zM29.504 2.12c.014-.502-.213-.816-.709-.799-.494.018-.672.267-.656.752.124.917.278.895.606.98.328.084.745-.431.76-.933zm-17.62.862c.215-.272.236-.63-.05-1.033-.18-.252-1.018-.425-1.374-.066-.357.36-.032.923.246 1.009.514.158.742.637 1.177.09zm29.39 32.194c0 1.042-.612 1.618-1.727 1.618-.99 0-1.664-.465-1.664-1.618 0-1.064.611-1.684 1.685-1.684s1.705.62 1.705 1.684zm-8.085 6.36c.927-1.108 1.347-2.438 1.347-4.388 0-1.839-.378-3.08-1.241-4.144-.927-1.152-2.126-1.706-3.664-1.706-2.904 0-4.841 2.37-4.841 5.94 0 3.567 1.915 5.872 4.841 5.872 1.664 0 2.737-.599 3.558-1.574zm-1.726-4.41c0 2.682-.526 3.834-1.747 3.834-.548 0-1.179-.31-1.432-.93-.231-.578-.358-1.553-.358-2.86 0-1.13.105-1.927.295-2.526.231-.709.779-1.152 1.452-1.152.505 0 .948.222 1.221.598.38.51.57 1.507.57 3.036zM4.614 44.905 5.982 46.5c1.326-.531 2.99-1.727 3.41-3.61.148-.622.21-1.02.21-3.016V27.545H6.614v12.662c0 1.663-.063 2.283-.295 2.837-.274.62-.948 1.374-1.705 1.861zM11.52 27.51h-.307v15.357h2.947v-6.804h3.727v-2.525H14.16v-3.524h4.653l.18-1.341a49.625 49.625 0 0 1-7.473-1.163zm9.798 3.745c.253.466.4.975.442 1.618.4-.577 1.074-1.175 1.6-1.441.232-.11.61-.177.926-.177.421 0 .61.044 1.053.244l-.78 2.614a1.532 1.532 0 0 0-.82-.221c-.632 0-1.2.31-1.726.953v8.022h-2.821v-7.58c0-1.529-.169-2.68-.4-3.323z" clip-rule="evenodd"/></svg>