<svg xmlns="http://www.w3.org/2000/svg" viewBox="0 0 48 48"><path fill="#727272" d="M39.342 17.244a4.62 4.62 0 0 0-1.79-1.996c-.929-.588-2.088-.713-2.897-.713-.272 0-.544.014-.815.042h-.02c.014-.111.043-.255.067-.372.04-.206.087-.44.113-.682.107-1.042-.263-2.443-.946-3.57-.108-.179-.105-.24-.105-.24a.788.788 0 0 1 .12-.14l.062-.065c1.614-1.728 2.101-3.628 1.447-5.658C33.34 0 33.007 0 32.764 0a.384.384 0 0 0-.288.125.447.447 0 0 0-.097.354c.126 1.277-.162 3.105-.354 3.801-.235.876-1.056 2.181-3.648 3.423a5.822 5.822 0 0 1-.557.204c-.846.283-2.259.756-3.044 1.837-.592.695-.735 1.39-.992 2.644-.228 1.116-.413 2.474-.052 4.096.037.16.071.294.103.414l.056.224.03-.007-.031.009c.024.096.008.119-.026.143a2.55 2.55 0 0 1-.384.118c-.384.062-.768.13-1.135.202-1.167.2-4.696.809-6.321 3.396-1.004 1.596-1.146 3.68-.425 6.202.748 2.496 2.232 4.211 3.248 4.56l.016.006c.073.033.143.061.211.084 0 .07-.006.155-.015.252a3.63 3.63 0 0 0-.02.138c-.111.814-.495 1.691-.887 1.714-.206-.04-1.024-.504-1.603-.884a68.196 68.196 0 0 1-.528-.347c-1.616-1.07-2.507-1.658-3.868-1.81a1.338 1.338 0 0 0-.14-.008c-1.44 0-4.032 2.425-4.087 7.258-.028 2.421.226 4.634.755 6.578.379 1.394.782 2.188.899 2.4l.467.874.213-.96c1.123-5.088 2.51-6.314 4.816-7.781 1.69 1.584 3.911 2.419 6.44 2.419 2.13 0 4.361-.62 6.277-1.744 1.883-1.104 3.336-2.592 4.224-4.312.148.096.327.221.445.304.422.295.511.358.662.358h.013c.166-.007 1.723-.53 3.317-2.477.927-1.132 1.69-2.532 2.27-4.163.719-2.016 1.153-4.396 1.3-7.074.164-2.248-.065-4.039-.678-5.321zM33.369 4.302c.134.54.151 1.102.05 1.65-.149 1.063-.6 2.015-1.37 2.884.656-1.44 1.1-2.967 1.32-4.534zm-1.114 6.602c.235.355.414.743.531 1.152a2.94 2.94 0 0 1-.067 1.621c-.276.656-.645.987-1.1.987h-.06a1.203 1.203 0 0 1-.451-.165c-.584-.342-.9-1.248-.672-1.912l.027-.06c.037-.097.144-.281.44-.566a16.46 16.46 0 0 1 1.35-1.056zm-6.758-.18.006-.011v-.01c.124-.307.984-.804 1.554-1.133.07-.043.142-.084.213-.124.25-.131.506-.25.768-.355.938-.399 2.4-1.021 3.604-2.18-.35 1.225-1.19 3.288-2.573 4.537-.307.278-.927.523-1.646.808-.775.305-1.706.672-2.61 1.226.07-.707.288-1.94.679-2.759zm-.6 3.991c.465-.384 1.315-.904 4.102-1.824.02.087.041.198.062.308.018.084.036.179.057.283.182.9.384 1.912 2.259 2.473-.175.384-.534 1.033-.659 1.157l-.041.036-.029.047c-.365.585-2.336 1.863-3.22 1.863a.66.66 0 0 1-.113-.008c-.532-.103-1.753-1.188-2.112-1.99-.694-1.573-.552-2.14-.311-2.341zm-6.944 14.442c-1.021-1.52-1.795-4.175-1.288-6.31v-.01c.245-1.161 1.056-1.845 1.39-2.085l.049-.035c.497-.434 1.515-.892 2.866-1.292.192-.05.298-.072.303-.072.248-.052.52-.115.784-.175.5-.128 1.006-.227 1.517-.297.127-.013.255-.037.378-.061.166-.037.335-.058.505-.065a.647.647 0 0 1 .384.101c.501.596 1.728 1.77 2.533 1.84h.05c.916-.05 2.352-.943 4.268-2.659.325-.288.628-.539.924-.759l.037-.028a7.035 7.035 0 0 1 1.71-.955c-.2.657-.36 1.779.288 3.36.337.818.984 2.661 1.521 4.466.924 3.108.795 3.656.777 3.707a1.054 1.054 0 0 1-.124.3.736.736 0 0 1-.207-.074c-.465-.215-.987-.599-1.598-1.05-1.133-.83-2.541-1.864-4.602-2.669-1.514-.59-3.02-.89-4.472-.89a9.33 9.33 0 0 0-1.793.17c-3.247.64-4.959 2.072-5.877 2.842l-.007.005a.376.376 0 0 0-.118.418.37.37 0 0 0 .353.243c.084 0 .165-.023.435-.1.973-.29 1.968-.498 2.976-.621a9.55 9.55 0 0 1 1.088-.064c1.571 0 3.017.48 4.547 1.52.35.292.565.486.694.614l-.132.034-.928.262c-2.299.65-5.773 1.632-7.417 1.632a2.85 2.85 0 0 1-.378-.022c-.426-.062-.946-.507-1.43-1.22zm-6.778 11.66a8.183 8.183 0 0 0-1.403 2.83c-.31-1.482-.672-3.918-.466-5.815.43-3.93 2.377-5.247 2.666-5.316h.019c.016 0 .035 0 .073.041.156.17.492.883.247 3.833-.057.607.089 1.122.436 1.529.235.27.532.478.864.61a9.917 9.917 0 0 0-2.44 2.288zm3.309-3.858a.865.865 0 0 1-.322.075.259.259 0 0 1-.211-.08c-.063-.066-.204-.289-.159-.947.032-.323.077-.645.12-.96.094-.59.15-1.187.168-1.786 1.135.743 2.393 1.53 3.207 1.893-.532.471-1.639 1.32-2.803 1.807zm14.808-.106a10.7 10.7 0 0 1-6.94 3.264 12.7 12.7 0 0 1-.926.035c-3.472 0-5.236-1.474-6.048-2.295 3.924-1.692 4.72-4.112 5.067-5.17.034-.102.065-.191.096-.268.15-.075.626-.288 2.095-.838 1.152-.415 2.534-.88 3.752-1.29 1.014-.342 1.89-.639 2.37-.814l.04-.013c.095-.027.153-.04.191-.046l.027.035c.447.581 1.183.936 1.19.94a5.257 5.257 0 0 0 1.75.442c-.015 2.098-.973 4.273-2.658 6.017zm3.043-7.182c-1.453 0-1.962-.467-2.438-1.032-2.358-2.812-4.966-3.273-5.978-3.341a14.647 14.647 0 0 0-.947-.032c-.255 0-.505.007-.749.022 1.175-.4 2.407-.604 3.648-.607 2.602 0 5.106.922 7.442 2.738a54.36 54.36 0 0 0 2.259 1.687c-.295.088-.693.2-1.195.336l-.192.053c-.61.108-1.228.167-1.847.176zm.905 5.318c-.152-.134-.384-.348-.623-.566.22-.56.386-1.138.495-1.728.114-.624.185-1.44.217-1.873.69-.104 1.373-.249 2.045-.435.81-.233 1.434-.497 1.88-.797-1.39 3.468-3.401 4.992-4.014 5.397zm4.807-7.933c-.207-1.71-.899-3.823-1.17-4.645-.028-.096-.052-.165-.069-.216-.02-.065-.082-.239-.21-.594-.334-.93-1.029-2.864-1.153-3.436-.177-.841.224-1.998.48-2.099a.708.708 0 0 1 .248-.045c.472 0 1.056.447 1.518 1.167.558.864.89 2.009.933 3.215.096 2.631-.148 4.83-.576 6.653"/></svg>
