<svg xmlns="http://www.w3.org/2000/svg" viewBox="0 0 48 48"><defs><linearGradient id="joplin_svg__a" x2="1" gradientTransform="scale(-6205.4 6205.4) rotate(45 -.454 -.895)" gradientUnits="userSpaceOnUse"><stop offset="0" stop-color="#004caf"/><stop offset="1" stop-color="#1f95f8"/></linearGradient></defs><g clip-path="url(#joplin_svg__clipPath20)" transform="matrix(.00938 0 0 -.00938 0 48)"><path fill="url(#joplin_svg__a)" d="M3873.9 0H1246.1C560.74 0 0 560.75 0 1246.1v2627.8C0 4559.27 560.75 5120 1246.1 5120h2627.8c685.36 0 1246.1-560.75 1246.1-1246.1V1246.1C5120 560.74 4559.25 0 3873.9 0"/></g><path fill="#fff" d="M37.14 6.42H24.096c-.124 0-.223.1-.223.223v4.142c0 .14.113.252.252.252h1.789c.723 0 1.31.557 1.372 1.264v19.6a3.62 3.62 0 0 1-.017.465l-.008.067c-.01.09-.021.178-.039.265-.01.05-.023.098-.035.147-.016.065-.029.13-.049.194a2.997 2.997 0 0 1-.562 1.036l-.03.032c-.08.091-.162.18-.253.263-.092.084-.19.162-.293.235-.73.517-1.712.744-2.81.639-1.398-.132-2.787-.766-3.909-1.787-1.122-1.02-1.82-2.284-1.964-3.557-.13-1.139.212-2.141.96-2.822a.042.042 0 0 0 .006-.005c.029-.026.06-.049.09-.074.536-.449 1.235-.72 2.032-.796.01 0 .018-.002.026-.003.084-.007.17-.01.256-.014l.135-.005.045-.002c.027 0 .055.004.083.004a5.46 5.46 0 0 1 .43.021l.035.005a6.438 6.438 0 0 1 2.143.622c.014.001.03.005.051.017.21.116.25-.009.256-.09v-6.235a.384.384 0 0 0-.298-.375c-3.701-.815-7.332.033-9.895 2.365-2.238 2.036-3.32 4.974-2.97 8.06.313 2.75 1.724 5.39 3.974 7.438 2.193 1.995 4.984 3.243 7.864 3.514.397.037.796.056 1.185.056 2.75 0 5.303-.943 7.186-2.657a9.256 9.256 0 0 0 3.01-6.283l.015-15.918h.002v-4.33a1.384 1.384 0 0 1 1.384-1.355h1.788c.14 0 .253-.113.253-.253V6.643c0-.123-.1-.223-.223-.223"/></svg>