<svg xmlns="http://www.w3.org/2000/svg" viewBox="0 0 48 48"><g stroke-width=".96"><path fill="#767677" d="M41.154 2.707a2.874 2.874 0 0 1-.409 1.605 2.839 2.839 0 0 1-1.224 1.106 2.81 2.81 0 0 1-3.109-.484 2.877 2.877 0 0 1-.745-3.082 2.852 2.852 0 0 1 .988-1.325 2.815 2.815 0 0 1 3.583.2c.553.512.882 1.224.915 1.98z" style="mix-blend-mode:normal" transform="translate(.007 .022) scale(1.0001)"/><path fill="#f37726" d="M24.612 36.3c-7.537 0-14.119-2.761-17.536-6.85a18.727 18.727 0 0 0 6.787 9.096c3.142 2.248 6.9 3.456 10.753 3.456s7.61-1.208 10.753-3.456a18.727 18.727 0 0 0 6.786-9.095C38.73 33.539 32.148 36.3 24.61 36.3zm.008-26.588c7.537 0 14.119 2.761 17.536 6.848a18.727 18.727 0 0 0-6.787-9.095c-3.142-2.248-6.9-3.456-10.752-3.456s-7.61 1.208-10.753 3.456a18.727 18.727 0 0 0-6.786 9.095c3.424-4.078 10.006-6.848 17.543-6.848z" style="mix-blend-mode:normal" transform="translate(.007 .022) scale(1.0001)"/><path fill="#989798" d="M14.304 44.22a3.626 3.626 0 0 1-.515 2.026 3.574 3.574 0 0 1-1.543 1.393 3.54 3.54 0 0 1-3.92-.613 3.604 3.604 0 0 1-1.053-1.799 3.627 3.627 0 0 1 .117-2.085 3.595 3.595 0 0 1 1.248-1.67 3.549 3.549 0 0 1 4.516.257 3.61 3.61 0 0 1 1.15 2.491z" style="mix-blend-mode:normal" transform="translate(.007 .022) scale(1.0001)"/><path fill="#6f7070" d="M8.012 8.806A2.08 2.08 0 0 1 6.834 8.5a2.106 2.106 0 0 1-.811-.913 2.128 2.128 0 0 1 .357-2.32 2.077 2.077 0 0 1 2.261-.553c.39.144.728.4.972.738a2.123 2.123 0 0 1-.15 2.673 2.084 2.084 0 0 1-1.45.681z" style="mix-blend-mode:normal" transform="translate(.007 .022) scale(1.0001)"/></g></svg>