<svg xmlns="http://www.w3.org/2000/svg" viewBox="0 0 48 48"><path d="M42.92 4.345H5.081a5.095 5.095 0 0 0-5.08 5.08v29.15a5.095 5.095 0 0 0 5.08 5.08H42.92a5.095 5.095 0 0 0 5.08-5.08V9.424a5.095 5.095 0 0 0-5.08-5.08zm-30.531 34.32a4.658 4.658 0 1 1 0-9.315 4.612 4.612 0 0 1 2.219.574l-3.432 1.995a2.417 2.417 0 0 0-.876 3.303 2.416 2.416 0 0 0 3.303.875l3.44-1.998a4.66 4.66 0 0 1-4.654 4.567zm9.251-8.686-8.666 5.036A1.165 1.165 0 1 1 11.804 33l8.666-5.036a1.165 1.165 0 0 1 1.17 2.014zm-.056-16.091-.015 3.968a4.657 4.657 0 1 1 4.833.02l.015-3.97a2.416 2.416 0 1 0-4.833-.018zm3.543 10.035a1.165 1.165 0 0 1-1.164 1.16h-.005a1.165 1.165 0 0 1-1.16-1.169l.038-10.022a1.165 1.165 0 0 1 1.165-1.16h.004a1.165 1.165 0 0 1 1.16 1.169zm.74 4.457a1.164 1.164 0 0 1 1.59-.426l8.736 5.044a1.164 1.164 0 1 1-1.164 2.017l-8.736-5.044a1.164 1.164 0 0 1-.426-1.59zm9.744 10.284a4.66 4.66 0 0 1-4.652-4.554l3.444 1.989a2.416 2.416 0 0 0 2.416-4.186l-3.437-1.985a4.612 4.612 0 0 1 2.23-.58 4.658 4.658 0 1 1 0 9.316z" style="fill:#fd824e"/></svg>