<svg xmlns="http://www.w3.org/2000/svg" viewBox="0 0 48 48"><path d="M42.92 4.345H5.08A5.095 5.095 0 0 0 0 9.425v29.15a5.095 5.095 0 0 0 5.08 5.08h37.84a5.095 5.095 0 0 0 5.08-5.08V9.425a5.095 5.095 0 0 0-5.08-5.08ZM20.282 32.93l-9.234 5.366a2.47 2.47 0 1 1-2.483-4.273l9.234-5.366a2.47 2.47 0 1 1 2.483 4.273zm3.633-8.177h-.01a2.47 2.47 0 0 1-2.461-2.481l.046-10.639a2.471 2.471 0 0 1 2.471-2.46h.011a2.47 2.47 0 0 1 2.46 2.482l-.046 10.638a2.471 2.471 0 0 1-2.47 2.46zm16.34 12.641a2.47 2.47 0 0 1-3.376.905l-9.248-5.34a2.47 2.47 0 0 1 2.471-4.28l9.248 5.34a2.47 2.47 0 0 1 .904 3.375z" style="stroke-width:1;fill:#ffc61c"/></svg>