<svg xmlns="http://www.w3.org/2000/svg" viewBox="0 0 48 48"><path fill="currentcolor" d="M25.556 11.887s-3.942-.262-10.654 1.838c-6.84 2.14-10.72 5.174-10.72 5.174s10.196-5.692 21.704-6.016zm14.702 6.19.512-.034s-2.935-3.562-8.555-5.297c3.159 1.284 5.908 2.985 8.043 5.33zm.839 1.48c.078-.137.333.433.526.673.008.048.022.077-.09.054-.01-.05-.026-.063-.026-.063s-.27-.161-.353-.275c-.083-.114-.098-.314-.057-.39zm6.896 16.956s.623-7.155-10.619-8.805a36.556 36.556 0 0 0-5.05-.374c-9.01.119-9.339-10.392-2.549-10.923 2.814-.233 6.174 1.285 9.46 2.815-.013.408.004.77.272 1.106.268.334 1.297.7 1.626.888.329.19 1.382.86 2.028 1.7.14-.262 1.31-1.024 1.31-1.024s-.28.007-.933-.237c-.651-.244-1.425-.98-1.443-1.023-.018-.043-.03-.11.122-.14.116-.097-.146-.414-.262-.53-.116-.115-.89-1.43-.907-1.461-.019-.03-.025-.061-.08-.098-.17-.055-.92.08-.92.08s-1.15-.567-1.548-1.787c.005.213-.198.447 0 .938-.601-.255-1.117-.688-1.524-1.759-.242.61 0 .996 0 .996s-1.415-.395-1.64-1.7c-.25.586 0 .938 0 .938s-2.307-1.203-6.139-1.22c-2.565-.236-3.099-4.748-2.861-5.508 0 0-3.7-1.95-10.984-2.812-7.284-.861-13.257-.13-13.257-.13s12.9-.618 23.235 3.566c.351 1.57 1.408 4.188 1.977 5.446-1.629 1.126-3.465 2.185-3.751 5.94-.286 3.756 2.943 7.06 6.947 7.162 3.802.202 6.429.23 9.613 1.882 3.04 1.68 5.531 6.8 5.778 11.406.266-3.417-1.016-10.765-7-12.996 8.363 1.463 9.1 7.663 9.1 7.663zM25.358 11.326l-.3-.97s-4.966-.882-11.643-.407C6.74 10.423-.002 12.76-.002 12.76s13.792-3.47 25.36-1.434"/></svg>