<svg xmlns="http://www.w3.org/2000/svg" viewBox="0 0 48 48"><style>.kasm_svg__st2{display:inline;fill:#001c32}</style><path d="m399 337-164.7 94L69 338.1V140.6L234.3 46 399 141.6z" style="fill:#fff" transform="translate(-5.174 -5.735) scale(.12468)"/><path d="M165.9 308.3v50.4l43.6 24.9 10.6 6.3 14.3 8.3 10.1-18.1 4.3-19.4-14.4-12.6z" style="fill:#185f85" transform="translate(-5.174 -5.735) scale(.12468)"/><path d="M371.8 319.1V160.6l-28.7-1-6 9.3-8.8 16.9v108.1l-93.7 54.2v50.2c45.7-26.5 91.3-53 137.2-79.2z" style="fill:#0d84be" transform="translate(-5.174 -5.735) scale(.12468)"/><path d="m184.3 239.7 50.1-28.9v-50.2l-93.7 54.2v-79.4l-43.3 25.2v158.5l43.3 25v-79.2l93.7 54.2v-50.4z" style="fill:#2a2d31" transform="translate(-5.174 -5.735) scale(.12468)"/><path d="M234.4 81.5c45.9 26.5 91.5 52.7 137.3 79.1l-25.2 14.6-18.4 10.6-93.7-54.2-68.5 39.6v-50.1z" style="fill:#1a9bd7" transform="translate(-5.174 -5.735) scale(.12468)"/></svg>