<svg xmlns="http://www.w3.org/2000/svg" viewBox="0 0 48 48"><path fill="#4ac694" d="M24 0c13.275 0 24 10.725 24 24S37.275 48 24 48 0 37.275 0 24 10.725 0 24 0z"/><path fill="#424c72" d="M39 12.75H9c-.45 0-.75.3-.75.75V36c0 .45.3.75.75.75h10.725c.75 0 1.425.3 1.8.9C22.05 38.475 22.95 39 24 39s1.95-.525 2.475-1.35c.375-.6 1.125-.9 1.8-.9H39c.45 0 .75-.3.75-.75V13.5c0-.45-.3-.75-.75-.75z"/><path fill="#e4e7ef" d="M10.5 21v13.5h12c.825 0 1.5.675 1.5 1.5 0-.825.675-1.5 1.5-1.5h12V21z"/><path fill="#fff" d="M26.25 9.75c-1.275 0-2.25.975-2.25 2.25 0-1.275-.975-2.25-2.25-2.25H10.5V33h12c.825 0 1.5.675 1.5 1.5 0-.825.675-1.5 1.5-1.5h12V9.75z"/><path fill="#57d1f7" d="M13.5 12h3v5.25h-3z"/><path fill="#e4e7ef" d="M21.75 19.875H13.5c-.225 0-.375-.15-.375-.375s.15-.375.375-.375h8.25c.225 0 .375.15.375.375s-.15.375-.375.375zM21.75 17.625h-3.3c-.225 0-.375-.15-.375-.375s.15-.375.375-.375h3.3c.225 0 .375.15.375.375s-.15.375-.375.375zM21.75 15.375h-3.3c-.225 0-.375-.15-.375-.375s.15-.375.375-.375h3.3c.225 0 .375.15.375.375s-.15.375-.375.375zM21.75 13.125h-3.3c-.225 0-.375-.15-.375-.375s.15-.375.375-.375h3.3c.225 0 .375.15.375.375s-.15.375-.375.375zM21.75 22.125H13.5c-.225 0-.375-.15-.375-.375s.15-.375.375-.375h8.25c.225 0 .375.15.375.375s-.15.375-.375.375zM21.75 24.375H13.5c-.225 0-.375-.15-.375-.375s.15-.375.375-.375h8.25c.225 0 .375.15.375.375s-.15.375-.375.375zM21.75 26.625H13.5c-.225 0-.375-.15-.375-.375s.15-.375.375-.375h8.25c.225 0 .375.15.375.375s-.15.375-.375.375zM21.75 28.875H13.5c-.225 0-.375-.15-.375-.375s.15-.375.375-.375h8.25c.225 0 .375.15.375.375s-.15.375-.375.375zM21.75 31.125H13.5c-.225 0-.375-.15-.375-.375s.15-.375.375-.375h8.25c.225 0 .375.15.375.375s-.15.375-.375.375zM34.5 19.875h-8.25c-.225 0-.375-.15-.375-.375s.15-.375.375-.375h8.25c.225 0 .375.15.375.375s-.15.375-.375.375zM34.5 22.125h-8.25c-.225 0-.375-.15-.375-.375s.15-.375.375-.375h8.25c.225 0 .375.15.375.375s-.15.375-.375.375zM34.5 15.375h-8.25c-.225 0-.375-.15-.375-.375s.15-.375.375-.375h8.25c.225 0 .375.15.375.375s-.15.375-.375.375zM34.5 13.125h-8.25c-.225 0-.375-.15-.375-.375s.15-.375.375-.375h8.25c.225 0 .375.15.375.375s-.15.375-.375.375zM34.5 17.625h-8.25c-.225 0-.375-.15-.375-.375s.15-.375.375-.375h8.25c.225 0 .375.15.375.375s-.15.375-.375.375zM34.5 24.375h-8.25c-.225 0-.375-.15-.375-.375s.15-.375.375-.375h8.25c.225 0 .375.15.375.375s-.15.375-.375.375zM34.5 26.625h-8.25c-.225 0-.375-.15-.375-.375s.15-.375.375-.375h8.25c.225 0 .375.15.375.375s-.15.375-.375.375zM34.5 28.875h-8.25c-.225 0-.375-.15-.375-.375s.15-.375.375-.375h8.25c.225 0 .375.15.375.375s-.15.375-.375.375zM34.5 31.125h-8.25c-.225 0-.375-.15-.375-.375s.15-.375.375-.375h8.25c.225 0 .375.15.375.375s-.15.375-.375.375z"/></svg>
