<svg xmlns="http://www.w3.org/2000/svg" viewBox="0 0 48 48"><defs><linearGradient id="kbin_svg__a" x1="233.21" x2="235.37" y1="155.57" y2="159.66" gradientTransform="translate(-670.15 -398.87) scale(2.6007)" gradientUnits="userSpaceOnUse"><stop offset="0" stop-color="#c358f8"/><stop offset="1" stop-color="#7835ff"/></linearGradient><linearGradient id="kbin_svg__b" x1="238.32" x2="236.35" y1="154.08" y2="159.47" gradientTransform="translate(-674.76 -398.87) scale(2.6007)" gradientUnits="userSpaceOnUse"><stop offset="0" stop-color="#b550fa"/><stop offset="1" stop-color="#f2a0af"/></linearGradient></defs><path fill="url(#kbin_svg__a)" d="m-61.414 5.72-1.808.016c-.762 0-1.013.478-.829 1.166l1.666 7.4c.366 1.367.61 1.614.862 1.614h.482c.954 0 1.29-.572 1.662-1.614l2.634-7.4h-3.468c-.247-.553-.332-1.181-1.2-1.181z" transform="translate(219.31 -6.23) scale(3.4073)"/><path fill="url(#kbin_svg__b)" d="M-55.612 1.828h4.245c.34 0 1.046.194.768 1.008l-3.525 11.825c-.365 1.021-.698 1.254-1.77 1.254h-5.629c.293 0 .603-.57.974-1.613l3.352-11.34c.245-.65.57-1.134 1.585-1.134z" transform="translate(219.31 -6.23) scale(3.4073)"/></svg>