<svg xmlns="http://www.w3.org/2000/svg" width="48" height="48" viewBox="0 0 12.7 12.7"><path fill="#1d99f3" d="M12.7 0v12.7H0V0Z"/><path fill="#fcfcfc" d="m7.095 1.603-1.581.151v6.512l1.565-.235V5.255l2.103 3.08 1.649-.523-2.154-2.961 2.17-2.794-1.682-.387L7.08 4.464ZM3.51 3.19a.08.08 0 0 0-.048.023l-.62.62a.08.08 0 0 0-.013.099l.727 1.197a3.106 3.106 0 0 0-.306.697l-1.334.277a.08.08 0 0 0-.064.079v.878c0 .037.025.069.06.078l1.296.316a3.103 3.103 0 0 0 .317.805l-.749 1.143a.08.08 0 0 0 .01.1l.62.621a.081.081 0 0 0 .1.012l1.174-.713c.23.133.48.238.743.31l.274 1.317a.08.08 0 0 0 .078.063h.878a.08.08 0 0 0 .078-.06l.323-1.321a3.094 3.094 0 0 0 .764-.322l1.157.76a.08.08 0 0 0 .101-.01l.62-.622a.08.08 0 0 0 .012-.098l-.422-.696-.137.043a.047.047 0 0 1-.053-.019l-.618-.904a2.514 2.514 0 0 1-2.24 1.373A2.515 2.515 0 0 1 3.723 6.72a2.515 2.515 0 0 1 1.484-2.294v-.649a3.098 3.098 0 0 0-.46.203l-1.185-.778a.08.08 0 0 0-.052-.012z"/></svg>