<svg xmlns="http://www.w3.org/2000/svg" width="48" height="48" viewBox="0 0 12.7 12.7"><path fill="#1d99f3" d="M0 0h12.7v12.7H0Z"/><path fill="#fcfcfc" d="m7.052 1.63-1.614.154v6.643l1.597-.24V5.355l2.145 3.14 1.682-.531-2.197-3.021 2.214-2.85L9.163 1.7 7.035 4.548zM3.395 3.249a.082.082 0 0 0-.05.023l-.633.633a.082.082 0 0 0-.012.1l.741 1.222c-.131.22-.236.46-.312.71l-1.36.284a.082.082 0 0 0-.066.08v.895c0 .038.026.07.063.08l1.32.323c.07.29.18.567.324.82l-.764 1.166a.082.082 0 0 0 .01.103l.633.633a.082.082 0 0 0 .101.013l1.198-.728c.235.136.49.243.758.315l.28 1.344a.082.082 0 0 0 .08.065H6.6c.037 0 .07-.025.08-.062l.328-1.347c.277-.075.538-.186.78-.328l1.18.774a.082.082 0 0 0 .103-.01l.633-.633a.082.082 0 0 0 .012-.1l-.43-.711-.14.044a.048.048 0 0 1-.055-.019l-.63-.922a2.564 2.564 0 0 1-4.85-1.166c0-1.042.621-1.938 1.514-2.34v-.662a3.16 3.16 0 0 0-.469.207L3.448 3.26a.082.082 0 0 0-.053-.013z"/></svg>