<svg xmlns="http://www.w3.org/2000/svg" viewBox="0 0 48 48"><path fill="#1d99f3" d="M48 0v48H0V0z"/><path fill="#fcfcfc" d="m26.817 6.058-5.977.572v24.613l5.914-.89V19.86l7.95 11.64 6.232-1.973-8.14-11.193L41 7.775l-6.36-1.462-7.886 10.557zm-13.55 5.998a.303.303 0 0 0-.183.088l-2.346 2.345a.304.304 0 0 0-.044.372l2.747 4.524a11.74 11.74 0 0 0-1.157 2.634L7.24 23.067a.304.304 0 0 0-.241.298v3.317c0 .14.096.262.231.295l4.894 1.196a11.726 11.726 0 0 0 1.2 3.042l-2.832 4.32a.303.303 0 0 0 .04.381l2.344 2.346a.306.306 0 0 0 .373.045l4.44-2.696c.872.503 1.812.899 2.806 1.168l1.036 4.98c.029.14.153.241.297.241h3.317c.14 0 .261-.095.295-.232l1.22-4.99a11.692 11.692 0 0 0 2.887-1.215l4.374 2.868c.12.08.28.064.382-.038l2.346-2.346a.303.303 0 0 0 .044-.372l-1.597-2.632-.517.163a.178.178 0 0 1-.202-.07l-2.334-3.416a9.502 9.502 0 0 1-8.467 5.186A9.506 9.506 0 0 1 14.07 25.4a9.505 9.505 0 0 1 5.61-8.67v-2.453a11.71 11.71 0 0 0-1.736.765l-.002-.002-4.478-2.937a.304.304 0 0 0-.197-.048z"/></svg>