<svg xmlns="http://www.w3.org/2000/svg" viewBox="0 0 48 48"><path fill="#1d99f3" d="M0 0h48v48H0z"/><path fill="#fcfcfc" d="m26.653 6.16-6.1.583V31.85l6.036-.907V20.239l8.107 11.868 6.357-2.007-8.304-11.418L41.117 7.91l-6.485-1.485-8.043 10.764zm-13.822 6.12a.31.31 0 0 0-.189.087l-2.392 2.392a.31.31 0 0 0-.045.378l2.8 4.618a12.183 12.183 0 0 0-1.179 2.684l-5.14 1.073a.31.31 0 0 0-.25.303v3.382c0 .144.099.265.239.303l4.989 1.22a11.94 11.94 0 0 0 1.224 3.1l-2.887 4.407a.31.31 0 0 0 .037.389l2.393 2.392a.31.31 0 0 0 .382.05l4.527-2.752a11.88 11.88 0 0 0 2.865 1.19l1.058 5.08a.31.31 0 0 0 .303.246h3.379c.14 0 .264-.095.302-.235l1.24-5.09a12.027 12.027 0 0 0 2.948-1.24l4.46 2.925a.31.31 0 0 0 .389-.038l2.392-2.392a.31.31 0 0 0 .046-.378l-1.626-2.687-.529.166a.181.181 0 0 1-.208-.072l-2.38-3.485a9.69 9.69 0 0 1-18.331-4.406 9.694 9.694 0 0 1 5.722-8.844v-2.502a11.943 11.943 0 0 0-1.773.782l-4.565-3.005a.31.31 0 0 0-.2-.049z"/></svg>