<svg xmlns="http://www.w3.org/2000/svg" viewBox="0 0 48 48"><path fill="#1d99f3" d="M27.762 0 19.78.764v32.87l7.898-1.188V18.43l10.617 15.544 8.323-2.633-10.871-14.95L46.703 2.294 38.21.341 27.678 14.44ZM9.667 8.01a.405.405 0 0 0-.245.117L6.29 11.26a.405.405 0 0 0-.059.497l3.668 6.041a15.68 15.68 0 0 0-1.545 3.517l-6.734 1.4a.405.405 0 0 0-.322.398v4.43c0 .188.128.35.308.393l6.537 1.598a15.66 15.66 0 0 0 1.602 4.062l-3.783 5.77a.405.405 0 0 0 .053.509l3.132 3.132a.408.408 0 0 0 .498.061l5.928-3.6c1.165.671 2.42 1.2 3.748 1.559l1.383 6.65A.405.405 0 0 0 21.1 48h4.43a.405.405 0 0 0 .394-.31l1.63-6.664c1.368-.37 2.662-.92 3.855-1.623l5.842 3.831c.16.106.373.085.51-.051l3.133-3.133a.404.404 0 0 0 .058-.497l-2.132-3.515-.69.218a.238.238 0 0 1-.27-.093L34.743 31.6c-2.1 4.11-6.373 6.927-11.308 6.927-7.01 0-12.694-5.684-12.694-12.695 0-5.158 3.076-9.594 7.492-11.58v-3.276c-.804.282-1.58.62-2.319 1.023 0 0 0-.002-.003-.004l-5.98-3.922a.406.406 0 0 0-.264-.064z" style="stroke-width:1.33548"/></svg>