<svg xmlns="http://www.w3.org/2000/svg" viewBox="0 0 48 48"><linearGradient id="keepassxc_svg__a" x1="50" x2="50" y1="-654.86" y2="-728.47" gradientTransform="matrix(1 0 0 -1 0 -642.11)" gradientUnits="userSpaceOnUse"><stop offset="0" stop-color="#35762e"/><stop offset="1" stop-color="#6daa43"/></linearGradient><g transform="translate(-1.281 -1.281) scale(.50563)"><circle cx="50" cy="50" r="45.9" fill="#fff" fill-rule="evenodd" stroke="#515151" stroke-linecap="round" stroke-linejoin="round" stroke-width="3.132" clip-rule="evenodd"/><path fill="url(#keepassxc_svg__a)" d="M56.7 13.7c.1.5.2 1 .2 1.5 0 3.8-3.1 6.9-6.9 6.9s-6.9-3.1-6.9-6.9c0-.5.1-1 .2-1.5 2.2-.4 4.5-.6 6.7-.6 2.3-.1 4.5.2 6.7.6zm-26.1 8.4c0 7.7 4.5 14.4 11.1 17.5v35.1L50 83l8.3-8.3-.5-7.3 3.9-3.9-3.9-3.9 5.9-5.9-5.9-5.9.5-8.2c6.5-3.1 11.1-9.8 11.1-17.5 0-1.3-.1-2.5-.4-3.8C80.1 25 86.9 37 87 50c0 20.4-16.5 37-37 37-20.4 0-37-16.5-37-37 0-13 6.8-25 18-31.7-.2 1.3-.4 2.5-.4 3.8zm13.9 22.1h2.8v27.7h-2.8z"/></g></svg>