<svg xmlns="http://www.w3.org/2000/svg" viewBox="0 0 48 48"><path d="M47.936 30.065c-.37-1.623-3.053-6.298-8.54-10.448a54.02 54.02 0 0 0-2.661-1.899c1.096-4.693-4.605-10.354-10.167-7.689-3.994-3.757-8.447-5.29-12.543-5.228C3.18 4.952-5.186 16.25 3.813 27.034l.018.018c.138.165.28.33.423.494.584.7.972 1.32 1.301 2.412l2.684 8.794h-.95c-.873 0-1.586.709-1.586 1.587h3.601l6.053 2.861a1.582 1.582 0 0 0-.753-2.108l-1.587-.749h4.564c0-.873-.708-1.586-1.586-1.586h-4.137a1.645 1.645 0 0 1-1.573-1.164L8.159 30.61c-.53-1.837.686-3.036 1.832-3.179 1.043-.129 1.569.544 2.059 2.176l1.89 6.195h-.95c-.873 0-1.586.709-1.586 1.587h3.601l6.053 2.862a1.582 1.582 0 0 0-.753-2.109l-1.587-.748h3.348a7.924 7.924 0 0 0 1.248 1.609 8 8 0 0 0 11.308 0 8 8 0 0 0 0-11.308 7.997 7.997 0 0 0-13.265 8.112h-3.789a1.645 1.645 0 0 1-1.573-1.163L12.857 24.33l.535-.286C20.84 20.92 28.805 26.5 34.35 21.137l.035-.035c.687-.624 1.373-1.262 3.401.009 2.184 1.368 7.003 4.938 9.187 11.045.004 0 1.328-.473.963-2.091zM32.612 16.537a1.538 1.538 0 0 0-3.076.036c0 .463.205.873.526 1.154a2.401 2.401 0 0 1 .45-4.76 2.4 2.4 0 0 1 2.1 3.57z" style="fill:#010101"/></svg>