<svg xmlns="http://www.w3.org/2000/svg" viewBox="0 0 48 48"><path fill="#17b2e7" d="M48 24.398c-.155.502-.494.87-.857 1.232-2.435 2.426-4.862 4.86-7.292 7.292-.876.877-1.811.874-2.69-.006l-7.522-7.53c-.854-.854-.853-1.788.003-2.645l7.563-7.571c.82-.822 1.785-.822 2.605-.001 2.445 2.445 4.886 4.894 7.335 7.334.364.363.702.732.855 1.235v.66zM23.83 47.907c-.5-.158-.862-.504-1.222-.867-2.424-2.437-4.856-4.866-7.286-7.298-.87-.871-.87-1.799-.002-2.668l7.543-7.548c.836-.837 1.794-.84 2.625-.008 2.515 2.516 5.03 5.033 7.543 7.55.863.865.866 1.812.006 2.673-2.45 2.453-4.904 4.903-7.349 7.36-.35.352-.71.669-1.197.806h-.66zm-8.823-29.869c0-2.797.025-5.595-.017-8.393-.011-.81.182-1.442.8-1.976.498-.43.939-.926 1.405-1.392l5.53-5.534c.867-.868 1.802-.867 2.668 0l7.523 7.527c.861.862.86 1.81 0 2.672a58600.95 58600.95 0 0 1-8.899 8.907l-7.857 7.864c-.485.486-.915.373-1.092-.3a2.62 2.62 0 0 1-.059-.651c-.004-2.908-.002-5.816-.002-8.724ZM9.01 24.1c0 2.568.003 5.136-.005 7.704a2.09 2.09 0 0 1-.127.728c-.172.446-.493.501-.83.166-1.18-1.18-2.358-2.362-3.537-3.542L.424 25.06c-.564-.564-.566-1.349-.004-1.917l7.524-7.608c.166-.167.323-.395.604-.288.27.102.376.345.415.614.024.167.042.337.042.505.003 2.578.002 5.156.002 7.734h.003z"/></svg>