
<svg xmlns="http://www.w3.org/2000/svg" version="1.1" xmlns:xlink="http://www.w3.org/1999/xlink" preserveAspectRatio="none" x="0px" y="0px" width="1920px" height="1080px" viewBox="0 0 1920 1080">
<defs>
<g id="Layer0_0_FILL">
<path fill="#CCCCCC" stroke="none" d="
M 655 523.05
L 664.6 568.5
Q 673.306640625 603.6576171875 644.75 596.7
L 615.95 589 593.6 619.7
Q 608 613.4 622.25 619.25 651.8 631.3 683.7 633.7 702.15 634.65 720.55 633.7 746.4 632.3 751.7 606.95 760.0806640625 574.925 759.4 542.9 704.6333984375 516.4880859375 655 523.05
M 1326.55 695.3
Q 1373.195703125 702.0814453125 1397 653.05 1416.3814453125 614.8125 1408.55 571.75 1352.2 548.426171875 1295.85 580.05
L 1287.5 633.2 1256.8 642.8 1256.8 687 1326.55 695.3
M 1399.6 274.7
Q 1390.05 270.5 1380.4 266.5 1370.7 262.35 1360.95 258.45 1351.25 254.5 1341.45 250.75 1331.6 246.85 1321.65 243.2 1311.75 239.45 1301.8 235.85 1291.7 232.3 1281.6 228.75 1271.45 225.35 1261.3 222 1251 218.7 1240.7 215.55 1230.4 212.25 1220.05 209.1 1209.6 206 1199.2 202.8 1187.45 199.25 1175.75 195.75 1164.15 192.2 1152.45 189 1140.85 185.85 1129.15 183.1 1117.5 180.3 1105.75 178 1094.15 175.45 1082.5 173.2 1070.8 171.4 1059.05 169.95 1047.4 168.25 1035.7 166.9 1023.95 165.9 1012.2 164.9 1000.5 164.35 988.8 163.8 977.05 163.65 965.3 163.7 953.55 163.75 941.8 164 930.05 164.65 918.3 165.3 906.55 166.35 894.8 167.45 883 168.9 871.3 170.7 859.45 172.2 847.7 174.35 835.85 176.35 823.95 177.35 812.65 178.25 801.3 177.95 789.75 177.45 778.25 176.95 766.55 176.3 754.9 175.7 743 174.85 731.15 174.05 719.15 173.1 707.2 172.15 695 171 682.85 169.9 670.5 168.6 658.2 167.35 645.7 165.9 633.25 164.5 625.35 163.85 617.45 163.25 605.55 161.85 593.7 160.5 581.8 158.55 569.9 156.65 558.05 154.6 546.2 151.85 534.15 149.2 522.45 145.85 514.45 143.7 506.35 142.2 495.1 139.75 483.75 138.05 472.4 136.5 461.1 135 449.85 133.65 438.6 132.35 427.4 131.2 416.25 130.05 405.15 129.1 394.1 128.15 383.1 127.4 372.1 126.65 361.15 126.1 350.25 125.55 339.35 125.15 328.5 124.8 239.2171875 130.5923828125 187.65 174.1 178.35 181.25 168.3 187.65 157.8 194.4 146.8 200.15 139.15 204.1 131.25 207.8 123.15 211.55 114.8 214.95 103.9 219.2 92.85 222.95 81.1 227 69.55 230.8 62.1 233.1 55.15 236.55 50.55 238.85 46.25 241.75 35.7 248.95 27.6 258.65 19.6 268.3 20.45 280.65 20.85 286.35 24 291.35 29.9 300.55 38.75 307 48.6 314.1 59.6 319.45 120.926953125 331.929296875 195.95 328.4 209.57890625 329.2568359375 218.35 337.4 294.3400390625 394.11796875 446.95 381.55 467.7076171875 395.0423828125 476.4 420.6 490.819921875 315.9626953125 575 318.2 609.796875 318.05078125 628.7 333.15 512.9634765625 331.844140625 505.85 405.25
L 495.6 507.7
Q 508.54609375 613.3087890625 452.05 633.2 421.77109375 642.5931640625 386.75 633.2 330.8056640625 638.7373046875 331.05 677.35 349.816015625 652.68828125 377.9 671.3 406.037890625 689.9583984375 437.15 689.45 468.2556640625 688.944921875 505.8 685.25 509.35 684.8 512.9 684.4 549.859375 683.716796875 559 649.85 608.2919921875 560.78046875 637.75 461.6
L 644.15 387.95 650.55 404.6
Q 660.6978515625 446.525 654.4 489.1 726.909765625 491.1982421875 818.9 525 937.62890625 575.8537109375 1043.6 567.9 1042.9 556.2 1042.8 544.75 1042.7 533.1 1043.05 521.2 1043.45 509.25 1044.45 497.35 1045.45 485.25 1046.95 473.2 1048.45 460.95 1051.45 448.9 1053.45 440.8 1057.2 433.35 1060.95 426 1065.65 419.1 1072.15 409.5 1079.95 400.95 1084.75 395.7 1089.7 390.55 1062.3912109375 455.0744140625 1069.85 529.45
L 1078.15 617.8
Q 1082.2439453125 656.6884765625 1106.35 665.85 1138.69140625 685.375 1156.9 704.9 1114.3376953125 688.4154296875 1060.85 674.15 1043.7841796875 674.4919921875 1039.4 676.15 995.7548828125 692.7708984375 960.35 658.8 942.425 641.6484375 924.5 658.8
L 914.9 669.7 903.35 699.8
Q 946.5267578125 658.7087890625 962.25 699.8 978.600390625 718.1216796875 1014.75 716.45 1043.1435546875 719.7951171875 1074.3 721.55 1050.5142578125 757.987109375 1073.65 770.2 1083.8611328125 730.0201171875 1116.55 732.45
L 1161.4 732.45
Q 1228.3287109375 737.387890625 1224.75 674.2
L 1217.1 519.25
Q 1277.1603515625 468.9361328125 1334.9 407.2 1296.37421875 487.259765625 1247.8 532.05
L 1247.8 563.4
Q 1395.2193359375 482.5322265625 1502 571.75
L 1677.45 759.3
Q 1726.60859375 750.575390625 1742.75 772.1 1657.523828125 777.291015625 1644.15 807.95 1490.4689453125 863.0408203125 1343.85 875.2 1230.4892578125 888.6267578125 1186.35 856.65 1105.1935546875 820.14375 1190.2 895.7 1265.3982421875 955.0869140625 1413 946.95 1592.746484375 961.609375 1717.8 919.35 1784.330859375 902.479296875 1821.5 836.8 1882.7115234375 760.8783203125 1793.35 614.6 1687.1001953125 432.0072265625 1510.95 329.05 1501.9 324.2 1492.85 319.5 1483.75 314.65 1474.55 310.05 1465.4 305.35 1456.15 300.9 1446.85 296.3 1437.45 291.9 1428.1 287.45 1418.65 283.2 1409.15 278.85 1399.6 274.7
M 261.95 210.6
Q 266.8 212.45 269.6 217 265.95 227.9 256.85 235 251.15 239.5 244.4 242.15 232.4 247 221.45 240.1 218.5 238.25 215.8 235.6 213.95 225.85 221.75 219.6 231.15 211.95 242.85 209.25 252.65 207.2 261.95 210.6 Z"/>
</g>

<path id="Layer0_0_1_STROKES" stroke="#CCCCCC" stroke-width="7" stroke-linejoin="round" stroke-linecap="round" fill="none" d="
M 195.95 328.4
Q 120.926953125 331.929296875 59.6 319.45 48.6 314.1 38.75 307 29.9 300.55 24 291.35 20.85 286.35 20.45 280.65 19.6 268.3 27.6 258.65 35.7 248.95 46.25 241.75 50.55 238.85 55.15 236.55 62.1 233.1 69.55 230.8 81.1 227 92.85 222.95 103.9 219.2 114.8 214.95 123.15 211.55 131.25 207.8 139.15 204.1 146.8 200.15 157.8 194.4 168.3 187.65 178.35 181.25 187.65 174.1 239.2171875 130.5923828125 328.5 124.8 339.35 125.15 350.25 125.55 361.15 126.1 372.1 126.65 383.1 127.4 394.1 128.15 405.15 129.1 416.25 130.05 427.4 131.2 438.6 132.35 449.85 133.65 461.1 135 472.4 136.5 483.75 138.05 495.1 139.75 506.35 142.2 514.45 143.7 522.45 145.85 534.15 149.2 546.2 151.85 558.05 154.6 569.9 156.65 581.8 158.55 593.7 160.5 605.55 161.85 617.45 163.25 625.35 163.85 633.25 164.5 645.7 165.9 658.2 167.35 670.5 168.6 682.85 169.9 695 171 707.2 172.15 719.15 173.1 731.15 174.05 743 174.85 754.9 175.7 766.55 176.3 778.25 176.95 789.75 177.45 801.3 177.95 812.65 178.25 823.95 177.35 835.85 176.35 847.7 174.35 859.45 172.2 871.3 170.7 883 168.9 894.8 167.45 906.55 166.35 918.3 165.3 930.05 164.65 941.8 164 953.55 163.75 965.3 163.7 977.05 163.65 988.8 163.8 1000.5 164.35 1012.2 164.9 1023.95 165.9 1035.7 166.9 1047.4 168.25 1059.05 169.95 1070.8 171.4 1082.5 173.2 1094.15 175.45 1105.75 178 1117.5 180.3 1129.15 183.1 1140.85 185.85 1152.45 189 1164.15 192.2 1175.75 195.75 1187.45 199.25 1199.2 202.8 1209.6 206 1220.05 209.1 1230.4 212.25 1240.7 215.55 1251 218.7 1261.3 222 1271.45 225.35 1281.6 228.75 1291.7 232.3 1301.8 235.85 1311.75 239.45 1321.65 243.2 1331.6 246.85 1341.45 250.75 1351.25 254.5 1360.95 258.45 1370.7 262.35 1380.4 266.5 1390.05 270.5 1399.6 274.7 1409.15 278.85 1418.65 283.2 1428.1 287.45 1437.45 291.9 1446.85 296.3 1456.15 300.9 1465.4 305.35 1474.55 310.05 1483.75 314.65 1492.85 319.5 1501.9 324.2 1510.95 329.05 1687.1001953125 432.0072265625 1793.35 614.6 1882.7115234375 760.8783203125 1821.5 836.8 1784.330859375 902.479296875 1717.8 919.35 1592.746484375 961.609375 1413 946.95 1265.3982421875 955.0869140625 1190.2 895.7 1105.1935546875 820.14375 1186.35 856.65 1230.4892578125 888.6267578125 1343.85 875.2 1490.4689453125 863.0408203125 1644.15 807.95 1657.523828125 777.291015625 1742.75 772.1 1726.60859375 750.575390625 1677.45 759.3
L 1502 571.75
Q 1395.2193359375 482.5322265625 1247.8 563.4
L 1247.8 532.05
Q 1296.37421875 487.259765625 1334.9 407.2 1277.1603515625 468.9361328125 1217.1 519.25
L 1224.75 674.2
Q 1228.3287109375 737.387890625 1161.4 732.45
L 1116.55 732.45
Q 1083.8611328125 730.0201171875 1073.65 770.2 1050.5142578125 757.987109375 1074.3 721.55 1043.1435546875 719.7951171875 1014.75 716.45 978.600390625 718.1216796875 962.25 699.8 946.5267578125 658.7087890625 903.35 699.8
L 914.9 669.7 924.5 658.8
Q 942.425 641.6484375 960.35 658.8 995.7548828125 692.7708984375 1039.4 676.15 1043.7841796875 674.4919921875 1060.85 674.15 1114.3376953125 688.4154296875 1156.9 704.9 1138.69140625 685.375 1106.35 665.85 1082.2439453125 656.6884765625 1078.15 617.8
L 1069.85 529.45
Q 1062.3912109375 455.0744140625 1089.7 390.55 1084.75 395.7 1079.95 400.95 1072.15 409.5 1065.65 419.1 1060.95 426 1057.2 433.35 1053.45 440.8 1051.45 448.9 1048.45 460.95 1046.95 473.2 1045.45 485.25 1044.45 497.35 1043.45 509.25 1043.05 521.2 1042.7 533.1 1042.8 544.75 1042.9 556.2 1043.6 567.9 937.62890625 575.8537109375 818.9 525 726.909765625 491.1982421875 654.4 489.1 660.6978515625 446.525 650.55 404.6
L 644.15 387.95 637.75 461.6
Q 608.2919921875 560.78046875 559 649.85 549.859375 683.716796875 512.9 684.4 509.35 684.8 505.8 685.25 468.2556640625 688.944921875 437.15 689.45 406.037890625 689.9583984375 377.925 671.325 349.816015625 652.68828125 331.05 677.35 330.8056640625 638.7373046875 386.75 633.2 421.77109375 642.5931640625 452.05 633.2 508.54609375 613.3087890625 495.6 507.7
L 505.85 405.25
Q 512.9634765625 331.844140625 628.7 333.15 609.796875 318.05078125 575 318.2 490.819921875 315.9626953125 476.4 420.6 467.7076171875 395.0423828125 446.95 381.55 294.3400390625 394.11796875 218.35 337.4 209.57890625 329.2568359375 195.95 328.4 Z
M 1295.85 580.05
Q 1352.2 548.426171875 1408.55 571.75 1416.3814453125 614.8125 1397 653.05 1373.195703125 702.0814453125 1326.55 695.3
L 1256.8 687 1256.8 642.8 1287.5 633.2 1295.85 580.05 Z
M 759.4 542.9
Q 704.6333984375 516.4880859375 655 523.05
L 664.6 568.5
Q 673.306640625 603.6576171875 644.75 596.7
L 615.95 589 593.6 619.7
Q 608 613.4 622.25 619.25 651.8 631.3 683.7 633.7 702.15 634.65 720.55 633.7 746.4 632.3 751.7 606.95 760.0806640625 574.925 759.4 542.9 Z
M 215.8 235.6
Q 213.95 225.85 221.75 219.6 231.15 211.95 242.85 209.25 252.65 207.2 261.95 210.6 266.8 212.45 269.6 217 265.95 227.9 256.85 235 251.15 239.5 244.4 242.15 232.4 247 221.45 240.1 218.5 238.25 215.8 235.6 Z"/>
</defs>

<g transform="matrix( 1, 0, 0, 1, 0,0) ">
<use xlink:href="#Layer0_0_FILL"/>

<use xlink:href="#Layer0_0_1_STROKES"/>
</g>
</svg>
