<svg xmlns="http://www.w3.org/2000/svg" viewBox="0 0 48 48"><path d="M386.932 178.598a48.93 48.53 0 0 0-18.751 4.745l-255.875 122.26a48.93 48.53 0 0 0-26.475 32.92L22.705 613.15a48.93 48.53 0 0 0 6.643 37.208 48.93 48.53 0 0 0 2.782 3.862l177.106 220.205a48.93 48.53 0 0 0 38.256 18.26l284.018-.065a48.93 48.53 0 0 0 38.255-18.228l177.041-220.238a48.93 48.53 0 0 0 9.458-41.07l-63.225-274.626a48.93 48.53 0 0 0-26.474-32.92L410.657 183.342a48.93 48.53 0 0 0-23.725-4.745z" style="fill:#326ce5;fill-opacity:1;stroke:none;stroke-width:0;stroke-miterlimit:4;stroke-dasharray:none;stroke-opacity:1" transform="translate(-1.4 -10.93) scale(.06522)"/><path d="M389.467 272.057c-8.458 0-15.316 7.62-15.315 17.017 0 .144.03.282.033.425-.013 1.277-.074 2.815-.033 3.927.202 5.42 1.383 9.569 2.094 14.563 1.289 10.688 2.368 19.548 1.702 27.783-.648 3.105-2.935 5.945-4.974 7.92l-.36 6.479a199.32 199.32 0 0 0-27.685 4.254c-39.767 9.03-74.005 29.513-100.072 57.17a256.707 256.707 0 0 1-5.531-3.927c-2.734.37-5.498 1.213-9.097-.883-6.854-4.614-13.097-10.982-20.65-18.653-3.46-3.67-5.967-7.164-10.079-10.701-.934-.804-2.359-1.89-3.403-2.717-3.215-2.563-7.007-3.9-10.669-4.025-4.708-.16-9.24 1.68-12.206 5.4-5.273 6.613-3.585 16.721 3.763 22.58.075.06.154.105.23.164 1.01.818 2.246 1.867 3.174 2.552 4.363 3.222 8.35 4.871 12.697 7.429 9.16 5.656 16.753 10.347 22.776 16.002 2.352 2.507 2.763 6.925 3.077 8.836l4.908 4.385c-26.277 39.546-38.439 88.393-31.252 138.164l-6.414 1.865c-1.69 2.183-4.08 5.618-6.578 6.643-7.88 2.482-16.749 3.394-27.456 4.516-5.027.418-9.364.169-14.693 1.178-1.173.223-2.807.648-4.09.95-.045.008-.087.022-.132.032-.07.016-.161.05-.229.065-9.027 2.182-14.826 10.479-12.959 18.654 1.868 8.176 10.685 13.149 19.766 11.191.066-.015.16-.017.23-.032.102-.024.192-.073.294-.098 1.266-.278 2.852-.587 3.96-.884 5.239-1.403 9.033-3.464 13.744-5.269 10.133-3.634 18.526-6.67 26.703-7.854 3.415-.267 7.013 2.108 8.803 3.11l6.676-1.146c15.362 47.63 47.557 86.126 88.324 110.282l-2.782 6.676c1.003 2.592 2.109 6.1 1.362 8.66-2.973 7.708-8.064 15.845-13.862 24.916-2.808 4.19-5.68 7.443-8.214 12.239-.607 1.148-1.379 2.91-1.964 4.123-3.936 8.422-1.049 18.122 6.512 21.762 7.61 3.663 17.053-.2 21.14-8.64.007-.011.028-.02.033-.032.004-.009-.004-.023 0-.033.583-1.196 1.407-2.769 1.898-3.894 2.17-4.97 2.892-9.23 4.418-14.039 4.052-10.179 6.279-20.859 11.857-27.514 1.528-1.822 4.018-2.523 6.6-3.214l3.469-6.283c35.54 13.641 75.32 17.302 115.06 8.279a198.726 198.726 0 0 0 26.278-7.92c.975 1.73 2.787 5.054 3.273 5.891 2.623.854 5.487 1.294 7.82 4.745 4.174 7.13 7.028 15.566 10.505 25.754 1.527 4.808 2.28 9.068 4.451 14.04.495 1.132 1.315 2.727 1.898 3.926 4.079 8.467 13.553 12.343 21.173 8.672 7.56-3.642 10.45-13.34 6.512-21.762-.585-1.212-1.39-2.975-1.996-4.123-2.534-4.796-5.406-8.016-8.214-12.206-5.798-9.07-10.608-16.606-13.58-24.315-1.244-3.975.209-6.448 1.177-9.032-.58-.664-1.82-4.419-2.552-6.185 42.366-25.015 73.616-64.948 88.291-111.068 1.982.312 5.426.921 6.545 1.146 2.304-1.52 4.421-3.501 8.574-3.174 8.177 1.182 16.57 4.22 26.703 7.853 4.71 1.805 8.505 3.9 13.745 5.302 1.107.296 2.694.573 3.96.85.101.026.192.076.294.099.068.015.164.018.23.033 9.08 1.955 17.9-3.015 19.765-11.192 1.865-8.176-3.932-16.475-12.96-18.653-1.312-.299-3.174-.806-4.45-1.048-5.329-1.009-9.666-.76-14.693-1.178-10.707-1.122-19.576-2.034-27.456-4.516-3.213-1.246-5.499-5.07-6.61-6.643l-6.186-1.8c3.207-23.2 2.343-47.345-3.207-71.503-5.6-24.384-15.498-46.685-28.7-66.333 1.587-1.443 4.583-4.096 5.433-4.876.248-2.748.035-5.63 2.88-8.672 6.023-5.656 13.617-10.346 22.776-16.003 4.348-2.558 8.367-4.206 12.73-7.428.987-.729 2.334-1.883 3.37-2.717 7.347-5.86 9.039-15.968 3.764-22.58-5.274-6.612-15.495-7.235-22.842-1.374-1.045.828-2.464 1.908-3.403 2.716-4.112 3.537-6.651 7.031-10.112 10.701-7.553 7.672-13.796 14.072-20.65 18.686-2.97 1.729-7.32 1.13-9.293 1.014l-5.825 4.156c-33.216-34.83-78.44-57.098-127.136-61.424-.136-2.04-.314-5.73-.36-6.84-1.993-1.907-4.401-3.536-5.007-7.657-.666-8.235.447-17.095 1.735-27.783.711-4.994 1.893-9.143 2.094-14.563.046-1.232-.027-3.02-.032-4.352-.001-9.398-6.858-17.018-15.316-17.017zm-19.176 118.79-4.55 80.34-.326.164c-.306 7.187-6.22 12.926-13.483 12.926-2.975 0-5.72-.955-7.952-2.585l-.131.065-65.875-46.698c20.246-19.908 46.142-34.62 75.987-41.397a161.4 161.4 0 0 1 16.33-2.814zm38.386 0c34.843 4.286 67.067 20.064 91.76 44.245l-65.45 46.403-.229-.098c-5.809 4.243-13.994 3.19-18.522-2.487a13.412 13.412 0 0 1-2.945-7.821l-.066-.033zm-154.592 74.22 60.148 53.8-.065.327c5.429 4.72 6.23 12.91 1.701 18.588a13.5 13.5 0 0 1-7.003 4.614l-.065.262-77.1 22.253c-3.924-35.882 4.533-70.763 22.384-99.844zm270.34.033c8.936 14.486 15.703 30.664 19.732 48.204 3.98 17.329 4.98 34.627 3.338 51.345l-77.492-22.318-.065-.328c-6.94-1.896-11.204-8.955-9.589-16.035a13.39 13.39 0 0 1 4.287-7.166l-.033-.164 59.821-53.538zM377.13 523.023h24.642l15.315 19.144-5.498 23.89-22.122 10.635-22.187-10.669-5.498-23.889zm78.998 65.515c1.047-.053 2.09.041 3.108.229l.131-.164 79.75 13.483c-11.67 32.79-34.005 61.198-63.845 80.208l-30.958-74.776.098-.13c-2.844-6.608.002-14.357 6.545-17.508a13.468 13.468 0 0 1 5.17-1.342zm-133.943.327c6.086.086 11.545 4.31 12.96 10.505.661 2.9.339 5.774-.753 8.312l.229.294L303.99 682c-28.639-18.377-51.449-45.892-63.65-79.652l79.063-13.417.13.163a13.67 13.67 0 0 1 2.651-.229zm66.791 32.43c2.12-.077 4.272.358 6.316 1.342 2.68 1.29 4.751 3.323 6.054 5.76h.295l38.975 70.423a161.537 161.537 0 0 1-15.577 4.353c-29.808 6.768-59.52 4.717-86.426-4.45l38.877-70.293h.065a13.519 13.519 0 0 1 11.421-7.134z" style="color:#000;font-style:normal;font-variant:normal;font-weight:400;font-stretch:normal;font-size:medium;line-height:normal;font-family:Sans;-inkscape-font-specification:Sans;text-indent:0;text-align:start;text-decoration:none;text-decoration-line:none;letter-spacing:normal;word-spacing:normal;text-transform:none;writing-mode:lr-tb;direction:ltr;baseline-shift:baseline;text-anchor:start;display:inline;overflow:visible;visibility:visible;fill:#fff;fill-opacity:1;stroke:none;stroke-width:0;stroke-miterlimit:4;stroke-dasharray:none;stroke-opacity:1;marker:none;enable-background:accumulate" transform="translate(-1.4 -10.93) scale(.06522)"/></svg>