<svg xmlns="http://www.w3.org/2000/svg" id="svg14" width="48" height="48" version="1.1" viewBox="-0.17 0.08 48 48"><defs id="defs4"><style id="style2">.cls-1{fill:#fff}.cls-2{fill:#326ce5}</style></defs><path id="path6" d="M28 27.258a.779.779 0 0 0-.185-.014.8.8 0 0 0-.31.08.808.808 0 0 0-.39 1.047l-.006.008 1.85 4.47a9.444 9.444 0 0 0 3.817-4.796l-4.768-.805zm-7.418.633a.807.807 0 0 0-.775-.628.793.793 0 0 0-.159.014l-.008-.01-4.726.803a9.48 9.48 0 0 0 3.805 4.761l1.832-4.426-.014-.017a.8.8 0 0 0 .045-.497zm3.958 1.736a.807.807 0 0 0-1.423.002h-.004L20.79 33.83a9.467 9.467 0 0 0 5.167.266q.477-.108.931-.26l-2.33-4.21Zm7.358-9.763-3.576 3.2.002.01a.808.808 0 0 0 .317 1.388l.004.02 4.632 1.334a9.606 9.606 0 0 0-1.38-5.952zm-6.644.358a.808.808 0 0 0 1.283.617l.014.005 3.913-2.774a9.514 9.514 0 0 0-5.486-2.645l.272 4.796zm-4.144.634a.807.807 0 0 0 1.281-.618l.02-.01.272-4.803a9.694 9.694 0 0 0-.977.168 9.43 9.43 0 0 0-4.542 2.476l3.939 2.792zm-2.1 3.63a.807.807 0 0 0 .318-1.388l.003-.02-3.595-3.215a9.428 9.428 0 0 0-1.339 5.968l4.61-1.33zm3.493 1.412 1.326.638 1.323-.636.328-1.428-.915-1.145h-1.473l-.918 1.143z" class="cls-2" style="stroke-width:.999999"/><path id="path8" d="m45.758 28.711-3.78-16.418a2.951 2.951 0 0 0-1.582-1.968l-15.3-7.305a2.948 2.948 0 0 0-2.54 0L7.26 10.329a2.95 2.95 0 0 0-1.583 1.968L1.903 28.715a2.889 2.889 0 0 0 0 1.26 2.93 2.93 0 0 0 .106.373 2.842 2.842 0 0 0 .291.591c.052.08.107.157.166.231l10.588 13.165c.047.057.098.11.148.162a2.912 2.912 0 0 0 .559.463 3.02 3.02 0 0 0 .836.364 2.885 2.885 0 0 0 .745.103h.164l16.815-.004a2.819 2.819 0 0 0 .306-.018 2.922 2.922 0 0 0 .432-.082 3.01 3.01 0 0 0 .3-.096c.076-.03.152-.059.226-.094a3.025 3.025 0 0 0 .321-.178 2.886 2.886 0 0 0 .702-.622l.323-.401 10.262-12.766a2.86 2.86 0 0 0 .457-.821 2.966 2.966 0 0 0 .109-.374 2.882 2.882 0 0 0-.001-1.26zm-15.87 6.386a3.15 3.15 0 0 0 .153.37.719.719 0 0 0-.071.54 8.542 8.542 0 0 0 .812 1.453 7.607 7.607 0 0 1 .49.73c.038.068.086.174.12.247a.92.92 0 1 1-1.655.782c-.035-.071-.083-.167-.113-.235a7.653 7.653 0 0 1-.266-.839 8.528 8.528 0 0 0-.628-1.54.724.724 0 0 0-.467-.283c-.03-.05-.138-.25-.196-.352a11.85 11.85 0 0 1-8.45-.022l-.207.375a.744.744 0 0 0-.395.193 6.404 6.404 0 0 0-.71 1.645 7.572 7.572 0 0 1-.263.839c-.03.067-.079.161-.114.233v.002l-.001.001a.92.92 0 1 1-1.653-.784c.034-.073.08-.178.117-.246a7.632 7.632 0 0 1 .49-.732 8.945 8.945 0 0 0 .83-1.49.909.909 0 0 0-.082-.518l.167-.399a11.916 11.916 0 0 1-5.28-6.592l-.4.067a1.015 1.015 0 0 0-.526-.185 8.575 8.575 0 0 0-1.596.47 7.721 7.721 0 0 1-.822.314c-.066.018-.162.037-.237.053-.006.002-.011.005-.017.006a.131.131 0 0 1-.015.002.919.919 0 1 1-.406-1.784l.013-.004.008-.002c.077-.018.175-.043.245-.057a7.652 7.652 0 0 1 .878-.07 8.546 8.546 0 0 0 1.641-.27 1.266 1.266 0 0 0 .394-.397l.383-.112a11.849 11.849 0 0 1 1.869-8.26l-.294-.262a1.017 1.017 0 0 0-.184-.528 8.54 8.54 0 0 0-1.361-.957 7.648 7.648 0 0 1-.76-.444c-.055-.041-.129-.104-.19-.153l-.013-.01a.97.97 0 0 1-.225-1.35.882.882 0 0 1 .73-.322 1.091 1.091 0 0 1 .638.24c.062.05.147.115.203.162a7.648 7.648 0 0 1 .603.64 8.544 8.544 0 0 0 1.234 1.116.723.723 0 0 0 .544.053q.164.12.33.235a11.778 11.778 0 0 1 5.984-3.419 11.944 11.944 0 0 1 1.655-.254l.022-.387a.998.998 0 0 0 .297-.474 8.565 8.565 0 0 0-.102-1.66 7.695 7.695 0 0 1-.125-.871c-.003-.067.001-.159.002-.235l-.002-.026a.92.92 0 1 1 1.831 0c0 .08.005.186.002.26a7.617 7.617 0 0 1-.125.87 8.577 8.577 0 0 0-.104 1.662.726.726 0 0 0 .3.457c.002.067.013.287.021.41a12 12 0 0 1 7.6 3.672l.35-.25a1.018 1.018 0 0 0 .555-.06 8.577 8.577 0 0 0 1.234-1.117 7.594 7.594 0 0 1 .605-.64c.056-.048.14-.112.203-.161a.92.92 0 1 1 1.14 1.431c-.06.05-.142.119-.201.163a7.614 7.614 0 0 1-.76.444 8.569 8.569 0 0 0-1.363.956.724.724 0 0 0-.172.519c-.05.047-.23.205-.324.291a11.897 11.897 0 0 1 1.907 8.241l.37.108a1.03 1.03 0 0 0 .395.397 8.562 8.562 0 0 0 1.642.27 7.732 7.732 0 0 1 .877.07c.077.014.189.045.267.063a.919.919 0 1 1-.407 1.784l-.013-.001-.018-.007c-.076-.016-.17-.033-.237-.05a7.624 7.624 0 0 1-.821-.317 8.565 8.565 0 0 0-1.598-.47.724.724 0 0 0-.512.19q-.195-.037-.391-.068a11.915 11.915 0 0 1-5.279 6.64z" class="cls-2" style="stroke-width:.999999"/><path id="path10" d="M47.754 29.132 43.63 11.22a3.22 3.22 0 0 0-1.726-2.148L25.212 1.104a3.216 3.216 0 0 0-2.77 0L5.751 9.077a3.22 3.22 0 0 0-1.728 2.147L-.092 29.137a3.182 3.182 0 0 0 .432 2.427c.057.087.117.17.182.252L12.074 46.18a3.25 3.25 0 0 0 2.495 1.19l18.525-.004a3.251 3.251 0 0 0 2.495-1.19l11.548-14.364a3.194 3.194 0 0 0 .617-2.679zm-1.995.84a2.967 2.967 0 0 1-.108.373 2.86 2.86 0 0 1-.458.821L34.93 43.932l-.322.401a2.887 2.887 0 0 1-.703.622 3.025 3.025 0 0 1-.32.178q-.112.052-.227.094a3.01 3.01 0 0 1-.3.096 2.923 2.923 0 0 1-.432.082 2.818 2.818 0 0 1-.305.018l-16.815.004h-.165a2.885 2.885 0 0 1-.744-.102 3.021 3.021 0 0 1-.837-.365 2.912 2.912 0 0 1-.559-.462c-.05-.053-.101-.106-.147-.163L2.466 31.17q-.088-.111-.166-.23a2.843 2.843 0 0 1-.291-.592 2.93 2.93 0 0 1-.107-.373 2.889 2.889 0 0 1 .001-1.26l3.774-16.419a2.95 2.95 0 0 1 1.583-1.968L22.557 3.02a2.948 2.948 0 0 1 2.54 0l15.3 7.305a2.951 2.951 0 0 1 1.581 1.969l3.78 16.418a2.882 2.882 0 0 1 0 1.26z" class="cls-1" style="stroke-width:.999999"/><path id="path12" d="M39.164 27.396c-.078-.018-.19-.048-.266-.062a7.733 7.733 0 0 0-.878-.071 8.562 8.562 0 0 1-1.642-.27 1.03 1.03 0 0 1-.395-.397l-.37-.108a11.897 11.897 0 0 0-1.907-8.24c.095-.086.274-.245.324-.292a.724.724 0 0 1 .172-.518 8.569 8.569 0 0 1 1.362-.957 7.614 7.614 0 0 0 .76-.444c.06-.044.14-.113.202-.162a.92.92 0 1 0-1.14-1.432c-.062.049-.147.114-.203.162a7.594 7.594 0 0 0-.605.64 8.577 8.577 0 0 1-1.235 1.117 1.018 1.018 0 0 1-.555.06l-.348.249a12 12 0 0 0-7.6-3.673c-.01-.121-.02-.342-.023-.408a.726.726 0 0 1-.299-.458 8.577 8.577 0 0 1 .104-1.661 7.618 7.618 0 0 0 .125-.87c.003-.074-.002-.182-.002-.261a.92.92 0 1 0-1.831 0l.002.026c0 .076-.005.168-.002.235a7.697 7.697 0 0 0 .125.87 8.564 8.564 0 0 1 .102 1.661.998.998 0 0 1-.297.474l-.022.387a11.944 11.944 0 0 0-1.655.255 11.778 11.778 0 0 0-5.983 3.418q-.167-.116-.33-.235a.723.723 0 0 1-.545-.053 8.544 8.544 0 0 1-1.234-1.115 7.649 7.649 0 0 0-.603-.64c-.055-.048-.14-.113-.203-.163a1.091 1.091 0 0 0-.638-.24.882.882 0 0 0-.73.322.97.97 0 0 0 .225 1.35l.014.01c.06.05.134.112.19.153a7.649 7.649 0 0 0 .759.444 8.541 8.541 0 0 1 1.361.957 1.018 1.018 0 0 1 .184.528l.294.262a11.849 11.849 0 0 0-1.869 8.26l-.383.112a1.266 1.266 0 0 1-.394.396 8.546 8.546 0 0 1-1.64.271 7.651 7.651 0 0 0-.88.07c-.07.014-.167.038-.244.058l-.008.001-.013.004a.919.919 0 1 0 .407 1.784l.014-.002c.006-.001.01-.004.017-.005.075-.018.17-.036.237-.054a7.722 7.722 0 0 0 .821-.314 8.576 8.576 0 0 1 1.597-.47 1.015 1.015 0 0 1 .526.186l.4-.068a11.916 11.916 0 0 0 5.28 6.592l-.167.4a.909.909 0 0 1 .082.517 8.945 8.945 0 0 1-.829 1.49 7.633 7.633 0 0 0-.49.731c-.037.069-.084.175-.119.247a.92.92 0 1 0 1.654.784l.001-.001v-.002c.035-.072.084-.166.114-.233a7.572 7.572 0 0 0 .264-.84 6.404 6.404 0 0 1 .709-1.644.744.744 0 0 1 .395-.193l.207-.375a11.85 11.85 0 0 0 8.45.021c.058.104.166.302.195.352a.724.724 0 0 1 .468.285 8.528 8.528 0 0 1 .628 1.54 7.653 7.653 0 0 0 .266.838c.03.068.078.163.113.235a.92.92 0 1 0 1.656-.782c-.035-.073-.083-.178-.12-.247a7.607 7.607 0 0 0-.49-.73 8.542 8.542 0 0 1-.812-1.453.719.719 0 0 1 .07-.54 3.15 3.15 0 0 1-.153-.37 11.915 11.915 0 0 0 5.279-6.64c.118.019.324.055.391.069a.724.724 0 0 1 .512-.19 8.565 8.565 0 0 1 1.597.469 7.623 7.623 0 0 0 .822.317c.066.017.16.034.236.05l.019.007.013.002a.919.919 0 1 0 .407-1.784zm-8.7-9.326-3.913 2.774-.014-.006a.808.808 0 0 1-1.283-.616l-.004-.002-.272-4.795a9.514 9.514 0 0 1 5.486 2.645zm-7.372 5.257h1.473l.915 1.144-.328 1.428-1.322.636-1.327-.637-.329-1.429zm-1.385-7.735a9.692 9.692 0 0 1 .977-.167l-.273 4.802-.02.01a.807.807 0 0 1-1.28.619l-.008.004-3.939-2.793a9.43 9.43 0 0 1 4.543-2.475zm-5.97 4.27 3.595 3.216-.004.02a.807.807 0 0 1-.317 1.387l-.004.016-4.61 1.33a9.428 9.428 0 0 1 1.34-5.969zm4.814 8.544-1.832 4.425a9.48 9.48 0 0 1-3.804-4.762l4.726-.802.008.01a.793.793 0 0 1 .158-.014.807.807 0 0 1 .73 1.125zm5.405 5.69a9.467 9.467 0 0 1-5.167-.265l2.325-4.202h.004a.808.808 0 0 1 1.422-.002h.018l2.33 4.21q-.454.152-.932.26zm3.003-1.247-1.85-4.47.006-.008a.808.808 0 0 1 .39-1.047.8.8 0 0 1 .31-.08.779.779 0 0 1 .185.014l.008-.01 4.768.805a9.444 9.444 0 0 1-3.817 4.796zm4.318-7.034-4.632-1.334-.004-.02a.808.808 0 0 1-.317-1.387l-.002-.01 3.576-3.2a9.607 9.607 0 0 1 1.38 5.952z" class="cls-1" style="stroke-width:.999999"/></svg>