<?xml version="1.0" encoding="utf-8"?>
<!-- Generator: Adobe Illustrator 27.1.1, SVG Export Plug-In . SVG Version: 6.00 Build 0)  -->
<svg version="1.1" id="Layer_1" xmlns="http://www.w3.org/2000/svg" xmlns:xlink="http://www.w3.org/1999/xlink" x="0px" y="0px"
	 viewBox="0 0 150 150" style="enable-background:new 0 0 150 150;" xml:space="preserve">
<style type="text/css">
	.st0{fill:#EF3B2D;}
</style>
<g>
	<path class="st0" d="M146.7,34.4L146.7,34.4c0-0.3-0.3-0.3-0.3-0.6c0,0,0,0-0.3-0.3c0,0,0-0.3-0.3-0.3c0,0,0,0-0.3-0.3
		c0,0-0.3,0-0.3-0.3l0,0l0,0l-27.7-16c-0.6-0.3-1.6-0.3-2.2,0l-27.7,16l0,0l0,0c0,0-0.3,0-0.3,0.3c0,0-0.3,0-0.3,0.3
		c0,0,0,0.3-0.3,0.3c0,0,0,0-0.3,0.3v0.3c0,0,0,0,0,0.3s0,0.3,0,0.6v30.5L63,78.7V19.3c0-0.3,0-0.3,0-0.6c0,0,0,0,0-0.3V18
		c0,0,0,0-0.3-0.3c0,0,0-0.3-0.3-0.3c0,0,0,0-0.3-0.3c0,0-0.3,0-0.3-0.3l0,0l0,0l-27.7-16c-0.6-0.3-1.6-0.3-2.2,0L4.2,17.4l0,0l0,0
		c0,0-0.3,0-0.3,0.3c0,0-0.3,0-0.3,0.3c0,0,0,0.3-0.3,0.3c0,0,0,0-0.3,0.3V19c0,0,0,0,0,0.3c0,0.3,0,0.3,0,0.6v95.3
		c0,0.9,0.3,1.6,1.3,1.9l55.7,32.1c0,0,0.3,0,0.3,0.3c0,0,0,0,0.3,0s0.3,0,0.6,0c0.3,0,0.3,0,0.6,0l0,0c0,0,0.3,0,0.3-0.3l55.7-32.1
		c0.6-0.3,1.3-1.3,1.3-1.9V84.7l26.7-15.4c0.6-0.3,1.3-1.3,1.3-1.9V35C146.7,35,146.7,34.7,146.7,34.4z M61.2,111.8l-23-13.2
		l24.2-13.8l0,0l26.7-15.4l23.3,13.2l-17,9.7L61.2,111.8z M114.3,52.3v26.4l-9.7-5.7l-13.2-7.5V39.1l9.7,5.7L114.3,52.3z
		 M116.8,21.8L140.1,35l-23.3,13.2L93.6,35L116.8,21.8z M45.4,89.1l-9.7,5.7V36.6l13.5-7.9l9.7-5.7v58.2L45.4,89.1z M33.2,6.1
		l23.3,13.2L33.2,32.5l-23-13.2L33.2,6.1z M7.7,23.4l9.7,5.7L31,36.9v62.3l0,0l0,0v0.3v0.3l0,0v0.3v0.3l0,0c0,0,0,0,0.3,0.3
		c0,0,0,0.3,0.3,0.3l0,0c0,0,0,0,0.3,0.3c0,0,0.3,0,0.3,0.3l0,0l0,0L59,116.8v26.7L7.7,113.3V23.4L7.7,23.4z M114.3,113.3l-51,29.2
		v-26.7l37.7-21.4l13.2-7.5V113.3z M142.3,65.5L119,78.7V52.3l13.5-7.9l9.7-5.7C142.3,38.8,142.3,65.5,142.3,65.5z"/>
</g>
</svg>
