<?xml version="1.0" encoding="utf-8"?>
<!-- Generator: Adobe Illustrator 27.1.1, SVG Export Plug-In . SVG Version: 6.00 Build 0)  -->
<svg version="1.1" id="Layer_1" xmlns="http://www.w3.org/2000/svg" xmlns:xlink="http://www.w3.org/1999/xlink" x="0px" y="0px"
	 viewBox="0 0 48 48" style="enable-background:new 0 0 48 48;" xml:space="preserve">
<style type="text/css">
	.st0{fill:#EF3B2D;}
</style>
<g>
	<path class="st0" d="M46.8,11.1C46.8,11.1,46.8,11.1,46.8,11.1c0-0.1-0.1-0.1-0.1-0.2c0,0,0,0-0.1-0.1c0,0,0-0.1-0.1-0.1
		c0,0,0,0-0.1-0.1c0,0-0.1,0-0.1-0.1c0,0,0,0,0,0c0,0,0,0,0,0l-8.8-5.1c-0.2-0.1-0.5-0.1-0.7,0l-8.8,5.1c0,0,0,0,0,0c0,0,0,0,0,0
		c0,0-0.1,0-0.1,0.1c0,0-0.1,0-0.1,0.1c0,0,0,0.1-0.1,0.1c0,0,0,0-0.1,0.1c0,0,0,0.1,0,0.1c0,0,0,0,0,0.1c0,0.1,0,0.1,0,0.2V21
		l-7.4,4.2V6.3c0-0.1,0-0.1,0-0.2c0,0,0,0,0-0.1c0,0,0-0.1,0-0.1c0,0,0,0-0.1-0.1c0,0,0-0.1-0.1-0.1c0,0,0,0-0.1-0.1
		c0,0-0.1,0-0.1-0.1c0,0,0,0,0,0c0,0,0,0,0,0l-8.8-5.1c-0.2-0.1-0.5-0.1-0.7,0L1.5,5.7c0,0,0,0,0,0c0,0,0,0,0,0c0,0-0.1,0-0.1,0.1
		c0,0-0.1,0-0.1,0.1c0,0,0,0.1-0.1,0.1c0,0,0,0-0.1,0.1c0,0,0,0.1,0,0.1c0,0,0,0,0,0.1c0,0.1,0,0.1,0,0.2v30.3
		c0,0.3,0.1,0.5,0.4,0.6l17.7,10.2c0,0,0.1,0,0.1,0.1c0,0,0,0,0.1,0c0.1,0,0.1,0,0.2,0s0.1,0,0.2,0c0,0,0,0,0,0c0,0,0.1,0,0.1-0.1
		l17.7-10.2c0.2-0.1,0.4-0.4,0.4-0.6v-9.7l8.5-4.9c0.2-0.1,0.4-0.4,0.4-0.6V11.3C46.8,11.3,46.8,11.2,46.8,11.1z M19.6,35.7
		l-7.3-4.2l7.7-4.4c0,0,0,0,0,0l8.5-4.9l7.4,4.2l-5.4,3.1L19.6,35.7z M36.5,16.8v8.4l-3.1-1.8L29.2,21v-8.4l3.1,1.8L36.5,16.8z
		 M37.3,7.1l7.4,4.2l-7.4,4.2l-7.4-4.2L37.3,7.1z M14.6,28.5l-3.1,1.8V11.8l4.3-2.5l3.1-1.8v18.5L14.6,28.5z M10.7,2.1l7.4,4.2
		l-7.4,4.2L3.4,6.3L10.7,2.1z M2.6,7.6l3.1,1.8l4.3,2.5v19.8c0,0,0,0,0,0c0,0,0,0,0,0c0,0,0,0.1,0,0.1c0,0,0,0.1,0,0.1c0,0,0,0,0,0
		c0,0,0,0.1,0,0.1c0,0,0,0.1,0,0.1c0,0,0,0,0,0c0,0,0,0,0.1,0.1c0,0,0,0.1,0.1,0.1c0,0,0,0,0,0c0,0,0,0,0.1,0.1c0,0,0.1,0,0.1,0.1
		c0,0,0,0,0,0s0,0,0,0l8.5,4.8v8.5L2.6,36.2L2.6,7.6L2.6,7.6z M36.5,36.2l-16.2,9.3V37l12-6.8l4.2-2.4V36.2z M45.4,21L38,25.2v-8.4
		l4.3-2.5l3.1-1.8V21z"/>
</g>
</svg>
