<svg xmlns="http://www.w3.org/2000/svg" viewBox="0 0 48 48"><path d="M149.96-340.67c1.897-3.417 3.87-6.36 5.928-8.892l.025-.025c.007-.009.017-.016.025-.025-.948.139-1.925.235-2.94.225-2.003-.022-4.155-.366-6.475-1.096 3.985-3.337 7.378-5.777 10.36-7.672l-.223.075.224-.125c-4.621 1.447-9.606 1.624-15.442-1.145 4.19-2.623 7.707-4.536 10.81-5.978-.09.014-.183.037-.274.05l.224-.125c-4.835.833-9.854.365-15.318-3.238 3.563-1.587 6.658-2.785 9.415-3.71h.025l.174-.1c-4.61-.18-9.18-1.615-13.649-5.853 3.903-.969 7.245-1.615 10.187-2.043-.082-.017-.166-.032-.249-.05-.115.002-.234-.002-.349 0l.125-.05c-3.437-.78-6.789-2.503-10.062-5.803a114.776 114.776 0 0 1 7.223-1.345c-2.69-1.3-5.244-3.315-7.572-6.401 3.056-.237 5.764-.339 8.195-.349-2.941-1.36-5.713-3.497-8.17-6.949 4.365-.218 8.014-.209 11.158-.025-.059-.024-.115-.05-.174-.074-.191-.017-.383-.03-.573-.05l.274-.1c-3.27-1.435-6.295-3.761-8.892-7.696 5.425-.08 9.722.177 13.325.623-.11-.03-.214-.069-.324-.1-.139-.008-.286-.015-.423-.025l.174-.05c-4.25-1.266-8.174-3.704-11.432-8.642 4.382-.064 8.041.102 11.183.398-.068-.037-.131-.087-.199-.124-3.754-2.095-6.982-5.24-9.116-10.561 3.854.73 7.084 1.5 9.888 2.316-.046-.037-.103-.062-.15-.1l.175.025c-2.886-2.154-5.313-5.172-6.949-9.639 2.653.587 5.024 1.203 7.148 1.819-1.907-2.306-3.38-5.184-4.209-8.967 2.881 1.061 5.38 2.082 7.597 3.089-.027-.032-.048-.068-.075-.1-.045-.036-.105-.064-.15-.1l.075.025c-2.033-2.436-3.584-5.5-4.358-9.564 4.056 1.622 7.356 3.179 10.137 4.658-.079-.076-.176-.148-.25-.225l.075.025c-2.46-2.697-4.296-6.163-5.031-10.934 4.788 2.114 8.478 4.079 11.507 5.928l-.1-.1.2.1c-3.44-2.946-6.079-6.854-7-12.827 6.454 2.85 10.968 5.43 14.472 7.821-1.505-3.043-2.3-6.59-1.918-11.034 6.237 4.785 10.186 8.643 13.126 12.055-.005-.05.004-.1 0-.15-.178-2.162-.043-4.507.598-7.098 3.698 6.353 7.396 8.986 11.158 11.158-4.706-3.05-3.86-5.521-3.86-8.344 5.595 5.893 13.378 12.151 15.765 16.065-3.19-4.792-4.465-9.343-5.305-13.35-16.327-8.634-26.29-10.895-37.435-14.346 4.323-1.585 8.963-3.126 7.049-5.33l-5.106-5.106c3.265 1.015 6.6 2.478 9.49.498-.284-2.678-3.662-4.043-6.551-5.604 5.087 1.833 6.184 1.402 7.522.972.668-3.21-1.653-4.93-3.163-7.05 12.813 9.743 29.522 17.435 41.296 20.649 16.56 5.577 37.929 11.39 43.737 25.53l5.803 23.313c6.808 7.369 13.07 14.997 16.04 24.284 18.958 3.668 34.295 2.353 50.287 1.943-1.458.243-48.818 8.269-48.818 8.269-13.844 18.942-34.497 6.059-41.296-12.653-1.716-4.723-11.51-4.713-14.346.025-11.218 24.152-45.282 49.693-74.273 59.104z" style="fill:#000;fill-rule:nonzero" transform="matrix(.2438 0 0 -.2438 -32.136 -77.232)"/><path d="M149.63-339.31c1.91-3.441 3.896-6.378 5.97-8.922-.948.138-1.925.22-2.94.209-2.003-.021-4.145-.354-6.466-1.084 4.05-3.391 7.472-5.866 10.49-7.773-4.663 1.49-9.685 1.702-15.584-1.097 4.31-2.697 7.926-4.645 11.091-6.1-4.934.909-10.052.494-15.637-3.188 3.688-1.643 6.877-2.877 9.706-3.815-4.644-.162-9.242-1.597-13.742-5.865 3.904-.968 7.248-1.61 10.19-2.038-3.601-.727-7.133-2.454-10.556-5.904a114.26 114.26 0 0 1 7.224-1.333c-2.69-1.3-5.236-3.315-7.563-6.4 3.056-.238 5.76-.343 8.19-.353-2.941-1.361-5.694-3.512-8.151-6.963 4.365-.218 8.01-.197 11.156-.013-3.457-1.413-6.642-3.8-9.366-7.93 5.424-.079 9.72.182 13.324.627-4.473-1.214-8.612-3.655-12.018-8.817 4.382-.064 8.04.095 11.182.392-3.842-2.094-7.142-5.27-9.314-10.686 3.955.749 7.27 1.55 10.124 2.39-2.973-2.163-5.472-5.202-7.146-9.771 2.653.587 5.008 1.2 7.133 1.816-1.908-2.306-3.378-5.192-4.207-8.975a111.265 111.265 0 0 1 7.59 3.096c-2.106-2.463-3.714-5.583-4.507-9.745 4.057 1.622 7.356 3.172 10.137 4.65-2.55-2.724-4.446-6.23-5.199-11.116 4.939 2.18 8.728 4.2 11.809 6.1-3.538-2.965-6.26-6.908-7.198-12.998 6.454 2.85 10.957 5.433 14.461 7.825-1.505-3.043-2.302-6.607-1.92-11.05 6.237 4.784 10.188 8.658 13.128 12.07-.198-2.204-.042-4.6.614-7.25 4.478 7.692 8.927 9.938 13.532 12.505-7.335-3.692-6.247-6.472-6.247-9.698 5.595 5.893 13.398 12.141 15.785 16.055-3.191-4.792-4.49-9.33-5.33-13.337-16.327-8.634-26.268-10.89-37.413-14.343 4.323-1.585 8.956-3.138 7.041-5.343l-5.108-5.094c3.265 1.015 6.594 2.463 9.484.483-.283-2.678-3.668-4.03-6.558-5.59 5.087 1.832 6.187 1.409 7.525.979.668-3.209-1.65-4.935-3.161-7.054 12.813 9.742 29.532 17.439 41.306 20.653 16.56 5.577 37.915 11.374 43.722 25.512l5.826 23.318c6.808 7.368 13.07 15.01 16.042 24.297 18.958 3.668 34.288 2.343 50.28 1.933-1.458.243-48.83 8.27-48.83 8.27-13.844 18.941-34.481 6.066-41.28-12.646-1.716-4.723-11.506-4.724-14.343.013-11.218 24.152-45.286 49.687-74.277 59.098z" style="fill:teal;fill-rule:nonzero" transform="matrix(.2438 0 0 -.2438 -32.136 -77.232)"/><path d="m261.48-388.74-.125-.2c-.49-.915-1.322-1.54-2.49-1.917-1.169-.378-2.666-.499-4.409-.424l-1.096.05.797-.772c.405-.39.518-.7.523-.971.006-.272-.11-.565-.373-.897-.525-.664-1.568-1.385-2.54-2.117l-.325-.224.225-.324c.811-1.245 1.183-2.203 1.27-2.939.087-.736-.084-1.263-.424-1.719-.679-.91-2.17-1.527-3.511-2.29l-.25-.125.05-.3c.116-.7-.073-1.272-.572-1.842-.5-.571-1.341-1.115-2.466-1.595l-.3-.124.05-.324c.225-1.5.676-2.804 1.62-3.636.863-.762 2.17-.962 3.835-.623.29-1.598.707-3.052 1.669-4.01.975-.971 2.519-1.258 4.583-.722.464-1.12 1.143-1.917 1.918-2.441.85-.575 1.962-.807 2.876-1.091l.542.582c-.908.282-2.247.718-2.97 1.206-.722.489-1.31 1.158-1.718 2.316l-.125.399-.399-.124c-2.122-.653-3.299-.36-4.11.448-.81.807-1.265 2.265-1.543 3.96l-.075.448-.448-.124c-1.75-.457-2.783-.223-3.487.398-.659.58-1.049 1.61-1.27 2.89 1.013.468 1.882.98 2.44 1.618.546.624.782 1.393.747 2.192 1.237.68 2.728 1.265 3.587 2.416.45.602.682 1.394.573 2.317-.1.84-.51 1.81-1.22 2.964.87.641 1.817 1.284 2.415 2.042.333.421.584.887.573 1.42-.006.293-.288.56-.448.846 1.515-.02 2.896.08 4.035.449 1.2.388 2.143 1.095 2.765 2.067 1.793-.009 3.65-.403 5.529-.648 1.93-.25 3.894-.318 5.753.499l-.348.772c-1.646-.722-3.403-.693-5.28-.449-1.878.244-3.835.687-5.804.673h-.25z" style="fill:#fff;fill-rule:nonzero" transform="matrix(.2438 0 0 -.2438 -32.136 -77.232)"/><path d="M268.45-388.43a3.54 3.54 0 1 0-7.078 0 3.54 3.54 0 0 0 7.078 0z" style="fill:#fff;fill-rule:nonzero;stroke:#fff;stroke-width:.83588;stroke-linecap:butt;stroke-linejoin:miter;stroke-miterlimit:4;stroke-dasharray:none" transform="matrix(.2438 0 0 -.2438 -32.136 -77.232)"/><path d="M279.02-385.11c-3.177-4.133-3.976-3.066-5.91-3.759l-.324-.124.05-.349c.744-4.151 3.205-5.47 5.125-6.98l.107.336.511.098c-1.925 1.512-4.031 2.794-4.797 6.322 1.409.333 2.753-.093 5.754 3.81l-.516.646zm-122.34 28.24c6.004-3.723 15.885-7.562 22.231-11.572 3.491-2.223 6.627-4.438 9.066-6.351 2.44-1.914 4.243-3.89 4.907-4.533.663-.643 1.114-.34.672.498-.441.837-2.614 2.772-5.08 4.707-2.467 1.935-5.605 4.14-9.117 6.376-7.023 4.473-15.267 8.471-22.679 10.875zm-1.08 8.64c2.517-.581 6.231-2.728 10.362-5.024 4.13-2.297 8.633-5.123 12.752-7.871 4.12-2.748 7.296-5.153 9.835-7.09 2.411-2.064 3.602-3.4 4.063-3.396a.63.63 0 0 1 .224 0c.099.014.265.09.349.25a.453.453 0 0 1 .025.373.645.645 0 0 1-.075.174c-.136.205-.344.396-.647.673-.607.552-1.61 1.365-2.89 2.341-2.559 1.953-6.277 4.615-10.41 7.372-4.134 2.758-8.668 5.608-12.828 7.92-1.478.549-8.73 4.384-10.76 4.278zm-3.44-15.85c7.706-3.145 18.668-6.84 25.985-11.439 3.931-2.497 7.356-4.984 9.913-7.024a60.55 60.55 0 0 0 3.138-2.665c.792-.728 1.239-1.389 1.495-1.569.536-.378.946-.127.697.473-.188.453-.808.973-1.619 1.719-.811.746-1.897 1.66-3.188 2.69a116.268 116.268 0 0 1-9.988 7.098c-7.918 5.028-17.384 9.45-26.433 10.717zm-5.93-6.99c6.005-.004 18.411-5.501 23.64-8.256 8.478-4.521 16.188-10.334 20.449-14.396.472-.45 1.163-.053.623.573-3.958 4.586-12.132 9.99-20.673 14.546-8.541 4.555-17.385 7.54-24.04 7.534zm-3.47-7.91c9.028-1.321 19.851-4.965 27.736-8.914 4.4-2.234 8.324-4.627 11.333-6.75 3.009-2.123 5.23-4.512 5.778-5.13.549-.62 1.202-.645.698.448-.504 1.092-2.954 3.229-6.003 5.38-3.048 2.15-6.997 4.547-11.432 6.8-8.87 4.502-18.97 8.045-28.11 8.166zm2.98-6.72c-2.243.196-4.262-.264-6.319-.521 8.023.751 19.24-2.933 26.718-6.378 8.81-4.13 16.123-9.8 19.627-13.4.549-.564.937.154.648.523-3.263 4.165-11.032 9.48-19.926 13.649-6.67 3.127-14.019 5.54-20.748 6.127zm-5.7-7.23c7.894-.585 18.464-2.475 25.868-5.874 7.446-3.483 13.097-7.999 15.94-10.561.437-.394 1.211-.115.598.598-2.595 3.014-8.628 7.184-16.165 10.71-7.537 3.525-16.692 5.782-26.241 5.127zm7.09-6.57c-1.666.056-2.447-.255-4.054-.429 5.358-.236 13.873-1.661 18.575-3.257 6.102-2.117 11.12-5.306 13.973-7.796.551-.481.962.164.598.573-2.673 3-8.105 5.872-14.297 8.02-4.644 1.61-9.798 2.72-14.795 2.889zm-.23-7.77c11.454-.773 18.38-2.791 23.689-7.547.398-.356 1.026.134.598.598-5.448 5.903-16.175 7.547-24.287 6.949zm8.82-6.88c-3.472.28-6.378-.48-9.542-1.533 9.26 1.476 13.111.768 20.127-2.527.8-.375.753.51.399.723-3.728 2.24-7.512 3.058-10.984 3.337zm-.33-6.45c-3.283-.291-6.07-1.418-8.369-3.288 9.17 3.535 11.705 2.832 18.72.843.922-.261.635.627.273.772-4.2 1.684-7.34 1.964-10.624 1.673zm18.17-5.68c-4.893.529-10.405-.064-15.243-.946-4.838-.883-8.998-2.675-11.347-4.585 8.043 3.397 9.51 3.39 11.497 3.763 4.766.869 9.49 1.208 15.044.946.504-.024.478.776.05.822zm2.84-3.96c-5.302.2-10.779-1.112-15.517-2.466-4.738-1.354-8.254-3.201-10.573-5.087 4.692 2.257 9.058 3.784 10.797 4.29 4.671 1.335 9.384 2.491 15.343 2.416.463-.006.762.816-.05.847zm4.33-3.26c-4.994-.737-10.23-2.212-14.795-3.76-4.564-1.55-7.814-3.389-9.933-5.59 5.43 3.116 8.415 4.209 10.182 4.817 4.508 1.53 8.718 2.594 14.695 3.711.717.134.141.865-.15.822zm2.54-4.16c-10.015-1.595-16.505-5.916-20.63-10.201 6.393 4.816 10.84 7.405 20.804 9.38.63.124.44.92-.174.821zm4.88-3.66c-10.073-1.552-15.882-7.675-18.301-11.717 6.373 6.367 11.333 9.831 18.475 10.895.723.108.538.932-.174.822zm3.04-3.19c-1.571-.196-3.709-1.309-5.729-2.59-2.02-1.282-3.543-2.841-4.452-4.85 2.433 2.51 3.407 3.19 4.9 4.152a21.558 21.558 0 0 0 5.48 2.466c.744.216.182.87-.2.822z" style="fill:#fff;fill-rule:nonzero" transform="matrix(.2438 0 0 -.2438 -32.136 -77.232)"/><path d="M268.45-388.43a3.54 3.54 0 1 0-7.078 0 3.54 3.54 0 0 0 7.078 0z" style="fill:#fff;fill-rule:nonzero;stroke:#fff;stroke-width:.83588;stroke-linecap:butt;stroke-linejoin:miter;stroke-miterlimit:4;stroke-dasharray:none" transform="matrix(.2438 0 0 -.2438 -32.136 -77.232)"/><path d="M268.45-388.43a3.54 3.54 0 1 0-7.078 0 3.54 3.54 0 0 0 7.078 0z" style="fill:#37c871;fill-rule:nonzero;stroke:#fff;stroke-width:.83588;stroke-linecap:butt;stroke-linejoin:miter;stroke-miterlimit:4;stroke-dasharray:none" transform="matrix(.2438 0 0 -.2438 -32.136 -77.232)"/></svg>