<svg xmlns="http://www.w3.org/2000/svg" viewBox="0 0 48 48"><g style="fill:#000"><path d="M5.46 4.23h-.25c-.1 1.02-.24 2.26-2 2.26H2.4c-.47 0-.49-.07-.49-.4V.78c0-.34 0-.48.94-.48h.33V0c-.36.03-1.26.03-1.67.03C1.12.03.34.03 0 0v.3h.23c.77 0 .79.11.79.47v5.25c0 .36-.02.47-.79.47H0v.31h5.19l.27-2.57z" style="fill:#000" transform="translate(0 15.441) scale(1.92771)"/><path d="M2.81.16C2.77.04 2.75 0 2.62 0s-.16.04-.2.16L.81 4.24c-.07.17-.19.48-.81.48v.25h1.55v-.25c-.31 0-.5-.14-.5-.34 0-.05.01-.07.03-.14l.34-.86H3.4l.4 1.02c.02.04.04.09.04.12 0 .2-.38.2-.57.2v.25h1.97v-.25H5.1c-.47 0-.52-.07-.59-.27L2.81.16zm-.4.71.89 2.26H1.52L2.41.87z" style="fill:#000" transform="translate(4.78 15.113) scale(1.92771)"/><path d="M6.27 0H.18L0 2.24h.24C.38.63.53.3 2.04.3c.18 0 .44 0 .54.02.21.04.21.15.21.38v5.25c0 .34 0 .48-1.05.48h-.4v.31c.41-.03 1.42-.03 1.88-.03.46 0 1.49 0 1.9.03v-.31h-.4c-1.05 0-1.05-.14-1.05-.48V.7c0-.2 0-.34.18-.38.11-.02.38-.02.57-.02 1.5 0 1.65.33 1.79 1.94h.25L6.27 0Z" style="fill:#000" transform="translate(13.552 15.557) scale(1.92771)"/><path d="M6.16 4.2h-.25c-.25 1.53-.48 2.26-2.19 2.26H2.4c-.47 0-.49-.07-.49-.4V3.4h.89c.97 0 1.08.32 1.08 1.17h.25V1.93h-.25c0 .85-.11 1.16-1.08 1.16h-.89V.7c0-.33.02-.4.49-.4h1.28c1.53 0 1.79.55 1.95 1.94h.25L5.6 0H0v.3h.23c.77 0 .79.11.79.47v5.22c0 .36-.02.47-.79.47H0v.31h5.74l.42-2.57z" style="fill:#000" transform="translate(24.096 19.836) scale(1.92771)"/><path d="m3.76 2.95 1.37-2C5.34.63 5.68.31 6.57.3V0H4.19v.3c.4.01.62.23.62.46 0 .1-.02.12-.09.23L3.58 2.67 2.3.75C2.28.72 2.23.64 2.23.6c0-.12.22-.29.64-.3V0C2.53.03 1.8.03 1.42.03 1.11.03.49.02.12 0v.3h.19c.55 0 .74.07.93.35l1.83 2.77-1.63 2.41c-.14.2-.44.66-1.44.66v.31h2.38v-.31c-.46-.01-.63-.28-.63-.46 0-.09.03-.13.1-.24L3.26 3.7l1.58 2.38c.02.04.05.08.05.11 0 .12-.22.29-.65.3v.31c.35-.03 1.08-.03 1.45-.03.42 0 .88.01 1.3.03v-.31H6.8c-.52 0-.73-.05-.94-.36l-2.1-3.18z" style="fill:#000" transform="translate(34.525 15.441) scale(1.92771)"/></g></svg>