
<svg xmlns="http://www.w3.org/2000/svg" version="1.1" xmlns:xlink="http://www.w3.org/1999/xlink" preserveAspectRatio="none" x="0px" y="0px" width="48px" height="48px" viewBox="0 0 48 48">
<defs>
<g id="Layer1_0_FILL">
<path fill="#56A3DA" stroke="none" d="
M 54.5 -2.15
L -4.9 -2.15 -4.9 51.1 54.5 51.1 54.5 -2.15 Z"/>
</g>

<g id="Layer0_0_FILL">
<path fill="#231F20" stroke="none" d="
M 39.8 32.5
Q 39.8 31.8 39.3 31.3 38.85 30.85 38.15 30.85
L 22.15 30.85 22.15 36.8 39.8 36.8 39.8 32.5
M 42.65 42.6
L 42.65 38.15 10.45 38.15 10.45 26.3 6 26.3 6 45.65 10.45 45.65 10.45 42.6 32.5 42.6 32.5 45.65 37 45.65 37 42.6 42.65 42.6
M 11.95 33.9
L 11.95 36.8 20.8 36.8 20.8 30.85 17.8 30.85 17.8 33.9 11.95 33.9
M 15.95 31.6
Q 16.65 30.9 16.65 29.95 16.65 29 15.95 28.3 15.25 27.6 14.3 27.6 13.35 27.6 12.65 28.3 11.95 29 11.95 29.95 11.95 30.9 12.65 31.6 13.35 32.3 14.3 32.3 15.25 32.3 15.95 31.6
M 21 15
L 21 9.05 17.9 9.05 17.9 15 21 15
M 32.55 16.55
L 32.8 17.55 35.65 16.8 35.35 15.75 32.55 16.55
M 35.25 15.35
L 35.15 14.95 32.35 15.8 32.45 16.2 35.25 15.35
M 21 15.9
L 21 15.55 17.9 15.55 17.9 15.9 21 15.9
M 21 17.55
L 21 16.5 17.9 16.5 17.9 17.55 21 17.55
M 25.4 15.9
L 25.4 15.55 22.3 15.55 22.3 15.9 25.4 15.9
M 25.4 17.55
L 25.4 16.5 22.3 16.5 22.3 17.55 25.4 17.55
M 26.65 15.55
L 26.65 15.9 29.8 15.9 29.8 15.55 26.65 15.55
M 26.65 16.5
L 26.65 17.55 29.8 17.55 29.8 16.5 26.65 16.5
M 25.4 9.05
L 22.3 9.05 22.3 15 25.4 15 25.4 9.05
M 29.8 9.05
L 26.65 9.05 26.65 15 29.8 15 29.8 9.05
M 29.8 7.65
L 29.8 6.65 26.65 6.65 26.65 7.65 29.8 7.65
M 29.8 8.5
L 29.8 8.1 26.65 8.1 26.65 8.5 29.8 8.5
M 22.3 8.1
L 22.3 8.5 25.4 8.5 25.4 8.1 22.3 8.1
M 21 8.5
L 21 8.1 17.9 8.1 17.9 8.5 21 8.5
M 21 7.65
L 21 6.65 17.9 6.65 17.9 7.65 21 7.65
M 22.3 6.65
L 22.3 7.65 25.4 7.65 25.4 6.65 22.3 6.65
M 33.05 7.3
L 32.8 6.3 30.1 7.1 30.35 8.1 33.05 7.3
M 33.45 8.75
L 30.75 9.55 32.2 15.3 35 14.5 33.45 8.75
M 33.3 8.25
L 33.15 7.65 30.45 8.45 30.6 9.05 33.3 8.25 Z"/>

<path fill="#FFFFFF" stroke="none" d="
M 37.75 4.55
Q 36.7900390625 3.5900390625 35.45 3.45 35.3015625 3.453515625 35.15 3.45
L 18.7 3.45
Q 17.159375 3.4888671875 16.05 4.55 15.145703125 5.4953125 14.95 6.75 14.956640625 6.9603515625 14.95 7.15
L 14.95 16.85
Q 14.9525390625 16.9763671875 14.95 17.1 15.0685546875 18.4685546875 16.05 19.45 17.2 20.6 18.8 20.6 19.4095703125 20.6 19.95 20.4
L 18.4 24.65 26.4 20.6 35.05 20.6
Q 36.67734375 20.571484375 37.75 19.45 38.84375 18.4037109375 38.9 16.9 38.9 16.8283203125 38.9 16.75
L 38.9 8.1 38.85 6.95
Q 38.7681640625 5.5681640625 37.75 4.55
M 33.15 7.65
L 33.3 8.25 30.6 9.05 30.45 8.45 33.15 7.65
M 30.75 9.55
L 33.45 8.75 35 14.5 32.2 15.3 30.75 9.55
M 32.8 6.3
L 33.05 7.3 30.35 8.1 30.1 7.1 32.8 6.3
M 22.3 7.65
L 22.3 6.65 25.4 6.65 25.4 7.65 22.3 7.65
M 21 6.65
L 21 7.65 17.9 7.65 17.9 6.65 21 6.65
M 21 8.1
L 21 8.5 17.9 8.5 17.9 8.1 21 8.1
M 22.3 8.5
L 22.3 8.1 25.4 8.1 25.4 8.5 22.3 8.5
M 29.8 8.1
L 29.8 8.5 26.65 8.5 26.65 8.1 29.8 8.1
M 29.8 6.65
L 29.8 7.65 26.65 7.65 26.65 6.65 29.8 6.65
M 26.65 9.05
L 29.8 9.05 29.8 15 26.65 15 26.65 9.05
M 22.3 9.05
L 25.4 9.05 25.4 15 22.3 15 22.3 9.05
M 26.65 17.55
L 26.65 16.5 29.8 16.5 29.8 17.55 26.65 17.55
M 26.65 15.9
L 26.65 15.55 29.8 15.55 29.8 15.9 26.65 15.9
M 25.4 16.5
L 25.4 17.55 22.3 17.55 22.3 16.5 25.4 16.5
M 25.4 15.55
L 25.4 15.9 22.3 15.9 22.3 15.55 25.4 15.55
M 21 16.5
L 21 17.55 17.9 17.55 17.9 16.5 21 16.5
M 21 15.55
L 21 15.9 17.9 15.9 17.9 15.55 21 15.55
M 35.15 14.95
L 35.25 15.35 32.45 16.2 32.35 15.8 35.15 14.95
M 32.8 17.55
L 32.55 16.55 35.35 15.75 35.65 16.8 32.8 17.55
M 21 9.05
L 21 15 17.9 15 17.9 9.05 21 9.05 Z"/>
</g>

<path id="Layer1_0_1_STROKES" stroke="#000000" stroke-width="0.1" stroke-linejoin="round" stroke-linecap="round" fill="none" d="
M -4.9 -2.15
L 54.5 -2.15 54.5 51.1 -4.9 51.1 -4.9 -2.15 Z"/>

<path id="Layer0_0_1_STROKES" stroke="#000000" stroke-width="1" stroke-linejoin="round" stroke-linecap="round" fill="none" d="
M 38.9 8.125
L 38.9 16.75
Q 38.9 16.8283203125 38.9 16.9 38.84375 18.4037109375 37.75 19.45 36.67734375 20.571484375 35.075 20.6
L 26.4 20.6 18.4 24.65 19.95 20.425
Q 19.4095703125 20.6 18.8 20.6 17.2 20.6 16.05 19.45 15.0685546875 18.4685546875 14.95 17.1 14.9525390625 16.9763671875 14.95 16.85
L 14.95 7.175
Q 14.956640625 6.9603515625 14.975 6.75 15.145703125 5.4953125 16.05 4.55 17.159375 3.4888671875 18.7 3.45
L 35.15 3.45
Q 35.3015625 3.453515625 35.45 3.475 36.7900390625 3.5900390625 37.75 4.55 38.7681640625 5.5681640625 38.875 6.95 38.9 7.1166015625 38.9 7.3 38.9 7.7330078125 38.9 8.125
L 38.875 6.95"/>

<path id="Layer0_0_2_STROKES" stroke="#000000" stroke-width="0.1" stroke-linejoin="round" stroke-linecap="round" fill="none" d="
M 6 26.3
L 10.45 26.3 10.45 38.15 42.65 38.15 42.65 42.6 37 42.6 37 45.65 32.5 45.65 32.5 42.6 10.45 42.6 10.45 45.65 6 45.65 6 26.3 Z
M 33.175 7.675
L 30.475 8.475 30.625 9.075 33.325 8.275 33.175 7.675 Z
M 33.45 8.775
L 30.75 9.575 32.225 15.325 35.025 14.5 33.45 8.775 Z
M 30.1 7.1
L 30.375 8.125 33.075 7.325 32.8 6.3 30.1 7.1 Z
M 22.3 6.65
L 25.4 6.65 25.4 7.65 22.3 7.65 22.3 6.65 Z
M 17.9 6.65
L 21 6.65 21 7.65 17.9 7.65 17.9 6.65 Z
M 17.9 8.1
L 21 8.1 21 8.5 17.9 8.5 17.9 8.1 Z
M 25.4 8.5
L 22.3 8.5 22.3 8.1 25.4 8.1 25.4 8.5 Z
M 26.65 8.1
L 29.8 8.1 29.8 8.5 26.65 8.5 26.65 8.1 Z
M 26.65 6.65
L 29.8 6.65 29.8 7.65 26.65 7.65 26.65 6.65 Z
M 26.65 9.05
L 29.8 9.05 29.8 15 26.65 15 26.65 9.05 Z
M 25.4 15
L 22.3 15 22.3 9.05 25.4 9.05 25.4 15 Z
M 29.8 17.55
L 26.65 17.55 26.65 16.5 29.8 16.5 29.8 17.55 Z
M 26.65 15.55
L 29.8 15.55 29.8 15.9 26.65 15.9 26.65 15.55 Z
M 25.4 17.55
L 22.3 17.55 22.3 16.5 25.4 16.5 25.4 17.55 Z
M 25.4 15.9
L 22.3 15.9 22.3 15.55 25.4 15.55 25.4 15.9 Z
M 21 17.55
L 17.9 17.55 17.9 16.5 21 16.5 21 17.55 Z
M 17.9 15.55
L 21 15.55 21 15.9 17.9 15.9 17.9 15.55 Z
M 35.15 14.975
L 32.35 15.8 32.45 16.2 35.25 15.375 35.15 14.975 Z
M 32.8 17.55
L 35.65 16.8 35.35 15.75 32.55 16.575 32.8 17.55 Z
M 17.9 9.05
L 21 9.05 21 15 17.9 15 17.9 9.05 Z
M 16.65 29.95
Q 16.65 30.9 15.95 31.6 15.25 32.3 14.3 32.3 13.35 32.3 12.65 31.6 11.95 30.9 11.95 29.95 11.95 29 12.65 28.3 13.35 27.6 14.3 27.6 15.25 27.6 15.95 28.3 16.65 29 16.65 29.95 Z
M 17.8 30.85
L 20.8 30.85 20.8 36.8 11.95 36.8 11.95 33.9 17.8 33.9 17.8 30.85 Z
M 22.15 36.8
L 22.15 30.85 38.15 30.85
Q 38.85 30.85 39.3 31.3 39.8 31.8 39.8 32.5
L 39.8 36.8 22.15 36.8 Z"/>
</defs>

<g transform="matrix( 1, 0, 0, 1, 0,0) ">
<use xlink:href="#Layer1_0_FILL"/>

<use xlink:href="#Layer1_0_1_STROKES"/>
</g>

<g transform="matrix( 1, 0, 0, 1, 0,0) ">
<use xlink:href="#Layer0_0_FILL"/>

<use xlink:href="#Layer0_0_1_STROKES"/>

<use xlink:href="#Layer0_0_2_STROKES"/>
</g>
</svg>
