<svg xmlns="http://www.w3.org/2000/svg" viewBox="0 0 48 48"><g stroke-linecap="round" stroke-linejoin="round" stroke-width="28"><path fill="none" stroke="#fff" d="M167.04 270.79a132.87 132.87 0 0 0-15.65.867c-33.785 3.891-64.216 21.864-82.87 53.273-18.28 30.777-22.778 64.666-13.462 96.068 9.317 31.402 31.885 59.932 65.297 82.533.202.136.407.267.615.393 28.654 17.278 57.182 28.932 87.742 34.955-.745 12.613-.725 25.572.082 38.844 2.44 40.109 16.607 77.037 38.096 109.67l-77.008 31.438c-8.306 3.26-12.342 12.682-8.97 20.943s12.85 12.168 21.064 8.683l84.697-34.576c15.707 18.727 33.753 35.683 53.12 50.57.74.57 1.491 1.123 2.235 1.686l-49.611 65.691c-5.454 7.047-4.1 17.193 3.011 22.563s17.24 3.896 22.526-3.278l50.387-66.72c27.686 17.536 57.075 31.205 86.072 40.253 14.882 27.28 43.97 44.646 77.588 44.646 33.938 0 63.043-18.687 77.801-45.438 28.707-9.213 57.753-22.932 85.148-40.402l51.098 67.66c5.286 7.174 15.414 8.649 22.526 3.278 7.112-5.37 8.465-15.516 3.011-22.563l-50.361-66.686c.334-.254.673-.5 1.006-.756 19.138-14.649 37.026-31.286 52.703-49.635l82.562 33.705c8.214 3.484 17.69-.423 21.063-8.684 3.372-8.26-.664-17.684-8.97-20.943L775.05 688.4c22.172-32.83 37.038-70.034 40.143-110.46 1.026-13.353 1.23-26.425.639-39.176 30.356-6.054 58.716-17.668 87.201-34.844.209-.125.414-.256.615-.392 33.412-22.601 55.98-51.131 65.297-82.533s4.82-65.291-13.46-96.068c-18.656-31.41-49.087-49.382-82.872-53.273a132.89 132.89 0 0 0-12.812-.846c-30.208-.544-62.44 8.824-93.432 26.715-22.798 13.161-43.352 33.314-59.438 55.305-44.997-25.75-103.54-40.25-175.48-41.439a598.89 598.89 0 0 0-19.68.002c-80.189 1.31-144.38 16.51-192.87 43.992a14 14 0 0 0-.37-.564c-16.29-22.764-37.412-43.737-60.897-57.295-30.022-17.331-61.21-26.665-90.594-26.736z" color="#000" style="font-feature-settings:normal;font-variant-alternates:normal;font-variant-caps:normal;font-variant-ligatures:normal;font-variant-numeric:normal;font-variant-position:normal;isolation:auto;mix-blend-mode:normal;shape-padding:0;text-decoration-color:#000;text-decoration-line:none;text-decoration-style:solid;text-indent:0;text-orientation:mixed;text-transform:none;white-space:normal" transform="translate(-1.836 -4.764) scale(.05046)"/><path fill="#fff" stroke="#000" stroke-width="1.41288" d="M34.337 13.55c.771-1.078 1.784-2.074 2.851-2.69 3.364-1.942 6.915-1.676 8.583 1.132 1.67 2.811.756 5.928-2.405 8.066-1.612.972-3.175 1.56-4.906 1.793m-24.797-8.3c-.772-1.079-1.785-2.075-2.852-2.691-3.364-1.942-6.914-1.676-8.582 1.132-1.67 2.811-.756 5.928 2.404 8.066 1.613.972 3.176 1.56 4.906 1.793"/><path fill="#fff" stroke="#000" stroke-width="1.41288" d="M38.594 24.344c.58-7.559-4.07-12.861-14.594-12.69-10.525.172-15.052 5.18-14.595 12.69.436 7.17 8.921 12.434 14.539 12.434s14.1-5.275 14.65-12.434z"/></g><path d="M28.97 27.746c0 1.167.944 2.112 2.108 2.112s2.108-.945 2.108-2.112a2.11 2.11 0 1 0-4.216 0zm-14.157 0a2.129 2.129 0 1 0 4.255 0c0-1.177-.952-2.13-2.127-2.13s-2.128.953-2.128 2.13z"/><path fill="none" stroke="#000" stroke-linecap="round" stroke-width="1.61472" d="m15.307 34.052-2.752 3.644m20.138-3.644 2.752 3.644M11.47 30.448l-4.428 1.807m29.26-1.807 4.428 1.807"/><path fill="#fff" stroke="#000" stroke-linecap="round" stroke-linejoin="round" stroke-width="1.41288" d="M24 31.218c-2.315 0-3.791 1.607-3.742 3.588.054 2.145 1.639 3.588 3.742 3.588s3.736-1.665 3.74-3.588c.006-1.982-1.426-3.588-3.74-3.588z"/></svg>