<svg xmlns="http://www.w3.org/2000/svg" viewBox="0 0 48 48"><defs><clipPath id="lenovo_svg__a"><path d="M710.6 51.888h67.904v203.71H710.6z"/></clipPath></defs><path fill="#e42022" d="M-.004 16.009v16h48v-16z"/><g clip-path="url(#lenovo_svg__a)" transform="matrix(0 .23564 .23564 0 -12.232 -151.435)"><path fill="#fff" d="M733.48 140.64c0-3.008 1.395-6.43 4.187-8.522l-.005.002.002-.002-3.746.002v-7.177h26.135v7.175h-14.87c-2.677 0-5.522 2.075-5.522 5.917 0 2.97 2.065 6.042 5.522 6.042h14.87v7.177h-16.201c-6.01 0-10.372-4.3-10.372-10.614m.44 61.62 17.803-6.488-17.803-6.488v-8.197l26.125 10.753v7.863l-26.125 10.754zm7.87-98.75c-1.641 1.222-2.604 3.169-2.604 5.52 0 2.587 1.477 4.549 3.656 5.562l5.202-12.537c-2.669-.343-4.757.34-6.254 1.455m10.225 13.788c2.235-3.021 2.769-4.747 2.769-7.501 0-2.479-.769-4.419-2.119-5.788l-7.612 18.347c-2.836-.4-5.369-1.476-7.296-3.133-2.8-2.411-4.281-5.979-4.281-10.322 0-7.892 5.822-13.842 13.51-13.842 7.888 0 13.509 5.964 13.509 14.632 0 4.856-2.302 9.822-4.991 12.144zm1.445-22.92V78.067h-27.361v-7.274h33.95v23.585zM739.63 223.34c0-4.008 3.037-6.917 7.358-6.917 4.125 0 7.358 3.082 7.358 7.014 0 4.008-3.121 6.917-7.358 6.917-4.126 0-7.358-3.081-7.358-7.014m20.865 0c0-7.849-5.847-13.998-13.507-13.998-7.574 0-13.508 6.192-13.508 14.095 0 7.848 5.847 13.996 13.508 13.996 7.573 0 13.507-6.19 13.507-14.093m-20.865-55.25c0-4.008 3.037-6.917 7.358-6.917 4.125 0 7.358 3.082 7.358 7.014 0 4.008-3.121 6.918-7.358 6.918-4.126 0-7.358-3.082-7.358-7.015m20.865 0c0-7.849-5.847-13.997-13.507-13.997-7.574 0-13.508 6.191-13.508 14.094 0 7.848 5.847 13.997 13.508 13.997 7.573 0 13.507-6.191 13.507-14.094"/></g></svg>