<svg xmlns="http://www.w3.org/2000/svg" viewBox="0 0 48 48"><g style="stroke-width:10.2211"><path fill="#ffa400" d="M344.592 276.957h-58.997v-30.291c0-24.191-19.685-43.876-43.876-43.876s-43.876 19.685-43.876 43.876v30.291h-58.997v-30.291c0-56.724 46.149-102.873 102.873-102.873 56.724 0 102.873 46.149 102.873 102.873z" style="stroke-width:104.472" transform="translate(.351 -1.28) scale(.09784)"/><path fill="#003a70" d="M368.389 276.957h-253.34c-10.816 0-19.665 8.85-19.665 19.665v187.406c0 10.816 8.849 19.666 19.665 19.666h253.34c10.816 0 19.665-8.85 19.665-19.666V296.622c0-10.816-8.849-19.665-19.665-19.665zm-113.83 123.044v25.393c0 7.087-5.749 12.837-12.837 12.837s-12.837-5.749-12.837-12.837v-25.389c-7.897-4.481-13.233-12.947-13.233-22.674 0-14.396 11.671-26.067 26.067-26.067s26.067 11.671 26.067 26.067c0 9.727-5.335 18.192-13.227 22.67z" style="stroke-width:104.472" transform="translate(.351 -1.28) scale(.09784)"/><path fill="#ffa400" d="M89.367 249.016H28.235c-9.911 0-17.948-8.036-17.948-17.948s8.036-17.948 17.948-17.948h61.132c9.911 0 17.948 8.036 17.948 17.948s-8.037 17.948-17.948 17.948zm43.063-96.162c-4.01 0-8.048-1.338-11.389-4.085l-48.356-39.761c-7.656-6.296-8.758-17.606-2.462-25.262 6.294-7.654 17.601-8.762 25.262-2.464l48.356 39.761c7.656 6.296 8.758 17.606 2.462 25.262-3.547 4.315-8.69 6.549-13.873 6.549zm109.288-42.266c-9.911 0-17.948-8.036-17.948-17.948V31.027c0-9.912 8.036-17.948 17.948-17.948 9.911 0 17.948 8.036 17.948 17.948V92.64c-.001 9.912-8.037 17.948-17.948 17.948z" style="stroke-width:104.472" transform="translate(.351 -1.28) scale(.09784)"/><g style="stroke-width:10.2211"><path fill="#ffa400" d="M351.008 152.854c-5.186 0-10.326-2.233-13.873-6.55-6.296-7.656-5.194-18.966 2.462-25.262l48.356-39.761c7.664-6.299 18.971-5.19 25.262 2.464 6.296 7.656 5.194 18.966-2.462 25.262l-48.356 39.761a17.881 17.881 0 0 1-11.389 4.086z" style="stroke-width:104.472" transform="translate(.351 -1.28) scale(.09784)"/></g><path fill="#ffa400" d="M455.203 249.016H393.49c-9.911 0-17.948-8.036-17.948-17.948s8.036-17.948 17.948-17.948h61.713c9.911 0 17.948 8.036 17.948 17.948-.001 9.912-8.037 17.948-17.948 17.948z" style="stroke-width:104.472" transform="translate(.351 -1.28) scale(.09784)"/></g></svg>