<svg xmlns="http://www.w3.org/2000/svg" viewBox="0 0 48 48"><g fill="#1a171b"><path d="M14.67 39.257c-2.365 0-4.22-.309-5.569-.924s-2.314-1.457-2.897-2.523c-.583-1.065-.866-2.289-.849-3.67.017-1.382.208-2.855.575-4.42l6.343-26.521L20.013 0l-6.941 28.765a8.98 8.98 0 0 0-.225 1.649c-.017.499.075.94.275 1.323.2.384.541.692 1.024.924.482.234 1.157.383 2.023.45l-1.499 6.143M42.64 22.729c0 2.43-.4 4.655-1.199 6.668-.799 2.015-1.906 3.754-3.317 5.219-1.416 1.465-3.114 2.605-5.094 3.421-1.982.815-4.138 1.224-6.468 1.224-1.132 0-2.264-.1-3.396-.3l-2.248 9.04h-7.39l8.29-34.56c1.33-.399 2.854-.757 4.57-1.074 1.714-.316 3.57-.474 5.568-.474 1.864 0 3.471.283 4.82.849 1.349.566 2.455 1.34 3.324 2.322.865.983 1.506 2.132 1.923 3.447.415 1.316.624 2.721.624 4.22m-18.13 10.238c.566.134 1.265.2 2.098.2 1.298 0 2.48-.241 3.546-.725a7.813 7.813 0 0 0 2.722-2.022c.749-.866 1.33-1.906 1.748-3.122.416-1.215.624-2.555.624-4.02 0-1.431-.317-2.647-.949-3.646-.633-.999-1.731-1.499-3.296-1.499-1.066 0-2.065.1-2.996.3L24.517 32.97"/></g></svg>