<svg xmlns="http://www.w3.org/2000/svg" viewBox="0 0 48 48"><path fill="#55f" d="M19.355 5.546h-.006a19.722 19.722 0 0 0-.399.086l-.134.024a24.18 24.18 0 0 0-.264.062l-.128.03a24.101 24.101 0 0 0-3.48 1.103l-.073.036 6.897 22.864.288-.337.771-.906zm9.175-.024-2.512 19.262 2.034-2.376.404.643 4.508-16.237-.11-.043a23.256 23.256 0 0 0-4.012-1.188 24.401 24.401 0 0 0-.263-.055zM6.89 12.198a21.394 21.394 0 0 0-1.855 2.094 25.173 25.173 0 0 0-1.103 1.52v.012l13.181 14.399.992-1.299.05.025zm33.963-.27-9.745 15.373 1.109 1.777 11.796-13.352a21.614 21.614 0 0 0-1.776-2.34 23.795 23.795 0 0 0-1.384-1.458zM.44 24.312a23.415 23.415 0 0 0-.44 4.619l14.05 5.28 1.096-1.428zm47.204.41-13.383 7.65 1.054 1.685 12.678-4.624v-.061a13.879 13.879 0 0 0 .006-.405v-.624l-.006-.129v-.135l-.024-.539-.013-.128-.006-.135-.012-.135-.006-.135-.012-.128-.037-.404-.012-.13a19.391 19.391 0 0 0-.227-1.592v-.024zm-45.71 13.45a24.364 24.364 0 0 0 2.426 4.307h.006l4.122-.907.086-.11h-.098l2.56-3.332zm36.033.13 1.984 3.3 3.706.834.03-.037a22.062 22.062 0 0 0 1.55-2.511 22.784 22.784 0 0 0 .704-1.452z" paint-order="markers fill stroke"/><g fill="#f5d"><path d="M55.53 35.83 44.12 48.86l-5.22-2.3-16.98 21.82h1.48l15.88-20.32 5.17 2.29 10.9-12.45c6.04 10.27 12.55 20.15 18.47 30.49h1.48z" color="#000" font-family="sans-serif" font-weight="400" overflow="visible" style="font-feature-settings:normal;font-variant-alternates:normal;font-variant-caps:normal;font-variant-east-asian:normal;font-variant-ligatures:normal;font-variant-numeric:normal;font-variant-position:normal;font-variation-settings:normal;inline-size:0;isolation:auto;mix-blend-mode:normal;shape-margin:0;shape-padding:0;text-decoration-color:#000;text-decoration-line:none;text-decoration-style:solid;text-indent:0;text-orientation:mixed;text-transform:none;white-space:normal" transform="translate(-5.671 -.15) scale(.61248)"/><path d="m55.32 39.73-10.6 12.15-5.17-2.15-14.64 18.64h1.62l13.4-17.15 5.14 2.13L55.14 41.8l15.84 26.62 1.56-.03z" color="#000" font-family="sans-serif" font-weight="400" overflow="visible" style="font-feature-settings:normal;font-variant-alternates:normal;font-variant-caps:normal;font-variant-east-asian:normal;font-variant-ligatures:normal;font-variant-numeric:normal;font-variant-position:normal;font-variation-settings:normal;inline-size:0;isolation:auto;mix-blend-mode:normal;shape-margin:0;shape-padding:0;text-decoration-color:#000;text-decoration-line:none;text-decoration-style:solid;text-indent:0;text-orientation:mixed;text-transform:none;white-space:normal" transform="translate(-5.671 -.15) scale(.61248)"/><path d="m11.54 41.72 7.49-9.55 3.21 1.305 5.824-6.688L36.81 41.73z"/></g></svg>