<svg xmlns="http://www.w3.org/2000/svg" viewBox="0 0 48 48"><g transform="scale(.6)"><rect width="80" height="80" fill="#f6c915" rx="8"/><path fill="#fff" d="M32.73 56.265c-2.587 0-4.617-.338-6.093-1.01s-2.53-1.594-3.17-2.762-.946-2.493-.928-4.015.227-3.123.629-4.836l6.939-29.014 8.47-1.31-7.595 31.473c-.146.655-.228 1.256-.246 1.802s.082 1.03.3 1.448.592.756 1.12 1.01 1.266.42 2.213.493zm7.803-28.244c1.46-.437 3.127-.828 5.003-1.175s3.907-.518 6.093-.518 3.799.309 5.273.928 2.686 1.467 3.634 2.54 1.647 2.333 2.102 3.77.683 2.98.683 4.62c0 2.658-.437 5.09-1.321 7.293s-2.076 4.108-3.624 5.71-3.406 2.851-5.576 3.748-4.524 1.334-7.072 1.334c-1.239 0-2.477-.11-3.716-.33l-2.459 9.892h-8.086zm2.954 21.366c.619.146 1.384.213 2.295.213 1.42 0 2.713-.258 3.879-.787s2.158-1.265 2.978-2.213 1.456-2.084 1.912-3.415.683-2.795.683-4.398-.347-2.896-1.038-3.99-1.894-1.638-3.606-1.638c-1.167 0-2.26.109-3.28.328z"/></g></svg>