<svg xmlns="http://www.w3.org/2000/svg" width="48" height="48" viewBox="0 0 12.7 12.7"><g style="display:inline"><path d="M746.519 1098.726c-.755-.02-1.499.452-1.794 1.138a1.898 1.898 0 0 0 .416 2.063l16.196 16.247a1.962 1.962 0 0 0 2.063.42c.69-.275 1.177-.984 1.182-1.718v-16.278c.002-.98-.903-1.874-1.898-1.872z" style="color:#000;font-style:normal;font-variant:normal;font-weight:400;font-stretch:normal;font-size:medium;line-height:normal;font-family:&quot;Andale Mono&quot;;-inkscape-font-specification:&quot;Andale Mono&quot;;text-indent:0;text-align:start;text-decoration:none;text-decoration-line:none;letter-spacing:normal;word-spacing:normal;text-transform:none;writing-mode:lr-tb;direction:ltr;text-anchor:start;display:inline;overflow:visible;visibility:visible;fill:#000;fill-opacity:1;fill-rule:evenodd;stroke:none;stroke-width:3.86824;marker:none;enable-background:accumulate" transform="translate(-112.89 -178.896) scale(.16282)"/><path d="M701.984 1098.725c-.996.014-1.892.925-1.89 1.921v74.157c-.002.996.894 1.907 1.89 1.921h60.677c1.006 0 1.923-.914 1.921-1.92v-47.755a1.941 1.941 0 0 0-.557-1.364l-26.248-26.371a1.942 1.942 0 0 0-1.364-.589z" style="color:#000;font-style:normal;font-variant:normal;font-weight:400;font-stretch:normal;font-size:medium;line-height:normal;font-family:&quot;Andale Mono&quot;;-inkscape-font-specification:&quot;Andale Mono&quot;;text-indent:0;text-align:start;text-decoration:none;text-decoration-line:none;letter-spacing:normal;word-spacing:normal;text-transform:none;writing-mode:lr-tb;direction:ltr;text-anchor:start;display:inline;overflow:visible;visibility:visible;fill:#fff;fill-opacity:1;fill-rule:evenodd;stroke:none;stroke-width:3.86824;marker:none;enable-background:accumulate" transform="translate(-112.89 -178.896) scale(.16282)"/><path d="M701.984 1098.725a1.918 1.918 0 0 0-1.89 1.921v74.157a1.918 1.918 0 0 0 1.89 1.921h60.677a1.918 1.918 0 0 0 1.921-1.92v-47.755a1.918 1.918 0 0 0-.557-1.364l-26.248-26.371a1.918 1.918 0 0 0-1.364-.589zm1.922 3.843h31.702l25.132 25.256v45.058h-56.834z" style="color:#000;font-style:normal;font-variant:normal;font-weight:400;font-stretch:normal;font-size:medium;line-height:normal;font-family:&quot;Andale Mono&quot;;-inkscape-font-specification:&quot;Andale Mono&quot;;text-indent:0;text-align:start;text-decoration:none;text-decoration-line:none;letter-spacing:normal;word-spacing:normal;text-transform:none;writing-mode:lr-tb;direction:ltr;text-anchor:start;display:inline;overflow:visible;visibility:visible;fill:#000;fill-opacity:1;fill-rule:evenodd;stroke:none;stroke-width:3.86824;marker:none;enable-background:accumulate" transform="translate(-112.89 -178.896) scale(.16282)"/></g></svg>