<svg xmlns="http://www.w3.org/2000/svg" viewBox="0 0 48 48"><path fill="#575756" d="m26.818 16.57 4.61 4.61-1.814 1.83-4.61-4.61zm8.432-8.42 4.611 4.61-1.83 1.83-4.61-4.61zm-.297 16.57 4.64 4.61-1.829 1.83-4.76-4.61zm8.433-8.42 4.611 4.612-1.814 1.83-4.611-4.76zm-18.25-3.42 4.611-4.611 1.844 1.83-4.61 4.61zm8.136 8.18 4.611-4.61 1.844 1.785-4.61 4.61zm8.151 8.122 4.611-4.611 1.83 1.814-4.611 4.611zm-24.72-7.854 4.61-4.61 1.845 1.814-4.611 4.61zm8.136 8.122 4.64-4.611 1.815 1.83-4.611 4.61zm8.15 8.18 4.611-4.64 1.845 1.829-4.611 4.76z"/><path fill="#db202e" d="m9.966 33.407 4.64 4.61-1.814 1.845-4.641-4.64zm8.433-8.419L23.01 29.6l-1.815 1.83-4.61-4.611zm-.253 16.57 4.611 4.61-1.83 1.83-4.61-4.61zm8.404-8.419 4.611 4.611-1.815 1.83-4.61-4.611zM1.83 25.256l4.61 4.611-1.83 1.815L0 27.07zm8.433-8.419 4.611 4.611-1.83 1.83-4.61-4.611zm8.404-8.418 4.61 4.61-1.784 1.845-4.611-4.61zM27.07 0l4.64 4.61-1.83 1.83-4.759-4.61zM17 4.76 21.61.149l1.83 1.814-4.61 4.611zm-8.434 8.433 4.611-4.61 1.845 1.829-4.611 4.61zM.15 21.627l4.61-4.611L6.59 18.8l-4.61 4.64zm8.12 8.121 4.612-4.61 1.844 1.829-4.61 4.61zm8.152 8.151 4.61-4.611 1.83 1.815-4.61 4.61zm8.121 8.15 4.64-4.61 1.83 1.785-4.61 4.64z"/></svg>