<svg xmlns="http://www.w3.org/2000/svg" viewBox="0 0 48 48"><path d="M43.207 23.994a4.788 4.788 0 0 0-3.733 1.784l-.181-.072a35.437 35.437 0 0 0-5.688-1.694v-.018a9.601 9.601 0 0 0-19.203 0v.016l-.204.045a35.149 35.149 0 0 0-5.483 1.651l-.18.072a4.8 4.8 0 1 0 .886 1.714 33.285 33.285 0 0 1 5.172-1.557 9.601 9.601 0 0 0 18.81 0 33.2 33.2 0 0 1 5.176 1.556 4.8 4.8 0 1 0 4.628-3.497zM4.801 31.675a2.88 2.88 0 1 1 2.88-2.88 2.88 2.88 0 0 1-2.88 2.88zm19.203 0a7.681 7.681 0 1 1 7.681-7.681 7.69 7.69 0 0 1-7.681 7.681zm19.203 0a2.88 2.88 0 1 1 2.88-2.88 2.88 2.88 0 0 1-2.88 2.88zm-15.362-7.681a3.84 3.84 0 1 1-3.84-3.84 3.84 3.84 0 0 1 3.84 3.84z" style="fill:#167c80"/></svg>