
<svg xmlns="http://www.w3.org/2000/svg" version="1.1" xmlns:xlink="http://www.w3.org/1999/xlink" preserveAspectRatio="none" x="0px" y="0px" width="512px" height="512px" viewBox="0 0 512 512">
<defs>
<g id="Layer0_0_FILL">
<path fill="#7DA2AF" stroke="none" d="
M 510.5 255.2
Q 510.5 149.45 435.75 74.7 361 -0.05 255.25 -0.05 149.5 -0.05 74.75 74.7 0 149.45 0 255.2 0 360.95 74.75 435.7 149.5 510.45 255.25 510.45 361 510.45 435.75 435.7 510.5 360.95 510.5 255.2
M 494.15 259.3
Q 494.15 283.1455078125 489.85 305.25 476.8916015625 371.9099609375 424.85 422.75 355.6 490.5 257.6 490.5 159.6 490.5 90.3 422.75 21.05 355.05 21.05 259.3 21.05 239.755859375 23.9 221.35 35.18515625 149.72109375 90.3 95.8 159.6 28.1 257.6 28.1 355.6 28.1 424.85 95.8 494.15 163.55 494.15 259.3 Z"/>

<path fill="#2996AD" stroke="none" d="
M 23.9 221.35
Q 21.05 239.755859375 21.05 259.3 21.05 355.05 90.3 422.75 159.6 490.5 257.6 490.5 355.6 490.5 424.85 422.75 476.8916015625 371.9099609375 489.85 305.25
L 271.7 245.2 224.05 322.4
Q 223.3205078125 323.9830078125 222.25 325.4 221.434375 326.465625 220.45 327.45 215.05 332.85 207.4 332.85 199.75 332.85 194.35 327.45 188.95 322.05 188.95 314.4 188.95 308.8103515625 191.8 304.4
L 234.7 235 232.25 234.35 23.9 221.35
M 395 350.5
Q 400.4 355.9 400.4 363.55 400.4 370.3689453125 396.1 375.4 396.0009765625 375.518359375 395.9 375.6 395.4734375 376.1265625 395 376.6 393.7755859375 377.8244140625 392.4 378.75 247.9755859375 515.5458984375 119.6 375 119.4349609375 374.8416015625 119.25 374.65 119.1966796875 374.6169921875 119.1 374.55 118.8560546875 374.3060546875 118.6 374.05 113.2 368.65 113.2 361 113.2 353.35 118.6 347.95 124 342.55 131.65 342.55 139.3 342.55 144.7 347.95 145.31015625 348.56015625 145.85 349.2 161.70234375 364.015625 177.45 374.7 259.4931640625 430.44765625 339.3 375.2 353.19453125 365.6431640625 367 352.7 367.84453125 351.55546875 368.9 350.5 374.3 345.1 381.95 345.1 389.6 345.1 395 350.5 Z"/>

<path fill="#EEF6F4" stroke="none" d="
M 400.4 363.55
Q 400.4 355.9 395 350.5 389.6 345.1 381.95 345.1 374.3 345.1 368.9 350.5 367.84453125 351.55546875 367 352.7 353.19453125 365.6431640625 339.3 375.2 259.4931640625 430.44765625 177.45 374.7 161.70234375 364.015625 145.85 349.2 145.31015625 348.56015625 144.7 347.95 139.3 342.55 131.65 342.55 124 342.55 118.6 347.95 113.2 353.35 113.2 361 113.2 368.65 118.6 374.05 118.8560546875 374.3060546875 119.1 374.55 119.1966796875 374.6169921875 119.25 374.65 119.4349609375 374.8416015625 119.6 375 247.9755859375 515.5458984375 392.4 378.75 394.116796875 377.179296875 395.9 375.6 396.0009765625 375.518359375 396.1 375.4 400.4 370.3689453125 400.4 363.55
M 281.4 160.5
Q 279.80078125 162.09921875 278.65 163.9 278.414453125 164.3134765625 278.15 164.75
L 234.7 235 191.8 304.4
Q 188.95 308.8103515625 188.95 314.4 188.95 322.05 194.35 327.45 199.75 332.85 207.4 332.85 215.05 332.85 220.45 327.45 221.434375 326.465625 222.25 325.4 223.3205078125 323.9830078125 224.05 322.4
L 271.7 245.2 308.55 185.45 311.55 180.6
Q 312.9 177.3580078125 312.9 173.55 312.9 165.9 307.5 160.5 302.1 155.1 294.45 155.1 286.8 155.1 281.4 160.5 Z"/>

<path fill="#1D6473" stroke="none" d="
M 489.85 305.25
Q 494.15 283.1455078125 494.15 259.3 494.15 163.55 424.85 95.8 355.6 28.1 257.6 28.1 159.6 28.1 90.3 95.8 35.18515625 149.72109375 23.9 221.35
L 232.25 234.35 234.7 235 278.15 164.75
Q 278.414453125 164.3134765625 278.65 163.9 279.80078125 162.09921875 281.4 160.5 286.8 155.1 294.45 155.1 302.1 155.1 307.5 160.5 312.9 165.9 312.9 173.55 312.9 177.3580078125 311.55 180.6 310.4904296875 183.2220703125 308.55 185.45
L 271.7 245.2 489.85 305.25 Z"/>
</g>
</defs>

<g transform="matrix( 1, 0, 0, 1, 0,0) ">
<use xlink:href="#Layer0_0_FILL"/>
</g>
</svg>
