<?xml version="1.0" encoding="utf-8"?>
<!-- Generator: Adobe Illustrator 26.3.1, SVG Export Plug-In . SVG Version: 6.00 Build 0)  -->
<svg version="1.1" id="Laag_1" xmlns="http://www.w3.org/2000/svg" xmlns:xlink="http://www.w3.org/1999/xlink" x="0px" y="0px"
	 viewBox="0 0 48 48" style="enable-background:new 0 0 48 48;" xml:space="preserve">
<style type="text/css">
	.st0{fill:#61DAFB;}
	.st1{fill:none;stroke:#61DAFB;stroke-linecap:round;stroke-linejoin:round;}
</style>
<g transform="matrix( 1, 0, 0, 1, 0,0) ">
	<g>
		<g id="Layer0_0_FILL">
			<path class="st0" d="M37.5,16.3c0.2-1,0.4-2,0.5-3c0.5-4.9-0.3-8-2.7-9.3c-2.4-1.3-5.5-0.4-9.3,2.6c-0.7,0.5-1.4,1.1-2.1,1.8
				c-0.6-0.6-1.3-1.2-2-1.7c-3.9-3-7-3.9-9.4-2.6s-3.2,4.4-2.6,9.3c0.1,1,0.3,1.9,0.5,2.9c-1,0.3-2,0.7-2.9,1
				c-4.6,1.9-6.8,4.2-6.8,6.9s2.3,5,6.8,6.9c0.9,0.4,1.9,0.7,2.9,1.1c-0.2,1.1-0.4,2.2-0.5,3.3c-0.6,4.9,0.3,8,2.7,9.3
				c2.3,1.3,5.5,0.4,9.3-2.6c0.7-0.6,1.4-1.1,2.1-1.8c0.7,0.7,1.4,1.3,2.2,1.9c3.9,3,7,3.9,9.4,2.6c2.3-1.3,3.2-4.4,2.6-9.4
				c-0.1-1.1-0.3-2.1-0.6-3.2c1-0.3,2-0.7,3-1.1c4.6-1.9,6.8-4.2,6.8-6.9c0-2.7-2.3-5-6.8-6.9C39.5,17,38.5,16.6,37.5,16.3
				 M35.8,13.8c-0.1,0.6-0.2,1.3-0.4,1.9c-1.9-0.4-3.9-0.8-6-1c-1.3-1.9-2.7-3.6-4.2-5.1c0.4-0.4,0.8-0.7,1.2-1.1
				c3.3-2.9,5.9-3.8,7.7-2.8S36.5,9.5,35.8,13.8 M32.5,19.7c-0.5-0.9-1-1.7-1.5-2.5c1.4,0.2,2.7,0.4,3.9,0.7
				c-0.4,1.3-0.8,2.5-1.3,3.8C33.2,21,32.9,20.3,32.5,19.7 M37,18.3c0.7,0.2,1.4,0.4,2,0.7c4.1,1.5,6.2,3.3,6.2,5.4
				s-2.1,3.9-6.2,5.4c-0.6,0.2-1.3,0.4-1.9,0.6c-0.6-2-1.3-4-2.2-6.1C35.7,22.2,36.4,20.2,37,18.3 M32.4,29.1
				c0.4-0.7,0.8-1.5,1.2-2.2c0.6,1.4,1,2.7,1.4,4c-1.3,0.3-2.6,0.5-4.1,0.7C31.5,30.8,31.9,29.9,32.4,29.1 M35.5,32.8
				c0.2,0.7,0.3,1.4,0.4,2.2c0.7,4.3,0.2,7-1.6,8.1c-1.8,1-4.4,0.1-7.7-2.8c-0.4-0.4-0.9-0.8-1.3-1.2c1.5-1.5,2.9-3.3,4.2-5.3
				C31.7,33.5,33.7,33.2,35.5,32.8 M21.3,8.8c0.4,0.3,0.8,0.7,1.1,1c-1.4,1.5-2.7,3.1-4,5c-2.2,0.2-4.2,0.6-6.2,1
				c-0.1-0.6-0.3-1.2-0.4-1.8c-0.7-4.3-0.2-7,1.6-8.1C15.3,4.9,17.9,5.9,21.3,8.8 M9,19c0.6-0.2,1.2-0.4,1.9-0.6
				c0.5,1.9,1.3,3.9,2.2,6c-0.9,2.1-1.6,4.1-2.2,6c-0.6-0.2-1.3-0.4-1.9-0.6c-4.1-1.5-6.2-3.3-6.2-5.4C2.8,22.2,4.9,20.4,9,19
				 M14.2,21.9c-0.6-1.4-1-2.7-1.4-4c1.3-0.3,2.6-0.5,4.1-0.7c-0.5,0.8-1,1.6-1.4,2.5C15,20.4,14.6,21.1,14.2,21.9 M17.2,20.6
				c0.7-1.3,1.5-2.6,2.2-3.7c1.5-0.1,3-0.2,4.6-0.2c1.4,0,2.8,0,4.2,0.1c0.8,1.2,1.6,2.5,2.4,3.9c0.7,1.2,1.3,2.4,1.8,3.5
				c-0.6,1.2-1.2,2.5-1.9,3.7c-0.7,1.3-1.5,2.6-2.3,3.8C26.8,31.9,25.5,32,24,32c-1.6,0-3.1-0.1-4.5-0.2c-0.7-1.1-1.5-2.3-2.2-3.6
				c-0.7-1.3-1.4-2.6-2-3.9C15.8,23.1,16.5,21.9,17.2,20.6 M24,14.5c-1,0-2,0-3,0.1c0.9-1.2,1.8-2.4,2.8-3.4c1,1,1.9,2.2,2.8,3.4
				C25.7,14.5,24.9,14.5,24,14.5 M20.9,33.9c1,0,2,0.1,3.1,0.1c0.9,0,1.8,0,2.7-0.1c-0.9,1.3-1.9,2.5-2.9,3.6
				C22.9,36.4,21.9,35.2,20.9,33.9 M11.8,34.8c0.1-0.7,0.3-1.4,0.4-2.1c1.9,0.5,3.9,0.8,6.1,1c1.3,1.9,2.7,3.6,4.2,5.2
				c-0.4,0.4-0.8,0.8-1.2,1.1c-3.3,2.9-5.9,3.8-7.7,2.8C11.7,41.8,11.1,39.2,11.8,34.8 M15.5,29.2c0.5,0.8,0.9,1.6,1.4,2.3
				c-1.4-0.2-2.8-0.4-4.1-0.7c0.4-1.3,0.9-2.7,1.4-4.1C14.6,27.6,15,28.4,15.5,29.2 M24.1,19.9c-1.2,0-2.2,0.4-3.1,1.3
				c-0.9,0.9-1.3,1.9-1.3,3.1c0,1.2,0.4,2.2,1.3,3.1c0.9,0.9,1.9,1.3,3.1,1.3c1.2,0,2.2-0.4,3.1-1.3c0.9-0.9,1.3-1.9,1.3-3.1
				c0-1.2-0.4-2.2-1.3-3.1C26.3,20.4,25.3,19.9,24.1,19.9z"/>
		</g>
	</g>
	<g>
		<path id="Layer0_0_1_STROKES" class="st1" d="M47.4,24.3c0,2.7-2.3,5-6.8,6.9c-1,0.4-1.9,0.8-3,1.1c0.2,1.1,0.4,2.2,0.6,3.2
			c0.6,4.9-0.3,8-2.6,9.4c-2.3,1.3-5.5,0.5-9.4-2.6c-0.7-0.6-1.5-1.2-2.2-1.9c-0.7,0.6-1.4,1.2-2.1,1.8c-3.9,3.1-7,3.9-9.3,2.6
			c-2.4-1.3-3.2-4.4-2.7-9.3c0.1-1.1,0.3-2.2,0.5-3.3c-1-0.3-2-0.7-2.9-1.1c-4.6-1.9-6.8-4.2-6.8-6.9s2.3-5,6.8-6.9
			c0.9-0.4,1.9-0.7,2.9-1c-0.2-1-0.4-2-0.5-2.9c-0.6-4.9,0.3-8,2.6-9.3s5.5-0.5,9.4,2.6c0.7,0.5,1.3,1.1,2,1.7
			c0.7-0.6,1.4-1.2,2.1-1.8c3.9-3.1,7-3.9,9.3-2.6c2.3,1.3,3.2,4.4,2.7,9.3c-0.1,1-0.3,2-0.5,3c1.1,0.3,2.1,0.7,3.1,1.1
			C45.1,19.3,47.4,21.6,47.4,24.3z M29.4,14.8c2.1,0.2,4.1,0.5,6,1c0.1-0.6,0.3-1.3,0.4-1.9c0.7-4.3,0.1-7-1.7-8s-4.4-0.1-7.7,2.8
			c-0.4,0.3-0.8,0.7-1.2,1.1C26.7,11.2,28.1,12.9,29.4,14.8z M32.5,19.7c0.4,0.7,0.7,1.3,1.1,2c0.5-1.3,1-2.6,1.3-3.8
			c-1.2-0.3-2.6-0.5-3.9-0.7C31.5,17.9,32,18.8,32.5,19.7z M45.2,24.3c0,2.1-2.1,3.9-6.2,5.4c-0.6,0.2-1.3,0.4-1.9,0.6
			c-0.6-2-1.3-4-2.2-6.1c0.9-2,1.6-4,2.1-6c0.7,0.2,1.4,0.4,2,0.7C43.1,20.4,45.2,22.2,45.2,24.3z M35,30.9
			c-1.3,0.3-2.6,0.5-4.1,0.7c0.5-0.8,1-1.6,1.4-2.5c0.4-0.7,0.8-1.5,1.2-2.2C34.1,28.2,34.6,29.6,35,30.9z M34.3,43
			c-1.8,1-4.4,0.1-7.7-2.8c-0.4-0.4-0.9-0.8-1.3-1.2c1.5-1.5,2.9-3.3,4.2-5.3c2.1-0.2,4.1-0.5,6-1c0.2,0.7,0.3,1.4,0.4,2.2
			C36.7,39.2,36.2,41.9,34.3,43z M11.9,14c-0.7-4.3-0.2-7,1.6-8.1c1.8-1,4.4-0.1,7.7,2.8c0.4,0.3,0.8,0.7,1.1,1
			c-1.4,1.5-2.7,3.1-4,5c-2.2,0.2-4.2,0.6-6.2,1C12.1,15.2,12,14.6,11.9,14z M9,29.7c-4.1-1.5-6.2-3.3-6.2-5.4
			c0-2.1,2.1-3.9,6.2-5.4c0.6-0.2,1.2-0.4,1.9-0.6c0.5,1.9,1.3,3.9,2.2,6c-0.9,2.1-1.6,4.1-2.2,6C10.2,30.1,9.6,29.9,9,29.7z
			 M12.8,17.9c1.3-0.3,2.6-0.5,4.1-0.7c-0.5,0.8-1,1.6-1.4,2.5c-0.4,0.8-0.8,1.5-1.2,2.3C13.6,20.5,13.2,19.2,12.8,17.9z M24,32
			c-1.6,0-3.1-0.1-4.5-0.2c-0.7-1.1-1.5-2.3-2.2-3.6c-0.7-1.3-1.4-2.6-2-3.9c0.6-1.2,1.2-2.4,1.9-3.7c0.7-1.3,1.5-2.6,2.2-3.7
			c1.5-0.1,3-0.2,4.6-0.2c1.4,0,2.8,0,4.2,0.1c0.8,1.2,1.6,2.5,2.4,3.9c0.7,1.2,1.3,2.4,1.8,3.5c-0.6,1.2-1.2,2.5-1.9,3.7
			c-0.7,1.3-1.5,2.6-2.3,3.8C26.8,31.9,25.5,32,24,32z M24,14.5c0.9,0,1.7,0,2.6,0.1c-0.9-1.2-1.9-2.4-2.8-3.4
			c-0.9,1-1.9,2.2-2.8,3.4C22,14.5,23,14.5,24,14.5z M28.5,24.3c0,1.2-0.4,2.2-1.3,3.1c-0.9,0.9-1.9,1.3-3.1,1.3
			c-1.2,0-2.2-0.4-3.1-1.3c-0.9-0.9-1.3-1.9-1.3-3.1c0-1.2,0.4-2.2,1.3-3.1c0.9-0.9,1.9-1.3,3.1-1.3c1.2,0,2.2,0.4,3.1,1.3
			C28.1,22.1,28.5,23.1,28.5,24.3z M24,34c-1,0-2.1,0-3.1-0.1c0.9,1.3,1.9,2.5,2.9,3.6c1-1.1,1.9-2.3,2.9-3.6C25.8,34,24.9,34,24,34
			z M18.3,33.7c-2.1-0.2-4.2-0.6-6.1-1c-0.2,0.7-0.3,1.4-0.4,2.1c-0.7,4.3-0.1,7,1.7,8.1c1.8,1,4.4,0.1,7.7-2.8
			c0.4-0.4,0.8-0.7,1.2-1.1C21,37.4,19.7,35.7,18.3,33.7z M15.5,29.2c-0.5-0.8-0.9-1.6-1.3-2.5c-0.6,1.4-1,2.7-1.4,4.1
			c1.3,0.3,2.7,0.5,4.1,0.7C16.4,30.8,16,30,15.5,29.2z"/>
	</g>
</g>
</svg>
