<svg xmlns="http://www.w3.org/2000/svg" viewBox="0 0 48 48"><path fill="#231f20" d="m44.011 21.243-6.642-3.676-5.62 3.425-.062 3.51-2.736-1.797-3.718 2.256-.167-3.822-3.802-2.57 3.655-1.88c-.02 0 0 .356-.543-12.532L15.75 0 3.99 3.655l2.63 12.638 3.948 3.05-3.008 1.42 1.964 9.525 2.757 2.59-1.963 1.19 1.524 7.374 6.183 6.538c.021-.042.648-.522 7.959-6.33l-.21-5.012 3.134 2.652c.042-.041.668-.501 6.413-5.075l.23-3.698 2.36 1.65c.041-.041.585-.459 5.2-4.135z"/><path d="m38.497 25.19 5.514-3.947-6.642-3.676-5.62 3.425z"/><path fill="#004b16" d="m37.89 32.188.607-6.997-6.747-4.199-.146 6.852zm-9.002 7.123v-7.248l-6.81-5.18.544 7.144z"/><path d="m28.888 32.063 6.83-4.909-6.767-4.449-6.872 4.178z"/><path fill="#004b16" d="m18.005 47.98-1.086-7.416-6.621-6.496 1.525 7.374z"/><path d="m16.92 40.564 8.73-6.224-6.767-5.515-8.585 5.243z"/><path fill="#004b16" d="m16.355 36.721-1.441-9.817-7.373-6.141 1.984 9.525z"/><path d="m14.914 26.904 10.172-5.765-7.582-5.097-9.963 4.72z"/><path fill="#004b16" d="M14.225 22.225 12.26 8.794 3.99 3.655l2.63 12.638Z"/><path d="m12.261 8.794 12.094-4.637L15.75 0 3.99 3.655Z"/><path fill="#1cb35c" d="M43.092 28.053c-5.118 4.052-5.222 4.135-5.201 4.135.626-7.331.585-6.997.606-6.997 5.848-4.178 5.472-3.948 5.514-3.948zM35.3 34.256c-6.328 5.034-6.433 5.076-6.412 5.076-.063-7.603-.02-7.269 0-7.269 7.29-5.222 6.81-4.909 6.83-4.909zm-9.336 7.416C18.068 47.959 17.984 48 18.005 48c-1.128-7.645-1.086-7.416-1.086-7.416 9.295-6.621 8.71-6.224 8.731-6.224zM24.355 4.157c.564 12.908.502 12.533.543 12.533-10.464 5.43-10.694 5.535-10.673 5.535C12.219 8.5 12.219 8.794 12.26 8.794zm.731 16.982c.418 9.775.356 9.441.397 9.441-9.044 6.078-9.149 6.141-9.128 6.141-1.462-10.068-1.462-9.817-1.441-9.817z"/></svg>