<svg xmlns="http://www.w3.org/2000/svg" viewBox="0 0 48 48"><g stroke-width=".099"><g fill-rule="evenodd"><path fill="#87cf3e" d="M45.384 38.84V18.11c0-6.926-6.073-12.54-13.567-12.54h-7.778v-.016L3.002 5.462v7.564h3.23c2.254 0 2.652 1.556 2.652 3.71l.016 13.37c0 6.926 6.073 12.54 13.559 12.54h18.482c2.37 0 4.442-1.5 4.442-3.806z"/><path fill="#505050" d="M22.336 45.52c-8.926 0-16.672-6.767-16.672-15.685l-.008-10.829v-2.76h-5.66V2.485l23.865.113 7.466.016c8.934 0 16.672 6.759 16.672 15.685v27.22H22.336zm22.027-7.302V18.3c0-6.655-5.836-12.049-13.036-12.049h-7.473v-.016L3.64 6.147v6.461h2.264c1.538 0 3.387 1.445 3.387 3.565l.016 13.654c0 6.654 5.836 12.048 13.028 12.048h17.758c2.277 0 4.269-1.441 4.269-3.657z"/></g><path fill="#505050" d="M80 104v144c0 35.157 28.843 64 64 64h96c35.157 0 64-28.843 64-64v-80c0-26.32-21.68-48-48-48-12.296 0-23.467 4.86-32 12.586C215.467 124.86 204.296 120 192 120c-26.32 0-48 21.68-48 48v80h32v-80c0-9.026 6.974-16 16-16s16 6.974 16 16v80h32v-80c0-9.026 6.974-16 16-16s16 6.974 16 16v80c0 17.863-14.137 32-32 32h-96c-17.863 0-32-14.137-32-32V104z" color="#000" style="font-feature-settings:normal;font-variant-alternates:normal;font-variant-caps:normal;font-variant-ligatures:normal;font-variant-numeric:normal;font-variant-position:normal;isolation:auto;mix-blend-mode:normal;shape-padding:0;text-decoration-color:#000;text-decoration-line:none;text-decoration-style:solid;text-indent:0;text-orientation:mixed;text-transform:none;white-space:normal" transform="translate(3.372 -1.663) scale(.12326)"/></g></svg>