<svg xmlns="http://www.w3.org/2000/svg" id="Layer_1" width="48" height="48" data-name="Layer 1" version="1.1"><defs id="defs4"><style id="style2">.cls-2{fill:#5f224a}</style></defs><path id="path6" d="M41.687 11.813a2.47 2.47 0 0 0-2.803 2.087l-.365 2.478L24 19.277 9.482 16.378 9.116 13.9a2.471 2.471 0 0 0-4.89.72l.62 4.2a2.471 2.471 0 0 0 1.96 2.063l10.23 2.043 1.394 8.577a4.948 4.948 0 0 0 4.936 4.709h1.267a4.948 4.948 0 0 0 4.935-4.681l1.573-8.611.004-.03 10.049-2.007a2.471 2.471 0 0 0 1.96-2.063l.62-4.2v-.005a2.47 2.47 0 0 0-2.087-2.802zM24.673 30.826a2.47 2.47 0 0 0-.04.444h-1.267a2.453 2.453 0 0 0-.032-.396l-1.124-6.915 1.306.26a2.473 2.473 0 0 0 .968 0l1.45-.289z" style="fill:#fff;stroke-width:1"/><path id="path8" d="M24 24.267a2.473 2.473 0 0 1-.484-.047l-1.306-.261 1.124 6.915a2.453 2.453 0 0 1 .033.396h1.266a2.47 2.47 0 0 1 .04-.444l1.26-6.896-1.45.29a2.473 2.473 0 0 1-.483.047z" class="cls-2" style="stroke-width:1"/><path id="path10" d="M42.92 4.345H5.08A5.095 5.095 0 0 0 0 9.425v29.15a5.095 5.095 0 0 0 5.08 5.08h37.84a5.095 5.095 0 0 0 5.08-5.08V9.425a5.095 5.095 0 0 0-5.08-5.08Zm.854 10.27v.004l-.62 4.201a2.471 2.471 0 0 1-1.96 2.063L31.145 22.89l-.004.03-1.573 8.611a4.948 4.948 0 0 1-4.935 4.68h-1.266a4.948 4.948 0 0 1-4.937-4.708l-1.394-8.577-10.23-2.043a2.471 2.471 0 0 1-1.961-2.063l-.618-4.2a2.471 2.471 0 0 1 4.89-.72l.364 2.478L24 19.277l14.52-2.9.364-2.477a2.471 2.471 0 1 1 4.89.715z" class="cls-2" style="stroke-width:1"/></svg>