<svg xmlns="http://www.w3.org/2000/svg" viewBox="0 0 48 48"><defs id="longhorn_svg__defs4"><style id="style2">.longhorn_svg__cls-1{fill:#5f224a}</style></defs><g id="longhorn_svg__g246" style="stroke-width:4.047" transform="translate(0 4.345) scale(.2471)"><path id="longhorn_svg__path8" d="M97.128 80.627a10.009 10.009 0 0 1-1.958-.193l-5.284-1.055 4.549 27.983a9.924 9.924 0 0 1 .13 1.604h5.126a10 10 0 0 1 .163-1.797l5.098-27.907-5.866 1.172a10.009 10.009 0 0 1-1.958.193z" class="longhorn_svg__cls-1" style="stroke-width:4.047"/><path id="longhorn_svg__path10" d="M173.696 0H20.56A20.621 20.621 0 0 0 0 20.56v117.968a20.621 20.621 0 0 0 20.56 20.561h153.136a20.621 20.621 0 0 0 20.56-20.56V20.56A20.621 20.621 0 0 0 173.696 0Zm3.455 41.581-2.502 17a10 10 0 0 1-7.936 8.35l-40.668 8.12c-.007.04-.009.081-.016.122l-6.366 34.85a20.026 20.026 0 0 1-19.972 18.943h-5.126a20.026 20.026 0 0 1-19.979-19.058l-5.641-34.71-41.402-8.266a10 10 0 0 1-7.935-8.351l-2.502-17a10 10 0 0 1 19.787-2.912l1.475 10.03 58.76 11.73 58.76-11.73 1.475-10.03a10 10 0 0 1 19.788 2.912z" class="longhorn_svg__cls-1" style="stroke-width:4.047"/></g></svg>