
<svg xmlns="http://www.w3.org/2000/svg" version="1.1" xmlns:xlink="http://www.w3.org/1999/xlink" preserveAspectRatio="none" x="0px" y="0px" width="353px" height="353px" viewBox="0 0 353 353">
<defs>
<path id="Layer0_0_1_STROKES" stroke="#FBC41F" stroke-width="15" stroke-linejoin="round" stroke-linecap="round" fill="none" d="
M 343.4 207.3
Q 345.9 192.5 345.9 176.7 345.9 158.9 342.7 142.45 335.5 146.25 326.75 146.25 318.05 146.25 310.95 142.55 306.25 140.1 302.25 136.1 292.15 126 292.15 111.65 292.15 97.3 302.25 87.15 308 81.45 315.1 78.95 306.85 67.55 296.35 57.05 284.85 45.55 272.25 36.7 269.7 43.15 264.4 48.4 254.3 58.55 239.95 58.55 231.25 58.55 224.15 54.85 219.45 52.4 215.45 48.4 205.35 38.3 205.35 23.95 205.35 16.5 208.1 10.15 192.95 7.5 176.7 7.5 161.4 7.5 147.15 9.85 150 16.3 150 23.95 150 38.3 139.85 48.4 129.75 58.55 115.4 58.55 106.7 58.55 99.6 54.85 94.9 52.4 90.9 48.4 85.2 42.7 82.75 35.65 69.25 44.85 57.05 57.05 47.45 66.65 39.7 77.05 46.1 79.55 51.4 84.85 61.55 95 61.55 109.35 61.55 123.7 51.4 133.8 41.3 143.95 26.95 143.95 18.25 143.95 11.15 140.25 7.5 157.7 7.5 176.7 7.5 192.05 9.9 206.4 17.5 202 26.95 202 33.8 202 39.7 204.3 46.1 206.8 51.4 212.1 61.55 222.25 61.55 236.6 61.55 250.95 51.4 261.05 44.4 268.1 35.35 270.25 44.65 283.95 57.05 296.35 68.85 308.15 81.85 317.15 84 308.25 90.9 301.35 101.05 291.25 115.4 291.25 122.25 291.25 128.15 293.55 134.55 296.05 139.85 301.35 150 311.5 150 325.85 150 335.5 145.4 343.25 160.5 345.9 176.7 345.9 193.85 345.9 209.75 342.95 205.35 335.3 205.35 325.85 205.35 311.5 215.45 301.35 225.6 291.25 239.95 291.25 246.8 291.25 252.7 293.55 259.1 296.05 264.4 301.35 270.85 307.8 273.25 316 285.3 307.4 296.35 296.35 308.35 284.35 317.45 271.2 314.05 270.25 310.95 268.65 306.25 266.2 302.25 262.2 292.15 252.1 292.15 237.75 292.15 223.4 302.25 213.25 312.4 203.15 326.75 203.15 333.6 203.15 339.5 205.45 341.5 206.25 343.4 207.3 Z
M 241.85 176.25
Q 241.85 203.4 222.65 222.6 203.45 241.8 176.3 241.8 149.15 241.8 129.95 222.6 110.75 203.4 110.75 176.25 110.75 149.1 129.95 129.9 149.15 110.7 176.3 110.7 203.45 110.7 222.65 129.9 241.85 149.1 241.85 176.25 Z"/>
</defs>

<g transform="matrix( 1, 0, 0, 1, 0,0) ">
<use xlink:href="#Layer0_0_1_STROKES"/>
</g>
</svg>
