<svg xmlns="http://www.w3.org/2000/svg" xmlns:xlink="http://www.w3.org/1999/xlink" xml:space="preserve" width="48" height="48" viewBox="134.113 113.05 48 48"><path fill="#dd4814" stroke="#fff" stroke-linecap="round" stroke-linejoin="round" stroke-miterlimit="10" stroke-width=".29" d="m181.887 137.05-.02 8.247-23.677 13.76.02-8.246z"/><path fill="#dd4814" stroke="#fff" stroke-linecap="round" stroke-linejoin="round" stroke-miterlimit="10" stroke-width=".29" d="m158.21 150.811-.02 8.246-23.829-13.76.02-8.247z"/><path fill="#333" stroke="#fff" stroke-linecap="round" stroke-linejoin="round" stroke-miterlimit="10" stroke-width=".29" d="m181.907 128.804-11.838 6.88-23.829-13.76 11.839-6.881zm.061.03-.03 8.246-11.839 6.881.03-8.247z"/><path fill="#333" d="m170.07 135.684-.021 8.247-23.829-13.761.02-8.247z"/><g transform="translate(95.275 82.16) scale(.28959)"><defs><path id="a" d="m258.277 184.829-.07 28.477-82.285-47.519.069-28.477z"/></defs><clipPath id="b"><use xlink:href="#a" overflow="visible"/></clipPath><path fill="#333" stroke="#fff" stroke-miterlimit="10" d="m258.277 184.829-.07 28.477-82.285-47.519.069-28.477z" clip-path="url(#b)"/></g><path fill="none" stroke="#fff" stroke-miterlimit="10" stroke-width=".29" d="m170.07 135.684-.021 8.247-23.829-13.761.02-8.247z"/><path fill="#888" stroke="#fff" stroke-linecap="round" stroke-linejoin="round" stroke-miterlimit="10" stroke-width=".29" d="m170.059 139.802-11.839 6.88-23.828-13.75 11.838-6.88zm-11.839 6.881-.01 4.128-23.828-13.761.01-4.118z"/><path fill="#888" stroke="#fff" stroke-linecap="round" stroke-linejoin="round" stroke-miterlimit="10" stroke-width=".29" d="m170.059 139.802-.01 4.129-11.839 6.88.01-4.128z"/><path fill="#2c001e" stroke="#fff" stroke-linecap="round" stroke-linejoin="round" stroke-miterlimit="10" stroke-width=".29" d="m158.058 128.824-.01 4.108-11.788 6.85.01-4.108z"/><path fill="#cdcdcd" d="m158.058 128.824-11.787 6.85-11.87-6.85 11.84-6.9z"/><path fill="#cdcdcd" d="m146.27 135.674-.01 4.108-11.868-6.85.01-4.108z"/><path fill="#cdcdcd" d="m158.058 128.824-.01 4.108-11.788 6.85.01-4.108z"/><g transform="translate(95.275 82.16) scale(.28959)"><defs><path id="c" d="m216.802 175.326-40.741 23.654-40.95-23.654 40.88-23.76z"/></defs><clipPath id="d"><use xlink:href="#c" overflow="visible"/></clipPath><path fill="none" stroke="#fff" stroke-miterlimit="10" d="m216.802 175.326-40.706 23.654-40.985-23.654 40.88-23.76z" clip-path="url(#d)"/></g><path fill="none" stroke="#fff" stroke-miterlimit="10" stroke-width=".29" d="m158.058 132.932-11.798 6.85-11.858-6.85 11.838-6.88z"/><g transform="translate(95.275 82.16) scale(.28959)"><defs><path id="e" d="m216.837 161.14-40.706 23.654-40.985-23.654 40.88-23.83z"/></defs><clipPath id="f"><use xlink:href="#e" overflow="visible"/></clipPath><path fill="none" stroke="#fff" stroke-miterlimit="10" d="m216.837 161.14-40.706 23.654-40.985-23.654 40.88-23.83z" clip-path="url(#f)"/></g><path fill="none" stroke="#fff" stroke-miterlimit="10" stroke-width=".29" d="m158.069 128.824-11.788 6.85-11.87-6.85 11.84-6.9z"/><g transform="translate(95.275 82.16) scale(.28959)"><defs><path id="g" d="m176.131 184.794-.07 14.186-40.95-23.654.035-14.186z"/></defs><clipPath id="h"><use xlink:href="#g" overflow="visible"/></clipPath><path fill="none" stroke="#fff" stroke-miterlimit="10" d="m176.131 184.794-.035 14.186-40.985-23.654.035-14.186z" clip-path="url(#h)"/></g><path fill="none" stroke="#fff" stroke-miterlimit="10" stroke-width=".29" d="m146.28 135.674-.02 4.108-11.858-6.85.01-4.108z"/><g transform="translate(95.275 82.16) scale(.28959)"><defs><path id="i" d="m135.146 161.14 40.88-23.83-.035 14.256-40.88 23.76z"/></defs><clipPath id="j"><use xlink:href="#i" overflow="visible"/></clipPath><path fill="none" stroke="#fff" stroke-miterlimit="10" d="m135.146 161.14 40.88-23.83-.035 14.256-40.88 23.76z" clip-path="url(#j)"/></g><path fill="none" stroke="#fff" stroke-miterlimit="10" stroke-width=".29" d="m134.412 128.824 11.838-6.9-.01 4.127-11.838 6.881z"/><g transform="translate(95.275 82.16) scale(.28959)"><defs><path id="k" d="m176.026 137.31 40.811 23.83-.035 14.186-40.811-23.76z"/></defs><clipPath id="l"><use xlink:href="#k" overflow="visible"/></clipPath><path fill="none" stroke="#fff" stroke-miterlimit="10" d="m176.026 137.31 40.811 23.83-.035 14.186-40.985-23.655z" clip-path="url(#l)"/></g><path fill="none" stroke="#fff" stroke-miterlimit="10" stroke-width=".29" d="m146.25 121.923 11.819 6.901-.01 4.108-11.819-6.88z"/></svg>