<svg xmlns="http://www.w3.org/2000/svg" viewBox="0 0 48 48" xmlns:xlink="http://www.w3.org/1999/xlink"><g stroke="#fff" stroke-linecap="round" stroke-linejoin="round" stroke-miterlimit="10" stroke-width=".29"><path fill="#dd4814" d="m47.78 24-.02 8.247-23.677 13.76.02-8.246zM24.1 37.76l-.02 8.246L.251 32.246l.02-8.247z"/><path fill="#333" d="m47.8 15.75-11.838 6.88L12.133 8.87l11.839-6.881zm.061.03-.03 8.246-11.839 6.881.03-8.247z"/></g><path fill="#333" d="m35.96 22.63-.021 8.247L12.11 17.116l.02-8.247z"/><g transform="translate(-38.835 -30.89) scale(.28959)"><defs><path id="a" d="m258.28 184.83-.07 28.477-82.285-47.519.069-28.477z"/></defs><clipPath id="b"><use xlink:href="#a" overflow="visible"/></clipPath><path fill="#333" stroke="#fff" stroke-miterlimit="10" d="m258.28 184.83-.07 28.477-82.285-47.519.069-28.477z" clip-path="url(#b)"/></g><g stroke="#fff" stroke-miterlimit="10" stroke-width=".29"><path fill="none" d="m35.96 22.63-.021 8.247L12.11 17.116l.02-8.247z"/><g stroke-linecap="round" stroke-linejoin="round"><path fill="#888" d="m35.95 26.75-11.839 6.88L.283 19.88 12.121 13zm-11.839 6.881-.01 4.128L.273 23.998l.01-4.118zM35.95 26.75l-.01 4.129-11.839 6.88.01-4.128z"/><path fill="#2c001e" d="m23.95 15.77-.01 4.108-11.788 6.85.01-4.108z"/></g></g><g fill="#cdcdcd"><path d="m23.95 15.77-11.787 6.85-11.87-6.85 11.84-6.9zM12.16 22.62l-.01 4.108-11.868-6.85.01-4.108z"/><path d="m23.95 15.77-.01 4.108-11.788 6.85.01-4.108z"/></g><g transform="translate(-38.835 -30.89) scale(.28959)"><defs><path id="c" d="m216.8 175.33-40.741 23.654-40.95-23.654 40.88-23.76z"/></defs><clipPath id="d"><use xlink:href="#c" overflow="visible"/></clipPath><path fill="none" stroke="#fff" stroke-miterlimit="10" d="m216.8 175.33-40.706 23.654-40.985-23.654 40.88-23.76z" clip-path="url(#d)"/></g><path fill="none" stroke="#fff" stroke-miterlimit="10" stroke-width=".29" d="m23.95 19.88-11.798 6.85L.294 19.88 12.132 13z"/><g transform="translate(-38.835 -30.89) scale(.28959)"><defs><path id="e" d="m216.84 161.14-40.706 23.654-40.985-23.654 40.88-23.83z"/></defs><clipPath id="f"><use xlink:href="#e" overflow="visible"/></clipPath><path fill="none" stroke="#fff" stroke-miterlimit="10" d="m216.84 161.14-40.706 23.654-40.985-23.654 40.88-23.83z" clip-path="url(#f)"/></g><path fill="none" stroke="#fff" stroke-miterlimit="10" stroke-width=".29" d="m23.96 15.77-11.788 6.85-11.87-6.85 11.84-6.9z"/><g transform="translate(-38.835 -30.89) scale(.28959)"><defs><path id="g" d="m176.13 184.79-.07 14.186-40.95-23.654.035-14.186z"/></defs><clipPath id="h"><use xlink:href="#g" overflow="visible"/></clipPath><path fill="none" stroke="#fff" stroke-miterlimit="10" d="m176.13 184.79-.035 14.186-40.985-23.654.035-14.186z" clip-path="url(#h)"/></g><path fill="none" stroke="#fff" stroke-miterlimit="10" stroke-width=".29" d="m12.17 22.62-.02 4.108-11.858-6.85.01-4.108z"/><g transform="translate(-38.835 -30.89) scale(.28959)"><defs><path id="i" d="m135.15 161.14 40.88-23.83-.035 14.256-40.88 23.76z"/></defs><clipPath id="j"><use xlink:href="#i" overflow="visible"/></clipPath><path fill="none" stroke="#fff" stroke-miterlimit="10" d="m135.15 161.14 40.88-23.83-.035 14.256-40.88 23.76z" clip-path="url(#j)"/></g><path fill="none" stroke="#fff" stroke-miterlimit="10" stroke-width=".29" d="m.3 15.77 11.838-6.9-.01 4.127L.29 19.878z"/><g transform="translate(-38.835 -30.89) scale(.28959)"><defs><path id="k" d="m176.03 137.31 40.811 23.83-.035 14.186-40.811-23.76z"/></defs><clipPath id="l"><use xlink:href="#k" overflow="visible"/></clipPath><path fill="none" stroke="#fff" stroke-miterlimit="10" d="m176.03 137.31 40.811 23.83-.035 14.186-40.985-23.655z" clip-path="url(#l)"/></g><path fill="none" stroke="#fff" stroke-miterlimit="10" stroke-width=".29" d="m12.14 8.87 11.819 6.901-.01 4.108-11.819-6.88z"/></svg>