<svg xmlns="http://www.w3.org/2000/svg" viewBox="0 0 48 48"><path fill="#666" d="M36.655 19.2c-5.723-6.291-7.78-2.407-11.345 1.746-3.566 4.152-19.2 25.308-19.2 25.308s9.46-15.548 12.218-20.072c3.313-5.434 2.618-5.237 2.618-5.237s-1.038.002-3.49 2.618C15.001 26.18 5.236 38.4 5.236 38.4s6.266-11.05 9.6-15.709c2.875-4.016.775-4.755-.872-4.363C6.945 20 0 23.563 0 23.563S27.655 3.87 31.419 3.49c.438-.044 1.843-1.095 3.49-1.745C36.698 1.038 38.4.872 38.4.872S36.667 2.9 36.655 3.49c-.02.966-.496 2.12-.873 2.618C43.12 14.02 48 47.126 48 47.126S42.377 25.49 36.655 19.2z"/></svg>