<svg xmlns="http://www.w3.org/2000/svg" viewBox="0 0 48 48"><path fill="#fff" d="M35.968 18.674c-2.942-3.321-5.594-5.467-9.518.127-2.336 3.328-16.351 22.396-18.923 25.433-.748.882-1.185 1.495-1.759 1.85.001-1.207 9.682-16.537 12.39-20.98 3.254-5.336 3.151-5.024 2.762-5.023-.552.002-1.673.815-3.378 2.634-3.113 3.32-12.334 15.679-12.97 15.488.22-.898 7.434-11.96 10.71-16.534 2.822-3.945 1.743-4.245.125-3.86C8.512 19.453.266 23.429-.001 23.285c.1-.206 27.772-19.665 31.469-20.037.43-.043 1.338-.81 2.956-1.45 1.757-.694 2.939-1.259 3.231-1.08-1.281 1.797-1.956 2.158-1.968 2.738-.018.95-.356 2.485-.726 2.975 7.15 4.764 9.94 21.007 11.984 34.07.487 3.102.94 5.43 1.054 6.814-.603-1.553-6.32-22.194-12.032-28.64z"/></svg>