<svg xmlns="http://www.w3.org/2000/svg" viewBox="0 0 48 48"><path fill="#3d5263" d="M7.165 28.458c.01-2.595-.092-2.21-.468-5.028.285-2.874-.977-4.977-.983-7.471 0-.604-.743-.869-.61-1.427a12.703 12.703 0 0 0-1.258 5.535c0 3.323 1.266 6.344 3.333 8.588a4.583 4.583 0 0 1-.014-.197z"/><path fill="#f9e82d" d="m32.631 24.253-.073.058a15.426 15.426 0 0 1-10.25 10.756l12.274 10.318c.1-.258.157-.537.157-.83V22.563zm-29.682.654L0 22.563v21.99c0 .293.057.573.158.832l7.477-6.235 3.453-2.878 1.586-1.322a15.433 15.433 0 0 1-9.725-10.044z"/><path fill="#edd514" fill-opacity=".895" d="m30.535 41.984-6.825-5.737-1.403-1.18a15.388 15.388 0 0 1-4.638.713c-1.749 0-3.429-.292-4.995-.83l-1.586 1.322-10.93 9.114a2.296 2.296 0 0 0 2.14 1.464H32.44c.975 0 1.806-.608 2.14-1.465z"/><g fill="#3d5263"><path d="M30.535 41.984c-5.31.513-14.736.713-22.9-2.833-2.759-1.198-5.373-2.823-7.635-5.01v10.412a2.296 2.296 0 0 0 2.297 2.297H32.44a2.296 2.296 0 0 0 2.297-2.294v-3.148s-1.61.325-4.204.576z" opacity=".1"/><path d="M11.088 36.272a15.34 15.34 0 0 0 6.282 1.337c2.26 0 4.406-.487 6.34-1.362 4.748-2.149 8.211-6.637 8.92-11.994l-.072.058a15.426 15.426 0 0 1-10.25 10.757 15.388 15.388 0 0 1-4.64.712c-1.748 0-3.428-.292-4.994-.83a15.433 15.433 0 0 1-9.725-10.043l-.842-.669c.708 5.386 4.199 9.894 8.981 12.034z" opacity=".1"/></g><g fill="#fff"><path d="M6.953 9.33c-.23.223-.454.453-.67.69l-.016.019-.09.098.02-.02A15.346 15.346 0 0 1 17.09 5.6c8.503 0 15.395 6.893 15.395 15.396 0 3.933-1.476 7.522-3.903 10.243a15.347 15.347 0 0 0 4.483-10.858v-.002a15.325 15.325 0 0 0-2.52-8.44 15.477 15.477 0 0 0-6.593-5.619 15.293 15.293 0 0 0-4.362-1.217 15.541 15.541 0 0 0-4.089.033 15.28 15.28 0 0 0-6.207 2.325 15.486 15.486 0 0 0-2.34 1.867z"/><path d="M12.272 16.33a.593.593 0 1 0 0-1.186.593.593 0 0 0 0 1.186zm11.656 0a.593.593 0 1 0 0-1.186.593.593 0 0 0 0 1.186z"/></g><path fill="#f1f2f2" d="M28.647 31.165a15.337 15.337 0 0 0 3.837-10.169c0-8.502-6.892-15.395-15.395-15.395a15.346 15.346 0 0 0-10.891 4.515 15.456 15.456 0 0 0-2.142 3.072 15.291 15.291 0 0 0-1.783 7.196 15.563 15.563 0 0 0 .676 4.523 15.433 15.433 0 0 0 9.725 10.043 15.37 15.37 0 0 0 4.995.83c1.616 0 3.174-.25 4.638-.712a15.382 15.382 0 0 0 6.108-3.663c.069-.067.232-.24.232-.24zm-.741-7.473a12.613 12.613 0 0 1-1.11 2.625c-2.122 3.761-6.101 6.293-10.659 6.293-3.532 0-6.716-1.52-8.959-3.956a12.638 12.638 0 0 1-3.332-8.587c0-1.987.453-3.866 1.259-5.535 2.004-4.152 6.19-7.01 11.032-7.01.508 0 1.009.033 1.5.094 6.08.755 10.791 6.041 10.791 12.45 0 1.261-.183 2.478-.522 3.626zM6.283 10.02l-.016.019.016-.018z"/><path fill="#5a3620" d="M32.992 21.88a15.335 15.335 0 0 1-.434 2.431l.073-.058 2.109-1.69v-.003zM0 22.563l2.949 2.344a15.333 15.333 0 0 1-.607-3.062l-.365.111L0 22.561m11.204 3.219a1.441 1.441 0 1 0 0 2.883 1.441 1.441 0 0 0 0-2.883zm12.015 0a1.441 1.441 0 1 0-.002 2.883 1.441 1.441 0 0 0 .002-2.883zm.216-11.537c-.892 0-1.978.995-1.978 1.887s1.041 2.204 1.933 2.204c.892 0 2.023-1.221 2.023-2.113 0-.893-1.086-1.978-1.978-1.978zm.493 2.086a.593.593 0 1 1 0-1.186.593.593 0 0 1 0 1.186zm-12.44-2.041c-.892 0-1.841 1.04-1.841 1.933 0 .891 1.13 2.067 2.022 2.067.892 0 2.023-1.176 2.023-2.067 0-.893-1.312-1.933-2.204-1.933zm.784 2.04a.593.593 0 1 1 0-1.186.593.593 0 0 1 0 1.186z"/><path fill="#fef3df" d="M43.067 33.986c.46-1.172.986-1.408 1.196-1.453-5.219.482-4.694 3.557-4.357 4.606.07.219.133.35.133.35s.26.613.965 1.12c.531.382 1.315.704 2.432.659 3.466.059 4.563-6.425 4.563-6.425-.852 1.493-3.381 1.265-4.932 1.143zm-36.8-23.947.016-.018c.216-.238.44-.469.67-.692-1.142-.893-3.118-2.027-5.346-1.49 0 0 .36 2.62 3.001 4.391.47-.75 1.002-1.457 1.59-2.114l-.021.021.09-.098zM33.143 7.84c-2.027-.49-3.845.405-5.017 1.243.917.85 1.73 1.809 2.419 2.857 2.274-1.753 2.598-4.1 2.598-4.1zM17.195 21.667c-5.545 0-10.039 2.94-10.039 6.568 0 .075.005.148.009.222.003.066.008.132.014.197 2.242 2.435 5.426 3.956 8.958 3.956 4.558 0 8.537-2.532 10.659-6.293-1.254-2.692-5.078-4.65-9.601-4.65zm-5.99 6.995a1.442 1.442 0 1 1 0-2.883 1.442 1.442 0 0 1 0 2.883zm12.013 0a1.442 1.442 0 1 1 0-2.883 1.442 1.442 0 0 1 0 2.883zM11.047 1.15c-2.326 2.096-.02 5.304 0 5.33A15.28 15.28 0 0 1 15.5 5.137c-2.999-.442-4.454-3.988-4.454-3.988zm12.798 0s-1.391 3.39-4.256 3.954c1.536.191 3.001.609 4.362 1.218.429-.673 1.921-3.345-.106-5.173z"/><path fill="#87654a" d="M27.906 23.693c.339-1.148.839-3.316.839-4.576 0-6.41-5.028-10.745-11.108-11.5-.276 3.59.465 11.147 10.269 16.076zm-6.087-7.472a1.615 1.615 0 1 1 3.23 0 1.615 1.615 0 0 1-3.23 0z"/><path fill="#b58765" d="M40.04 37.489s-.063-.13-.134-.35a6.906 6.906 0 0 1-3.461 1.59h-.003a7.4 7.4 0 0 1-1.702.064v3.604c.263-.103.59-.235.957-.395.7-.304 1.549-.71 2.404-1.203l.01-.006c1.045-.604 2.097-1.339 2.894-2.184-.706-.507-.966-1.12-.966-1.12zM1.607 7.84c2.228-.538 4.204.596 5.346 1.49.716-.696 1.5-1.321 2.34-1.867C6.182 3.518.278 5.913.278 5.913c-.42 3.88 1.68 6.07 3.778 7.275.173-.326.357-.646.552-.958-2.64-1.77-3.001-4.39-3.001-4.39zm24.053-.62a15.427 15.427 0 0 1 2.467 1.863c1.171-.838 2.99-1.732 5.017-1.244 0 0-.324 2.348-2.598 4.101.209.318.406.645.592.979 1.939-1.253 3.726-3.399 3.335-7.006 0 0-5.654-2.293-8.812 1.306zm-7.879.397a14.592 14.592 0 0 0-1.644-.094c-4.842 0-9.029 2.857-11.033 7.01a7.452 7.452 0 0 0-.205 1.742c0 .186.01.357.015.535.017.504.058.971.11 1.426.55 3.196 1.02 5.441 1.724 8.549.007.052.021.103.029.155.079.516.21 1.023.387 1.518-.004-.074-.008-.148-.008-.222 0-3.628 4.493-6.568 10.038-6.568 4.524 0 8.347 1.958 9.602 4.65.463-.821.837-1.7 1.11-2.625-4.857-3.008-6.905-5.27-8.28-8.224-1.377-2.954-1.983-6.058-1.845-7.852zM11.67 17.836a1.615 1.615 0 1 1-.001-3.23 1.615 1.615 0 0 1 0 3.23z"/></svg>