<svg xmlns="http://www.w3.org/2000/svg" viewBox="0 0 48 48"><defs><filter id="mailinabox_svg__a" width="1.091" height="1.458" x="-.046" y="-.204"><feGaussianBlur stdDeviation=".27"/></filter></defs><g transform="translate(-.997 -70.93) scale(.12359)"><g fill-rule="evenodd"><path fill="#353564" d="m8.342 809.97-.276-88.647 312.41 8.483 4.17 84.167z" opacity=".63"/><path fill="#4d4d9f" d="m8.342 809.97 63.273 58.468 324.83 1.014-71.799-55.48z" opacity=".63"/><path fill="#e9e9ff" d="m324.64 813.97 71.799 55.48-5.244-88.01-70.724-51.637z" opacity=".63"/></g><path fill="#fcfcfc" stroke="#040406" stroke-width="1.195" d="M82.43 789.73V667.35H373.6v122.38z" opacity=".999"/><path fill="#fd5" fill-rule="evenodd" d="m71.615 868.44-1.143-92.922 320.73 5.927 5.244 88.01z"/><path fill="#d4aa00" fill-rule="evenodd" d="m8.342 809.97 63.273 58.468-1.142-92.922-62.406-54.193z"/><circle cx="320.27" cy="686.44" r="6.419" fill="#f9f7f7" stroke="#8f8f8f" stroke-linecap="round" stroke-width="2.269"/><circle cx="350.26" cy="686.44" r="6.419" fill="#f9f7f7" stroke="#8f8f8f" stroke-linecap="round" stroke-width="2.269"/></g><path fill="none" stroke="#8f8f8f" stroke-width="4" d="M270.91 697.49c13.287 12.201 26.851 15.309 43.571.357" filter="url(#mailinabox_svg__a)" transform="translate(.076 -80.477) scale(.13794)"/><text xml:space="preserve" x="92.267" y="683.037" fill="#727272" stroke-width=".246" font-family="Ubuntu" font-size="9.844" letter-spacing="0" style="line-height:1" transform="translate(-.997 -70.93) scale(.12359)" word-spacing="0"><tspan x="92.267" y="683.037">RETURN PATH</tspan><tspan x="92.267" y="692.881">IMAP DNS</tspan></text><text xml:space="preserve" x="185.857" y="721.706" fill="#5c5c5c" stroke-width=".362" font-family="Ubuntu" font-size="14.494" letter-spacing="0" style="line-height:1" transform="translate(-.997 -70.93) scale(.12359)" word-spacing="0"><tspan x="185.857" y="721.706">Mail-in-a-Box</tspan><tspan x="185.857" y="736.2">SMTP Port 25</tspan><tspan x="185.857" y="750.694">The Internet</tspan></text></svg>