<svg xmlns="http://www.w3.org/2000/svg" viewBox="0 0 48 48"><defs><filter id="manyfold_svg__aw" width="1.136" height="1.118" x="-.068" y="-.059" color-interpolation-filters="sRGB"><feGaussianBlur stdDeviation="3.003"/></filter><filter id="manyfold_svg__L" width="1.051" height="1.03" x="-.025" y="-.015" color-interpolation-filters="sRGB"><feGaussianBlur stdDeviation=".568"/></filter><filter id="manyfold_svg__M" width="1.049" height="1.038" x="-.024" y="-.019" color-interpolation-filters="sRGB"><feGaussianBlur stdDeviation=".568"/></filter><filter id="manyfold_svg__N" width="1.071" height="1.166" x="-.035" y="-.083" color-interpolation-filters="sRGB"><feGaussianBlur stdDeviation=".568"/></filter><filter id="manyfold_svg__O" width="1.059" height="1.105" x="-.03" y="-.053" color-interpolation-filters="sRGB"><feGaussianBlur stdDeviation=".568"/></filter><filter id="manyfold_svg__P" width="1.196" height="1.054" x="-.098" y="-.027" color-interpolation-filters="sRGB"><feGaussianBlur stdDeviation=".568"/></filter><filter id="manyfold_svg__Q" width="1.545" height="1.08" x="-.272" y="-.04" color-interpolation-filters="sRGB"><feGaussianBlur stdDeviation=".568"/></filter><filter id="manyfold_svg__R" width="1.499" height="1.106" x="-.25" y="-.053" color-interpolation-filters="sRGB"><feGaussianBlur stdDeviation=".568"/></filter><filter id="manyfold_svg__S" width="1.127" height="1.06" x="-.064" y="-.03" color-interpolation-filters="sRGB"><feGaussianBlur stdDeviation=".568"/></filter><filter id="manyfold_svg__T" width="1.068" height="1.16" x="-.034" y="-.08" color-interpolation-filters="sRGB"><feGaussianBlur stdDeviation=".568"/></filter><filter id="manyfold_svg__U" width="1.054" height="1.082" x="-.027" y="-.041" color-interpolation-filters="sRGB"><feGaussianBlur stdDeviation=".568"/></filter><filter id="manyfold_svg__V" width="1.096" height="1.069" x="-.048" y="-.034" color-interpolation-filters="sRGB"><feGaussianBlur stdDeviation=".568"/></filter><filter id="manyfold_svg__W" width="1.16" height="1.521" x="-.08" y="-.261" color-interpolation-filters="sRGB"><feGaussianBlur stdDeviation=".568"/></filter><filter id="manyfold_svg__X" width="1.2" height="1.164" x="-.1" y="-.082" color-interpolation-filters="sRGB"><feGaussianBlur stdDeviation=".568"/></filter><filter id="manyfold_svg__Y" width="1.059" height="1.141" x="-.03" y="-.07" color-interpolation-filters="sRGB"><feGaussianBlur stdDeviation=".568"/></filter><filter id="manyfold_svg__Z" width="1.3" height="1.048" x="-.15" y="-.024" color-interpolation-filters="sRGB"><feGaussianBlur stdDeviation=".568"/></filter><filter id="manyfold_svg__aa" width="1.174" height="1.053" x="-.087" y="-.026" color-interpolation-filters="sRGB"><feGaussianBlur stdDeviation=".568"/></filter><filter id="manyfold_svg__ab" width="1.133" height="1.116" x="-.067" y="-.058" color-interpolation-filters="sRGB"><feGaussianBlur stdDeviation=".568"/></filter><filter id="manyfold_svg__ac" width="1.054" height="1.245" x="-.027" y="-.122" color-interpolation-filters="sRGB"><feGaussianBlur stdDeviation=".568"/></filter><filter id="manyfold_svg__ad" width="1.196" height="1.11" x="-.098" y="-.055" color-interpolation-filters="sRGB"><feGaussianBlur stdDeviation=".568"/></filter><filter id="manyfold_svg__ae" width="1.074" height="2.712" x="-.037" y="-.856" color-interpolation-filters="sRGB"><feGaussianBlur stdDeviation=".568"/></filter><filter id="manyfold_svg__af" width="1.102" height="2.997" x="-.051" y="-.999" color-interpolation-filters="sRGB"><feGaussianBlur stdDeviation=".568"/></filter><filter id="manyfold_svg__ag" width="1.152" height="1.133" x="-.076" y="-.067" color-interpolation-filters="sRGB"><feGaussianBlur stdDeviation=".568"/></filter><filter id="manyfold_svg__ah" width="1.077" height="1.363" x="-.039" y="-.182" color-interpolation-filters="sRGB"><feGaussianBlur stdDeviation=".568"/></filter><filter id="manyfold_svg__ai" width="1.21" height="1.184" x="-.105" y="-.092" color-interpolation-filters="sRGB"><feGaussianBlur stdDeviation=".568"/></filter><filter id="manyfold_svg__aj" width="1.053" height="1.115" x="-.026" y="-.058" color-interpolation-filters="sRGB"><feGaussianBlur stdDeviation=".568"/></filter><filter id="manyfold_svg__ak" width="1.062" height="1.162" x="-.031" y="-.081" color-interpolation-filters="sRGB"><feGaussianBlur stdDeviation=".568"/></filter><filter id="manyfold_svg__al" width="1.097" height="12.984" x="-.049" y="-5.992" color-interpolation-filters="sRGB"><feGaussianBlur stdDeviation=".568"/></filter><filter id="manyfold_svg__am" width="1.127" height="2.997" x="-.064" y="-.999" color-interpolation-filters="sRGB"><feGaussianBlur stdDeviation=".568"/></filter><filter id="manyfold_svg__an" width="1.15" height="1.083" x="-.075" y="-.042" color-interpolation-filters="sRGB"><feGaussianBlur stdDeviation=".568"/></filter><filter id="manyfold_svg__ao" width="1.749" height="1.479" x="-.375" y="-.24" color-interpolation-filters="sRGB"><feGaussianBlur stdDeviation=".568"/></filter><filter id="manyfold_svg__ap" width="1.599" height="1.15" x="-.3" y="-.075" color-interpolation-filters="sRGB"><feGaussianBlur stdDeviation=".568"/></filter><filter id="manyfold_svg__aq" width="1.856" height="1.23" x="-.428" y="-.115" color-interpolation-filters="sRGB"><feGaussianBlur stdDeviation=".568"/></filter><filter id="manyfold_svg__ar" width="1.363" height="1.207" x="-.182" y="-.103" color-interpolation-filters="sRGB"><feGaussianBlur stdDeviation=".568"/></filter><filter id="manyfold_svg__as" width="1.06" height="1.174" x="-.03" y="-.087" color-interpolation-filters="sRGB"><feGaussianBlur stdDeviation=".568"/></filter><filter id="manyfold_svg__at" width="1.1" height="1.133" x="-.05" y="-.067" color-interpolation-filters="sRGB"><feGaussianBlur stdDeviation=".568"/></filter><filter id="manyfold_svg__av" width="1.234" height="1.202" x="-.117" y="-.101" color-interpolation-filters="sRGB"><feGaussianBlur stdDeviation="4.9"/></filter><filter id="manyfold_svg__au" width="1.18" height="1.156" x="-.09" y="-.078" color-interpolation-filters="sRGB"><feGaussianBlur stdDeviation="3.905"/></filter><filter id="manyfold_svg__c" width="1.135" height="1.079" x="-.068" y="-.04" color-interpolation-filters="sRGB"><feGaussianBlur stdDeviation="1.974"/></filter><filter id="manyfold_svg__d" width="1.13" height="1.103" x="-.065" y="-.051" color-interpolation-filters="sRGB"><feGaussianBlur stdDeviation="1.974"/></filter><filter id="manyfold_svg__e" width="1.19" height="1.445" x="-.095" y="-.223" color-interpolation-filters="sRGB"><feGaussianBlur stdDeviation="1.974"/></filter><filter id="manyfold_svg__f" width="1.159" height="1.281" x="-.079" y="-.141" color-interpolation-filters="sRGB"><feGaussianBlur stdDeviation="1.974"/></filter><filter id="manyfold_svg__g" width="1.526" height="1.145" x="-.263" y="-.073" color-interpolation-filters="sRGB"><feGaussianBlur stdDeviation="1.974"/></filter><filter id="manyfold_svg__h" width="2.458" height="1.215" x="-.729" y="-.108" color-interpolation-filters="sRGB"><feGaussianBlur stdDeviation="1.974"/></filter><filter id="manyfold_svg__i" width="2.336" height="1.284" x="-.668" y="-.142" color-interpolation-filters="sRGB"><feGaussianBlur stdDeviation="1.974"/></filter><filter id="manyfold_svg__j" width="1.341" height="1.162" x="-.171" y="-.081" color-interpolation-filters="sRGB"><feGaussianBlur stdDeviation="1.974"/></filter><filter id="manyfold_svg__k" width="1.181" height="1.428" x="-.091" y="-.214" color-interpolation-filters="sRGB"><feGaussianBlur stdDeviation="1.974"/></filter><filter id="manyfold_svg__l" width="1.145" height="1.22" x="-.073" y="-.11" color-interpolation-filters="sRGB"><feGaussianBlur stdDeviation="1.974"/></filter><filter id="manyfold_svg__m" width="1.257" height="1.184" x="-.128" y="-.092" color-interpolation-filters="sRGB"><feGaussianBlur stdDeviation="1.974"/></filter><filter id="manyfold_svg__n" width="1.428" height="2.394" x="-.214" y="-.697" color-interpolation-filters="sRGB"><feGaussianBlur stdDeviation="1.974"/></filter><filter id="manyfold_svg__o" width="1.534" height="1.439" x="-.267" y="-.22" color-interpolation-filters="sRGB"><feGaussianBlur stdDeviation="1.974"/></filter><filter id="manyfold_svg__p" width="1.159" height="1.377" x="-.079" y="-.189" color-interpolation-filters="sRGB"><feGaussianBlur stdDeviation="1.974"/></filter><filter id="manyfold_svg__q" width="1.802" height="1.127" x="-.401" y="-.064" color-interpolation-filters="sRGB"><feGaussianBlur stdDeviation="1.974"/></filter><filter id="manyfold_svg__r" width="1.465" height="1.141" x="-.232" y="-.071" color-interpolation-filters="sRGB"><feGaussianBlur stdDeviation="1.974"/></filter><filter id="manyfold_svg__s" width="1.356" height="1.311" x="-.178" y="-.156" color-interpolation-filters="sRGB"><feGaussianBlur stdDeviation="1.974"/></filter><filter id="manyfold_svg__t" width="1.146" height="1.655" x="-.073" y="-.327" color-interpolation-filters="sRGB"><feGaussianBlur stdDeviation="1.974"/></filter><filter id="manyfold_svg__u" width="1.526" height="1.294" x="-.263" y="-.147" color-interpolation-filters="sRGB"><feGaussianBlur stdDeviation="1.974"/></filter><filter id="manyfold_svg__v" width="1.198" height="5.582" x="-.099" y="-2.291" color-interpolation-filters="sRGB"><feGaussianBlur stdDeviation="1.974"/></filter><filter id="manyfold_svg__w" width="1.272" height="6.345" x="-.136" y="-2.673" color-interpolation-filters="sRGB"><feGaussianBlur stdDeviation="1.974"/></filter><filter id="manyfold_svg__x" width="1.406" height="1.356" x="-.203" y="-.178" color-interpolation-filters="sRGB"><feGaussianBlur stdDeviation="1.974"/></filter><filter id="manyfold_svg__y" width="1.207" height="1.972" x="-.103" y="-.486" color-interpolation-filters="sRGB"><feGaussianBlur stdDeviation="1.974"/></filter><filter id="manyfold_svg__z" width="1.563" height="1.493" x="-.281" y="-.247" color-interpolation-filters="sRGB"><feGaussianBlur stdDeviation="1.974"/></filter><filter id="manyfold_svg__A" width="1.141" height="1.308" x="-.071" y="-.154" color-interpolation-filters="sRGB"><feGaussianBlur stdDeviation="1.974"/></filter><filter id="manyfold_svg__B" width="1.167" height="1.433" x="-.084" y="-.217" color-interpolation-filters="sRGB"><feGaussianBlur stdDeviation="1.974"/></filter><filter id="manyfold_svg__C" width="1.261" height="33.072" x="-.13" y="-16.036" color-interpolation-filters="sRGB"><feGaussianBlur stdDeviation="1.974"/></filter><filter id="manyfold_svg__D" width="1.341" height="6.345" x="-.171" y="-2.673" color-interpolation-filters="sRGB"><feGaussianBlur stdDeviation="1.974"/></filter><filter id="manyfold_svg__E" width="1.401" height="1.223" x="-.2" y="-.111" color-interpolation-filters="sRGB"><feGaussianBlur stdDeviation="1.974"/></filter><filter id="manyfold_svg__F" width="3.005" height="2.283" x="-1.002" y="-.641" color-interpolation-filters="sRGB"><feGaussianBlur stdDeviation="1.974"/></filter><filter id="manyfold_svg__G" width="2.604" height="1.401" x="-.802" y="-.2" color-interpolation-filters="sRGB"><feGaussianBlur stdDeviation="1.974"/></filter><filter id="manyfold_svg__H" width="3.291" height="1.617" x="-1.145" y="-.308" color-interpolation-filters="sRGB"><feGaussianBlur stdDeviation="1.974"/></filter><filter id="manyfold_svg__I" width="1.972" height="1.553" x="-.486" y="-.276" color-interpolation-filters="sRGB"><feGaussianBlur stdDeviation="1.974"/></filter><filter id="manyfold_svg__J" width="1.162" height="1.465" x="-.081" y="-.232" color-interpolation-filters="sRGB"><feGaussianBlur stdDeviation="1.974"/></filter><filter id="manyfold_svg__K" width="1.267" height="1.356" x="-.134" y="-.178" color-interpolation-filters="sRGB"><feGaussianBlur stdDeviation="1.974"/></filter><filter id="manyfold_svg__ax" width="1.035" height="1.03" x="-.017" y="-.015" color-interpolation-filters="sRGB"><feGaussianBlur stdDeviation=".552"/></filter><radialGradient id="manyfold_svg__b" cx="107.61" cy="127.14" r="136.89" gradientTransform="matrix(1.361 -1.2735 1.3662 1.2784 -212.96 101.64)" gradientUnits="userSpaceOnUse"><stop offset=".032"/><stop offset=".315" stop-color="#c321e0"/><stop offset=".341" stop-color="#553d8f"/><stop offset=".753" stop-color="#311d2c"/></radialGradient><clipPath id="manyfold_svg__a"><circle cx="200" cy="172.84" r="113.89" style="-inkscape-stroke:hairline" vector-effect="non-scaling-stroke"/></clipPath></defs><g clip-path="url(#manyfold_svg__a)" transform="matrix(.21073 0 0 -.21073 -18.146 60.422)"><path fill="url(#manyfold_svg__b)" d="M-92.8-45.697h400v345.68h-400z" transform="translate(92.8 45.697)"/><g fill="none" stroke-linecap="round" stroke-linejoin="round" stroke-width="1.3"><g stroke="#d55ae3"><path d="M106.5 36.621v31.245l-26.542 37.629-12.767 27.214-8.4 21.502-31.916 18.478" filter="url(#manyfold_svg__c)" style="mix-blend-mode:normal" transform="translate(92.8 45.697)"/><path d="M106.17 68.202c21.838 25.534 29.23 36.621 29.23 36.621l25.198 51.404 28.222 16.799" filter="url(#manyfold_svg__d)" style="mix-blend-mode:normal" transform="translate(92.8 45.697)"/><path d="M80.298 105.5 47.709 93.741 23.855 81.982l-.336-.672" filter="url(#manyfold_svg__e)" style="mix-blend-mode:normal" transform="translate(92.8 45.697)"/><path d="m38.637 89.705 25.198-11.087 19.15-10.751 23.518-16.463" filter="url(#manyfold_svg__f)" style="mix-blend-mode:normal" transform="translate(92.8 45.697)"/><path d="m29.566 85.337 8.063 23.518 4.704 13.103.672 14.447 7.055 23.182" filter="url(#manyfold_svg__g)" style="mix-blend-mode:normal" transform="translate(92.8 45.697)"/><path d="m33.597 168.66 7.391-50.06" filter="url(#manyfold_svg__h)" style="mix-blend-mode:normal" transform="translate(92.8 45.697)"/><path d="m43.34 132.71 4.368-15.791 3.695-22.174" filter="url(#manyfold_svg__i)" style="mix-blend-mode:normal" transform="translate(92.8 45.697)"/><path d="m82.313 161.6-15.455-28.558-16.127-37.965" filter="url(#manyfold_svg__j)" style="mix-blend-mode:normal" transform="translate(92.8 45.697)"/><path d="m46.364 93.064 33.261-14.783 26.206-10.415" filter="url(#manyfold_svg__k)" style="mix-blend-mode:normal" transform="translate(92.8 45.697)"/><path d="m34.269 168.66 36.957 9.071 18.479 9.744 18.143 5.375h.336l.336 24.862" filter="url(#manyfold_svg__l)" style="mix-blend-mode:normal" transform="translate(92.8 45.697)"/><path d="m107.85 192.51 25.534-29.902 16.463-28.558" filter="url(#manyfold_svg__m)" style="mix-blend-mode:normal" transform="translate(92.8 45.697)"/><path d="m133.72 162.27 25.198-7.727" filter="url(#manyfold_svg__n)" style="mix-blend-mode:normal" transform="translate(92.8 45.697)"/><path d="m159.25 157.24-20.158 24.526" filter="url(#manyfold_svg__o)" style="mix-blend-mode:normal" transform="translate(92.8 45.697)"/><path d="m108.52 194.53 67.867-28.558" filter="url(#manyfold_svg__p)" style="mix-blend-mode:normal" transform="translate(92.8 45.697)"/></g><path stroke="#e046f1" d="m186.46 170-13.439-51.068 3.024-17.135 10.415-16.463" filter="url(#manyfold_svg__q)" style="mix-blend-mode:normal" transform="translate(92.8 45.697)"/><g stroke="#d55ae3"><path d="m187.14 85.001-11.087 5.712-12.095 4.703 5.376 21.166 5.375 7.392-.336.335-3.024 15.12-3.023 8.063.336 13.775" filter="url(#manyfold_svg__r)" style="mix-blend-mode:normal" transform="translate(92.8 45.697)"/><path d="m147.49 129.35 17.135-34.605-12.095 2.688-8.735 5.04-9.407 1.68" filter="url(#manyfold_svg__s)" style="mix-blend-mode:normal" transform="translate(92.8 45.697)"/><path d="m59.131 153.2 22.174 7.727 25.87 8.736 25.87-6.048" filter="url(#manyfold_svg__t)" style="mix-blend-mode:normal" transform="translate(92.8 45.697)"/><path d="m125.99 165.3 20.494-36.621" filter="url(#manyfold_svg__u)" style="mix-blend-mode:normal" transform="translate(92.8 45.697)"/><path d="m80.633 104.82 16.799 1.68 15.119.336 9.407-.672 13.103-1.68" filter="url(#manyfold_svg__v)" style="mix-blend-mode:normal" transform="translate(92.8 45.697)"/><path d="m127 93.064-8.063.672-7.056-2.016-9.743.336-9.407 1.68h-5.376" filter="url(#manyfold_svg__w)" style="mix-blend-mode:normal" transform="translate(92.8 45.697)"/><path d="m81.977 161.94 26.542 30.238" filter="url(#manyfold_svg__x)" style="mix-blend-mode:normal" transform="translate(92.8 45.697)"/><path d="m104.15 169.33-17.807-1.68-18.814-6.383-15.455-3.024" filter="url(#manyfold_svg__y)" style="mix-blend-mode:normal" transform="translate(92.8 45.697)"/><path d="m53.756 157.24 10.415 11.087 8.735 10.751" filter="url(#manyfold_svg__z)" style="mix-blend-mode:normal" transform="translate(92.8 45.697)"/><path d="m182.43 86.681-33.597-11.759-20.494-10.079-22.174-13.103" filter="url(#manyfold_svg__A)" style="mix-blend-mode:normal" transform="translate(92.8 45.697)"/><path d="m106.5 67.867 64.507 24.862" filter="url(#manyfold_svg__B)" style="mix-blend-mode:normal" transform="translate(92.8 45.697)"/><path d="M127.33 93.4h31.245l10.079.336" filter="url(#manyfold_svg__C)" style="mix-blend-mode:normal" transform="translate(92.8 45.697)"/><path d="m55.436 96.088 16.799-1.008 14.783-1.008" filter="url(#manyfold_svg__D)" style="mix-blend-mode:normal" transform="translate(92.8 45.697)"/><path d="m69.882 130.36 20.494 33.933 2.016 6.384 4.367 8.063" filter="url(#manyfold_svg__E)" style="mix-blend-mode:normal" transform="translate(92.8 45.697)"/><path d="m160.26 155.22 5.376-8.4" filter="url(#manyfold_svg__F)" style="mix-blend-mode:normal" transform="translate(92.8 45.697)"/><path d="m166.64 113.22-6.72 26.878" filter="url(#manyfold_svg__G)" style="mix-blend-mode:normal" transform="translate(92.8 45.697)"/><path d="m164.96 121.96 4.704 17.471" filter="url(#manyfold_svg__H)" style="mix-blend-mode:normal" transform="translate(92.8 45.697)"/><path d="m106.84 53.756 11.087 19.486" filter="url(#manyfold_svg__I)" style="mix-blend-mode:normal" transform="translate(92.8 45.697)"/><path d="m114.9 64.843 24.526 9.071 12.767 9.743 12.095 4.368 17.135-1.008" filter="url(#manyfold_svg__J)" style="mix-blend-mode:normal" transform="translate(92.8 45.697)"/><path d="m96.088 57.451-13.775 7.055-15.119 7.728-5.04 3.696-6.383 10.75v1.008" filter="url(#manyfold_svg__K)" style="mix-blend-mode:normal" transform="translate(92.8 45.697)"/><path d="M106.5 36.621v31.245l-26.542 37.629-12.767 27.214-8.4 21.502-31.916 18.478" filter="url(#manyfold_svg__L)" style="mix-blend-mode:normal" transform="translate(92.8 45.697)"/><path d="M106.17 68.202c21.838 25.534 29.23 36.621 29.23 36.621l25.198 51.404 28.222 16.799" filter="url(#manyfold_svg__M)" style="mix-blend-mode:normal" transform="translate(92.8 45.697)"/><path d="M80.298 105.5 47.709 93.741 23.855 81.982l-.336-.672" filter="url(#manyfold_svg__N)" opacity=".861" style="mix-blend-mode:normal" transform="translate(92.8 45.697)"/><path d="m38.637 89.705 25.198-11.087 19.15-10.751 23.518-16.463" filter="url(#manyfold_svg__O)" opacity=".736" style="mix-blend-mode:normal" transform="matrix(.98448 0 0 .97328 94.488 47.02)"/><path d="m29.566 85.337 8.063 23.518 4.704 13.103.672 14.447 7.055 23.182" filter="url(#manyfold_svg__P)" opacity=".798" style="mix-blend-mode:normal" transform="translate(92.8 45.697)"/><path d="m33.597 168.66 7.391-50.06" filter="url(#manyfold_svg__Q)" opacity=".559" style="mix-blend-mode:normal" transform="translate(92.8 45.697)"/><path d="m43.34 132.71 4.368-15.791 3.695-22.174" filter="url(#manyfold_svg__R)" opacity=".334" style="mix-blend-mode:normal" transform="translate(92.8 45.697)"/><path d="m82.313 161.6-15.455-28.558-16.127-37.965" filter="url(#manyfold_svg__S)" style="mix-blend-mode:normal" transform="translate(92.8 45.697)"/><path d="m46.364 93.064 33.261-14.783 26.206-10.415" filter="url(#manyfold_svg__T)" style="mix-blend-mode:normal" transform="matrix(.97505 0 0 .99275 95.485 46.168)"/><path d="m34.269 168.66 36.957 9.071 18.479 9.744 18.143 5.375h.336l.336 24.862" filter="url(#manyfold_svg__U)" style="mix-blend-mode:normal" transform="translate(92.8 45.697)"/><path d="m107.85 192.51 25.534-29.902 16.463-28.558" filter="url(#manyfold_svg__V)" style="mix-blend-mode:normal" transform="translate(92.8 45.697)"/><path d="m133.72 162.27 25.198-7.727" filter="url(#manyfold_svg__W)" style="mix-blend-mode:normal" transform="translate(92.8 45.697)"/><path d="m159.25 157.24-20.158 24.526" filter="url(#manyfold_svg__X)" opacity=".7" style="mix-blend-mode:normal" transform="translate(92.8 45.697)"/><path d="m108.52 194.53 67.867-28.558" filter="url(#manyfold_svg__Y)" style="mix-blend-mode:normal" transform="translate(92.8 45.697)"/></g><path stroke="#e046f1" d="m186.46 170-13.439-51.068 3.024-17.135 10.415-16.463" filter="url(#manyfold_svg__Z)" style="mix-blend-mode:normal" transform="translate(92.8 45.697)"/><g stroke="#d55ae3"><path d="m187.14 85.001-11.087 5.712-12.095 4.703 5.376 21.166 5.375 7.392-.336.335-3.024 15.12-3.023 8.063.336 13.775" filter="url(#manyfold_svg__aa)" opacity=".61" style="mix-blend-mode:normal" transform="translate(92.8 45.697)"/><path d="m147.49 129.35 17.135-34.605-12.095 2.688-8.735 5.04-9.407 1.68" filter="url(#manyfold_svg__ab)" opacity=".849" style="mix-blend-mode:normal" transform="translate(92.8 45.697)"/><path d="m59.131 153.2 22.174 7.727 25.87 8.736 25.87-6.048" filter="url(#manyfold_svg__ac)" style="mix-blend-mode:normal" transform="translate(92.8 45.697)"/><path d="m125.99 165.3 20.494-36.621" filter="url(#manyfold_svg__ad)" opacity=".329" style="mix-blend-mode:normal" transform="translate(92.8 45.697)"/><path d="m80.633 104.82 16.799 1.68 15.119.336 9.407-.672 13.103-1.68" filter="url(#manyfold_svg__ae)" opacity=".403" style="mix-blend-mode:normal" transform="translate(92.8 45.697)"/><path d="m127 93.064-8.063.672-7.056-2.016-9.743.336-9.407 1.68h-5.376" filter="url(#manyfold_svg__af)" opacity=".742" style="mix-blend-mode:normal" transform="translate(92.8 45.697)"/><path d="m81.977 161.94 26.542 30.238" filter="url(#manyfold_svg__ag)" opacity=".825" style="mix-blend-mode:normal" transform="translate(92.8 45.697)"/><path d="m104.15 169.33-17.807-1.68-18.814-6.383-15.455-3.024" filter="url(#manyfold_svg__ah)" opacity=".359" style="mix-blend-mode:normal" transform="translate(92.8 45.697)"/><path d="m53.756 157.24 10.415 11.087 8.735 10.751" filter="url(#manyfold_svg__ai)" opacity=".483" style="mix-blend-mode:normal" transform="translate(92.8 45.697)"/><path d="m182.43 86.681-33.597-11.759-20.494-10.079-22.174-13.103" filter="url(#manyfold_svg__aj)" style="mix-blend-mode:normal" transform="translate(92.8 45.697)"/><path d="m106.5 67.867 64.507 24.862" filter="url(#manyfold_svg__ak)" style="mix-blend-mode:normal" transform="translate(92.8 45.697)"/><path d="M127.33 93.4h31.245l10.079.336" filter="url(#manyfold_svg__al)" opacity=".561" style="mix-blend-mode:normal" transform="translate(92.8 45.697)"/><path d="m55.436 96.088 16.799-1.008 14.783-1.008" filter="url(#manyfold_svg__am)" opacity=".49" style="mix-blend-mode:normal" transform="translate(92.8 45.697)"/><path d="m69.882 130.36 20.494 33.933 2.016 6.384 4.367 8.063" filter="url(#manyfold_svg__an)" opacity=".225" style="mix-blend-mode:normal" transform="translate(92.8 45.697)"/><path d="m160.26 155.22 5.376-8.4" filter="url(#manyfold_svg__ao)" opacity=".231" style="mix-blend-mode:normal" transform="translate(92.8 45.697)"/><path d="m166.64 113.22-6.72 26.878" filter="url(#manyfold_svg__ap)" opacity=".29" style="mix-blend-mode:normal" transform="translate(92.8 45.697)"/><path d="m164.96 121.96 4.704 17.471" filter="url(#manyfold_svg__aq)" opacity=".29" style="mix-blend-mode:normal" transform="translate(92.8 45.697)"/><path d="m106.84 53.756 11.087 19.486" filter="url(#manyfold_svg__ar)" opacity=".408" style="mix-blend-mode:normal" transform="translate(92.8 45.697)"/><path d="m114.9 64.843 24.526 9.071 12.767 9.743 12.095 4.368 17.135-1.008" filter="url(#manyfold_svg__as)" opacity=".359" style="mix-blend-mode:normal" transform="translate(92.8 45.697)"/><path d="m96.088 57.451-13.775 7.055-15.119 7.728-5.04 3.696-6.383 10.75v1.008" filter="url(#manyfold_svg__at)" opacity=".368" style="mix-blend-mode:normal" transform="translate(92.8 45.697)"/></g></g><g fill="none" stroke="#2ef4ff" stroke-linecap="round" stroke-linejoin="round"><path stroke-width="6" d="m221.41 100.79-68.603 39.534-68.538-39.645.064-79.178 68.603-39.534 68.538 39.645z" filter="url(#manyfold_svg__au)" style="mix-blend-mode:normal" transform="matrix(1.1888 0 0 1.1568 17.574 102.126)"/><path stroke-width="8.527" d="m221.41 100.79-68.603 39.534-68.538-39.645.064-79.178 68.603-39.534 68.538 39.645z" filter="url(#manyfold_svg__av)" opacity=".341" style="mix-blend-mode:normal" transform="matrix(1.1888 0 0 1.1568 17.574 102.126)"/><path stroke-width="4.264" d="m221.41 100.79-68.603 39.534-68.538-39.645.064-79.178 68.603-39.534 68.538 39.645z" filter="url(#manyfold_svg__aw)" style="mix-blend-mode:normal" transform="matrix(1.1888 0 0 1.1568 17.574 102.126)"/></g><path fill="none" stroke="#6df4fc" stroke-linecap="round" stroke-linejoin="round" stroke-width="2.132" d="m221.41 100.79-68.603 39.534-68.538-39.645.064-79.178 68.603-39.534 68.538 39.645z" filter="url(#manyfold_svg__ax)" opacity=".871" style="mix-blend-mode:normal" transform="matrix(1.1888 0 0 1.1568 17.575 102.126)"/></g></svg>
