<svg xmlns="http://www.w3.org/2000/svg" viewBox="0 0 48 48"><path d="M47.776 8.538a.684.684 0 0 0-.465-.156c-.463 0-1.062.314-1.385.483l-.127.065a4.396 4.396 0 0 1-1.73.436 24 24 0 0 0-1.836.127c-4.091.421-5.916 3.556-7.674 6.589-.957 1.65-1.945 3.363-3.3 4.672a8.903 8.903 0 0 1-.892.758c-1.403 1.042-3.164 1.787-4.533 2.314-1.32.504-2.76.957-4.15 1.396-1.275.4-2.478.78-3.584 1.191-.5.185-.923.327-1.298.452-1.008.327-1.735.577-2.797 1.309-.414.283-.83.59-1.111.818a11.72 11.72 0 0 0-2.218 2.335 13.787 13.787 0 0 1-1.862 2.236c-.224.22-.622.327-1.217.327-.698 0-1.544-.144-2.439-.296-.923-.164-1.877-.32-2.695-.32-.665 0-1.173.109-1.553.328 0 0-.64.373-.91.856l.265.12a5.435 5.435 0 0 1 1.133.818 5.682 5.682 0 0 0 1.178.838 1.011 1.011 0 0 1 .363.23c-.111.164-.275.375-.447.601-.944 1.236-1.495 2.016-1.18 2.442a.993.993 0 0 0 .491.11c2.06 0 3.165-.534 4.565-1.212.405-.196.818-.397 1.309-.605.818-.355 1.698-.922 2.633-1.52 1.222-.798 2.5-1.616 3.74-2.01a10.195 10.195 0 0 1 3.148-.442c1.31 0 2.687.175 4.016.345.99.128 2.016.259 3.022.32.392.022.753.034 1.105.034a12.799 12.799 0 0 0 1.41-.074l.112-.04c.705-.433 1.036-1.364 1.357-2.264.206-.58.38-1.1.654-1.43a.417.417 0 0 1 .053-.045.065.065 0 0 1 .08.014v.026c-.164 3.52-1.581 5.755-3.015 7.742l-.957 1.026s1.34 0 2.103-.294c2.782-.832 4.882-2.665 6.41-5.587a23.844 23.844 0 0 0 1.01-2.306c.026-.066.267-.187.244.152-.009.1-.015.211-.023.327 0 .069 0 .14-.013.21-.04.49-.156 1.528-.156 1.528l.86-.46c2.071-1.309 3.668-3.95 4.88-8.06.503-1.711.873-3.412 1.199-4.909.39-1.8.725-3.343 1.11-3.942.603-.94 1.525-1.575 2.417-2.191.12-.084.243-.164.363-.252 1.12-.788 2.235-1.696 2.48-3.39v-.037c.18-1.264.029-1.586-.143-1.733z" style="stroke-width:1;fill:#003545"/></svg>