<svg xmlns="http://www.w3.org/2000/svg" viewBox="0 0 48 48"><path fill-rule="evenodd" d="M3.462 11.539c-.638 0-1.154.516-1.154 1.153v22.616c0 .637.516 1.154 1.154 1.154h41.077c.637 0 1.153-.517 1.153-1.154V12.692c0-.637-.516-1.153-1.153-1.153zM0 12.692a3.462 3.462 0 0 1 3.462-3.461h41.077A3.462 3.462 0 0 1 48 12.692v22.616a3.462 3.462 0 0 1-3.461 3.461H3.462A3.462 3.462 0 0 1 0 35.308z" clip-rule="evenodd"/><path d="M6.923 31.846V16.154h4.616l4.615 5.77 4.615-5.77h4.616v15.692h-4.616v-9l-4.615 5.77-4.615-5.77v9zm28.846 0-6.923-7.615h4.616v-8.077h4.615v8.077h4.615z"/></svg>