<svg xmlns="http://www.w3.org/2000/svg" viewBox="0 0 48 48"><path fill="url(#a)" d="M73.84 17.49C72.696 9.002 65.3 2.312 56.53 1.016 55.05.797 49.444 0 36.458 0h-.097c-12.99 0-15.776.797-17.256 1.016-8.525 1.26-16.311 7.271-18.2 15.86-.909 4.23-1.006 8.919-.837 13.22.24 6.17.288 12.327.848 18.47a86.879 86.879 0 0 0 2.022 12.115c1.795 7.361 9.064 13.487 16.185 15.986a43.41 43.41 0 0 0 23.68 1.25 34.565 34.565 0 0 0 2.562-.701c1.91-.607 4.147-1.285 5.792-2.477a.187.187 0 0 0 .075-.144v-5.953a.175.175 0 0 0-.215-.17 65.637 65.637 0 0 1-15.367 1.796c-8.906 0-11.301-4.226-11.987-5.985a18.554 18.554 0 0 1-1.042-4.718.171.171 0 0 1 .135-.178.173.173 0 0 1 .08.002 64.383 64.383 0 0 0 15.116 1.795c1.225 0 2.446 0 3.67-.032 5.121-.144 10.52-.406 15.558-1.39.125-.025.251-.047.359-.079 7.947-1.526 15.51-6.316 16.279-18.445.028-.477.1-5.002.1-5.497.004-1.684.543-11.946-.079-18.251z" style="fill:url(#a)" transform="translate(1.477) scale(.6076)"/><path fill="#fff" d="M38.691 16.421v12.813h-5.077V16.798c0-2.617-1.091-3.953-3.31-3.953-2.44 0-3.662 1.58-3.662 4.7v6.806h-5.047v-6.806c0-3.12-1.224-4.7-3.663-4.7-2.207 0-3.308 1.336-3.308 3.953v12.436H9.548V16.42c0-2.618.669-4.698 2.005-6.24 1.38-1.537 3.188-2.327 5.434-2.327 2.598 0 4.562.999 5.872 2.995l1.263 2.12 1.265-2.12c1.31-1.996 3.273-2.995 5.868-2.995 2.243 0 4.052.79 5.435 2.328 1.336 1.54 2.003 3.62 2.001 6.239z"/><defs><linearGradient id="a" x1="37.069" x2="37.069" y1="0" y2="79" gradientUnits="userSpaceOnUse"><stop stop-color="#6364FF"/><stop offset="1" stop-color="#563ACC"/></linearGradient></defs></svg>