<svg xmlns="http://www.w3.org/2000/svg" viewBox="0 0 48 48"><path fill="#6364ff" d="M46.34 10.627C45.648 5.47 41.153 1.405 35.824.617 34.924.484 31.518 0 23.63 0h-.06c-7.892 0-9.585.484-10.484.617-5.18.766-9.91 4.418-11.058 9.637-.552 2.57-.611 5.42-.509 8.033.146 3.748.175 7.489.516 11.222a52.795 52.795 0 0 0 1.228 7.36c1.09 4.473 5.507 8.195 9.835 9.713a26.377 26.377 0 0 0 14.387.76 21.001 21.001 0 0 0 1.556-.426c1.16-.369 2.52-.781 3.52-1.505a.114.114 0 0 0 .046-.088v-3.617a.106.106 0 0 0-.131-.102 39.882 39.882 0 0 1-9.337 1.091c-5.412 0-6.867-2.568-7.284-3.637a11.273 11.273 0 0 1-.633-2.866.104.104 0 0 1 .082-.108.105.105 0 0 1 .049 0 39.12 39.12 0 0 0 9.184 1.091c.745 0 1.486 0 2.23-.019 3.112-.088 6.392-.247 9.452-.845.077-.015.154-.028.22-.047 4.828-.928 9.423-3.838 9.89-11.207.017-.29.06-3.04.06-3.34.003-1.024.33-7.259-.047-11.089z"/><path fill="#fff" d="M38.69 16.42v12.814h-5.077V16.799c0-2.618-1.09-3.953-3.31-3.953-2.44 0-3.661 1.579-3.661 4.699v6.807h-5.047v-6.807c0-3.12-1.224-4.7-3.664-4.7-2.206 0-3.308 1.336-3.308 3.954v12.435H9.548V16.42c0-2.618.668-4.698 2.005-6.24 1.38-1.538 3.188-2.327 5.433-2.327 2.599 0 4.563.999 5.872 2.995l1.263 2.12 1.266-2.12c1.31-1.996 3.273-2.995 5.867-2.995 2.243 0 4.052.79 5.436 2.327 1.335 1.54 2.002 3.62 2 6.24z"/></svg>