<svg xmlns="http://www.w3.org/2000/svg" viewBox="0 0 48 48"><path fill="url(#mastodon_svg__a)" d="M73.839 17.49c-1.142-8.488-8.54-15.177-17.31-16.474C55.049.797 49.443 0 36.458 0h-.097c-12.99 0-15.776.797-17.256 1.016-8.526 1.26-16.311 7.271-18.2 15.86-.909 4.23-1.006 8.92-.837 13.221.24 6.169.288 12.326.848 18.47a86.892 86.892 0 0 0 2.022 12.115c1.795 7.36 9.064 13.486 16.186 15.985a43.412 43.412 0 0 0 23.68 1.25 34.565 34.565 0 0 0 2.561-.7c1.91-.607 4.148-1.286 5.793-2.478a.187.187 0 0 0 .075-.144v-5.953a.175.175 0 0 0-.215-.169A65.64 65.64 0 0 1 35.65 70.27c-8.906 0-11.302-4.227-11.988-5.986a18.554 18.554 0 0 1-1.042-4.718.171.171 0 0 1 .136-.177.173.173 0 0 1 .08.001 64.386 64.386 0 0 0 15.116 1.795c1.225 0 2.446 0 3.67-.032 5.121-.144 10.52-.406 15.557-1.39.126-.025.252-.046.36-.078 7.947-1.527 15.51-6.316 16.278-18.445.029-.478.1-5.002.1-5.498.004-1.684.543-11.946-.078-18.25z" transform="translate(1.477) scale(.60759)"/><path fill="#fff" d="M38.69 16.42v12.814h-5.077V16.799c0-2.618-1.09-3.953-3.31-3.953-2.44 0-3.661 1.579-3.661 4.699v6.807h-5.047v-6.807c0-3.12-1.224-4.7-3.664-4.7-2.206 0-3.308 1.336-3.308 3.954v12.435H9.548V16.42c0-2.618.668-4.698 2.005-6.24 1.38-1.538 3.188-2.327 5.433-2.327 2.599 0 4.563.999 5.872 2.995l1.263 2.12 1.266-2.12c1.31-1.996 3.273-2.995 5.867-2.995 2.243 0 4.052.79 5.436 2.327 1.335 1.54 2.002 3.62 2 6.24z"/><defs><linearGradient id="mastodon_svg__a" x1="37.069" x2="37.069" y2="79" gradientUnits="userSpaceOnUse"><stop offset="0" stop-color="#6364FF"/><stop offset="1" stop-color="#563ACC"/></linearGradient></defs></svg>