<svg xmlns="http://www.w3.org/2000/svg" width="48" height="48" fill="none"><path fill="url(#a)" d="M44.864 10.627c-.693-5.158-5.188-9.222-10.517-10.01C33.448.484 30.042 0 22.152 0h-.06c-7.891 0-9.585.484-10.484.617-5.18.766-9.91 4.418-11.058 9.637-.552 2.57-.611 5.419-.509 8.032.147 3.749.175 7.49.515 11.223.236 2.48.646 4.94 1.229 7.36 1.09 4.473 5.507 8.195 9.834 9.713a26.376 26.376 0 0 0 14.388.76 20.946 20.946 0 0 0 1.556-.426c1.161-.369 2.52-.781 3.52-1.505a.113.113 0 0 0 .046-.088v-3.617a.108.108 0 0 0-.041-.082.107.107 0 0 0-.09-.02 39.877 39.877 0 0 1-9.337 1.09c-5.412 0-6.867-2.567-7.284-3.636a11.267 11.267 0 0 1-.632-2.867.104.104 0 0 1 .13-.107 39.12 39.12 0 0 0 9.185 1.091c.744 0 1.486 0 2.23-.02 3.111-.087 6.39-.246 9.452-.844.076-.015.153-.028.218-.048 4.83-.927 9.424-3.837 9.891-11.207.018-.29.061-3.039.061-3.34.003-1.023.33-7.258-.048-11.09z" style="fill:url(#a);stroke-width:.738462" transform="translate(1.477)"/><path fill="#fff" d="M37.214 16.421v12.813h-5.077V16.799c0-2.618-1.091-3.954-3.31-3.954-2.44 0-3.662 1.58-3.662 4.7v6.806h-5.047v-6.806c0-3.12-1.224-4.7-3.663-4.7-2.206 0-3.308 1.336-3.308 3.954v12.435H8.07V16.42c0-2.618.669-4.698 2.006-6.24 1.379-1.537 3.187-2.327 5.433-2.327 2.599 0 4.562 1 5.872 2.995l1.263 2.12 1.266-2.12c1.309-1.996 3.273-2.995 5.867-2.995 2.243 0 4.052.79 5.435 2.328 1.336 1.54 2.003 3.62 2.001 6.24z" style="stroke-width:.738462" transform="translate(1.477)"/><defs><linearGradient id="a" x1="30.5" x2="30.5" y1="0" y2="65" gradientTransform="scale(.73846)" gradientUnits="userSpaceOnUse"><stop stop-color="#6364FF"/><stop offset="1" stop-color="#563ACC"/></linearGradient></defs></svg>