<svg xmlns="http://www.w3.org/2000/svg" width="48" height="48" fill="none"><path d="M23.568 0c-7.89 0-9.583.484-10.482.617-5.18.766-9.91 4.418-11.059 9.637-.552 2.57-.612 5.418-.51 8.031.147 3.75.176 7.492.516 11.225.236 2.48.646 4.94 1.229 7.359 1.09 4.473 5.507 8.195 9.834 9.713a26.376 26.376 0 0 0 14.388.76 20.946 20.946 0 0 0 1.555-.426c1.161-.37 2.521-.782 3.521-1.506a.113.113 0 0 0 .045-.088v-3.617a.108.108 0 0 0-.04-.082.107.107 0 0 0-.09-.02 39.877 39.877 0 0 1-9.336 1.09c-5.412 0-6.869-2.565-7.286-3.634a11.267 11.267 0 0 1-.63-2.868.104.104 0 0 1 .128-.107 39.12 39.12 0 0 0 9.186 1.092c.744 0 1.486-.002 2.23-.022 3.111-.087 6.39-.246 9.452-.844.076-.015.153-.026.218-.046 4.83-.927 9.424-3.837 9.891-11.207.018-.29.06-3.04.06-3.34.004-1.023.332-7.258-.046-11.09-.693-5.158-5.189-9.222-10.518-10.01C34.925.484 31.52 0 23.63 0Zm-6.582 7.853c2.6 0 4.561 1 5.871 2.995l1.264 2.12 1.266-2.12c1.309-1.996 3.273-2.995 5.867-2.995 2.243 0 4.052.79 5.435 2.329 1.336 1.54 2.002 3.62 2 6.24h.002v12.812h-5.078V16.8c0-2.618-1.09-3.953-3.308-3.953-2.44 0-3.663 1.579-3.663 4.699v6.806h-5.046v-6.806c0-3.12-1.225-4.7-3.664-4.7-2.206 0-3.31 1.336-3.31 3.954v12.435H9.548V16.42c0-2.618.669-4.698 2.006-6.24 1.379-1.537 3.187-2.327 5.433-2.327z" style="fill:url(#a);stroke-width:.738462"/><defs><linearGradient id="a" x1="30.5" x2="30.5" y1="0" y2="65" gradientTransform="translate(1.477) scale(.73846)" gradientUnits="userSpaceOnUse"><stop stop-color="#6364FF"/><stop offset="1" stop-color="#563ACC"/></linearGradient></defs></svg>