<svg xmlns="http://www.w3.org/2000/svg" viewBox="0 0 48 48"><path fill="url(#a)" d="M23.57 0c-7.893 0-9.585.485-10.484.618-5.18.766-9.91 4.418-11.059 9.636-.552 2.57-.612 5.42-.51 8.033.147 3.749.176 7.489.517 11.221a52.788 52.788 0 0 0 1.228 7.361c1.09 4.472 5.507 8.195 9.834 9.713a26.376 26.376 0 0 0 14.388.76 21.002 21.002 0 0 0 1.557-.426c1.16-.37 2.52-.78 3.52-1.504a.114.114 0 0 0 .044-.088v-3.618a.106.106 0 0 0-.13-.103 39.88 39.88 0 0 1-9.336 1.092c-5.411 0-6.866-2.568-7.283-3.637a11.273 11.273 0 0 1-.635-2.868.104.104 0 0 1 .082-.107.105.105 0 0 1 .048 0 39.119 39.119 0 0 0 9.186 1.092c.744 0 1.485 0 2.229-.02 3.111-.087 6.392-.247 9.453-.845.076-.015.153-.027.219-.047 4.828-.927 9.423-3.837 9.89-11.207.017-.29.06-3.04.06-3.34.003-1.023.332-7.259-.046-11.09-.695-5.157-5.19-9.222-10.518-10.009C34.924.484 31.519 0 23.629 0h-.059zm-6.584 7.854c2.598 0 4.563.998 5.873 2.994l1.262 2.12 1.266-2.12c1.31-1.996 3.273-2.994 5.869-2.994 2.242 0 4.05.79 5.433 2.328 1.336 1.54 2.004 3.619 2.002 6.238v12.815h-5.079V16.799c0-2.617-1.09-3.953-3.308-3.953-2.44 0-3.662 1.579-3.662 4.699v6.807h-5.047v-6.807c0-3.12-1.225-4.7-3.664-4.7-2.207 0-3.309 1.337-3.309 3.954v12.436H9.548V16.42c0-2.618.668-4.698 2.004-6.24 1.38-1.537 3.188-2.326 5.433-2.326z" style="fill:url(#a);stroke-width:.607598"/><defs><linearGradient id="a" x1="37.069" x2="37.069" y2="79" gradientTransform="matrix(.6076 0 0 .6076 1.476 0)" gradientUnits="userSpaceOnUse"><stop offset="0" stop-color="#6364ff"/><stop offset="1" stop-color="#563ACC"/></linearGradient></defs></svg>