<svg xmlns="http://www.w3.org/2000/svg" viewBox="0 0 48 48"><path fill="#fff" d="M1.946 33.787v.469H0V13.744h1.946v.47H.54v19.573zm4.013-13.368v.99h.028a2.86 2.86 0 0 1 .954-.877 2.584 2.584 0 0 1 1.278-.311c.462 0 .883.09 1.265.269.381.179.671.495.869.948a3.1 3.1 0 0 1 .883-.85c.372-.245.812-.367 1.321-.367.386 0 .744.047 1.074.141.33.095.612.245.848.453.235.208.419.479.55.813.132.336.199.739.199 1.21v4.896H13.22v-4.146c0-.245-.01-.476-.028-.693a1.478 1.478 0 0 0-.156-.566.945.945 0 0 0-.374-.382c-.165-.094-.389-.142-.671-.142-.283 0-.511.055-.685.163a1.18 1.18 0 0 0-.41.425 1.702 1.702 0 0 0-.198.594c-.033.222-.05.446-.05.672v4.075H8.644v-4.103c0-.217-.005-.432-.014-.644a1.812 1.812 0 0 0-.12-.587.905.905 0 0 0-.353-.432c-.165-.108-.408-.163-.728-.163-.094 0-.219.022-.374.064a1.244 1.244 0 0 0-.452.24 1.428 1.428 0 0 0-.375.51c-.103.222-.155.512-.155.87v4.245H4.066v-7.315zm10.554 1.075c.207-.311.471-.561.792-.75.32-.188.68-.323 1.08-.403.4-.08.803-.12 1.208-.12.368 0 .74.026 1.116.077.377.052.721.154 1.032.305.31.15.565.36.763.63.198.268.297.624.297 1.068v3.806c0 .33.018.646.056.948.038.302.104.528.198.679H21.02a2.846 2.846 0 0 1-.14-.708c-.321.33-.698.562-1.131.694a4.543 4.543 0 0 1-1.328.198c-.349 0-.674-.043-.975-.128a2.227 2.227 0 0 1-.792-.396c-.226-.179-.402-.405-.53-.679s-.19-.6-.19-.976c0-.415.073-.757.219-1.026a1.83 1.83 0 0 1 .565-.644c.23-.16.495-.28.791-.36.297-.08.596-.144.897-.192.302-.047.599-.085.89-.113a5.36 5.36 0 0 0 .778-.127c.226-.057.405-.14.537-.248.131-.108.193-.266.183-.474 0-.217-.035-.389-.106-.516a.78.78 0 0 0-.282-.297 1.114 1.114 0 0 0-.41-.142 3.394 3.394 0 0 0-.501-.035c-.396 0-.707.085-.933.254-.226.17-.358.453-.396.85H16.16c.028-.472.146-.864.353-1.175zm3.963 2.837a3.268 3.268 0 0 1-.41.106 5.842 5.842 0 0 1-.459.07c-.16.02-.32.043-.48.072-.15.028-.299.066-.445.113a1.32 1.32 0 0 0-.381.19.909.909 0 0 0-.262.305.98.98 0 0 0-.099.467c0 .18.033.33.1.453a.757.757 0 0 0 .268.29c.113.07.244.12.395.148.15.029.306.043.467.043.395 0 .701-.066.918-.198.217-.132.376-.29.48-.474.104-.184.167-.37.191-.56.023-.188.035-.339.035-.452v-.75a.898.898 0 0 1-.318.177zm7.609-3.912v1.344h-1.47v3.622c0 .34.057.566.17.68.113.112.339.169.678.169a2.904 2.904 0 0 0 .622-.057v1.557c-.17.028-.358.047-.565.057-.208.009-.41.014-.608.014a5.84 5.84 0 0 1-.883-.064 2.074 2.074 0 0 1-.735-.248 1.308 1.308 0 0 1-.501-.523c-.123-.226-.184-.524-.184-.892v-4.315h-1.215v-1.344h1.215v-2.193h2.006v2.193zm2.867 0v1.358h.028a2.506 2.506 0 0 1 .932-1.125c.208-.136.43-.243.665-.318.235-.076.48-.114.735-.114.132 0 .277.024.438.071v1.868a3.759 3.759 0 0 0-.34-.05 3.569 3.569 0 0 0-.38-.02c-.368 0-.679.06-.933.183-.255.123-.46.29-.615.502-.155.213-.266.46-.332.743s-.099.59-.099.92v3.297h-2.006v-7.316zm3.646-1.133v-1.655h2.006v1.655zm2.006 1.132v7.316h-2.006v-7.316zm.82 7.316 2.627-3.849-2.402-3.466h2.29l1.285 1.91 1.271-1.91h2.219l-2.402 3.424 2.699 3.891h-2.29l-1.525-2.306-1.526 2.306zm8.63-13.52v-.47H48v20.512h-1.946v-.47h1.406V14.215z"/></svg>