<svg xmlns="http://www.w3.org/2000/svg" viewBox="0 0 48 48"><path fill="#2d2d2d" d="M.54 14.213v19.574h1.407v.47H0V13.743h1.946v.47zm5.419 6.206v.99h.028a2.861 2.861 0 0 1 .954-.877 2.584 2.584 0 0 1 1.278-.311c.462 0 .883.09 1.265.269.382.179.671.494.869.947.217-.32.51-.603.883-.848.372-.246.812-.368 1.321-.368.386 0 .744.047 1.074.14.33.096.612.246.848.454.235.207.419.479.55.813.132.335.198.738.198 1.21v4.896h-2.005v-4.146c0-.245-.01-.476-.028-.694a1.478 1.478 0 0 0-.156-.565.945.945 0 0 0-.374-.383c-.165-.093-.389-.14-.672-.14-.282 0-.51.054-.685.162a1.18 1.18 0 0 0-.41.424 1.702 1.702 0 0 0-.197.595 4.537 4.537 0 0 0-.05.672v4.075H8.644v-4.103c0-.217-.005-.432-.014-.644a1.812 1.812 0 0 0-.12-.588.905.905 0 0 0-.353-.431c-.166-.108-.408-.163-.728-.163a1.494 1.494 0 0 0-.375.065 1.244 1.244 0 0 0-.452.24 1.41 1.41 0 0 0-.374.509c-.104.222-.156.511-.156.87v4.245H4.066V20.42zm10.554 1.075a2.406 2.406 0 0 1 .791-.75 3.444 3.444 0 0 1 1.08-.404 6.144 6.144 0 0 1 1.21-.12c.367 0 .739.026 1.115.078.377.052.721.154 1.032.305.31.15.565.36.763.629.198.27.297.625.297 1.069v3.805c0 .331.019.647.056.948.037.302.103.529.198.68H21.02a2.844 2.844 0 0 1-.141-.708 2.61 2.61 0 0 1-1.13.693 4.543 4.543 0 0 1-1.329.2c-.348 0-.673-.044-.974-.129a2.227 2.227 0 0 1-.792-.396 1.84 1.84 0 0 1-.53-.679c-.127-.273-.19-.599-.19-.976 0-.415.072-.757.219-1.026.145-.269.333-.483.565-.644.23-.16.494-.28.791-.36a8.68 8.68 0 0 1 .897-.192c.302-.047.598-.084.89-.113.292-.028.551-.07.777-.127.227-.057.405-.14.537-.248s.193-.266.184-.475c0-.216-.035-.388-.106-.515a.78.78 0 0 0-.283-.298 1.114 1.114 0 0 0-.41-.14 3.394 3.394 0 0 0-.5-.036c-.397 0-.707.085-.933.254-.226.17-.358.453-.396.849H16.16c.028-.471.145-.863.352-1.174zm3.963 2.837a3.268 3.268 0 0 1-.41.106 6.208 6.208 0 0 1-.459.07c-.16.02-.32.043-.48.071a3.602 3.602 0 0 0-.445.114 1.32 1.32 0 0 0-.381.19.909.909 0 0 0-.262.305.98.98 0 0 0-.099.467c0 .18.033.33.1.452a.73.73 0 0 0 .268.29c.113.071.244.12.396.15.15.027.306.041.465.041.396 0 .702-.065.919-.198.216-.131.376-.29.48-.474.103-.183.167-.37.191-.558.023-.189.035-.34.035-.453v-.75a.898.898 0 0 1-.318.177zm7.609-3.912v1.344h-1.47v3.622c0 .34.057.566.17.68.113.113.34.169.678.169a2.954 2.954 0 0 0 .622-.056v1.556a4.804 4.804 0 0 1-.566.057 13.898 13.898 0 0 1-.607.014c-.31 0-.606-.022-.883-.064a2.074 2.074 0 0 1-.735-.248 1.308 1.308 0 0 1-.501-.523c-.123-.227-.184-.524-.184-.892v-4.315h-1.215v-1.344h1.215v-2.194h2.007v2.194h1.468zm2.868 0v1.358h.028a2.506 2.506 0 0 1 .932-1.125 2.702 2.702 0 0 1 .665-.319 2.395 2.395 0 0 1 .734-.112c.132 0 .278.023.438.07v1.868a3.76 3.76 0 0 0-.338-.05 3.57 3.57 0 0 0-.382-.02c-.368 0-.679.06-.933.183a1.616 1.616 0 0 0-.614.502 2.016 2.016 0 0 0-.332.743 4.053 4.053 0 0 0-.1.92v3.297h-2.005v-7.315zm3.645-1.132V17.63h2.006v1.656H34.6zm2.006 1.132v7.315H34.6v-7.315h2.006zm1.046 0h2.289l1.286 1.91 1.27-1.91h2.22l-2.403 3.424 2.7 3.891h-2.29l-1.526-2.306-1.526 2.306h-2.246l2.628-3.849zm9.81 13.368V14.213h-1.406v-.469H48v20.512h-1.946v-.47z"/></svg>