<svg xmlns="http://www.w3.org/2000/svg" viewBox="0 0 48 48"><g style="stroke-width:9.57557"><path d="m601.285 518.651 1.814-36.585c29.659-32.765 41.366-79.168 26.602-122.779-22.038-65.102-94.709-99.324-162.315-76.438-67.606 22.886-104.546 94.215-82.507 159.316 14.813 43.757 52.5 73.564 96.148 81.456l23.582 27.863c-73.575 1.992-142.988-43.677-167.824-117.041-30.515-90.141 17.822-187.952 107.963-218.467 90.141-30.515 187.952 17.822 218.467 107.963 24.796 73.247-2.473 151.558-61.93 194.712" style="fill:#1c1c1e;fill-opacity:1;fill-rule:evenodd;stroke:none;stroke-width:.957558" transform="matrix(.13924 0 0 -.13924 -45.622 76.8)"/><path d="m559.032 410.703-1.249 51.143-1.002 29.429-.678 25.495s.142 12.294-.287 15.183a4.745 4.745 0 0 1-.509 1.535c-.028.06-.056.121-.087.18a3.513 3.513 0 0 1-.098.158 3.981 3.981 0 0 1-2.171 1.795 3.988 3.988 0 0 1-2.878-.13l-.054-.021a3.804 3.804 0 0 1-.305-.156 4.724 4.724 0 0 1-1.259-.869c-2.096-2.034-9.451-11.886-9.451-11.886l-16.025-19.841-18.672-22.77-32.058-39.867s-14.712-18.361-11.461-40.96c3.251-22.6 20.053-33.61 33.087-38.023 13.035-4.412 33.069-5.873 49.38 10.105 16.31 15.978 15.777 39.5 15.777 39.5" style="fill:#1c1c1e;fill-opacity:1;fill-rule:evenodd;stroke:none;stroke-width:.957558" transform="matrix(.13924 0 0 -.13924 -45.622 76.8)"/></g></svg>