<svg xmlns="http://www.w3.org/2000/svg" viewBox="0 0 48 48"><path fill="#425968" d="M3.707 26.35v-3.095L2.369 25.28H2.35l-1.337-2.006v3.076H0v-4.739h1.127l1.262 2.007L3.63 21.61h1.127v4.74zm8.063.039-.439-1.07H9.306l-.44 1.07h-1.07l2.026-4.778h.974l2.026 4.778Zm-1.452-3.535-.63 1.547h1.261zm8.446 3.496-1.07-1.624-1.07 1.624H15.42l1.663-2.407-1.605-2.332H16.7l1.012 1.548 1.013-1.548h1.204l-1.605 2.313 1.662 2.426z"/><path fill="#00aeef" d="M26.809 26.35v-3.095L25.47 25.28h-.019l-1.337-2.006v3.076h-1.032v-4.739h1.127l1.261 2.007 1.261-2.007h1.128v4.74zm4.548 0v-4.739h1.05v4.74zm7.91 0-2.293-3.019v3.02h-1.032v-4.74h.975l2.217 2.924v-2.924h1.031v4.74zm6.21 0h-1.853v-4.739h1.853c1.51 0 2.523 1.032 2.523 2.35v.02c.019 1.318-1.013 2.37-2.523 2.37zm1.453-2.37c0-.84-.574-1.432-1.433-1.432h-.822v2.866h.822c.84-.02 1.433-.592 1.433-1.433z"/></svg>