<?xml version="1.0" encoding="UTF-8" standalone="no"?>
<!-- Uploaded to: SVG Repo, www.svgrepo.com, Generator: SVG Repo Mixer Tools -->

<svg
   width="680"
   height="780"
   viewBox="0 0 20.4 23.4"
   fill="none"
   version="1.1"
   id="svg6"
   sodipodi:docname="logo-pills.svg"
   inkscape:version="1.3.2 (091e20ef0f, 2023-11-25)"
   xmlns:inkscape="http://www.inkscape.org/namespaces/inkscape"
   xmlns:sodipodi="http://sodipodi.sourceforge.net/DTD/sodipodi-0.dtd"
   xmlns="http://www.w3.org/2000/svg"
   xmlns:svg="http://www.w3.org/2000/svg">
  <defs
     id="defs6" />
  <sodipodi:namedview
     id="namedview6"
     pagecolor="#60ff7d"
     bordercolor="#000000"
     borderopacity="0.25"
     inkscape:showpageshadow="2"
     inkscape:pageopacity="0.0"
     inkscape:pagecheckerboard="0"
     inkscape:deskcolor="#d1d1d1"
     inkscape:zoom="0.695625"
     inkscape:cx="534.05211"
     inkscape:cy="522.55166"
     inkscape:window-width="2560"
     inkscape:window-height="1311"
     inkscape:window-x="1920"
     inkscape:window-y="24"
     inkscape:window-maximized="1"
     inkscape:current-layer="svg6" />
  <path
     d="m 10.224484,13.506909 c 0,0.372505 0.09898,0.725741 0.296894,1.05971 0.236238,-0.667938 0.606556,-1.252384 1.110955,-1.753338 0.5044,-0.500952 1.085416,-0.873456 1.743052,-1.117511 -0.338395,-0.199096 -0.689559,-0.298646 -1.053494,-0.298646 -0.581016,0 -1.075839,0.208733 -1.484467,0.626192 -0.408626,0.417461 -0.61294,0.911992 -0.61294,1.483593 z m 0.603364,2.707075 c 0,0.558756 0.105357,1.091822 0.316046,1.599199 0.2107,0.507373 0.504401,0.956946 0.881106,1.348719 v 1.27165 c 0,0.166986 0.05747,0.308279 0.17239,0.423884 0.114927,0.115601 0.255391,0.173408 0.421396,0.173408 0.166005,0 0.306471,-0.05781 0.421398,-0.173408 0.114927,-0.115601 0.175581,-0.256898 0.181966,-0.423884 v -0.423884 c 0.581017,0.282591 1.177997,0.423884 1.790938,0.423884 0.612942,0 1.213112,-0.141292 1.800516,-0.423884 v 0.423884 c 0,0.166986 0.05747,0.308279 0.172389,0.423884 0.114927,0.115601 0.25539,0.173408 0.421396,0.173408 0.166006,0 0.306469,-0.05781 0.421398,-0.173408 0.114927,-0.115601 0.175583,-0.256898 0.181966,-0.423884 v -1.27165 c 0.376705,-0.391773 0.670405,-0.838134 0.881104,-1.339087 0.210699,-0.500953 0.316048,-1.037231 0.316048,-1.608831 0,-0.5716 -0.111742,-1.11751 -0.335204,-1.637731 -0.223467,-0.520222 -0.520361,-0.969797 -0.890679,-1.348722 -0.370318,-0.378925 -0.817255,-0.677571 -1.340809,-0.895934 -0.523555,-0.218366 -1.066263,-0.330759 -1.628125,-0.337183 -0.561863,-0.0065 -1.104571,0.105982 -1.628124,0.337183 -0.523555,0.231206 -0.970491,0.529853 -1.340812,0.895934 -0.370317,0.36608 -0.667211,0.815656 -0.890679,1.348722 -0.223468,0.533065 -0.332009,1.078977 -0.325625,1.637731 z m 1.197152,0 c 0,-0.411039 0.07662,-0.7996 0.229851,-1.165678 0.153235,-0.366083 0.367126,-0.687208 0.641674,-0.963374 0.274547,-0.276166 0.593788,-0.491321 0.95772,-0.645459 0.363934,-0.154139 0.750215,-0.23442 1.158843,-0.240843 0.542708,0 1.043914,0.134878 1.503621,0.404616 0.459705,0.269744 0.823641,0.635828 1.091802,1.098244 0.268162,0.462419 0.402242,0.966584 0.402242,1.512494 0,0.404615 -0.0798,0.793177 -0.239429,1.165681 -0.15962,0.372502 -0.373511,0.693626 -0.641674,0.963371 -0.268161,0.269744 -0.587403,0.484896 -0.95772,0.645459 -0.370318,0.160561 -0.7566,0.237632 -1.158842,0.23121 -0.542709,0 -1.043916,-0.13166 -1.503622,-0.394982 C 13.04976,18.5614 12.689019,18.195317 12.427242,17.726477 12.165465,17.257637 12.031384,16.753472 12.025,16.213984 Z m 2.394299,0 c 0,0.166983 0.05747,0.308279 0.172392,0.423883 0.114927,0.115601 0.255391,0.173408 0.421397,0.173408 h 1.197151 c 0.166004,0 0.30647,-0.05781 0.421397,-0.173408 0.114928,-0.1156 0.175581,-0.2569 0.181968,-0.423883 0.0064,-0.166984 -0.05427,-0.308279 -0.181968,-0.423883 -0.127691,-0.115601 -0.268161,-0.176618 -0.421397,-0.18304 h -0.593788 v -0.597293 c 0,-0.166983 -0.06066,-0.308278 -0.181968,-0.423882 -0.121312,-0.115601 -0.261776,-0.176618 -0.421395,-0.183043 -0.15962,-0.0065 -0.300087,0.05458 -0.421397,0.183043 -0.121316,0.128443 -0.178775,0.269743 -0.172392,0.423882 z m 2.231492,-4.518214 c 0.664019,0.244055 1.245036,0.616559 1.743052,1.117511 0.498014,0.500954 0.868332,1.0854 1.110956,1.753338 0.197928,-0.333969 0.296895,-0.687205 0.296895,-1.05971 0,-0.578023 -0.204316,-1.072554 -0.612943,-1.483593 -0.408629,-0.411039 -0.903451,-0.619767 -1.484467,-0.626192 -0.363934,0 -0.715099,0.09956 -1.053493,0.298646 z"
     id="path1-5"
     sodipodi:nodetypes="scscssscscssssccscssssccsssssssssccssscsssssscsscsssssssccsssscscscsscc"
     style="fill:#1c4e80;fill-opacity:1;stroke:#000000;stroke-width:0.144276;stroke-dasharray:none;stroke-opacity:1" />
  <path
     d="m 14.708416,0.8249865 h -12 a 1.5,1.5 0 0 0 -1.5,1.5 v 3 a 1.5,1.5 0 0 0 1.5,1.5 V 20.324986 a 1.5,1.5 0 0 0 1.5,1.5 h 6 v -1.5 h -6 v -1.5 h 3.75 V 8.3249865 h -3.75 v -1.5 h 9 v 2.25 h 1.5 v -2.25 a 1.5,1.5 0 0 0 1.5,-1.5 v -3 a 1.5,1.5 0 0 0 -1.5,-1.5 z m -8.25,9 v 7.4999995 h -2.25 V 9.8249865 Z m -3.75,-4.5 v -3 h 12 v 3 z"
     id="path2"
     style="fill:#1c4e80;fill-opacity:1;stroke:#000000;stroke-width:0.12;stroke-opacity:1;stroke-dasharray:none" />
</svg>
