<svg xmlns="http://www.w3.org/2000/svg" xmlns:xlink="http://www.w3.org/1999/xlink" viewBox="0 0 48 48"><defs><linearGradient id="mediawiki-small_svg__gradient" x2="25" y1="25" gradientUnits="userSpaceOnUse"><stop offset="0" stop-color="#0a00b2"/><stop offset=".5" stop-color="red"/><stop offset="1" stop-color="#fffc00"/></linearGradient><linearGradient xlink:href="#mediawiki-small_svg__gradient" id="mediawiki-small_svg__linearGradient1194" x2="25" y1="25" gradientUnits="userSpaceOnUse"/><style>.mediawiki-small_svg__petal{opacity:.65}</style></defs><g id="mediawiki-small_svg__petals" fill="url(#mediawiki-small_svg__linearGradient1194)" style="fill:url(#mediawiki-small_svg__gradient)" transform="translate(.05 .044) scale(1.9283)"><path d="M7.068 4.359A3.866 3.866 0 0 0 8.2 7.024a2.989 2.989 0 0 0 1.973.787.919.919 0 0 0 .628-.281 3 3 0 0 0 .7-2.876C10.97 2.815 9.5 1.8 7.7.915a8.026 8.026 0 0 0-.632 3.444z" class="mediawiki-small_svg__petal"/><path d="M4.4 7.031a3.848 3.848 0 0 0 2.068 2.025 2.984 2.984 0 0 0 2.122-.031.923.923 0 0 0 .473-.5A3 3 0 0 0 8.617 5.6C7.42 4.1 5.678 3.728 3.676 3.607A8.025 8.025 0 0 0 4.4 7.031z" class="mediawiki-small_svg__petal"/><path d="M2.959 10.524A3.831 3.831 0 0 0 5.638 11.6a2.99 2.99 0 0 0 1.949-.844.927.927 0 0 0 .246-.645A3 3 0 0 0 6.306 7.58c-1.675-.919-3.428-.6-5.324.06a8 8 0 0 0 1.977 2.884z" class="mediawiki-small_svg__petal"/><path d="M2.956 14.307a3.824 3.824 0 0 0 2.885-.035 3 3 0 0 0 1.479-1.529.929.929 0 0 0-.02-.691A2.981 2.981 0 0 0 4.926 10.3c-1.9-.2-3.394.766-4.9 2.1a7.954 7.954 0 0 0 2.93 1.907z" class="mediawiki-small_svg__petal"/><path d="M4.394 17.8a3.831 3.831 0 0 0 2.653-1.141 3.017 3.017 0 0 0 .784-1.981.926.926 0 0 0-.28-.631 2.971 2.971 0 0 0-2.863-.706c-1.831.54-2.844 2.013-3.722 3.824a7.927 7.927 0 0 0 3.428.635z" class="mediawiki-small_svg__petal"/><path d="M7.054 20.479A3.849 3.849 0 0 0 9.07 18.4a3.022 3.022 0 0 0-.031-2.132.922.922 0 0 0-.5-.476 2.97 2.97 0 0 0-2.914.449c-1.486 1.2-1.86 2.953-1.982 4.964a7.929 7.929 0 0 0 3.411-.726z" class="mediawiki-small_svg__petal"/><path d="M10.531 21.93a3.867 3.867 0 0 0 1.069-2.692 3.016 3.016 0 0 0-.841-1.958.918.918 0 0 0-.642-.248A2.979 2.979 0 0 0 7.6 18.567c-.914 1.683-.594 3.443.06 5.348a7.957 7.957 0 0 0 2.871-1.985z" class="mediawiki-small_svg__petal"/><path d="M14.3 21.933a3.873 3.873 0 0 0-.035-2.9 3 3 0 0 0-1.522-1.486.917.917 0 0 0-.687.018 2.993 2.993 0 0 0-1.745 2.387c-.2 1.906.763 3.409 2.093 4.918a8 8 0 0 0 1.896-2.937z" class="mediawiki-small_svg__petal"/><path d="M17.776 20.489a3.866 3.866 0 0 0-1.136-2.665 2.989 2.989 0 0 0-1.973-.788.919.919 0 0 0-.628.281 3 3 0 0 0-.7 2.876c.538 1.839 2 2.857 3.807 3.739a8.025 8.025 0 0 0 .63-3.443z" class="mediawiki-small_svg__petal"/><path d="M20.441 17.817a3.848 3.848 0 0 0-2.065-2.025 2.984 2.984 0 0 0-2.122.031.923.923 0 0 0-.473.5 3 3 0 0 0 .447 2.927c1.2 1.493 2.94 1.869 4.942 1.991a8.025 8.025 0 0 0-.729-3.424z" class="mediawiki-small_svg__petal"/><path d="M21.885 14.324a3.831 3.831 0 0 0-2.679-1.077 2.99 2.99 0 0 0-1.949.844.927.927 0 0 0-.246.645 3 3 0 0 0 1.528 2.533c1.675.919 3.428.6 5.324-.06a7.994 7.994 0 0 0-1.978-2.885z" class="mediawiki-small_svg__petal"/><path d="M21.888 10.541a3.824 3.824 0 0 0-2.888.035 3 3 0 0 0-1.479 1.529.928.928 0 0 0 .018.691 2.981 2.981 0 0 0 2.376 1.753c1.9.2 3.394-.767 4.9-2.1a7.955 7.955 0 0 0-2.927-1.908z" class="mediawiki-small_svg__petal"/><path d="M20.451 7.046A3.831 3.831 0 0 0 17.8 8.187a3.017 3.017 0 0 0-.784 1.982.927.927 0 0 0 .28.631 2.971 2.971 0 0 0 2.863.706c1.831-.54 2.844-2.013 3.722-3.824a7.926 7.926 0 0 0-3.43-.636z" class="mediawiki-small_svg__petal"/><path d="M17.791 4.369a3.849 3.849 0 0 0-2.016 2.074 3.022 3.022 0 0 0 .031 2.132.922.922 0 0 0 .5.476 2.969 2.969 0 0 0 2.912-.451C20.7 7.4 21.079 5.649 21.2 3.638a7.928 7.928 0 0 0-3.409.731z" class="mediawiki-small_svg__petal"/><path d="M14.313 2.918a3.867 3.867 0 0 0-1.072 2.692 3.016 3.016 0 0 0 .84 1.958.918.918 0 0 0 .642.248 2.978 2.978 0 0 0 2.522-1.536c.914-1.683.594-3.443-.06-5.348a7.958 7.958 0 0 0-2.872 1.986z" class="mediawiki-small_svg__petal"/><path d="M10.548 2.915a3.874 3.874 0 0 0 .035 2.9A3 3 0 0 0 12.105 7.3a.917.917 0 0 0 .687-.018 2.993 2.993 0 0 0 1.745-2.387c.2-1.906-.763-3.409-2.093-4.918a8 8 0 0 0-1.896 2.938z" class="mediawiki-small_svg__petal"/></g></svg>