<svg xmlns="http://www.w3.org/2000/svg" viewBox="0 0 48 48"><defs><radialGradient id="memcached_svg__c" cx="62.417" cy="142.92" r="9.213" gradientUnits="userSpaceOnUse"><stop offset="0" stop-color="#DB7C7C"/><stop offset="1" stop-color="#C83737"/></radialGradient><radialGradient id="memcached_svg__d" cx="96.726" cy="142.92" r="9.213" gradientUnits="userSpaceOnUse"><stop offset="0" stop-color="#DB7C7C"/><stop offset="1" stop-color="#C83737"/></radialGradient><linearGradient id="memcached_svg__a" x1="126.68" x2="126.68" y1="253.36" y2="0" gradientUnits="userSpaceOnUse"><stop offset="0" stop-color="#574C4A"/><stop offset="1" stop-color="#80716D"/></linearGradient><linearGradient id="memcached_svg__b" x1="139.74" x2="48.263" y1="154.1" y2="-12.874" gradientTransform="scale(1.0209 .97952)" gradientUnits="userSpaceOnUse"><stop offset="0" stop-color="#268D83"/><stop offset="1" stop-color="#2EA19E"/></linearGradient></defs><path fill="url(#memcached_svg__a)" d="M0 171.19V82.171C0 10.271 10.261 0 82.086 0h89.188c71.825 0 82.086 10.271 82.086 82.171v89.019c0 71.9-10.261 82.171-82.086 82.171H82.086C10.26 253.361 0 243.09 0 171.19z" transform="scale(.18945)"/><path fill="url(#memcached_svg__b)" d="M8.891.655c-12.454 78.928-5.938 152.82-5.938 152.82h38.928c-3.704-19.703-16.992-109.72-5.938-110.02 5.924.94 32.99 76.37 32.99 76.37s5.96-.741 11.959-.741 11.959.742 11.959.742 27.066-75.431 32.99-76.371c11.054.297-2.234 90.317-5.938 110.02h38.928s6.515-73.897-5.938-152.82h-36.041c-6.86.081-32.96 45.856-35.96 45.856C77.895 46.51 51.795.736 44.935.655z" transform="translate(8.675 8.923) scale(.18945)"/><path fill="url(#memcached_svg__c)" d="M73.214 144.27a9.213 9.213 0 1 1-18.426 0 9.213 9.213 0 0 1 18.426 0z" transform="translate(8.675 8.923) scale(.18945)"/><path fill="url(#memcached_svg__d)" d="M107 144.27a9.213 9.213 0 1 1-18.426 0 9.213 9.213 0 0 1 18.426 0z" transform="translate(8.675 8.923) scale(.18945)"/><path d="M37.293 9.541c1.064 7.204 1.314 14.118 1.294 19.27-.02 5.267-.321 8.69-.321 8.69h-6.208l-.667.5h7.375S40 24 37.64 9.048zM17.751 9.36c1.938 2.155 5.289 7.875 5.75 7.875-1.228-1.57-4.246-6.583-5.75-7.875zm-2.765 7.297c-2.094.056.423 17.11 1.125 20.843H9.673l-.437.5h7.375c-.698-3.714-3.194-20.616-1.157-20.843-.19-.285-.353-.482-.468-.5zm17.03 0c-1.122.178-6.25 14.468-6.25 14.468s-1.129-.14-2.265-.14c-.672 0-1.251.041-1.643.078l-.123.562s1.13-.14 2.266-.14 2.266.14 2.266.14 5.089-14.196 6.234-14.468c-.123-.313-.276-.494-.484-.5z" opacity=".1"/><path fill="#fff" d="M10.36 9.047C8 24 9.233 37.999 9.233 37.999l.434-.489c-.222-3.302-.815-15.247 1.191-27.964h6.828c.145.001.339.12.563.312-.447-.497-.82-.81-1.063-.812zm20.452 0c-1.3.015-6.244 8.687-6.812 8.687.231.297.42.5.5.5.568 0 5.513-8.672 6.812-8.687h6.026l.302-.5zm-14.859 8.609c1.659 2.49 5.781 13.968 5.781 13.968l.12-.56c-1.017-2.79-4.895-13.253-5.87-13.408h-.031zm17.062 0c1.113 2.837-.993 16.984-1.625 20.343l.67-.522c.853-5.01 2.91-19.77.955-19.822z" opacity=".3"/></svg>