<svg xmlns="http://www.w3.org/2000/svg" viewBox="0 0 48 48"><g transform="translate(64.17 -3.267) scale(.42681)"><g fill="#1b1a1b"><path d="M-45.75 92.692C-25.71 59.371-49.982 5.33-94.364 10.82c-40.1 4.957-40.746 47.164-5.405 57.191 30.582 8.685 6.318 28.083 7.027 41.001.712 12.916 26.587 17.602 46.992-16.32z"/><circle cx="33.728" cy="85.364" r="15.414" transform="rotate(-14.67 -37.736 707.116) scale(1.12859)"/><path d="M-140.06 48.936c-6.258.606-10.839 6.165-10.233 12.422.607 6.262 6.165 10.847 12.424 10.241 6.257-.614 10.842-6.171 10.233-12.43-.608-6.254-6.166-10.839-12.425-10.233z"/></g><path fill="#bfbfbf" d="M-44.993 91.34c20.041-33.321-4.231-87.363-48.613-81.872-40.1 4.957-40.747 47.166-5.406 57.192 30.583 8.685 6.318 28.083 7.027 41.002.713 12.915 26.586 17.6 46.992-16.322z"/><path d="M-86.842 112.76c-1.214-1.97.643-4.158 2.552-3.992 3.038.266 9.655-.035 14.876-2.994 13.043-7.394 33.114-42.97 23.019-65.408-4.52-10.044-6.72-12.92-11.374-17.834-.95-1.002-.405-.948.238-.609 2.517 1.321 6.94 6.437 11.476 14.764 7.665 14.07 7.268 30.795 4.417 41.288-1.986 7.3-8.825 23.811-18.842 30.95-10.04 7.156-21.786 11.26-26.362 3.834zm-9.088-46.169c-6.833-2.028-15.642-4.853-20.737-11.518-3.756-4.914-5.663-10.277-6.15-13.318-.173-1.085-.32-1.99-.008-2.24.145-.116 2.805 5.897 6.782 10.936 3.976 5.04 9.533 7.988 14.163 9.06 4.117.952 12.647 3.043 15.533 5.502 2.966 2.527 3.214 7.987 2.216 8.603-1.007.62-3.049-4.43-11.8-7.025z"/><path fill="#fff" d="M-81.841 113.72c-.132 1.564 1.665 1.87 4.082 1.508 3.1-.465 5.72-.814 9.288-2.601 4.835-2.423 9.728-5.89 13.311-10.565 10.692-13.95 14.478-30.454 13.895-32.83-.195 1.961-2.776 12.254-8.679 21.533-7.581 11.918-13.079 18.267-25.758 21.345-3.528.857-5.966-.448-6.14 1.61zm-28.119-54.241c1.444 1.225 4.403 2.857 10.225 4.766 7.032 2.306 10.455 4.305 11.889 5.263 1.52 1.018 2.482 3.288 2.577 1.271.1-2.018-1.145-3.754-3.92-4.675-1.879-.623-5.038-2.108-8.067-2.706a88.11 88.11 0 0 1-7.828-1.978c-1.488-.457-3.004-1.258-4.876-1.941z"/><circle cx="34.681" cy="84.375" r="15.414" fill="#bfbfbf" transform="rotate(-14.67 -37.736 707.116) scale(1.12859)"/><path d="M-128.68 108.38c13.531 12.538 33.898-4.685 24.93-19.897-1.007-1.708-2.315-3.008-1.885-1.7 2.867 8.747.218 15.667-4.724 19.232-4.845 3.497-11.505 4.082-16.837 1.318-1.565-.812-2.215.37-1.484 1.047z"/><path fill="#fff" d="M-118.07 110.95c1.723-.362 11.742-2.957 14.096-11.199.733-2.57.865-2.053.658-.661-1.058 7.106-7.775 12.348-13.49 12.542-1.16.12-2.682-.386-1.264-.683z"/><path fill="#bfbfbf" d="M-139.3 47.584c-6.258.606-10.839 6.165-10.233 12.422.607 6.261 6.165 10.847 12.423 10.241 6.258-.614 10.842-6.173 10.233-12.431-.607-6.254-6.165-10.839-12.424-10.233z"/><path d="M-144.47 67.571c.07.804 1.171 1.838 2.902 2.312 1.486.408 5.32 1.45 10.243-1.658s5.491-11.42 3.253-13.865c-.693-1.239-1.594-2.14-.877-.164 1.81 4.99-1.708 9.659-4.742 11.82-3.033 2.161-6.88 1.139-8.45.66-1.572-.48-2.4.064-2.33.895z"/><path fill="#fff" d="M-138.11 68.688c.451-.406 2.736-.24 4.798-1.35 2.062-1.108 4.512-3.54 4.95-6.994.257-2.029.335-1.52.437-.414-.32 5.743-5.601 8.915-8.622 9.333-.815.113-2.249.044-1.563-.575z"/><path fill="#999" d="M-47.767 69.694C-39.234 45.1-57.09 7.958-93.212 12.426c-32.639 4.036-33.165 38.389-4.4 46.551 32.581 4.932 12.962 29.511 10.178 41.906-2.495 11.111 26.331 12.939 39.667-31.188z"/><path fill="#f3f3f3" d="M-70.093 88.904c-8.827-1.092-21.529 18.836-9.552 16.502 11.975-2.332-11.977 2.334 0 0 5.756-.854 10.526-2.886 14.795-7.76 5.566-6.352 13.882-20.073 16.287-28.94 2.026-7.474 1.007-19.056-1.081-8.174-2.142 11.168-11.622 29.464-20.449 28.372z"/><path fill="#999" d="M-129.39 104.85c2.044.034 3.28.322 5.349 1.774 4.09 1.7 11.61.623 15.082-3.948 3.472-4.571 3.586-10.87 2.263-14.675-3.236-9.314-16.985-9.15-23.127-1.417-6.644 8.635-1.61 18.231.433 18.266zm-18.25-43.166c.407 1.283 1.448 3.154 3.646 3.466 2.935.417 3.535 1.743 7 1.055s6.093-3.528 7.144-6.67c1.203-4.347-.598-6.59-3.31-8.594-2.712-2.004-8.678-1.788-12.238 1.457-2.53 2.305-3.234 6.163-2.242 9.286z"/><path fill="#f3f3f3" d="M-136.11 64.558c2.663-.697 6.185-4.326 4.436-7.096-2.157-3.413-8.166-.492-8.37 3.309-.204 3.802 1.112 4.526 3.934 3.787zm19.99 40.952c2.272-.595 9.232-3.427 7.925-13.546-.661-5.126-3.457 6.361-8.634 8.08-7.843 2.602-6.962 7.474.709 5.466z"/></g></svg>