<svg xmlns="http://www.w3.org/2000/svg" viewBox="0 0 48 48"><defs><clipPath id="metube_svg__a"><path d="M-499.63 194.95h500v-500h-500z"/></clipPath><clipPath id="metube_svg__b"><path d="M-250.02 299.06h500v-500h-500z"/></clipPath><clipPath id="metube_svg__c"><path d="M0 500h500V0H0z"/></clipPath></defs><path fill="#ff4c41" d="M0 0a423 423 0 0 1-.964 17.75c-1.921 25.06-4.714 53.763-21.272 73.809-14.17 17.155-36.12 21.034-56.957 23.392-26.386 2.986-52.896 4.788-79.427 5.801-53.737 2.053-107.53.863-161.27-.332-27.61-.613-55.238-1.228-82.768-3.42-33.805-2.691-68.576-7.645-84.323-41.427-14.135-30.323-12.38-68.821-12.559-101.44-.16-29.252-.257-58.516.915-87.744 1.522-37.936 3.774-87.352 44.723-103.99 21.861-8.882 48.256-10.866 71.604-12.384 24.748-1.61 49.559-1.416 74.344-1.784 51.979-.771 103.95 1.011 155.91 2.043 36.092.715 73.138 1.122 107.68 12.907 29.812 10.173 37.591 42.482 41.623 70.508C1.265-118.465.244-90.212.198-62.17.165-41.455.715-20.705.002.003" clip-path="url(#metube_svg__a)" transform="matrix(.096 0 0 -.096 47.965 18.715)"/><path fill="#fff" d="m0 0 76.041 129.466H-76.076z" clip-path="url(#metube_svg__b)" transform="matrix(.096 0 0 -.096 24.002 28.709)"/><path fill="#fff" d="M326.06 169.59H173.94v31.351h152.12z" clip-path="url(#metube_svg__c)" transform="matrix(.096 0 0 -.096 0 48)"/></svg>