<svg xmlns="http://www.w3.org/2000/svg" viewBox="0 0 48 48"><defs><linearGradient id="microsoftsqlserver_svg__a" x1="-411.53" x2="-23.847" y1="-29.89" y2="-258.96" gradientTransform="translate(488.26 811.46) scale(.66978)" gradientUnits="userSpaceOnUse"><stop offset="0" stop-color="#909ca9"/><stop offset="1" stop-color="#ededee"/></linearGradient><linearGradient id="microsoftsqlserver_svg__b" x1="-447.8" x2="-135.86" y1="-889.06" y2="-889.06" gradientTransform="translate(488.26 811.46) scale(.66978)" gradientUnits="userSpaceOnUse"><stop offset="0" stop-color="#939fab"/><stop offset="1" stop-color="#dcdee1"/></linearGradient><radialGradient id="microsoftsqlserver_svg__c" cx="-1259.1" cy="-245.43" r="414.16" gradientTransform="matrix(-.64353 -.09731 .19436 -1.2853 -377.15 -44.777)" gradientUnits="userSpaceOnUse"><stop offset="0" stop-color="#ee352c"/><stop offset="1" stop-color="#a91d22"/></radialGradient></defs><path fill="url(#microsoftsqlserver_svg__a)" d="M469.04 461.9 336.7 505.059l-115.06 50.819-32.233 8.519a800.33 800.33 0 0 1-26.08 23.693c-10.152 8.834-19.699 16.84-26.959 22.626-8.084 6.443-20.103 18.369-26.247 26.017-9.14 11.377-16.288 23.51-19.361 32.84-5.529 16.787-2.835 33.789 7.828 49.48 13.621 20.044 40.737 40.409 72.273 54.273 16.086 7.072 43.232 16.188 63.587 21.328 33.922 8.566 99.482 17.873 135.59 19.256 7.323.28 17.071.254 17.519-.042.792-.523 6.413-11.167 12.935-24.49 22.19-45.33 38.245-87.824 46.885-124.12 5.231-21.975 9.31-51.28 11.951-86.024.74-9.733 1.008-42.194.44-53.227-.926-17.953-2.507-32.587-5.045-46.947-.372-2.105-.509-3.956-.314-4.123.368-.316 1.618-.717 17.875-5.442l-3.244-7.598zm-30.245 17.749c1.203 0 4.401 30.671 5.233 50.129.176 4.135.14 6.782-.105 6.782-.79 0-16.949-9.49-28.403-16.682-10.003-6.282-28.985-18.896-32.003-21.265-.952-.748-.852-.785 7.326-3.6 13.913-4.792 46.9-15.364 47.952-15.364zm-67.417 22.124c.855-.002 3.184 1.283 8.686 4.73 20.642 12.931 48.595 28.49 60.573 33.72 3.714 1.621 4.138.993-4.416 6.802-18.234 12.382-40.904 24.557-68.736 36.922-4.851 2.155-8.96 3.914-9.126 3.914-.165 0 .376-2.46 1.193-5.484 6.743-24.941 10.547-50.116 10.654-70.306.053-9.985.056-10.038 1.005-10.277a.756.756 0 0 1 .167-.021zm-13.877 5.295c.597.6.165 22.976-.565 29.073-1.751 14.627-4.613 28.155-9.189 43.536-1.093 3.676-2.118 6.844-2.281 7.033-.398.46-14.08-12.87-18.628-18.147-7.771-9.015-13.92-17.97-18.398-26.79-2.276-4.484-5.906-13.339-5.568-13.585 1.538-1.116 54.253-21.496 54.63-21.119zm-65.366 25.766c.123.013.219.046.272.105.197.217.894 1.843 1.549 3.621 3.187 8.656 10.354 21.516 16.577 29.742 6.794 8.981 15.653 18.551 23.066 24.907 2.38 2.041 4.6 3.946 4.919 4.228.634.563.848.467-15.468 6.656-18.91 7.172-39.503 14.355-63.148 21.998-9.01 2.913-16.637 5.374-16.933 5.484-.901.334-.625-.22 2.009-4.333 11.748-18.342 29.546-54.222 39.496-79.599 1.726-4.401 3.368-8.81 3.663-9.795.433-1.448.859-1.94 2.218-2.554.752-.339 1.41-.497 1.78-.46zm-20.031 8.268c.266.234-4.806 10.946-9.795 20.679-9.678 18.88-20.348 37.459-34.515 60.134-2.445 3.912-4.697 7.49-5.003 7.933-.503.73-.71.49-2.26-2.596-3.392-6.745-6.233-15.256-7.703-23.17-1.454-7.833-1.207-21.394.544-29.805 1.301-6.249 1.244-6.11 4.186-7.618 12.722-6.52 54.131-25.921 54.545-25.556zm172.53 7.012v4.249c-.021 22.316-2.404 52.869-5.86 75.162-.607 3.912-1.132 7.14-1.173 7.179-.04.04-2.86-.787-6.258-1.842-15.017-4.662-31.297-11.626-45.985-19.675-9.726-5.33-23.795-13.964-23.4-14.358.107-.107 4.25-2.303 9.21-4.877 19.64-10.195 38.402-21.185 54.713-32.087 6.12-4.09 15.276-10.71 17.31-12.496zm-248.07 29.575c.408-.02.304.754-.335 4.437-.444 2.562-.946 7.4-1.13 10.737-.805 14.628 1.568 25.42 8.833 40.187 2.02 4.106 3.6 7.528 3.516 7.598-.728.609-66.88 19.967-87.678 25.66-6.165 1.689-11.553 3.176-11.993 3.308-.722.217-.786.06-.523-1.633 2.278-14.676 13.473-33.938 29.114-50.108 10.399-10.75 18.725-17.118 32.882-25.2 10.16-5.8 25.94-14.506 27.105-14.944a.685.685 0 0 1 .209-.042zm156.04 27.942c.063-.075 2.514 1.237 5.442 2.93 21.367 12.357 51.185 23.948 76.606 29.763l2.302.523-3.16 1.759c-13.28 7.368-57.013 25.565-101.68 42.322-6.52 2.446-12.883 4.844-14.128 5.337-1.245.493-2.26.83-2.26.732 0-.098 1.842-3.644 4.102-7.87 12.54-23.445 25.057-51.938 31.48-71.707.655-2.016 1.235-3.714 1.298-3.789zm-15.907 5.212c.069.068-.713 2.168-1.737 4.646-8.718 21.08-20.14 44.076-34.703 69.908-3.707 6.574-6.83 11.941-6.95 11.93-.118-.01-3.132-1.794-6.697-3.977-21.213-12.987-39.982-28.973-52.306-44.519l-1.758-2.197 9.146-2.512c32.626-8.938 60.293-18.496 87.804-30.35 3.896-1.678 7.132-2.998 7.2-2.93zm98.813 34.494c.047.01.063.042.063.083 0 2.224-5.047 22.802-9.251 37.696-3.528 12.493-6.488 22.265-11.972 39.58-2.423 7.647-4.502 13.888-4.626 13.856a34.905 34.905 0 0 0-1.298-.251c-29.719-5.378-56.338-12.879-81.274-22.898-6.976-2.803-17.05-7.265-17.582-7.786-.18-.177 5.844-3.015 13.375-6.3 45.542-19.87 92.728-42.498 108.86-52.201 1.94-1.167 3.377-1.847 3.705-1.78zm-228.1 7.807c.244.23-12.495 18.467-30.287 43.368a6683.95 6683.95 0 0 0-16.138 22.668 476.127 476.127 0 0 0-9.063 13.417l-4.207 6.488-4.48-3.767c-5.255-4.413-14.454-13.782-18.627-18.984-8.588-10.705-14.406-21.97-16.703-32.317-1.06-4.777-1.091-7.211-.084-7.515 1.457-.438 28.172-6.727 53.227-12.536 13.917-3.227 30.007-7.005 35.77-8.394 5.764-1.388 10.535-2.481 10.591-2.428zm12.81 4.897 3.223 3.6c14.411 16.053 29.066 28.032 46.947 38.366 3.157 1.825 5.564 3.411 5.358 3.538-.744.46-61.833 22.18-90.085 32.024-15.933 5.551-29.02 10.078-29.094 10.068-.072-.01-.974-.601-1.988-1.319L152.739 743l2.889-4.166c9.373-13.578 21.15-28.51 46.926-59.527zm79.829 57.057c.07-.088 4.537 1.496 9.942 3.517 13.028 4.871 23.254 8.048 37.09 11.512 16.992 4.253 41.55 8.506 56.093 9.732 2.233.189 3.372.443 3.014.67-.675.428-15.4 5.346-26.226 8.75-17.185 5.401-69.702 20.915-112.52 33.237-7.943 2.286-14.735 4.217-15.09 4.291-.96.2-4.313-.68-4.313-1.13 0-.214 2.402-3.253 5.317-6.74 14.393-17.216 28.69-36.445 40.626-54.629 3.264-4.973 5.999-9.121 6.07-9.21zm-17.686.503c.129.129-6.966 11.489-19.444 31.145a10595.38 10595.38 0 0 0-13.291 20.993c-2.048 3.247-5.048 8.182-6.656 10.989l-2.93 5.107-1.486-.398c-3.586-.97-28.88-9.906-35.561-12.558-8.281-3.287-16.911-7.256-23.275-10.696-7.952-4.297-18.038-10.675-17.247-10.926.227-.072 13.912-3.817 30.39-8.31 43.84-11.95 68.09-18.814 83.995-23.776 2.972-.927 5.448-1.627 5.505-1.57zm124.52 29.198c.094-.02.138-.021.147 0 .414 1.037-15.815 45.988-21.747 60.238-1.33 3.192-1.82 3.965-2.512 3.935-1.68-.074-25.212-3.364-39.454-5.526-24.933-3.785-66.695-11.078-77.234-13.479l-2.45-.544 14.946-3.37c32.032-7.217 47.416-11.088 63.022-15.865 19.682-6.025 39.172-13.538 58.857-22.689 3.112-1.447 5.765-2.556 6.426-2.7z" transform="translate(-4.32 -11.15) scale(.07266)"/><path fill="url(#microsoftsqlserver_svg__b)" d="M332.65 153.48c-2.213-.258-37.732 12.538-60.552 21.81-30.921 12.563-54.93 24.599-69.741 34.996-5.513 3.87-12.445 10.83-13.458 13.5-.38 1-.557 2.167-.565 3.37l13.437 12.684 31.877 10.172 75.936 13.563 86.799 14.924.879-7.452c-.263-.04-.511-.084-.774-.125l-11.428-1.8-2.324-4.082c-11.797-20.816-24.834-46.575-32.4-64.006-5.861-13.499-11.489-29.05-14.61-40.312-1.855-6.688-2.048-7.121-3.078-7.242zm-1.674 5.149c.088-.016.132-.017.146 0 .07.084.474 2.876.88 6.195 1.708 13.981 4.836 27.54 9.732 42.133 3.69 10.997 3.742 10.351-.649 9.126-10.207-2.848-55.937-10.698-89.018-15.279-5.33-.738-9.767-1.394-9.837-1.465-.42-.42 23.857-13.14 34.619-18.147 13.803-6.422 51.39-22.071 54.127-22.563zm-96.385 44.77 3.872 1.32c21.239 7.229 74.474 17.399 103.9 19.842 3.32.275 6.11.57 6.195.648.085.078-2.735 1.585-6.258 3.35-14.195 7.11-29.819 15.777-40.626 22.541-3.174 1.987-6.085 3.589-6.467 3.558-.383-.03-2.476-.366-4.668-.732l-3.998-.649-10.047-9.754c-17.637-17.07-31.407-30.276-36.733-35.268zm-3.935 3.14 14.065 17.562c7.742 9.658 15.503 19.245 17.226 21.307 1.722 2.062 3.055 3.81 2.972 3.872-.4.292-20.385-3.6-30.977-6.028-10.874-2.494-15.371-3.687-22.103-5.84l-5.484-1.758.02-1.36c.07-6.746 8.573-16.697 23.004-26.876l1.277-.879zm119.79 23.925c.421.032.867.89 2.114 3.62 3.411 7.474 14.03 27.73 16.598 31.648.845 1.29 2.185 1.376-11.91-.9-33.875-5.472-44.834-7.304-44.833-7.515 0-.128 1.015-.794 2.26-1.486 10.49-5.833 21.075-13.176 30.496-21.119 2.253-1.899 4.417-3.708 4.814-4.04.163-.136.32-.22.46-.209z" transform="translate(-4.32 -11.15) scale(.07266)"/><path fill="url(#microsoftsqlserver_svg__c)" d="M189.5 222.43s-2.198 3.485-.126 8.665c1.283 3.206 5.134 7.057 9.377 11.135 0 0 44.452 43.362 49.9 49.647 24.628 28.426 35.326 56.411 36.314 95.046.634 24.793-4.147 46.588-15.76 71.918-20.816 45.4-64.673 95.467-132.41 151.14l9.941-3.286c6.39-4.787 15.07-9.9 35.54-21.098 47.145-25.788 100.09-49.508 165.12-73.948 93.568-35.163 247.48-76.42 335.06-89.834l9.126-1.402-1.402-2.198c-8.008-12.447-13.474-20.122-20.052-28.256-19.21-23.754-42.463-43.136-70.955-59.087-39.153-21.919-89.936-38.955-154.13-51.719-12.136-2.413-38.715-6.97-60.343-10.34-45.814-7.14-75.363-11.96-108-17.645-11.702-2.03-29.174-4.964-40.773-7.472-6.044-1.307-17.53-4.023-26.456-7.096-7.37-2.901-17.748-5.706-19.968-14.17zm25.766 25.012c.062-.056 1.732.46 3.768 1.151 3.75 1.274 8.701 2.764 14.463 4.375a619.351 619.351 0 0 0 13.185 3.516c6.015 1.538 10.989 2.859 11.052 2.93.665.749 10.767 32.987 14.212 45.357 1.314 4.721 2.312 8.655 2.218 8.75-.094.094-1.215-1.645-2.47-3.852-11.686-20.55-30.193-41.45-51.594-58.27-2.667-2.098-4.835-3.878-4.835-3.957zm49.25 13.605c.515-.035 2.734.336 5.38.921 17.041 3.769 47.471 9.643 67.04 12.935 3.26.548 5.945 1.139 5.945 1.319 0 .18-1.219.95-2.7 1.695-3.284 1.652-16.57 9.604-21.014 12.58-11.097 7.426-21.074 15.376-28.34 22.604-2.92 2.905-5.364 5.275-5.442 5.275s-.59-1.693-1.13-3.768c-3.633-13.924-11.144-34.486-17.876-48.957-1.083-2.329-1.967-4.382-1.967-4.563 0-.023.03-.037.104-.041zm86.632 16.472c.57.19 1.648 3.554 3.558 11.114 3.657 14.477 5.36 30.735 4.793 45.775-.158 4.186-.422 8.073-.586 8.644l-.314 1.047-5.17-1.675c-10.657-3.406-28.07-8.533-42.99-12.663-8.477-2.346-15.427-4.44-15.427-4.646 0-.62 12.37-12.986 17.686-17.686 10.156-8.979 37.481-30.233 38.45-29.91zm6.886.984c.309-.287 41.398 6.828 60.071 10.403 13.918 2.664 34.055 6.881 35.268 7.388.586.245-1.498 1.38-8.184 4.396-26.446 11.926-46.037 22.57-65.513 35.603-5.13 3.433-9.393 6.237-9.481 6.237-.089 0-.165-2.865-.168-6.363-.013-18.992-3.805-38.161-10.758-54.357-.748-1.743-1.31-3.237-1.235-3.307zm106.24 21.014c.318.318-1.03 8.42-2.198 13.207-3.635 14.897-13.27 37.007-25.159 57.789-2.095 3.662-3.968 6.715-4.186 6.781-.217.067-2.924-1.357-6.007-3.16-11.625-6.8-24.789-13.232-39.245-19.193-4.03-1.662-7.464-3.143-7.64-3.307-.659-.619 31.465-21.887 48.496-32.108 13.622-8.175 35.556-20.392 35.938-20.01zm7.598 1.193c.925 0 19.148 4.968 28.57 7.786 23.47 7.02 50.544 16.91 68.108 24.886l7.305 3.307-5.15 1.193c-42.974 9.873-79.808 21.265-115.29 35.666-2.947 1.197-5.512 2.177-5.692 2.177-.18 0 .76-2.28 2.072-5.065 10.664-22.658 17.552-46.434 19.34-66.622.163-1.838.494-3.328.732-3.328zm-181.13 41.63c.29-.287 14.16 2.963 21.726 5.087 11.37 3.192 35.567 11.289 35.582 11.909 0 .12-2.667 2.445-5.924 5.17-13.08 10.944-25.7 22.387-40.815 36.984-4.48 4.327-8.288 7.849-8.476 7.849s-.272-.632-.168-1.402c2.276-16.803 1.787-38.38-1.381-60.343-.402-2.785-.645-5.154-.544-5.254zm292.07.273c.208.208-6.435 10.59-10.57 16.514-6.034 8.643-14.78 19.989-34.703 45.043a15657.79 15657.79 0 0 0-26.247 33.09c-3.977 5.04-7.314 9.169-7.41 9.169-.095 0-1.378-1.805-2.846-3.998-11.232-16.78-24.56-31.518-40.46-44.75-2.966-2.47-6.314-5.177-7.43-6.007-1.115-.83-2.025-1.598-2.03-1.717-.01-.273 16.97-7.556 29.931-12.83 22.563-9.181 53.402-20.176 76.48-27.252 12.17-3.73 25.1-7.447 25.284-7.262zm7.66 2.01c.365-.075 2.787 1.097 5.694 2.762 24.306 13.923 48.123 31.803 66.852 50.192 5.327 5.23 18.36 18.789 18.168 18.9-.05.029-4.552.385-10.005.795-42.12 3.168-95.968 12.128-147.81 24.593-3.522.847-6.565 1.55-6.761 1.55-.196 0 3.658-3.87 8.56-8.582 30.447-29.27 44.337-47.752 60.679-80.771 2.433-4.918 4.497-9.16 4.583-9.42.005-.015.018-.015.042-.02zm-222.62 22.813c1.391.312 14.375 6.354 24.175 11.261 8.962 4.487 22.535 11.714 23.212 12.35.085.079-4.696 2.576-10.633 5.546-18.794 9.402-34.89 18.282-51.699 28.549-4.792 2.928-8.81 5.337-8.937 5.337-.42 0-.254-.362 2.428-5.274 8.95-16.392 16.17-35.964 20.324-55.09.37-1.706.817-2.749 1.13-2.678zm-13.082 2.344c.272.271-3.098 12.647-5.232 19.256-4.094 12.676-11.015 28.611-17.665 40.605a313.29 313.29 0 0 1-5.317 9.168l-2.47 4.04-5.609-5.421c-6.518-6.32-11.828-10.243-18.607-13.73-2.664-1.371-4.831-2.64-4.835-2.826-.012-.824 17.053-16.344 30.224-27.482 9.428-7.973 29.271-23.851 29.512-23.61zm79.494 32.694 4.877 3.16c11.188 7.265 24.435 17.036 34.535 25.453 5.66 4.716 16.661 14.567 18.921 16.954l1.214 1.277-8.1 2.26c-45.813 12.711-81.208 24.027-122.51 39.203-4.583 1.685-8.54 3.077-8.812 3.077-.57 0-1.136.524 9.168-8.958 26.415-24.31 49.75-51.092 67.187-77.15zm-20.889 5.233c.24.24-13.538 19.536-21.726 30.433-9.795 13.037-27.24 34.831-39.245 49.019-5.015 5.928-9.311 10.847-9.544 10.926-.255.087-.414-1.365-.419-3.663-.023-12.106-3.086-25.045-8.497-36-2.286-4.628-2.669-5.748-2.198-6.175 1.883-1.708 31.025-18.324 49.396-28.173 12.619-6.765 31.993-16.608 32.233-16.368zm-126.34 30.956c.25 0 2.588 1.175 5.191 2.616 6.378 3.534 12.108 7.421 17.163 11.637.195.163-2.422 2.301-5.818 4.752-9.48 6.839-23.914 17.734-32.275 24.384-8.821 7.016-9.114 7.231-8.121 5.714 6.605-10.103 9.927-15.823 13.396-23.128 3.083-6.495 6.156-14.203 8.35-20.91.913-2.786 1.865-5.066 2.115-5.066zm33.656 26.414c.456-.056 1.104.792 3.81 4.835 5.703 8.521 10.07 19.885 11.198 29.135l.23 1.988-13.668 5.296c-24.534 9.52-47.118 18.905-62.373 25.89a653.218 653.218 0 0 0-16.724 8.017c-4.92 2.462-8.937 4.397-8.937 4.291 0-.106 3.09-2.429 6.865-5.17 29.941-21.736 55.755-45.533 75.204-69.322 2.08-2.544 3.97-4.75 4.207-4.898a.446.446 0 0 1 .188-.063zm-15.53 3.851c.397.396-11.047 13.337-18.754 21.203-19.289 19.687-38.41 35.121-62.1 50.15-2.965 1.88-5.673 3.58-6.029 3.789-.65.38.21-.598 10.612-11.93 6.555-7.142 11.572-13.07 17.268-20.47 3.752-4.874 4.468-5.557 9.963-9.524 14.803-10.685 48.647-33.61 49.04-33.217z" transform="translate(-4.32 -11.15) scale(.07266)"/></svg>