<svg xmlns="http://www.w3.org/2000/svg" viewBox="0 0 48 48"><defs><linearGradient id="microsoftazure_svg__a" x1="-1032.2" x2="-1059.2" y1="145.31" y2="65.426" gradientTransform="matrix(1 0 0 -1 1075 158)" gradientUnits="userSpaceOnUse"><stop offset="0" stop-color="#114a8b"/><stop offset="1" stop-color="#0669bc"/></linearGradient><linearGradient id="microsoftazure_svg__b" x1="-1023.7" x2="-1030" y1="108.08" y2="105.97" gradientTransform="matrix(1 0 0 -1 1075 158)" gradientUnits="userSpaceOnUse"><stop offset="0" stop-opacity=".3"/><stop offset=".071" stop-opacity=".2"/><stop offset=".321" stop-opacity=".1"/><stop offset=".623" stop-opacity=".05"/><stop offset="1" stop-opacity="0"/></linearGradient><linearGradient id="microsoftazure_svg__c" x1="-1027.2" x2="-997.48" y1="147.64" y2="68.561" gradientTransform="matrix(1 0 0 -1 1075 158)" gradientUnits="userSpaceOnUse"><stop offset="0" stop-color="#3ccbf4"/><stop offset="1" stop-color="#2892df"/></linearGradient></defs><path fill="url(#microsoftazure_svg__a)" d="M33.338 6.544h26.038l-27.03 80.087a4.152 4.152 0 0 1-3.933 2.824H8.149a4.145 4.145 0 0 1-3.928-5.47L29.404 9.368a4.152 4.152 0 0 1 3.934-2.825z" transform="translate(-2.184 -2.184) scale(.5455)"/><path fill="#0078d4" d="M36.642 30.689H14.118a1.042 1.042 0 0 0-.712 1.805L27.88 46.003a2.275 2.275 0 0 0 1.552.611h12.754z"/><path fill="url(#microsoftazure_svg__b)" d="M33.338 6.544a4.118 4.118 0 0 0-3.943 2.879L4.252 83.917a4.14 4.14 0 0 0 3.908 5.538h20.787a4.443 4.443 0 0 0 3.41-2.9l5.014-14.777 17.91 16.705a4.237 4.237 0 0 0 2.666.972H81.24L71.024 60.261l-29.781.007L59.47 6.544z" transform="translate(-2.184 -2.184) scale(.5455)"/><path fill="url(#microsoftazure_svg__c)" d="M66.595 9.364a4.145 4.145 0 0 0-3.928-2.82H33.648a4.146 4.146 0 0 1 3.928 2.82l25.184 74.62a4.146 4.146 0 0 1-3.928 5.472h29.02a4.146 4.146 0 0 0 3.927-5.472z" transform="translate(-2.184 -2.184) scale(.5455)"/></svg>