<svg xmlns="http://www.w3.org/2000/svg" viewBox="0 0 48 48"><g fill-rule="evenodd" clip-rule="evenodd"><path fill="#e0eaf5" d="M28.173 5.89c5.396-.002 10.792-.018 16.188.004 3.208.013 4.112 1.085 3.42 4.253a3602.435 3602.435 0 0 1-6.193 27.81c-.664 2.927-2.189 4.126-5.268 4.136-10.793.032-21.585.035-32.378-.002-3.527-.012-4.455-1.207-3.695-4.55 2.062-9.08 4.135-18.155 6.225-27.228.796-3.457 1.992-4.407 5.511-4.417 5.396-.015 10.793-.004 16.19-.005z"/><path fill="#2671be" d="M20.018 41.013c-5.397-.002-10.794.023-16.19-.013-2.737-.018-3.235-.663-2.619-3.34 2.089-9.077 4.244-18.14 6.286-27.228.548-2.437 1.73-3.514 4.34-3.49 10.793.1 21.588.032 32.38.043 2.707.002 3.162.581 2.554 3.327a5123.682 5123.682 0 0 1-5.978 26.723c-.756 3.332-1.627 3.968-5.132 3.975-5.214.011-10.428.003-15.642.001z"/><path fill="#fdfdfe" d="M24.61 23.224c-.361-.425-.759-.913-1.18-1.38-2.385-2.65-4.75-5.32-7.177-7.93-1.111-1.195-1.465-2.355-.131-3.534 1.318-1.165 2.614-1.062 3.824.279 3.368 3.733 6.733 7.47 10.157 11.152 1.279 1.375.98 2.31-.427 3.329a2162.133 2162.133 0 0 0-16.148 11.829c-1.207.89-2.358 1.113-3.332-.202-1.076-1.452-.08-2.315 1.035-3.127 3.99-2.906 7.971-5.823 11.936-8.763.552-.41 1.345-.648 1.443-1.653z"/><path fill="#fcfdfd" d="M26.32 37.263c-1.453 0-2.908.05-4.358-.016-1.156-.052-1.852-.698-1.838-1.917.014-1.152.595-2.018 1.75-2.049 3.176-.085 6.356-.067 9.533-.004 1.01.02 1.755.677 1.749 1.729-.008 1.207-.643 2.142-1.935 2.22-1.628.098-3.267.024-4.9.024l-.001.013z"/></g></svg>