<svg xmlns="http://www.w3.org/2000/svg" viewBox="0 0 48 48"><linearGradient id="microsoftpowershell_svg__a" x1="95.123" x2="26.855" y1="91.805" y2="30.825" gradientUnits="userSpaceOnUse"><stop offset="0" stop-color="#5391FE"/><stop offset="1" stop-color="#3E6DBF"/></linearGradient><linearGradient id="microsoftpowershell_svg__b" x1="26.178" x2="93.748" y1="30.015" y2="90.738" gradientUnits="userSpaceOnUse"><stop offset="0" stop-color="#5391FE"/><stop offset="1" stop-color="#3E6DBF"/></linearGradient><g fill-rule="evenodd" clip-rule="evenodd"><path fill="url(#microsoftpowershell_svg__a)" d="M9.491 109c-1.62 0-3.021-.638-3.944-1.798-.944-1.185-1.268-2.814-.889-4.47l17.834-77.911C23.239 21.557 26.376 19 29.634 19H118.5c1.62 0 3.021.638 3.945 1.798.944 1.184 1.268 2.814.889 4.47L105.5 103.179c-.747 3.264-3.884 5.822-7.143 5.822H9.491z" transform="translate(-1.817 -1.818) scale(.40341)"/><path fill="url(#microsoftpowershell_svg__b)" d="M29.634 20H118.5c2.769 0 4.496 2.259 3.858 5.045l-17.834 77.911c-.638 2.786-3.399 5.045-6.168 5.045H9.491c-2.769 0-4.496-2.258-3.858-5.045l17.834-77.911C24.104 22.259 26.866 20 29.634 20z" transform="translate(-1.817 -1.818) scale(.40341)"/><path fill="#2c5591" d="M24.068 33.503h8.72c1.013 0 1.835.858 1.835 1.915s-.822 1.915-1.836 1.915h-8.719c-1.014 0-1.835-.857-1.835-1.915 0-1.057.821-1.915 1.835-1.915zM29.724 24.99c-.15.302-.462.636-1.013 1.022L12.53 37.634c-.883.642-2.151.404-2.832-.532s-.516-2.215.367-2.857l14.593-10.567v-.217l-9.169-9.753c-.748-.796-.67-2.082.174-2.874.844-.792 2.134-.789 2.882.007l11.001 11.704c.625.664.671 1.67.179 2.445z"/><path fill="#fff" d="M29.32 24.587c-.15.302-.461.635-1.012 1.022L12.126 37.231c-.883.642-2.152.404-2.832-.532s-.517-2.215.367-2.857l14.592-10.567v-.217l-9.168-9.754c-.748-.795-.67-2.082.174-2.874.843-.791 2.134-.788 2.881.008L29.142 22.14c.624.665.67 1.67.178 2.446zM23.82 33.278h8.719c1.014 0 1.836.813 1.836 1.816s-.822 1.815-1.836 1.815H23.82c-1.014 0-1.835-.813-1.835-1.815s.821-1.816 1.835-1.816z"/></g></svg>
