<svg xmlns="http://www.w3.org/2000/svg" viewBox="0 0 48 48"><defs><clipPath id="mikrotik_svg__a"><path d="M0 173.126h356.278V0H0Z"/></clipPath></defs><path fill="#272d33" d="M84.535 116.92c0-.724-.395-1.391-1.03-1.74l-2.697-1.477a.496.496 0 0 0-.734.434v10.587a.495.495 0 0 1-.733.435l-4.874-2.671a1.982 1.982 0 0 1-1.03-1.739v-10.501a.99.99 0 0 0-.515-.869l-.765-.418a1.982 1.982 0 0 0-1.906.001l-.76.417a.992.992 0 0 0-.515.869v10.501c0 .724-.394 1.391-1.03 1.739l-10.069 5.519v.522c0 .724.395 1.39 1.03 1.738l1.111.609a1.983 1.983 0 0 0 1.905 0l8.33-4.565a1.978 1.978 0 0 1 1.905 0l3.85 2.109a.496.496 0 0 1 0 .869l-8.649 4.741a.496.496 0 0 0 0 .87l2.894 1.586a1.985 1.985 0 0 0 1.906 0l11.345-6.218a1.983 1.983 0 0 0 1.031-1.74zm-22.197-2.782a.496.496 0 0 0-.734-.435l-2.697 1.478a1.982 1.982 0 0 0-1.03 1.739v7.989c0 .376.403.615.733.434l3.213-1.759a.995.995 0 0 0 .515-.87zm29.406 19.397a2.873 2.873 0 0 1-.176.351 2.878 2.878 0 0 1-.229.319c-.45.553-1.183 1.094-2.12 1.608l-7.54 4.133-7.541 4.133c-.937.514-1.797.846-2.526.94-.14.018-.276.028-.406.028-.806 0-1.815-.356-2.933-.968l-15.08-8.266c-.937-.514-1.67-1.055-2.12-1.608a2.878 2.878 0 0 1-.229-.319 2.737 2.737 0 0 1-.176-.351c-.279-.646-.408-1.517-.408-2.544v-16.533c0-1.225.181-2.232.584-2.895s1.231-1.315 2.349-1.927l7.54-4.134 7.54-4.133c.937-.513 1.798-.845 2.527-.939.14-.018.276-.029.406-.029s.266.011.406.029c.729.094 1.589.426 2.526.939l15.081 8.267c1.117.612 1.946 1.264 2.349 1.927.065.107.122.226.176.35.279.647.408 1.518.408 2.545v16.533c0 1.027-.129 1.898-.408 2.544" clip-path="url(#mikrotik_svg__a)" transform="matrix(1.0751 0 0 -1.0751 -52.553 155.94)"/></svg>