<svg xmlns="http://www.w3.org/2000/svg" viewBox="0 0 48 48"><path fill="#94e16a" fill-opacity=".927" d="m24 24.002-20.786-12L24 .002l20.785 12z"/><path fill="#7b6e41" fill-opacity=".973" d="M3.216 36.003v-24l20.786 12v24z"/><path fill="#302e11" fill-opacity=".97" d="M44.785 36.003v-24L24 24.003v24z"/><g stroke-width="1.814"><path fill="#adf184" d="m21.402 22.503 2.599-1.5 2.598 1.5-2.598 1.5z"/><path fill="#7bd454" d="m21.402 19.503 2.598-1.5 2.599 1.5-2.599 1.5z"/><path fill="#9ce86f" d="m21.402 16.503 2.599-1.5 2.598 1.5-2.598 1.5zM21.403 13.503l2.598-1.5 2.598 1.5-2.598 1.5z"/><path fill="#8adf5e" d="m21.402 10.503 2.599-1.5 2.598 1.5-2.598 1.5z"/><path fill="#9ce86f" d="m21.402 7.503 2.599-1.5 2.598 1.5L24 9.003z"/><g fill="#8adf5e"><path d="m21.402 4.503 2.599-1.5 2.598 1.5L24 6.003zM21.402 1.503l2.599-1.5 2.598 1.5L24 3.003zM24 21.003l2.6-1.5 2.597 1.5-2.598 1.5z"/></g><path fill="#adf184" d="m24 18.003 2.598-1.5 2.599 1.5-2.599 1.5z"/><path fill="#7bd454" d="m24 15.003 2.599-1.5 2.598 1.5-2.598 1.5z"/><path fill="#adf184" d="m24.001 12.003 2.598-1.5 2.598 1.5-2.598 1.5z"/><g fill="#9ce86f"><path d="m24 9.003 2.599-1.5 2.598 1.5-2.598 1.5zM24 6.003l2.599-1.5 2.598 1.5-2.598 1.5zM24 3.003l2.599-1.5 2.598 1.5-2.598 1.5zM16.206 19.503l2.598-1.5 2.598 1.5-2.598 1.5zM16.207 16.503l2.598-1.5 2.598 1.5-2.598 1.5z"/></g><path fill="#adf184" d="m16.206 13.503 2.598-1.5 2.598 1.5-2.598 1.5zM16.206 10.503l2.598-1.5 2.598 1.5-2.598 1.5z"/><path fill="#7bd552" d="m16.206 7.503 2.598-1.5 2.598 1.5-2.598 1.5z"/><path fill="#8adf5e" d="m16.206 4.503 2.598-1.5 2.599 1.5-2.599 1.5zM18.804 21.003l2.598-1.5 2.598 1.5-2.598 1.5z"/><path fill="#adf184" d="m18.804 18.003 2.599-1.5 2.598 1.5-2.598 1.5z"/><path fill="#8adf5e" d="m18.805 15.003 2.598-1.5 2.598 1.5-2.598 1.5z"/><path fill="#9ce86f" d="m18.804 12.003 2.598-1.5 2.599 1.5-2.599 1.5zM18.804 9.003l2.598-1.5 2.599 1.5-2.599 1.5z"/><path fill="#adf184" d="m18.804 6.003 2.598-1.5 2.599 1.5-2.599 1.5z"/><path fill="#9ce86f" d="m18.804 3.003 2.599-1.5L24 3.003l-2.598 1.5zM11.01 16.503l2.598-1.5 2.598 1.5-2.598 1.5z"/><path fill="#8adf5e" d="m11.01 13.503 2.598-1.5 2.598 1.5-2.598 1.5z"/><path fill="#9ce86f" d="m11.01 10.503 2.598-1.5 2.598 1.5-2.598 1.5z"/><g fill="#adf184"><path d="m11.01 7.503 2.598-1.5 2.598 1.5-2.598 1.5zM13.608 18.003l2.598-1.5 2.598 1.5-2.598 1.5zM13.608 15.003l2.598-1.5 2.598 1.5-2.598 1.5z"/></g><path fill="#9ce86f" d="m13.608 12.003 2.598-1.5 2.598 1.5-2.598 1.5z"/><path fill="#8adf5e" d="m13.608 9.003 2.598-1.5 2.598 1.5-2.598 1.5z"/><path fill="#9ce86f" d="m13.608 6.003 2.598-1.5 2.598 1.5-2.598 1.5zM5.813 13.503l2.598-1.5 2.599 1.5-2.599 1.5z"/><path fill="#8adf5e" d="m5.814 10.503 2.598-1.5 2.598 1.5-2.598 1.5zM8.411 15.003l2.599-1.5 2.598 1.5-2.598 1.5z"/><path fill="#7bd552" d="m8.412 12.003 2.598-1.5 2.598 1.5-2.598 1.5z"/><path fill="#9ce86f" d="m8.412 9.003 2.598-1.5 2.598 1.5-2.598 1.5z"/><g fill="#adf184"><path d="m3.215 12.003 2.598-1.5 2.598 1.5-2.598 1.5zM34.393 18.003l-2.598-1.5-2.598 1.5 2.598 1.5zM34.393 15.003l-2.598-1.5-2.598 1.5 2.598 1.5z"/></g><path fill="#8adf5e" d="m34.393 12.003-2.598-1.5-2.598 1.5 2.598 1.5zM34.393 9.003l-2.598-1.5-2.598 1.5 2.598 1.5z"/><g fill="#9ce86f"><path d="m34.393 6.003-2.598-1.5-2.598 1.5 2.598 1.5zM42.188 13.503l-2.599-1.5-2.598 1.5 2.598 1.5zM31.795 19.503l-2.598-1.5-2.598 1.5 2.598 1.5zM31.795 16.503l-2.598-1.5-2.598 1.5 2.598 1.5zM31.795 13.503l-2.598-1.5-2.599 1.5 2.599 1.5z"/></g><path fill="#adf184" d="m31.795 10.503-2.598-1.5-2.598 1.5 2.598 1.5zM31.795 7.503l-2.598-1.5-2.598 1.5 2.598 1.5z"/><path fill="#8adf5e" d="m31.795 4.503-2.598-1.5-2.599 1.5 2.599 1.5zM39.59 15.003l-2.599-1.5-2.598 1.5 2.598 1.5z"/><path fill="#adf184" d="m39.59 12.003-2.598-1.5-2.599 1.5 2.599 1.5z"/><path fill="#9ce86f" d="m39.589 9.003-2.598-1.5-2.598 1.5 2.598 1.5z"/><path fill="#8adf5e" d="m42.188 10.503-2.599-1.5-2.598 1.5 2.598 1.5z"/><g fill="#9ce86f"><path d="m36.991 16.503-2.598-1.5-2.598 1.5 2.598 1.5zM36.992 13.503l-2.599-1.5-2.598 1.5 2.598 1.5zM36.991 10.503l-2.598-1.5-2.598 1.5 2.598 1.5z"/></g><path fill="#adf184" d="m36.991 7.503-2.598-1.5-2.598 1.5 2.598 1.5zM44.785 12.003l-2.598-1.5-2.598 1.5 2.598 1.5z"/><path fill="#b0f480" d="m19.144 20.807-.34.196 2.598 1.5.34-.196z"/><path fill="#c9fa9e" d="m21.742 22.307-.34.196 2.26 1.304.338.196.34-.196 2.259-1.304-.34-.196L24 23.611z"/><path fill="#bafa8d" d="m16.546 19.307-.34.196 2.598 1.5.34-.196zM11.35 16.307l-.34.196 2.598 1.5.34-.196z"/><path fill="#c6f99d" d="m13.947 17.807-.339.196 2.598 1.5.34-.196z"/><path fill="#adf47f" d="m8.751 14.807-.34.196 2.599 1.5.34-.196z"/><path fill="#bbfa8e" d="m6.153 13.307-.34.196 2.599 1.5.34-.196z"/><path fill="#c8fb9e" d="m3.555 11.807-.34.196 2.599 1.5.34-.196z"/><path fill="#b0f480" d="m28.858 20.807.339.196-2.598 1.5-.34-.196z"/><path fill="#bafa8d" d="m31.455 19.307.34.196-2.598 1.5-.34-.196zM36.652 16.307l.34.196-2.599 1.5-.34-.196z"/><path fill="#c6f99d" d="m34.054 17.807.34.196-2.599 1.5-.34-.196z"/><path fill="#adf47f" d="m39.25 14.807.339.196-2.598 1.5-.34-.196z"/><path fill="#bbfa8e" d="m41.848 13.307.34.196-2.598 1.5-.34-.196z"/><path fill="#c8fb9e" d="m44.446 11.807.34.196-2.599 1.5-.34-.196z"/><path fill="#66432c" d="m3.215 33.003 2.598 1.5v3l-2.598-1.5z"/><path fill="#976846" d="m5.814 31.504 2.598 1.5v3l-2.598-1.5z"/><path fill="#66432c" d="m8.412 30.004 2.598 1.5v3l-2.598-1.5z"/><path fill="#986746" d="m11.01 28.503 2.598 1.5v3l-2.598-1.5z"/><g fill="#66432c"><path d="m13.608 27.003 2.598 1.5v3l-2.598-1.5zM16.206 25.503l2.598 1.5v3l-2.598-1.5zM18.804 24.003l2.598 1.5v3l-2.598-1.5z"/></g><path fill="#52a434" d="m21.402 22.503 2.599 1.5v3l-2.599-1.5z"/><path fill="#81553b" d="m5.814 34.503 2.598 1.5v3l-2.598-1.5z"/><path fill="#66432c" d="m8.412 33.003 2.598 1.5v3l-2.598-1.5z"/><path fill="#66432c" d="m11.01 31.504 2.598 1.5v3l-2.598-1.5z"/><g fill="#81553b"><path d="m13.608 30.003 2.598 1.5v3l-2.598-1.5zM16.206 28.503l2.598 1.5v3l-2.598-1.5zM18.804 27.003l2.598 1.5v3l-2.598-1.5z"/></g><path fill="#6bc348" d="m21.402 25.503 2.599 1.5v3l-2.599-1.5z"/><path fill="#ae7952" d="m3.215 27.003 2.598 1.5v3l-2.598-1.5z"/><path fill="#66432c" d="m5.814 25.503 2.598 1.5v3l-2.598-1.5z"/><path fill="#986746" d="m8.412 24.003 2.598 1.5v3l-2.598-1.5z"/><path fill="#66432c" d="m11.01 22.503 2.598 1.5v3l-2.598-1.5z"/><path fill="#52a434" d="m13.608 21.003 2.598 1.5v3l-2.598-1.5zM16.206 19.503l2.598 1.5v3l-2.598-1.5z"/><path fill="#81553b" d="m3.215 30.003 2.598 1.5v3l-2.598-1.5zM5.814 28.504l2.598 1.5v3l-2.598-1.5z"/><path fill="#66432c" d="m8.412 27.003 2.598 1.5v3l-2.598-1.5z"/><path fill="#ae7952" d="m11.01 25.503 2.598 1.5v3l-2.598-1.5z"/><g fill="#6bc348"><path d="m13.608 24.003 2.598 1.5v3l-2.598-1.5zM16.206 22.503l2.598 1.5v3l-2.598-1.5zM18.804 21.003l2.598 1.5v3l-2.598-1.5z"/></g><path fill="#986746" d="m3.215 21.003 2.598 1.5v3l-2.598-1.5z"/><path fill="#99918b" d="m5.814 19.503 2.598 1.5v3l-2.598-1.5z"/><path fill="#52a434" d="m8.412 18.003 2.598 1.5v3l-2.598-1.5z"/><path fill="#86d461" d="m11.01 16.503 2.598 1.5v3l-2.598-1.5z"/><path fill="#81553b" d="m3.215 24.003 2.598 1.5v3l-2.598-1.5zM5.814 22.503l2.598 1.5v3l-2.598-1.5z"/><path fill="#66432c" d="m8.412 21.003 2.598 1.5v3l-2.598-1.5z"/><path fill="#3c8526" d="m11.01 19.503 2.598 1.5v3l-2.598-1.5z"/><path fill="#6bc348" d="m13.608 18.003 2.598 1.5v3l-2.598-1.5z"/><path fill="#52a434" d="m3.215 15.003 2.598 1.5v3l-2.598-1.5zM5.814 13.503l2.598 1.5v3l-2.598-1.5z"/><path fill="#66432c" d="m3.215 18.002 2.598 1.5v3l-2.598-1.5zM5.814 16.503l2.598 1.5v3l-2.598-1.5z"/><path fill="#6bc348" d="m8.412 15.003 2.598 1.5v3l-2.598-1.5z"/><path fill="#86d461" d="m3.215 12.003 2.598 1.5v3l-2.598-1.5z"/><path fill="#81553b" d="M13.608 42.004v-3l-2.598-1.5v3z"/><path fill="#986746" d="M16.206 40.503v-3l-2.598-1.5v3z"/><path fill="#81553b" d="M18.804 39.004v-3l-2.598-1.5v3z"/><g fill="#66432c"><path d="M21.402 37.504v-3l-2.598-1.5v3zM24 36.003v-3l-2.598-1.5v3zM21.402 46.504v-3l-2.598-1.5v3z"/></g><path fill="#99918b" d="M11.01 40.504v-3l-2.598-1.5v3z"/><path fill="#a77956" d="M13.608 39.003v-3l-2.598-1.5v3z"/><path fill="#99918b" d="M16.206 37.504v-3l-2.598-1.5v3z"/><path fill="#ae7952" d="M18.804 36.004v-3l-2.598-1.5v3z"/><path fill="#986746" d="M21.402 34.503v-3l-2.598-1.5v3z"/><path fill="#52a434" d="M24 33.003v-3l-2.598-1.5v3z"/><path fill="#986746" d="M18.804 45.004v-3l-2.598-1.5v3z"/><path fill="#81553b" d="M21.402 43.503v-3l-2.598-1.5v3zM24 42.003v-3l-2.598-1.5v3z"/><path fill="#986746" d="M24 45.003v-3l-2.598-1.5v3z"/><path fill="#81553b" d="M16.206 43.504v-3l-2.598-1.5v3z"/><path fill="#ae7952" d="M18.804 42.003v-3l-2.598-1.5v3z"/><path fill="#986746" d="M21.402 40.504v-3l-2.598-1.5v3z"/><path fill="#66432c" d="M24 39.004v-3l-2.598-1.5v3z"/><path fill="#ae7952" d="M24 48.004v-3l-2.598-1.5v3z"/><g fill="#4b301b"><path d="M3.215 18.003v.18l2.598 1.5v-.18zM8.412 21.003v.18l5.196 3v-.18zM5.814 16.503v.18l2.598 1.5v-.18zM13.608 27.003v.18l2.598 1.5v-.18zM16.206 25.504v.18l2.598 1.5v-.18zM18.804 24.003v.18l2.598 1.5v-.18zM21.402 31.503v.18l2.599 1.5v-.18zM18.804 33.003v.18l2.598 1.5v-.18zM8.412 27.003v.18l2.598 1.5v-.18zM11.01 31.503v.18l2.598 1.5v-.18z"/></g><path fill="#664025" d="M16.206 34.504v.18l2.598 1.5v-.18z"/><path fill="#66432c" d="M3.215 24.003v.18l2.598 1.5v-.18z"/><path fill="#512f1d" d="M3.215 33.003v.18l2.598 1.5v-.18z"/><path fill="#734a31" d="M16.206 40.503v.18l2.598 1.5v-.18z"/><path fill="#653f29" d="M18.804 39.003v.18l2.598 1.5v-.18z"/><path fill="#764e32" d="M13.608 36.004v.18l2.598 1.5v-.18z"/><path fill="#654228" d="M5.814 22.503v.18l2.598 1.5v-.18z"/><path fill="#27140a" d="m24 45.004 2.598-1.5v3L24 48.004z"/><path fill="#391b0f" d="m26.599 40.503 2.598-1.5v3l-2.598 1.5z"/><path fill="#27140a" d="m29.197 36.004 2.598-1.5v3l-2.598 1.5z"/><path fill="#391b0f" d="m31.795 31.504 2.599-1.5v3l-2.599 1.5z"/><g fill="#27140a"><path d="m34.393 27.003 2.598-1.5v3l-2.598 1.5zM36.991 22.503l2.598-1.5v3l-2.598 1.5zM39.59 18.002l2.598-1.5v3l-2.598 1.5z"/></g><path fill="#135b0a" d="m42.188 13.503 2.598-1.5v3l-2.598 1.5z"/><path fill="#30190c" d="m26.599 43.504 2.598-1.5v3l-2.598 1.5z"/><path fill="#27140a" d="m29.197 39.003 2.598-1.5v3l-2.598 1.5zM31.795 34.503l2.599-1.5v3l-2.599 1.5z"/><g fill="#30190c"><path d="m34.393 30.004 2.598-1.5v3l-2.598 1.5zM36.991 25.503l2.598-1.5v3l-2.598 1.5zM39.59 21.003l2.598-1.5v3l-2.598 1.5z"/></g><path fill="#196d0f" d="m42.188 16.503 2.598-1.5v3l-2.598 1.5z"/><path fill="#402314" d="m24 39.004 2.598-1.5v3L24 42.004z"/><path fill="#27140a" d="m26.599 34.504 2.598-1.5v3l-2.598 1.5z"/><path fill="#391b0f" d="m29.197 30.003 2.598-1.5v3l-2.598 1.5z"/><path fill="#27140a" d="m31.795 25.503 2.599-1.5v3l-2.599 1.5z"/><path fill="#135b0a" d="m34.393 21.003 2.598-1.5v3l-2.598 1.5zM36.991 16.503l2.598-1.5v3l-2.598 1.5z"/><path fill="#30190c" d="m24 42.003 2.598-1.5v3L24 45.003zM26.599 37.503l2.598-1.5v3l-2.598 1.5z"/><path fill="#27140a" d="m29.197 33.004 2.598-1.5v3l-2.598 1.5z"/><path fill="#402312" d="m31.795 28.503 2.599-1.5v3l-2.599 1.5z"/><g fill="#196d0f"><path d="m34.393 24.003 2.598-1.5v3l-2.598 1.5zM36.991 19.503l2.598-1.5v3l-2.598 1.5zM39.59 15.003l2.598-1.5v3l-2.598 1.5z"/></g><path fill="#391b0f" d="m24 33.003 2.598-1.5v3L24 36.003z"/><path fill="#313133" d="m26.599 28.503 2.598-1.5v3l-2.598 1.5z"/><path fill="#135b0a" d="m29.197 24.003 2.598-1.5v3l-2.598 1.5z"/><path fill="#207713" d="m31.795 19.503 2.599-1.5v3l-2.599 1.5z"/><path fill="#30190c" d="m24 36.004 2.598-1.5v3L24 39.004zM26.599 31.503l2.598-1.5v3l-2.598 1.5z"/><path fill="#27140a" d="m29.197 27.003 2.598-1.5v3l-2.598 1.5z"/><path fill="#0e4b09" d="m31.795 22.502 2.599-1.5v3l-2.599 1.5z"/><path fill="#196d0f" d="m34.393 18.003 2.598-1.5v3l-2.598 1.5z"/><path fill="#135b0a" d="m24 27.003 2.598-1.5v3L24 30.003zM26.599 22.503l2.598-1.5v3l-2.598 1.5z"/><path fill="#27140a" d="m24 30.004 2.598-1.5v3L24 33.004zM26.599 25.503l2.598-1.5v3l-2.598 1.5z"/><path fill="#196d0f" d="m29.197 21.003 2.598-1.5v3l-2.598 1.5z"/><path fill="#207713" d="m24 24.003 2.598-1.5v3L24 27.003z"/><path fill="#30190c" d="M34.393 42.003v-3l-2.598 1.5v3z"/><path fill="#391b0f" d="M36.991 37.504v-3l-2.598 1.5v3z"/><path fill="#30190c" d="M39.59 33.003v-3l-2.598 1.5v3z"/><g fill="#27140a"><path d="M42.188 28.503v-3l-2.599 1.5v3z"/><path d="M44.785 24.004v-3l-2.598 1.5v3zM42.188 37.503v-3l-2.599 1.5v3z"/></g><path fill="#313133" d="M31.795 43.503v-3l-2.598 1.5v3z"/><path fill="#402314" d="M34.393 39.004v-3l-2.598 1.5v3z"/><path fill="#313133" d="M36.991 34.503v-3l-2.598 1.5v3z"/><path fill="#402312" d="M39.59 30.003v-3l-2.598 1.5v3z"/><path fill="#391b0f" d="M42.188 25.504v-3l-2.599 1.5v3z"/><path fill="#135b0a" d="M44.785 21.003v-3l-2.598 1.5v3z"/><path fill="#391b0f" d="M39.59 39.003v-3l-2.598 1.5v3z"/><path fill="#30190c" d="M42.188 34.504v-3l-2.599 1.5v3zM44.785 30.003v-3l-2.598 1.5v3z"/><path fill="#391b0f" d="M44.785 33.004v-3l-2.598 1.5v3z"/><path fill="#30190c" d="M36.991 40.504v-3l-2.598 1.5v3z"/><path fill="#402312" d="M39.59 36.004v-3l-2.598 1.5v3z"/><path fill="#391b0f" d="M42.188 31.503v-3l-2.599 1.5v3z"/><path fill="#27140a" d="M44.785 27.003v-3l-2.598 1.5v3z"/><path fill="#402314" d="M44.785 36.004v-3l-2.598 1.5v3z"/><g fill="#1f0e07"><path d="M24 30.003v.18l2.599-1.5v-.18zM29.197 27.003v.18l5.196-3v-.18zM26.599 25.504v.18l2.598-1.5v-.18zM34.393 27.003v.18l2.598-1.5v-.18zM36.99 22.503v.18l2.599-1.5v-.18zM39.59 18.003v.18l2.598-1.5v-.18zM42.187 22.503v.18l2.598-1.5v-.18zM39.59 27.003v.18l2.598-1.5v-.18z"/></g><path fill="#1f0e09" d="M29.197 33.003v.18l2.598-1.5v-.18zM31.795 34.504v.18l2.598-1.5v-.18z"/><path fill="#25150a" d="M36.992 31.503v.18l2.598-1.5v-.18z"/><path fill="#251106" d="M24 36.004v.18l2.599-1.5v-.18z"/><path fill="#1f0e09" d="M24 45.004v.18l2.599-1.5v-.18z"/><path fill="#2e1507" d="M36.992 37.503v.18l2.598-1.5v-.18z"/><path fill="#25150a" d="M39.59 33.003v.18l2.598-1.5v-.18z"/><path fill="#2b170a" d="M34.393 36.004v.18l2.598-1.5v-.18z"/><path fill="#271207" d="M26.599 31.503v.18l2.598-1.5v-.18z"/></g></svg>