<svg xmlns="http://www.w3.org/2000/svg" xml:space="preserve" viewBox="0 0 48 48"><style>.minecraft-classic_svg__st1{fill:#448140}.minecraft-classic_svg__st4{fill:#77a25b}.minecraft-classic_svg__st5{fill:#7dad5f}.minecraft-classic_svg__st7{fill:#729a56}.minecraft-classic_svg__st8{fill:#6e9453}.minecraft-classic_svg__st9{fill:#9fe173}.minecraft-classic_svg__st10{fill:#7da95e}.minecraft-classic_svg__st11{fill:#82b060}.minecraft-classic_svg__st12{fill:#83b462}.minecraft-classic_svg__st13{fill:#8dc167}.minecraft-classic_svg__st15{fill:#77a25a}.minecraft-classic_svg__st16{fill:#83b261}.minecraft-classic_svg__st18{fill:#8abe66}.minecraft-classic_svg__st19{fill:#7ba65c}.minecraft-classic_svg__st20{fill:#89bb65}.minecraft-classic_svg__st23{fill:#739956}.minecraft-classic_svg__st25{fill:#90c66a}.minecraft-classic_svg__st27{fill:#6f9654}.minecraft-classic_svg__st28{fill:#79a35b}.minecraft-classic_svg__st30{fill:#8bbf67}.minecraft-classic_svg__st31{fill:#93cc6c}.minecraft-classic_svg__st32{fill:#8dc368}.minecraft-classic_svg__st35{fill:#739955}.minecraft-classic_svg__st36{fill:#719755}.minecraft-classic_svg__st38{fill:#6c9050}.minecraft-classic_svg__st39{fill:#9ad871}.minecraft-classic_svg__st40{fill:#759f58}.minecraft-classic_svg__st43{fill:#7ead5f}.minecraft-classic_svg__st45{fill:#76a059}.minecraft-classic_svg__st50{fill:#82b361}.minecraft-classic_svg__st52{fill:#7aa75d}.minecraft-classic_svg__st53{fill:#80ae5f}.minecraft-classic_svg__st54{fill:#83b362}.minecraft-classic_svg__st55{fill:#7eae5f}.minecraft-classic_svg__st56{fill:#759d57}.minecraft-classic_svg__st60{fill:#7da95d}.minecraft-classic_svg__st61{fill:#75a059}.minecraft-classic_svg__st65{fill:#6d9151}.minecraft-classic_svg__st67{fill:#7fae5f}.minecraft-classic_svg__st70{fill:#88b763}.minecraft-classic_svg__st73{fill:#7ca85d}.minecraft-classic_svg__st76{fill:#9bd770}.minecraft-classic_svg__st77{fill:#82b261}.minecraft-classic_svg__st78{fill:#729955}.minecraft-classic_svg__st85{fill:#91c76b}.minecraft-classic_svg__st89{fill:#81ae5f}.minecraft-classic_svg__st92{fill:#91c96b}.minecraft-classic_svg__st93{fill:#99d56f}.minecraft-classic_svg__st95{fill:#749e58}.minecraft-classic_svg__st96{fill:#84b663}.minecraft-classic_svg__st97{fill:#729956}.minecraft-classic_svg__st100{fill:#76a25a}.minecraft-classic_svg__st102{fill:#81b060}.minecraft-classic_svg__st103{fill:#739b57}.minecraft-classic_svg__st105{fill:#90c76b}.minecraft-classic_svg__st108{fill:#79a45b}.minecraft-classic_svg__st109{fill:#92c86b}.minecraft-classic_svg__st112{fill:#749955}.minecraft-classic_svg__st114{fill:#7ca95e}.minecraft-classic_svg__st118{fill:#7caa5e}.minecraft-classic_svg__st125{fill:#98d670}.minecraft-classic_svg__st126{fill:#7ba75d}.minecraft-classic_svg__st132{fill:#7aa65c}.minecraft-classic_svg__st139{fill:#3f7c3f}.minecraft-classic_svg__st140{fill:#336e39}.minecraft-classic_svg__st141{fill:#3b793e}.minecraft-classic_svg__st145{fill:#3a743b}.minecraft-classic_svg__st150{fill:#438140}.minecraft-classic_svg__st151{fill:#3c793e}.minecraft-classic_svg__st155{fill:#4e311d}.minecraft-classic_svg__st173{fill:#6e4a30}.minecraft-classic_svg__st174{fill:#6e4a31}.minecraft-classic_svg__st175{fill:#8c6341}.minecraft-classic_svg__st176{fill:#b17b54}.minecraft-classic_svg__st178{fill:#8d6341}.minecraft-classic_svg__st182{fill:#6f4a31}.minecraft-classic_svg__st183{fill:#b17c53}.minecraft-classic_svg__st185{fill:#035a33}.minecraft-classic_svg__st186{fill:#055c34}.minecraft-classic_svg__st187{fill:#005933}.minecraft-classic_svg__st188{fill:#004f2e}.minecraft-classic_svg__st190{fill:#004b2c}.minecraft-classic_svg__st194{fill:#005130}.minecraft-classic_svg__st196{fill:#005531}.minecraft-classic_svg__st201{fill:#2a0a00}.minecraft-classic_svg__st219{fill:#482614}.minecraft-classic_svg__st220{fill:#482615}.minecraft-classic_svg__st221{fill:#603b23}.minecraft-classic_svg__st222{fill:#805132}.minecraft-classic_svg__st223{fill:#613c23}.minecraft-classic_svg__st224{fill:#394040}.minecraft-classic_svg__st225{fill:#613b23}.minecraft-classic_svg__st226{fill:#482715}.minecraft-classic_svg__st229{fill:#815232}.minecraft-classic_svg__st230{fill:#613c24}.minecraft-classic_svg__st231{fill:#2c0c01}.minecraft-classic_svg__st233{fill:#815132}.minecraft-classic_svg__st234{fill:#545656}</style><path d="M132.9 31 66.4 0-.1 31h-.1v82l12.6 5.7 8.3 3.9 8.4 3.8 12.5 5.8 16.6 7.8 4.2 1.9 4 1.9v.1h.2v.1l4-1.9 8.4-3.8 8.3-3.9 8.4-3.8 12.5-5.8 16.6-7.8 8.4-3.8v-5.1l-8.4 3.8 8.3-3.9V36.1zM45.7 83.1l4.2 1.9-8.3-3.9zM33.2 108l4.2 1.9 8.3 3.9-16.7-7.7zm-8.4-34.6 1.7.8-5.9-2.7zm-12.5 35.2-4.2-1.9 8.3 3.9zm4.2-34 8.4 3.8zm4.2 12.2 8.4 3.8zm4.1 27.6 8.3 3.9-4.2-1.9zm4.2 7.1 4.2 1.9 8.3 3.9zm16.7-2.5-8.4-3.8 12.5 5.8zm4.1-3.2 8.4 3.8zM62.3 137l-4.2-1.9 8.2 3.8zm49.9-65.6 4.2-1.9-8.3 3.9zm-8.4 34.7 8.3-3.9-16.6 7.8 4.2-1.9zM99.7 67l-8.3 3.9-4.2 1.9zm-20.9 35.4-8.4 3.8zm-8.3 19.2 8.3-3.9-4.2 1.9zm8.3 6.4-4.2 1.9L83 126zM83 90.2l8.4-3.8zm4.2 13.4 8.3-3.9-4.2 1.9zm4.1 18.6 8.3-3.9-4.2 1.9zm4.2 3.1 4.2-1.9 8.3-3.9zm8.3-9 8.4-3.8zm8.4-9-8.4 3.8 12.5-5.8zm4.1-7.1 8.4-3.8zm4.2-37.8 8.4-3.8zm0-10.2 8.4-3.8z" style="fill:#5e3f29" transform="translate(1.849)scale(.3331)"/><path d="m10.11 19.32 1.399.633v-1.7l1.399.634v3.43l1.365.634v-1.7l1.4.667v1.699l1.398.633v-1.7l1.366.634v-1.699l1.399.666v1.699l2.765 1.299v-1.732l1.332.6v-3.398L1.782 10.293v5.13l1.399.666v-1.732l1.399.666v1.699l2.765 1.299v1.699l1.399.666v-5.13l1.365.633z" class="minecraft-classic_svg__st1"/><path d="M66.4 62.1-.1 31 66.4 0 133 31z" style="fill:#74b24b" transform="translate(1.849)scale(.3331)"/><path d="m66.4 62.1-4.1-2 4.1-1.9 4.2 1.9" style="fill:#88ba65" transform="translate(1.849)scale(.3331)"/><path d="m22.6 20.02-1.398-.634 1.399-.666 1.365.666" class="minecraft-classic_svg__st4"/><path d="m21.202 19.386-1.4-.666 1.4-.633 1.399.633" class="minecraft-classic_svg__st5"/><path d="m53.9 56.2-4.1-1.9 4.1-1.9 4.2 1.9" style="fill:#739e58" transform="translate(1.849)scale(.3331)"/><path d="m18.437 18.087-1.399-.633 1.399-.666 1.366.666" class="minecraft-classic_svg__st7"/><path d="m17.038 17.454-1.366-.666 1.366-.633 1.399.633" class="minecraft-classic_svg__st8"/><path d="m15.672 16.788-1.399-.633 1.4-.666 1.365.666" class="minecraft-classic_svg__st9"/><path d="m14.273 16.155-1.399-.666 1.4-.633 1.398.633" class="minecraft-classic_svg__st10"/><path d="m12.874 15.49-1.366-.634 1.366-.633 1.4.633" class="minecraft-classic_svg__st9"/><path d="m11.509 14.856-1.4-.633 1.4-.666 1.365.666" class="minecraft-classic_svg__st11"/><path d="m10.11 14.223-1.4-.666 1.4-.633 1.399.633" class="minecraft-classic_svg__st12"/><path d="m8.71 13.557-1.365-.633 1.365-.666 1.4.666" class="minecraft-classic_svg__st13"/><path d="m16.5 38.8-4.2-2 4.2-1.9 4.1 1.9" style="fill:#67894d" transform="translate(1.849)scale(.3331)"/><path d="m5.946 12.258-1.366-.633 1.366-.633 1.399.633" class="minecraft-classic_svg__st15"/><path d="m4.58 11.625-1.399-.633 1.399-.666 1.366.666" class="minecraft-classic_svg__st16"/><path d="m4 33-4.2-2L4 29.1 8.2 31" style="fill:#769f59" transform="translate(1.849)scale(.3331)"/><path d="m25.365 20.02-1.399-.634 1.4-.666 1.365.666" class="minecraft-classic_svg__st18"/><path d="m23.966 19.386-1.365-.666 1.365-.633 1.4.633" class="minecraft-classic_svg__st19"/><path d="m22.6 18.72-1.398-.633 1.399-.633 1.365.633" class="minecraft-classic_svg__st20"/><path d="m58.1 54.3-4.2-1.9 4.2-2 4.2 2" style="fill:#90c56a" transform="translate(1.849)scale(.3331)"/><path d="m19.803 17.454-1.366-.666 1.366-.633 1.399.633" class="minecraft-classic_svg__st15"/><path d="m49.8 50.4-4.2-1.9 4.2-2 4.1 2" style="fill:#83b160" transform="translate(1.849)scale(.3331)"/><path d="m17.038 16.155-1.366-.666 1.366-.633 1.399.633" class="minecraft-classic_svg__st12"/><path d="m15.672 15.49-1.399-.634 1.4-.633 1.365.633" class="minecraft-classic_svg__st23"/><path d="m14.273 14.856-1.399-.633 1.4-.666 1.398.666" class="minecraft-classic_svg__st18"/><path d="m33.1 42.7-4.1-2 4.1-1.9 4.2 1.9" style="fill:#81af5f" transform="translate(1.849)scale(.3331)"/><path d="m11.509 13.557-1.4-.633 1.4-.666 1.365.666" class="minecraft-classic_svg__st25"/><path d="m24.8 38.8-4.2-2 4.2-1.9 4.2 1.9" style="fill:#97d26e" transform="translate(1.849)scale(.3331)"/><path d="m8.71 12.258-1.365-.633 1.365-.633 1.4.633" class="minecraft-classic_svg__st27"/><path d="m7.345 11.625-1.4-.633 1.4-.666 1.365.666" class="minecraft-classic_svg__st28"/><path d="m12.3 33-4.1-2 4.1-1.9 4.2 1.9" style="fill:#8cbf67" transform="translate(1.849)scale(.3331)"/><path d="m4.58 10.326-1.399-.633 1.399-.666 1.366.666" class="minecraft-classic_svg__st30"/><path d="m26.731 19.386-1.366-.666 1.366-.633 1.4.633" class="minecraft-classic_svg__st31"/><path d="m25.365 18.72-1.399-.633 1.4-.633 1.365.633" class="minecraft-classic_svg__st32"/><path d="m23.966 18.087-1.365-.633 1.365-.666 1.4.666" class="minecraft-classic_svg__st19"/><path d="m62.3 52.4-4.2-2 4.2-1.9 4.1 1.9" style="fill:#89bd66" transform="translate(1.849)scale(.3331)"/><path d="m58.1 50.4-4.2-1.9 4.2-2 4.2 2" style="fill:#87b664" transform="translate(1.849)scale(.3331)"/><path d="m19.803 16.155-1.366-.666 1.366-.633 1.399.633" class="minecraft-classic_svg__st32"/><path d="m18.437 15.49-1.399-.634 1.399-.633 1.366.633" class="minecraft-classic_svg__st9"/><path d="m17.038 14.856-1.366-.633 1.366-.666 1.399.666" class="minecraft-classic_svg__st18"/><path d="m15.672 14.223-1.399-.666 1.4-.633 1.365.633" class="minecraft-classic_svg__st9"/><path d="m14.273 13.557-1.399-.633 1.4-.666 1.398.666" class="minecraft-classic_svg__st7"/><path d="m12.874 12.924-1.366-.666 1.366-.633 1.4.633" class="minecraft-classic_svg__st35"/><path d="m11.509 12.258-1.4-.633 1.4-.633 1.365.633" class="minecraft-classic_svg__st36"/><path d="M24.8 34.9 20.6 33l4.2-2 4.2 2" style="fill:#6b8f50" transform="translate(1.849)scale(.3331)"/><path d="m8.71 10.992-1.365-.666 1.365-.633 1.4.633" class="minecraft-classic_svg__st38"/><path d="m7.345 10.326-1.4-.633 1.4-.666 1.365.666" class="minecraft-classic_svg__st25"/><path d="M5.946 9.693 4.58 9.027l1.366-.633 1.399.633" class="minecraft-classic_svg__st39"/><path d="m28.13 18.72-1.399-.633 1.4-.633 1.398.633" class="minecraft-classic_svg__st40"/><path d="m74.7 54.3-4.1-1.9 4.1-2 4.2 2" style="fill:#6e9352" transform="translate(1.849)scale(.3331)"/><path d="m25.365 17.454-1.399-.666 1.4-.633 1.365.633" class="minecraft-classic_svg__st32"/><path d="m23.966 16.788-1.365-.633 1.365-.666 1.4.666" class="minecraft-classic_svg__st20"/><path d="m22.6 16.155-1.398-.666 1.399-.633 1.365.633" class="minecraft-classic_svg__st27"/><path d="m58.1 46.5-4.2-1.9 4.2-1.9 4.2 1.9" style="fill:#7aa45b" transform="translate(1.849)scale(.3331)"/><path d="m19.803 14.856-1.366-.633 1.366-.666 1.399.666" class="minecraft-classic_svg__st43"/><path d="m49.8 42.7-4.2-2 4.2-1.9 4.1 1.9" style="fill:#617e47" transform="translate(1.849)scale(.3331)"/><path d="m17.038 13.557-1.366-.633 1.366-.666 1.399.666" class="minecraft-classic_svg__st8"/><path d="m15.672 12.924-1.399-.666 1.4-.633 1.365.633" class="minecraft-classic_svg__st45"/><path d="m37.3 36.8-4.2-1.9 4.2-1.9 4.2 1.9" style="fill:#7dac5f" transform="translate(1.849)scale(.3331)"/><path d="M33.1 34.9 29 33l4.1-2 4.2 2" style="fill:#84b562" transform="translate(1.849)scale(.3331)"/><path d="m29 33-4.2-2 4.2-1.9 4.1 1.9" style="fill:#79a65c" transform="translate(1.849)scale(.3331)"/><path d="m24.8 31-4.2-1.9 4.2-2 4.2 2" style="fill:#739b56" transform="translate(1.849)scale(.3331)"/><path d="m8.71 9.693-1.365-.666 1.365-.633 1.4.633" class="minecraft-classic_svg__st50"/><path d="m7.345 9.027-1.4-.633 1.4-.633 1.365.633" class="minecraft-classic_svg__st39"/><path d="m83.1 54.3-4.2-1.9 4.2-2 4.1 2" style="fill:#7aa55c" transform="translate(1.849)scale(.3331)"/><path d="m28.13 17.454-1.399-.666 1.4-.633 1.398.633" class="minecraft-classic_svg__st36"/><path d="m26.731 16.788-1.366-.633 1.366-.666 1.4.666" class="minecraft-classic_svg__st23"/><path d="m25.365 16.155-1.399-.666 1.4-.633 1.365.633" class="minecraft-classic_svg__st7"/><path d="m23.966 15.49-1.365-.634 1.365-.633 1.4.633" class="minecraft-classic_svg__st27"/><path d="m22.6 14.856-1.398-.633 1.399-.666 1.365.666" class="minecraft-classic_svg__st52"/><path d="m21.202 14.223-1.4-.666 1.4-.633 1.399.633" class="minecraft-classic_svg__st53"/><path d="m19.803 13.557-1.366-.633 1.366-.666 1.399.666" class="minecraft-classic_svg__st54"/><path d="m18.437 12.924-1.399-.666 1.399-.633 1.366.633" class="minecraft-classic_svg__st15"/><path d="m17.038 12.258-1.366-.633 1.366-.633 1.399.633" class="minecraft-classic_svg__st55"/><path d="m15.672 11.625-1.399-.633 1.4-.666 1.365.666" class="minecraft-classic_svg__st56"/><path d="m37.3 33-4.2-2 4.2-1.9 4.2 1.9" style="fill:#83b361" transform="translate(1.849)scale(.3331)"/><path d="M33.1 31 29 29.1l4.1-2 4.2 2" style="fill:#8bbe66" transform="translate(1.849)scale(.3331)"/><path d="m11.509 9.693-1.4-.666 1.4-.633 1.365.633" class="minecraft-classic_svg__st45"/><path d="m24.8 27.1-4.2-1.9 4.2-1.9 4.2 1.9" style="fill:#93cb6c" transform="translate(1.849)scale(.3331)"/><path d="m8.71 8.394-1.365-.633 1.365-.666 1.4.666" class="minecraft-classic_svg__st40"/><path d="m30.895 17.454-1.366-.666 1.366-.633 1.399.633" class="minecraft-classic_svg__st60"/><path d="m29.53 16.788-1.4-.633 1.4-.666 1.365.666" class="minecraft-classic_svg__st61"/><path d="m78.9 48.5-4.2-2 4.2-1.9 4.2 1.9" style="fill:#78a35b" transform="translate(1.849)scale(.3331)"/><path d="m74.7 46.5-4.1-1.9 4.1-1.9 4.2 1.9" style="fill:#7daa5d" transform="translate(1.849)scale(.3331)"/><path d="m70.6 44.6-4.2-1.9 4.2-2 4.1 2" style="fill:#749f58" transform="translate(1.849)scale(.3331)"/><path d="m23.966 14.223-1.365-.666 1.365-.633 1.4.633" class="minecraft-classic_svg__st32"/><path d="m22.6 13.557-1.398-.633 1.399-.666 1.365.666" class="minecraft-classic_svg__st65"/><path d="m58.1 38.8-4.2-2 4.2-1.9 4.2 1.9" style="fill:#a1e173" transform="translate(1.849)scale(.3331)"/><path d="m19.803 12.258-1.366-.633 1.366-.633 1.399.633" class="minecraft-classic_svg__st67"/><path d="m18.437 11.625-1.399-.633 1.399-.666 1.366.666" class="minecraft-classic_svg__st10"/><path d="m45.6 33-4.1-2 4.1-1.9 4.2 1.9" style="fill:#98d56f" transform="translate(1.849)scale(.3331)"/><path d="m15.672 10.326-1.399-.633 1.4-.666 1.365.666" class="minecraft-classic_svg__st56"/><path d="m37.3 29.1-4.2-2 4.2-1.9 4.2 1.9" style="fill:#8dc268" transform="translate(1.849)scale(.3331)"/><path d="m12.874 9.027-1.366-.633 1.366-.633 1.4.633" class="minecraft-classic_svg__st54"/><path d="m11.509 8.394-1.4-.633 1.4-.666 1.365.666" class="minecraft-classic_svg__st70"/><path d="m10.11 7.761-1.4-.666 1.4-.633 1.399.633" class="minecraft-classic_svg__st70"/><path d="m91.4 50.4-4.2-1.9 4.2-2 4.2 2" style="fill:#739a56" transform="translate(1.849)scale(.3331)"/><path d="m30.895 16.155-1.366-.666 1.366-.633 1.399.633" class="minecraft-classic_svg__st60"/><path d="m83.1 46.5-4.2-1.9 4.2-1.9 4.1 1.9" style="fill:#96d16d" transform="translate(1.849)scale(.3331)"/><path d="m28.13 14.856-1.399-.633 1.4-.666 1.398.666" class="minecraft-classic_svg__st73"/><path d="m74.7 42.7-4.1-2 4.1-1.9 4.2 1.9" style="fill:#90c569" transform="translate(1.849)scale(.3331)"/><path d="m25.365 13.557-1.399-.633 1.4-.666 1.365.666" class="minecraft-classic_svg__st67"/><path d="m23.966 12.924-1.365-.666 1.365-.633 1.4.633" class="minecraft-classic_svg__st43"/><path d="m22.6 12.258-1.398-.633 1.399-.633 1.365.633" class="minecraft-classic_svg__st15"/><path d="m21.202 11.625-1.4-.633 1.4-.666 1.399.666" class="minecraft-classic_svg__st23"/><path d="m19.803 10.992-1.366-.666 1.366-.633 1.399.633" class="minecraft-classic_svg__st25"/><path d="m49.8 31-4.2-1.9 4.2-2 4.1 2" style="fill:#83b463" transform="translate(1.849)scale(.3331)"/><path d="m17.038 9.693-1.366-.666 1.366-.633 1.399.633" class="minecraft-classic_svg__st73"/><path d="m15.672 9.027-1.399-.633 1.4-.633 1.365.633" class="minecraft-classic_svg__st73"/><path d="m14.273 8.394-1.399-.633 1.4-.666 1.398.666" class="minecraft-classic_svg__st76"/><path d="m12.874 7.761-1.366-.666 1.366-.633 1.4.633" class="minecraft-classic_svg__st56"/><path d="m11.509 7.095-1.4-.633 1.4-.633 1.365.633" class="minecraft-classic_svg__st77"/><path d="m33.693 16.155-1.4-.666 1.4-.633 1.366.633" class="minecraft-classic_svg__st78"/><path d="m32.294 15.49-1.4-.634 1.4-.633 1.399.633" class="minecraft-classic_svg__st36"/><path d="m30.895 14.856-1.366-.633 1.366-.666 1.399.666" class="minecraft-classic_svg__st55"/><path d="m29.53 14.223-1.4-.666 1.4-.633 1.365.633" class="minecraft-classic_svg__st61"/><path d="m78.9 40.7-4.2-1.9 4.2-2 4.2 2" style="fill:#80ad5f" transform="translate(1.849)scale(.3331)"/><path d="m74.7 38.8-4.1-2 4.1-1.9 4.2 1.9" style="fill:#749b57" transform="translate(1.849)scale(.3331)"/><path d="m70.6 36.8-4.2-1.9 4.2-1.9 4.1 1.9" style="fill:#90c76a" transform="translate(1.849)scale(.3331)"/><path d="M66.4 34.9 62.3 33l4.1-2 4.2 2" style="fill:#96d26e" transform="translate(1.849)scale(.3331)"/><path d="m62.3 33-4.2-2 4.2-1.9 4.1 1.9" style="fill:#87b864" transform="translate(1.849)scale(.3331)"/><path d="m58.1 31-4.2-1.9 4.2-2 4.2 2" style="fill:#92c96b" transform="translate(1.849)scale(.3331)"/><path d="m19.803 9.693-1.366-.666 1.366-.633 1.399.633" class="minecraft-classic_svg__st7"/><path d="m18.437 9.027-2.765-1.266 1.366-.666 2.765 1.3" class="minecraft-classic_svg__st85"/><path d="m15.672 7.761-1.399-.666 1.4-.633 1.365.633" class="minecraft-classic_svg__st76"/><path d="m14.273 7.095-1.399-.633 1.4-.633 1.398.633" class="minecraft-classic_svg__st77"/><path d="m12.874 6.462-1.366-.633 1.366-.666 1.4.666" class="minecraft-classic_svg__st56"/><path d="m35.059 15.49-1.366-.634 1.366-.633 1.399.633" class="minecraft-classic_svg__st25"/><path d="m33.693 14.856-1.4-.633 1.4-.666 1.366.666" class="minecraft-classic_svg__st36"/><path d="m91.4 42.7-4.2-2 4.2-1.9 4.2 1.9" style="fill:#89bc66" transform="translate(1.849)scale(.3331)"/><path d="m30.895 13.557-1.366-.633 1.366-.666 1.399.666" class="minecraft-classic_svg__st43"/><path d="m29.53 12.924-1.4-.666 1.4-.633 1.365.633" class="minecraft-classic_svg__st7"/><path d="m28.13 12.258-1.399-.633 1.4-.633 1.398.633" class="minecraft-classic_svg__st4"/><path d="m26.731 11.625-1.366-.633 1.366-.666 1.4.666" class="minecraft-classic_svg__st31"/><path d="m25.365 10.992-1.399-.666 1.4-.633 1.365.633" class="minecraft-classic_svg__st16"/><path d="m66.4 31-4.1-1.9 4.1-2 4.2 2" style="fill:#759e58" transform="translate(1.849)scale(.3331)"/><path d="m62.3 29.1-4.2-2 4.2-1.9 4.1 1.9" style="fill:#8ec368" transform="translate(1.849)scale(.3331)"/><path d="m21.202 9.027-1.4-.633 1.4-.633 1.399.633" class="minecraft-classic_svg__st7"/><path d="m19.803 8.394-1.366-.633 1.366-.666 1.399.666" class="minecraft-classic_svg__st5"/><path d="m18.437 7.761-1.399-.666 1.399-.633 1.366.633" class="minecraft-classic_svg__st89"/><path d="m17.038 7.095-1.366-.633 1.366-.633 1.399.633" class="minecraft-classic_svg__st20"/><path d="m15.672 6.462-1.399-.633 1.4-.666 1.365.666" class="minecraft-classic_svg__st15"/><path d="m37.3 17.5-4.2-2 4.2-1.9 4.2 1.9" style="fill:#7daa5e" transform="translate(1.849)scale(.3331)"/><path d="m36.458 14.856-1.4-.633 1.4-.666 1.365.666" class="minecraft-classic_svg__st10"/><path d="m35.059 14.223-1.366-.666 1.366-.633 1.399.633" class="minecraft-classic_svg__st50"/><path d="m95.6 40.7-4.2-1.9 4.1-2 4.2 2" style="fill:#8dc469" transform="translate(1.849)scale(.3331)"/><path d="m32.294 12.924-1.4-.666 1.4-.633 1.366.633" class="minecraft-classic_svg__st43"/><path d="m30.895 12.258-1.366-.633 1.366-.633 1.399.633" class="minecraft-classic_svg__st92"/><path d="m29.53 11.625-1.4-.633 1.4-.666 1.365.666" class="minecraft-classic_svg__st93"/><path d="m28.13 10.992-1.399-.666 1.4-.633 1.398.633" class="minecraft-classic_svg__st4"/><path d="m26.731 10.326-1.366-.633 1.366-.666 1.4.666" class="minecraft-classic_svg__st40"/><path d="m25.365 9.693-1.399-.666 1.4-.633 1.365.633" class="minecraft-classic_svg__st78"/><path d="m66.4 27.1-4.1-1.9 4.1-1.9 4.2 1.9" style="fill:#79a55c" transform="translate(1.849)scale(.3331)"/><path d="m22.6 8.394-1.398-.633 1.399-.666 1.365.666" class="minecraft-classic_svg__st95"/><path d="m21.202 7.761-1.4-.666 1.4-.633 1.399.633" class="minecraft-classic_svg__st53"/><path d="m19.803 7.095-1.366-.633 1.366-.633 1.399.633" class="minecraft-classic_svg__st89"/><path d="m18.437 6.462-1.399-.633 1.399-.666 1.366.666" class="minecraft-classic_svg__st13"/><path d="m17.038 5.83-1.366-.667 1.366-.633 1.399.633" class="minecraft-classic_svg__st96"/><path d="m15.672 5.163-1.399-.633 1.4-.666 1.365.666" class="minecraft-classic_svg__st97"/><path d="m37.823 14.223-1.365-.666 1.365-.633 1.4.633" class="minecraft-classic_svg__st11"/><path d="m36.458 13.557-1.4-.633 1.4-.666 1.365.666" class="minecraft-classic_svg__st73"/><path d="m99.7 38.8-4.2-2 4.2-1.9 4.2 1.9" style="fill:#76a25b" transform="translate(1.849)scale(.3331)"/><path d="m95.5 36.8-4.1-1.9 4.2-1.9 4.1 1.9" style="fill:#6d9050" transform="translate(1.849)scale(.3331)"/><path d="m32.294 11.625-1.4-.633 1.4-.666 1.399.666" class="minecraft-classic_svg__st95"/><path d="m30.895 10.992-1.366-.666 1.366-.633 1.399.633" class="minecraft-classic_svg__st100"/><path d="m29.53 10.326-1.4-.633 1.4-.666 1.365.666" class="minecraft-classic_svg__st11"/><path d="m28.13 9.693-1.399-.666 1.4-.633 1.398.633" class="minecraft-classic_svg__st100"/><path d="m74.7 27.1-4.1-1.9 4.1-1.9 4.2 1.9" style="fill:#89b864" transform="translate(1.849)scale(.3331)"/><path d="m25.365 8.394-1.399-.633 1.4-.666 1.365.666" class="minecraft-classic_svg__st102"/><path d="m23.966 7.761-1.365-.666 1.365-.633 1.4.633" class="minecraft-classic_svg__st16"/><path d="m22.6 7.095-1.398-.633L22.6 5.83l1.365.633" class="minecraft-classic_svg__st103"/><path d="m58.1 19.4-4.2-1.9 4.2-2 4.2 2" style="fill:#8dc369" transform="translate(1.849)scale(.3331)"/><path d="m19.803 5.83-1.366-.667 1.366-.633 1.399.633" class="minecraft-classic_svg__st65"/><path d="m18.437 5.163-1.399-.633 1.399-.666 1.366.666" class="minecraft-classic_svg__st96"/><path d="m17.038 4.53-1.366-.666 1.366-.633 1.399.633" class="minecraft-classic_svg__st96"/><path d="m39.222 13.557-1.399-.633 1.4-.666 1.398.666" class="minecraft-classic_svg__st73"/><path d="m37.823 12.924-1.365-.666 1.365-.633 1.4.633" class="minecraft-classic_svg__st28"/><path d="m36.458 12.258-1.4-.633 1.4-.633 1.365.633" class="minecraft-classic_svg__st38"/><path d="m35.059 11.625-1.366-.633 1.366-.666 1.399.666" class="minecraft-classic_svg__st105"/><path d="m33.693 10.992-1.4-.666 1.367-.633 1.399.633" class="minecraft-classic_svg__st105"/><path d="m32.294 10.326-1.4-.633 1.4-.666 1.366.666" class="minecraft-classic_svg__st35"/><path d="m87.2 29.1-4.1-2 4.1-1.9 4.2 1.9" style="fill:#6b8e50" transform="translate(1.849)scale(.3331)"/><path d="m83.1 27.1-4.2-1.9 4.2-1.9 4.1 1.9" style="fill:#9bda71" transform="translate(1.849)scale(.3331)"/><path d="m28.13 8.394-1.399-.633 1.4-.666 1.398.666" class="minecraft-classic_svg__st85"/><path d="m26.731 7.761-1.366-.666 1.366-.633 1.4.633" class="minecraft-classic_svg__st108"/><path d="m25.365 7.095-1.399-.633 1.4-.633 1.365.633" class="minecraft-classic_svg__st109"/><path d="m23.966 6.462-1.365-.633 1.365-.666 1.4.666" class="minecraft-classic_svg__st109"/><path d="m22.6 5.83-1.398-.667L22.6 4.53l1.365.633" class="minecraft-classic_svg__st103"/><path d="m58.1 15.5-4.2-1.9 4.2-2 4.2 2" style="fill:#92ca6b" transform="translate(1.849)scale(.3331)"/><path d="m19.803 4.53-1.366-.666 1.366-.633 1.399.633" class="minecraft-classic_svg__st95"/><path d="m49.8 11.6-4.2-1.9 4.2-1.9 4.1 1.9" style="fill:#83bb5d" transform="translate(1.849)scale(.3331)"/><path d="m40.621 12.924-1.399-.666 1.4-.633 1.365.633" class="minecraft-classic_svg__st112"/><path d="m39.222 12.258-1.399-.633 1.4-.633 1.398.633" class="minecraft-classic_svg__st73"/><path d="m108 34.9-4.1-1.9 4.1-2 4.2 2" style="fill:#7ba75c" transform="translate(1.849)scale(.3331)"/><path d="m36.458 10.992-1.4-.666 1.4-.633 1.365.633" class="minecraft-classic_svg__st114"/><path d="m99.7 31-4.2-1.9 4.2-2 4.2 2" style="fill:#82b161" transform="translate(1.849)scale(.3331)"/><path d="m95.5 29.1-4.1-2 4.2-1.9 4.1 1.9" style="fill:#7ca75c" transform="translate(1.849)scale(.3331)"/><path d="m32.294 9.027-1.4-.633 1.4-.633 1.399.633" class="minecraft-classic_svg__st40"/><path d="m30.895 8.394-1.366-.633 1.366-.666 1.399.666" class="minecraft-classic_svg__st97"/><path d="m29.53 7.761-1.4-.666 1.4-.633 1.365.633M28.13 7.095l-1.399-.633 1.4-.633 1.398.633" class="minecraft-classic_svg__st27"/><path d="m74.7 19.4-4.1-1.9 4.1-2 4.2 2" style="fill:#84b563" transform="translate(1.849)scale(.3331)"/><path d="m25.365 5.83-1.399-.667 1.4-.633 1.365.633" class="minecraft-classic_svg__st118"/><path d="m23.966 5.163-1.365-.633 1.365-.666 1.4.666" class="minecraft-classic_svg__st16"/><path d="m62.3 13.6-4.2-2 4.2-1.9 4.1 1.9" style="fill:#79a55b" transform="translate(1.849)scale(.3331)"/><path d="m58.1 11.6-4.2-1.9 4.2-1.9 4.2 1.9" style="fill:#76a058" transform="translate(1.849)scale(.3331)"/><path d="m53.9 9.7-4.1-1.9 4.1-2 4.2 2" style="fill:#6d9052" transform="translate(1.849)scale(.3331)"/><path d="m41.987 12.258-1.366-.633 1.366-.633 1.4.633" class="minecraft-classic_svg__st93"/><path d="m40.621 11.625-1.399-.633 1.4-.666 1.365.666" class="minecraft-classic_svg__st112"/><path d="m39.222 10.992-1.399-.666 1.4-.633 1.398.633" class="minecraft-classic_svg__st38"/><path d="m108 31-4.1-1.9 4.1-2 4.2 2" style="fill:#77a159" transform="translate(1.849)scale(.3331)"/><path d="m36.458 9.693-1.4-.666 1.4-.633 1.365.633" class="minecraft-classic_svg__st92"/><path d="m99.7 27.1-4.1-1.9 4.1-1.9 4.2 1.9" style="fill:#8fc468" transform="translate(1.849)scale(.3331)"/><path d="m95.6 25.2-4.2-1.9 4.2-2 4.1 2" style="fill:#8bbc65" transform="translate(1.849)scale(.3331)"/><path d="m32.294 7.761-1.4-.666 1.4-.633 1.399.633" class="minecraft-classic_svg__st102"/><path d="m30.895 7.095-1.366-.633 1.366-.633 1.399.633" class="minecraft-classic_svg__st118"/><path d="m29.53 6.462-1.4-.633 1.4-.666 1.365.666" class="minecraft-classic_svg__st114"/><path d="m28.13 5.83-1.399-.667 1.4-.633 1.398.633" class="minecraft-classic_svg__st100"/><path d="m26.731 5.163-1.366-.633 1.366-.666 1.4.666" class="minecraft-classic_svg__st100"/><path d="m25.365 4.53-1.399-.666 1.4-.633 1.365.633" class="minecraft-classic_svg__st56"/><path d="m23.966 3.864-1.365-.633 1.365-.633 1.4.633M22.6 3.231l-1.398-.633 1.399-.666 1.365.666" class="minecraft-classic_svg__st125"/><path d="m21.202 2.598-1.4-.666 1.4-.633 1.399.633" class="minecraft-classic_svg__st30"/><path d="m43.386 11.625-1.399-.633 1.4-.666 1.365.666" class="minecraft-classic_svg__st126"/><path d="m41.987 10.992-1.366-.666 1.366-.633 1.4.633" class="minecraft-classic_svg__st100"/><path d="m40.621 10.326-1.399-.633 1.4-.666 1.365.666" class="minecraft-classic_svg__st52"/><path d="m39.222 9.693-1.399-.666 1.4-.633 1.398.633" class="minecraft-classic_svg__st103"/><path d="m108 27.1-4.1-1.9 4.1-1.9 4.2 1.9" style="fill:#81af60" transform="translate(1.849)scale(.3331)"/><path d="m103.9 25.2-4.2-1.9 4.2-2 4.1 2" style="fill:#8dc468" transform="translate(1.849)scale(.3331)"/><path d="m99.7 23.3-4.1-2 4.1-1.9 4.2 1.9" style="fill:#91c76a" transform="translate(1.849)scale(.3331)"/><path d="m33.693 7.095-1.4-.633 1.4-.633 1.366.633" class="minecraft-classic_svg__st78"/><path d="m32.294 6.462-1.4-.633 1.4-.666 1.399.666" class="minecraft-classic_svg__st97"/><path d="m30.895 5.83-1.366-.667 1.366-.633 1.399.633" class="minecraft-classic_svg__st108"/><path d="m29.53 5.163-1.4-.633 1.4-.666 1.365.666" class="minecraft-classic_svg__st23"/><path d="m28.13 4.53-1.399-.666 1.4-.633 1.398.633" class="minecraft-classic_svg__st11"/><path d="m26.731 3.864-1.366-.633 1.366-.633 1.4.633" class="minecraft-classic_svg__st11"/><path d="m70.6 9.7-4.2-1.9 4.2-2 4.1 2" style="fill:#8abd66" transform="translate(1.849)scale(.3331)"/><path d="m23.966 2.598-1.365-.666 1.365-.633 1.4.633" class="minecraft-classic_svg__st52"/><path d="m22.6 1.932-1.398-.633L22.6.633l1.365.666" class="minecraft-classic_svg__st11"/><path d="m44.752 10.992-1.366-.666 1.366-.633 1.399.633" class="minecraft-classic_svg__st73"/><path d="m124.7 31-4.2-1.9 4.2-2 4.1 2" style="fill:#68884c" transform="translate(1.849)scale(.3331)"/><path d="m41.987 9.693-1.366-.666 1.366-.633 1.4.633" class="minecraft-classic_svg__st103"/><path d="m40.621 9.027-1.399-.633 1.4-.633 1.365.633" class="minecraft-classic_svg__st52"/><path d="m39.222 8.394-1.399-.633 1.4-.666 1.398.666" class="minecraft-classic_svg__st132"/><path d="m37.823 7.761-1.365-.666 1.365-.633 1.4.633" class="minecraft-classic_svg__st132"/><path d="m103.9 21.3-4.2-1.9 4.2-1.9 4.1 1.9" style="fill:#82af60" transform="translate(1.849)scale(.3331)"/><path d="m99.7 19.4-4.1-1.9 4.1-2 4.2 2" style="fill:#86b663" transform="translate(1.849)scale(.3331)"/><path d="m33.693 5.83-1.4-.667 1.4-.633 1.366.633" class="minecraft-classic_svg__st126"/><path d="m32.294 5.163-1.4-.633 1.4-.666 1.399.666" class="minecraft-classic_svg__st97"/><path d="m30.895 4.53-1.366-.666 1.366-.633 1.399.633" class="minecraft-classic_svg__st60"/><path d="m83.1 11.6-8.4-3.8 4.2-2 8.3 3.9" style="fill:#77a15a" transform="translate(1.849)scale(.3331)"/><path d="m26.731 2.598-1.366-.666 1.366-.633 1.4.633M25.365 1.932l-1.399-.633 1.4-.666 1.365.666" class="minecraft-classic_svg__st11"/><path d="M23.966 1.3 22.601.632 23.966 0l1.4.633" class="minecraft-classic_svg__st11"/><path d="m1.782 10.293 1.399.666v1.699l-1.399-.633" class="minecraft-classic_svg__st1"/><path d="M4 38v-5.1l4.2 1.9V40z" style="fill:#468341" transform="translate(1.849)scale(.3331)"/><path d="M8.2 40v-5.2l4.1 2v5.1z" style="fill:#428040" transform="translate(1.849)scale(.3331)"/><path d="M12.3 41.9v-5.1l8.4 3.9v5.1z" style="fill:#39743b" transform="translate(1.849)scale(.3331)"/><path d="m8.744 13.557 1.365.633v1.699l-1.365-.633" class="minecraft-classic_svg__st139"/><path d="M10.11 15.889V14.19l1.399.633v1.732z" class="minecraft-classic_svg__st140"/><path d="M11.509 16.555v-1.732l1.399.666v1.699z" class="minecraft-classic_svg__st141"/><path d="M33.2 51.6v-5.1l4.1 1.9v5.2z" style="fill:#4b8b43" transform="translate(1.849)scale(.3331)"/><path d="m37.3 48.4 4.2 2v5.1l-4.2-1.9" style="fill:#458241" transform="translate(1.849)scale(.3331)"/><path d="m41.5 50.4 4.2 1.9v5.1l-4.2-1.9" style="fill:#3a773d" transform="translate(1.849)scale(.3331)"/><path d="m17.071 17.421 1.366.666v1.7l-1.366-.667" class="minecraft-classic_svg__st145"/><path d="m49.8 54.3 4.2 1.9v5.1l-4.2-1.9" style="fill:#3a763d" transform="translate(1.849)scale(.3331)"/><path d="m54 56.2 4.2 1.9v5.2l-4.2-2" style="fill:#356f39" transform="translate(1.849)scale(.3331)"/><path d="m58.2 58.1 4.1 2v5.1l-4.1-1.9" style="fill:#256033" transform="translate(1.849)scale(.3331)"/><path d="m62.3 60.1 4.2 1.9v5.2l-4.2-2" style="fill:#3e7b3e" transform="translate(1.849)scale(.3331)"/><path d="M1.782 13.724v-1.7l1.399.634v1.699z" class="minecraft-classic_svg__st150"/><path d="M3.181 14.357v-1.7l1.399.667v1.699z" class="minecraft-classic_svg__st151"/><path d="M8.2 45.1V40l4.1 1.9V47z" style="fill:#588540" transform="translate(1.849)scale(.3331)"/><path d="M12.3 47v-5.1l4.2 1.9V49z" style="fill:#4f7c3d" transform="translate(1.849)scale(.3331)"/><path d="M16.5 49v-5.2l4.2 2v5.1z" style="fill:#517d3e" transform="translate(1.849)scale(.3331)"/><path d="M11.509 19.953v-1.7l1.399.634v3.43l-4.164-1.931v-5.13l1.365.633v3.43z" class="minecraft-classic_svg__st155"/><path d="M24.8 52.9v-5.2l4.2 2v5.1z" style="fill:#39753b" transform="translate(1.849)scale(.3331)"/><path d="M29 54.8v-5.1l4.2 1.9v5.1z" style="fill:#35703a" transform="translate(1.849)scale(.3331)"/><path d="M12.908 18.887v-1.699l1.365.666v1.699z" class="minecraft-classic_svg__st140"/><path d="m37.3 53.6 4.2 1.9v5.1l-4.2-1.9" style="fill:#608d42" transform="translate(1.849)scale(.3331)"/><path d="m41.5 55.5 4.2 1.9v5.2l-4.2-2" style="fill:#5d8b42" transform="translate(1.849)scale(.3331)"/><path d="m45.7 57.4 4.1 2v5.1l-4.1-1.9" style="fill:#418040" transform="translate(1.849)scale(.3331)"/><path d="m49.8 59.4 4.2 1.9v5.2l-4.2-2" style="fill:#356f3a" transform="translate(1.849)scale(.3331)"/><path d="m19.836 20.419 1.399.666v1.699l-1.399-.633" class="minecraft-classic_svg__st141"/><path d="m21.235 21.085 1.366.633v1.699l-1.366-.633" class="minecraft-classic_svg__st145"/><path d="m22.6 21.718 1.4.666v1.7l-1.4-.667" class="minecraft-classic_svg__st151"/><path d="M-.2 46.3v-5.1L4 43.1v5.2z" style="fill:#5a8640" transform="translate(1.849)scale(.3331)"/><path d="M3.181 16.089v-1.732l1.399.666v1.699z" class="minecraft-classic_svg__st155"/><path d="m8.2 45.1 4.1 1.9v5.2l-4.1-2" style="fill:#679948" transform="translate(1.849)scale(.3331)"/><path d="M12.3 52.2V47l4.2 2v5.1z" style="fill:#36733b" transform="translate(1.849)scale(.3331)"/><path d="M16.5 54.1V49l4.2 1.9V56z" style="fill:#3a763c" transform="translate(1.849)scale(.3331)"/><path d="M10.11 19.32V17.62l1.399.633v1.699z" class="minecraft-classic_svg__st139"/><path d="M12.908 20.619v-1.732l1.365.666v1.699z" class="minecraft-classic_svg__st150"/><path d="m37.3 58.7 4.2 1.9v5.2l-4.2-2" style="fill:#4c8b43" transform="translate(1.849)scale(.3331)"/><path d="m41.5 60.6 4.2 2v5.1l-4.2-1.9" style="fill:#5e8c42" transform="translate(1.849)scale(.3331)"/><path d="m45.7 62.6 4.1 1.9v5.1l-4.1-1.9" style="fill:#639246" transform="translate(1.849)scale(.3331)"/><path d="m18.437 21.485 1.399.666v1.699l-1.399-.666" class="minecraft-classic_svg__st155"/><path d="m54 66.5 4.2 1.9v5.1L54 71.6" style="fill:#2c6635" transform="translate(1.849)scale(.3331)"/><path d="m21.235 22.784 1.366.633v1.732l-1.366-.666" class="minecraft-classic_svg__st140"/><path d="m22.6 23.417 1.4.666v1.699l-1.4-.633M1.782 15.423l1.399.666v1.699l-1.399-.633" class="minecraft-classic_svg__st155"/><path d="M4 53.4v-5.1l4.2 1.9v5.1z" style="fill:#636464" transform="translate(1.849)scale(.3331)"/><path d="m4.58 16.722 2.765 1.299v1.699l-2.765-1.3" class="minecraft-classic_svg__st155"/><path d="M16.5 59.2v-5.1l4.2 1.9v5.2z" style="fill:#407d3f" transform="translate(1.849)scale(.3331)"/><path d="M12.908 22.318v-1.7l1.365.634v1.699z" class="minecraft-classic_svg__st140"/><path d="M14.273 22.95v-1.698l1.4.666v1.699l1.398.633v1.732l-2.798-1.3v1.7L10.11 24.45v-1.733l2.799 1.3v-1.7z" class="minecraft-classic_svg__st155"/><path d="M41.5 70.9v-5.1l4.2 1.9v5.1z" style="fill:#3e7b3f" transform="translate(1.849)scale(.3331)"/><path d="M17.071 24.25v-1.7l1.366.634v1.732z" class="minecraft-classic_svg__st155"/><path d="M18.437 33.443v5.13l2.798 1.3v1.698l-1.399-.633v1.699l1.399.633v1.732l-2.798-1.3v-3.43l-4.164-1.932v1.699l2.798 1.299v1.699l1.366.666v1.699l-2.765-1.3v-1.698l-2.764-1.3v-3.43l-1.4-.633v-1.7l5.563 2.566v-3.398l-5.563-2.598v-1.699l1.4.633v-1.699l1.365.666v1.7l2.798 1.298v-1.732l1.366.666v-8.56l1.399.666v3.398l2.765 1.299v3.43l-1.366-.666v-1.698l-1.399-.633v1.699l1.399.632v3.431z" class="minecraft-classic_svg__st173"/><path d="m19.836 23.85 2.765 1.299v3.398l-1.366-.633v-1.699l-1.399-.666" class="minecraft-classic_svg__st155"/><path d="m22.6 25.15 1.4.632v3.43l-1.4-.665" class="minecraft-classic_svg__st174"/><path d="M1.782 18.853v-1.698l1.399.633v1.698z" class="minecraft-classic_svg__st175"/><path d="m3.181 17.788 1.399.632v1.733l-1.399-.667" class="minecraft-classic_svg__st173"/><path d="M4.58 21.851v-3.43l1.366.666v1.698l1.399.667v1.698z" class="minecraft-classic_svg__st175"/><path d="M5.946 20.785v-1.698l1.399.633v1.732z" class="minecraft-classic_svg__st176"/><path d="M7.345 21.452V19.72l1.399.666v1.699z" class="minecraft-classic_svg__st155"/><path d="M8.744 23.783v-3.397l1.365.633v3.43z" class="minecraft-classic_svg__st175"/><path d="M10.11 22.717V21.02l2.798 1.299v1.699z" class="minecraft-classic_svg__st173"/><path d="M45.7 78v-5.2l4.1 2v5.1z" style="fill:#626363" transform="translate(1.849)scale(.3331)"/><path d="m19.836 25.549 1.399.666v1.699l-1.399-.666" class="minecraft-classic_svg__st178"/><path d="M1.782 20.552v-1.699l1.399.633v1.732z" class="minecraft-classic_svg__st173"/><path d="M3.181 22.917v-3.43l1.399.666v3.397z" class="minecraft-classic_svg__st155"/><path d="M7.345 23.15v-1.698l1.399.633v1.698zM14.273 28.08v-3.397l2.798 1.299v1.699l-1.399-.667v1.733z" class="minecraft-classic_svg__st173"/><path d="M17.071 27.68v-1.698l1.366.633v1.699z" class="minecraft-classic_svg__st155"/><path d="m22.6 28.547 1.4.666v1.699l-1.4-.633M1.782 20.552l1.399.666v3.398l-1.399-.633" class="minecraft-classic_svg__st176"/><path d="M4.58 23.55v-1.699l2.765 1.3v1.698z" class="minecraft-classic_svg__st173"/><path d="M16.5 74.6v-5.1l4.2 1.9v5.2z" style="fill:#7e7e7d" transform="translate(1.849)scale(.3331)"/><path d="M11.509 25.082v1.7l1.399.665v1.7l-1.4-.634v1.7l-1.399-.634v-3.43l-1.365-.634v-1.732z" class="minecraft-classic_svg__st173"/><path d="M11.509 26.781v-1.699l2.764 1.3v1.698zM15.672 28.747v-1.733l2.765 1.3v1.732z" class="minecraft-classic_svg__st176"/><path d="m19.836 28.98 1.399.633v1.698l-1.399-.632M22.6 30.279l1.4.633v3.43l-2.765-1.298V31.31l1.366.667" class="minecraft-classic_svg__st178"/><path d="m3.181 22.917 1.399.633v1.732l1.366.633v1.699l-2.765-1.3" class="minecraft-classic_svg__st173"/><path d="m4.58 23.55 2.765 1.3v1.698L4.58 25.282" class="minecraft-classic_svg__st176"/><path d="m7.345 24.85 2.764 1.298v3.431l-1.365-.666v-1.699l-1.4-.666M12.908 29.146v-1.699l1.365.633v1.732z" class="minecraft-classic_svg__st175"/><path d="M14.273 29.812V28.08l1.4.667v1.698z" class="minecraft-classic_svg__st155"/><path d="M17.071 31.078v1.732l-2.798-1.299v-1.699l1.4.633v-1.698l2.764 1.299v1.698zM1.782 23.983l1.399.633v1.699l1.399.666v3.398l-1.399-.633v1.699l-1.399-.633M5.946 25.915l1.399.633v1.732l-1.4-.666" class="minecraft-classic_svg__st175"/><path d="m7.345 26.548 1.399.666v3.398l-2.798-1.266v-1.732l1.399.666" class="minecraft-classic_svg__st173"/><path d="M11.509 30.212v-1.699l1.399.633v1.7zM21.235 33.044l1.366.632v1.7l-1.366-.634" class="minecraft-classic_svg__st155"/><path d="m22.6 33.676 1.4.667v1.698l-1.4-.666" class="minecraft-classic_svg__st173"/><path d="m4.58 26.981 1.366.633v1.732L4.58 28.68M8.744 28.913l2.765 1.3v1.698l-2.765-1.3" class="minecraft-classic_svg__st155"/><path d="m18.437 33.443 2.798 1.3v1.698l-2.798-1.299" class="minecraft-classic_svg__st176"/><path d="m21.235 34.742 1.366.633v1.732l-1.366-.666" class="minecraft-classic_svg__st173"/><path d="m22.6 35.375 1.4.666v1.7l-1.4-.634" class="minecraft-classic_svg__st178"/><path d="m4.58 28.68 1.366.666v3.398l-2.765-1.3v-1.698l1.399.633" class="minecraft-classic_svg__st173"/><path d="m5.946 29.346 2.798 1.266v1.732l-2.798-1.3" class="minecraft-classic_svg__st176"/><path d="m8.744 30.612 1.365.666v1.699l-1.365-.633" class="minecraft-classic_svg__st173"/><path d="m10.11 31.278 1.399.633v1.732l-1.4-.666" class="minecraft-classic_svg__st176"/><path d="m11.509 31.911 1.399.666v3.398l-1.4-.633" class="minecraft-classic_svg__st175"/><path d="m12.908 32.577 1.365.633v1.699l-1.365-.633" class="minecraft-classic_svg__st155"/><path d="m14.273 33.21 2.798 1.3v1.698l-2.798-1.3" class="minecraft-classic_svg__st176"/><path d="m18.437 35.142 2.798 1.3v3.43l-1.399-.666v-1.699l-1.399-.633" class="minecraft-classic_svg__st175"/><path d="m58.2 109.4 4.1 2v5.1l-4.1-1.9" style="fill:#7e7e7c" transform="translate(1.849)scale(.3331)"/><path d="m22.6 37.107 1.4.633v1.699l-1.4-.633" class="minecraft-classic_svg__st173"/><path d="m5.946 31.045 2.798 1.299v1.699l1.365.633v1.732l-2.764-1.3v-1.731l-1.4-.633" class="minecraft-classic_svg__st175"/><path d="m8.744 32.344 1.365.633v1.699l-1.365-.633" class="minecraft-classic_svg__st176"/><path d="m10.11 32.977 1.399.666v1.699l-1.4-.666" class="minecraft-classic_svg__st173"/><path d="m33.2 102.9 4.1 1.9v5.2l-4.1-2" style="fill:#626464" transform="translate(1.849)scale(.3331)"/><path d="m14.273 34.909 2.798 1.299v1.699l-2.798-1.266" class="minecraft-classic_svg__st175"/><path d="m18.437 36.874 1.399.633v1.699l-1.399-.633" class="minecraft-classic_svg__st155"/><path d="m21.235 38.173 1.366.633v1.699l-1.366-.633" class="minecraft-classic_svg__st173"/><path d="m22.6 38.806 1.4.633v1.732l-1.4-.666" class="minecraft-classic_svg__st155"/><path d="m1.782 30.812 1.399.633v3.43l-1.399-.666" class="minecraft-classic_svg__st173"/><path d="m3.181 31.445 1.399.666v1.699l-1.399-.667" class="minecraft-classic_svg__st155"/><path d="m4.58 32.11 1.366.634v1.699L4.58 33.81" class="minecraft-classic_svg__st175"/><path d="m5.946 32.744 1.399.633v3.43L4.58 35.509V33.81l1.366.633" class="minecraft-classic_svg__st174"/><path d="m10.11 34.676 1.399.666v1.699l-1.4-.633M21.235 39.872l2.765 1.3v1.698l-2.765-1.3" class="minecraft-classic_svg__st176"/><path d="m3.181 33.143 1.399.667v1.698l-1.399-.632" class="minecraft-classic_svg__st175"/><path d="m7.345 35.109 1.399.633v1.698l-1.4-.632" class="minecraft-classic_svg__st155"/><path d="m8.744 35.742 1.365.666v1.699l-1.365-.667" class="minecraft-classic_svg__st182"/><path d="m10.11 36.408 2.798 1.266v1.732l-2.799-1.3" class="minecraft-classic_svg__st175"/><path d="m14.273 38.34 1.4.633v1.732l-1.4-.666" class="minecraft-classic_svg__st155"/><path d="m15.672 38.973 1.4.666v1.699l-1.4-.633" class="minecraft-classic_svg__st176"/><path d="m17.071 39.639 1.366.633v3.43l-1.366-.665" class="minecraft-classic_svg__st155"/><path d="m19.836 40.938 1.399.633v1.699l-1.399-.633" class="minecraft-classic_svg__st176"/><path d="M21.235 41.57 24 42.87v3.398l-2.765-1.266" class="minecraft-classic_svg__st175"/><path d="m1.782 34.21 1.399.666v3.397l-1.399-.633" class="minecraft-classic_svg__st178"/><path d="m3.181 34.876 1.399.632v3.431l-1.399-.666" class="minecraft-classic_svg__st173"/><path d="m4.58 35.508 1.366.667v1.698l-1.366-.666" class="minecraft-classic_svg__st155"/><path d="m5.946 36.175 1.399.633v1.698l-1.4-.633" class="minecraft-classic_svg__st183"/><path d="m7.345 36.808 1.399.632v1.733l-1.4-.667" class="minecraft-classic_svg__st182"/><path d="m8.744 37.44 1.365.667v1.698l-1.365-.632" class="minecraft-classic_svg__st155"/><path d="m10.11 38.107 1.399.633v1.732l-1.4-.667" class="minecraft-classic_svg__st182"/><path d="m11.509 38.74 1.399.666v1.699l-1.4-.633" class="minecraft-classic_svg__st155"/><path d="m4.58 37.207 1.366.666v1.7l-1.366-.634" class="minecraft-classic_svg__st183"/><path d="m5.946 37.873 2.798 1.3v1.698l-2.798-1.299" class="minecraft-classic_svg__st178"/><path d="m8.744 39.173 1.365.632v1.7l-1.365-.634" class="minecraft-classic_svg__st182"/><path d="m24.8 119.5 4.2 2v5.1l-4.2-2" style="fill:#7e7d7d" transform="translate(1.849)scale(.3331)"/><path d="m11.509 40.472 4.163 1.932v1.698l-4.164-1.932" class="minecraft-classic_svg__st175"/><path d="m18.437 43.703 2.798 1.299V46.7l-2.798-1.3" class="minecraft-classic_svg__st178"/><path d="m21.235 45.002 1.366.633v1.699l-1.366-.633" class="minecraft-classic_svg__st173"/><path d="m22.6 45.635 1.4.633V48l-1.4-.666" class="minecraft-classic_svg__st155"/><path d="m23.933 20.652 1.4-.633v1.7l-1.4.665" class="minecraft-classic_svg__st185"/><path d="m25.332 20.02 1.4-.667v1.732l-1.4.633" class="minecraft-classic_svg__st186"/><path d="m26.731 19.353 1.366-.633v1.699l-1.366.666" class="minecraft-classic_svg__st187"/><path d="m28.097 18.72 2.798-1.299v1.699l-2.798 1.299" class="minecraft-classic_svg__st188"/><path d="m87.2 52.3 4.1-1.9v5.1l-4.1 1.9" style="fill:#005632" transform="translate(1.849)scale(.3331)"/><path d="m32.26 16.788 1.4-.666v1.732l-1.4.633" class="minecraft-classic_svg__st190"/><path d="m95.5 48.4 4.2-1.9v5.1l-4.2 2" style="fill:#005431" transform="translate(1.849)scale(.3331)"/><path d="m99.7 46.5 4.1-2v5.2l-4.1 1.9" style="fill:#0d6337" transform="translate(1.849)scale(.3331)"/><path d="m36.424 14.823 1.4-.633v1.699l-1.4.666" class="minecraft-classic_svg__st186"/><path d="m108 42.6 4.2-1.9v5.1l-4.2 1.9" style="fill:#005331" transform="translate(1.849)scale(.3331)"/><path d="m39.222 13.557 1.366-.666v1.699l-1.366.666" class="minecraft-classic_svg__st188"/><path d="m40.588 12.891 1.4-.633v1.699l-1.4.633" class="minecraft-classic_svg__st194"/><path d="m41.987 12.258 1.4-.666v1.732l-1.4.633" class="minecraft-classic_svg__st190"/><path d="m124.7 34.8 4.1-1.9V38l-4.1 2" style="fill:#004024" transform="translate(1.849)scale(.3331)"/><path d="m44.752 10.959 1.399-.666v1.732l-1.4.633" class="minecraft-classic_svg__st196"/><path d="m66.3 67.2 4.2-2v5.1l-4.2 2" style="fill:#045c34" transform="translate(1.849)scale(.3331)"/><path d="m25.332 21.718 1.4-.633v1.699l-1.4.633" class="minecraft-classic_svg__st196"/><path d="m74.7 63.3 4.1-2v5.2l-4.1 1.9" style="fill:#255d34" transform="translate(1.849)scale(.3331)"/><path d="m78.8 61.3 4.2-1.9v5.1l-4.2 2" style="fill:#1c5631" transform="translate(1.849)scale(.3331)"/><path d="m83 59.4 4.2-2v5.2L83 64.5" style="fill:#205731" transform="translate(1.849)scale(.3331)"/><path d="m30.895 19.12 1.366-.633v3.431l1.399-.666v-1.699l1.399-.666v3.43l-4.164 1.933" class="minecraft-classic_svg__st201"/><path d="m91.3 55.5 4.2-1.9v5.1l-4.2 1.9" style="fill:#00502f" transform="translate(1.849)scale(.3331)"/><path d="m95.5 53.6 4.2-2v5.1l-4.2 2" style="fill:#004d2c" transform="translate(1.849)scale(.3331)"/><path d="m35.059 17.188 1.365-.633v1.699l-1.365.633" class="minecraft-classic_svg__st190"/><path d="m103.8 49.7 4.2-2v5.2l-4.2 1.9" style="fill:#2d6537" transform="translate(1.849)scale(.3331)"/><path d="m108 47.7 4.2-1.9v5.1l-4.2 2" style="fill:#296336" transform="translate(1.849)scale(.3331)"/><path d="m39.222 15.256 1.366-.666v1.732l-1.366.633" class="minecraft-classic_svg__st187"/><path d="m116.3 43.8 4.2-1.9V47l-4.2 2" style="fill:#004c2c" transform="translate(1.849)scale(.3331)"/><path d="m41.987 13.957 1.4-.633v1.699l-1.4.633" class="minecraft-classic_svg__st196"/><path d="m43.386 13.324 1.366-.666v1.699l-1.366.666" class="minecraft-classic_svg__st188"/><path d="m128.8 38 4.2-1.9v5.1l-4.2 1.9" style="fill:#005430" transform="translate(1.849)scale(.3331)"/><path d="m66.3 72.3 4.2-2v5.2l-4.2 1.9" style="fill:#276035" transform="translate(1.849)scale(.3331)"/><path d="m25.332 23.417 1.4-.633v1.699l-1.4.666" class="minecraft-classic_svg__st201"/><path d="m74.7 68.4 4.1-1.9v5.1l-4.1 1.9" style="fill:#356d3a" transform="translate(1.849)scale(.3331)"/><path d="m78.8 66.5 4.2-2v5.1l-4.2 2" style="fill:#014d2c" transform="translate(1.849)scale(.3331)"/><path d="m29.496 21.485 1.399-.633v1.699l-1.4.633" class="minecraft-classic_svg__st194"/><path d="m91.3 60.6 4.2-1.9v5.1l-4.2 2" style="fill:#005732" transform="translate(1.849)scale(.3331)"/><path d="m35.059 18.887 1.365-.633v1.699l-1.365.666" class="minecraft-classic_svg__st185"/><path d="m103.8 54.8 4.2-1.9V58l-4.2 1.9" style="fill:#106438" transform="translate(1.849)scale(.3331)"/><path d="m108 52.9 4.2-2V56l-4.2 2" style="fill:#2b6437" transform="translate(1.849)scale(.3331)"/><path d="m112.2 50.9 4.1-1.9v5.1l-4.1 1.9" style="fill:#316938" transform="translate(1.849)scale(.3331)"/><path d="m40.588 16.322 1.4-.666v1.732l-1.4.633" class="minecraft-classic_svg__st201"/><path d="m120.5 47 4.2-1.9v5.1l-4.2 2" style="fill:#004528" transform="translate(1.849)scale(.3331)"/><path d="m43.386 15.023 1.366-.666v1.732l-1.366.633" class="minecraft-classic_svg__st190"/><path d="m44.752 14.357 1.399-.633v1.699l-1.4.666M23.933 25.782l1.4-.633v1.699l-1.4.633" class="minecraft-classic_svg__st201"/><path d="m70.5 75.5 4.2-2v5.2l-4.2 1.9" style="fill:#39403f" transform="translate(1.849)scale(.3331)"/><path d="m26.731 24.483 2.765-1.3v1.733l-2.765 1.299" class="minecraft-classic_svg__st201"/><path d="m83 69.6 4.2-1.9v5.1l-4.2 2" style="fill:#005832" transform="translate(1.849)scale(.3331)"/><path d="m35.059 20.619 1.365-.666v1.732l-1.365.633" class="minecraft-classic_svg__st190"/><path d="m36.424 19.953 1.4-.633v1.699l1.398-.633v1.699l-2.798 1.299v1.698l-4.163 1.932v-1.698l2.798-1.3v-1.698l1.365-.633" class="minecraft-classic_svg__st201"/><path d="m108 58 4.2-2v5.2l-4.2 1.9" style="fill:#01532f" transform="translate(1.849)scale(.3331)"/><path d="m39.222 18.654 1.366-.633v1.699l-1.366.666" class="minecraft-classic_svg__st201"/><path d="m40.588 18.02 1.4-.632v3.397l2.764-1.299v3.431l-1.366.633v-1.699l-1.399.633v1.732l1.4-.666v3.431l-2.799 1.3v5.096l2.798-1.266v1.699l-1.399.633v1.732l1.4-.667v1.7l-2.799 1.298V35.11l-4.164 1.932v1.699l2.798-1.3v1.733l1.366-.667v1.732l-2.765 1.266v-1.699l-2.764 1.3v-3.431l-1.4.666V36.64l5.563-2.598v-3.431L33.66 33.21v-1.699l1.399-.666v-1.699l1.365-.633v1.7l2.798-1.3v-1.699l1.366-.666" class="minecraft-classic_svg__st219"/><path d="m41.987 17.388 2.765-1.3v3.398l-1.366.667V18.42l-1.399.667" class="minecraft-classic_svg__st201"/><path d="m44.752 16.089 1.399-.666v3.43l-1.4.633" class="minecraft-classic_svg__st220"/><path d="m23.933 27.48 1.4-.632v1.699l-1.4.666" class="minecraft-classic_svg__st221"/><path d="m25.332 26.848 1.4-.633v1.699l-1.4.633" class="minecraft-classic_svg__st220"/><path d="m26.731 26.215 1.366-.666v1.699l1.399-.633v1.699l-2.765 1.299" class="minecraft-classic_svg__st221"/><path d="m28.097 25.549 1.399-.633v1.699l-1.4.633" class="minecraft-classic_svg__st222"/><path d="m29.496 24.916 1.399-.666v1.732l-1.4.633" class="minecraft-classic_svg__st201"/><path d="m30.895 24.25 1.366-.633v3.397l-1.366.667" class="minecraft-classic_svg__st223"/><path d="m32.26 23.617 2.799-1.3v1.7l-2.798 1.299" class="minecraft-classic_svg__st219"/><path d="m39.222 20.386 1.366-.666v1.732l-1.366.633" class="minecraft-classic_svg__st224"/><path d="m41.987 19.087 1.4-.667v1.733l-1.4.632" class="minecraft-classic_svg__st225"/><path d="m23.933 29.213 1.4-.666v1.732l-1.4.633" class="minecraft-classic_svg__st219"/><path d="m25.332 28.547 1.4-.633v3.397l-1.4.667" class="minecraft-classic_svg__st201"/><path d="m29.496 26.615 1.399-.633v1.699l-1.4.633" class="minecraft-classic_svg__st226"/><path d="m36.424 23.384 2.798-1.3v1.7l-1.399.666v1.698l-1.399.633" class="minecraft-classic_svg__st219"/><path d="m39.222 22.085 1.366-.633v1.698l-1.366.633" class="minecraft-classic_svg__st201"/><path d="m44.752 19.486 1.399-.633v1.7l-1.4.665M23.933 30.912l1.4-.633v3.397l-1.4.667" class="minecraft-classic_svg__st222"/><path d="M74.7 88.9 83 85v5.2L74.7 94" style="fill:#492715" transform="translate(1.849)scale(.3331)"/><path d="m83 85 4.2-1.9v5.1l-4.2 2" style="fill:#545756" transform="translate(1.849)scale(.3331)"/><path d="m30.895 27.68 2.765-1.298v1.698l1.399-.633v1.7l-1.4.665v1.7l-1.398.632v-3.397l-1.366.632" class="minecraft-classic_svg__st226"/><path d="m33.66 26.382 2.764-1.3v1.7L33.66 28.08M37.823 24.45l2.765-1.3v1.7l-2.765 1.298" class="minecraft-classic_svg__st229"/><path d="m41.987 22.484 1.4-.633v1.7l-1.4.665" class="minecraft-classic_svg__st225"/><path d="m44.752 21.218 1.399-.666v3.431l-2.765 1.3V23.55l1.366-.633" class="minecraft-classic_svg__st225"/><path d="m25.332 31.978 1.4-.667v1.733l1.365-.667v1.732l-2.765 1.266" class="minecraft-classic_svg__st219"/><path d="m26.731 31.311 2.765-1.265v1.698l-2.765 1.3" class="minecraft-classic_svg__st222"/><path d="m29.496 30.046 2.765-1.3v3.398l-1.366.666v-1.732l-1.4.666" class="minecraft-classic_svg__st221"/><path d="m35.059 27.447 1.365-.666v1.732l-1.365.633" class="minecraft-classic_svg__st230"/><path d="m36.424 26.781 1.4-.633v1.7l-1.4.665" class="minecraft-classic_svg__st231"/><path d="m37.823 26.148 2.765-1.299v1.7l-1.366.665v1.7l-2.798 1.298v-1.699l1.4-.666" class="minecraft-classic_svg__st230"/><path d="m23.933 34.343 1.4-.667v1.7l1.398-.634v3.431l-1.399.633v1.699l-1.399.666" class="minecraft-classic_svg__st223"/><path d="m28.097 32.377 1.399-.633v1.7l-1.4.665" class="minecraft-classic_svg__st225"/><path d="m29.496 31.744 1.399-.666v3.431l-2.798 1.3v-1.7l1.399-.666" class="minecraft-classic_svg__st226"/><path d="m33.66 29.812 1.399-.666v1.7l-1.4.665" class="minecraft-classic_svg__st201"/><path d="m43.386 25.282 1.366-.666v1.699l-1.366.666" class="minecraft-classic_svg__st231"/><path d="m44.752 24.616 1.399-.633v1.699l-1.4.633" class="minecraft-classic_svg__st220"/><path d="m74.7 104.3 4.1-1.9v5.1l-4.1 1.9" style="fill:#2b0b00" transform="translate(1.849)scale(.3331)"/><path d="m30.895 32.81 2.765-1.299v1.7l-2.765 1.298" class="minecraft-classic_svg__st201"/><path d="m40.588 28.28 2.798-1.299v1.699l-2.798 1.299" class="minecraft-classic_svg__st229"/><path d="m43.386 26.981 1.366-.666v1.732l-1.366.633" class="minecraft-classic_svg__st220"/><path d="m44.752 26.315 1.399-.633v1.699l-1.4.666" class="minecraft-classic_svg__st225"/><path d="m26.731 36.441 1.366-.633v3.398l-2.765 1.299v-1.699l1.4-.633" class="minecraft-classic_svg__st220"/><path d="m28.097 35.808 2.798-1.299v1.699l-2.798 1.3" class="minecraft-classic_svg__st233"/><path d="m30.895 34.51 1.366-.634v1.7l-1.366.632" class="minecraft-classic_svg__st226"/><path d="m32.26 33.876 1.4-.666v1.699l-1.4.666" class="minecraft-classic_svg__st233"/><path d="m33.66 33.21 1.399-.633v3.398l-1.4.666" class="minecraft-classic_svg__st230"/><path d="m35.059 32.577 1.365-.666v1.732l-1.365.633" class="minecraft-classic_svg__st231"/><path d="m36.424 31.911 2.798-1.3v1.733l-2.798 1.3" class="minecraft-classic_svg__st229"/><path d="m40.588 29.979 2.798-1.3v3.432l-1.399.633v-1.7l-1.399.634" class="minecraft-classic_svg__st225"/><path d="m43.386 28.68 1.366-.633v1.699l-1.366.633" class="minecraft-classic_svg__st234"/><path d="m44.752 28.047 1.399-.666v1.732l-1.4.633" class="minecraft-classic_svg__st220"/><path d="m28.097 37.507 2.798-1.299v1.699l1.366-.633v1.699l-2.765 1.299v-1.699l-1.4.633" class="minecraft-classic_svg__st230"/><path d="m30.895 36.208 1.366-.633v1.699l-1.366.633" class="minecraft-classic_svg__st233"/><path d="m32.26 35.575 1.4-.666v1.732l-1.4.633" class="minecraft-classic_svg__st226"/><path d="m35.059 34.276 1.365-.633v1.699l-1.365.633" class="minecraft-classic_svg__st224"/><path d="m36.424 33.643 2.798-1.299v1.699l-2.798 1.299" class="minecraft-classic_svg__st230"/><path d="m40.588 31.678 1.4-.633v1.699l-1.4.633" class="minecraft-classic_svg__st231"/><path d="m43.386 30.379 1.366-.633v1.699l-1.366.666" class="minecraft-classic_svg__st220"/><path d="m44.752 29.746 1.399-.633v1.699l-1.4.633" class="minecraft-classic_svg__st231"/><path d="m23.933 41.171 1.4-.666v3.43l-1.4.634" class="minecraft-classic_svg__st220"/><path d="m70.5 121.6 4.2-1.9v5.1l-4.2 1.9" style="fill:#2a0900" transform="translate(1.849)scale(.3331)"/><path d="m26.731 39.872 1.366-.666v1.732l-1.366.633" class="minecraft-classic_svg__st230"/><path d="m28.097 39.206 1.399-.633v3.398L26.73 43.27v-1.7l1.366-.632" class="minecraft-classic_svg__st219"/><path d="m32.26 37.274 1.4-.633v1.699l-1.4.633" class="minecraft-classic_svg__st233"/><path d="m43.386 32.11 2.765-1.298v1.699l-2.765 1.299" class="minecraft-classic_svg__st229"/><path d="m25.332 42.204 1.4-.633v1.699l-1.4.666" class="minecraft-classic_svg__st225"/><path d="m29.496 40.272 1.399-.633v1.699l-1.4.633" class="minecraft-classic_svg__st231"/><path d="m30.895 39.639 1.366-.666v1.732l-1.366.633" class="minecraft-classic_svg__st220"/><path d="m32.26 38.973 2.799-1.3v1.733l-2.798 1.299" class="minecraft-classic_svg__st230"/><path d="m36.424 37.04 1.4-.632v1.699l-1.4.633" class="minecraft-classic_svg__st231"/><path d="m37.823 36.408 1.4-.666v1.698l-1.4.667" class="minecraft-classic_svg__st229"/><path d="m39.222 35.742 1.366-.633v3.397l-1.366.667" class="minecraft-classic_svg__st231"/><path d="m41.987 34.443 1.4-.633v1.698l-1.4.667" class="minecraft-classic_svg__st229"/><path d="m43.386 33.81 2.765-1.3v3.431l-2.765 1.266M23.933 44.569l1.4-.633v3.398l-1.4.666" class="minecraft-classic_svg__st230"/><path d="m25.332 43.936 1.4-.666v3.43l-1.4.634" class="minecraft-classic_svg__st220"/><path d="m26.731 43.27 1.366-.633v1.699l-1.366.666" class="minecraft-classic_svg__st201"/><path d="m28.097 42.637 1.399-.666v1.732l-1.4.633" class="minecraft-classic_svg__st222"/><path d="m29.496 41.97 1.399-.632v1.699l-1.4.666" class="minecraft-classic_svg__st220"/><path d="m30.895 41.338 1.366-.633v1.699l-1.366.633" class="minecraft-classic_svg__st231"/><path d="m32.26 40.705 1.4-.666v1.698l-1.4.667" class="minecraft-classic_svg__st220"/><path d="m33.66 40.039 1.399-.633v1.699l-1.4.632" class="minecraft-classic_svg__st231"/><path d="m26.731 45.002 1.366-.666v1.698l-1.366.667" class="minecraft-classic_svg__st222"/><path d="m28.097 44.336 2.798-1.3v1.733l-2.798 1.265" class="minecraft-classic_svg__st230"/><path d="m30.895 43.037 1.366-.633v1.698l-1.366.667" class="minecraft-classic_svg__st220"/><path d="m32.26 42.404 1.4-.667v1.733l-1.4.632" class="minecraft-classic_svg__st234"/><path d="m33.66 41.737 4.163-1.932v1.7L33.66 43.47M40.588 38.506l2.798-1.299v1.732l-2.798 1.3" class="minecraft-classic_svg__st230"/><path d="m43.386 37.207 1.366-.633v1.7l-1.366.665" class="minecraft-classic_svg__st226"/><path d="m44.752 36.574 1.399-.633v1.7l-1.4.632" class="minecraft-classic_svg__st231"/></svg>