<svg xmlns="http://www.w3.org/2000/svg" xmlns:xlink="http://www.w3.org/1999/xlink" viewBox="0 0 48 48"><defs><path id="minikube_svg__a" d="M701.06 684.26V1.592H0V684.26z"/><mask id="minikube_svg__b" fill="#fff"><use xlink:href="#minikube_svg__a"/></mask></defs><g fill-rule="evenodd"><path fill="#326de6" d="M351.21 1.59c-9.518 0-19.039 2.27-28.105 6.346l-229.37 109.7c-18.135 8.61-30.825 24.476-35.358 43.967L1.712 407.743c-4.533 19.49 0 39.439 12.694 55.305l158.65 197.18c12.242 15.415 30.825 24.024 50.316 24.024h254.31c19.491 0 38.074-8.61 50.316-24.024l158.65-197.18c12.694-15.415 17.227-35.814 12.694-55.305l-56.665-246.14c-4.533-19.491-17.223-35.358-35.358-43.967l-228.46-109.7c-8.613-4.077-18.135-6.345-27.653-6.345m0 21.303a44.35 44.35 0 0 1 18.587 4.08l229.37 109.25c11.786 5.894 20.851 16.776 23.572 29.466l56.661 246.14c3.172 13.146 0 26.744-8.613 37.17l-158.65 197.19c-8.162 10.425-20.851 16.318-33.998 16.318h-254.3c-13.146 0-25.84-5.893-33.998-16.319L31.177 449c-8.158-10.426-11.33-24.024-8.614-37.17l56.665-246.14c3.173-13.146 11.786-24.024 23.572-29.465l229.37-109.7c5.893-2.268 12.694-3.628 19.04-3.628" mask="url(#minikube_svg__b)" transform="translate(0 .52) scale(.06847)"/><path fill="#1fbfcf" d="M14.96 41.94a2.884 2.884 0 0 0 2.264 1.085L30.888 43c.872 0 1.698-.41 2.255-1.085l8.33-10.487c.24-.328.214-.97.214-1.51V15.273L23.79 25.578 5.91 15.283v14.635c0 .55.194 1.086.551 1.534z"/><path fill="#c9e9ec" d="M41.686 15.274 23.773 4.975 5.91 15.283l17.88 10.295z"/><path fill="#326de6" d="M28.059 33.539a1.242 1.242 0 0 1-1.633-.28c-.14-.14-.187-.327-.233-.513l-.42-7.605A14.16 14.16 0 0 1 34.17 29.2zm-6.345-.98c-.047.653-.56 1.213-1.26 1.213-.186 0-.42-.047-.56-.14L13.69 29.2a14.232 14.232 0 0 1 6.952-3.826c.513-.093.98-.186 1.493-.28zm17.449-3.126.467-.42v-.093c0-.233.046-.467.233-.7.56-.513 1.26-.933 2.1-1.446.14-.093.28-.14.419-.233.28-.14.513-.28.793-.467.047-.046.14-.093.233-.186.047-.047.094-.047.094-.094.653-.56.793-1.493.326-2.1-.233-.326-.653-.512-1.073-.512-.373 0-.7.14-1.026.373l-.093.093c-.094.047-.14.14-.234.187a7.68 7.68 0 0 0-.606.653c-.094.093-.187.233-.327.327-.653.7-1.26 1.26-1.866 1.679a.752.752 0 0 1-.42.14c-.093 0-.186 0-.28-.047h-.093l-.56.374c-.606-.654-1.26-1.213-1.913-1.773a18.631 18.631 0 0 0-9.75-3.872l-.047-.607-.093-.093c-.14-.14-.327-.28-.374-.607-.046-.746.047-1.586.14-2.52v-.046c0-.14.047-.326.094-.466.046-.28.093-.56.14-.887v-.42c0-.84-.654-1.54-1.447-1.54-.373 0-.746.187-1.026.467s-.42.653-.42 1.073v.374c0 .326.047.606.14.886.047.14.047.28.093.467v.046c.094.933.233 1.773.14 2.52-.046.326-.233.466-.373.606l-.093.093-.047.607c-.84.093-1.68.187-2.52.373a17.985 17.985 0 0 0-9.237 5.226l-.467-.327h-.093c-.093 0-.187.047-.28.047a.754.754 0 0 1-.42-.14c-.606-.42-1.213-1.027-1.866-1.727-.093-.093-.187-.233-.326-.326a7.713 7.713 0 0 0-.607-.653c-.047-.047-.14-.094-.233-.187-.047-.047-.094-.047-.094-.093a1.63 1.63 0 0 0-1.026-.374c-.42 0-.84.187-1.073.514-.467.606-.327 1.54.327 2.1.046 0 .046.046.093.046.093.046.14.14.233.186.28.187.513.327.793.467.14.047.28.14.42.233.84.513 1.54.933 2.1 1.446.233.234.233.467.233.7v.093l.466.42c-.093.14-.186.234-.233.374a18.042 18.042 0 0 0-1.399 2.693l2.66 3.282c.36-1.27.886-2.497 1.585-3.643l5.552 4.946c.513.42.56 1.213.14 1.726a.93.93 0 0 1-.56.373l-3.206.931 1.593 1.965a2.883 2.883 0 0 0 2.264 1.085l13.664-.024c.871 0 1.698-.41 2.255-1.085l1.495-1.883-3.275-.942a1.265 1.265 0 0 1-.887-1.493c.047-.187.14-.373.28-.513l5.645-5.086a14.777 14.777 0 0 1 1.61 3.787l2.713-3.415a19.414 19.414 0 0 0-1.57-2.938z"/></g></svg>