<svg xmlns="http://www.w3.org/2000/svg" viewBox="0 0 48 48"><path fill="#c72c48" d="m30.18 2.32 6.284 10.284a.12.12 0 0 1 0 .14.113.113 0 0 1-.167 0l-8.14-8.487z"/><path fill="#c72c48" d="M16.307 30.027a27.958 27.958 0 0 1 5.538-7.855 28.357 28.357 0 0 1 2.77-2.43v5.992zm-4.793 5.552 13.1-6.657v15.244L27.564 48V27.365l1.79-.926a8.887 8.887 0 0 0 2.443-14.058l-6.743-7.05a1.498 1.498 0 0 1 .073-2.11 1.504 1.504 0 0 1 2.117.073l.945.986 1.997-1.944c-2.39-3.102-5.326-2.71-7.01-1.158a4.3 4.3 0 0 0-.186 6.07l6.816 7.103a6.084 6.084 0 0 1-1.331 9.372l-.925.48V14.57a30.84 30.84 0 0 0-16.036 20.975Z"/></svg>