<svg xmlns="http://www.w3.org/2000/svg" viewBox="0 0 48 48"><defs><clipPath id="monero_svg__b"><path d="M14.756 911.57h595.27V69.68H14.756z"/></clipPath><clipPath id="monero_svg__a"><path d="M14.756 911.57h595.27V69.68H14.756z"/></clipPath></defs><path fill="#f60" d="M208.06 624.2c-20.377 0-36.903-16.524-36.903-36.902 0-4.074.66-7.992 1.88-11.657h11.036v31.049l23.987-23.987 23.987 23.987v-31.049h11.037a36.838 36.838 0 0 1 1.88 11.657c0 20.378-16.526 36.902-36.904 36.902" clip-path="url(#monero_svg__a)" transform="matrix(.65033 0 0 -.65033 -111.306 405.949)"/><path fill="#4c4c4c" d="m202.54 577.19-10.468 10.469v-19.537h-15.55c6.478-10.628 18.178-17.726 31.533-17.726s25.056 7.098 31.533 17.726h-15.549v19.537l-15.984-15.984z" clip-path="url(#monero_svg__b)" transform="matrix(.65033 0 0 -.65033 -111.306 405.949)"/></svg>