<svg xmlns="http://www.w3.org/2000/svg" xmlns:xlink="http://www.w3.org/1999/xlink" viewBox="0 0 48 48"><g transform="translate(-294.1 6.098) scale(.09836)"><clipPath id="monica_svg__a" clip-rule="evenodd"><path fill="#fff" d="M2984-68h500v500h-500z"/></clipPath><g clip-path="url(#monica_svg__a)"><use xlink:href="#monica_svg__b" fill="#2c2b29" transform="translate(3002.5 -26.479)"/><use xlink:href="#monica_svg__c" fill="#fff" transform="translate(3047.6 17.346)"/><use xlink:href="#monica_svg__d" fill="#2c2b29" transform="translate(2990 -39)"/><use xlink:href="#monica_svg__d" fill="#2c2b29" transform="matrix(-1 0 0 1 3478 -39)"/><use xlink:href="#monica_svg__e" fill="#2b2a28" transform="translate(3265.3 122.65)"/><use xlink:href="#monica_svg__f" fill="#fff" transform="translate(3292.6 154.77)"/><use xlink:href="#monica_svg__e" fill="#2b2a28" transform="matrix(-1 0 0 1 3203.9 122.65)"/><use xlink:href="#monica_svg__f" fill="#fff" transform="matrix(-1 0 0 1 3176.6 154.77)"/><use xlink:href="#monica_svg__g" fill="#2c2b29" transform="translate(3200.2 256.5)"/></g></g><defs><path id="monica_svg__b" fill-rule="evenodd" d="M235.42 429.48c114.22 0 240.94-73.457 224.92-214.74C444.316 73.46 349.64 0 235.42 0S27.27 64.395 2.77 214.74c-24.5 150.34 118.44 214.74 232.65 214.74z"/><path id="monica_svg__c" fill-rule="evenodd" d="M188.85 344.33c91.62 0 193.28-58.894 180.42-172.17C356.416 58.89 280.466-.01 188.85-.01 97.231-.01 21.88 51.619 2.22 172.16-17.433 292.7 97.229 344.33 188.85 344.33z"/><path id="monica_svg__d" fill-rule="evenodd" d="M65.586 165.28c12.415.042 17.808-44.38 39.978-64.605 20.354-18.567 67.112-24.933 67.112-46.399C172.676 9.427 124.054 0 81.119 0S-.001 45.49-.001 90.339s41.775 74.862 65.586 74.941z"/><path id="monica_svg__e" fill-rule="evenodd" d="M69.6 154.57c32.494-7.749 46.043-21.415 46.043-65.575 0-44.16-20.699-88.997-56.338-88.997C23.666-.002 0 31.884 0 76.044c0 44.16 37.106 86.274 69.6 78.526z"/><path id="monica_svg__f" fill-rule="evenodd" d="M30.386 66.429c8.842 0 11.472-2.257 15.469-7.325 4.482-5.683 7.824-12.274 6.731-25.889C50.76 10.466 41.173.001 22.416.001 3.656.001-.002 14.424-.002 33.215c0 18.792 11.63 33.214 30.386 33.214z"/><path id="monica_svg__g" fill-rule="evenodd" d="M35.291 50.085c17.658 0 34.781-25.989 34.781-37.135C70.072 1.804 52.694 0 35.036 0S0 1.804 0 12.95c0 11.146 17.633 37.135 35.291 37.135z"/></defs></svg>