<svg xmlns="http://www.w3.org/2000/svg" viewBox="0 0 48 48"><g transform="translate(-5.03 -5.026) scale(.1161)"><radialGradient id="mozillafirefox_svg__a" cx="-1170.989" cy="-390.199" r=".001" gradientTransform="translate(1258.441 532.89)" gradientUnits="userSpaceOnUse"><stop offset="0" style="stop-color:#fff44f"/><stop offset=".295" style="stop-color:#ff980e"/><stop offset=".431" style="stop-color:#ff5d36"/><stop offset=".53" style="stop-color:#ff3750"/><stop offset=".749" style="stop-color:#f5156c"/><stop offset=".765" style="stop-color:#f1136e"/><stop offset=".88" style="stop-color:#da057a"/><stop offset=".953" style="stop-color:#d2007f"/></radialGradient><path d="M87.5 142.7Z" style="fill:url(#mozillafirefox_svg__a)"/><radialGradient id="mozillafirefox_svg__b" cx="-1170.989" cy="-390.199" r="0" gradientTransform="translate(1258.441 532.89)" gradientUnits="userSpaceOnUse"><stop offset="0" style="stop-color:#b5007f"/><stop offset="1" style="stop-color:#f5156c;stop-opacity:0"/></radialGradient><path d="M87.5 142.7Z" style="fill:url(#mozillafirefox_svg__b);opacity:.67"/><radialGradient id="mozillafirefox_svg__c" cx="-1170.989" cy="-390.199" r=".001" fx="-1170.989" fy="-390.199" gradientTransform="translate(1258.441 532.89)" gradientUnits="userSpaceOnUse"><stop offset="0" style="stop-color:#fd0;stop-opacity:.6"/><stop offset=".084" style="stop-color:#ffd801;stop-opacity:.5244"/><stop offset=".182" style="stop-color:#feca05;stop-opacity:.4353"/><stop offset=".288" style="stop-color:#feb20c;stop-opacity:.3394"/><stop offset=".4" style="stop-color:#fd9115;stop-opacity:.2388"/><stop offset=".515" style="stop-color:#fb6621;stop-opacity:.1343"/><stop offset=".633" style="stop-color:#f9332f;stop-opacity:2.816397e-02"/><stop offset=".664" style="stop-color:#f92433;stop-opacity:0"/></radialGradient><path d="M87.5 142.7Z" style="fill:url(#mozillafirefox_svg__c)"/></g><g transform="translate(-5.03 -5.026) scale(.1161)"><radialGradient id="mozillafirefox_svg__d" cx="87.452" cy="142.691" r=".001" gradientUnits="userSpaceOnUse"><stop offset=".153" style="stop-color:#960e18"/><stop offset=".206" style="stop-color:#cc2335;stop-opacity:.5541"/><stop offset=".249" style="stop-color:#f13148;stop-opacity:.1914"/><stop offset=".272" style="stop-color:#ff3750;stop-opacity:0"/></radialGradient><path d="M87.5 142.7Z" style="fill:url(#mozillafirefox_svg__d)"/><radialGradient id="mozillafirefox_svg__e" cx="87.452" cy="142.691" r=".001" gradientUnits="userSpaceOnUse"><stop offset=".113" style="stop-color:#960e18"/><stop offset=".189" style="stop-color:#cc2335;stop-opacity:.5541"/><stop offset=".252" style="stop-color:#f13148;stop-opacity:.1914"/><stop offset=".284" style="stop-color:#ff3750;stop-opacity:0"/></radialGradient><path d="M87.5 142.7Z" style="fill:url(#mozillafirefox_svg__e)"/></g><g transform="translate(-5.03 -5.026) scale(.1161)"><radialGradient id="mozillafirefox_svg__f" cx="-845.483" cy="-409.482" r="467.083" fx="-828.776" fy="-417.739" gradientTransform="translate(1258.441 532.89)" gradientUnits="userSpaceOnUse"><stop offset="0" style="stop-color:#fff44f"/><stop offset=".295" style="stop-color:#ff980e"/><stop offset=".431" style="stop-color:#ff5d36"/><stop offset=".53" style="stop-color:#ff3750"/><stop offset=".749" style="stop-color:#f5156c"/><stop offset=".765" style="stop-color:#f1136e"/><stop offset=".88" style="stop-color:#da057a"/><stop offset=".953" style="stop-color:#d2007f"/></radialGradient><path d="M415.1 124.7c-15.9-20.9-35.4-38.1-57.3-51.2-1-.6-2.3-.4-3.2.4-1.2 1.2-.9 3.1.4 4 40.6 26.3 71.9 68.7 79.2 125.3 15 115-65.3 211-178.3 211.3-124.2.4-199.8-109.4-180-208 1-4.9.5-9.7 2.1-14.4.9-17.3 7.5-44.5 21.7-72.3-14.3 7.4-32.5 30.8-41.5 52.4-13 31.2-17.5 68.5-13.4 104 .3 2.7.6 5.3.9 8 16.7 97.8 101.9 172.2 204.4 172 114.2-.2 207.2-93.9 206.6-208.2-.2-46.2-15.7-88.9-41.6-123.3Z" style="fill:url(#mozillafirefox_svg__f)"/><radialGradient id="mozillafirefox_svg__g" cx="-1180.906" cy="-369.159" r="269.769" fx="-1171.257" fy="-373.928" gradientTransform="translate(1258.441 532.89)" gradientUnits="userSpaceOnUse"><stop offset="0" style="stop-color:#b5007f"/><stop offset="1" style="stop-color:#f5156c;stop-opacity:0"/></radialGradient><path d="M415.1 124.7c-15.9-20.9-35.4-38.1-57.3-51.2-1-.6-2.3-.4-3.2.4-1.2 1.2-.9 3.1.4 4 40.6 26.3 71.9 68.7 79.2 125.3 15 115-65.3 211-178.3 211.3-124.2.4-199.8-109.4-180-208 1-4.9.5-9.7 2.1-14.4.9-17.3 7.5-44.5 21.7-72.3-14.3 7.4-32.5 30.8-41.5 52.4-13 31.2-17.5 68.5-13.4 104 .3 2.7.6 5.3.9 8 16.7 97.8 101.9 172.2 204.4 172 114.2-.2 207.2-93.9 206.6-208.2-.2-46.2-15.7-88.9-41.6-123.3Z" style="fill:url(#mozillafirefox_svg__g);opacity:.67"/><radialGradient id="mozillafirefox_svg__h" cx="-805.377" cy="-411.981" r="511.699" fx="-787.074" fy="-421.026" gradientTransform="translate(1258.441 532.89)" gradientUnits="userSpaceOnUse"><stop offset="0" style="stop-color:#fd0;stop-opacity:.6"/><stop offset=".084" style="stop-color:#ffd801;stop-opacity:.5244"/><stop offset=".182" style="stop-color:#feca05;stop-opacity:.4353"/><stop offset=".288" style="stop-color:#feb20c;stop-opacity:.3394"/><stop offset=".4" style="stop-color:#fd9115;stop-opacity:.2388"/><stop offset=".515" style="stop-color:#fb6621;stop-opacity:.1343"/><stop offset=".633" style="stop-color:#f9332f;stop-opacity:2.816397e-02"/><stop offset=".664" style="stop-color:#f92433;stop-opacity:0"/></radialGradient><path d="M415.1 124.7c-15.9-20.9-35.4-38.1-57.3-51.2-1-.6-2.3-.4-3.2.4-1.2 1.2-.9 3.1.4 4 40.6 26.3 71.9 68.7 79.2 125.3 15 115-65.3 211-178.3 211.3-124.2.4-199.8-109.4-180-208 1-4.9.5-9.7 2.1-14.4.9-17.3 7.5-44.5 21.7-72.3-14.3 7.4-32.5 30.8-41.5 52.4-13 31.2-17.5 68.5-13.4 104 .3 2.7.6 5.3.9 8 16.7 97.8 101.9 172.2 204.4 172 114.2-.2 207.2-93.9 206.6-208.2-.2-46.2-15.7-88.9-41.6-123.3Z" style="fill:url(#mozillafirefox_svg__h)"/></g><g transform="translate(-5.03 -5.026) scale(.1161)"><radialGradient id="mozillafirefox_svg__i" cx="-996.633" cy="-246.608" r="687.49" gradientTransform="translate(1258.441 532.89)" gradientUnits="userSpaceOnUse"><stop offset=".153" style="stop-color:#960e18"/><stop offset=".206" style="stop-color:#cc2335;stop-opacity:.5541"/><stop offset=".249" style="stop-color:#f13148;stop-opacity:.1914"/><stop offset=".272" style="stop-color:#ff3750;stop-opacity:0"/></radialGradient><path d="M415.1 124.7c-15.9-20.9-35.4-38.1-57.3-51.2-1-.6-2.3-.4-3.2.4-1.2 1.2-.9 3.1.4 4 40.6 26.3 71.9 68.7 79.2 125.3 15 115-65.3 211-178.3 211.3-124.2.4-199.8-109.4-180-208 1-4.9.5-9.7 2.1-14.4.9-17.3 7.5-44.5 21.7-72.3-14.3 7.4-32.5 30.8-41.5 52.4-13 31.2-17.5 68.5-13.4 104 .3 2.7.6 5.3.9 8 16.7 97.8 101.9 172.2 204.4 172 114.2-.2 207.2-93.9 206.6-208.2-.2-46.2-15.7-88.9-41.6-123.3Z" style="fill:url(#mozillafirefox_svg__i)"/><radialGradient id="mozillafirefox_svg__j" cx="-1050.416" cy="-254.909" r="692.278" gradientTransform="translate(1258.441 532.89)" gradientUnits="userSpaceOnUse"><stop offset=".113" style="stop-color:#960e18"/><stop offset=".189" style="stop-color:#cc2335;stop-opacity:.5541"/><stop offset=".252" style="stop-color:#f13148;stop-opacity:.1914"/><stop offset=".284" style="stop-color:#ff3750;stop-opacity:0"/></radialGradient><path d="M415.1 124.7c-15.9-20.9-35.4-38.1-57.3-51.2-1-.6-2.3-.4-3.2.4-1.2 1.2-.9 3.1.4 4 40.6 26.3 71.9 68.7 79.2 125.3 15 115-65.3 211-178.3 211.3-124.2.4-199.8-109.4-180-208 1-4.9.5-9.7 2.1-14.4.9-17.3 7.5-44.5 21.7-72.3-14.3 7.4-32.5 30.8-41.5 52.4-13 31.2-17.5 68.5-13.4 104 .3 2.7.6 5.3.9 8 16.7 97.8 101.9 172.2 204.4 172 114.2-.2 207.2-93.9 206.6-208.2-.2-46.2-15.7-88.9-41.6-123.3Z" style="fill:url(#mozillafirefox_svg__j)"/></g><g transform="translate(-5.03 -5.026) scale(.1161)"><radialGradient id="mozillafirefox_svg__k" cx="-946.491" cy="24.787" r="453.671" fx="-930.265" fy="16.767" gradientTransform="translate(1310.671 86.11) scale(.9589)" gradientUnits="userSpaceOnUse"><stop offset="0" style="stop-color:#ff980e"/><stop offset=".295" style="stop-color:#ff7139"/><stop offset=".485" style="stop-color:#ff5b51"/><stop offset=".626" style="stop-color:#ff4f5e"/><stop offset=".737" style="stop-color:#ff4055"/><stop offset=".843" style="stop-color:#ff3750"/></radialGradient><path d="M439.3 197.5c-6.7-60.2-40.5-101.3-83.7-125.3-7.2-4-16.3-2.3-21.5 4.1l-.1.1c49.2 30.3 80.2 84 81.8 140 1.9 68.1-54 122.4-118.4 125.5-46.8 2.3-90.9-20.3-112.5-65.6-4.8-10.1-8.3-20.3-10.1-32.7-10.2-68.8 36.1-127.5 78.6-142.1-22.9-20-80.4-18.6-123.1 12.8-30.8 22.6-50.8 57-57.4 98-5 31.3-.3 63.8 12.1 92.8 12.6 29.6 33.1 55.7 59 74.9 28 20.9 61.8 33 96.6 35.6 5.1.4 10.3.6 15.4.6 136.7.2 196.1-103.4 183.3-218.7z" style="fill:url(#mozillafirefox_svg__k)"/><radialGradient id="mozillafirefox_svg__l" cx="-946.491" cy="41.462" r="430.371" fx="-931.098" fy="33.854" gradientTransform="translate(1310.671 86.11) scale(.9589)" gradientUnits="userSpaceOnUse"><stop offset=".084" style="stop-color:#ffde08"/><stop offset=".208" style="stop-color:#ffd609;stop-opacity:.832"/><stop offset=".403" style="stop-color:#ffbf0b;stop-opacity:.5677"/><stop offset=".644" style="stop-color:#ff9b0f;stop-opacity:.242"/><stop offset=".822" style="stop-color:#ff7b12;stop-opacity:0"/></radialGradient><path d="M439.3 197.5c-6.7-60.2-40.5-101.3-83.7-125.3-7.2-4-16.3-2.3-21.5 4.1l-.1.1c49.2 30.3 80.2 84 81.8 140 1.9 68.1-54 122.4-118.4 125.5-46.8 2.3-90.9-20.3-112.5-65.6-4.8-10.1-8.3-20.3-10.1-32.7-10.2-68.8 36.1-127.5 78.6-142.1-22.9-20-80.4-18.6-123.1 12.8-30.8 22.6-50.8 57-57.4 98-5 31.3-.3 63.8 12.1 92.8 12.6 29.6 33.1 55.7 59 74.9 28 20.9 61.8 33 96.6 35.6 5.1.4 10.3.6 15.4.6 136.7.2 196.1-103.4 183.3-218.7z" style="fill:url(#mozillafirefox_svg__l)"/></g><g transform="translate(-5.03 -5.026) scale(.1161)"><radialGradient id="mozillafirefox_svg__m" cx="-1052.595" cy="175.21" r="216.63" gradientTransform="matrix(.2371 .9291 -.9696 .2474 720.785 1188.733)" gradientUnits="userSpaceOnUse"><stop offset=".363" style="stop-color:#ff3750"/><stop offset=".411" style="stop-color:#ff444b;stop-opacity:.7895"/><stop offset=".59" style="stop-color:#ff7139;stop-opacity:0"/></radialGradient><path d="M439.3 197.5c-6.7-60.2-40.5-101.3-83.7-125.3-7.2-4-16.3-2.3-21.5 4.1l-.1.1c49.2 30.3 80.2 84 81.8 140 1.9 68.1-54 122.4-118.4 125.5-46.8 2.3-90.9-20.3-112.5-65.6-4.8-10.1-8.3-20.3-10.1-32.7-10.2-68.8 36.1-127.5 78.6-142.1-22.9-20-80.4-18.6-123.1 12.8-30.8 22.6-50.8 57-57.4 98-5 31.3-.3 63.8 12.1 92.8 12.6 29.6 33.1 55.7 59 74.9 28 20.9 61.8 33 96.6 35.6 5.1.4 10.3.6 15.4.6 136.7.2 196.1-103.4 183.3-218.7z" style="fill:url(#mozillafirefox_svg__m);opacity:.53"/><radialGradient id="mozillafirefox_svg__n" cx="-1091.419" cy="193.066" r="219.105" gradientTransform="matrix(.2371 .9291 -.9299 .2373 702.412 1239.464)" gradientUnits="userSpaceOnUse"><stop offset=".216" style="stop-color:#ff3750;stop-opacity:.8"/><stop offset=".27" style="stop-color:#ff444b;stop-opacity:.6316"/><stop offset=".474" style="stop-color:#ff7139;stop-opacity:0"/></radialGradient><path d="M439.3 197.5c-6.7-60.2-40.5-101.3-83.7-125.3-7.2-4-16.3-2.3-21.5 4.1l-.1.1c49.2 30.3 80.2 84 81.8 140 1.9 68.1-54 122.4-118.4 125.5-46.8 2.3-90.9-20.3-112.5-65.6-4.8-10.1-8.3-20.3-10.1-32.7-10.2-68.8 36.1-127.5 78.6-142.1-22.9-20-80.4-18.6-123.1 12.8-30.8 22.6-50.8 57-57.4 98-5 31.3-.3 63.8 12.1 92.8 12.6 29.6 33.1 55.7 59 74.9 28 20.9 61.8 33 96.6 35.6 5.1.4 10.3.6 15.4.6 136.7.2 196.1-103.4 183.3-218.7z" style="fill:url(#mozillafirefox_svg__n);opacity:.53"/></g><g transform="translate(-5.03 -5.026) scale(.1161)"><radialGradient id="mozillafirefox_svg__o" cx="-854.69" cy="-27.569" r="767.539" gradientTransform="translate(1310.671 86.11) scale(.9589)" gradientUnits="userSpaceOnUse"><stop offset=".054" style="stop-color:#fff44f"/><stop offset=".457" style="stop-color:#ff980e"/><stop offset=".521" style="stop-color:#ff8424"/><stop offset=".587" style="stop-color:#ff7634"/><stop offset=".639" style="stop-color:#ff7139"/></radialGradient><path d="M334.3 76.1c-.1.1-.1.2-.2.3-5.9 7.3-4.7 17.9 2.5 23.9 31 25.4 51.8 61.5 51.8 103.2 0 57.6-44.6 101.5-96.8 98.4-77.6-4.7-97.1-84-56.8-118.3-10.9-2.3-31.3 2.2-45.6 23.5-12.8 19.1-12.1 48.5-4.2 69.4 21.6 45.2 65.7 68.4 112.5 65.6 88.4-5.4 126.2-78.3 128.6-130.2 2.6-56.3-10.1-106.2-70.3-139.8-7.3-4.1-16.3-2.4-21.5 4z" style="fill:url(#mozillafirefox_svg__o)"/></g><g transform="translate(-5.03 -5.026) scale(.1161)"><linearGradient id="mozillafirefox_svg__p" x1="348.303" x2="137.295" y1="80.15" y2="445.625" gradientUnits="userSpaceOnUse"><stop offset="0" style="stop-color:#fff44f;stop-opacity:.8"/><stop offset=".75" style="stop-color:#fff44f;stop-opacity:0"/></linearGradient><path d="M415.1 124.7c-5.5-7.3-11.6-14.1-18-20.5-5.1-5.4-10.6-10.4-16.4-15.1 3.3 2.9 6.5 6 9.6 9.2 11.2 12.1 20.1 26.4 25.2 42 10.8 32.6 10.1 73.5-10.5 105.5-24.6 38.2-64.6 57.1-107.8 56.2-1.9 0-3.7 0-5.6-.1-77.6-4.7-97.1-84-56.8-118.3-10.9-2.3-31.3 2.2-45.6 23.5-12.8 19.1-12.1 48.5-4.2 69.4-4.8-10.1-8.3-20.3-10.1-32.7-10.2-68.8 36.1-127.5 78.6-142.1-22.9-20-80.4-18.6-123.1 12.8-24.9 18.3-42.7 44.3-52.1 75.3 1.4-17.4 8-43.3 21.5-69.9-14.3 7.4-32.5 30.8-41.5 52.4-13 31.2-17.5 68.5-13.4 104 .3 2.7.6 5.3.9 8 16.6 97.6 101.7 172 204 172 114.3 0 207-92.7 207-207-.1-46.8-15.6-89.9-41.7-124.6z" style="fill:url(#mozillafirefox_svg__p)"/></g><g transform="translate(-5.03 -5.026) scale(.1161)"><linearGradient id="mozillafirefox_svg__q" x1="-977.317" x2="-977.317" y1="-229.679" y2="-486.51" gradientTransform="translate(1258.441 532.89)" gradientUnits="userSpaceOnUse"><stop offset="0" style="stop-color:#3a8ee6"/><stop offset=".102" style="stop-color:#4d82eb"/><stop offset=".389" style="stop-color:#7d65fa"/><stop offset=".531" style="stop-color:#9059ff"/><stop offset=".692" style="stop-color:#9d50f8"/><stop offset=".989" style="stop-color:#c03ae7"/><stop offset="1" style="stop-color:#c139e6"/></linearGradient><path d="M415.5 140.3c-5.2-15.6-14-29.9-25.2-42C366.3 72.5 331 56 297 48.5c-28.6-6.3-58.6-6.2-85.6-.5-29.4 6.2-55.2 18.9-71.5 34.7 56.4-33 132.4-26.9 184.4 10.1 8.7 6.2 16.8 13.3 24.1 21.1 34.6 37.3 48.7 99.6 19.6 144.4-14.6 22.7-46 43.9-75.3 43.7 44.9 2.4 86.8-16.6 112.2-56.1 20.7-32.1 21.4-73 10.6-105.6z" style="fill:url(#mozillafirefox_svg__q)"/></g><g transform="translate(-5.03 -5.026) scale(.1161)"><linearGradient id="mozillafirefox_svg__r" x1="-1022.485" x2="-882.367" y1="-495.848" y2="-253.158" gradientTransform="translate(1258.441 532.89)" gradientUnits="userSpaceOnUse"><stop offset=".805" style="stop-color:#9059ff;stop-opacity:0"/><stop offset="1" style="stop-color:#6e008b;stop-opacity:.5"/></linearGradient><path d="M415.5 140.3c-5.2-15.6-14-29.9-25.2-42C366.3 72.5 331 56 297 48.5c-28.6-6.3-58.6-6.2-85.6-.5-29.4 6.2-55.2 18.9-71.5 34.7 56.4-33 132.4-26.9 184.4 10.1 8.7 6.2 16.8 13.3 24.1 21.1 34.6 37.3 48.7 99.6 19.6 144.4-14.6 22.7-46 43.9-75.3 43.7 44.9 2.4 86.8-16.6 112.2-56.1 20.7-32.1 21.4-73 10.6-105.6z" style="fill:url(#mozillafirefox_svg__r)"/></g></svg>