<svg xmlns="http://www.w3.org/2000/svg" viewBox="0 0 48 48"><defs><radialGradient id="mozillafirefoxbrowserbeta_svg__c" cx="392.81" cy="61.16" r="554.15" gradientTransform="scale(1.1087 .90193)" gradientUnits="userSpaceOnUse"><stop offset=".13" stop-color="#ffbd4f"/><stop offset=".28" stop-color="#ff980e"/><stop offset=".47" stop-color="#ff3750"/><stop offset=".78" stop-color="#eb0878"/><stop offset=".86" stop-color="#e50080"/></radialGradient><radialGradient id="mozillafirefoxbrowserbeta_svg__d" cx="226.56" cy="290.18" r="554.15" gradientTransform="scale(1.1087 .90193)" gradientUnits="userSpaceOnUse"><stop offset=".3" stop-color="#960e18"/><stop offset=".35" stop-color="#b11927" stop-opacity=".74"/><stop offset=".43" stop-color="#db293d" stop-opacity=".34"/><stop offset=".5" stop-color="#f5334b" stop-opacity=".09"/><stop offset=".53" stop-color="#ff3750" stop-opacity="0"/></radialGradient><radialGradient id="mozillafirefoxbrowserbeta_svg__e" cx="395.44" cy="-17.973" r="210.21" gradientTransform="scale(.76747 1.303)" gradientUnits="userSpaceOnUse"><stop offset=".13" stop-color="#fff44f"/><stop offset=".53" stop-color="#ff980e"/></radialGradient><radialGradient id="mozillafirefoxbrowserbeta_svg__f" cx="206.27" cy="373.24" r="223.5" gradientTransform="scale(.9552 1.0469)" gradientUnits="userSpaceOnUse"><stop offset=".35" stop-color="#3a8ee6"/><stop offset=".67" stop-color="#9059ff"/><stop offset="1" stop-color="#c139e6"/></radialGradient><radialGradient id="mozillafirefoxbrowserbeta_svg__g" cx="271.62" cy="200.9" r="131.86" gradientTransform="scale(.9552 1.0469)" gradientUnits="userSpaceOnUse"><stop offset=".21" stop-color="#9059ff" stop-opacity="0"/><stop offset=".97" stop-color="#6e008b" stop-opacity=".6"/></radialGradient><radialGradient id="mozillafirefoxbrowserbeta_svg__h" cx="240.61" cy="36.807" r="170.02" gradientTransform="scale(.99823 1.0018)" gradientUnits="userSpaceOnUse"><stop offset=".1" stop-color="#ffe226"/><stop offset=".79" stop-color="#ff7139"/></radialGradient><radialGradient id="mozillafirefoxbrowserbeta_svg__i" cx="362.08" cy="-81.709" r="742.39" gradientTransform="scale(1.0915 .91621)" gradientUnits="userSpaceOnUse"><stop offset=".11" stop-color="#fff44f"/><stop offset=".46" stop-color="#ff980e"/><stop offset=".72" stop-color="#ff3647"/><stop offset=".9" stop-color="#e31587"/></radialGradient><radialGradient id="mozillafirefoxbrowserbeta_svg__j" cx="475.59" cy="-41.588" r="779.91" gradientTransform="scale(.68818 1.4531)" gradientUnits="userSpaceOnUse"><stop offset="0" stop-color="#fff44f"/><stop offset=".3" stop-color="#ff980e"/><stop offset=".57" stop-color="#ff3647"/><stop offset=".74" stop-color="#e31587"/></radialGradient><radialGradient id="mozillafirefoxbrowserbeta_svg__k" cx="239.8" cy="99.006" r="461.11" gradientTransform="scale(1.0089 .99118)" gradientUnits="userSpaceOnUse"><stop offset=".14" stop-color="#fff44f"/><stop offset=".48" stop-color="#ff980e"/><stop offset=".66" stop-color="#ff3647"/><stop offset=".9" stop-color="#e31587"/></radialGradient><radialGradient id="mozillafirefoxbrowserbeta_svg__l" cx="343.04" cy="132.01" r="528.89" gradientTransform="scale(1.0573 .94584)" gradientUnits="userSpaceOnUse"><stop offset=".09" stop-color="#fff44f"/><stop offset=".63" stop-color="#ff980e"/></radialGradient><linearGradient id="mozillafirefoxbrowserbeta_svg__b" x1="441.98" x2="62.126" y1="75.631" y2="454.27" gradientTransform="scale(.98374 1.0165)" gradientUnits="userSpaceOnUse"><stop offset=".05" stop-color="#fff44f"/><stop offset=".37" stop-color="#ff980e"/><stop offset=".53" stop-color="#ff3647"/><stop offset=".7" stop-color="#e31587"/></linearGradient><linearGradient id="mozillafirefoxbrowserbeta_svg__m" x1="406.61" x2="104.09" y1="68.312" y2="409.87" gradientTransform="scale(.98374 1.0165)" gradientUnits="userSpaceOnUse"><stop offset=".17" stop-color="#fff44f" stop-opacity=".8"/><stop offset=".6" stop-color="#fff44f" stop-opacity="0"/></linearGradient><linearGradient id="mozillafirefoxbrowserbeta_svg__a" x1="446.05" x2="385.27" y1="434.46" y2="376.91" gradientUnits="userSpaceOnUse"><stop offset="0" stop-color="#054096" stop-opacity=".5"/><stop offset=".054" stop-color="#0f3d9c" stop-opacity=".441"/><stop offset=".261" stop-color="#2f35b1" stop-opacity=".249"/><stop offset=".466" stop-color="#462fbf" stop-opacity=".111"/><stop offset=".669" stop-color="#542bc8" stop-opacity=".028"/><stop offset=".864" stop-color="#592acb" stop-opacity="0"/></linearGradient><linearGradient id="mozillafirefoxbrowserbeta_svg__n" x1="280.37" x2="499.81" y1="377.93" y2="470.78" gradientUnits="userSpaceOnUse"><stop offset=".001" stop-color="#54ffbd"/><stop offset="1" stop-color="#0df"/></linearGradient><filter id="mozillafirefoxbrowserbeta_svg__o" width="1.177" height="1.348" x="-.097" y="-.191"><feOffset dx="-4" dy="-4" in="SourceGraphic" result="offOut"/><feColorMatrix in="offOut" result="matrixOut" values=".01 0 0 0 0 0 0 0 0 0 0 .2 0 0 0 0 0 0 .2 0"/><feGaussianBlur in="matrixOut" result="blurOut" stdDeviation="8"/><feBlend in="SourceGraphic" in2="blurOut"/></filter></defs><path fill="#008787" d="M41.892 31.407H25.007a.9.9 0 0 0-.9.9v2.702a7.204 7.204 0 0 0 7.204 7.205h9.343a5.404 5.404 0 0 0 5.404-5.404v-2.364c0-1.35-1.351-3.04-4.166-3.04z"/><path fill="url(#mozillafirefoxbrowserbeta_svg__a)" d="M450.68 326.63H275.07a9.366 9.366 0 0 0-9.366 9.366v28.1a74.926 74.926 0 0 0 74.927 74.926h97.171a56.2 56.2 0 0 0 56.195-56.197V358.24c0-14.044-14.049-31.61-43.317-31.61z" opacity=".9" transform="translate(-1.442) scale(.09615)"/><path fill="url(#mozillafirefoxbrowserbeta_svg__b)" d="M478.71 166.35c-10.445-25.124-31.6-52.248-48.212-60.821 13.52 26.505 21.345 53.093 24.335 72.936 0 .039.015.136.047.4C427.705 111.132 381.626 83.82 344 24.355c-1.9-3.007-3.805-6.022-5.661-9.2a73.716 73.716 0 0 1-2.646-4.972A43.7 43.7 0 0 1 332.1.677a.626.626 0 0 0-.546-.644.818.818 0 0 0-.451 0c-.034.012-.084.051-.12.065-.053.021-.12.069-.176.1.027-.036.083-.117.1-.136-60.37 35.356-80.85 100.76-82.732 133.48a120.25 120.25 0 0 0-66.142 25.488 71.355 71.355 0 0 0-6.225-4.7 111.34 111.34 0 0 1-.674-58.732c-24.688 11.241-43.89 29.01-57.85 44.7h-.111c-9.527-12.067-8.855-51.873-8.312-60.184-.114-.515-7.107 3.63-8.023 4.255a175.07 175.07 0 0 0-23.486 20.12 210.48 210.48 0 0 0-22.442 26.913c0 .012-.007.026-.011.038 0-.013.007-.026.011-.038a202.84 202.84 0 0 0-32.247 72.805c-.115.521-.212 1.061-.324 1.586-.452 2.116-2.08 12.7-2.365 15-.022.177-.032.347-.053.524a229.07 229.07 0 0 0-3.9 33.157c0 .41-.025.816-.025 1.227.004 132.71 107.6 240.3 240.33 240.3 118.86 0 217.56-86.288 236.88-199.63.407-3.076.733-6.168 1.092-9.271 4.777-41.21-.53-84.525-15.587-120.75zm-277 188.09c1.124.537 2.18 1.124 3.334 1.639.048.033.114.07.163.1a126.19 126.19 0 0 1-3.497-1.739zm253.183-175.52-.032-.233c.012.085.027.174.04.259z" transform="translate(-1.442) scale(.09615)"/><path fill="url(#mozillafirefoxbrowserbeta_svg__c)" d="M478.71 166.35c-10.445-25.124-31.6-52.248-48.212-60.821 13.52 26.505 21.345 53.093 24.335 72.936 0-.058.011.048.036.226.012.085.027.174.04.259 22.675 61.47 10.322 123.98-7.479 162.18-27.539 59.1-94.215 119.67-198.58 116.72-112.76-3.193-212.09-86.856-230.63-196.43-3.379-17.28 0-26.054 1.7-40.084-2.071 10.816-2.86 13.94-3.9 33.157 0 .41-.025.816-.025 1.227.002 132.71 107.6 240.29 240.33 240.29 118.86 0 217.56-86.288 236.88-199.63.407-3.076.733-6.168 1.092-9.271 4.777-41.21-.53-84.525-15.587-120.75z" transform="translate(-1.442) scale(.09615)"/><path fill="url(#mozillafirefoxbrowserbeta_svg__d)" d="M478.71 166.35c-10.445-25.124-31.6-52.248-48.212-60.821 13.52 26.505 21.345 53.093 24.335 72.936 0-.058.011.048.036.226.012.085.027.174.04.259 22.675 61.47 10.322 123.98-7.479 162.18-27.539 59.1-94.215 119.67-198.58 116.72-112.76-3.193-212.09-86.856-230.63-196.43-3.379-17.28 0-26.054 1.7-40.084-2.071 10.816-2.86 13.94-3.9 33.157 0 .41-.025.816-.025 1.227.002 132.71 107.6 240.29 240.33 240.29 118.86 0 217.56-86.288 236.88-199.63.407-3.076.733-6.168 1.092-9.271 4.777-41.21-.53-84.525-15.587-120.75z" transform="translate(-1.442) scale(.09615)"/><path fill="url(#mozillafirefoxbrowserbeta_svg__e)" d="M361.92 194.6c.524.368 1 .734 1.493 1.1a130.71 130.71 0 0 0-22.31-29.112C266.398 91.892 321.514 4.628 330.809.198c.027-.036.083-.117.1-.136-60.37 35.356-80.85 100.76-82.732 133.48 2.8-.194 5.592-.429 8.442-.429 45.051 0 84.289 24.77 105.3 61.487z" transform="translate(-1.442) scale(.09615)"/><path fill="url(#mozillafirefoxbrowserbeta_svg__f)" d="M256.77 209.51c-.393 5.978-21.514 26.593-28.9 26.593-68.339 0-79.432 41.335-79.432 41.335 3.027 34.81 27.261 63.475 56.611 78.643 1.339.692 2.694 1.317 4.05 1.935a132.77 132.77 0 0 0 7.059 2.886 106.74 106.74 0 0 0 31.271 6.031c119.78 5.618 142.99-143.19 56.545-186.41 22.137-3.85 45.115 5.053 57.947 14.067-21.012-36.714-60.25-61.484-105.3-61.484-2.85 0-5.641.235-8.442.429a120.25 120.25 0 0 0-66.142 25.488c3.664 3.1 7.8 7.244 16.514 15.828 16.302 16.067 58.13 32.705 58.219 34.657z" transform="translate(-1.442) scale(.09615)"/><path fill="url(#mozillafirefoxbrowserbeta_svg__g)" d="M256.77 209.51c-.393 5.978-21.514 26.593-28.9 26.593-68.339 0-79.432 41.335-79.432 41.335 3.027 34.81 27.261 63.475 56.611 78.643 1.339.692 2.694 1.317 4.05 1.935a132.77 132.77 0 0 0 7.059 2.886 106.74 106.74 0 0 0 31.271 6.031c119.78 5.618 142.99-143.19 56.545-186.41 22.137-3.85 45.115 5.053 57.947 14.067-21.012-36.714-60.25-61.484-105.3-61.484-2.85 0-5.641.235-8.442.429a120.25 120.25 0 0 0-66.142 25.488c3.664 3.1 7.8 7.244 16.514 15.828 16.302 16.067 58.13 32.705 58.219 34.657z" transform="translate(-1.442) scale(.09615)"/><path fill="url(#mozillafirefoxbrowserbeta_svg__h)" d="M170.83 151.04a244.04 244.04 0 0 1 4.981 3.3 111.34 111.34 0 0 1-.674-58.732c-24.688 11.241-43.89 29.01-57.85 44.7 1.155-.033 36.014-.66 53.543 10.732z" transform="translate(-1.442) scale(.09615)"/><path fill="url(#mozillafirefoxbrowserbeta_svg__i)" d="M18.223 261.41c18.543 109.58 117.88 193.24 230.63 196.43 104.36 2.954 171.04-57.62 198.58-116.72 17.8-38.2 30.154-100.7 7.479-162.18l-.008-.026-.032-.233c-.025-.178-.04-.284-.036-.226 0 .039.015.136.047.4 8.524 55.661-19.79 109.58-64.051 146.04l-.133.313c-86.245 70.223-168.77 42.368-185.48 30.966a144.11 144.11 0 0 1-3.5-1.743c-50.282-24.029-71.054-69.838-66.6-109.12-42.457 0-56.934-35.809-56.934-35.809s38.119-27.179 88.358-3.541c46.53 21.893 90.228 3.543 90.233 3.541-.089-1.952-41.917-18.59-58.223-34.656-8.713-8.584-12.85-12.723-16.514-15.828a71.355 71.355 0 0 0-6.225-4.7 282.93 282.93 0 0 0-4.981-3.3c-17.528-11.392-52.388-10.765-53.543-10.735h-.111c-9.527-12.067-8.855-51.873-8.312-60.184-.114-.515-7.107 3.63-8.023 4.255a175.07 175.07 0 0 0-23.486 20.12 210.48 210.48 0 0 0-22.442 26.919c0 .012-.007.026-.011.038 0-.013.007-.026.011-.038a202.84 202.84 0 0 0-32.247 72.805c-.115.521-8.65 37.842-4.44 57.199z" transform="translate(-1.442) scale(.09615)"/><path fill="url(#mozillafirefoxbrowserbeta_svg__j)" d="M341.1 166.59a130.71 130.71 0 0 1 22.31 29.112c1.323.994 2.559 1.985 3.608 2.952 54.482 50.2 25.936 121.2 23.807 126.26 44.261-36.46 72.575-90.383 64.051-146.04-27.175-67.732-73.254-95.044-110.88-154.51-1.9-3.007-3.805-6.022-5.661-9.2a73.716 73.716 0 0 1-2.646-4.972 43.7 43.7 0 0 1-3.593-9.506.626.626 0 0 0-.546-.644.818.818 0 0 0-.451 0c-.034.012-.084.051-.12.065-.053.021-.12.069-.176.1-9.291 4.428-64.407 91.694 10.298 166.39z" transform="translate(-1.442) scale(.09615)"/><path fill="url(#mozillafirefoxbrowserbeta_svg__k)" d="M367.02 198.65c-1.049-.967-2.285-1.958-3.608-2.952-.489-.368-.969-.734-1.493-1.1-12.832-9.014-35.81-17.917-57.947-14.067 86.441 43.214 63.235 192.03-56.545 186.41a106.74 106.74 0 0 1-31.271-6.031 134.51 134.51 0 0 1-7.059-2.886c-1.356-.618-2.711-1.243-4.05-1.935.048.033.114.07.163.1 16.71 11.4 99.239 39.257 185.48-30.966l.133-.313c2.129-5.054 30.675-76.057-23.807-126.26z" transform="translate(-1.442) scale(.09615)"/><path fill="url(#mozillafirefoxbrowserbeta_svg__l)" d="M148.44 277.44s11.093-41.335 79.432-41.335c7.388 0 28.509-20.615 28.9-26.593s-43.7 18.352-90.233-3.541c-50.239-23.638-88.358 3.541-88.358 3.541s14.477 35.809 56.934 35.809c-4.453 39.286 16.319 85.1 66.6 109.12 1.124.537 2.18 1.124 3.334 1.639-29.348-15.169-53.582-43.834-56.609-78.644z" transform="translate(-1.442) scale(.09615)"/><path fill="url(#mozillafirefoxbrowserbeta_svg__m)" d="M478.71 166.35c-10.445-25.124-31.6-52.248-48.212-60.821 13.52 26.505 21.345 53.093 24.335 72.936 0 .039.015.136.047.4C427.705 111.132 381.626 83.82 344 24.355c-1.9-3.007-3.805-6.022-5.661-9.2a73.716 73.716 0 0 1-2.646-4.972A43.7 43.7 0 0 1 332.1.677a.626.626 0 0 0-.546-.644.818.818 0 0 0-.451 0c-.034.012-.084.051-.12.065-.053.021-.12.069-.176.1.027-.036.083-.117.1-.136-60.37 35.356-80.85 100.76-82.732 133.48 2.8-.194 5.592-.429 8.442-.429 45.053 0 84.291 24.77 105.3 61.484-12.832-9.014-35.81-17.917-57.947-14.067 86.441 43.214 63.235 192.03-56.545 186.41a106.74 106.74 0 0 1-31.271-6.031 134.51 134.51 0 0 1-7.059-2.886c-1.356-.618-2.711-1.243-4.05-1.935.048.033.114.07.163.1a144.11 144.11 0 0 1-3.5-1.743c1.124.537 2.18 1.124 3.334 1.639-29.35-15.168-53.584-43.833-56.611-78.643 0 0 11.093-41.335 79.432-41.335 7.388 0 28.509-20.615 28.9-26.593-.089-1.952-41.917-18.59-58.223-34.656-8.713-8.584-12.85-12.723-16.514-15.828a71.355 71.355 0 0 0-6.225-4.7 111.34 111.34 0 0 1-.674-58.732c-24.688 11.241-43.89 29.01-57.85 44.7h-.111c-9.527-12.067-8.855-51.873-8.312-60.184-.114-.515-7.107 3.63-8.023 4.255a175.07 175.07 0 0 0-23.486 20.12 210.48 210.48 0 0 0-22.435 26.916c0 .012-.007.026-.011.038 0-.013.007-.026.011-.038a202.84 202.84 0 0 0-32.247 72.805c-.115.521-.212 1.061-.324 1.586-.452 2.116-2.486 12.853-2.77 15.156-.022.177.021-.176 0 0a279.56 279.56 0 0 0-3.544 33.53c0 .41-.025.816-.025 1.227 0 132.71 107.6 240.29 240.32 240.29 118.86 0 217.56-86.288 236.88-199.63.407-3.076.733-6.168 1.092-9.271 4.777-41.21-.53-84.525-15.587-120.75zm-23.841 12.341c.012.085.027.174.04.259l-.008-.026z" transform="translate(-1.442) scale(.09615)"/><path fill="url(#mozillafirefoxbrowserbeta_svg__n)" d="M484.63 367.61H323.19a69.189 69.189 0 0 0-69.189 69.19v33.835a9.366 9.366 0 0 0 9.366 9.365h161.44a69.189 69.189 0 0 0 69.189-69.189v-52.567a9.366 9.366 0 0 1-9.366 9.366z" filter="url(#mozillafirefoxbrowserbeta_svg__o)" transform="translate(-1.442) scale(.09615)"/><path fill="#20123a" d="M29.927 40.69a.987.987 0 0 0 .514-.907c0-.802-.557-1.249-1.549-1.249h-1.849v4.47h1.862c.991 0 1.604-.44 1.604-1.323 0-.465-.208-.802-.582-.992zm-2.033-1.39h1.017c.453 0 .667.19.667.502 0 .306-.196.532-.655.532h-1.029zm1.023 2.926h-1.023v-1.114h.986c.545 0 .753.202.753.55s-.245.564-.716.564zm2.418.778h3.006v-.82h-2.143v-1.017h2.143v-.814h-2.143v-1.005h2.143v-.814h-3.006zm7.072-4.47h-3.325v.796h1.243v3.674h.851V39.33h1.231zm2.314 0h-.85l-1.69 4.47h.887l.294-.814h1.868l.294.814h.887zm-1.071 2.872.649-1.776.643 1.776z"/></svg>