<svg xmlns="http://www.w3.org/2000/svg" viewBox="0 0 48 48"><defs><linearGradient id="mozillafirefoxbrowserdeveloper_svg__f" x1="533.39" x2="575.89" y1="-22.365" y2="255.05" gradientTransform="scale(.68859 1.4522)" gradientUnits="userSpaceOnUse"><stop offset="0" stop-color="#AAF2FF"/><stop offset=".29" stop-color="#0DF"/><stop offset=".61" stop-color="#0090ED"/><stop offset=".89" stop-color="#0250BB"/></linearGradient><linearGradient id="mozillafirefoxbrowserdeveloper_svg__g" x1="380.24" x2="417.81" y1=".049" y2="186.35" gradientTransform="scale(.76797 1.3021)" gradientUnits="userSpaceOnUse"><stop offset="0" stop-color="#AAF2FF"/><stop offset=".29" stop-color="#0DF"/><stop offset=".74" stop-color="#0090ED"/><stop offset="1" stop-color="#0250BB"/></linearGradient><linearGradient id="mozillafirefoxbrowserdeveloper_svg__k" x1="435.82" x2="113.6" y1="73.239" y2="410.1" gradientTransform="scale(.98434 1.0159)" gradientUnits="userSpaceOnUse"><stop offset=".24" stop-color="#80EBFF" stop-opacity=".5"/><stop offset=".7" stop-color="#0DF" stop-opacity="0"/></linearGradient><linearGradient id="mozillafirefoxbrowserdeveloper_svg__l" x1="207.43" x2="163.5" y1="205.17" y2="375.54" gradientTransform="scale(1.0303 .97055)" gradientUnits="userSpaceOnUse"><stop offset="0" stop-color="#BFF3FF" stop-opacity=".9"/><stop offset="1" stop-color="#80EBFF" stop-opacity=".5"/></linearGradient><linearGradient id="mozillafirefoxbrowserdeveloper_svg__m" x1="601.39" x2="593.69" y1="-5.117" y2="356.45" gradientTransform="scale(.64298 1.5553)" gradientUnits="userSpaceOnUse"><stop offset="0" stop-color="#BFF3FF"/><stop offset="1" stop-color="#0DF" stop-opacity="0"/></linearGradient><linearGradient id="mozillafirefoxbrowserdeveloper_svg__n" x1="357.81" x2="352.8" y1="-3.955" y2="143.3" gradientTransform="scale(.81551 1.2262)" gradientUnits="userSpaceOnUse"><stop offset="0" stop-color="#BFF3FF"/><stop offset="1" stop-color="#AAF2FF" stop-opacity=".5"/></linearGradient><linearGradient id="mozillafirefoxbrowserdeveloper_svg__o" x1="370.8" x2="360.77" y1="156.69" y2="397.39" gradientTransform="scale(.89097 1.1224)" gradientUnits="userSpaceOnUse"><stop offset="0" stop-color="#BFF3FF"/><stop offset="1" stop-color="#0DF" stop-opacity="0"/></linearGradient><linearGradient id="mozillafirefoxbrowserdeveloper_svg__p" x1="154.6" x2="167.84" y1="205.39" y2="412.29" gradientTransform="scale(1.0631 .94065)" gradientUnits="userSpaceOnUse"><stop offset="0" stop-color="#BFF3FF" stop-opacity=".8"/><stop offset="1" stop-color="#80EBFF" stop-opacity=".2"/></linearGradient><linearGradient id="mozillafirefoxbrowserdeveloper_svg__q" x1="189.17" x2="135.66" y1="80.425" y2="167.3" gradientTransform="scale(.9796 1.0208)" gradientUnits="userSpaceOnUse"><stop offset="0" stop-color="#BFF3FF" stop-opacity=".8"/><stop offset="1" stop-color="#80EBFF" stop-opacity=".2"/></linearGradient><linearGradient id="mozillafirefoxbrowserdeveloper_svg__r" x1="124.61" x2="114.52" y1="182.33" y2="460.85" gradientTransform="scale(.80006 1.2499)" gradientUnits="userSpaceOnUse"><stop offset="0" stop-color="#0DF" stop-opacity=".4"/><stop offset="1" stop-color="#0DF" stop-opacity="0"/></linearGradient><linearGradient id="mozillafirefoxbrowserdeveloper_svg__s" x1="168.62" x2="168.62" y1="28.256" y2="355.7" gradientTransform="scale(.79485 1.2581)" gradientUnits="userSpaceOnUse"><stop offset="0" stop-color="#BFF3FF"/><stop offset="1" stop-color="#0DF" stop-opacity="0"/></linearGradient><linearGradient id="mozillafirefoxbrowserdeveloper_svg__t" x1="432.94" x2="413.16" y1="79.211" y2="557.18" gradientTransform="scale(.84422 1.1845)" gradientUnits="userSpaceOnUse"><stop offset="0" stop-color="#BFF3FF" stop-opacity=".8"/><stop offset="1" stop-color="#0DF" stop-opacity="0"/></linearGradient><radialGradient id="mozillafirefoxbrowserdeveloper_svg__a" cx="268.72" cy="191.79" r="140.64" gradientTransform="scale(1.0002 .9998)" gradientUnits="userSpaceOnUse"><stop offset=".1" stop-color="#0DF" stop-opacity=".4"/><stop offset=".9" stop-color="#7542E5" stop-opacity=".25"/></radialGradient><radialGradient id="mozillafirefoxbrowserdeveloper_svg__b" cx="255.21" cy="256.72" r="119.54" fx="254.66" gradientTransform="scale(1.0002 .9998)" gradientUnits="userSpaceOnUse"><stop offset=".91" stop-color="#7542E5" stop-opacity="0"/><stop offset="1" stop-color="#0DF" stop-opacity=".4"/></radialGradient><radialGradient id="mozillafirefoxbrowserdeveloper_svg__c" cx="386.71" cy="60.773" r="554.46" gradientTransform="scale(1.1094 .9014)" gradientUnits="userSpaceOnUse"><stop offset="0" stop-color="#80EBFF"/><stop offset=".26" stop-color="#0DF"/><stop offset=".53" stop-color="#0090ED"/><stop offset=".86" stop-color="#0060DF"/></radialGradient><radialGradient id="mozillafirefoxbrowserdeveloper_svg__d" cx="220.93" cy="290.35" r="554.46" fx="222.1" gradientTransform="scale(1.1094 .9014)" gradientUnits="userSpaceOnUse"><stop offset=".3" stop-color="#321C64" stop-opacity=".8"/><stop offset=".37" stop-color="#212F83" stop-opacity=".5"/><stop offset=".48" stop-color="#0A47AC" stop-opacity=".14"/><stop offset=".53" stop-color="#0250BB" stop-opacity="0"/></radialGradient><radialGradient id="mozillafirefoxbrowserdeveloper_svg__e" cx="386.78" cy="-118.89" r="866.61" gradientTransform="scale(1.0921 .91567)" gradientUnits="userSpaceOnUse"><stop offset="0" stop-color="#80EBFF"/><stop offset=".47" stop-color="#00B3F4"/><stop offset=".84" stop-color="#0060DF"/><stop offset="1" stop-color="#592ACB"/></radialGradient><radialGradient id="mozillafirefoxbrowserdeveloper_svg__h" cx="239.29" cy="34.491" r="175.98" gradientTransform="scale(.99881 1.0012)" gradientUnits="userSpaceOnUse"><stop offset="0" stop-color="#0DF"/><stop offset=".82" stop-color="#0090ED"/></radialGradient><radialGradient id="mozillafirefoxbrowserdeveloper_svg__i" cx="335.7" cy="131.62" r="529" gradientTransform="scale(1.0578 .94534)" gradientUnits="userSpaceOnUse"><stop offset=".29" stop-color="#80EBFF"/><stop offset="1" stop-color="#00B3F4"/></radialGradient><radialGradient id="mozillafirefoxbrowserdeveloper_svg__j" cx="232.09" cy="98.109" r="445.12" gradientTransform="scale(1.0095 .99057)" gradientUnits="userSpaceOnUse"><stop offset=".18" stop-color="#AAF2FF"/><stop offset=".43" stop-color="#0DF"/><stop offset=".69" stop-color="#0060DF"/></radialGradient></defs><path fill="#09204d" d="m13.415 27.977 1.465 4.063 2.202 2.97 5.17.986 2.472.21 4.222-1.054 1.82-1.744z"/><path fill="#09204d" d="m35.293 21.985-.518-1.717-1.48-2.793-1.693-1.784-1.797-1.283-1.56-.613-1.872-.666-3.083-.196-1.944.35-1.586.488-2.815 1.648-1.759 1.962-1.622 2.634-.638 2.242-.119 3.401.608 2.32 1.342 2.64.946 1.275 1.309 1.2 1.634 1.105 2.015.876 3.372.396 1.76.049 2.607-.734 2.33-1.279 1.498-1.278 1.162-1.386 1.643-3.217.363-2.2z"/><path fill="#0e56d7" d="m23.346 14.479-1.38 1.37 2.251.912 1.676-2.077z"/><path fill="#1053d1" d="m24.217 16.76 4.36-.131-2.685-1.946z"/><path fill="#0b4fbf" d="m28.253 14.669-2.36.014 2.684 1.945 2.483-.162z"/><path fill="#0b48b0" d="m31.06 16.467-1.412-1.947 1.954 1.17z"/><path fill="#0c45a7" d="m32.929 17.659-1.87-1.192.543-.776z"/><path fill="#0f46af" d="m31.06 16.467-.313 1.333 1.71.683z"/><path fill="#0c47ad" d="m31.06 16.467 1.869 1.191-.472.825z"/><path fill="#0e4fc3" d="m28.578 16.63 2.482-.163-.312 1.333z"/><path fill="#174dca" d="m28.578 16.63-1.962 1.775 2.525 1.236z"/><path fill="#1650d4" d="m24.217 16.76 4.36-.131-1.962 1.775z"/><path fill="#1246b2" d="m30.747 17.8 1.188 2.303.522-1.62z"/><path fill="#133ea1" d="m31.935 20.102.522-1.619 1.244 2.959z"/><path fill="#103d98" d="m32.456 18.483 1.896 1.389-.652 1.57z"/><path fill="#0b3785" d="m32.929 17.659.366-.184 1.057 2.397z"/><path fill="#0b3685" d="m34.352 19.871.423.396-1.48-2.792z"/><path fill="#0c3b91" d="m34.352 19.871-1.423-2.213-.473.825zm-2.75-4.18 1.327 1.967.366-.184z"/><path fill="#0b3279" d="m35.197 23.326-.422-3.059.517 1.717-.102 1.342z"/><path fill="#0f388d" d="m34.352 19.871.845 3.455-.422-3.059z"/><path fill="#0d3481" d="m33.7 21.442 1.498 1.885-.845-3.455z"/><path fill="#0b2e71" d="m35.19 23.326.102-1.342.103 3.441-.198-2.099z"/><path fill="#0e2f77" d="m34.946 26.045.45-.62-.199-2.099z"/><path fill="#0e2969" d="m35.033 27.625-.36.173.722-2.373z"/><path fill="#0c2a69" d="m34.673 27.798.722-2.373-.449.62z"/><path fill="#123180" d="m34.946 26.045.251-2.719-.769.907z"/><path fill="#112b70" d="m34.673 27.798.273-1.753-1.483 2.493z"/><path fill="#12378c" d="m33.7 21.442 1.498 1.885-.77.907z"/><path fill="#122e7b" d="m34.946 26.045-.518-1.812-.782 2.232z"/><path fill="#11296c" d="m33.39 30.842 1.283-3.043-1.201 2.218z"/><path fill="#142a72" d="m33.472 30.016 1.202-2.218-1.21.74z"/><path fill="#112768" d="m34.673 27.798-1.284 3.044 1.643-3.217zm-2.446 4.43 1.162-1.386.083-.825zm-1.498 1.278 1.498-1.278-1.583.728z"/><path fill="#1c226a" d="m21.982 34.397-1.514.37.046-1.056z"/><path fill="#182b7a" d="m13.564 20.014.417-.154-1.055 2.396z"/><path fill="#1f308d" d="m12.926 22.257.8-.149.255-2.248z"/><path fill="#1e2b7f" d="m12.973 25.135-.047-2.878.799-.149z"/><path fill="#1346b5" d="m30.747 17.8-1.607 1.84 2.795.463zm-14.023-1.888 2.052-1.403-1.83.91z"/><path fill="#1244ac" d="m16.945 15.419 2.815-1.648-.984.738-1.83.91"/><path fill="#0e4ab6" d="m18.775 14.509 2.57-1.225-1.586.487z"/><path fill="#0e4bba" d="m28.578 16.63.563 3.011 1.607-1.84zm-8.237-2.264 2.394-.957-1.39-.125z"/><path fill="#0a4ebc" d="m23.29 12.932-1.944.351 1.39.125z"/><path fill="#0c54cc" d="m25.128 13.384-2.393.024.555-.476"/><path fill="#0b4bb4" d="m29.649 14.52-1.395.149 2.806 1.798zm-4.52-1.135 3.115.41-1.872-.666z"/><path fill="#0c3889" d="m29.649 14.52-1.404-.725 1.56.612z"/><path fill="#202575" d="m13.415 27.977.921.758-1.363-3.6zm12.715 7.16.81-1.906-2.952.793zm.81-1.906 2.468.684.15-1.908z"/><path fill="#1b2773" d="m30.644 32.956-1.086-.95 2.624-1.743z"/><path fill="#15276d" d="m32.181 30.263-1.538 2.693 1.584-.728 1.245-2.212z"/><path fill="#0c409d" d="m29.805 14.407-.157.113 1.954 1.17zm-1.552.262 1.395-.149-1.404-.726z"/><path fill="#0b4cb7" d="m23.29 12.932 1.838.452 1.245-.255zm4.955.863-3.117-.41 3.126 1.283z"/><path fill="#0b55ce" d="m25.128 13.384.765 1.3 2.36-.015z"/><path fill="#0a52c5" d="m25.128 13.384.765 1.3-2.547-.206z"/><path fill="#0951c4" d="m22.735 13.408.611 1.07 1.782-1.093z"/><path fill="#0b50c4" d="m20.341 14.366 2.394-.958.611 1.07z"/><path fill="#0f4dbf" d="m18.775 14.509 1.565-.143 1.005-1.082zm1.565-.143 1.625 1.482 1.38-1.37z"/><path fill="#1546b6" d="m20.341 14.366-2.645 2.48 1.08-2.338z"/><path fill="#1549bd" d="m17.696 16.846 1.688.28.957-2.76z"/><path fill="#144bc3" d="m19.384 17.127.957-2.76 1.624 1.482z"/><path fill="#173794" d="m15.186 17.38.102.998 1.436-2.467z"/><path fill="#192f84" d="m13.982 19.86 1.204-2.48.103.998z"/><path fill="#1a389b" d="m15.288 18.378 1.436-2.466.972.933z"/><path fill="#1d3089" d="m15.202 20.517.087-2.138-1.307 1.482z"/><path fill="#1e389f" d="m15.202 20.517.087-2.138 1.697 1.377z"/><path fill="#1c40af" d="m16.985 19.755.71-2.91-2.407 1.533z"/><path fill="#1e41b7" d="m16.985 19.755.71-2.91 1.688.28z"/><path fill="#192c7d" d="m13.725 22.108.257-2.248 1.22.656z"/><path fill="#162467" d="m26.131 35.137 2.269-.353 1.008-.87zm-13.324-9.48.167-.523-.048-2.878zm.918-3.55-.751 3.027 1.362 3.6-.664-4.17z"/><path fill="#1a236a" d="m14.336 28.735 1.124.157-.787-1.837z"/><path fill="#132668" d="m30.644 32.956-1.236.959-1.009.87 2.33-1.279zm-6.611 2.514 1.76.049 2.606-.734-2.268.352zm-8.648-4.646 1.181.228-1.106-2.158z"/><path fill="#1b2268" d="m20.514 33.71-2-1.54-.831.8 2.785 1.797zm-7.1-5.733 1.342 2.64-.42-1.882zm-.607-2.32.608 2.32-.441-2.842zm11.182 8.366-3.474-.313 1.468.687-1.515.37-1.823-.57 2.015.877 3.373.395 2.098-.332zm-8.529-5.13-1.124-.158 1.05 2.089zm-1.788-4.33.664 4.172.337-1.68zm2.895 6.488-1.182-.227-.628-.207.946 1.275 1.308 1.2 1.635 1.105-.963-1.227z"/><path fill="#212a81" d="m13.725 22.108 1.587 2.453-.11-4.045z"/><path fill="#21267a" d="m13.671 24.564 1.002 2.491.638-2.493z"/><path fill="#262781" d="m14.673 27.056.638-2.494.793 1.97z"/><path fill="#272379" d="m15.46 28.893 3.042 1.884-2.398-4.245z"/><path fill="#1e226d" d="m14.756 30.617.628.207-1.048-2.089zm6.718 1.084-.96 2.01 3.474.312zm-6.014-2.809 1.106 2.158 1.116 1.92.832-.8-.013-1.393z"/><path fill="#222475" d="m29.558 32.007-.15 1.908 1.236-.959zm-5.316-.274-.253 2.29 2.952-.793-.105-2.574z"/><path fill="#23277d" d="m13.671 24.564 1.64-.003-1.586-2.453zm13.165 6.092.105 2.574 2.617-1.223z"/><path fill="#1e2776" d="m26.836 30.656 1.684-1.525 1.038 2.876z"/><path fill="#222b86" d="m29.558 32.007 1.273-3.856-2.311.98z"/><path fill="#192974" d="m32.181 30.263-2.623 1.744 1.273-3.856z"/><path fill="#172a75" d="m33.464 28.537-2.633-.386 1.351 2.112 1.29-.247z"/><path fill="#172d7d" d="m33.647 26.465-2.816 1.686 2.633.387 1.483-2.492z"/><path fill="#18338a" d="m13.982 19.86 1.204-2.48-1.622 2.635zm18.615 3.07 1.05 3.536.782-2.232z"/><path fill="#153791" d="M34.429 24.233 33.7 21.44l-1.104 1.488z"/><path fill="#1b318b" d="m30.83 28.151 2.816-1.685-2.729-1.215z"/><path fill="#242d8d" d="m30.83 28.151-2.551-2.578.24 3.558z"/><path fill="#2a2b8f" d="m26.836 30.656-1.96-1.735 3.644.21z"/><path fill="#27267f" d="m15.46 28.893.644-2.361-1.43.523zm9.417.028-.635 2.812 2.594-1.077z"/><path fill="#2d2381" d="m20.821 29.497-1.886-.959-.434 2.24 2.973.924 2.767.031z"/><path fill="#2f2485" d="m24.241 31.733.635-2.812-4.055.575z"/><path fill="#233196" d="m15.312 24.56.813-2.596-.923-1.448z"/><path fill="#293cb7" d="m16.985 19.755 3.57-1.04-1.886 3.852z"/><path fill="#25339c" d="m30.83 28.151-2.551-2.578 2.638-.322z"/><path fill="#19348f" d="m33.647 26.465-1.05-3.536-1.68 2.322z"/><path fill="#2a309a" d="m28.52 29.13-2.92-2.82 2.678-.737z"/><path fill="#302b96" d="m24.877 28.92 3.643.21-2.918-2.821z"/><path fill="#3630a7" d="m24.877 28.92-1.996-1.624 2.721-.987z"/><path fill="#173da2" d="m16.724 15.912.221-.493-1.759 1.962zm15.21 4.19.662 2.827 1.105-1.487z"/><path fill="#2a36a8" d="m16.985 19.755 1.684 2.812-2.545-.603z"/><path fill="#312e9f" d="m16.124 21.964 2.545.603-1.72 2.71z"/><path fill="#184dcd" d="m20.556 18.715 1.41-2.867-2.582 1.278z"/><path fill="#272986" d="m15.312 24.56 1.637.717-.845 1.254z"/><path fill="#2c2584" d="m16.949 25.278-.845 1.254 2.398 4.245.433-2.24z"/><path fill="#32268b" d="m18.935 28.537.265-3.943-2.252.684z"/><path fill="#372999" d="m18.935 28.537 3.945-1.241-3.68-2.702z"/><path fill="#392da5" d="m22.88 27.296-.384-3.05-3.296.348z"/><path fill="#3338bc" d="m22.496 24.247 2.783-1.04.323 3.102z"/><path fill="#362896" d="m20.821 29.497 4.055-.576-1.995-1.625z"/><path fill="#35268f" d="m20.821 29.497-1.886-.959 3.946-1.242z"/><path fill="#2648d3" d="m20.556 18.715 2.417.255-1.007-3.122z"/><path fill="#1057dc" d="m24.217 16.76-2.252-.912 1.007 3.122z"/><path fill="#1653da" d="m24.217 16.76 2.398 1.644-3.643.566z"/><path fill="#2b46d5" d="m22.972 18.97 3.574 1.895-1.267 2.341z"/><path fill="#244ad7" d="m26.546 20.865.07-2.461-3.644.566z"/><path fill="#2547cf" d="m26.546 20.865.07-2.461 2.524 1.236z"/><path fill="#333cc5" d="m22.972 18.97 2.307 4.236-4.046-2.027z"/><path fill="#3833b6" d="m22.496 24.247 2.783-1.04-4.046-2.027z"/><path fill="#2a41c6" d="m25.28 23.206 3.568-.652-2.302-1.689z"/><path fill="#2045c1" d="m29.14 19.64-.292 2.915-2.301-1.69z"/><path fill="#1b43b7" d="m29.14 19.64 1.685 2.288-1.977.627z"/><path fill="#1742af" d="m31.935 20.102-2.794-.461 1.684 2.287z"/><path fill="#1740a9" d="m17.696 16.846 1.08-2.337-2.052 1.403zm14.239 3.257-1.11 1.826 1.771 1.001z"/><path fill="#1b3ca4" d="m30.918 25.251 1.678-2.321-1.771-1.001z"/><path fill="#1f3dad" d="m30.918 25.251-.093-3.322-1.977.626z"/><path fill="#2543c3" d="m16.986 19.755 3.57-1.04-1.172-1.59zm8.293 3.45 3 2.367.57-3.018z"/><path fill="#2e37b2" d="m25.602 26.309 2.677-.737-3-2.366z"/><path fill="#2d40c7" d="m20.556 18.715.677 2.465 1.74-2.21z"/><path fill="#3537b8" d="m20.556 18.715-1.886 3.852 2.563-1.387z"/><path fill="#3931b0" d="m21.233 21.18-2.032 3.414 3.296-.347z"/><path fill="#3735b8" d="m22.496 24.247.385 3.05 2.72-.988zm-3.295.347 2.032-3.414-2.563 1.388z"/><path fill="#342892" d="m16.949 25.278 1.721-2.71.531 2.026z"/><path fill="#232372" d="m18.645 34.198 1.823.57-2.785-1.797zm-.13-2.027 2 1.54.96-2.01-2.974-.923zm5.474 1.853.252-2.29-2.767-.032zm2.952-.793-.81 1.906 3.277-1.222z"/><path fill="#2a2f96" d="m15.312 24.56.813-2.596.824 3.313z"/><path fill="#2636a5" d="m16.124 21.964.861-2.209-1.783.761zm12.724.59-.57 3.018 2.64-.322z"/><path fill="url(#mozillafirefoxbrowserdeveloper_svg__a)" d="M374.27 262.76v-.055l-1.064-35.547v-.04c0-.013 0-.025-.006-.037s-.006-.032-.01-.047v-.011l-5.345-17.738v-.011l-.011-.029c0-.013-.01-.026-.016-.038l-.007-.016-15.293-28.856-.009-.014-.019-.03-.017-.025-.011-.015-.016-.018-.011-.014-17.503-18.443-.008-.007-.012-.012c-.01-.01-.022-.018-.033-.027l-.023-.02-18.565-13.253h-.009l-.017-.012a.36.36 0 0 0-.039-.02.3.3 0 0 0-.04-.02h-.008l-16.113-6.324h-.025l-19.343-6.88h-.018l-.037-.01-.034-.007h-.054l-31.855-2.027h-.055a.455.455 0 0 0-.052 0h-.02l-20.087 3.625h-.043l-.036.01-16.372 5.033-.036.014c-.014.006-.029.012-.042.019l-.021.01h-.007l-29.082 17.021h-.006l-.024.016-.023.015-.019.017-.018.014-.02.022-.016.014-.007.008-18.169 20.268-.007.01-.013.015-.012.017-.016.023-.008.01-.006.01-16.772 27.198-.008.016-.016.028-.014.033c0 .013-.01.025-.014.038l-.006.016-6.593 23.165v.076a.26.26 0 0 0-.005.039v.01l-1.232 35.146v.087a.3.3 0 0 0 .008.043v.036l6.281 23.948v.01l.006.018a.521.521 0 0 0 .02.05c0 .008.006.017.01.025l13.86 27.274.009.013a.492.492 0 0 0 .028.045l.007.013 9.772 13.169.012.015c.009.011.02.02.029.03a.25.25 0 0 0 .022.024l13.52 12.4c.011.01.022.017.034.026l.027.022 16.885 11.422.012.006.04.024.022.01h.007l20.822 9.056.021.007a.353.353 0 0 0 .046.015l.024.007.037.007h.021l34.846 4.091h.047l18.195.506h.019a.569.569 0 0 0 .1-.01l.022-.007h.015l26.929-7.585.016-.006.023-.006.021-.01.015-.007.032-.014.011-.006 24.056-13.2h.007l.01-.006a.348.348 0 0 0 .039-.028l.032-.022 15.486-13.21.016-.017.02-.018.02-.022h.006l12.006-14.323.005-.007a.531.531 0 0 0 .042-.063l.015-.022v-.006l17.012-33.221c0-.007.006-.016.01-.024l.017-.039v-.019a.3.3 0 0 0 .011-.043c0-.009.006-.018.008-.028l3.747-22.727v-.039zm-190.16 78.776-3.5-3.212 7.877 6.171zm51.108 13.348-12.307-5.754 29.13 2.62zm4.488-104.78-32.312 3.4 19.926-33.476zm-11.278-30.148 39.477 19.772-27.152 10.154zm11.571 31.172 3.756 29.784-35.947-26.4zm3.285 30.742-39.045 12.287 2.627-39.03zm-2.161-30.245 30.265 20.1-26.518 9.62zm.482-.941 27.156-10.155 3.147 30.275zm41.723-34.975 25.171-11.883-2.838 28.271zm21.471 17.056-34.6 6.32 12.286-22.688zm-35.583 5.932-22.539-41.385 34.922 18.515zm-1.263-.118-39.735-19.9 17.081-21.699zm-61.354 14.209-5.063-19.328 24.445-13.233zm-3.35 40.409-19.312-31.688 21.892-6.65zm39.432-10.038-19.646 20.985-17.987-9.142zm29.089-10.46-7.007 25.234-19.279-15.7zm-1.9-31.718 29.206 23.037-26.067 7.169zm.586-.877 34.978-6.389-5.573 29.582zm36.241-7.785 2.802-27.952 16.159 21.946zm19.317-5.018.894 32.012-19.941-25.976zm-43.154-12.532.671-23.76 24.368 11.937zm-1.053-.021-34.786-18.446 35.463-5.509zm-54.17 2.962-6.519-23.722 23.259 2.46zm-.849.882-24.674 13.357 18.153-37.084zm-21.02 35.188-21.429 6.509 16.377-25.792zm-3.881 39.205-26.755-18.954 7.981-11.852zm2.16 2.687 17.98 9.139-22.117 12.216zm40.435-12.9 19.309 15.725-39.239 5.564zm28.339-9.924 28.5 27.556-35.584-2.045zm.756-.731 26.158-7.195 2.35 34.759zm32.816-37.805 20.109 26.2-25.634 3.129zm20.68-6.81 16.983 9.6-16.094 22.253zm.179-1.106 10.517-17.3 6.272 26.791zm-.773-.753-16.174-21.965 26.83 4.433zm-42.523-35.6 19-17.195 5.454 29.168zm-37.587 5.3 12.052-21.386 23.217 15.907zm-25.159-2.4 13.662-27.779 9.758 30.256zm-20.338 39.154-16.558-27.64 35.1-10.23zm-17.522 27.79-8.009-32.208 24.739 5.857zm-8.823 13.161-7.344-18.251 15.164 6.635zm28.554 22.073-4.147 21.4-22.911-40.574zm19.749 10.449 6.283 21.217-28.6-8.892zm41.544-6.092-6.229 27.573-33.54-21.933zm37.046 1.988-16.125 14.6-18.757-16.607zm-.582-35.841 24.827 25.086-22.487 9.531zm.507-.983 25.59-3.124-.841 28.131zm43.281-26.531 10.222 34.42-26.563-11.824zm-5.793-29.086 16.672 12.642-10.425 14.045zm-28.7-6.435 15.475-17.727 11.434 22.173zm-.7-.8-5.416-28.972 20.874 11.266zm-26.45-12.279-23.114-15.836 42.017-1.275zm-37.472 5.211-9.691-30.046 21.673 8.785zm-25.2-2.344-11.222-15.213 24.724-12.24zm-.779.715-34.373 10.02 23.095-25.316zm-19.708 39.3-24.5-5.8 8.283-21.265zm-17.462 27.9-15.508-6.786 7.7-24.594zm-8.647 13.562-13.34 4.878 5.947-23.247zm23.993 42.645-29.346-18.185 6.214-22.78zm29.881 10.911-27.761 4.4-.12-13.071zm-3.533-21.4 32.643 21.349-26.4-.3zm41.312-6.184 18.949 16.777-25.088 10.426zm37.1 2.1 10.014 27.752-26.259-13.032zm.893-.628 22.354-9.475-12.316 37.3zm24.615-39.581 26.558 11.822-27.4 16.4zm17.784-23.472 17.364 12.359-7.411 21.156zm-.2-1.43 10.437-14.061 6.878 26.384zm-6.964-29.288 4.846-15.025 11.542 27.452zm-.728-1.173-11.043-21.415 15.9 6.355zm-32.714-34.118 23.122-1.51-2.911 12.418zm-45.783.4 16.28-20.189 26.09 18.9zm-.962-.484-8.382-21.953 24.5 1.973zm-1.087.1-21.413-8.68 13.126-13.023zm-48.106 3.674 9.207-26.556 15.628 14.26zm-24.7 26.331 6.742-27.593 16 2.662zm-10.006 23.548-8.646-13.568 16.707-7.128zm-.462 1.234-7.39 23.589-.993-36.745zm-8.509 27.283-6.027 23.556-9.462-23.533zm-15.73-1.026.5-23.126 14.936 23.1zm23.825 21.706-5.99 21.956-7.32-17.089zm24.036 42.707-18.187 2.576-10.397-20.289zm.988.921.118 12.883-18-10.35zm30.333 9.621-9.207 19.271-19.185-14.764zm1.073.195 24.328 22.457-33.612-3.023zm1.193-.33 26.648.3-2.431 22.053zm53.542-10.568 1.017 24.914-26.117-14.489zm1.058.091 26.356 13.081-25.34 11.845zm40.876-25.533 13.084 20.459-25.416 16.889zm.911-.528 25.192 3.7-12.261 16.518zm.469-.993 26.946-16.13-1.753 19.832zm35.589-38.438 4.758 16.645-11.94 3.857zm-6.331-28.306 13.647 17.186-7.011 8.27zm-12.77-31.3 17.724 12.98-6.091 14.675zm-18.269-8.925 2.857-12.184 12.765 18.428zm-22.6-12.337-3.076-18.616 26.658 17.076zm-1.17-.621-25.4-18.412 22.342-.138zm-51.684-21.438 16.587-10.179 7.116 12.089zm-15.927 13.822-15.352-14.015 28.41 1.069zm-27.013 13.342-15.939-2.657 24.995-23.436zm-24.739 26.823-16.318-13.247 23.158-14.743zm-.693.791-16.861 7.198.822-20.214zm-16.868 47.942-15.149-23.433 14.1-15.2zm-6.563 27.681-2.876 14.335-5.674-35.6zm.73 1.714 7.1 16.572-10.138-1.421zm18.42 38.807-10.7-2.059.681-17.5zm20.217 12.395-7.6 7.31-10.213-17.551zm.907.586 18.258 14.053-25.846-6.757zm59.579-4.375 26.071 14.457-28.5 7.657zm53.9 2.845-1.427 18.18-23.502-6.524zm26.153-17.21-14.469 25.343-10.221-8.93zm14.288-17.917.08 13.271-11.58 2.211zm2.9-22.6 11.774-3.8-13.433 22.574zm8.168-23.331 6.685-7.885-2.181 23.639zm-7.5-29.057 6-14.454 7.777 31.805zm-12.763-30.632 4.216-7.362 12.709 19.757zm-.732-.838-12.472-18 16.689 10.641zm-41.849-38.064 12.626-1.348 12.773 17.613zm-25.638-.74-6.956-11.814 28.43 11.681zm-26.428-2.324-5.6-9.808 21.937-.218zm-1.114.172-27.631-1.035 22.013-8.8zm-55.843 22.789 9.894-21.422 14.349-1.309zm-1.778 1.339-9.044-8.687 19.088-13.059zm-.678.807-22.487 14.316 13.409-23.036zm-25.421 37.155-11.286-6.068 12.09-13.706zm-.356 1-13.707 14.774 2.38-20.862zm-15.488 41.43-5.795 4.742 6.241-25.143zm.145 1.239 5.916 37.113-12.123-32.028zm18.317 44.2-.679 17.44-9.472-18.863zm11.639 22.32 9.621 16.538-19.8-18.5zm40.585 27.409-.419 9.58-25.251-16.292zm1.036.409 13.1 6.127-13.516 3.306zm34.9 3.048.407 13.437-19.045-9.965zm30.1-8.035-7.725 18.189-20.43-10.625zm1.21-.157 23.492 6.518-31.2 11.637zm27.182-12.185 9.954 8.7-11.318 8.785zm27.01-18.633 11.481-2.191-25.148 26.135zm13.513-5.071-.079-12.935 10.585-6.468zm.93-14.783 12.849-21.592-2.356 15.185zm16.385-46.629 1.5 15.876-3.395 4.69zm-7.8-39.771 2.936 2.753 2.937 21.265zm-14.882-24.255 2.763-1.386 7.987 18.1zm-19.32-12.67 4.849-6.942 11.869 17.6zm-.753-.759-12.647-17.432 17.5 10.479zm-28.475-18.253-.078-7.579 12.177 6.291zm-1.055-.205-27.832-11.435 27.752 3.654zm-55.054-12.775 4.431-3.8 14.693 3.612zm-24.2 9.076 8.616-9.281 11.914 1.071zm-2.226.851-13.047 1.19 21.422-10.211zm-35.88 14.994 1.443-3.228 11.974-5.951zm-15.717 25.309-.87-8.444 13.03-12.434zm-.905 1.487-10.8 12.244 9.951-20.485zm-16.09 38.27-6.9 1.283 9.107-20.678zm-.229 1.111-6.6 26.572-.419-25.267zm5.832 66.152-7.839-6.451-3.754-24.183zm10.991 22.352-5.007-1.649-3.349-14.994zm21.4 20.632-16.633-9.054-2.67-8.975zm3.034 2.848 7.2 9.181-22.015-17.245zm2.694 1.73 22.9 14.774-14.985-4.684zm42.013 13.16 17.8 9.311-30.938-6.1zm21.356-3.54 19.923 10.361-19.515 3.095zm52.882-.483-8.088 6.977-18.2 2.826zm14.949-10.458.673 4.353-10.454 3.236zm27.127-28-10.754 19.1-13.682 6.293zm3-3.184 7.2-13.3-7.7 18.243zm15.219-40.987 2.719-3.755-4.371 14.37zm2.615-28.34v-.032l-.039-.279.271-3.56.276 9.219zm-.723-5.242-2.72-19.7 3.368 11.179zm-8.092-30.726-4.965-11.251 6.948 13.109zm-14.97-23.232-9.915-14.7 12.649 13.332zm-33.121-31.789.663-.479 7.622 5.442zm-1-.574-5.154-2.663 5.727 2.248zm-43.506-11.237 9.658-1.985 14.533 5.17zm-3.151-.425-13.151-3.232 22.051 1.4zm-24.913.241-10.258-.922 14.352-2.59zm-36.2 9.164 5.869-4.4 9.461-2.908zm-4.817 2.3-5.091 2.53 7.827-4.58zm-21.356 14.64-6.039 5.766 6.905-7.7zm-28.285 40.688-2.685 1 10.431-16.942zm-3.5 2.416 2.9-1.073-7.327 16.636zm-7.215 43.167.154 9.26-.533 1.683zm.5 11.626 2.642 17.019-3.642-13.886zm13.782 35.206 3.393 15.19-10.823-21.313zm10.886 21.707 2.355 7.919-7.002-9.449zm52.607 40.775.983 1.567-10.288-4.472zm2.643 2.234-1.208-1.926 22.392 4.412zm54.851 1.892-2.348 2.669-12.292-.342zm1.631-.258 14.653-2.275-16.831 4.74zm33.857-12.65 8.593-2.658-15.153 8.317zm13.765-5.7-.675-4.361 12.557-5.775zm27.2-32.6-.588 5.86-8.258 9.852zm13.6-24.986 2.122-1.022-9.712 19.012zm2.826-2.527-2.382 1.147 4.788-15.743z" transform="translate(-.775) scale(.09678)"/><path fill="url(#mozillafirefoxbrowserdeveloper_svg__b)" d="M374.27 262.76v-.055l-1.064-35.547v-.04c0-.013 0-.025-.006-.037s-.006-.032-.01-.047v-.011l-5.345-17.738v-.011l-.011-.029c0-.013-.01-.026-.016-.038l-.007-.016-15.293-28.856-.009-.014-.019-.03-.017-.025-.011-.015-.016-.018-.011-.014-17.503-18.443-.008-.007-.012-.012c-.01-.01-.022-.018-.033-.027l-.023-.02-18.565-13.253h-.009l-.017-.012a.36.36 0 0 0-.039-.02.3.3 0 0 0-.04-.02h-.008l-16.113-6.324h-.025l-19.343-6.88h-.018l-.037-.01-.034-.007h-.054l-31.855-2.027h-.055a.455.455 0 0 0-.052 0h-.02l-20.087 3.625h-.043l-.036.01-16.372 5.033-.036.014c-.014.006-.029.012-.042.019l-.021.01h-.007l-29.082 17.021h-.006l-.024.016-.023.015-.019.017-.018.014-.02.022-.016.014-.007.008-18.169 20.268-.007.01-.013.015-.012.017-.016.023-.008.01-.006.01-16.772 27.198-.008.016-.016.028-.014.033c0 .013-.01.025-.014.038l-.006.016-6.593 23.165v.076a.26.26 0 0 0-.005.039v.01l-1.232 35.146v.087a.3.3 0 0 0 .008.043v.036l6.281 23.948v.01l.006.018a.521.521 0 0 0 .02.05c0 .008.006.017.01.025l13.86 27.274.009.013a.492.492 0 0 0 .028.045l.007.013 9.772 13.169.012.015c.009.011.02.02.029.03a.25.25 0 0 0 .022.024l13.52 12.4c.011.01.022.017.034.026l.027.022 16.885 11.422.012.006.04.024.022.01h.007l20.822 9.056.021.007a.353.353 0 0 0 .046.015l.024.007.037.007h.021l34.846 4.091h.047l18.195.506h.019a.569.569 0 0 0 .1-.01l.022-.007h.015l26.929-7.585.016-.006.023-.006.021-.01.015-.007.032-.014.011-.006 24.056-13.2h.007l.01-.006a.348.348 0 0 0 .039-.028l.032-.022 15.486-13.21.016-.017.02-.018.02-.022h.006l12.006-14.323.005-.007a.531.531 0 0 0 .042-.063l.015-.022v-.006l17.012-33.221c0-.007.006-.016.01-.024l.017-.039v-.019a.3.3 0 0 0 .011-.043c0-.009.006-.018.008-.028l3.747-22.727v-.039zm-190.16 78.776-3.5-3.212 7.877 6.171zm51.108 13.348-12.307-5.754 29.13 2.62zm4.488-104.78-32.312 3.4 19.926-33.476zm-11.278-30.148 39.477 19.772-27.152 10.154zm11.571 31.172 3.756 29.784-35.947-26.4zm3.285 30.742-39.045 12.287 2.627-39.03zm-2.161-30.245 30.265 20.1-26.518 9.62zm.482-.941 27.156-10.155 3.147 30.275zm41.723-34.975 25.171-11.883-2.838 28.271zm21.471 17.056-34.6 6.32 12.286-22.688zm-35.583 5.932-22.539-41.385 34.922 18.515zm-1.263-.118-39.735-19.9 17.081-21.699zm-61.354 14.209-5.063-19.328 24.445-13.233zm-3.35 40.409-19.312-31.688 21.892-6.65zm39.432-10.038-19.646 20.985-17.987-9.142zm29.089-10.46-7.007 25.234-19.279-15.7zm-1.9-31.718 29.206 23.037-26.067 7.169zm.586-.877 34.978-6.389-5.573 29.582zm36.241-7.785 2.802-27.952 16.159 21.946zm19.317-5.018.894 32.012-19.941-25.976zm-43.154-12.532.671-23.76 24.368 11.937zm-1.053-.021-34.786-18.446 35.463-5.509zm-54.17 2.962-6.519-23.722 23.259 2.46zm-.849.882-24.674 13.357 18.153-37.084zm-21.02 35.188-21.429 6.509 16.377-25.792zm-3.881 39.205-26.755-18.954 7.981-11.852zm2.16 2.687 17.98 9.139-22.117 12.216zm40.435-12.9 19.309 15.725-39.239 5.564zm28.339-9.924 28.5 27.556-35.584-2.045zm.756-.731 26.158-7.195 2.35 34.759zm32.816-37.805 20.109 26.2-25.634 3.129zm20.68-6.81 16.983 9.6-16.094 22.253zm.179-1.106 10.517-17.3 6.272 26.791zm-.773-.753-16.174-21.965 26.83 4.433zm-42.523-35.6 19-17.195 5.454 29.168zm-37.587 5.3 12.052-21.386 23.217 15.907zm-25.159-2.4 13.662-27.779 9.758 30.256zm-20.338 39.154-16.558-27.64 35.1-10.23zm-17.522 27.79-8.009-32.208 24.739 5.857zm-8.823 13.161-7.344-18.251 15.164 6.635zm28.554 22.073-4.147 21.4-22.911-40.574zm19.749 10.449 6.283 21.217-28.6-8.892zm41.544-6.092-6.229 27.573-33.54-21.933zm37.046 1.988-16.125 14.6-18.757-16.607zm-.582-35.841 24.827 25.086-22.487 9.531zm.507-.983 25.59-3.124-.841 28.131zm43.281-26.531 10.222 34.42-26.563-11.824zm-5.793-29.086 16.672 12.642-10.425 14.045zm-28.7-6.435 15.475-17.727 11.434 22.173zm-.7-.8-5.416-28.972 20.874 11.266zm-26.45-12.279-23.114-15.836 42.017-1.275zm-37.472 5.211-9.691-30.046 21.673 8.785zm-25.2-2.344-11.222-15.213 24.724-12.24zm-.779.715-34.373 10.02 23.095-25.316zm-19.708 39.3-24.5-5.8 8.283-21.265zm-17.462 27.9-15.508-6.786 7.7-24.594zm-8.647 13.562-13.34 4.878 5.947-23.247zm23.993 42.645-29.346-18.185 6.214-22.78zm29.881 10.911-27.761 4.4-.12-13.071zm-3.533-21.4 32.643 21.349-26.4-.3zm41.312-6.184 18.949 16.777-25.088 10.426zm37.1 2.1 10.014 27.752-26.259-13.032zm.893-.628 22.354-9.475-12.316 37.3zm24.615-39.581 26.558 11.822-27.4 16.4zm17.784-23.472 17.364 12.359-7.411 21.156zm-.2-1.43 10.437-14.061 6.878 26.384zm-6.964-29.288 4.846-15.025 11.542 27.452zm-.728-1.173-11.043-21.415 15.9 6.355zm-32.714-34.118 23.122-1.51-2.911 12.418zm-45.783.4 16.28-20.189 26.09 18.9zm-.962-.484-8.382-21.953 24.5 1.973zm-1.087.1-21.413-8.68 13.126-13.023zm-48.106 3.674 9.207-26.556 15.628 14.26zm-24.7 26.331 6.742-27.593 16 2.662zm-10.006 23.548-8.646-13.568 16.707-7.128zm-.462 1.234-7.39 23.589-.993-36.745zm-8.509 27.283-6.027 23.556-9.462-23.533zm-15.73-1.026.5-23.126 14.936 23.1zm23.825 21.706-5.99 21.956-7.32-17.089zm24.036 42.707-18.187 2.576-10.397-20.289zm.988.921.118 12.883-18-10.35zm30.333 9.621-9.207 19.271-19.185-14.764zm1.073.195 24.328 22.457-33.612-3.023zm1.193-.33 26.648.3-2.431 22.053zm53.542-10.568 1.017 24.914-26.117-14.489zm1.058.091 26.356 13.081-25.34 11.845zm40.876-25.533 13.084 20.459-25.416 16.889zm.911-.528 25.192 3.7-12.261 16.518zm.469-.993 26.946-16.13-1.753 19.832zm35.589-38.438 4.758 16.645-11.94 3.857zm-6.331-28.306 13.647 17.186-7.011 8.27zm-12.77-31.3 17.724 12.98-6.091 14.675zm-18.269-8.925 2.857-12.184 12.765 18.428zm-22.6-12.337-3.076-18.616 26.658 17.076zm-1.17-.621-25.4-18.412 22.342-.138zm-51.684-21.438 16.587-10.179 7.116 12.089zm-15.927 13.822-15.352-14.015 28.41 1.069zm-27.013 13.342-15.939-2.657 24.995-23.436zm-24.739 26.823-16.318-13.247 23.158-14.743zm-.693.791-16.861 7.198.822-20.214zm-16.868 47.942-15.149-23.433 14.1-15.2zm-6.563 27.681-2.876 14.335-5.674-35.6zm.73 1.714 7.1 16.572-10.138-1.421zm18.42 38.807-10.7-2.059.681-17.5zm20.217 12.395-7.6 7.31-10.213-17.551zm.907.586 18.258 14.053-25.846-6.757zm59.579-4.375 26.071 14.457-28.5 7.657zm53.9 2.845-1.427 18.18-23.502-6.524zm26.153-17.21-14.469 25.343-10.221-8.93zm14.288-17.917.08 13.271-11.58 2.211zm2.9-22.6 11.774-3.8-13.433 22.574zm8.168-23.331 6.685-7.885-2.181 23.639zm-7.5-29.057 6-14.454 7.777 31.805zm-12.763-30.632 4.216-7.362 12.709 19.757zm-.732-.838-12.472-18 16.689 10.641zm-41.849-38.064 12.626-1.348 12.773 17.613zm-25.638-.74-6.956-11.814 28.43 11.681zm-26.428-2.324-5.6-9.808 21.937-.218zm-1.114.172-27.631-1.035 22.013-8.8zm-55.843 22.789 9.894-21.422 14.349-1.309zm-1.778 1.339-9.044-8.687 19.088-13.059zm-.678.807-22.487 14.316 13.409-23.036zm-25.421 37.155-11.286-6.068 12.09-13.706zm-.356 1-13.707 14.774 2.38-20.862zm-15.488 41.43-5.795 4.742 6.241-25.143zm.145 1.239 5.916 37.113-12.123-32.028zm18.317 44.2-.679 17.44-9.472-18.863zm11.639 22.32 9.621 16.538-19.8-18.5zm40.585 27.409-.419 9.58-25.251-16.292zm1.036.409 13.1 6.127-13.516 3.306zm34.9 3.048.407 13.437-19.045-9.965zm30.1-8.035-7.725 18.189-20.43-10.625zm1.21-.157 23.492 6.518-31.2 11.637zm27.182-12.185 9.954 8.7-11.318 8.785zm27.01-18.633 11.481-2.191-25.148 26.135zm13.513-5.071-.079-12.935 10.585-6.468zm.93-14.783 12.849-21.592-2.356 15.185zm16.385-46.629 1.5 15.876-3.395 4.69zm-7.8-39.771 2.936 2.753 2.937 21.265zm-14.882-24.255 2.763-1.386 7.987 18.1zm-19.32-12.67 4.849-6.942 11.869 17.6zm-.753-.759-12.647-17.432 17.5 10.479zm-28.475-18.253-.078-7.579 12.177 6.291zm-1.055-.205-27.832-11.435 27.752 3.654zm-55.054-12.775 4.431-3.8 14.693 3.612zm-24.2 9.076 8.616-9.281 11.914 1.071zm-2.226.851-13.047 1.19 21.422-10.211zm-35.88 14.994 1.443-3.228 11.974-5.951zm-15.717 25.309-.87-8.444 13.03-12.434zm-.905 1.487-10.8 12.244 9.951-20.485zm-16.09 38.27-6.9 1.283 9.107-20.678zm-.229 1.111-6.6 26.572-.419-25.267zm5.832 66.152-7.839-6.451-3.754-24.183zm10.991 22.352-5.007-1.649-3.349-14.994zm21.4 20.632-16.633-9.054-2.67-8.975zm3.034 2.848 7.2 9.181-22.015-17.245zm2.694 1.73 22.9 14.774-14.985-4.684zm42.013 13.16 17.8 9.311-30.938-6.1zm21.356-3.54 19.923 10.361-19.515 3.095zm52.882-.483-8.088 6.977-18.2 2.826zm14.949-10.458.673 4.353-10.454 3.236zm27.127-28-10.754 19.1-13.682 6.293zm3-3.184 7.2-13.3-7.7 18.243zm15.219-40.987 2.719-3.755-4.371 14.37zm2.615-28.34v-.032l-.039-.279.271-3.56.276 9.219zm-.723-5.242-2.72-19.7 3.368 11.179zm-8.092-30.726-4.965-11.251 6.948 13.109zm-14.97-23.232-9.915-14.7 12.649 13.332zm-33.121-31.789.663-.479 7.622 5.442zm-1-.574-5.154-2.663 5.727 2.248zm-43.506-11.237 9.658-1.985 14.533 5.17zm-3.151-.425-13.151-3.232 22.051 1.4zm-24.913.241-10.258-.922 14.352-2.59zm-36.2 9.164 5.869-4.4 9.461-2.908zm-4.817 2.3-5.091 2.53 7.827-4.58zm-21.356 14.64-6.039 5.766 6.905-7.7zm-28.285 40.688-2.685 1 10.431-16.942zm-3.5 2.416 2.9-1.073-7.327 16.636zm-7.215 43.167.154 9.26-.533 1.683zm.5 11.626 2.642 17.019-3.642-13.886zm13.782 35.206 3.393 15.19-10.823-21.313zm10.886 21.707 2.355 7.919-7.002-9.449zm52.607 40.775.983 1.567-10.288-4.472zm2.643 2.234-1.208-1.926 22.392 4.412zm54.851 1.892-2.348 2.669-12.292-.342zm1.631-.258 14.653-2.275-16.831 4.74zm33.857-12.65 8.593-2.658-15.153 8.317zm13.765-5.7-.675-4.361 12.557-5.775zm27.2-32.6-.588 5.86-8.258 9.852zm13.6-24.986 2.122-1.022-9.712 19.012zm2.826-2.527-2.382 1.147 4.788-15.743z" transform="translate(-.775) scale(.09678)"/><path fill="url(#mozillafirefoxbrowserdeveloper_svg__c)" d="M478.98 166.36c-10.457-25.124-31.636-52.248-48.267-60.82 13.536 26.5 21.369 53.092 24.363 72.934 0-.057.011.049.036.226.012.086.027.174.04.26 22.7 61.468 10.334 123.98-7.487 162.17-27.572 59.1-94.325 119.67-198.81 116.71-112.89-3.192-212.34-86.853-230.9-196.43-3.382-17.279 0-26.053 1.7-40.083-2.074 10.816-2.863 13.94-3.9 33.157 0 .41-.025.816-.025 1.227.001 132.71 107.72 240.28 240.6 240.28a240.56 240.56 0 0 0 237.16-199.63c.408-3.076.734-6.168 1.094-9.27 4.783-41.21-.531-84.524-15.606-120.74z" transform="translate(-.775) scale(.09678)"/><path fill="url(#mozillafirefoxbrowserdeveloper_svg__d)" d="M478.98 166.36c-10.457-25.124-31.636-52.248-48.267-60.82 13.536 26.5 21.369 53.092 24.363 72.934 0-.057.011.049.036.226.012.086.027.174.04.26 22.7 61.468 10.334 123.98-7.487 162.17-27.572 59.1-94.325 119.67-198.81 116.71-112.89-3.192-212.34-86.853-230.9-196.43-3.382-17.279 0-26.053 1.7-40.083-2.074 10.816-2.863 13.94-3.9 33.157 0 .41-.025.816-.025 1.227.001 132.71 107.72 240.28 240.6 240.28a240.56 240.56 0 0 0 237.16-199.63c.408-3.076.734-6.168 1.094-9.27 4.783-41.21-.531-84.524-15.606-120.74z" transform="translate(-.775) scale(.09678)"/><path fill="url(#mozillafirefoxbrowserdeveloper_svg__e)" d="M17.957 261.41c18.564 109.58 118.01 193.24 230.9 196.43 104.48 2.955 171.24-57.618 198.81-116.71 17.821-38.2 30.188-100.7 7.487-162.17l-.008-.026-.032-.234c-.025-.177-.041-.283-.036-.226 0 .04.015.136.047.4 8.533 55.66-19.813 109.58-64.126 146.04-.079.189-.133.313-.133.313-86.345 70.222-168.97 42.368-185.7 30.966a137.19 137.19 0 0 1-3.5-1.743c-50.34-24.029-71.137-69.837-66.678-109.12-42.506 0-57-35.808-57-35.808s38.163-27.179 88.461-3.541c46.583 21.893 90.332 3.543 90.337 3.541-.09-1.952-41.965-18.589-58.291-34.655-8.723-8.585-12.865-12.723-16.533-15.828a71.492 71.492 0 0 0-6.232-4.7 281.91 281.91 0 0 0-4.987-3.3c-17.548-11.392-52.448-10.764-53.6-10.735h-.112c-9.538-12.066-8.865-51.871-8.321-60.182-.115-.516-7.116 3.63-8.033 4.254a175.24 175.24 0 0 0-23.519 20.126 210.38 210.38 0 0 0-22.469 26.912c0 .012-.007.025-.011.037 0-.012.007-.025.011-.038a202.71 202.71 0 0 0-32.284 72.8c-.116.527-8.661 37.847-4.446 57.203z" transform="translate(-.775) scale(.09678)"/><path fill="url(#mozillafirefoxbrowserdeveloper_svg__f)" d="M341.21 166.59a130.73 130.73 0 0 1 22.336 29.112c1.325.994 2.561 1.985 3.612 2.952 54.545 50.2 25.967 121.2 23.834 126.26 44.313-36.459 72.659-90.38 64.126-146.04-27.207-67.731-73.339-95.043-111.02-154.51-1.905-3.007-3.809-6.022-5.667-9.2a73.154 73.154 0 0 1-2.649-4.971 43.74 43.74 0 0 1-3.591-9.506.627.627 0 0 0-.546-.645.822.822 0 0 0-.452 0c-.034.012-.084.051-.12.065-.053.021-.12.069-.176.1-9.306 4.428-64.484 91.692 10.308 166.38z" transform="translate(-.775) scale(.09678)"/><path fill="url(#mozillafirefoxbrowserdeveloper_svg__g)" d="m248.66 133.64 31.855 2.027 19.347 6.882 16.124 6.329 18.57 13.258 17.493 18.437 6.077 11.467c.816.5 2.5 1.586 3.932 2.558.525.368 1 .735 1.5 1.1a130.73 130.73 0 0 0-22.336-29.112C266.425 91.895 321.603 4.626 330.911.196c.027-.036.083-.117.1-.136-60.44 35.356-80.944 100.76-82.828 133.48l-.009.183z" transform="translate(-.775) scale(.09678)"/><path fill="url(#mozillafirefoxbrowserdeveloper_svg__h)" d="M170.74 151.04a243.33 243.33 0 0 1 4.987 3.3 111.21 111.21 0 0 1-.675-58.731c-24.716 11.241-43.941 29.01-57.916 44.7 1.156-.033 36.056-.661 53.604 10.731z" transform="translate(-.775) scale(.09678)"/><path fill="url(#mozillafirefoxbrowserdeveloper_svg__i)" d="M148.32 277.45s11.11-41.34 79.53-41.34c7.4 0 28.54-20.61 28.93-26.59 0 0-43.75 18.35-90.33-3.54-50.3-23.64-88.45 3.54-88.45 3.54s14.5 35.81 57 35.81c-4.45 39.28 16.34 85.09 66.68 109.12 1.13.54 2.19 1.12 3.34 1.64-29.4-15.17-53.66-43.83-56.7-78.64z" transform="translate(-.775) scale(.09678)"/><path fill="url(#mozillafirefoxbrowserdeveloper_svg__j)" d="M367.16 198.66c-1.051-.967-2.287-1.958-3.612-2.952-.49-.367-.97-.734-1.5-1.1-12.847-9.014-35.851-17.917-58.014-14.067 86.541 43.213 63.308 192.02-56.611 186.4a106.97 106.97 0 0 1-31.307-6.03 133 133 0 0 1-7.067-2.886c-1.358-.619-2.714-1.243-4.055-1.936.048.034.114.071.163.1 16.729 11.4 99.354 39.256 185.7-30.966 0 0 .054-.124.133-.313 2.137-5.048 30.715-76.05-23.83-126.25z" transform="translate(-.775) scale(.09678)"/><path fill="url(#mozillafirefoxbrowserdeveloper_svg__k)" d="M478.96 166.35c-10.457-25.124-31.637-52.248-48.268-60.82 13.536 26.5 21.37 53.092 24.364 72.934 0 .04.015.136.047.4-27.202-67.731-73.34-95.043-111.02-154.51-1.9-3.008-3.809-6.022-5.668-9.2a73.11 73.11 0 0 1-2.648-4.971 43.755 43.755 0 0 1-3.589-9.5.626.626 0 0 0-.547-.644.818.818 0 0 0-.451 0c-.034.012-.084.051-.12.065-.053.021-.12.069-.176.1.026-.036.083-.117.1-.136-60.44 35.356-80.933 100.95-82.817 133.68l.488-.088 31.855 2.027 17.928 6.377 17.543 6.834 18.57 13.258 17.472 18.427s6.014 11.287 6.1 11.477c-13.944-8.293-34.208-14.975-54.1-11.519 86.541 43.213 63.308 192.02-56.611 186.4a106.94 106.94 0 0 1-31.316-6.037 131.81 131.81 0 0 1-7.067-2.885c-1.358-.619-2.714-1.244-4.055-1.936.048.034.114.071.163.105a137.19 137.19 0 0 1-3.5-1.743c1.125.537 2.183 1.123 3.338 1.638-29.384-15.167-53.646-43.832-56.677-78.641 0 0 11.106-41.334 79.524-41.334 7.4 0 28.542-20.614 28.935-26.593-.09-1.952-41.966-18.589-58.291-34.655-8.723-8.585-12.865-12.723-16.533-15.828a71.492 71.492 0 0 0-6.232-4.7 111.21 111.21 0 0 1-.675-58.731c-24.716 11.241-43.941 29.01-57.917 44.7h-.111c-9.538-12.066-8.865-51.871-8.322-60.182-.114-.516-7.115 3.63-8.033 4.254a175.3 175.3 0 0 0-23.513 20.12 210.46 210.46 0 0 0-22.468 26.911.259.259 0 0 1-.011.037.272.272 0 0 0 .011-.038 202.72 202.72 0 0 0-32.284 72.8c-.115.521-.212 1.061-.325 1.586-.452 2.116-2.488 12.852-2.772 15.156-.022.176.021-.177 0 0a279.13 279.13 0 0 0-3.548 33.529c0 .41-.026.816-.026 1.227 0 132.7 107.72 240.28 240.6 240.28a240.57 240.57 0 0 0 237.16-199.62c.408-3.076.734-6.168 1.094-9.27 4.782-41.21-.531-84.524-15.606-120.74zm-23.868 12.34c.012.086.027.174.04.26l-.009-.026c-.011-.083-.022-.157-.031-.234z" transform="translate(-.775) scale(.09678)"/><path fill="url(#mozillafirefoxbrowserdeveloper_svg__l)" d="M256.78 209.52s-1.02.427-2.9 1.071c-4.7 7.943-21.409 23.1-27.8 23.075-68.418-.3-79.7 40.587-79.7 40.587a87.34 87.34 0 0 0 13.4 39.263 88.025 88.025 0 0 1-11.456-36.069s11.106-41.334 79.525-41.334c7.4 0 28.541-20.614 28.935-26.593z" transform="translate(-.775) scale(.09678)"/><path fill="url(#mozillafirefoxbrowserdeveloper_svg__m)" d="m455.15 178.96-.009-.024c-.012-.082-.021-.157-.033-.233a2.116 2.116 0 0 0-.033-.227 5.804 5.804 0 0 0 .045.4 239.04 239.04 0 0 0-5.168-11.9c-.612-1.314-1.269-2.543-1.9-3.826-1.2-2.465-2.4-4.935-3.657-7.293-.775-1.456-1.59-2.837-2.383-4.254-1.163-2.076-2.316-4.165-3.515-6.166-.879-1.463-1.787-2.864-2.68-4.29-1.169-1.862-2.334-3.73-3.533-5.534-.948-1.429-1.92-2.813-2.886-4.208-1.193-1.723-2.386-3.448-3.6-5.128-1.008-1.387-2.032-2.743-3.052-4.1a349.15 349.15 0 0 0-3.673-4.825q-1.589-2.034-3.2-4.033a486.63 486.63 0 0 0-3.751-4.619q-1.644-1.989-3.307-3.963c-.6-.714-1.2-1.447-1.8-2.159.26.309.511.63.769.942-20.846-24.591-43.47-47.254-63.674-79.15-1.908-3.006-3.812-6.021-5.668-9.2a72.064 72.064 0 0 1-2.649-4.971 49.1 49.1 0 0 1-3.31-8.434c-.042-.155-.118-.391-.145-.509-.082-.318-.133-.56-.133-.56a.63.63 0 0 0-.548-.645.847.847 0 0 0-.451 0c-.034.012-.085.052-.122.067s-.118.067-.175.094a7.406 7.406 0 0 0-1.46 1.072 17.267 17.267 0 0 0-.348.311 25.044 25.044 0 0 0-1.903 2.007c-.024.027-.043.042-.067.069.006-.006.012-.006.018-.012-14.415 16.944-51.226 90.584 8.1 156.64-55.543-65.345-20.542-135.96-5.33-154.46a53.657 53.657 0 0 0 2.964 7.268 74.305 74.305 0 0 0 2.649 4.971c1.856 3.182 3.761 6.2 5.668 9.2 37.675 59.466 83.806 86.779 111.01 154.51a9.121 9.121 0 0 1-.045-.4 1.707 1.707 0 0 1 .033.227c.012.076.021.152.033.233l.01.025c22.7 61.47 10.333 123.98-7.488 162.17a199.36 199.36 0 0 1-38.217 54.8 199.8 199.8 0 0 0 41.124-57.7c17.821-38.199 30.186-100.7 7.487-162.18z" transform="translate(-.775) scale(.09678)"/><path fill="url(#mozillafirefoxbrowserdeveloper_svg__n)" d="M330.91.2c.027-.036.083-.117.1-.136-54.445 31.849-76.48 88.075-81.693 122.84 5.988-32.116 26.574-81.173 72.71-112.14 3.797-5.996 7.143-9.723 8.883-10.556z" transform="translate(-.775) scale(.09678)"/><path fill="url(#mozillafirefoxbrowserdeveloper_svg__o)" d="M390.86 325.23s.054-.124.133-.313c2.133-5.055 30.711-76.057-23.834-126.26-1.051-.967-2.287-1.958-3.612-2.952-.49-.367-.97-.734-1.5-1.1-12.415-8.711-34.316-17.316-55.776-14.41l-.052.006q-1.093.15-2.186.337c85.565 42.726 63.813 188.67-52.595 186.53.316.015.633.04.948.053 118.01 4.618 141.26-140.09 59.271-185.46 17.768-.174 34.954 6.314 45.567 13.158.539.347 1.034.694 1.537 1.042 1.363.941 2.637 1.883 3.725 2.809 56.473 48.028 30.696 120.09 28.763 125.23a72.283 72.283 0 0 1-.12.318" transform="translate(-.775) scale(.09678)"/><path fill="url(#mozillafirefoxbrowserdeveloper_svg__p)" d="M167.09 208.38c39.38 17.06 75.93 6.22 87 2.14-10.2 3.52-47.89 14.14-87.64-4.54-45.22-21.25-80.62-1.44-87.32 2.78l-.32.2-.26.17-.2.13-.13.08-.09.06.12.26.14.31v.06l.21.45c.34.72.86 1.75 1.58 3 5.34 9.45 21.43 31.63 54.89 31.63-4.32 38.11 15.12 82.35 62.24 106.9-45-26-64-73-58.7-110.49-34.76-.92-50.31-21.76-54.75-30.59 12.64-6.7 44.73-19.23 83.23-2.55z" transform="translate(-.775) scale(.09678)"/><path fill="url(#mozillafirefoxbrowserdeveloper_svg__q)" d="M175.69 154.2q-.568-.333-1.176-.684.628.42 1.213.818c-.013-.045-.027-.089-.037-.134zm-.247-.882a111.35 111.35 0 0 1-.391-57.715c-23.43 10.656-41.917 27.176-55.684 42.233 13.11-12.77 30.093-26.473 50.778-35.862-1.28 9.821-2.383 29.926 5.297 51.344z" transform="translate(-.775) scale(.09678)"/><path fill="url(#mozillafirefoxbrowserdeveloper_svg__r)" d="M23.758 286.6c-.067-.229-.126-.459-.191-.689a220.74 220.74 0 0 1-5.61-24.5c-1.836-8.43-1.25-20.266 0-30.987-.929 5.565-1.511 11.221-2.2 24.061 0 .41-.025.816-.025 1.227 0 105.02 67.468 194.29 161.47 226.97-81.484-31.205-141.85-105.88-153.44-196.08z" transform="translate(-.775) scale(.09678)"/><path fill="url(#mozillafirefoxbrowserdeveloper_svg__s)" d="M21.832 262.38c-4.214-19.356 4.331-56.676 4.446-57.2a202.7 202.7 0 0 1 32.284-72.8l-.011.038c0-.012.007-.025.011-.037a210.46 210.46 0 0 1 22.47-26.912 175.23 175.23 0 0 1 23.513-20.12 29.207 29.207 0 0 1 1.015-.634c-.083 18.28.954 49.124 9.423 59.237h.111c1.16-.06 36.177-1.605 54.092 9.322a273.28 273.28 0 0 1 5.092 3.164 71.848 71.848 0 0 1 6.378 4.532c3.764 3.008 8.03 7.036 17.012 15.389 13 12.091 41.356 24.121 53.6 29.852-11.929-6.009-40.077-18.848-52.774-31.343-8.723-8.585-12.865-12.723-16.533-15.828a71.492 71.492 0 0 0-6.232-4.7 281.91 281.91 0 0 0-4.987-3.3c-17.548-11.392-52.448-10.765-53.6-10.735h-.112c-8.718-11.028-8.905-45.214-8.458-57.362.018-.468.036-.9.054-1.3l.021-.429a119.79 119.79 0 0 1 .018-.356c.015-.262.029-.515.044-.734-.007-.031-.042-.043-.095-.042-.018 0-.048.009-.071.012a1.022 1.022 0 0 0-.151.034c-.039.011-.087.03-.132.046a4.265 4.265 0 0 0-.39.157l-.234.106a16.595 16.595 0 0 0-.495.24l-.3.151-.245.128-.359.188-.2.109c-2.121 1.141-4.813 2.754-5.358 3.125a175.24 175.24 0 0 0-23.523 20.119 210.38 210.38 0 0 0-22.469 26.912c0 .012-.007.025-.011.037 0-.012.007-.025.011-.038a202.71 202.71 0 0 0-32.284 72.8c-.116.521-8.661 37.841-4.446 57.2 15.8 93.251 90.176 167.72 181.56 189.81-89.608-23.234-162.11-96.911-177.69-188.84z" transform="translate(-.775) scale(.09678)"/><path fill="url(#mozillafirefoxbrowserdeveloper_svg__t)" d="M478.98 166.36c-9.226-22.167-26.8-45.883-42.231-57.048l-.425-.3q-.717-.508-1.428-.982-.27-.18-.54-.356-.675-.435-1.341-.834c-.172-.1-.345-.212-.517-.312a42.518 42.518 0 0 0-1.786-.986c.65 1.272 1.275 2.544 1.9 3.816a394.89 394.89 0 0 1 1.148 2.373c11.668 24.415 18.557 48.448 21.317 66.745 0 .04.015.136.047.4 8.533 55.66-19.813 109.58-64.126 146.04-.079.189-.133.313-.133.313-55.08 44.8-108.64 49.678-144.56 44.383 35.786 6.684 92.233 3.866 150.37-43.414l.133-.313c44.312-36.459 72.659-90.381 64.126-146.04a12.553 12.553 0 0 1-.047-.4c-2.451-16.242-8.159-37.005-17.57-58.54a159 159 0 0 1 26.316 37.486c17.047 34.76 24.739 77.04 22.235 117.82-.188 3.07-.343 6.128-.58 9.174-13.068 112.5-106.97 202.84-225.78 209.5a245.66 245.66 0 0 1-47.5-1.93 242.64 242.64 0 0 0 38.327 3.049c119 0 217.81-86.287 237.16-199.63.408-3.076.734-6.168 1.094-9.27 4.783-41.21-.531-84.524-15.606-120.74zm-23.828 12.6-.008-.026-.032-.234c.012.086.027.174.04.26z" transform="translate(-.775) scale(.09678)"/></svg>