<svg xmlns="http://www.w3.org/2000/svg" viewBox="0 0 48 48"><defs><radialGradient id="mozillafirefoxbrowsernightly_svg__b" cx="-9227.2" cy="-9815.1" r="80.797" gradientTransform="matrix(6.201 0 0 6.2 57645 60909)" gradientUnits="userSpaceOnUse"><stop offset=".108" stop-color="#3fe1b0"/><stop offset=".122" stop-color="#3bdcb3"/><stop offset=".254" stop-color="#1bb3d3"/><stop offset=".358" stop-color="#0799e6"/><stop offset=".42" stop-color="#0090ed"/><stop offset=".487" stop-color="#2482f1"/><stop offset=".64" stop-color="#7165fb"/><stop offset=".71" stop-color="#9059ff"/><stop offset=".795" stop-color="#7d49ed"/><stop offset=".86" stop-color="#7542e5"/></radialGradient><radialGradient id="mozillafirefoxbrowsernightly_svg__c" cx="-9256.7" cy="-9782.1" r="80.797" gradientTransform="matrix(6.201 0 0 6.2 57645 60909)" gradientUnits="userSpaceOnUse"><stop offset=".3" stop-color="#45278d"/><stop offset=".341" stop-color="#562896" stop-opacity=".787"/><stop offset=".43" stop-color="#782aa9" stop-opacity=".364"/><stop offset=".495" stop-color="#8d2bb5" stop-opacity=".1"/><stop offset=".53" stop-color="#952bb9" stop-opacity="0"/></radialGradient><radialGradient id="mozillafirefoxbrowsernightly_svg__d" cx="-9247" cy="-9833.5" r="58.534" gradientTransform="matrix(6.201 0 0 6.2 57645 60909)" gradientUnits="userSpaceOnUse"><stop offset=".132" stop-color="#3fe1b0"/><stop offset=".289" stop-color="#28d0c8"/><stop offset=".526" stop-color="#00b3f4"/></radialGradient><radialGradient id="mozillafirefoxbrowsernightly_svg__e" cx="-9265.6" cy="-9761" r="38.471" gradientTransform="matrix(6.201 0 0 6.2 57645 60909)" gradientUnits="userSpaceOnUse"><stop offset=".287" stop-color="#0060df"/><stop offset=".417" stop-color="#2357e1"/><stop offset=".604" stop-color="#4f4ce3"/><stop offset=".748" stop-color="#6b45e4"/><stop offset=".833" stop-color="#7542e5"/></radialGradient><radialGradient id="mozillafirefoxbrowsernightly_svg__f" cx="-9255.6" cy="-9791.5" r="20.397" gradientTransform="matrix(6.027 -1.458 1.708 7.059 72759 55821)" gradientUnits="userSpaceOnUse"><stop offset=".206" stop-color="#45278d" stop-opacity="0"/><stop offset=".251" stop-color="#44268a" stop-opacity=".055"/><stop offset=".725" stop-color="#371f6f" stop-opacity=".591"/><stop offset=".956" stop-color="#321c64" stop-opacity=".8"/></radialGradient><radialGradient id="mozillafirefoxbrowsernightly_svg__g" cx="-9257.7" cy="-9818.4" r="27.676" gradientTransform="matrix(6.201 0 0 6.2 57645 60909)" gradientUnits="userSpaceOnUse"><stop offset="0" stop-color="#0df"/><stop offset=".235" stop-color="#00d6fd"/><stop offset=".572" stop-color="#00c3f8"/><stop offset=".792" stop-color="#00b3f4"/></radialGradient><radialGradient id="mozillafirefoxbrowsernightly_svg__h" cx="-9236" cy="-9836" r="118.08" gradientTransform="matrix(6.201 0 0 6.2 57645 60909)" gradientUnits="userSpaceOnUse"><stop offset=".126" stop-color="#3fe1b0"/><stop offset=".429" stop-color="#0df"/><stop offset=".479" stop-color="#1ec1ff"/><stop offset=".624" stop-color="#7077ff"/><stop offset=".69" stop-color="#9059ff"/><stop offset=".904" stop-color="#b833e1"/></radialGradient><radialGradient id="mozillafirefoxbrowsernightly_svg__i" cx="-9247.2" cy="-9822.9" r="86.499" gradientTransform="matrix(.649 6.166 -4.046 .426 -33440 61208)" gradientUnits="userSpaceOnUse"><stop offset="0" stop-color="#54ffbd"/><stop offset=".095" stop-color="#4cf3b8"/><stop offset=".197" stop-color="#3fe1b0"/><stop offset=".257" stop-color="#33d8bd"/><stop offset=".369" stop-color="#12c0e1"/><stop offset=".423" stop-color="#00b3f4"/><stop offset=".737" stop-color="#0060df"/></radialGradient><radialGradient id="mozillafirefoxbrowsernightly_svg__j" cx="-9258.4" cy="-9808.2" r="73.72" gradientTransform="matrix(6.201 0 0 6.2 57645 60909)" gradientUnits="userSpaceOnUse"><stop offset=".137" stop-color="#3fe1b0"/><stop offset=".435" stop-color="#0df"/><stop offset=".484" stop-color="#1ec1ff"/><stop offset=".622" stop-color="#7077ff"/><stop offset=".685" stop-color="#9059ff"/></radialGradient><radialGradient id="mozillafirefoxbrowsernightly_svg__k" cx="-9238.9" cy="-9803.9" r="80.686" gradientTransform="matrix(6.201 0 0 6.2 57645 60909)" gradientUnits="userSpaceOnUse"><stop offset=".094" stop-color="#54ffbd"/><stop offset=".242" stop-color="#41f7cc"/><stop offset=".543" stop-color="#0fe3f3"/><stop offset=".626" stop-color="#0df"/></radialGradient><linearGradient id="mozillafirefoxbrowsernightly_svg__a" x1="471.8" x2="55.983" y1="127.35" y2="389.28" gradientUnits="userSpaceOnUse"><stop offset="0" stop-color="#3fe1b0"/><stop offset=".406" stop-color="#00b3f4"/><stop offset=".421" stop-color="#03b0f4"/><stop offset=".818" stop-color="#5561e9"/><stop offset="1" stop-color="#7542e5"/></linearGradient><linearGradient id="mozillafirefoxbrowsernightly_svg__l" x1="442.08" x2="102.64" y1="74.772" y2="414.21" gradientUnits="userSpaceOnUse"><stop offset=".167" stop-color="#54ffbd" stop-opacity=".8"/><stop offset=".236" stop-color="#43f8ca" stop-opacity=".639"/><stop offset=".361" stop-color="#27ede1" stop-opacity=".368"/><stop offset=".466" stop-color="#12e4f1" stop-opacity=".169"/><stop offset=".545" stop-color="#05dffb" stop-opacity=".046"/><stop offset=".589" stop-color="#0df" stop-opacity="0"/></linearGradient></defs><path fill="url(#mozillafirefoxbrowsernightly_svg__a)" d="M478.71 166.35c-10.445-25.124-31.6-52.248-48.212-60.821 13.52 26.505 21.345 53.093 24.335 72.936 0 .039.015.136.047.4C427.705 111.132 381.626 83.82 344 24.355c-1.9-3.007-3.805-6.022-5.661-9.2a73.716 73.716 0 0 1-2.646-4.972A43.7 43.7 0 0 1 332.1.677a.626.626 0 0 0-.546-.644.818.818 0 0 0-.451 0c-.034.012-.084.051-.12.065-.053.021-.12.069-.176.1.027-.036.083-.117.1-.136-60.37 35.356-80.85 100.76-82.732 133.48a120.25 120.25 0 0 0-66.142 25.488 71.355 71.355 0 0 0-6.225-4.7 111.34 111.34 0 0 1-.674-58.732c-24.688 11.241-43.89 29.01-57.85 44.7h-.111c-9.527-12.067-8.855-51.873-8.312-60.184-.114-.515-7.107 3.63-8.023 4.255a175.07 175.07 0 0 0-23.486 20.12 210.48 210.48 0 0 0-22.442 26.913c0 .012-.007.026-.011.038 0-.013.007-.026.011-.038a202.84 202.84 0 0 0-32.247 72.805c-.115.521-.212 1.061-.324 1.586-.452 2.116-2.08 12.7-2.365 15-.022.177-.032.347-.053.524a229.07 229.07 0 0 0-3.9 33.157c0 .41-.025.816-.025 1.227.004 132.71 107.6 240.3 240.33 240.3 118.86 0 217.56-86.288 236.88-199.63.407-3.076.733-6.168 1.092-9.271 4.777-41.21-.53-84.525-15.587-120.75zm-277 188.09c1.124.537 2.18 1.124 3.334 1.639.048.033.114.07.163.1a126.19 126.19 0 0 1-3.497-1.739zm253.183-175.52-.032-.233c.012.085.027.174.04.259z" transform="translate(-.774) scale(.09677)"/><path fill="url(#mozillafirefoxbrowsernightly_svg__b)" d="M478.71 166.35c-10.445-25.124-31.6-52.248-48.212-60.821 13.52 26.505 21.345 53.093 24.335 72.936 0-.058.011.048.036.226.012.085.027.174.04.259 22.675 61.47 10.322 123.98-7.479 162.18-27.539 59.1-94.215 119.67-198.58 116.72-112.76-3.193-212.09-86.856-230.63-196.43-3.379-17.28 0-26.054 1.7-40.084-2.071 10.816-2.86 13.94-3.9 33.157 0 .41-.025.816-.025 1.227.002 132.71 107.6 240.29 240.33 240.29 118.86 0 217.56-86.288 236.88-199.63.407-3.076.733-6.168 1.092-9.271 4.777-41.21-.53-84.525-15.587-120.75z" transform="translate(-.774) scale(.09677)"/><path fill="url(#mozillafirefoxbrowsernightly_svg__c)" d="M478.71 166.35c-10.445-25.124-31.6-52.248-48.212-60.821 13.52 26.505 21.345 53.093 24.335 72.936 0-.058.011.048.036.226.012.085.027.174.04.259 22.675 61.47 10.322 123.98-7.479 162.18-27.539 59.1-94.215 119.67-198.58 116.72-112.76-3.193-212.09-86.856-230.63-196.43-3.379-17.28 0-26.054 1.7-40.084-2.071 10.816-2.86 13.94-3.9 33.157 0 .41-.025.816-.025 1.227.002 132.71 107.6 240.29 240.33 240.29 118.86 0 217.56-86.288 236.88-199.63.407-3.076.733-6.168 1.092-9.271 4.777-41.21-.53-84.525-15.587-120.75z" transform="translate(-.774) scale(.09677)"/><path fill="url(#mozillafirefoxbrowsernightly_svg__d)" d="M361.92 194.6c.524.368 1 .734 1.493 1.1a130.71 130.71 0 0 0-22.31-29.112C266.398 91.892 321.514 4.628 330.809.198c.027-.036.083-.117.1-.136-60.37 35.356-80.85 100.76-82.732 133.48 2.8-.194 5.592-.429 8.442-.429 45.051 0 84.289 24.77 105.3 61.487z" transform="translate(-.774) scale(.09677)"/><path fill="url(#mozillafirefoxbrowsernightly_svg__e)" d="M256.77 209.51c-.393 5.978-21.514 26.593-28.9 26.593-68.339 0-79.432 41.335-79.432 41.335 3.027 34.81 27.261 63.475 56.611 78.643 1.339.692 2.694 1.317 4.05 1.935a132.77 132.77 0 0 0 7.059 2.886 106.74 106.74 0 0 0 31.271 6.031c119.78 5.618 142.99-143.19 56.545-186.41 22.137-3.85 45.115 5.053 57.947 14.067-21.012-36.714-60.25-61.484-105.3-61.484-2.85 0-5.641.235-8.442.429a120.25 120.25 0 0 0-66.142 25.488c3.664 3.1 7.8 7.244 16.514 15.828 16.302 16.067 58.13 32.705 58.219 34.657z" transform="translate(-.774) scale(.09677)"/><path fill="url(#mozillafirefoxbrowsernightly_svg__f)" d="M256.77 209.51c-.393 5.978-21.514 26.593-28.9 26.593-68.339 0-79.432 41.335-79.432 41.335 3.027 34.81 27.261 63.475 56.611 78.643 1.339.692 2.694 1.317 4.05 1.935a132.77 132.77 0 0 0 7.059 2.886 106.74 106.74 0 0 0 31.271 6.031c119.78 5.618 142.99-143.19 56.545-186.41 22.137-3.85 45.115 5.053 57.947 14.067-21.012-36.714-60.25-61.484-105.3-61.484-2.85 0-5.641.235-8.442.429a120.25 120.25 0 0 0-66.142 25.488c3.664 3.1 7.8 7.244 16.514 15.828 16.302 16.067 58.13 32.705 58.219 34.657z" transform="translate(-.774) scale(.09677)"/><path fill="url(#mozillafirefoxbrowsernightly_svg__g)" d="M170.83 151.04a244.04 244.04 0 0 1 4.981 3.3 111.34 111.34 0 0 1-.674-58.732c-24.688 11.241-43.89 29.01-57.85 44.7 1.155-.033 36.014-.66 53.543 10.732z" transform="translate(-.774) scale(.09677)"/><path fill="url(#mozillafirefoxbrowsernightly_svg__h)" d="M18.223 261.41c18.543 109.58 117.88 193.24 230.63 196.43 104.36 2.954 171.04-57.62 198.58-116.72 17.8-38.2 30.154-100.7 7.479-162.18l-.008-.026-.032-.233c-.025-.178-.04-.284-.036-.226 0 .039.015.136.047.4 8.524 55.661-19.79 109.58-64.051 146.04l-.133.313c-86.245 70.223-168.77 42.368-185.48 30.966a144.11 144.11 0 0 1-3.5-1.743c-50.282-24.029-71.054-69.838-66.6-109.12-42.457 0-56.934-35.809-56.934-35.809s38.119-27.179 88.358-3.541c46.53 21.893 90.228 3.543 90.233 3.541-.089-1.952-41.917-18.59-58.223-34.656-8.713-8.584-12.85-12.723-16.514-15.828a71.355 71.355 0 0 0-6.225-4.7 282.93 282.93 0 0 0-4.981-3.3c-17.528-11.392-52.388-10.765-53.543-10.735h-.111c-9.527-12.067-8.855-51.873-8.312-60.184-.114-.515-7.107 3.63-8.023 4.255a175.07 175.07 0 0 0-23.486 20.12 210.48 210.48 0 0 0-22.442 26.919c0 .012-.007.026-.011.038 0-.013.007-.026.011-.038a202.84 202.84 0 0 0-32.247 72.805c-.115.521-8.65 37.842-4.44 57.199z" transform="translate(-.774) scale(.09677)"/><path fill="url(#mozillafirefoxbrowsernightly_svg__i)" d="M341.1 166.59a130.71 130.71 0 0 1 22.31 29.112c1.323.994 2.559 1.985 3.608 2.952 54.482 50.2 25.936 121.2 23.807 126.26 44.261-36.46 72.575-90.383 64.051-146.04-27.175-67.732-73.254-95.044-110.88-154.51-1.9-3.007-3.805-6.022-5.661-9.2a73.716 73.716 0 0 1-2.646-4.972 43.7 43.7 0 0 1-3.593-9.506.626.626 0 0 0-.546-.644.818.818 0 0 0-.451 0c-.034.012-.084.051-.12.065-.053.021-.12.069-.176.1-9.291 4.428-64.407 91.694 10.298 166.39z" transform="translate(-.774) scale(.09677)"/><path fill="url(#mozillafirefoxbrowsernightly_svg__j)" d="M367.02 198.65c-1.049-.967-2.285-1.958-3.608-2.952-.489-.368-.969-.734-1.493-1.1-12.832-9.014-35.81-17.917-57.947-14.067 86.441 43.214 63.235 192.03-56.545 186.41a106.74 106.74 0 0 1-31.271-6.031 134.51 134.51 0 0 1-7.059-2.886c-1.356-.618-2.711-1.243-4.05-1.935.048.033.114.07.163.1 16.71 11.4 99.239 39.257 185.48-30.966l.133-.313c2.129-5.054 30.675-76.057-23.807-126.26z" transform="translate(-.774) scale(.09677)"/><path fill="url(#mozillafirefoxbrowsernightly_svg__k)" d="M148.44 277.44s11.093-41.335 79.432-41.335c7.388 0 28.509-20.615 28.9-26.593s-43.7 18.352-90.233-3.541c-50.239-23.638-88.358 3.541-88.358 3.541s14.477 35.809 56.934 35.809c-4.453 39.286 16.319 85.1 66.6 109.12 1.124.537 2.18 1.124 3.334 1.639-29.348-15.169-53.582-43.834-56.609-78.644z" transform="translate(-.774) scale(.09677)"/><path fill="url(#mozillafirefoxbrowsernightly_svg__l)" d="M478.71 166.35c-10.445-25.124-31.6-52.248-48.212-60.821 13.52 26.505 21.345 53.093 24.335 72.936 0 .039.015.136.047.4C427.705 111.132 381.626 83.82 344 24.355c-1.9-3.007-3.805-6.022-5.661-9.2a73.716 73.716 0 0 1-2.646-4.972A43.7 43.7 0 0 1 332.1.677a.626.626 0 0 0-.546-.644.818.818 0 0 0-.451 0c-.034.012-.084.051-.12.065-.053.021-.12.069-.176.1.027-.036.083-.117.1-.136-60.37 35.356-80.85 100.76-82.732 133.48 2.8-.194 5.592-.429 8.442-.429 45.053 0 84.291 24.77 105.3 61.484-12.832-9.014-35.81-17.917-57.947-14.067 86.441 43.214 63.235 192.03-56.545 186.41a106.74 106.74 0 0 1-31.271-6.031 134.51 134.51 0 0 1-7.059-2.886c-1.356-.618-2.711-1.243-4.05-1.935.048.033.114.07.163.1a144.11 144.11 0 0 1-3.5-1.743c1.124.537 2.18 1.124 3.334 1.639-29.35-15.168-53.584-43.833-56.611-78.643 0 0 11.093-41.335 79.432-41.335 7.388 0 28.509-20.615 28.9-26.593-.089-1.952-41.917-18.59-58.223-34.656-8.713-8.584-12.85-12.723-16.514-15.828a71.355 71.355 0 0 0-6.225-4.7 111.34 111.34 0 0 1-.674-58.732c-24.688 11.241-43.89 29.01-57.85 44.7h-.111c-9.527-12.067-8.855-51.873-8.312-60.184-.114-.515-7.107 3.63-8.023 4.255a175.07 175.07 0 0 0-23.486 20.12 210.48 210.48 0 0 0-22.435 26.916c0 .012-.007.026-.011.038 0-.013.007-.026.011-.038a202.84 202.84 0 0 0-32.247 72.805c-.115.521-.212 1.061-.324 1.586-.452 2.116-2.486 12.853-2.77 15.156-.022.177.021-.176 0 0a279.56 279.56 0 0 0-3.544 33.53c0 .41-.025.816-.025 1.227 0 132.71 107.6 240.29 240.32 240.29 118.86 0 217.56-86.288 236.88-199.63.407-3.076.733-6.168 1.092-9.271 4.777-41.21-.53-84.525-15.587-120.75zm-23.841 12.341c.012.085.027.174.04.259l-.008-.026z" transform="translate(-.774) scale(.09677)"/></svg>