<svg xmlns="http://www.w3.org/2000/svg" fill="none" viewBox="0 0 48 48"><mask id="thunderbird_svg__i" width="346" height="277" x="339" y="448" maskUnits="userSpaceOnUse"><path fill="#fff" d="M684.13 514.52c0 77.57-77.07 140.45-172.13 140.45-4.59 0-12.3-1.18-15.11 3.4-2.81 4.56 3.38 11.6 6.95 15.63 37.16 42.04 91.07 47.33 105.22 48.72l2.23.22c-124.88 12.08-271.38-67.7-271.42-206.37a121.971 121.971 0 0 1 18.53-65.32l134.08 121.78c9.54 8.66 25.61 8.66 35.15 0l136.62-124.09c12.7 19.58 19.88 41.9 19.88 65.58z"/></mask><path fill="url(#thunderbird_svg__a)" d="M452.1 306.5h.06c22.04-77.05 118.08-114.66 215.95-114.66 67.63 0 128.34 21.41 169.96 55.4a249.751 249.751 0 0 0-72.76 14.46c33.63 12.5 62.52 31.73 83.93 55.52a258.65 258.65 0 0 0-48.92-3.7A348.37 348.37 0 0 1 862 512c0 193.3-156.7 350-350 350-190.32 0-350-159.35-350-350 0-30.11 4-61.2 11.77-90.36 2.04-6.12 4.88-11.99 8.65-14.14 4.72-2.69 9.02 5.33 9.71 7.94a320.632 320.632 0 0 0 20.57 55.72c-.75-39.96 16.32-76.36 39.8-107.84 15.66-20.99 30.18-40.44 36.88-96.57.45-3.77 4.02-6.48 7.63-5.3 50.96 16.68 78.2 101.54 73.97 172.5 28.15 4.03 28.02-25.38 28.02-25.38-9-27.66-3-79.07 53-102.07z" transform="translate(-11.108 -12.131)scale(.06857)"/><path fill="url(#thunderbird_svg__b)" d="M850.55 422.87c8.51 192.5-149.74 358.47-342.71 358.47-180.65 0-328.68-139.63-342.07-316.85a369.387 369.387 0 0 0-3.76 50.1C163.38 704.21 322.67 862 512.01 862c193.3 0 350-156.7 350-350 0-30.8-3.99-60.67-11.46-89.13z" opacity=".9" transform="translate(-11.108 -12.131)scale(.06857)"/><path fill="url(#thunderbird_svg__c)" d="M503.47 332.01c-3.77-6.67-21.18-16.54-28.79-18.26C503.48 221.5 650.2 193.18 740 209.5c37.37 6.8 83.91 27.16 98.07 37.74-41.62-33.99-102.34-55.4-169.96-55.4-97.87 0-193.91 37.61-215.95 114.66H452c-56 23-62 74.43-53 102.08 8.64-32.99 49.75-73.53 104.47-76.57z" style="mix-blend-mode:screen" transform="translate(-11.108 -12.131)scale(.06857)"/><path fill="url(#thunderbird_svg__d)" d="M605.18 268.3c-78.62 15.47-104.31 20.53-130.62 45.54 29.55-78.23 104.98-94.09 194.86-58.43a6384.156 6384.156 0 0 1-64.24 12.9z" transform="translate(-11.108 -12.131)scale(.06857)"/><path fill="url(#thunderbird_svg__e)" d="M181 410.93c-21.48 87.94-4.88 191.3 92.7 278.04-29.05-31.77-64.52-149.07 13.75-232.87 5.27-5.65 14.34-1.5 14.63 6.22 6.45 174.16 146.98 280.53 309 260.64-50.2-2.82-216.22-60.97-92.72-83.97 64.55-12.03 165.76-30.88 165.76-121.7 0-147.22-113.83-190.26-182.86-183.86-47.24 4.38-89.29 34.36-102.23 75.13 4.97 16.07-14.84 27.32-28.05 25.43 4.24-70.95-23-155.86-73.97-172.54-3.6-1.18-7.18 1.53-7.63 5.3-6.7 56.13-21.22 75.58-36.87 96.57-23.49 31.49-40.56 67.88-39.81 107.84a320.632 320.632 0 0 1-20.57-55.72c-.57-2.16-3.7-8.19-7.48-8.47-2.05-.15-3.14 1.85-3.65 3.96z" transform="translate(-11.108 -12.131)scale(.06857)"/><path fill="url(#thunderbird_svg__f)" d="M474.99 647.9c95.04 77.17 286.17 19.31 286.17-168.32C684 596.54 585.72 677.22 475 647.9z" style="mix-blend-mode:screen" transform="translate(-11.108 -12.131)scale(.06857)"/><path fill="url(#thunderbird_svg__g)" d="M287.45 456.1a7.906 7.906 0 0 1 6.98-2.56c-70.06 85.45-13.55 235.52 25.23 272.39 2.17 6.14-36.79-25.79-42.16-33.26-29.5-25.03-71.78-149.06 9.95-236.57z" style="mix-blend-mode:screen" transform="translate(-11.108 -12.131)scale(.06857)"/><path fill="url(#thunderbird_svg__h)" d="M512 654.97c95.06 0 172.13-62.88 172.13-140.45S607.06 374.07 512 374.07c-81.1 0-172.17 52.76-172.13 142.5.04 138.67 146.54 218.45 271.42 206.37-9.38-1.09-67.9-4.2-107.45-48.94-3.57-4.03-9.76-11.07-6.95-15.64 2.8-4.57 10.52-3.4 15.1-3.4z" transform="translate(-11.108 -12.131)scale(.06857)"/><path fill="#fff" d="M34.517 18.773 25.19 27.7c-.828.588-1.709.63-2.578.097l-9.15-8.99c.261-.42.555-.819.878-1.192l.96.898c2.403 2.252 4.345 4.07 7.083 6.408 1.236 1.054 1.62 1.034 2.832 0a457.74 457.74 0 0 0 8.401-7.357c.332.379.634.784.901 1.21z" opacity=".6"/><g mask="url(#thunderbird_svg__i)" transform="translate(-11.108 -12.131)scale(.06857)"><path fill="url(#thunderbird_svg__j)" d="M300 352.53h435.07V747H300z" opacity=".7"/><g filter="url(#thunderbird_svg__k)"><path fill="#458fcd" fill-rule="evenodd" d="M472.04 573.85c-25.35-26.38-101.27-114.03-101.27-114.03l5.87.26 118.86 88.77c8.9 6.47 21.6 6.4 30.42-.15l116.55-88.5 6.18-.49s-73.44 85.57-101.57 113.76-49.69 26.76-75.04.38z" clip-rule="evenodd"/></g></g><path fill="#fff" d="M25.656 8.701c1.263-.397 1.152-1.647 1.152-1.647s-.632-.744-1.883-.332c-1.171.386-1.353 1.22-1.353 1.22s.64 1.214 2.084.76z"/><defs><linearGradient id="thunderbird_svg__a" x1="283.48" x2="776.88" y1="307.2" y2="767.42" gradientUnits="userSpaceOnUse"><stop offset="0" stop-color="#1B91F3"/><stop offset="1" stop-color="#0B68CB"/></linearGradient><linearGradient id="thunderbird_svg__d" x1="420.77" x2="598.31" y1="425.01" y2="227.37" gradientUnits="userSpaceOnUse"><stop offset="0" stop-color="#0F5DB0"/><stop offset="1" stop-color="#0F5DB0" stop-opacity="0"/></linearGradient><linearGradient id="thunderbird_svg__f" x1="731.92" x2="649.37" y1="568.11" y2="770.8" gradientUnits="userSpaceOnUse"><stop offset="0" stop-color="#E247C4" stop-opacity="0"/><stop offset="1" stop-color="#E247C4" stop-opacity=".64"/></linearGradient><linearGradient id="thunderbird_svg__g" x1="220.01" x2="292.74" y1="386.34" y2="679.06" gradientUnits="userSpaceOnUse"><stop offset=".1" stop-color="#EF3ACC"/><stop offset="1" stop-color="#EF3ACC" stop-opacity="0"/></linearGradient><linearGradient id="thunderbird_svg__h" x1="512" x2="512" y1="425.5" y2="721.5" gradientUnits="userSpaceOnUse"><stop offset="0" stop-color="#fff"/><stop offset=".91" stop-color="#BEE1FE"/><stop offset="1" stop-color="#96CEFD"/></linearGradient><linearGradient id="thunderbird_svg__j" x1="517.54" x2="517.54" y1="593" y2="717" gradientUnits="userSpaceOnUse"><stop offset="0" stop-color="#BCE0FD"/><stop offset="1" stop-color="#88CCFC"/></linearGradient><radialGradient id="thunderbird_svg__b" cx="0" cy="0" r="1" gradientTransform="matrix(117.93 271.45 -260.04 112.97 282.57 465.55)" gradientUnits="userSpaceOnUse"><stop offset=".53" stop-color="#0B4186" stop-opacity="0"/><stop offset="1" stop-color="#0B4186" stop-opacity=".45"/></radialGradient><radialGradient id="thunderbird_svg__c" cx="0" cy="0" r="1" gradientTransform="matrix(-38.95 -49.86 82.507 -64.454 521 344)" gradientUnits="userSpaceOnUse"><stop offset="0" stop-color="#EF3ACC" stop-opacity="0"/><stop offset="1" stop-color="#EF3ACC" stop-opacity=".64"/></radialGradient><radialGradient id="thunderbird_svg__e" cx="0" cy="0" r="1" gradientTransform="matrix(200.5 -415.91 513.77 247.68 380 702.7)" gradientUnits="userSpaceOnUse"><stop offset=".02" stop-color="#094188"/><stop offset=".97" stop-color="#0B4186" stop-opacity="0"/></radialGradient><filter id="thunderbird_svg__k" width="341.88" height="198.42" x="338.77" y="427.71" color-interpolation-filters="sRGB" filterUnits="userSpaceOnUse"><feFlood flood-opacity="0" result="BackgroundImageFix"/><feBlend in="SourceGraphic" in2="BackgroundImageFix" result="shape"/><feGaussianBlur result="effect1_foregroundBlur_1_4" stdDeviation="16"/></filter></defs></svg>