<svg xmlns="http://www.w3.org/2000/svg" viewBox="0 0 48 48"><g fill="#606"><path d="M.142 27.206H0v18.358a2.423 2.423 0 0 0 2.413 2.413h18.902C21.149 36.503 11.733 27.206.142 27.206z"/><path d="M.142 12.065H0v7.807c15.59.071 28.27 12.61 28.435 28.105h8.091C36.384 28.152 20.132 12.065.142 12.065z"/><path d="M48 45.587V29.004C42.51 15.567 31.463 4.944 17.719 0H2.413A2.423 2.423 0 0 0 0 2.413v2.342c23.988.071 43.505 19.4 43.647 43.245h1.94C46.935 47.977 48 46.912 48 45.587zM41.683 6.695c2.224 2.224 4.495 5.04 6.317 7.523V2.39A2.383 2.383 0 0 0 45.61 0H33.427c2.839 1.964 5.772 4.211 8.256 6.695z"/></g></svg>