<svg xmlns="http://www.w3.org/2000/svg" viewBox="0 0 48 48"><path fill="none" stroke="#3f0" stroke-linecap="round" stroke-linejoin="round" stroke-width=".38491643999999997" d="M43.943 42.985v-.182h-.358l-.298.234v-.13h-.358v-.99h-.298v-.912h-.179v-.183h-.298v1.147h-.417v.886h-.447v-.274l-.238.104-.327.144h-.239v.416h-.477V41.76h-.357v-.26h-.358v-1.174h-.357V41.5l-.18.079v1.368h-.327l-.327.144h-.358l-.298-.13h-.537v-.314h-.358v.496h-.297v.338h-.24v.222h-.534 0v-.143h-.239v-1.877h-.238v-1.277l-.15-.065v-.847h-.267V41.5h-.24v2.033h-.237v.17h-.297v-.17h-.24v-1.069h-.178v-1.251h-.179v-3.96h-.12v-1.85H32.8v2.526h-.238v5.135l-.18.078v.39h-.237v-.364h-.12v-.677h-.297v-.417h-.24v.781h-.177v.209h-.239v-.39h-.298v.442h-.417v.443H30v-1.2l-.15-.064v-1.29h-.446v1.068l-.299.13v1.5h-.177v-6.608h-.18v-2.578h-.178v2.188h-.24v4.56h-.178v.235h-.178v1.876h-.239v-.651h-.298v-3.023h-.357v-2.684l-.15-.065v1.706h-.446v3.05h-.18v.573l-.237.104v1.316h-.297v-1.446h-.18v-3.91h-.179v3.128h-.297v1.668l-.179.078v-.339h-.417v.209h-.239v.469H24.1v-.495h-.24v-.443h-.297v.235l-.09-.04v.378l-.253.11v.281l-.29.127v-.44h-.38v-.312h-.18v-.418h-.357v-.417h-.179v-.677h-.297v-1.512h-.298v1.98h-.298v.626l-.238.105v.781h-.179v.274h-.238v-1.55l-.18-.079v-1.59h-.297V38.79h-.18v-4.37h-.297v3.64h-.18v2.763h-.238v.209h-.238v1.147h-.357v1.524h-.298v-.247h-.298v-.209h-.298v-.521h-.417v-2.58h-.298v-3.232h-.358v2.736h-.238v-.468h-.298v-2.372l-.15-.065v-1.517H15.4v2.103h-.298v2.397h-.238v1.695h-.239v1.511h-.119v-.6h-.358v.783h-.417v-.47h-.298v.887h-.357v-.6h-.357v.235h-.298v.365h-.298v.17h-.357v-.457h-.418v.456h-.536v-.195h-.298v.195h-.536v-.222h-.24v-.338H9.44v-.495h-.358v.313"/><path d="M44.27 1.7c-.623.934-2.189.94-2.189.94l.405-1.016c-2.059.514-4.157 2.69-4.157 2.69l-.004-1.276-2.772 2.107.56-1.564-1.107.74c-1.345.798-2.87 1.12-2.87 1.12-2.31.143-5.61 2.928-5.61 2.928.4-1.033.112-3.162.112-3.162-2.032 3.978-5.904 5.767-6.459 5.993-.556.225-3.474 1.56-6.125 3.984-2.65 2.421-3.491 6.47-3.491 6.47-.212.76-2.186 2.035-3.095 3.225-.416.544-2.75 3.46-3.565 7.024-.69 3.027.185 5.947.185 5.947s.153 1.106.992-.87l.35-.07s-.427.923-.165.833c.262-.089 1.768-1.713 3.002-3.086 1.235-1.374 5.44-4.752 9.226-4.997 0 0 2.57-.97 4.475.52 0 0 1.255 1.554 3.196 1.36 0 0 .227-.063.848.357l-.037-.81s2.229 1.308 4.568.383l-.41-.58s.42-.62 1.659.22l.073-.553s2.203 1.174 3.334 1.136l-.31-.996s2.332-.327 4.642-.47c0 0 2.878-.62 4.777 1.478L44.27 1.699"/><g fill="none" stroke="#000" stroke-linecap="round" stroke-linejoin="round"><path stroke-width=".38491643999999997" d="M8.94 47.809V35.224M8.94 21.985V.193h35.23v47.615"/><path stroke-width=".391071" d="M8.943 47.803h35.106"/></g></svg>