<svg xmlns="http://www.w3.org/2000/svg" viewBox="0 0 48 48"><path fill="#5b85a4" fill-rule="evenodd" d="M32.81 11.011a2.18 2.18 0 0 0-.548.067v.027h.026c.108.214.296.362.428.549.108.214.202.427.309.64l.026-.026c.188-.133.282-.347.282-.668-.081-.095-.094-.187-.161-.281-.08-.134-.254-.2-.361-.308"/><path fill="#2c7493" d="M11.54 37.403H9.688a103.114 103.114 0 0 0-.541-8.82H9.13l-2.82 8.82H4.9l-2.802-8.82H2.08c-.208 2.645-.338 5.585-.393 8.82H0c.109-3.935.382-7.623.819-11.066h2.295l2.672 8.13h.017l2.688-8.13h2.196c.481 4.032.765 7.722.853 11.066m8.033-8.164c-.754 4.092-1.749 7.066-2.983 8.92-.963 1.43-2.017 2.145-3.164 2.145-.306 0-.683-.092-1.131-.275v-.987c.219.032.475.05.77.05.536 0 .967-.149 1.296-.444.393-.36.59-.764.59-1.213 0-.306-.154-.934-.46-1.885l-2.031-6.31h1.82l1.458 4.72c.328 1.072.464 1.82.41 2.247.798-2.131 1.355-4.454 1.672-6.967h1.754"/><g fill="#f18513"><path d="M44.226 37.403h-5.262V26.337h1.77v9.705h3.492v1.36"/><path fill-rule="evenodd" d="M30.997 35.19c-.448-.722-.673-1.88-.673-3.476 0-2.786.847-4.18 2.541-4.18.885 0 1.535.333 1.951 1 .448.721.672 1.869.672 3.442 0 2.809-.847 4.214-2.54 4.214-.886 0-1.536-.333-1.951-1m6.59 2.48-2.035-1.003a3.8 3.8 0 0 0 .51-.495c.863-1.015 1.295-2.517 1.295-4.507 0-3.66-1.437-5.492-4.311-5.492-1.41 0-2.509.464-3.295 1.394-.864 1.017-1.295 2.513-1.295 4.492 0 1.945.382 3.372 1.147 4.278.7.82 1.754 1.23 3.164 1.23.526 0 1.01-.065 1.449-.195l2.648 1.541.722-1.243"/><path d="M27.686 34.336c0 .938-.345 1.708-1.032 2.311-.688.6-1.612.901-2.77.901-1.082 0-2.13-.346-3.147-1.033l.476-.95c.874.437 1.665.655 2.376.655.666 0 1.188-.149 1.565-.442.377-.295.602-.706.602-1.228 0-.657-.458-1.219-1.299-1.69a204.972 204.972 0 0 1-2.327-1.315c-.84-.613-1.262-1.271-1.262-2.355 0-.896.315-1.62.942-2.172.63-.552 1.44-.829 2.435-.829 1.027 0 1.96.275 2.802.82l-.427.95c-.72-.305-1.43-.458-2.13-.458-.568 0-1.005.136-1.31.41-.307.273-.497.623-.497 1.049 0 .655.468 1.224 1.333 1.704.786.426 2.375 1.333 2.375 1.333.864.612 1.295 1.264 1.295 2.339"/></g><path fill="#2c7493" fill-rule="evenodd" d="M46.448 22.631c-1.07-.027-1.899.08-2.594.374-.2.08-.52.08-.548.335.108.106.12.28.215.428.16.267.44.627.694.815.281.214.562.427.856.614.522.323 1.11.509 1.617.83.295.187.588.427.884.629.146.106.239.28.427.347v-.04c-.094-.12-.12-.295-.214-.43-.133-.132-.267-.253-.401-.386a6.371 6.371 0 0 0-1.39-1.35c-.428-.295-1.365-.696-1.538-1.19l-.027-.026c.294-.028.642-.135.923-.216.454-.12.868-.093 1.336-.213.215-.053.429-.12.643-.187v-.12c-.242-.24-.415-.562-.669-.79a17.906 17.906 0 0 0-2.206-1.644c-.415-.267-.95-.44-1.391-.668-.16-.08-.427-.12-.52-.255-.242-.294-.376-.68-.55-1.029a33.133 33.133 0 0 1-1.095-2.326c-.24-.521-.388-1.042-.682-1.524-1.378-2.273-2.875-3.65-5.174-5-.495-.281-1.083-.402-1.711-.549-.335-.014-.669-.04-1.003-.053-.214-.094-.429-.348-.615-.468-.763-.481-2.727-1.524-3.29-.147-.36.87.536 1.725.843 2.166.227.307.522.655.682 1.002.093.228.12.469.214.71.214.587.414 1.243.695 1.791.147.28.307.575.494.828.108.148.295.214.335.455-.187.268-.201.669-.308 1.003-.481 1.511-.294 3.383.388 4.492.213.334.722 1.07 1.404.788.602-.24.468-1.002.642-1.67.04-.162.013-.268.093-.374v.027c.187.373.375.734.548 1.11.415.654 1.137 1.336 1.739 1.79.32.241.574.655.975.803v-.04h-.026c-.08-.12-.2-.175-.308-.268a6.598 6.598 0 0 1-.695-.802 17.107 17.107 0 0 1-1.497-2.433c-.215-.416-.401-.87-.575-1.284-.08-.16-.08-.401-.214-.481-.201.294-.495.548-.642.908-.254.575-.28 1.284-.375 2.02-.053.013-.026 0-.053.026-.427-.107-.574-.548-.735-.921-.401-.95-.469-2.475-.12-3.571.093-.28.495-1.163.334-1.43-.081-.255-.348-.4-.495-.602a5.296 5.296 0 0 1-.48-.856c-.322-.748-.483-1.578-.83-2.326-.16-.348-.442-.71-.668-1.03-.255-.36-.535-.614-.736-1.042-.066-.147-.16-.388-.053-.548.026-.107.08-.147.187-.174.173-.147.668.04.842.12.495.2.91.388 1.323.668.188.134.388.388.628.455h.282c.427.093.909.026 1.31.147.709.227 1.35.562 1.925.923a11.863 11.863 0 0 1 4.17 4.572c.162.307.229.588.376.909.28.656.629 1.325.909 1.966.28.628.548 1.27.95 1.792.2.28 1.002.427 1.363.574.267.12.682.227.923.374.455.28.908.602 1.337.91.213.16.882.494.922.762"/><path fill="#f18513" d="M45.488 37.402h.294v-1.126h.384v-.23h-1.077v.23h.4zm2.233 0h.276v-1.356h-.416l-.338.924-.369-.924h-.4v1.356h.261V36.37h.015l.386 1.032h.2l.385-1.032v1.032"/></svg>