<svg xmlns="http://www.w3.org/2000/svg" viewBox="0 0 48 48"><g fill-rule="evenodd" stroke-width="1.876"><path fill="#5b85a4" d="M10.914 8.511a5.229 5.229 0 0 0-1.338.164v.066h.063c.264.52.722.883 1.045 1.339.263.522.492 1.043.753 1.566.032-.032.063-.067.063-.067.46-.325.689-.846.689-1.631-.198-.23-.228-.457-.393-.686-.195-.326-.62-.49-.882-.75"/><path fill="#2c7493" d="M44.214 36.884c-2.613-.065-4.636.196-6.333.914-.49.195-1.272.195-1.34.816.264.261.295.685.525 1.046.39.653 1.075 1.533 1.697 1.991.685.523 1.37 1.043 2.09 1.5 1.272.787 2.71 1.242 3.948 2.026.72.456 1.436 1.043 2.157 1.534.358.262.584.686 1.043.848v-.099c-.23-.293-.294-.717-.522-1.046-.325-.324-.652-.62-.98-.944-.947-1.273-2.123-2.383-3.394-3.296-1.045-.72-3.332-1.7-3.754-2.904l-.067-.067c.719-.066 1.569-.328 2.254-.526 1.108-.293 2.12-.227 3.263-.52.523-.131 1.046-.295 1.57-.456v-.296c-.59-.586-1.013-1.37-1.633-1.925-1.664-1.437-3.494-2.84-5.387-4.016-1.014-.653-2.32-1.076-3.397-1.632-.39-.196-1.043-.293-1.272-.621-.588-.719-.916-1.664-1.34-2.514-.945-1.793-1.861-3.784-2.676-5.68-.587-1.273-.946-2.545-1.665-3.721-3.364-5.551-7.019-8.912-12.634-12.21-1.208-.686-2.644-.98-4.177-1.339-.818-.034-1.633-.098-2.45-.13-.523-.23-1.046-.85-1.502-1.144C6.376 1.3 1.579-1.247.208 2.115c-.882 2.123 1.305 4.211 2.056 5.29.555.749 1.274 1.6 1.664 2.447.229.555.294 1.144.524 1.73.522 1.436 1.01 3.037 1.698 4.376.357.686.749 1.405 1.206 2.022.263.361.719.522.817 1.112-.455.652-.49 1.631-.752 2.448-1.174 3.69-.718 8.26.947 10.969.522.816 1.764 2.612 3.429 1.925 1.469-.586 1.142-2.448 1.566-4.078.098-.395.033-.654.228-.915v.066c.457.913.915 1.792 1.34 2.71 1.013 1.597 2.774 3.263 4.244 4.372.781.59 1.402 1.6 2.382 1.96v-.099h-.065c-.196-.293-.49-.424-.75-.652-.588-.588-1.24-1.306-1.699-1.959-1.37-1.827-2.58-3.853-3.655-5.942-.523-1.014-.98-2.123-1.404-3.134-.196-.39-.196-.98-.523-1.175-.49.718-1.207 1.34-1.566 2.217-.62 1.406-.685 3.136-.916 4.932-.13.035-.064 0-.13.065-1.043-.261-1.402-1.338-1.795-2.25-.98-2.32-1.144-6.042-.294-8.719.228-.684 1.21-2.839.817-3.492-.198-.623-.85-.978-1.209-1.47-.423-.62-.883-1.402-1.173-2.09-.784-1.827-1.179-3.852-2.025-5.68-.392-.85-1.079-1.731-1.632-2.513-.621-.882-1.306-1.502-1.797-2.545-.162-.36-.39-.948-.13-1.339.064-.261.197-.36.458-.425.422-.36 1.632.097 2.055.293 1.209.488 2.221.948 3.232 1.632.457.327.947.947 1.534 1.112h.687c1.044.226 2.22.063 3.2.358 1.729.555 3.296 1.37 4.7 2.253 4.276 2.71 7.802 6.563 10.184 11.165.392.75.557 1.436.916 2.218.685 1.603 1.535 3.235 2.22 4.8.684 1.535 1.338 3.1 2.319 4.376.488.684 2.448 1.043 3.33 1.403.65.293 1.664.554 2.252.913 1.11.684 2.218 1.47 3.264 2.221.521.392 2.154 1.207 2.252 1.861"/></g></svg>