<svg xmlns="http://www.w3.org/2000/svg" viewBox="0 0 48 48"><g style="stroke-width:1.87641"><path d="M147.769 124.317a7.496 7.496 0 0 1-1.919-.235v-.094h.091c.378-.747 1.034-1.266 1.498-1.92.377-.749.705-1.495 1.079-2.245.046.046.091.095.091.095.66.466.987 1.214.987 2.339-.283.33-.327.655-.563.984-.28.467-.889.701-1.264 1.076" style="fill:#5b85a4;fill-opacity:1;fill-rule:evenodd;stroke:none;stroke-width:.187641" transform="matrix(.71058 0 0 -.71058 -94.332 96.56)"/><path d="M195.508 83.643c-3.746.094-6.647-.28-9.08-1.31-.702-.28-1.824-.28-1.92-1.17.377-.374.422-.982.752-1.499.56-.936 1.541-2.198 2.432-2.855.983-.749 1.966-1.495 2.997-2.15 1.824-1.128 3.884-1.78 5.66-2.904 1.033-.655 2.059-1.496 3.092-2.2.513-.375.838-.984 1.496-1.216v.142c-.33.42-.422 1.029-.748 1.5-.467.464-.936.888-1.405 1.354-1.358 1.825-3.045 3.415-4.866 4.725-1.499 1.033-4.777 2.437-5.383 4.163l-.095.096c1.03.095 2.249.47 3.231.754 1.589.42 3.04.325 4.678.745.75.189 1.499.424 2.251.654v.425c-.847.84-1.453 1.965-2.342 2.76-2.385 2.059-5.009 4.07-7.723 5.757-1.453.936-3.325 1.542-4.87 2.34-.559.28-1.494.42-1.823.89-.843 1.03-1.313 2.385-1.92 3.604-1.356 2.571-2.669 5.425-3.837 8.144-.842 1.824-1.357 3.648-2.387 5.334-4.823 7.958-10.063 12.776-18.113 17.504-1.732.984-3.791 1.405-5.989 1.92-1.172.049-2.341.14-3.511.186-.75.329-1.5 1.219-2.154 1.64-2.669 1.684-9.546 5.334-11.513.514-1.264-3.044 1.872-6.038 2.949-7.583.795-1.075 1.826-2.294 2.385-3.509.328-.796.422-1.64.751-2.481.748-2.059 1.449-4.353 2.434-6.273.513-.983 1.074-2.014 1.729-2.899.378-.518 1.031-.749 1.172-1.594-.653-.935-.704-2.339-1.078-3.51-1.684-5.289-1.03-11.841 1.358-15.725.747-1.17 2.528-3.745 4.915-2.76 2.106.84 1.638 3.509 2.246 5.847.14.566.046.937.326 1.311v-.095c.655-1.308 1.312-2.569 1.92-3.884 1.453-2.29 3.978-4.678 6.086-6.268 1.12-.846 2.01-2.294 3.414-2.81v.141h-.092c-.282.42-.702.609-1.077.935-.842.843-1.776 1.873-2.434 2.808-1.965 2.62-3.699 5.524-5.24 8.519-.751 1.454-1.405 3.044-2.014 4.494-.28.559-.28 1.404-.749 1.684-.704-1.029-1.731-1.92-2.245-3.179-.89-2.015-.983-4.495-1.313-7.07-.186-.05-.092 0-.186-.093-1.496.374-2.011 1.918-2.574 3.224-1.404 3.328-1.64 8.663-.421 12.501.326.981 1.734 4.07 1.17 5.006-.283.893-1.218 1.403-1.732 2.108-.607.889-1.266 2.01-1.683 2.995-1.124 2.62-1.689 5.523-2.902 8.143-.562 1.219-1.547 2.483-2.34 3.604-.891 1.264-1.873 2.153-2.576 3.649-.232.516-.56 1.359-.187 1.919.092.375.282.516.657.61.605.515 2.339-.139 2.946-.42 1.733-.7 3.184-1.359 4.633-2.34.656-.469 1.358-1.358 2.199-1.594h.985c1.497-.325 3.183-.091 4.588-.514 2.479-.795 4.725-1.965 6.739-3.229 6.129-3.885 11.184-9.409 14.599-16.007.563-1.075.799-2.059 1.313-3.18.983-2.298 2.201-4.638 3.182-6.882.982-2.2 1.92-4.445 3.326-6.273.7-.981 3.509-1.496 4.773-2.011.934-.42 2.387-.795 3.23-1.31 1.591-.98 3.179-2.106 4.679-3.184.747-.561 3.088-1.73 3.229-2.668" style="fill:#2c7493;fill-opacity:1;fill-rule:evenodd;stroke:none;stroke-width:.187641" transform="matrix(.71058 0 0 -.71058 -94.332 96.56)"/></g></svg>