<svg xmlns="http://www.w3.org/2000/svg" viewBox="0 0 48 48"><path fill="#ea4b71" fill-rule="evenodd" d="M48 16.615a4.923 4.923 0 0 1-9.691 1.23h-6.873c-1.204 0-2.23.87-2.428 2.058l-.203 1.214a4.912 4.912 0 0 1-1.6 2.883 4.913 4.913 0 0 1 1.6 2.883l.203 1.214a2.462 2.462 0 0 0 2.428 2.057h1.95a4.925 4.925 0 0 1 9.69 1.23 4.923 4.923 0 0 1-9.69 1.231h-1.95a4.923 4.923 0 0 1-4.856-4.114l-.203-1.214a2.462 2.462 0 0 0-2.428-2.056h-2.008a4.925 4.925 0 0 1-9.42 0H9.634a4.923 4.923 0 1 1 .106-2.462h2.675a4.925 4.925 0 0 1 9.632 0h1.902c1.203 0 2.23-.87 2.428-2.057l.203-1.214a4.923 4.923 0 0 1 4.856-4.114h6.873A4.925 4.925 0 0 1 48 16.615zm-2.462 0a2.461 2.461 0 1 1-4.922 0 2.461 2.461 0 0 1 4.922 0zM4.925 26.256a2.461 2.461 0 1 0 0-4.923 2.461 2.461 0 0 0 0 4.923zm12.307 0a2.461 2.461 0 1 0 0-4.923 2.461 2.461 0 0 0 0 4.923zm20.923 7.59a2.461 2.461 0 1 0 0-4.923 2.461 2.461 0 0 0 0 4.923z" clip-rule="evenodd"/></svg>