<svg xmlns="http://www.w3.org/2000/svg" viewBox="0 0 48 48"><path fill="#0084ff" d="M24 .98C11.276.98.98 11.276.98 24S11.276 47.02 24 47.02 47.02 36.724 47.02 24 36.724.98 24 .98z"/><path fill="#fff" d="M24 15.772c-4.548 0-8.229 3.68-8.229 8.228s3.68 8.23 8.229 8.23 8.229-3.68 8.229-8.229-3.68-8.228-8.229-8.228z"/><path d="M40.974 7.026C36.444 2.496 30.415 0 24 0S11.556 2.495 7.026 7.026 0 17.585 0 24s2.495 12.444 7.026 16.974S17.585 48 24 48s12.444-2.495 16.974-7.026S48 30.415 48 24s-2.495-12.443-7.026-16.974zM24 46.04C11.846 46.04 1.96 36.153 1.96 24S11.846 1.96 24 1.96 46.04 11.846 46.04 24 36.154 46.04 24 46.04z"/><path d="M33.208 24c0-5.077-4.13-9.208-9.208-9.208s-9.208 4.13-9.208 9.208 4.13 9.208 9.208 9.208 9.208-4.13 9.208-9.208zm-16.457 0c0-3.997 3.252-7.249 7.25-7.249s7.248 3.252 7.248 7.249-3.252 7.249-7.249 7.249-7.249-3.252-7.249-7.249z"/><path d="M26.743 24c0-1.512-1.23-2.743-2.743-2.743s-2.743 1.23-2.743 2.743 1.23 2.743 2.743 2.743 2.743-1.23 2.743-2.743zm-3.526 0a.785.785 0 0 1 1.567 0 .785.785 0 0 1-1.567 0zM24 36.735a.98.98 0 1 0 0 1.96c3.928 0 7.619-1.528 10.392-4.302A14.6 14.6 0 0 0 38.694 24a.98.98 0 1 0-1.96 0c0 7.022-5.712 12.735-12.735 12.735zM42.123 23.02a.98.98 0 0 0-.98.98c0 .139-.001.277-.005.415a.98.98 0 1 0 1.96.046c.003-.153.005-.307.005-.461a.98.98 0 0 0-.98-.98z"/><path d="M41.958 26.648a.98.98 0 0 0-1.154.766C39.2 35.37 32.134 41.143 24 41.143a.98.98 0 1 0 0 1.96 19.14 19.14 0 0 0 12.174-4.376 19.139 19.139 0 0 0 6.551-10.926.98.98 0 0 0-.767-1.153zM24 11.265a.98.98 0 1 0 0-1.96 14.598 14.598 0 0 0-10.392 4.302A14.599 14.599 0 0 0 9.306 24a.98.98 0 1 0 1.96 0c0-7.022 5.712-12.735 12.735-12.735zM5.906 22.582a.98.98 0 0 0-1.002.957c-.004.153-.006.307-.006.461a.98.98 0 1 0 1.96 0c0-.138 0-.277.004-.415a.98.98 0 0 0-.956-1.003z"/><path d="M24 6.857a.98.98 0 1 0 0-1.959c-4.44 0-8.763 1.554-12.173 4.375A19.139 19.139 0 0 0 5.275 20.2a.98.98 0 0 0 1.92.387C8.8 12.63 15.868 6.857 24 6.857z"/></svg>