<svg xmlns="http://www.w3.org/2000/svg" width="48" height="48"><defs><radialGradient id="a" cx="19.992" cy=".828" r="38.364" fx="19.992" fy=".828" gradientTransform="matrix(1.25117 0 0 1.25254 -1.014 -1.038)" gradientUnits="userSpaceOnUse"><stop offset="0%" stop-color="#20C6B7"/><stop offset="100%" stop-color="#4D9ABF"/></radialGradient></defs><path fill="url(#a)" d="m34.775 16.657-.017-.007c-.01-.004-.02-.008-.029-.017a.138.138 0 0 1-.035-.116l.968-5.916L40.2 15.14l-4.72 2.008a.104.104 0 0 1-.041.007h-.019a.132.132 0 0 1-.025-.02 2.148 2.148 0 0 0-.62-.478zm6.583-.36 4.852 4.852c1.008 1.009 1.512 1.512 1.696 2.096.028.086.05.172.068.261l-11.596-4.91a.911.911 0 0 0-.02-.008c-.045-.02-.1-.04-.1-.088 0-.048.056-.07.102-.089l.015-.006zm6.418 8.766c-.25.471-.739.96-1.565 1.787l-5.47 5.47-7.076-1.474-.038-.008c-.062-.01-.129-.021-.129-.077a2.136 2.136 0 0 0-.82-1.494c-.028-.029-.02-.074-.012-.115 0-.006 0-.012.002-.018L34 20.964l.005-.027c.008-.062.019-.135.075-.135a2.166 2.166 0 0 0 1.452-.832c.012-.013.02-.027.034-.034.04-.019.088 0 .13.017l12.08 5.11zm-8.294 8.514-8.996 8.996 1.54-9.464.003-.012a.176.176 0 0 1 .007-.037c.013-.03.045-.042.077-.055l.015-.006a2.316 2.316 0 0 0 .87-.647c.03-.035.066-.07.112-.075a.113.113 0 0 1 .037 0l6.334 1.302zm-10.9 10.9-1.014 1.014-11.21-16.201a.53.53 0 0 0-.012-.018c-.018-.024-.037-.047-.033-.075.001-.02.014-.037.028-.053l.012-.016c.034-.05.063-.1.094-.154l.025-.044.004-.003c.017-.03.034-.06.064-.075.026-.013.062-.008.091-.002l12.42 2.562a.205.205 0 0 1 .095.04.1.1 0 0 1 .024.055 2.2 2.2 0 0 0 1.286 1.47c.036.018.02.057.004.098a.298.298 0 0 0-.018.057c-.157.951-1.499 9.136-1.86 11.345zm-2.118 2.117c-.747.74-1.188 1.132-1.686 1.29a2.504 2.504 0 0 1-1.51 0c-.583-.186-1.088-.689-2.095-1.698L9.915 34.928l2.94-4.56a.188.188 0 0 1 .05-.06c.032-.022.077-.012.114 0a3.047 3.047 0 0 0 2.05-.103c.035-.013.068-.021.095.002a.238.238 0 0 1 .035.04l11.265 16.348ZM8.83 33.843 6.247 31.26l5.1-2.176a.105.105 0 0 1 .041-.008c.043 0 .068.042.09.081a3.643 3.643 0 0 0 .163.23l.016.02c.015.022.005.043-.01.063l-2.816 4.373Zm-3.725-3.726L1.837 26.85c-.556-.556-.96-.96-1.24-1.306l9.935 2.06a1.052 1.052 0 0 0 .037.007c.062.01.13.021.13.079 0 .062-.074.091-.137.115l-.029.013zM.026 23.864a2.504 2.504 0 0 1 .113-.62c.185-.583.689-1.086 1.698-2.095l4.18-4.181a2723.44 2723.44 0 0 0 5.792 8.37c.034.046.071.096.032.134a3.475 3.475 0 0 0-.494.66.2.2 0 0 1-.063.078c-.016.01-.034.006-.052.003h-.003L.026 23.863Zm7.11-8.015 5.623-5.623a552.78 552.78 0 0 0 4.171 1.77c1.302.551 2.489 1.052 2.862 1.215.037.015.071.03.088.067.01.023.005.052 0 .076a2.507 2.507 0 0 0 .654 2.288c.038.038 0 .091-.032.138l-.018.026-5.708 8.842a.173.173 0 0 1-.054.062c-.03.02-.073.01-.108.002a2.847 2.847 0 0 0-.68-.093 3.77 3.77 0 0 0-.653.079h-.001c-.025.004-.048.009-.068-.006a.263.263 0 0 1-.056-.064zm6.758-6.758 7.279-7.278C22.18.805 22.685.3 23.268.117a2.504 2.504 0 0 1 1.51 0c.583.184 1.088.688 2.096 1.696L28.45 3.39l-5.176 8.017a.194.194 0 0 1-.052.06c-.031.021-.075.013-.112 0a2.625 2.625 0 0 0-2.404.463c-.034.035-.084.015-.126-.004-.676-.294-5.934-2.516-6.687-2.835ZM29.55 4.489l4.78 4.78-1.152 7.133v.019a.169.169 0 0 1-.01.047c-.013.025-.038.03-.063.038a2.29 2.29 0 0 0-.686.342.193.193 0 0 0-.025.02c-.013.016-.027.03-.05.032a.143.143 0 0 1-.054-.009l-7.283-3.094-.014-.007c-.046-.018-.101-.04-.101-.088a2.752 2.752 0 0 0-.388-1.146c-.035-.057-.074-.118-.044-.176zm-4.922 10.774 6.827 2.891c.038.018.08.034.096.073a.133.133 0 0 1 0 .071c-.02.1-.038.215-.038.33v.191c0 .048-.049.068-.094.087l-.014.005c-1.081.462-15.185 6.475-15.206 6.475-.021 0-.044 0-.065-.02-.038-.038 0-.091.034-.139a.951.951 0 0 0 .017-.025l5.611-8.687.01-.015c.033-.053.07-.112.13-.112l.057.009c.127.017.24.034.354.034.851 0 1.64-.415 2.116-1.123a.2.2 0 0 1 .042-.05c.034-.025.084-.013.123.005zm-7.82 11.498 15.373-6.556s.023 0 .044.021c.084.084.156.14.224.193l.034.021c.031.018.063.038.065.07 0 .013 0 .02-.002.032l-1.317 8.09-.005.032c-.009.062-.018.134-.077.134a2.164 2.164 0 0 0-1.718 1.06l-.007.01c-.017.029-.033.056-.062.071-.026.013-.06.008-.088.002l-12.26-2.53c-.012-.002-.19-.649-.203-.65z" style="fill:url(#a);stroke-width:1.25185"/></svg>