<svg xmlns="http://www.w3.org/2000/svg" viewBox="0 0 48 48"><g clip-path="url(#netlify-light_svg__a)" transform="scale(.375)"><path fill="#fff" d="M125.19 54.774 73.227 2.811 71.297.885 69.162 0H58.84l-2.135.885-1.93 1.926L2.812 54.774l-1.925 1.93L0 58.84V69.16l.886 2.135 1.925 1.93 51.963 51.963 1.93 1.926 2.135.885h10.322l2.135-.885 1.93-1.926 51.963-51.963 1.926-1.93.885-2.135V58.839l-.885-2.135z"/><g fill="#05bdba"><path d="M59.368 116.02V91.057l.663-.663h7.943l.662.663v24.963l-.662.662H60.03zM59.368 36.944V11.981l.663-.663h7.943l.662.663v24.963l-.662.663H60.03zM38.39 97.522h-1.094l-5.457-5.457v-1.094l7.271-7.276 5.778.005.773.769v5.777zM31.839 37.305v-1.09l5.457-5.461h1.09l7.275 7.276v5.773l-.769.778h-5.777zM9.86 59.355h28.076l.663.663v7.952l-.663.662H9.86l-.663-.662v-7.952z"/></g><path fill="#014847" d="M78.883 80.538h-7.938l-.663-.663v-18.58c.004-3.31-1.294-5.871-5.288-5.956-2.05-.053-4.403 0-6.911.102l-.378.387.004 24.047-.663.663h-7.938l-.663-.663v-31.75l.663-.662h17.86c6.943 0 12.569 5.626 12.569 12.568v19.844l-.663.662z"/><path fill="#05bdba" d="M118.14 68.645H90.064l-.663-.663V60.03l.663-.662h28.076l.663.662v7.952z"/></g><defs><clipPath id="netlify-light_svg__a"><path fill="#fff" d="M0 0h128v128H0z"/></clipPath></defs></svg>
