<svg xmlns="http://www.w3.org/2000/svg" viewBox="0 0 48 48"><path fill="#0082c9" d="M24.036 13.074c-4.975 0-9.193 3.373-10.499 7.942-1.136-2.423-3.598-4.121-6.432-4.121C3.205 16.895 0 20.1 0 23.999c0 3.9 3.205 7.106 7.104 7.106 2.835 0 5.297-1.7 6.433-4.124 1.307 4.57 5.524 7.945 10.499 7.945 4.939 0 9.134-3.324 10.475-7.842 1.157 2.369 3.588 4.02 6.383 4.02 3.9 0 7.106-3.206 7.106-7.105 0-3.899-3.206-7.104-7.106-7.104-2.795 0-5.227 1.65-6.383 4.019-1.34-4.518-5.536-7.84-10.475-7.84zm0 4.17A6.724 6.724 0 0 1 30.792 24a6.725 6.725 0 0 1-6.756 6.756A6.724 6.724 0 0 1 17.282 24a6.722 6.722 0 0 1 6.754-6.754zM7.104 21.067A2.904 2.904 0 0 1 10.04 24a2.905 2.905 0 0 1-2.936 2.935A2.904 2.904 0 0 1 4.171 24a2.902 2.902 0 0 1 2.933-2.933zm33.79 0A2.904 2.904 0 0 1 43.83 24a2.905 2.905 0 0 1-2.936 2.935A2.904 2.904 0 0 1 37.961 24a2.902 2.902 0 0 1 2.933-2.933z" color="#000" style="isolation:auto;mix-blend-mode:normal;text-decoration-color:#000;text-decoration-line:none;text-decoration-style:solid;text-indent:0;text-transform:none;white-space:normal"/></svg>