<svg xmlns="http://www.w3.org/2000/svg" viewBox="0 0 48 48"><g transform="scale(.09375)"><rect width="492" height="492" x="10" y="10" fill="#181d2c" stroke="#414652" stroke-width="20" rx="246"/><g filter="url(#nexterm_svg__a)"><path fill="#314bd3" d="M296.17 343.73c-12.132 0-21.967-9.834-21.967-21.966s9.835-21.967 21.967-21.967h73.221c12.132 0 21.967 9.835 21.967 21.967s-9.835 21.966-21.967 21.966zm-113.65-62.085c14.228-14.228 14.199-37.305-.065-51.497l-24.864-24.741c-13.843-13.774-4.088-37.409 15.441-37.409 5.799 0 11.36 2.3 15.464 6.396l66.227 66.094c8.494 8.64 8.494 22.698 0 31.046l-65.767 65.767a21.96 21.96 0 0 1-15.523 6.429c-19.558 0-29.352-23.646-15.523-37.476z"/></g></g><defs><filter id="nexterm_svg__a" width="337.26" height="272.73" x="102.6" y="119.5" color-interpolation-filters="sRGB" filterUnits="userSpaceOnUse"><feFlood flood-opacity="0" result="BackgroundImageFix"/><feColorMatrix in="SourceAlpha" result="hardAlpha" values="0 0 0 0 0 0 0 0 0 0 0 0 0 0 0 0 0 0 127 0"/><feOffset/><feGaussianBlur stdDeviation="24.25"/><feComposite in2="hardAlpha" operator="out"/><feColorMatrix values="0 0 0 0 0.192157 0 0 0 0 0.294118 0 0 0 0 0.827451 0 0 0 1 0"/><feBlend in2="BackgroundImageFix" result="effect1_dropShadow_17_65741"/><feBlend in="SourceGraphic" in2="effect1_dropShadow_17_65741" result="shape"/></filter></defs></svg>
