<svg xmlns="http://www.w3.org/2000/svg" xml:space="preserve" width="48" height="48" viewBox="0 0 45 45"><path d="M22.534 12.257c-4.664 0-8.618 3.162-9.843 7.446-1.065-2.272-3.373-3.864-6.03-3.864-3.656 0-6.661 3.005-6.661 6.66 0 3.656 3.005 6.662 6.66 6.662 2.658 0 4.966-1.593 6.031-3.866 1.225 4.285 5.179 7.448 9.843 7.448 4.63 0 8.563-3.116 9.82-7.352 1.085 2.221 3.364 3.77 5.984 3.77 3.656 0 6.662-3.006 6.662-6.662 0-3.655-3.006-6.66-6.662-6.66-2.62 0-4.9 1.547-5.984 3.768-1.257-4.236-5.19-7.35-9.82-7.35zm0 3.91a6.304 6.304 0 0 1 6.334 6.332 6.305 6.305 0 0 1-6.334 6.334 6.304 6.304 0 0 1-6.332-6.334 6.302 6.302 0 0 1 6.332-6.332zM6.66 19.749a2.722 2.722 0 0 1 2.752 2.75 2.723 2.723 0 0 1-2.752 2.752A2.722 2.722 0 0 1 3.91 22.5a2.721 2.721 0 0 1 2.75-2.75zm31.678 0a2.722 2.722 0 0 1 2.752 2.75 2.723 2.723 0 0 1-2.752 2.752 2.722 2.722 0 0 1-2.75-2.752 2.721 2.721 0 0 1 2.75-2.75z" style="color:#000;font-style:normal;font-variant:normal;font-weight:400;font-stretch:normal;font-size:medium;line-height:normal;font-family:sans-serif;text-indent:0;text-align:start;text-decoration:none;text-decoration-line:none;text-decoration-style:solid;text-decoration-color:#000;letter-spacing:normal;word-spacing:normal;text-transform:none;writing-mode:lr-tb;direction:ltr;baseline-shift:baseline;text-anchor:start;white-space:normal;clip-rule:nonzero;display:inline;overflow:visible;visibility:visible;opacity:1;isolation:auto;mix-blend-mode:normal;color-interpolation:sRGB;color-interpolation-filters:linearRGB;solid-color:#000;solid-opacity:1;fill:#0082c9;fill-opacity:1;fill-rule:nonzero;stroke:none;stroke-width:5.56591;stroke-linecap:butt;stroke-linejoin:miter;stroke-miterlimit:10;stroke-dasharray:none;stroke-dashoffset:0;stroke-opacity:1;color-rendering:auto;image-rendering:auto;shape-rendering:auto;text-rendering:auto;enable-background:accumulate"/></svg>