<svg xmlns="http://www.w3.org/2000/svg" viewBox="0 0 48 48"><defs><style>.nginxproxymanager_svg__cls-1{fill:#faa42f}.nginxproxymanager_svg__cls-1,.nginxproxymanager_svg__cls-11,.nginxproxymanager_svg__cls-13,.nginxproxymanager_svg__cls-15,.nginxproxymanager_svg__cls-24,.nginxproxymanager_svg__cls-25,.nginxproxymanager_svg__cls-26,.nginxproxymanager_svg__cls-4,.nginxproxymanager_svg__cls-5,.nginxproxymanager_svg__cls-6,.nginxproxymanager_svg__cls-7,.nginxproxymanager_svg__cls-8,.nginxproxymanager_svg__cls-9{fill-rule:evenodd}.nginxproxymanager_svg__cls-4{fill:#f15933}.nginxproxymanager_svg__cls-5{fill:#f37132}.nginxproxymanager_svg__cls-6{fill:#d6e042}.nginxproxymanager_svg__cls-7{fill:#fcea3b}.nginxproxymanager_svg__cls-8{fill:#e22574}.nginxproxymanager_svg__cls-9{fill:#ef3839}.nginxproxymanager_svg__cls-11{fill:#ffcf29}.nginxproxymanager_svg__cls-13{fill:#cc3192}.nginxproxymanager_svg__cls-15{fill:#9b3995}.nginxproxymanager_svg__cls-24{fill:#b263a7}.nginxproxymanager_svg__cls-25{fill:#6b297a}.nginxproxymanager_svg__cls-26{fill:#782a8f}</style></defs><path d="m3.351 35.915-.171-.086V36l.171.086z" class="nginxproxymanager_svg__cls-1"/><path d="M3.36 585.68V527.5L0 525.84v62.08z" style="fill:#ddb02a;fill-rule:evenodd" transform="translate(3.18) scale(.05108)"/><path d="m43.7 609.18-40.34-23.5L0 587.92v113.56l3.36 1.68 40.34-23.5z" style="fill:#c47728;fill-rule:evenodd" transform="translate(3.18) scale(.05108)"/><path d="m8.531 38.886 2.576 1.514v.172L8.36 39z" class="nginxproxymanager_svg__cls-4"/><path d="m5.412 34.714-2.06 1.2v.172L8.36 39l.171-.114v-2.371z" class="nginxproxymanager_svg__cls-5"/><path d="M3.351 20.972v-3l-.171-.087v3.173z" class="nginxproxymanager_svg__cls-6"/><path d="m3.18 26.858.17.085 1.804-1.029A14.13 14.13 0 0 1 5.04 24c0-.658.057-1.344.114-2L3.35 20.97l-.171.086z" class="nginxproxymanager_svg__cls-7"/><path d="m3.35 29.943 2.062 1.171 3.12-1.771v-2.4l-1.518-.886c.029.43.115.857.2 1.286l-1.66.97a14.034 14.034 0 0 1-.4-2.4L3.35 26.94z" class="nginxproxymanager_svg__cls-1"/><path d="M8.531 38.886v-2.371l.83-.486-.028-.028c.4.485.83.942 1.259 1.37a19.25 19.25 0 0 0 2.317 1.972L11.106 40.4zm3.09-4.171 2.09 1.2v1.742a13.692 13.692 0 0 1-1.803-1.571 10.31 10.31 0 0 1-.945-1z" class="nginxproxymanager_svg__cls-4"/><path d="m18.891 44.857-2.604-1.485-.143.086 2.747 1.6z" class="nginxproxymanager_svg__cls-8"/><path d="m16.144 43.458.143-.086v-2.086a18.087 18.087 0 0 1-3.378-1.941l-1.803 1.057v.172z" class="nginxproxymanager_svg__cls-9"/><path d="M3.36 234.94v-1.67L0 234.94v1.68z" style="fill:#bbd64b;fill-rule:evenodd" transform="translate(3.18) scale(.05108)"/><path d="M5.927 13.486 3.35 12l-.171.086v5.8l.171.086 2.576-1.486z" class="nginxproxymanager_svg__cls-6"/><path d="m3.35 20.97 1.804 1.028A19.54 19.54 0 0 1 6.47 16.8l-.544-.314-2.576 1.486zm3.664.857 1.517-.857v-2.998l-.46-.258a16.753 16.753 0 0 0-1.059 4.115z" class="nginxproxymanager_svg__cls-11"/><path d="m7.014 26.057 1.517.886 2.575-1.486v-3L8.531 20.97l-1.517.857A18.144 18.144 0 0 0 6.87 24a16.293 16.293 0 0 0 .143 2.057z" class="nginxproxymanager_svg__cls-1"/><path d="M16.287 31.743V34.4l-2.576 1.515-2.09-1.2v-3.6l1.804-1.03z" class="nginxproxymanager_svg__cls-4"/><path d="m291.5 882.6 51 29.08 51-29.08v-11.75c-35.87-5-70.05-14.54-102-29.1zm102-48.12v-10.07l-51-29.64-29.71 17.34a318.78 318.78 0 0 0 80.7 22.37z" style="fill:#ee438d;fill-rule:evenodd" transform="translate(1.398 -1.707) scale(.05108)"/><path d="m11.107 25.457-2.576 1.486v2.4l3.09 1.771 1.804-1.029v-3.314z" class="nginxproxymanager_svg__cls-5"/><path d="m21.496 43.372-2.605 1.485v.2l5.009 2.887.172-.086v-3z" class="nginxproxymanager_svg__cls-13"/><path d="m312.78 812.11 29.71-17.34v-58.18l-51-29.66-50.44 29.66v34.12a315.47 315.47 0 0 0 71.72 41.4z" style="fill:#bd2025;fill-rule:evenodd" transform="translate(1.398 -1.707) scale(.05108)"/><path d="m24.072 47.858-.172.086.114.056.143-.085z" class="nginxproxymanager_svg__cls-15"/><path d="m104.78 176.2-1.68-.56-99.74 57.63v1.67l50.43 29.1 50.99-29.1z" style="fill:#f1eb59;fill-rule:evenodd" transform="translate(3.18) scale(.05108)"/><path d="m5.927 16.486.544.314c.658-1.63 1.545-3.116 2.605-4.486L8.532 12l-2.605 1.486zm2.145 1.226.46.258 2.575-1.485v-2.999l-.429-.229a17.681 17.681 0 0 0-2.605 4.457z" class="nginxproxymanager_svg__cls-7"/><path d="M13.425 21.114v-3.2l.086-.057-2.404-1.371-2.576 1.486v3l2.576 1.485z" class="nginxproxymanager_svg__cls-1"/><path d="M24.072 38.886v-2.743l-.058.029-2.804-1.6-2.319 1.343v2.971l2.605 1.514z" class="nginxproxymanager_svg__cls-8"/><path d="M200.59 524.15V413.39l-45.38 26.29v58.74z" style="fill:#f7975f;fill-rule:evenodd" transform="translate(3.18) scale(.05108)"/><path d="m21.496 43.372 2.576 1.485 2.605-1.485v-.629a20.788 20.788 0 0 1-2.663.172 23.868 23.868 0 0 1-2.518-.143zm5.18-2.486V40.4l-2.605-1.514-2.576 1.514v.514a18.09 18.09 0 0 0 2.518.172 16.74 16.74 0 0 0 2.662-.2z" class="nginxproxymanager_svg__cls-13"/><path d="m307.62 703.16 45.39-26.29-96.38-55.39v52.02z" style="fill:#d31f26;fill-rule:evenodd" transform="translate(3.18) scale(.05108)"/><path d="m510.45 878.25-50.41-29.08-50.99 29.08v58.74l1.66 1.12 99.74-57.62z" style="fill:#73206a;fill-rule:evenodd" transform="translate(3.18) scale(.05108)"/><path d="m8.531 9 2.576-1.486v-.086L8.445 8.971z" class="nginxproxymanager_svg__cls-6"/><path d="m8.531 12 .544.314c.486-.6 1.002-1.142 1.517-1.685A18.09 18.09 0 0 1 12.996 8.6l-1.89-1.085L8.531 9zm2.145 1.257.43.23L13.71 12v-1.657a13.54 13.54 0 0 0-1.803 1.572c-.429.428-.83.856-1.23 1.342z" class="nginxproxymanager_svg__cls-11"/><path d="M16.287 13.486 13.711 12l-2.604 1.486v3l2.404 1.371 2.776-1.6z" class="nginxproxymanager_svg__cls-1"/><path d="m561.44 849.17-50.99 29.08v2.24l52.68-30.22z" style="fill:#853a96;fill-rule:evenodd" transform="translate(3.18) scale(.05108)"/><path d="m29.251 35.915-2.374-1.4-2.805 1.628v2.743l2.605 1.514 2.574-1.514z" class="nginxproxymanager_svg__cls-13"/><path d="m26.676 43.372 2.575 1.485 2.605-1.485v-2.145a19.004 19.004 0 0 1-5.18 1.516zm4.035-3.629-1.46-.857-2.575 1.514v.486c1.403-.229 2.775-.6 4.035-1.143z" class="nginxproxymanager_svg__cls-15"/><path d="m11.106 7.514 1.89 1.086a18.789 18.789 0 0 1 3.292-1.886v-2.2l-.058-.029-5.123 2.943z" class="nginxproxymanager_svg__cls-11"/><path d="m241.06 268.37 50.44 29.1 51-29.1v-58.74L315 194c-26.9 10.64-51.55 25.18-74 42z" style="fill:#d98a26;fill-rule:evenodd" transform="translate(1.398 -1.707) scale(.05108)"/><path d="m596.31 882.6 1.68 1.11 99.74-57.61v-1.69l-37-21.25a388.1 388.1 0 0 1-64.44 37.48z" style="fill:#8f4f9f;fill-rule:evenodd" transform="translate(1.398 -1.707) scale(.05108)"/><path d="m18.891 12-2.604 1.486v2.771l5.009-2.886z" class="nginxproxymanager_svg__cls-5"/><path d="m510.45 703.16 50.99-29.66v-53.7l-97.48 55.94z" style="fill:#d24b9b;fill-rule:evenodd" transform="translate(3.18) scale(.05108)"/><path d="m29.251 38.886 1.46.857a16.152 16.152 0 0 0 3.72-2.2v-1.628L31.856 34.4l-2.605 1.515z" class="nginxproxymanager_svg__cls-24"/><path d="m16.287 4.514 2.604-1.487v-.085L16.23 4.485z" class="nginxproxymanager_svg__cls-11"/><path d="m17.487 8.201 1.403.8 2.088-1.171v-.659l.115-.028a16.916 16.916 0 0 0-3.606 1.058zm3.491-3.971-2.087-1.202-2.604 1.486v2.2a19.795 19.795 0 0 1 4.692-1.4z" class="nginxproxymanager_svg__cls-1"/><path d="m35.147 39.315 1.89 1.085 2.605-1.514v-2.371l-3.121-1.8-2.09 1.2v1.628c.345-.229.63-.486.946-.743l1.659.943a19.582 19.582 0 0 1-1.89 1.572z" class="nginxproxymanager_svg__cls-25"/><path d="M39.64 38.886 37.037 40.4v.086l2.69-1.543z" class="nginxproxymanager_svg__cls-26"/><path d="m24.014 11.829.058.028V9.599l-3.091-1.771L18.89 9v3l2.405 1.37z" class="nginxproxymanager_svg__cls-5"/><path d="M36.52 34.714v-3.6l-1.945-1.113v.084l-2.72 1.572V34.4l2.577 1.515z" class="nginxproxymanager_svg__cls-15"/><path d="M24.072 2.428V.057L24.014 0l-5.123 2.942v.085l2.09 1.2z" class="nginxproxymanager_svg__cls-1"/><path d="m24.072 9.6 3.12-1.772L29.251 9v3l-2.462 1.428-2.718-1.571z" class="nginxproxymanager_svg__cls-4"/><path d="m44.82 35.915-2.089-1.2-3.09 1.8v2.371l.085.057L44.821 36z" class="nginxproxymanager_svg__cls-26"/><path d="M662.87 498.42v-58.74l-48.18-27.97v114.13z" style="fill:#a01664;fill-rule:evenodd" transform="translate(3.18) scale(.05108)"/><path d="m561.44 264.04-50.99-29.1-48.18 27.97 99.17 57.05z" style="fill:#c02026;fill-rule:evenodd" transform="translate(3.18) scale(.05108)"/><path d="M39.64 29.343v-2.4l-2.604-1.486-2.46 1.4v3.144l1.945 1.113z" class="nginxproxymanager_svg__cls-15"/><path d="m27.192 4.228 2.06-1.2 2.605 1.486v2.257a17.254 17.254 0 0 0-2.405-.886V7.8a9.551 9.551 0 0 1 1.175.428L29.253 9l-2.061-1.172z" class="nginxproxymanager_svg__cls-4"/><path d="M755.46 623a17.58 17.58 0 0 0 2.24-5.61 17.58 17.58 0 0 1-2.24 5.61zm3.35-7.85a319.17 319.17 0 0 0 16.26-69.91l-26.35 15.65v47l10.66 6.16zm50.43 27.42 40.91-23.5v-58.14L812 539.12a375.54 375.54 0 0 1-21.85 94l.58-1.13z" style="fill:#9051a0;fill-rule:evenodd" transform="translate(1.398 -1.707) scale(.05108)"/><path d="m611.88 234.94-50.44 29.1v55.92l52.68 30.79 48.75-27.98v-58.73z" style="fill:#b01b4a;fill-rule:evenodd" transform="translate(3.18) scale(.05108)"/><path d="M510.45 59.27 409.05 1.11v46.42l61.07 35.24z" style="fill:#c54627;fill-rule:evenodd" transform="translate(3.18) scale(.05108)"/><path d="M713.86 410.6v-58.74l-50.99-29.09-48.75 27.98h.57v60.96l48.18 27.97z" style="fill:#a41768;fill-rule:evenodd" transform="translate(3.18) scale(.05108)"/><path d="m29.251 12 2.605 1.486L34.432 12v-1.543a15.82 15.82 0 0 0-3.806-2.229L29.252 9z" class="nginxproxymanager_svg__cls-9"/><path d="m37.036 25.457 2.605 1.486 1.345-.8a17.417 17.417 0 0 0 .143-2.145 19.774 19.774 0 0 0-.143-2.257l-1.346-.77-2.605 1.485z" class="nginxproxymanager_svg__cls-15"/><path d="m42.872 25.829 1.947 1.114V20.97l-1.975 1.114A14.038 14.038 0 0 1 42.96 24c0 .628-.03 1.228-.087 1.828z" class="nginxproxymanager_svg__cls-25"/><path d="m34.431 12 2.605 1.486.315-.172a14.226 14.226 0 0 0-1.23-1.4 20.309 20.309 0 0 0-1.69-1.457zm4.522.372L39.64 12V9l-2.605-1.486-1.945 1.142a18.8 18.8 0 0 1 2.317 1.972 22.622 22.622 0 0 1 1.545 1.744z" class="nginxproxymanager_svg__cls-8"/><path d="M44.82 26.943v3z" class="nginxproxymanager_svg__cls-26"/><path d="m37.036 16.486 2.605 1.486.314-.173a16.272 16.272 0 0 0-2.605-4.485l-.314.172zm4.521.372.66-.372v-3L39.64 12l-.687.372a19.45 19.45 0 0 1 2.605 4.486z" class="nginxproxymanager_svg__cls-13"/><path d="m35.09 8.656 1.946-1.142-5.18-3v2.257a18.399 18.399 0 0 1 3.234 1.885z" class="nginxproxymanager_svg__cls-9"/><path d="m39.64 20.97 1.346.771a17.746 17.746 0 0 0-1.031-3.943l-.315.172zm3.206 1.114 1.975-1.114v-2.998l-2.605-1.486-.659.372c.659 1.657 1.116 3.4 1.288 5.228z" class="nginxproxymanager_svg__cls-24"/><path d="m764.29 264.04 50.99-29.1-101.42-58.74v58.74z" style="fill:#d1499a;fill-rule:evenodd" transform="translate(3.18) scale(.05108)"/><path d="M42.216 13.486v3l2.605 1.486V12z" class="nginxproxymanager_svg__cls-15"/><path d="m815.28 585.68-40.91 23.5v70.48l40.91 23.5V586.24z" style="fill:#85459a;fill-rule:evenodd" transform="translate(3.18) scale(.05108)"/><path d="M18.891 26.943v.286l-.257-.144V26.8z" class="nginxproxymanager_svg__cls-4"/><path d="m21.496 25.457-2.605 1.486-.257-.143v-5.686l.257-.142 2.605 1.485z" class="nginxproxymanager_svg__cls-4"/><path d="m24.072 29.914-.258.171.2.115.258-.171z" class="nginxproxymanager_svg__cls-8"/><path d="m21.496 25.457-2.605 1.486v.286l4.923 2.856.258-.17v-2.972z" class="nginxproxymanager_svg__cls-9"/><path d="m510.45 527.5-50.41-29.08-50.99 29.08v58.18l3.92 2.24 97.48-56.5z" style="fill:#ee3f8a;fill-rule:evenodd" transform="translate(3.18) scale(.05108)"/><path d="m26.677 22.457-2.605-1.485-2.576 1.485v3l2.576 1.486 2.605-1.486z" class="nginxproxymanager_svg__cls-9"/><path d="m29.367 21.029-.116-.057-2.574 1.485v3l2.574 1.486.116-.057z" class="nginxproxymanager_svg__cls-8"/><path d="M29.251 26.943v.2l.116-.058v-.2z" class="nginxproxymanager_svg__cls-13"/><path d="M18.891 20.972v-.2l-.257.142v.2z" class="nginxproxymanager_svg__cls-5"/><path d="M24.072 17.972v3l-2.576 1.485-2.605-1.485v-.2l5.009-2.887z" class="nginxproxymanager_svg__cls-4"/><path d="m409.05 351.86-3.37-1.69 2.24-1.11 3.37 1.69z" style="fill:#f4805f;fill-rule:evenodd" transform="translate(3.18) scale(.05108)"/><path d="m29.251 20.857-5.064-2.942-.115.057v3l2.605 1.485 2.574-1.485z" class="nginxproxymanager_svg__cls-9"/><path d="M29.367 21.029v-.115l-.116-.057v.115z" class="nginxproxymanager_svg__cls-8"/><path d="m25.845 5-1.773-1.028L22.297 5v2.057l1.775 1.029 1.773-1.03z" class="nginxproxymanager_svg__cls-5"/><path d="m748.6 624.27-34.74-20.12-35.31 20.12v40.28l35.31 20.15 34.74-20.15z" style="fill:#552263;fill-rule:evenodd" transform="translate(3.18) scale(.05108)"/><path d="M10.306 31.885 8.53 30.858l-1.774 1.027v2.058l1.774 1.029 1.775-1.03z" class="nginxproxymanager_svg__cls-5"/></svg>