<svg xmlns="http://www.w3.org/2000/svg" id="Art" width="48" height="48" version="1.1"><defs id="defs4"><style id="style2">.cls-1{fill:#999}</style></defs><g id="g328" style="stroke-width:1.24504" transform="translate(2.887) scale(.80318)"><path id="path24" d="M.408 44.823a3.019 3.019 0 0 0 1.134 1.125l23.202 13.396v-.001a3.044 3.044 0 0 0 3.084 0l23.203-13.396a3.043 3.043 0 0 0 1.541-2.67v-26.79a3.044 3.044 0 0 0-1.543-2.67L27.827.42a3.04 3.04 0 0 0-3.082 0L1.544 13.816A3.042 3.042 0 0 0 0 16.486v26.792a3.025 3.025 0 0 0 .406 1.545" style="stroke-width:1.24504;fill:#009639"/><path id="path26" d="M18.857 40.08a2.984 2.984 0 0 1-5.967 0v.001l.003-20.483a3.11 3.11 0 0 1 3.388-2.899 5.306 5.306 0 0 1 4.068 1.819l.901 1.079 12.466 14.918V19.682h-.001a2.984 2.984 0 1 1 5.967 0l-.003 20.481a3.111 3.111 0 0 1-3.388 2.9 5.303 5.303 0 0 1-4.068-1.82L18.856 25.248V40.08z" style="stroke-width:1.24504;fill:#fff"/></g></svg>