<svg xmlns="http://www.w3.org/2000/svg" viewBox="0 0 48 48"><defs><style>.nginx_svg__cls-1{fill:#999}</style></defs><g stroke-width="1.245"><path fill="#009639" d="M3.215 36a2.425 2.425 0 0 0 .91.905l18.636 10.759a2.445 2.445 0 0 0 2.477 0l18.636-10.76a2.444 2.444 0 0 0 1.238-2.145V13.242a2.445 2.445 0 0 0-1.24-2.144L25.237.338a2.442 2.442 0 0 0-2.475 0L4.127 11.096a2.443 2.443 0 0 0-1.24 2.144v21.52A2.43 2.43 0 0 0 3.213 36"/><path fill="#fff" d="M18.033 32.191a2.397 2.397 0 0 1-4.793 0v.001l.002-16.451a2.498 2.498 0 0 1 2.722-2.329 4.262 4.262 0 0 1 3.267 1.461l.724.867 10.012 11.982V15.808a2.397 2.397 0 1 1 4.792 0l-.003 16.45a2.499 2.499 0 0 1-2.72 2.33 4.26 4.26 0 0 1-3.268-1.462L18.032 20.279V32.19z"/></g></svg>