<svg xmlns="http://www.w3.org/2000/svg" viewBox="0 0 48 48"><path fill="#ff6c60" d="M4.668.285 4.385.58v46.838l.284.296.296.285h9.578l.296-.285.285-.296V33.852c0-11.244.022-13.578.143-13.578.087 0 4.504 6.148 9.83 13.666 5.315 7.529 9.775 13.764 9.907 13.863.208.175.603.197 4.131.197h3.902l.296-.285.285-.296V.581l-.285-.296L43.036 0h-9.578l-.296.285-.285.296v13.567c0 11.244-.022 13.578-.143 13.578-.087 0-4.504-6.148-9.83-13.677C17.59 6.531 13.13.296 12.997.197 12.79.022 12.395 0 8.866 0H4.964zm17.415 16.12c5.61 7.924 10.345 14.587 10.532 14.785.317.34.394.373.997.373.57 0 .701-.044.953-.285l.285-.296V1.974h6.795v44.055l-2.762-.011H36.11L25.918 31.596c-5.6-7.924-10.345-14.586-10.532-14.784-.317-.34-.394-.373-.997-.373-.57 0-.701.044-.953.285l-.285.296v29.008H6.356V1.973l2.773.01h2.762z"/></svg>
