<svg xmlns="http://www.w3.org/2000/svg" viewBox="0 0 48 48"><g fill-rule="evenodd" color="#000"><path fill="#5277c3" d="m309.4-710.25 122.2 211.68-56.157.527-32.623-56.87-32.857 56.566-27.902-.011-14.29-24.69 46.81-80.49-33.23-57.826z" style="isolation:auto;mix-blend-mode:normal" transform="matrix(.09567 0 0 .09567 -14.958 92.466)"/><path fill="#7ebae4" d="M353.51-797.44 231.29-585.78l-28.535-48.37 32.938-56.688-65.415-.172-13.941-24.17 14.236-24.72 93.112.293 33.464-57.69zm9.375 169.2 244.42.012-27.623 48.897-65.562-.182 32.56 56.737-13.962 24.159-28.527.032-46.301-80.784-66.693-.136zm142.26-92.746-122.2-211.68 56.157-.527 32.624 56.87 32.856-56.566 27.903.011 14.29 24.69-46.81 80.49 33.23 57.826z" style="isolation:auto;mix-blend-mode:normal" transform="matrix(.09567 0 0 .09567 -14.958 92.466)"/><path fill="#5277c3" d="m309.4-710.25 122.2 211.68-56.157.527-32.623-56.87-32.857 56.566-27.902-.011-14.29-24.69 46.81-80.49-33.23-57.826zm141.93-93.281-244.41-.012 27.622-48.896 65.562.181-32.558-56.737 13.96-24.158 28.528-.032 46.301 80.784 66.693.135zm9.536 169.69 122.22-211.66 28.535 48.37-32.938 56.688 65.415.172 13.941 24.17-14.236 24.72-93.112-.293-33.464 57.69z" style="isolation:auto;mix-blend-mode:normal" transform="matrix(.09567 0 0 .09567 -14.958 92.466)"/></g></svg>