<svg xmlns="http://www.w3.org/2000/svg" viewBox="0 0 48 48"><g transform="translate(-57.241 -93.947)scale(.42781)"><path fill="#00665e" d="M243.9 245.3c-3.3-7.2-8.2-13.6-14.2-18.7 2.4 6.1 3.6 12.6 3.7 19.3q5.1-.9 10.5-.6M170.1 310.9c-12.2 0-23.9-4-33.4-11.4 8.5 19.5 27.9 32.3 49.5 32.3 3.2 0 6.3-.3 9.5-.8-5.2-6.5-8.5-14.2-9.6-22.5-5.2 1.6-10.6 2.4-16 2.4" class="nlnetlabs_svg__st0"/><path fill="#92bd11" d="M228.4 254c-.7 22.5-15.3 42.4-36.6 49.8 1.1 8.3 4.5 16.2 9.9 22.7 24.5-5.5 42.2-27.5 42.2-52.7 0-7-1.3-13.8-3.9-20.3-3.9-.4-7.8-.2-11.6.5" class="nlnetlabs_svg__st1"/><path fill="#00665e" d="M189.6 293c-9-3.4-15.4-12.2-15.4-22.4 0-13.2 10.7-24 23.9-24 7.4 0 14.1 3.4 18.5 8.7 3-1.4 6.3-2.5 9.7-3.2 0-7.8-1.7-15.4-5-22.4a53.66 53.66 0 0 0-31.4-10.1c-29.8 0-54 24.2-54 54 0 6 1 11.9 2.9 17.6 9.6 8.6 22.1 13.4 35 13.4 5.3 0 10.6-.8 15.7-2.4-.1-1.5-.2-2.9-.2-4.4s.1-3.2.3-4.8" class="nlnetlabs_svg__st0"/><g fill="#92bd11"><path d="M226.2 254.4c-2.9.6-5.7 1.6-8.3 2.8 2.6 3.8 4.1 8.5 4.1 13.5 0 .8 0 1.6-.1 2.4 2.6-5.9 4.1-12.2 4.3-18.7M198.1 294.6c-2.3 0-4.4-.3-6.5-.9-.1 1.4-.2 2.8-.2 4.3 0 1.2.1 2.4.2 3.7 5.7-2.1 10.9-5 15.4-8.7-2.7.9-5.7 1.6-8.9 1.6" class="nlnetlabs_svg__st1"/></g><circle cx="198.1" cy="270.6" r="15.8" fill="#92bd11" class="nlnetlabs_svg__st1"/></g></svg>
