<svg xmlns="http://www.w3.org/2000/svg" viewBox="0 0 48 48"><path fill="#98bf00" d="M36.359 12.817c.384-3.123-.4-5.932-2.34-8.415C32.079 1.921 29.54.481 26.417.095c-3.123-.385-5.933.4-8.415 2.34-2.296 1.782-3.694 4.079-4.193 6.889-.042.242-.086.47-.114.712-.029.243-.043.472-.057.699-.1 1.312.028 2.567.37 3.765.386 1.398 1.056 2.71 2.026 3.951.97 1.24 2.082 2.212 3.352 2.939 1.069.613 2.253 1.026 3.551 1.255.229.042.456.071.7.113l.384.044c.314-1.27.8-2.454 1.469-3.524-.443.015-.898 0-1.354-.042-.03-.015-.044-.015-.058-.015a8.346 8.346 0 0 1-1.512-.327c-1.47-.47-2.71-1.341-3.722-2.639-1.013-1.297-1.555-2.71-1.655-4.25-.028-.5-.014-1 .058-1.527v-.056c.27-2.126 1.255-3.852 2.952-5.178 1.712-1.327 3.637-1.868 5.79-1.598 2.154.258 3.894 1.241 5.22 2.953 1.327 1.712 1.87 3.637 1.613 5.791-.071.485-.157.941-.286 1.384a11.788 11.788 0 0 1 3.766-.571c.013-.128.042-.256.057-.386z"/><path fill="#98bf00" d="M37.857 14.7c-.242-.028-.47-.057-.714-.071a11.388 11.388 0 0 0-3.764.37c-1.398.386-2.71 1.071-3.952 2.041-1.24.955-2.21 2.068-2.923 3.337-.614 1.07-1.027 2.253-1.27 3.552 1.241.213 2.383.57 3.438 1.098.07-.514.171-.999.314-1.455.47-1.47 1.34-2.71 2.638-3.723 1.298-1.012 2.71-1.569 4.265-1.669a7.936 7.936 0 0 1 1.526.057h.043c2.124.272 3.851 1.27 5.178 2.967 1.34 1.697 1.881 3.623 1.61 5.777-.27 2.153-1.255 3.894-2.951 5.233-1.698 1.327-3.623 1.855-5.75 1.598.244 1.156.315 2.368.23 3.623 2.838.186 5.405-.628 7.701-2.41 2.483-1.94 3.923-4.48 4.307-7.603.386-3.123-.399-5.932-2.338-8.415-1.797-2.296-4.094-3.694-6.89-4.192-.241-.044-.47-.086-.698-.115z"/><path d="M36.887 22.473c-.985-.114-1.854.13-2.639.743-.785.613-1.226 1.397-1.341 2.367-.128.984.115 1.854.728 2.639.613.784 1.398 1.226 2.382 1.34.97.129 1.84-.114 2.624-.727.785-.613 1.226-1.398 1.354-2.382.115-.97-.128-1.84-.74-2.624a3.466 3.466 0 0 0-2.368-1.356z"/><path fill="#98bf00" d="M3.754 21.018c.271-2.153 1.256-3.907 2.967-5.233 1.698-1.327 3.608-1.869 5.734-1.598a12.65 12.65 0 0 1-.228-3.623c-2.838-.186-5.406.614-7.702 2.41-2.497 1.94-3.923 4.48-4.307 7.603-.386 3.123.384 5.919 2.338 8.415 1.783 2.296 4.08 3.694 6.89 4.192.228.044.455.072.698.115.242.028.47.057.714.072a11.35 11.35 0 0 0 3.764-.372c1.384-.399 2.71-1.083 3.952-2.04 1.226-.97 2.196-2.082 2.924-3.337.613-1.07 1.027-2.253 1.268-3.55a12.751 12.751 0 0 1-3.436-1.1c-.072.5-.172.985-.315 1.455-.47 1.47-1.34 2.71-2.638 3.723-1.298 1.012-2.71 1.569-4.25 1.67a8.11 8.11 0 0 1-1.541-.058c-.013 0-.028 0-.042-.014-2.125-.271-3.852-1.255-5.178-2.953-1.34-1.711-1.882-3.636-1.61-5.777z"/><path d="M9.36 19.165c-.785.598-1.227 1.397-1.355 2.382-.115.955.128 1.826.741 2.61a3.422 3.422 0 0 0 2.368 1.37c.984.098 1.854-.143 2.639-.743a3.531 3.531 0 0 0 1.34-2.368c.129-.984-.114-1.868-.727-2.638-.613-.784-1.398-1.227-2.382-1.34-.985-.13-1.854.113-2.625.727zM27.858 9.238a3.422 3.422 0 0 0-2.382-1.341c-.984-.128-1.854.114-2.624.728a3.38 3.38 0 0 0-1.354 2.38c-.13.97.128 1.841.74 2.626a3.452 3.452 0 0 0 2.369 1.354c.97.1 1.839-.142 2.624-.74a3.497 3.497 0 0 0 1.355-2.369c.114-.984-.13-1.868-.728-2.638z"/><path fill="#98bf00" d="m24.364 25.24-.385-.043c-.314 1.27-.8 2.454-1.47 3.524a7.37 7.37 0 0 1 1.37.042c.014 0 .029 0 .043.015a7.524 7.524 0 0 1 1.512.313c1.469.472 2.71 1.356 3.722 2.653 1.013 1.285 1.555 2.696 1.655 4.25.028.5.014 1-.058 1.527v.057c-.27 2.126-1.255 3.851-2.952 5.178-1.712 1.326-3.637 1.868-5.79 1.597-2.154-.27-3.894-1.255-5.22-2.953-1.342-1.71-1.884-3.636-1.613-5.79.058-.485.157-.942.3-1.384-1.212.385-2.467.57-3.78.57-.013.129-.042.258-.057.386-.384 3.124.386 5.92 2.34 8.415 1.94 2.482 4.478 3.922 7.602 4.308 3.123.384 5.919-.4 8.415-2.34 2.296-1.797 3.694-4.093 4.193-6.903.043-.228.071-.457.114-.699.014-.243.043-.47.057-.698a11.285 11.285 0 0 0-.37-3.766c-.386-1.398-1.07-2.71-2.026-3.95-.97-1.241-2.082-2.226-3.337-2.939-1.084-.613-2.268-1.027-3.566-1.255-.228-.043-.456-.086-.7-.114z"/><path d="M25.776 34.368c-.613-.783-1.398-1.226-2.382-1.354-.985-.114-1.854.128-2.624.741a3.465 3.465 0 0 0-1.356 2.368c-.128.984.13 1.855.743 2.638.598.785 1.383 1.228 2.367 1.341.985.129 1.854-.113 2.639-.728.77-.613 1.212-1.396 1.34-2.38.115-.97-.128-1.841-.727-2.626z"/></svg>