<svg xmlns="http://www.w3.org/2000/svg" viewBox="0 0 48 48"><defs><linearGradient id="nodejs_svg__b" x1="-.348" x2="1.251" gradientTransform="rotate(116.114 53.098 202.97) scale(86.48)" gradientUnits="userSpaceOnUse"><stop offset=".3" stop-color="#3E863D"/><stop offset=".5" stop-color="#55934F"/><stop offset=".8" stop-color="#5AAD45"/></linearGradient><linearGradient id="nodejs_svg__d" x1="-.456" x2=".582" gradientTransform="matrix(106.81 -78.917 78.917 106.81 235.19 285.39)" gradientUnits="userSpaceOnUse"><stop offset=".57" stop-color="#3E863D"/><stop offset=".72" stop-color="#619857"/><stop offset="1" stop-color="#76AC64"/></linearGradient><linearGradient id="nodejs_svg__f" x1=".043" x2=".984" gradientTransform="translate(192.86 279.65) scale(97.417)" gradientUnits="userSpaceOnUse"><stop offset=".16" stop-color="#6BBF47"/><stop offset=".38" stop-color="#79B461"/><stop offset=".47" stop-color="#75AC64"/><stop offset=".7" stop-color="#659E5A"/><stop offset=".9" stop-color="#3E863D"/></linearGradient><clipPath id="nodejs_svg__a"><path d="m239.03 226.6-42.13 24.317a5.085 5.085 0 0 0-2.546 4.406v48.668c0 1.817.968 3.496 2.546 4.406l42.133 24.336a5.1 5.1 0 0 0 5.09 0l42.126-24.336a5.096 5.096 0 0 0 2.54-4.406v-48.668c0-1.816-.97-3.496-2.55-4.406l-42.12-24.317a5.123 5.123 0 0 0-5.1 0"/></clipPath><clipPath id="nodejs_svg__c"><path d="M195.4 307.09c.403.523.907.976 1.5 1.316l36.14 20.875 6.02 3.46c.9.52 1.926.74 2.934.665.336-.027.672-.09 1-.183l44.434-81.36c-.34-.37-.738-.68-1.184-.94l-27.586-15.93-14.582-8.39a5.318 5.318 0 0 0-1.32-.53z"/></clipPath><clipPath id="nodejs_svg__e"><path d="M241.07 225.95a5.14 5.14 0 0 0-2.035.652l-42.01 24.247 45.3 82.51c.63-.09 1.25-.3 1.81-.624l42.13-24.336a5.105 5.105 0 0 0 2.46-3.476l-46.18-78.89a5.29 5.29 0 0 0-1.03-.102c-.14 0-.28.007-.42.02"/></clipPath></defs><g clip-path="url(#nodejs_svg__a)" transform="translate(-83.872 -100.886) scale(.44654)"><path fill="url(#nodejs_svg__b)" d="M331.36 246.79 212.64 188.6l-60.87 124.17 118.71 58.193z"/></g><g clip-path="url(#nodejs_svg__c)" transform="translate(-83.872 -100.886) scale(.44654)"><path fill="url(#nodejs_svg__d)" d="m144.07 264 83.825 113.45 110.86-81.906-83.83-113.45z"/></g><g clip-path="url(#nodejs_svg__e)" transform="translate(-83.872 -100.886) scale(.44654)"><path fill="url(#nodejs_svg__f)" d="M197.02 225.93v107.43h91.683V225.93z"/></g></svg>