<svg xmlns="http://www.w3.org/2000/svg" viewBox="0 0 48 48"><defs><linearGradient id="ntfy_svg__a" x1="160.72" x2="168.41" y1="128.53" y2="134.33" gradientTransform="translate(-845.73 -630.6) scale(5.5945)" gradientUnits="userSpaceOnUse"><stop offset="0" stop-color="#348878"/><stop offset="1" stop-color="#56bda8"/></linearGradient></defs><g color="#000"><path fill="url(#ntfy_svg__a)" d="M94.237 89.912H59.499c-2.388 0-4.342 1.844-4.342 4.098l.033 27.754-.648 3.738 9.297-2.806h30.396c2.388 0 4.342-1.845 4.342-4.099V94.01c0-2.254-1.954-4.098-4.342-4.098z" style="-inkscape-stroke:none" transform="translate(-49.39 -80.57) scale(.96364)"/><path fill="#fff" d="M58.849 86.79c-3.62 0-6.72 2.848-6.72 6.47v.002l.035 30.273-.91 6.708 12.362-3.284h30.729c3.62 0 6.72-2.852 6.72-6.473V93.26c0-3.62-3.099-6.469-6.717-6.469h-.003zm0 4.566h35.499c1.272 0 2.151.927 2.151 1.903v27.227c0 .977-.88 1.924-2.154 1.903h-31.4l-6.28 1.898.065-.37-.035-30.658c0-.977.88-1.903 2.154-1.903z" style="-inkscape-stroke:none" transform="translate(-49.39 -80.57) scale(.96364)"/><g fill="#fff" stroke-width=".525"><path d="M62.57 116.77v-1.312l3.28-1.459q.159-.068.306-.102.158-.045.283-.068l.271-.022v-.09q-.136-.012-.271-.046-.125-.023-.283-.057-.147-.045-.306-.113l-3.28-1.459v-1.323l5.068 2.319v1.413z" style="-inkscape-stroke:none" transform="matrix(2.09004 0 0 2.48465 -119.864 -260.987)"/><path d="M62.309 110.31v1.903l3.437 1.53.022.007-.022.008-3.437 1.53v1.892l.37-.17 5.221-2.39v-1.75zm.525.817 4.541 2.08v1.076l-4.541 2.078v-.732l3.12-1.389.003-.002a1.56 1.56 0 0 1 .258-.086h.006l.008-.002c.094-.027.176-.047.246-.06l.498-.041v-.574l-.24-.02a1.411 1.411 0 0 1-.231-.04l-.008-.001-.008-.002a9.077 9.077 0 0 1-.263-.053 2.781 2.781 0 0 1-.266-.097l-.004-.002-3.119-1.39z" style="-inkscape-stroke:none" transform="matrix(2.09004 0 0 2.48465 -119.864 -260.987)"/><path d="M69.171 117.75h5.43v1.278h-5.43z" style="-inkscape-stroke:none" transform="matrix(2.08387 0 0 2.39262 -118.4 -253.731)"/><path d="M68.908 117.49v1.802h5.955v-1.802zm.526.524h4.904v.754h-4.904z" style="-inkscape-stroke:none" transform="matrix(2.08387 0 0 2.39262 -118.4 -253.731)"/></g></g></svg>