<svg xmlns="http://www.w3.org/2000/svg" width="48" height="48" viewBox="0 0 62.107 29.079"><path fill="#76b900" d="M23.156 6.253V2.55c.365-.023.731-.045 1.097-.045 10.15-.32 16.801 8.732 16.801 8.732s-7.178 9.966-14.88 9.966a9.441 9.441 0 0 1-2.995-.48V9.476c3.954.48 4.754 2.218 7.109 6.172l5.28-4.434s-3.863-5.052-10.355-5.052a15.493 15.493 0 0 0-2.057.091m0-12.252v5.532l1.097-.069c14.104-.48 23.316 11.567 23.316 11.567s-10.56 12.846-21.556 12.846c-.96 0-1.897-.091-2.834-.251v3.429c.777.091 1.577.16 2.354.16 10.24 0 17.647-5.235 24.824-11.407 1.19.96 6.058 3.27 7.064 4.275-6.812 5.714-22.699 10.31-31.705 10.31a22.66 22.66 0 0 1-2.515-.138v4.823h38.906V-5.999Zm0 26.722v2.926c-9.464-1.692-12.092-11.544-12.092-11.544s4.548-5.029 12.092-5.852v3.2h-.023c-3.955-.48-7.063 3.224-7.063 3.224s1.76 6.24 7.086 8.046m-16.801-9.03s5.6-8.274 16.824-9.143V-.467C10.744.539 0 11.053 0 11.053s6.08 17.602 23.156 19.202v-3.2C10.629 25.5 6.355 11.694 6.355 11.694Z" style="stroke-width:.228586"/></svg>