<svg xmlns="http://www.w3.org/2000/svg" width="48" height="48" viewBox="0 0 62.107 29.079"><path d="M37.944 10.875v7.743h2.185v-7.743ZM20.75 10.86v7.75h2.205v-6.017l1.72.006c.564 0 .958.138 1.227.427.348.367.486.965.486 2.047v3.538h2.139v-4.28c0-3.057-1.95-3.47-3.852-3.47zm20.718.014v7.743h3.544c1.89 0 2.507-.315 3.17-1.017.472-.492.774-1.582.774-2.77 0-1.089-.256-2.06-.71-2.664-.8-1.082-1.968-1.292-3.713-1.292Zm2.166 1.68h.938c1.365 0 2.244.61 2.244 2.198s-.879 2.205-2.244 2.205h-.938zm-8.84-1.68L32.97 17.01l-1.746-6.135h-2.362l2.493 7.743h3.15l2.52-7.743Zm15.185 7.743h2.186v-7.743h-2.186Zm6.13-7.743-3.052 7.737h2.153l.485-1.372h3.61l.459 1.365h2.343l-3.078-7.73Zm1.417 1.41 1.326 3.623h-2.69z"/><path fill="#76b900" d="M6.648 12.16v-1.062c.105-.007.21-.013.315-.013 2.913-.092 4.823 2.506 4.823 2.506s-2.06 2.862-4.272 2.862a2.71 2.71 0 0 1-.86-.138v-3.229c1.136.138 1.365.637 2.041 1.772l1.516-1.273s-1.109-1.45-2.973-1.45a4.448 4.448 0 0 0-.59.026m0-3.518v1.588l.315-.02c4.049-.137 6.693 3.321 6.693 3.321s-3.031 3.688-6.188 3.688a4.81 4.81 0 0 1-.814-.072v.985c.223.026.453.045.676.045 2.94 0 5.066-1.502 7.127-3.274.341.275 1.74.938 2.028 1.227-1.956 1.64-6.517 2.96-9.102 2.96-.25 0-.486-.013-.722-.04v1.385h11.17V8.643Zm0 7.672v.84c-2.717-.486-3.472-3.314-3.472-3.314s1.306-1.444 3.472-1.68v.918H6.64c-1.135-.137-2.028.926-2.028.926s.506 1.791 2.035 2.31m-4.824-2.592s1.608-2.376 4.83-2.625v-.867C3.084 10.521 0 13.54 0 13.54s1.746 5.053 6.648 5.512v-.918c-3.596-.447-4.824-4.41-4.824-4.41z"/></svg>