<svg xmlns="http://www.w3.org/2000/svg" viewBox="0 0 48 48"><path d="M29.325 21.168v5.984h1.69v-5.984zm-13.288-.012v5.99h1.704v-4.65l1.33.004c.435 0 .74.107.948.33.269.284.375.746.375 1.582v2.735h1.653v-3.308c0-2.363-1.507-2.682-2.977-2.682zm16.012.011v5.984h2.739c1.46 0 1.938-.243 2.45-.786.365-.38.598-1.222.598-2.14 0-.842-.198-1.593-.549-2.06-.618-.836-1.52-.998-2.87-.998zm1.674 1.298h.725c1.055 0 1.734.472 1.734 1.7s-.68 1.703-1.734 1.703h-.725zm-6.832-1.298-1.41 4.742-1.35-4.741h-1.825l1.927 5.984h2.435l1.947-5.984zm11.736 5.984h1.69v-5.984h-1.69zm4.737-5.984-2.358 5.98h1.664l.374-1.06h2.79l.355 1.054H48l-2.379-5.974zm1.096 1.09 1.024 2.8h-2.079z"/><path fill="#76b900" d="M5.138 22.161v-.82a3.29 3.29 0 0 1 .243-.01c2.252-.072 3.728 1.936 3.728 1.936s-1.592 2.212-3.302 2.212a2.094 2.094 0 0 1-.664-.107v-2.495c.878.106 1.055.492 1.577 1.37l1.172-.985s-.857-1.12-2.298-1.12a3.438 3.438 0 0 0-.456.02m0-2.72v1.228l.243-.015c3.13-.106 5.173 2.566 5.173 2.566s-2.342 2.85-4.782 2.85a3.717 3.717 0 0 1-.63-.055v.761c.173.02.35.035.523.035 2.272 0 3.915-1.16 5.508-2.53.264.212 1.345.725 1.568.948-1.512 1.267-5.037 2.288-7.035 2.288a4.86 4.86 0 0 1-.558-.031v1.07h8.633v-9.114zm0 5.93v.65c-2.1-.376-2.683-2.562-2.683-2.562s1.009-1.116 2.683-1.298v.71h-.006c-.877-.107-1.568.715-1.568.715s.391 1.384 1.573 1.785M1.41 23.37s1.243-1.836 3.733-2.029v-.67C2.384 20.894 0 23.228 0 23.228s1.35 3.905 5.138 4.26v-.71c-2.78-.345-3.728-3.408-3.728-3.408z"/></svg>