<svg xmlns="http://www.w3.org/2000/svg" viewBox="0 0 48 48"><linearGradient id="nzbget_svg__a" x1="256" x2="256" y1="566" y2="1078" gradientTransform="translate(0 -566)" gradientUnits="userSpaceOnUse"><stop offset="0" stop-color="#dedede"/><stop offset="1" stop-color="#333"/></linearGradient><linearGradient id="nzbget_svg__b" x1="256" x2="256" y1="588.9" y2="1055.1" gradientTransform="translate(0 -566)" gradientUnits="userSpaceOnUse"><stop offset="0" stop-color="#333"/><stop offset="1" stop-color="#fdfcfc"/></linearGradient><linearGradient id="nzbget_svg__c" x1="256" x2="256" y1="598" y2="1041.4" gradientTransform="translate(0 -566)" gradientUnits="userSpaceOnUse"><stop offset="0" stop-color="#5ff65b"/><stop offset="1" stop-color="#138f10"/></linearGradient><radialGradient id="nzbget_svg__d" cx="-740.93" cy="134.63" r="2.286" gradientTransform="matrix(0 57 -93.963 0 12907 42633)" gradientUnits="userSpaceOnUse"><stop offset="0" stop-color="#dbf8db"/><stop offset=".417" stop-color="#6ce26a"/><stop offset="1" stop-color="#6ce26a" stop-opacity="0"/></radialGradient><linearGradient id="nzbget_svg__e" x1="256" x2="256" y1="598" y2="1041.4" gradientTransform="translate(0 -566)" gradientUnits="userSpaceOnUse"><stop offset="0" stop-color="#2eb12b"/><stop offset="1" stop-color="#87df85"/></linearGradient><linearGradient id="nzbget_svg__f" x1="256" x2="256" y1="803.7" y2="962.2" gradientTransform="translate(0 -566)" gradientUnits="userSpaceOnUse"><stop offset="0" stop-color="#1a5219"/><stop offset="1"/></linearGradient><linearGradient id="nzbget_svg__g" x1="256" x2="256" y1="860.86" y2="962.2" gradientTransform="translate(0 -566)" gradientUnits="userSpaceOnUse"><stop offset="0" stop-color="#fff" stop-opacity="0"/><stop offset="1" stop-color="#fff" stop-opacity=".54"/></linearGradient><g transform="scale(.09375)"><circle cx="256" cy="256" r="256" fill="url(#nzbget_svg__a)"/><circle cx="256" cy="256" r="233.1" fill="url(#nzbget_svg__b)"/><circle cx="256" cy="253.7" r="221.7" fill="url(#nzbget_svg__c)"/><circle cx="256" cy="253.7" r="221.7" fill="url(#nzbget_svg__d)"/><path fill="url(#nzbget_svg__e)" fill-rule="evenodd" d="M256 466.3c117.4 0 212.6-95.2 212.6-212.6S373.4 41.1 256 41.1 43.4 136.3 43.4 253.7 138.6 466.3 256 466.3m0 9.1c122.5 0 221.7-99.3 221.7-221.7S378.5 32 256 32C133.6 32 34.3 131.3 34.3 253.7c0 122.5 99.3 221.7 221.7 221.7" clip-rule="evenodd"/><path fill="#fff" d="M121.1 333.7c3.8 0 6.9 3.1 6.9 6.9s-3.1 6.9-6.9 6.9-6.9-3.1-6.9-6.9 3.1-6.9 6.9-6.9m276.6 36.6c2.5 0 4.6 2.1 4.6 4.6s-2.1 4.6-4.6 4.6-4.6-2.1-4.6-4.6 2.1-4.6 4.6-4.6M368 333.7c3.8 0 6.9 3.1 6.9 6.9s-3.1 6.9-6.9 6.9-6.9-3.1-6.9-6.9 3.1-6.9 6.9-6.9m-217.1 36.6c2.5 0 4.6 2.1 4.6 4.6s-2.1 4.6-4.6 4.6-4.6-2.1-4.6-4.6 2.1-4.6 4.6-4.6m224 13.7c2.5 0 4.6 2.1 4.6 4.6s-2.1 4.6-4.6 4.6-4.6-2.1-4.6-4.6 2.1-4.6 4.6-4.6M116.6 274.2c3.8 0 6.9 3.1 6.9 6.9s-3.1 6.9-6.9 6.9-6.9-3.1-6.9-6.9 3.1-6.9 6.9-6.9m45.7 68.7c6.3 0 11.4 5.1 11.4 11.4s-5.1 11.4-11.4 11.4-11.4-5.1-11.4-11.4 5.1-11.4 11.4-11.4m-41.2 36.6c6.3 0 11.4 5.1 11.4 11.4s-5.1 11.4-11.4 11.4-11.4-5.1-11.4-11.4 5.1-11.4 11.4-11.4m96 41.1c6.3 0 11.4 5.1 11.4 11.4s-5.1 11.4-11.4 11.4-11.4-5.1-11.4-11.4 5.1-11.4 11.4-11.4m54.9 18.2c3.8 0 6.9 3.1 6.9 6.9s-3.1 6.9-6.9 6.9-6.9-3.1-6.9-6.9 3.1-6.9 6.9-6.9m68.6-68.5c6.3 0 11.4 5.1 11.4 11.4s-5.1 11.4-11.4 11.4-11.4-5.1-11.4-11.4 5.1-11.4 11.4-11.4m-169.2 18.2c11.4 0 20.6 9.2 20.6 20.6s-9.2 20.6-20.6 20.6-20.6-9.2-20.6-20.6 9.2-20.6 20.6-20.6M310.9 416c7.6 0 13.7 6.1 13.7 13.7s-6.1 13.7-13.7 13.7-13.7-6.1-13.7-13.7 6.1-13.7 13.7-13.7M93.7 301.7c1.3 0 2.3 1 2.3 2.3s-1 2.3-2.3 2.3-2.3-1-2.3-2.3 1-2.3 2.3-2.3m269.7 64c1.3 0 2.3 1 2.3 2.3s-1 2.3-2.3 2.3-2.3-1-2.3-2.3 1-2.3 2.3-2.3m32-82.3c1.3 0 2.3 1 2.3 2.3s-1 2.3-2.3 2.3-2.3-1-2.3-2.3 1-2.3 2.3-2.3m-269.7 82.3c1.3 0 2.3 1 2.3 2.3s-1 2.3-2.3 2.3-2.3-1-2.3-2.3 1-2.3 2.3-2.3m278.9-50.3c1.3 0 2.3 1 2.3 2.3s-1 2.3-2.3 2.3-2.3-1-2.3-2.3 1-2.3 2.3-2.3M349.7 352c1.3 0 2.3 1 2.3 2.3s-1 2.3-2.3 2.3-2.3-1-2.3-2.3 1-2.3 2.3-2.3m-217.1-41.2c2.5 0 4.6 2.1 4.6 4.6s-2.1 4.6-4.6 4.6-4.6-2.1-4.6-4.6 2.1-4.6 4.6-4.6m173.7 77.7c2.5 0 4.6 2.1 4.6 4.6s-2.1 4.6-4.6 4.6-4.6-2.1-4.6-4.6 2.1-4.6 4.6-4.6M96 356.5c2.5 0 4.6 2.1 4.6 4.6s-2.1 4.6-4.6 4.6-4.6-2.1-4.6-4.6 2.1-4.6 4.6-4.6m-4.6-27.3c5 0 9.1 4.1 9.1 9.1s-4.1 9.1-9.1 9.1-9.1-4.1-9.1-9.1 4.1-9.1 9.1-9.1m308.6 4.5c3.8 0 6.9 3.1 6.9 6.9s-3.1 6.9-6.9 6.9-6.9-3.1-6.9-6.9 3.1-6.9 6.9-6.9m-16-27.4c5 0 9.1 4.1 9.1 9.1s-4.1 9.1-9.1 9.1-9.1-4.1-9.1-9.1 4.1-9.1 9.1-9.1m41.1-13.8c2.5 0 4.6 2.1 4.6 4.6s-2.1 4.6-4.6 4.6-4.6-2.1-4.6-4.6 2.1-4.6 4.6-4.6m6.9 41.2c1.3 0 2.3 1 2.3 2.3s-1 2.3-2.3 2.3-2.3-1-2.3-2.3 1-2.3 2.3-2.3m-73.1 73.1c3.8 0 6.9 3.1 6.9 6.9s-3.1 6.9-6.9 6.9-6.9-3.1-6.9-6.9 3.1-6.9 6.9-6.9" opacity=".4"/><circle cx="146.3" cy="246.9" r="4.6" fill="#fff" opacity=".1"/><path fill="#339731" d="M210.3 155.4c0-2.5 2-4.6 4.6-4.6h82.3c2.5 0 4.6 2 4.6 4.6v13.7c0 2.5-2 4.6-4.6 4.6h-82.3c-2.5 0-4.6-2-4.6-4.6z"/><path fill="#47ca44" d="M210.3 128c0-2.5 2-4.6 4.6-4.6h82.3c2.5 0 4.6 2 4.6 4.6v4.6c0 2.5-2 4.6-4.6 4.6h-82.3c-2.5 0-4.6-2-4.6-4.6z"/><path fill="#1a5219" d="M214.9 187.4h82.3c2.5 0 4.6 2 4.6 4.6v22.9c0 2.5-2 4.6-4.6 4.6h-82.3c-2.5 0-4.6-2-4.6-4.6V192c0-2.5 2-4.6 4.6-4.6"/><path fill="url(#nzbget_svg__f)" d="M210.3 242.3c0-2.5 2-4.6 4.6-4.6h82.3c2.5 0 4.6 2 4.6 4.6V288H355c4 0 6.1 4.8 3.3 7.7L265.9 392c-5.4 5.6-14.4 5.6-19.8 0l-92.4-96.2c-2.8-2.9-.7-7.7 3.3-7.7h53.3z"/><path fill="url(#nzbget_svg__g)" fill-rule="evenodd" d="M214.9 228.6h82.3c7.6 0 13.7 6.1 13.7 13.7v36.6H355c12.1 0 18.3 14.5 9.9 23.2l-92.4 96.2c-9 9.4-24 9.4-33 0l-92.4-96.2c-8.4-8.7-2.2-23.2 9.9-23.2h44.1v-36.6c0-7.6 6.2-13.7 13.8-13.7m-4.6 59.4H157c-4 0-6.1 4.8-3.3 7.7l92.4 96.2c5.4 5.6 14.4 5.6 19.8 0l92.4-96.2c2.8-2.9.7-7.7-3.3-7.7h-53.3v-45.7c0-2.5-2-4.6-4.6-4.6h-82.3c-2.5 0-4.6 2-4.6 4.6V288z" clip-rule="evenodd"/></g></svg>
