<?xml version="1.0" encoding="utf-8"?>
<!-- Generator: Adobe Illustrator 27.1.1, SVG Export Plug-In . SVG Version: 6.00 Build 0)  -->
<svg version="1.1" id="Layer_1" xmlns="http://www.w3.org/2000/svg" xmlns:xlink="http://www.w3.org/1999/xlink" x="0px" y="0px"
	 viewBox="0 0 150 150" style="enable-background:new 0 0 150 150;" xml:space="preserve">
<style type="text/css">
	.st0{fill-rule:evenodd;clip-rule:evenodd;fill:#01A299;}
</style>
<g>
	<defs>
		<rect id="SVGID_1_" x="-93.1" y="25" width="336.2" height="100"/>
	</defs>
	<clipPath id="SVGID_00000053505721587594797240000015954287341078529929_">
		<use xlink:href="#SVGID_1_"  style="overflow:visible;"/>
	</clipPath>
</g>
<g>
	<path class="st0" d="M75,3.7c16.2,0,31.9,5.4,44.7,15.3c12.8,9.9,21.9,23.8,26,39.4c4,15.7,2.8,32.2-3.6,47.1
		c-6.4,14.8-17.6,27.2-31.7,35c1-20.6,0.8-45.2-11.1-53.5c-0.1-0.3-0.1-0.6-0.1-1c3.5-2.3,6.3-5.4,8.3-9c2-3.7,3-7.7,3-11.9v-1.7
		c0-6.6-2.6-12.9-7.2-17.6c3.3-4.1,5.2-9.2,5.5-14.5c-2.1,2-4.3,3.9-6.7,5.6c-3.2,2.3-6.6,4.2-10.2,5.7c-16.9,7-35.7,3.3-50.6-11.4
		c0.2,5.4,2.2,10.7,5.7,14.8c-4.4,4.6-6.9,10.8-6.9,17.2V65c0,4.2,1.1,8.3,3.1,12c2,3.7,4.9,6.8,8.5,9.1c0,0.4,0,0.8-0.1,1.3
		l-0.1,0.1c-13.3,10.1-12.6,39.6,2.4,58.8c-16.7-5.1-31.1-16-40.4-30.8C3.9,100.8,0.2,83.1,2.8,65.9c2.6-17.3,11.3-33.1,24.5-44.5
		C40.6,10,57.5,3.7,75,3.7L75,3.7z"/>
</g>
</svg>
