<svg xmlns="http://www.w3.org/2000/svg" xmlns:xlink="http://www.w3.org/1999/xlink" xml:space="preserve" version="1.0" viewBox="0 0 48 48"><style>.obsstudio_svg__st1{fill:url(#obsstudio_svg__SVGID_00000062171159965967627490000013605884846004172698_)}.obsstudio_svg__st2{fill:url(#obsstudio_svg__SVGID-2_00000085966066984138215510000013018799571900533434_)}.obsstudio_svg__st3{clip-path:url(#obsstudio_svg__SVGID_00000023257072852279316340000004281102206337855156_)}.obsstudio_svg__st4{fill:url(#obsstudio_svg__SVGID_00000177446033621631838710000001370584907163434138_)}.obsstudio_svg__st5{clip-path:url(#obsstudio_svg__SVGID_00000136385553608229244970000014654043435100792964_)}.obsstudio_svg__st6{fill:url(#obsstudio_svg__SVGID_00000126306410582640054500000000964390405037519506_)}.obsstudio_svg__st7{fill:url(#obsstudio_svg__SVGID_00000109020757643166282930000006684795936706346369_)}</style><radialGradient id="obsstudio_svg__SVGID_1_" cx="514.5" cy="477.5" r="496.5" gradientTransform="matrix(1 0 0 -1 -18 974)" gradientUnits="userSpaceOnUse"><stop offset=".913"/><stop offset="1" stop-opacity="0"/></radialGradient><radialGradient id="obsstudio_svg__SVGID_00000163033830155146975860000008434547654242457221_" cx="512.06" cy="481.88" r="486.27" gradientTransform="matrix(1 0 0 -1 -18 974)" gradientUnits="userSpaceOnUse"><stop offset=".99" stop-color="#fff"/><stop offset=".995" stop-color="#FDFDFD"/><stop offset=".997" stop-color="#F6F6F6"/><stop offset=".998" stop-color="#EBEBEB"/><stop offset=".999" stop-color="#DADADA"/><stop offset="1" stop-color="#C7C7C7"/></radialGradient><radialGradient id="obsstudio_svg__SVGID-2_00000052072577768947982130000002178866272689676469_" cx="512.06" cy="481.88" r="444.12" gradientTransform="matrix(1 0 0 -1 -18 974)" gradientUnits="userSpaceOnUse"><stop offset=".99" stop-opacity=".5"/><stop offset="1" stop-opacity="0"/></radialGradient><radialGradient id="obsstudio_svg__SVGID_00000092427181212153090570000016417065628950216588_" cx="578.89" cy="482.37" r="353.94" gradientTransform="matrix(1 0 0 -1.0971 -18 982.51)" gradientUnits="userSpaceOnUse"><stop offset="0" stop-color="#C2C0C2"/><stop offset="1" stop-color="#EBEBEB"/></radialGradient><g transform="scale(.04834)"><path fill="url(#obsstudio_svg__SVGID_1_)" d="M496.5 0C770.7 0 993 222.3 993 496.5S770.7 993 496.5 993 0 770.7 0 496.5 222.3 0 496.5 0" style="fill:url(#obsstudio_svg__SVGID_1_)"/><path fill="url(#obsstudio_svg__SVGID_00000163033830155146975860000008434547654242457221_)" d="M494.1 5.8c268.6 0 486.3 217.7 486.3 486.3S762.6 978.4 494.1 978.4 7.8 760.7 7.8 492.1 225.5 5.8 494.1 5.8"/><path fill="url(#obsstudio_svg__SVGID-2_00000052072577768947982130000002178866272689676469_)" d="M49.9 492.1c0 245.3 198.8 444.1 444.1 444.1s444.1-198.8 444.1-444.1C938.2 246.8 739.3 48 494.1 48S49.9 246.8 49.9 492.1"/><defs><path id="obsstudio_svg__SVGID_00000020370725417039028330000004494903873571563917_" d="M49.9 492.1c0 245.3 198.8 444.1 444.1 444.1s444.1-198.8 444.1-444.1C938.2 246.8 739.3 48 494.1 48S49.9 246.8 49.9 492.1"/></defs><clipPath id="obsstudio_svg__SVGID_00000089541126356498003530000018124973888634789552_"><use xlink:href="#obsstudio_svg__SVGID_00000020370725417039028330000004494903873571563917_"/></clipPath><g clip-path="url(#obsstudio_svg__SVGID_00000089541126356498003530000018124973888634789552_)"><radialGradient id="obsstudio_svg__SVGID_00000150812931774303044310000016741052045410067889_" cx="494.06" cy="501.88" r="444.12" gradientTransform="matrix(1 0 0 -1 0 994)" gradientUnits="userSpaceOnUse"><stop offset=".99" stop-opacity=".5"/><stop offset="1" stop-opacity="0"/></radialGradient><path fill="url(#obsstudio_svg__SVGID_00000150812931774303044310000016741052045410067889_)" d="M49.9 48h888.2v888.2H49.9z"/></g><defs><path id="obsstudio_svg__SVGID_00000018236686936268748280000002431340190722277274_" d="M53.6 492.1c0 243.3 197.2 440.5 440.5 440.5s440.5-197.2 440.5-440.5S737.4 51.6 494.1 51.6 53.6 248.9 53.6 492.1"/></defs><clipPath id="obsstudio_svg__SVGID_00000071558824708772608600000007232665395714776193_"><use xlink:href="#obsstudio_svg__SVGID_00000018236686936268748280000002431340190722277274_"/></clipPath><g clip-path="url(#obsstudio_svg__SVGID_00000071558824708772608600000007232665395714776193_)"><radialGradient id="obsstudio_svg__SVGID_00000075157454629254526220000014209612016984828065_" cx="433.72" cy="-472.89" r="4.653" gradientTransform="translate(-40559 45253) scale(94.654)" gradientUnits="userSpaceOnUse"><stop offset="0"/><stop offset="1" stop-color="#322F32"/></radialGradient><path fill="url(#obsstudio_svg__SVGID_00000075157454629254526220000014209612016984828065_)" d="M53.6 51.7h880.9v880.9H53.6z"/></g><path fill="url(#obsstudio_svg__SVGID_00000092427181212153090570000016417065628950216588_)" d="M666.9 350.5c-54.8 95.4-176.6 128.4-272 73.6-1.8-1-3.5-2.1-5.2-3.1-16.7-10.3-31.9-23.1-44.9-37.8-34.4-38.8-52.3-89.4-49.9-141.1.3-5.8.8-11.6 1.5-17.3s1.7-11.3 3-16.9c1.3-5.7 2.8-11.4 4.5-17 1.7-5.4 3.7-10.8 5.9-16.1 2.3-5.5 4.8-10.9 7.5-16.1 2.9-5.5 6.1-10.9 9.5-16.2 3.1-4.8 6.5-9.5 10-14.1 3.9-5 8-9.7 12.3-14.3 4.4-4.6 8.9-9 13.7-13.2 4.8-4.3 9.9-8.2 15.1-12 2.7-1.9 5.4-3.8 8.2-5.6-118.1 60.4-166.5 204-109 323.6.5 1.1 1.1 2.3 1.7 3.4.3.5.5 1 .8 1.5.1.3.3.6.5.9.3.4.4.3.9.3h7.7c4.8.1 9.5.4 14.3.8 90.3 8.5 163.5 76.9 178.2 166.4 3.2 19.9 3.4 40.2.6 60.2-5.3 37.7-21.3 73-46.2 101.9-14.2 16.5-31 30.6-49.8 41.8-37.4 22.1-81 31.4-124.2 26.5-7.8-.9-15.6-2.2-23.2-4-5-1.2-9.9-2.5-14.7-4.1 21.8 9.7 44.9 16.1 68.5 19 22.1 2.7 44.4 2.5 66.4-.8 39.3-5.9 76.7-21.3 108.7-44.9 23.5-17.3 43.7-38.7 59.7-63.1.7-1.1 1.4-2.1 2.1-3.2.3-.4.9-1.1.8-1.5-.3-.7-.6-1.3-1.1-1.9-1.3-2.5-2.6-5-3.8-7.6-2.5-5.1-4.7-10.4-6.7-15.7-4.1-10.8-7.2-22-9.3-33.4-4.6-24.5-4.6-49.5 0-74 3.9-20.8 11.1-40.8 21.4-59.3 34.8-63.2 101-102.6 173.1-103.1 4.9 0 9.8.1 14.7.4 4.7.3 9.4.8 14.1 1.4 4.6.6 9.2 1.4 13.8 2.4 4.5.9 8.9 2 13.4 3.3 4.3 1.2 8.6 2.6 12.8 4.1 4.3 1.5 8.5 3.2 12.7 5.1 4.3 1.9 8.4 3.9 12.6 6 4.1 2.2 8.1 4.5 12.1 6.9 3.7 2.3 7.4 4.7 10.9 7.3 3.7 2.6 7.2 5.4 10.7 8.2 3.6 2.9 7.1 6 10.5 9.2 3.6 3.4 7.1 6.9 10.4 10.6 3.3 3.6 6.5 7.4 9.6 11.3 3.4 4.3 6.6 8.8 9.7 13.4 3.1 4.7 6 9.6 8.7 14.5 3.8 6.9 7.1 14.1 10.1 21.4 3.2 8 5.8 16.1 8 24.4-5.8-44.3-23.7-86.1-51.7-120.9-20.6-25.6-46.1-46.9-75-62.5-29.7-16-62.3-25.6-95.9-28.3-3.1-.4-5.9-.6-8.8-.7z"/></g></svg>