<svg xmlns="http://www.w3.org/2000/svg" viewBox="0 0 48 48"><path d="M56.7 4.7c-14.4.3-27.4 5.5-39.2 16-7 5.7-12.3 13.2-15.4 21.6-2.5 11.4-2.7 23.3-.6 34.8 1.3 7.1 4 15.4 8.1 25.2h28.8c-1.5-4.8-3.5-9.4-5.8-13.8C24.8 74 23 59.8 27.4 46.2c1.7-4.3 3.9-8.4 6.6-12.1 1.1-1.5 2.3-2.8 3.7-4 1.8-2 6-4.6 12.6-7.9 2.6-1.3 5.5-2.3 8.4-2.9.4-.1 2.8-.5 7.1-1 2.8-.3 6.7.1 11.6 1.5 3.8 1 7.3 2.5 10.6 4.6 3 2.1 5.7 4.6 8.2 7.3.6.6 1.1 1.3 1.5 2 .8 1 2 2.5 3.4 4.5.7.4 1.2 1 1.5 1.8l.8.8c.8 1.1 1.5 2.2 2.2 3.2.5.8.9 1.7 1.3 2.6.5-3.3.3-6.8-.6-10-1.2-4.9-2.7-8.2-4.3-10.4-3.5-4.2-5.5-6.8-6.4-7.6-.2-.3-2.1-1.6-5.7-4.2-3.2-2.3-6.6-4.2-10.2-5.6-7.4-2.9-15.2-4.3-23-4.1z" style="fill:#13c100" transform="translate(-.028 .028) scale(.44815)"/><path d="M68 18.2c-.8 0-1.6 0-2.3.1-4.3.5-6.8.8-7.2 1-2.9.6-5.7 1.5-8.4 2.9-6.5 3.3-10.7 5.8-12.5 7.8-1.4 1.2-2.6 2.5-3.7 4-2.7 3.8-4.9 7.9-6.5 12.2C23 59.8 24.8 74 32.6 88.5c2.3 4.4 4.2 9 5.8 13.8h29.1c-1.3-3.7-2.9-7.3-4.8-10.7-1.7-3.3-3.6-6.7-5.8-10.2v-.1c-.3-.6-.6-1.1-1.1-1.6l-.6-.8-1.2-1.7c-.5-.9-1-1.8-1.4-2.5-1.7-2.3-3-4.2-4-5.6-.9-1.5-1.8-2.9-2.6-4.3-7.6-11.2-7-20.8 2-29 2.7-2.2 5.8-4 9.1-5.3 2.2-.9 4.4-1.6 6.7-2.2 15.8-2.1 29.8 3.2 41.8 15.7-.7-1-1.4-2.1-2.2-3.2l-.8-.8c-.3-.7-.8-1.4-1.5-1.7-1.5-2-2.6-3.5-3.4-4.5-.4-.7-.9-1.4-1.5-2-2.4-2.7-5.2-5.2-8.2-7.3-3.3-2.1-6.8-3.7-10.6-4.6-3.1-1-6.2-1.5-9.4-1.7z" style="fill:#169300" transform="translate(-.028 .028) scale(.44815)"/></svg>