<svg xmlns="http://www.w3.org/2000/svg" viewBox="0 0 48 48"><g fill="#fff"><path d="M13.747.013a3.3 3.3 0 0 0-1.364.597c-1.148.872-2.037 2.722-2.413 5.028a21 21 0 0 0-.238 3.005c0 1.09.128 2.481.31 3.443.042.214.063.403.045.417a16 16 0 0 1-.372.303c-.648.517-1.389 1.313-1.899 2.04a11 11 0 0 0-1.878 4.677c-.103.676-.131 2.04-.048 2.716.182 1.558.651 2.874 1.454 4.08l.262.39-.076.127c-.537.903-.996 2.21-1.21 3.464-.168.993-.19 1.258-.19 2.588 0 1.34.018 1.606.177 2.533.19 1.11.575 2.285 1.006 3.067.141.256.486.786.527.814.014.007-.027.134-.093.282a14.8 14.8 0 0 0-1.096 3.747c-.124.834-.141 1.102-.141 1.981 0 1.12.062 1.665.296 2.557l.035.131h2.953l-.096-.182c-.596-1.103-.651-3.15-.138-5.194.234-.944.5-1.637.996-2.592l.296-.579v-.355c0-.33-.006-.368-.113-.585-.083-.166-.193-.307-.39-.5a3.5 3.5 0 0 1-.768-1.086c-.848-1.84-1.013-4.573-.417-6.903.248-.972.658-1.837 1.089-2.309.293-.324.444-.686.444-1.061 0-.39-.138-.71-.448-1.045-.889-.95-1.437-2.109-1.633-3.456-.28-1.92.227-4.012 1.378-5.67 1.127-1.626 2.709-2.67 4.477-2.95.396-.065 1.137-.055 1.55.021.452.08.735.055 1.024-.083.359-.169.538-.379.748-.861.186-.431.331-.666.72-1.151.47-.583.92-.98 1.644-1.458a7.9 7.9 0 0 1 2.706-1.124c.341-.069.5-.079 1.137-.079s.796.01 1.137.08c1.376.278 2.74.988 3.83 1.995.234.217.795.913.975 1.202.069.114.19.355.265.535.21.482.39.692.748.861.279.135.572.162 1.006.09a4.7 4.7 0 0 1 1.885.03c2.289.463 4.28 2.348 5.163 4.874.769 2.216.551 4.535-.593 6.307-.193.3-.386.54-.665.837-.603.645-.603 1.444-.003 2.106.985 1.079 1.602 3.732 1.416 6.072-.124 1.544-.52 2.926-1.065 3.709a4 4 0 0 1-.448.517c-.196.193-.307.334-.39.5-.106.216-.113.254-.113.585v.355l.296.58c.497.954.762 1.646.996 2.59.507 2.017.462 4.023-.117 5.163-.048.097-.09.186-.09.197s.659.017 1.465.017h1.462l.037-.148c.021-.08.056-.2.073-.269.038-.152.113-.6.176-1.03.058-.435.058-2.034 0-2.516-.221-1.751-.59-3.14-1.193-4.453-.065-.148-.107-.276-.093-.283.017-.01.114-.148.217-.303.751-1.137 1.213-2.567 1.448-4.456.062-.52.062-2.757 0-3.257-.166-1.289-.366-2.164-.697-3.05-.137-.368-.503-1.147-.658-1.399l-.076-.127.262-.39c.803-1.206 1.272-2.523 1.455-4.08.082-.676.055-2.04-.049-2.716a11 11 0 0 0-1.878-4.677c-.51-.727-1.25-1.523-1.899-2.04-.19-.152-.358-.29-.372-.303-.017-.014.004-.204.045-.417.417-2.175.403-4.887-.035-7.006-.379-1.848-1.068-3.316-1.957-4.164-.71-.675-1.434-.965-2.302-.91-1.992.118-3.598 2.41-4.232 6.021-.104.583-.193 1.265-.193 1.451 0 .072-.014.131-.031.131s-.152-.069-.297-.155c-1.537-.91-3.246-1.396-4.91-1.396s-3.375.486-4.912 1.396c-.145.086-.279.155-.296.155s-.031-.059-.031-.131c0-.193-.093-.896-.193-1.45-.576-3.244-1.896-5.391-3.65-5.932-.241-.072-.927-.12-1.172-.083zm.586 2.806c.496.393 1.048 1.516 1.365 2.774.059.228.12.49.138.586.014.093.052.303.083.465.134.73.196 1.52.203 2.482l.003.947-.237.352-.238.355h-.555c-.648 0-1.293.083-1.91.248l-.475.12c-.065.014-.076-.006-.114-.289-.203-1.534-.193-3.233.031-4.646.248-1.575.827-3.001 1.393-3.422.134-.1.158-.096.313.028m19.651-.024c.342.251.717.92.996 1.775.562 1.709.72 4.056.424 6.289-.038.282-.048.303-.113.29-.042-.01-.255-.066-.476-.121a7.4 7.4 0 0 0-1.91-.248h-.554l-.238-.355-.238-.352.004-.948c.007-1.337.13-2.381.427-3.542.314-1.248.868-2.372 1.361-2.764.155-.124.18-.128.317-.025z"/><path d="M23.466 20.14c-.748.073-.951.1-1.31.173-.582.12-1.36.39-1.902.654-1.882.92-3.177 2.454-3.574 4.23-.08.35-.09.468-.09 1.06 0 .586.01.714.087 1.048.527 2.32 2.664 4.032 5.428 4.346.6.066 3.191.066 3.79 0 2.22-.252 4.13-1.454 4.988-3.143.227-.451.337-.744.44-1.203.077-.334.087-.462.087-1.047 0-.593-.01-.71-.09-1.062-.575-2.578-3.077-4.608-6.145-4.994-.4-.048-1.447-.09-1.709-.062m1.289 1.875a6.6 6.6 0 0 1 2.881 1.027c.445.296 1.072.917 1.34 1.324.332.503.521 1.016.607 1.64.038.286.018.503-.086.965-.162.69-.665 1.41-1.344 1.913a6.2 6.2 0 0 1-1.378.696c-.766.244-1.265.29-3.05.276-1.165-.01-1.372-.021-1.706-.083-1.141-.214-2.044-.669-2.699-1.361-.53-.559-.772-1.069-.903-1.893-.058-.382.052-1.016.276-1.55.272-.652.975-1.462 1.671-1.927a6.6 6.6 0 0 1 2.844-1.023 10 10 0 0 1 1.547-.004"/><path d="M22.683 24.531c-.261.141-.444.5-.389.765.062.286.314.576.707.813.21.128.224.145.234.273.007.076-.02.293-.059.486a3 3 0 0 0-.072.444c.003.148.141.39.286.507.128.103.152.107.51.117.327.01.396.003.527-.059.338-.165.424-.468.3-1.05-.103-.487-.083-.562.176-.71.272-.16.562-.438.648-.628.165-.362.014-.772-.352-.961a.8.8 0 0 0-.362-.066c-.251 0-.413.059-.71.248l-.168.107-.107-.065c-.438-.259-.517-.29-.783-.286-.19 0-.292.017-.386.065M14.316 20.53c-.61.192-1.065.64-1.3 1.278-.113.303-.168.782-.12 1.04.114.618.62 1.18 1.196 1.334.723.19 1.265.066 1.744-.41.279-.272.43-.51.582-.896.11-.272.117-.32.117-.706l.004-.414-.145-.296a1.79 1.79 0 0 0-1.13-.944c-.273-.07-.71-.066-.948.013M32.723 20.52a1.79 1.79 0 0 0-1.117.94l-.145.296.004.414c0 .386.007.434.117.706.152.386.303.624.582.897.48.475 1.02.6 1.744.41.417-.11.834-.462 1.034-.872.172-.348.214-.6.159-.996-.128-.907-.659-1.565-1.448-1.796-.23-.069-.679-.069-.93 0"/></g></svg>
