
<svg xmlns="http://www.w3.org/2000/svg" version="1.1" xmlns:xlink="http://www.w3.org/1999/xlink" preserveAspectRatio="none" x="0px" y="0px" width="48px" height="48px" viewBox="0 0 48 48">
<defs>
<g id="Layer0_0_FILL">
<path fill="#CCCCCC" stroke="none" d="
M 11.05 23.6
Q 11.6 23.05 12.4 23.05 13.2 23.05 13.75 23.6 14.25 24.15 14.3 24.9
L 14.3 24.95
Q 14.3 25 14.3 25.05
L 14.3 29.45 15.45 29.45 15.45 25.4
Q 15.4 25.25 15.45 25
L 15.45 24.8
Q 15.45 24.75 15.45 24.45 15.45 24.15 16 23.6 16.55 23.05 17.35 23.05 18.15 23.05 18.7 23.6 19.25 24.15 19.25 24.95 19.25 25 19.25 25.05 19.25 25.1 19.25 25.2
L 19.25 29.45 20.35 29.45 20.35 25
Q 20.35 23.75 19.5 22.85 18.6 21.95 17.35 21.95 16.05 21.95 15.2 22.85 15 23.05 14.85 23.25 14.7 23.05 14.5 22.85 13.65 21.95 12.35 21.95 11.1 21.95 10.25 22.85 9.4 23.65 9.35 24.75 9.35 24.8 9.35 24.9
L 9.35 29.45 10.5 29.45 10.5 24.9
Q 10.5 24.15 11.05 23.6
M 6.85 23.05
Q 5.75 21.95 4.2 21.95 2.65 21.95 1.55 23.05 0.45 24.15 0.45 25.7 0.45 27.25 1.55 28.3 2.65 29.4 4.2 29.4 5.75 29.4 6.85 28.3 7.95 27.25 7.95 25.7 7.95 24.15 6.85 23.05
M 4.2 23.05
Q 5.3 23.05 6.05 23.85 6.8 24.6 6.8 25.7 6.8 26.8 6.05 27.55 5.3 28.35 4.2 28.35 3.1 28.35 2.3 27.55 1.55 26.8 1.55 25.7 1.55 24.6 2.3 23.85 3.1 23.05 4.2 23.05
M 34.65 22
Q 33.1 22 32 23.1 30.9 24.2 30.9 25.75 30.9 27.25 32 28.35 33.1 29.45 34.65 29.45 36.15 29.45 37.25 28.4
L 37.25 29.45 38.4 29.45 38.4 25.75
Q 38.4 25.5 38.4 25.3
L 38.4 19.4 37.25 19.4 37.25 23.05
Q 36.15 22 34.65 22
M 32.75 23.9
Q 33.55 23.1 34.65 23.1 35.75 23.1 36.5 23.9 37.25 24.65 37.25 25.75 37.25 26.85 36.5 27.6 35.75 28.35 34.65 28.35 33.55 28.35 32.75 27.6 32 26.85 32 25.75 32 24.65 32.75 23.9
M 28.2 23.05
Q 27.1 21.95 25.55 21.95 24 21.95 22.9 23.05 21.8 24.15 21.8 25.7 21.8 27.25 22.9 28.3 24 29.4 25.55 29.4 27.1 29.4 28.15 28.35
L 28.15 29.45 29.3 29.45 29.3 25.65
Q 29.3 24.15 28.2 23.05
M 25.55 23.05
Q 26.6 23.05 27.4 23.85 28.15 24.6 28.15 25.7 28.15 26.8 27.4 27.55 26.6 28.35 25.55 28.35 24.45 28.35 23.65 27.55 22.9 26.8 22.9 25.7 22.9 24.6 23.65 23.85 24.45 23.05 25.55 23.05
M 46.35 23.05
Q 45.3 21.95 43.75 21.95 42.2 21.95 41.1 23.05 40 24.15 40 25.7 40 27.25 41.1 28.3 42.2 29.4 43.75 29.4 45.25 29.4 46.35 28.35
L 46.35 29.45 47.45 29.45 47.45 26
Q 47.45 25.85 47.45 25.7
L 47.45 25.55
Q 47.4 24.1 46.35 23.05
M 41.85 23.85
Q 42.6 23.05 43.7 23.05 44.8 23.05 45.55 23.85 46.35 24.6 46.35 25.7 46.35 26.8 45.55 27.55 44.8 28.35 43.7 28.35 42.6 28.35 41.85 27.55 41.05 26.8 41.05 25.7 41.05 24.6 41.85 23.85 Z"/>

<path fill="#21B6C4" stroke="none" d="
M 31 17.25
Q 31.4 17.65 31.7 18.05
L 32.9 16.75
Q 32.85 16.7 32.8 16.65 32.55 16.35 32.3 16.1 32.25 16.05 32.2 16 29.35 13.2 25.35 13.2 21.25 13.2 18.35 16.1 18.05 16.4 17.8 16.75
L 19 18.05
Q 19.3 17.65 19.7 17.25 22.05 14.9 25.35 14.9 28.65 14.9 31 17.25
M 20.9 19.3
Q 20.7 19.5 20.5 19.7
L 21.75 21.1
Q 21.9 20.85 22.1 20.7 23.45 19.35 25.35 19.35 27.2 19.35 28.55 20.7 28.75 20.9 28.9 21.1
L 30.3 19.6
Q 30.2 19.45 30.05 19.3 28.15 17.45 25.45 17.45 22.8 17.45 20.9 19.3 Z"/>
</g>

<path id="Layer0_0_1_STROKES" stroke="#21B6C4" stroke-width="0.1" stroke-linejoin="round" stroke-linecap="round" fill="none" d="
M 20.9 19.3
Q 22.8 17.45 25.45 17.45 28.15 17.45 30.05 19.3 30.2 19.45 30.3 19.6
L 28.9 21.1
Q 28.75 20.9 28.55 20.7 27.2 19.35 25.35 19.35 23.45 19.35 22.1 20.7 21.9 20.85 21.75 21.1
L 20.5 19.7
Q 20.7 19.5 20.9 19.3 Z
M 25.35 13.2
Q 21.25 13.2 18.35 16.1 18.05 16.4 17.8 16.75
L 19 18.05
Q 19.3 17.65 19.7 17.25 22.05 14.9 25.35 14.9 28.65 14.9 31 17.25 31.4 17.65 31.7 18.05
L 32.9 16.75
Q 32.85 16.7 32.8 16.65 32.55 16.35 32.3 16.1 32.25 16.05 32.2 16 29.35 13.2 25.35 13.2 Z"/>

<path id="Layer0_0_2_STROKES" stroke="#CCCCCC" stroke-width="0.1" stroke-linejoin="round" stroke-linecap="round" fill="none" d="
M 46.35 25.7
Q 46.35 26.8 45.55 27.55 44.8 28.35 43.7 28.35 42.6 28.35 41.85 27.55 41.05 26.8 41.05 25.7 41.05 24.6 41.85 23.85 42.6 23.05 43.7 23.05 44.8 23.05 45.55 23.85 46.35 24.6 46.35 25.7 Z
M 47.45 25.7
Q 47.45 25.85 47.45 26
L 47.45 29.45 46.35 29.45 46.35 28.35
Q 45.25 29.4 43.75 29.4 42.2 29.4 41.1 28.3 40 27.25 40 25.7 40 24.15 41.1 23.05 42.2 21.95 43.75 21.95 45.3 21.95 46.35 23.05 47.4 24.1 47.45 25.55
L 47.45 25.7 Z
M 28.15 25.7
Q 28.15 26.8 27.4 27.55 26.6 28.35 25.55 28.35 24.45 28.35 23.65 27.55 22.9 26.8 22.9 25.7 22.9 24.6 23.65 23.85 24.45 23.05 25.55 23.05 26.6 23.05 27.4 23.85 28.15 24.6 28.15 25.7 Z
M 25.55 29.4
Q 24 29.4 22.9 28.3 21.8 27.25 21.8 25.7 21.8 24.15 22.9 23.05 24 21.95 25.55 21.95 27.1 21.95 28.2 23.05 29.3 24.15 29.3 25.65
L 29.3 29.45 28.15 29.45 28.15 28.35
Q 27.1 29.4 25.55 29.4 Z
M 34.65 29.45
Q 33.1 29.45 32 28.35 30.9 27.25 30.9 25.75 30.9 24.2 32 23.1 33.1 22 34.65 22 36.15 22 37.25 23.05
L 37.25 19.4 38.4 19.4 38.4 25.3
Q 38.4 25.5 38.4 25.75
L 38.4 29.45 37.25 29.45 37.25 28.4
Q 36.15 29.45 34.65 29.45 Z
M 37.25 25.75
Q 37.25 26.85 36.5 27.6 35.75 28.35 34.65 28.35 33.55 28.35 32.75 27.6 32 26.85 32 25.75 32 24.65 32.75 23.9 33.55 23.1 34.65 23.1 35.75 23.1 36.5 23.9 37.25 24.65 37.25 25.75 Z
M 6.8 25.7
Q 6.8 26.8 6.05 27.55 5.3 28.35 4.2 28.35 3.1 28.35 2.3 27.55 1.55 26.8 1.55 25.7 1.55 24.6 2.3 23.85 3.1 23.05 4.2 23.05 5.3 23.05 6.05 23.85 6.8 24.6 6.8 25.7 Z
M 7.95 25.7
Q 7.95 27.25 6.85 28.3 5.75 29.4 4.2 29.4 2.65 29.4 1.55 28.3 0.45 27.25 0.45 25.7 0.45 24.15 1.55 23.05 2.65 21.95 4.2 21.95 5.75 21.95 6.85 23.05 7.95 24.15 7.95 25.7 Z
M 15.45 25
L 15.45 24.8
Q 15.45 24.75 15.45 24.45 15.45 24.15 16 23.6 16.55 23.05 17.35 23.05 18.15 23.05 18.7 23.6 19.25 24.15 19.25 24.95 19.25 25 19.25 25.05 19.25 25.1 19.25 25.2
L 19.25 29.45 20.35 29.45 20.35 25
Q 20.35 23.75 19.5 22.85 18.6 21.95 17.35 21.95 16.05 21.95 15.2 22.85 15 23.05 14.85 23.25 14.7 23.05 14.5 22.85 13.65 21.95 12.35 21.95 11.1 21.95 10.25 22.85 9.4 23.65 9.35 24.75 9.35 24.8 9.35 24.9
L 9.35 29.45 10.5 29.45 10.5 24.9
Q 10.5 24.15 11.05 23.6 11.6 23.05 12.4 23.05 13.2 23.05 13.75 23.6 14.25 24.15 14.3 24.9
L 14.3 24.95
Q 14.3 25 14.3 25.05
L 14.3 29.45 15.45 29.45 15.45 25.4
Q 15.4 25.25 15.45 25 Z"/>
</defs>

<g transform="matrix( 1, 0, 0, 1, 0,0) ">
<use xlink:href="#Layer0_0_FILL"/>

<use xlink:href="#Layer0_0_1_STROKES"/>

<use xlink:href="#Layer0_0_2_STROKES"/>
</g>
</svg>
