<svg xmlns="http://www.w3.org/2000/svg" viewBox="0 0 48 48"><defs><linearGradient id="ombi_svg__a" x2="1" gradientTransform="matrix(0 886 886 0 515 68)" gradientUnits="userSpaceOnUse"><stop offset="0" stop-color="#e37200"/><stop offset="1" stop-color="#e3913e"/></linearGradient><clipPath id="ombi_svg__b"><path d="M0 1024h1024V0H0z"/></clipPath></defs><path fill="url(#ombi_svg__a)" d="M72 511C72 266.34 270.34 68 515 68s443 198.34 443 443-198.34 443-443 443S72 755.66 72 511" transform="matrix(.05417 0 0 -.05417 -3.9 51.68)"/><g clip-path="url(#ombi_svg__b)" transform="matrix(.05417 0 0 -.05417 -3.9 51.68)"><path fill="#333" d="M531.65 523.17c4.337 2.043 8.59 4.294 13.029 6.085 8.096 3.267 16.607 4.871 25.296 5.489 18.591 1.325 35.839-3.115 51.752-12.608 4.076-2.432 8.104-5.063 11.544-8.514 29.832-29.926 59.784-59.733 89.573-89.701 5.595-5.628 9.798-12.402 13.295-19.522 8.706-17.718 10.484-36.446 6.917-55.615-2.161-11.619-6.723-22.391-13.722-32.144-5.813-8.098-12.717-14.83-20.622-20.897-10.983-8.426-23.303-13.267-36.694-15.593-11.975-2.081-23.895-1.456-35.786 1.428-11.156 2.707-20.922 8.161-30.522 14.082-1.213.749-2.204 1.874-3.254 2.869-2.106 1.992-4.214 3.979-6.263 6.027-27.325 27.31-54.619 54.653-81.978 81.93-5.306 5.292-9.674 11.226-13.596 17.59-6.577 10.675-10.002 22.41-11.29 34.67-1.451 13.814.068 27.46 5.26 40.481 1.77 4.44 4.054 8.675 6.103 13.005l34.038-34.008c-2.516-3.836-2.528-8.307-2.191-12.47.918-11.34 5.166-21.226 13.461-29.444 26.94-26.693 53.701-53.566 80.47-80.43 3.613-3.624 7.699-6.276 12.232-8.685 19.881-10.562 45.465-1.006 55.689 15.73 9.864 16.146 9.17 38.852-6.26 54.293-26.979 26.996-54.004 53.946-80.945 80.981-11.137 11.176-24.671 14.199-39.779 12.18-.614-.082-1.142-.809-1.709-1.235L531.65 523.17m-38.94-22.98c-5.366-2.664-10.652-5.477-16.397-7.329-18.46-5.952-36.867-5.963-55.369-.091-12.861 4.081-23.923 10.97-33.419 20.457-27.837 27.812-55.592 55.708-83.505 83.444-13.296 13.213-20.789 29.352-23.618 47.519-3.298 21.181.869 41.343 12.405 59.375 10.591 16.556 25.089 28.738 43.991 35.494 15.681 5.605 31.636 6.528 47.671 3.386 11.785-2.31 22.893-6.798 32.694-14.339 4.412-3.395 8.545-6.974 12.448-10.873 27.157-27.127 54.218-54.352 81.471-81.382 10.906-10.817 17.766-23.869 21.598-38.44 4.383-16.663 3.921-33.441-1.767-49.812-1.959-5.637-4.811-10.964-7.254-16.432l-34.035 34.005c2.638 3.01 2.252 6.958 2.149 10.289-.363 11.86-4.213 22.442-12.897 31.076-27.04 26.881-53.959 53.883-80.896 80.867-2.563 2.568-5.423 4.63-8.464 6.619-21.25 13.893-50.599 4.827-61.621-17.115-8.823-17.564-3.903-38.769 8.075-50.595 27.303-26.957 54.358-54.167 81.423-81.363 8.422-8.464 18.722-12.276 30.339-13.013 3.788-.241 7.667-.126 10.968 2.315l34.01-34.062"/><path fill="#232323" d="m489.63 565.17 34.035-34.005 7.986-7.996 34.047-34.027c1.839-1.909 3.65-3.847 5.523-5.722 16.189-16.207 32.412-32.379 48.56-48.627 2.013-2.025 4.073-4.2 5.386-6.688 4.86-9.207 3.104-18.107-4.281-25.668-6.525-6.679-14.085-7.599-22.579-5.005-3.62 1.106-6.196 3.561-8.773 6.136-18.248 18.237-36.531 36.44-54.803 54.654l-34.038 34.008c-2.66 2.652-5.318 5.306-7.977 7.958l-34.009 34.062c-2.017 2.073-4.011 4.169-6.054 6.215-11.753 11.77-23.544 23.502-35.251 35.318-1.839 1.857-3.681 3.883-4.887 6.166-4.544 8.604-2.238 19.27 4.14 25.226 7.762 7.25 18.246 8.77 27.1 3.078 1.996-1.284 3.679-3.092 5.382-4.783 13.515-13.416 26.999-26.863 40.493-40.3"/><path fill="#fff" d="M531.65 523.17c4.337 2.043 8.59 4.294 13.029 6.085 8.096 3.267 16.607 4.871 25.296 5.489 18.591 1.325 35.839-3.115 51.752-12.608 4.076-2.432 8.104-5.063 11.544-8.514 29.832-29.926 59.784-59.733 89.573-89.701 5.595-5.628 9.798-12.402 13.295-19.522 8.706-17.718 10.484-36.446 6.917-55.615-2.161-11.619-6.723-22.391-13.722-32.144-5.813-8.098-12.717-14.83-20.622-20.897-10.983-8.426-23.303-13.267-36.694-15.593-11.975-2.081-23.895-1.456-35.786 1.428-11.156 2.707-20.922 8.161-30.522 14.082-1.213.749-2.204 1.874-3.254 2.869-2.106 1.992-4.214 3.979-6.263 6.027-27.325 27.31-54.619 54.653-81.978 81.93-5.306 5.292-9.674 11.226-13.596 17.59-6.577 10.675-10.002 22.41-11.29 34.67-1.451 13.814.068 27.46 5.26 40.481 1.77 4.44 4.054 8.675 6.103 13.005l34.038-34.008c-2.516-3.836-2.528-8.307-2.191-12.47.918-11.34 5.166-21.226 13.461-29.444 26.94-26.693 53.701-53.566 80.47-80.43 3.613-3.624 7.699-6.276 12.232-8.685 19.881-10.562 45.465-1.006 55.689 15.73 9.864 16.146 9.17 38.852-6.26 54.293-26.979 26.996-54.004 53.946-80.945 80.981-11.137 11.176-24.671 14.199-39.779 12.18-.614-.082-1.142-.809-1.709-1.235L531.65 523.17m-38.94-22.98c-5.366-2.664-10.652-5.477-16.397-7.329-18.46-5.952-36.867-5.963-55.369-.091-12.861 4.081-23.923 10.97-33.419 20.457-27.837 27.812-55.592 55.708-83.505 83.444-13.296 13.213-20.789 29.352-23.618 47.519-3.298 21.181.869 41.343 12.405 59.375 10.591 16.556 25.089 28.738 43.991 35.494 15.681 5.605 31.636 6.528 47.671 3.386 11.785-2.31 22.893-6.798 32.694-14.339 4.412-3.395 8.545-6.974 12.448-10.873 27.157-27.127 54.218-54.352 81.471-81.382 10.906-10.817 17.766-23.869 21.598-38.44 4.383-16.663 3.921-33.441-1.767-49.812-1.959-5.637-4.811-10.964-7.254-16.432l-34.035 34.005c2.638 3.01 2.252 6.958 2.149 10.289-.363 11.86-4.213 22.442-12.897 31.076-27.04 26.881-53.959 53.883-80.896 80.867-2.563 2.568-5.423 4.63-8.464 6.619-21.25 13.893-50.599 4.827-61.621-17.115-8.823-17.564-3.903-38.769 8.075-50.595 27.303-26.957 54.358-54.167 81.423-81.363 8.422-8.464 18.722-12.276 30.339-13.013 3.788-.241 7.667-.126 10.968 2.315l34.01-34.062"/><path fill="#bfbfbf" d="m489.63 565.17 34.035-34.005 7.986-7.996 34.047-34.027c1.839-1.909 3.65-3.847 5.523-5.722 16.189-16.207 32.412-32.379 48.56-48.627 2.013-2.025 4.073-4.2 5.386-6.688 4.86-9.207 3.104-18.107-4.281-25.668-6.525-6.679-14.085-7.599-22.579-5.005-3.62 1.106-6.196 3.561-8.773 6.136-18.248 18.237-36.531 36.44-54.803 54.654l-34.038 34.008c-2.66 2.652-5.318 5.306-7.977 7.958l-34.009 34.062c-2.017 2.073-4.011 4.169-6.054 6.215-11.753 11.77-23.544 23.502-35.251 35.318-1.839 1.857-3.681 3.883-4.887 6.166-4.544 8.604-2.238 19.27 4.14 25.226 7.762 7.25 18.246 8.77 27.1 3.078 1.996-1.284 3.679-3.092 5.382-4.783 13.515-13.416 26.999-26.863 40.493-40.3"/><path fill="#fff" d="m646.21 635.6-46.608-46.609-5.27-.504-5.479 5.479c.049 1.752.106 3.726.16 5.598l45.631 45.631c3.119 1.594 6.033 1.68 8.709-.396 2.88-2.235 3.76-5.243 2.857-9.199m30.09-66.67 1.818-6.609c-1.7-1.989-3.305-3.868-4.616-5.399-6.257-.953-55.259-1.226-66.367-.42l-5.381 5.381 1.318 6.468c2.88 2.827 5.778 3.393 8.91 3.391 18.504-.016 37.007-.018 55.512.007 2.861.004 5.508-.586 8.806-2.819m-120 103.37 4.356 4.357c3.766.991 7.394 1.118 10.518-3.209.147-1.367.542-3.354.547-5.341.045-19.259.031-38.518.01-57.777-.002-1.257-.201-2.513-.301-3.688-2.146-3.964-5.41-5.217-9.93-4.559l-5.13 5.13c-.139 21.249-.033 43.005-.07 65.087"/></g></svg>