<svg xmlns="http://www.w3.org/2000/svg" viewBox="0 0 48 48"><g paint-order="stroke"><path d="M24.402 34.01c2.417 0 4.377-1.021 4.377-2.28 0-1.26-1.96-1.25-4.377-1.25s-4.377-.01-4.377 1.25c0 1.259 1.96 2.28 4.377 2.28"/><path d="M42.804 20.916a5.195 5.195 0 0 0-5.195 5.196c0 1.672.793 3.155 2.02 4.106-2.469 6.13-8.47 10.469-15.472 10.469a16.59 16.59 0 0 1-9.413-2.917 7.91 7.91 0 0 0-7.166-11.885 16.58 16.58 0 0 1 1.79-9.604C12.203 10.339 18.42 6.21 25.636 6.21c6.636 0 12.418 3.492 15.509 8.674a2.313 2.313 0 1 0 2.186-.642 21.82 21.82 0 0 0-.872-1.55 5.278 5.278 0 0 0 1.346-3.514 5.319 5.319 0 0 0-5.319-5.318 5.27 5.27 0 0 0-3.642 1.464 21.374 21.374 0 0 0-10.686-2.85c-3.8 0-7.37.994-10.472 2.73a5.277 5.277 0 0 0-3.52-1.344 5.318 5.318 0 0 0-4.173 8.612 21.394 21.394 0 0 0-3.048 15.16 7.91 7.91 0 0 0 8.099 13.42 21.41 21.41 0 0 0 13.114 4.473c9.41 0 17.417-6.073 20.334-14.503a5.194 5.194 0 0 0-1.687-10.106"/><path d="M18.052 21.117a1.95 1.95 0 0 1 2.628.833c.034.066.055.135.081.204.367-2.45-.37-4.578-1.9-5.063-1.822-.577-4.067 1.39-5.018 4.39-.951 3.002-.246 5.903 1.574 6.479 1.646.521 3.637-1.04 4.707-3.563-.087.066-.177.13-.277.18a1.949 1.949 0 1 1-1.795-3.46m15.335 6.843c1.82-.576 2.526-3.477 1.575-6.479-.951-3-3.197-4.967-5.018-4.39-1.53.485-2.267 2.613-1.9 5.063.026-.069.047-.138.081-.204a1.95 1.95 0 1 1 .832 2.628c-.1-.052-.19-.115-.276-.18 1.069 2.522 3.06 4.083 4.706 3.562"/></g></svg>