<svg xmlns="http://www.w3.org/2000/svg" viewBox="0 0 48 48"><g fill-rule="evenodd" clip-rule="evenodd"><path fill="#1a3967" d="M24.786 17.045c3.832.458 6.706 3.645 6.689 7.415-.005 3.059-1.931 5.8-4.85 6.906l2.877 15.266H18.27l2.928-15.236c-3.616-1.318-5.651-5.07-4.735-8.733.915-3.663 4.492-6.077 8.323-5.618Z"/><path fill="#ed7f22" d="M24 1.368c13.064 0 23.73 10.204 24 22.962.007 8.294-4.523 15.96-11.88 20.104l-1.53-9.947a13.567 13.567 0 0 0 3.73-9.324c-.208-7.579-6.558-13.617-14.32-13.617-7.762 0-14.112 6.038-14.32 13.617a13.56 13.56 0 0 0 3.679 9.264l-1.541 9.977C4.5 40.244 0 32.6 0 24.33.27 11.572 10.936 1.368 24 1.368Z" class="openvpn_svg__ov-orange"/></g></svg>