<svg xmlns="http://www.w3.org/2000/svg" viewBox="0 0 48 48"><path fill="#93d500" d="M12.685 27.601H.019c.002.062.004.124.008.186.005.119.013.238.02.357l.01.152c.01.138.022.275.034.413L.1 28.8a19.805 19.805 0 0 0 .12.996c.145 1.01.363 2.01.654 2.993l.004.013a18.562 18.562 0 0 0 .16.515c.045.139.092.277.14.415l.036.105c.042.12.086.239.13.358l.062.162.115.296.091.223.097.231c.04.094.083.188.124.282l.075.168.158.337.052.108c.062.129.126.257.19.383l.03.06a20.743 20.743 0 0 0 .232.438c.016.03.033.057.05.086l10.816-6.516.04-.024a8.626 8.626 0 0 1-.791-2.829z"/><path fill="#93d500" d="m1.03 33.292-.413.116.004.013z"/><path fill="#4d5a31" d="M15.798 33.416 6.846 42.37c.046.042.091.086.138.127.084.076.168.15.253.224l.13.116c.101.087.203.172.305.258l.082.068a20.278 20.278 0 0 0 .79.62c.538.402 1.095.778 1.67 1.129l.06.036c.109.066.218.13.328.194l.202.115c.063.037.127.072.19.108a27.332 27.332 0 0 0 .398.214c.325.17.655.327.987.479l.317-.769 4.487-10.897.016-.04a8.654 8.654 0 0 1-1.401-.935z"/><path fill="#6ba43a" d="M14.869 32.525a8.33 8.33 0 0 1-.51-.627 8.798 8.798 0 0 1-.479-.711L3.05 37.71c.166.277.34.546.516.812l.018.028.006.01.017.027.002.002.043.064.003.004.001.001c.188.278.381.552.58.819l.014.017.013.017a19.686 19.686 0 0 0 .579.734l.068.082c.085.103.17.205.258.306.038.043.077.086.114.13.075.084.149.169.225.252l.127.138.058.063.167.18.069.07c.098.102.198.205.3.306l8.934-8.934a7.703 7.703 0 0 1-.293-.314z"/><path fill="#4d5a31" d="M26.71 33.412a6.59 6.59 0 0 1-.298.231l.022.038 6.515 10.813c.302-.197.6-.4.891-.613.63-.465 1.24-.97 1.829-1.512l-8.923-8.922z"/><g fill="#93d500"><path d="m32.127 45.008.015-.008-.015.008zm-.008.004zM32.14 45c.029-.016.058-.031.086-.048l-.002-.003a14.52 14.52 0 0 0-.084.05zm-.013.008-.004.004.004-.004zm-.021-.022.013.026zm.021.022.015-.008a.12.12 0 0 0-.015.008zm-.008.004-.004.004zm0 0zm.004 0-.002.001.006-.003a.01.01 0 0 1-.004.002z"/><path d="M32.14 45c.029-.018.057-.032.085-.049-.028.017-.056.032-.085.048zm.086-.052v.004-.004zm-.116.068zm.005 0h-.005z"/><path d="m32.003 44.584-.221-.367-6.08-10.094c-.124.074-.25.14-.375.209a8.635 8.635 0 0 1-4.083 1.03 8.61 8.61 0 0 1-2.46-.36c-.137-.04-.27-.094-.406-.142-.135-.047-.271-.088-.404-.143l-4.484 10.89-.176.426-.15.366-.001.001.035.014.037.014h.001l.009.004c.105.043.212.08.318.122.134.052.267.104.4.153.069.025.137.054.205.078 1.405.496 2.858.844 4.336 1.038l.173.023.182.02c.114.013.228.026.342.037l.085.008c.14.013.28.025.42.035.047.003.095.005.142.009.123.008.245.016.368.021l.225.01.292.01c.14.003.282.004.423.005h.1c1.18 0 2.36-.097 3.527-.293l.06-.01c.123-.02.246-.044.37-.066l.21-.041.217-.046c.12-.025.24-.051.36-.079l.066-.015a21.362 21.362 0 0 0 5.098-1.9v-.001c.105-.056.208-.12.313-.176.125-.069.25-.14.374-.21.086-.05.173-.095.258-.146l.003-.003c.002 0 .003 0 .005-.002l.001-.001-.015-.027.015.027.003-.001.004-.002.014-.009.084-.05zm-16.2-24.508a8.85 8.85 0 0 1 .299-.23l-.023-.038L9.565 8.994c-.302.198-.601.401-.893.615-.63.464-1.24.968-1.826 1.51l8.922 8.922z"/></g><path fill="#4d5a31" d="M6.227 11.712c-.102.101-.198.206-.297.31s-.2.204-.296.309c-.66.713-1.262 1.46-1.805 2.237l-.078.112a21.005 21.005 0 0 0-.432.652 21.203 21.203 0 0 0-3.3 10.553c-.005.143-.008.286-.011.429S0 26.599 0 26.742h12.637c0-.143.013-.285.02-.428s.01-.287.024-.429a8.576 8.576 0 0 1 1.905-4.602c.09-.11.192-.212.288-.318.096-.106.185-.216.288-.318zM32.299 8.58l-.052-.032c-.111-.068-.224-.134-.336-.2l-.196-.11a26.467 26.467 0 0 0-.54-.295l-.055-.029a21.251 21.251 0 0 0-2.849-1.233 21.33 21.33 0 0 0-4.435-1.035l-.178-.02a18.258 18.258 0 0 0-.344-.037l-.096-.008a21.85 21.85 0 0 0-.408-.034l-.159-.01a13.685 13.685 0 0 0-.35-.021c-.063-.004-.125-.005-.187-.008v12.668c.65.066 1.294.205 1.919.417l9.322-9.322c-.346-.24-.696-.473-1.056-.692z"/><path fill="#6ba43a" d="m10.512 8.905-.222-.369zm-.222-.369zm10.539-3.042c-.143.003-.286.003-.428.009-.894.036-1.787.127-2.671.275l-.059.01c-.124.022-.247.044-.37.068l-.21.04c-.073.014-.146.03-.218.045-.12.025-.24.051-.36.08l-.066.014a21.38 21.38 0 0 0-5.098 1.901c-.106.056-.208.12-.313.177-.125.068-.249.139-.373.21-.092.053-.186.102-.278.157l-.003.002-.02.01-.072.042v.002l.222.367 6.301 10.461c.123-.074.25-.141.375-.208a8.592 8.592 0 0 1 3.64-1.02c.143-.008.286-.015.43-.015V5.485c-.144 0-.286.006-.429.009z"/><path fill="#4d5a31" d="M42.489 25.699a23.041 23.041 0 0 0-.02-.341l-.012-.17c-.01-.133-.02-.267-.033-.4-.002-.035-.006-.07-.009-.104a25.88 25.88 0 0 0-.052-.483c0-.006 0-.012-.002-.017-.02-.16-.04-.322-.064-.482 0-.005 0-.01-.002-.015a21.237 21.237 0 0 0-.653-2.987l-.006-.02a31.22 31.22 0 0 0-.14-.455l-.02-.06a28.613 28.613 0 0 0-.176-.52 21.726 21.726 0 0 0-.4-1.039c-.03-.075-.062-.15-.094-.225a34.327 34.327 0 0 0-.126-.288l-.073-.162a27.332 27.332 0 0 0-.16-.341c-.016-.035-.032-.07-.05-.104a17.44 17.44 0 0 0-.191-.388l-.028-.054a22.188 22.188 0 0 0-.223-.424l-.008-.015a21.226 21.226 0 0 0-1.21-1.962l-9.325 9.326c.212.625.35 1.269.418 1.918h12.667l-.008-.188z"/><path fill="#6ba43a" d="M29.878 26.744c0 .143-.014.286-.02.429-.008.143-.01.286-.024.428a8.58 8.58 0 0 1-1.906 4.603c-.09.11-.191.212-.288.318-.096.106-.185.216-.287.318l8.935 8.935c.101-.102.197-.207.296-.31s.2-.206.296-.31a21.333 21.333 0 0 0 1.81-2.244l.064-.091.196-.289c.057-.086.114-.172.17-.26.027-.04.054-.084.08-.126a21.194 21.194 0 0 0 3.294-10.544c.005-.143.008-.286.011-.429s.008-.285.008-.428H29.878z"/><path fill="#424143" d="M46.269 1.736a5.917 5.917 0 0 0-9.486 6.814L23.887 21.445a5.92 5.92 0 0 0-6.815 1.114 5.92 5.92 0 0 0 8.372 8.372 5.918 5.918 0 0 0 1.114-6.815l12.895-12.894a5.918 5.918 0 0 0 6.815-9.486z"/></svg>