<svg xmlns="http://www.w3.org/2000/svg" viewBox="0 0 48 48"><path fill="#5dacdf" d="M0 0h48v48H0z"/><g transform="matrix(.375 0 0 .375 -49.015 -189.43)"><rect width="103.21" height="93.811" x="143.09" y="522.24" fill="none" stroke="#fff" stroke-width="4.786" rx="1.857" ry="1.857"/><path fill="#fff" d="M156.58 534.844c-.894 0-1.616.67-1.616 1.5v16.65c0 .83.722 1.502 1.617 1.502h76.227c.889 0 1.616-.676 1.616-1.502v-16.65c0-.83-.722-1.5-1.616-1.5zm9.256 3.984a5.842 5.842 0 0 1 5.842 5.842 5.842 5.842 0 0 1-5.842 5.842 5.842 5.842 0 0 1-5.841-5.842 5.842 5.842 0 0 1 5.84-5.842zm0 2.792a3.051 3.051 0 0 0-3.05 3.05 3.051 3.051 0 0 0 3.05 3.051 3.051 3.051 0 0 0 3.051-3.05 3.051 3.051 0 0 0-3.051-3.051zm-9.256 17.682c-.894 0-1.616.67-1.616 1.5v16.65c0 .831.722 1.502 1.617 1.502h76.227c.889 0 1.616-.675 1.616-1.501v-16.65c0-.83-.722-1.5-1.616-1.5zm9.256 3.984a5.842 5.842 0 0 1 5.842 5.842 5.842 5.842 0 0 1-5.842 5.842 5.842 5.842 0 0 1-5.841-5.842 5.842 5.842 0 0 1 5.84-5.842zm0 2.792a3.051 3.051 0 0 0-3.05 3.05 3.051 3.051 0 0 0 3.05 3.052 3.051 3.051 0 0 0 3.051-3.052 3.051 3.051 0 0 0-3.051-3.05zm-9.256 17.659c-.894 0-1.616.67-1.616 1.5v16.65c0 .83.722 1.502 1.617 1.502h76.227c.889 0 1.616-.676 1.616-1.502v-16.65c0-.83-.722-1.5-1.616-1.5zm9.256 3.984a5.842 5.842 0 0 1 5.842 5.842 5.842 5.842 0 0 1-5.842 5.842 5.842 5.842 0 0 1-5.841-5.842 5.842 5.842 0 0 1 5.84-5.842zm0 2.791a3.051 3.051 0 0 0-3.05 3.051 3.051 3.051 0 0 0 3.05 3.051 3.051 3.051 0 0 0 3.051-3.051 3.051 3.051 0 0 0-3.051-3.05z"/></g></svg>