<svg xmlns="http://www.w3.org/2000/svg" viewBox="0 0 48 48"><g transform="translate(-.001)scale(.37501)"><rect width="78.77" height="70.89" x="49.23" y="45.29" fill="#626262" rx="4" ry="4"/><rect width="31.5" height="70.89" x="96.49" y="45.29" fill="#7d4aef" rx="4" ry="4"/><circle cx="112.25" cy="27.56" r="15.75" fill="#7d4aef"/><rect width="31.51" height="70.89" x="49.23" y="45.29" fill="#42a5f5" rx="4" ry="4"/><circle cx="64.99" cy="27.56" r="15.75" fill="#42a5f5"/><path fill="#ffb300" d="M45.42 83.96c-14.641 12.159-27.819 20.389-40.356 30.885-3.243 2.741-5.061.89-5.061-2.09L.1 48.459c-.005-3.37 1.101-4.235 4.368-1.695 14.406 11.201 26.348 19.69 40.754 30.89 2.685 1.987 2.69 4.32.197 6.306z"/></g></svg>
