<svg xmlns="http://www.w3.org/2000/svg" width="48" height="48" viewBox="0 0 12.7 12.7"><defs><clipPath id="a" clipPathUnits="userSpaceOnUse"><path d="M0 0h792v612H0Z"/></clipPath></defs><g clip-path="url(#a)" transform="matrix(.28579 0 0 -.28579 -60.633 55.697)"><path d="M0 0a3.016 3.016 0 1 1 0-6.031A3.016 3.016 0 0 1 0 0" style="fill:#00ace2;fill-opacity:1;fill-rule:nonzero;stroke:none" transform="translate(234.381 171.686)"/><path d="m0 0 3.139-3.139a21.7 21.7 0 0 0 15.387 6.37 21.705 21.705 0 0 0 15.388-6.37L37.053 0c-4.74 4.74-11.294 7.694-18.527 7.694C11.294 7.694 4.739 4.74 0 0" style="fill:#00ace2;fill-opacity:1;fill-rule:nonzero;stroke:none" transform="translate(215.855 187.197)"/><path d="m0 0 3.139-3.139A13.725 13.725 0 0 0 12.863.892a13.73 13.73 0 0 0 9.726-4.031L25.729 0c-3.293 3.293-7.848 5.356-12.864 5.356C7.848 5.356 3.294 3.294.001 0" style="fill:#00ace2;fill-opacity:1;fill-rule:nonzero;stroke:none" transform="translate(221.517 181.534)"/><path d="m0 0 3.139-3.139a5.795 5.795 0 0 0 8.186 0L14.464 0a10.183 10.183 0 0 1-7.232 2.985C4.432 2.985 1.876 1.846 0 0" style="fill:#00ace2;fill-opacity:1;fill-rule:nonzero;stroke:none" transform="translate(227.149 175.902)"/><path d="M0 0a13.696 13.696 0 0 0 2.647-8.094c0-7.601-6.186-13.787-13.787-13.787-7.602 0-13.787 6.186-13.787 13.787 0 3.016.984 5.817 2.646 8.094l-3.17 3.17a18.055 18.055 0 0 1-3.908-11.264c0-10.032 8.186-18.218 18.219-18.218 10.032 0 18.218 8.186 18.218 18.218C7.078-3.847 5.601.062 3.17 3.17z" style="fill:#002843;fill-opacity:1;fill-rule:nonzero;stroke:none" transform="translate(245.522 176.764)"/></g></svg>