<svg xmlns="http://www.w3.org/2000/svg" viewBox="0 0 48 48"><path fill="#fdfcd1" d="M10.708 30.046c-.83-.284-1.529-1.241-1.772-2.425a8.3 8.3 0 0 1-.124-1.31c0-.77.172-1.929.425-2.87a13.3 13.3 0 0 1 2.333-4.653l.25-.316c.53-.669 1.417-1.515 2.232-2.13.44-.332 1.018-.7 1.602-1.02.446-.243 1.283-.62 1.41-.633.11-.012.101.054-.032.252-.12.178-.3.513-.424.785-.397.878-.49 1.78-.247 2.38.183.453.65.822 1.174.927.656.131 1.314-.11 1.7-.62a1.6 1.6 0 0 0 .308-.722c.184-.987.345-1.524.64-2.135.331-.683.662-1.154 1.137-1.617.41-.4.717-.625 1.13-.83.13-.064.24-.117.244-.117s.007 1.107.007 2.46v2.461l.057.165c.122.353.378.631.742.807.432.208.945.243 1.4.094.143-.047.445-.21.566-.305.126-.1.271-.3.372-.513.168-.356.16-.236.165-2.803.002-1.661.01-2.317.03-2.317.085 0 .623.37.957.658.659.569 1.325 1.595 1.638 2.525.143.424.192.624.282 1.136.1.573.178.773.408 1.06.212.264.51.462.869.574.261.082.692.095.956.028.778-.196 1.241-.823 1.243-1.68 0-.466-.146-1.128-.36-1.624a8 8 0 0 0-.517-.936c-.051-.08-.087-.155-.08-.168.084-.134 1.645.6 2.533 1.191.704.469 1.306.966 1.974 1.634a13.4 13.4 0 0 1 2.229 2.895c.659 1.133 1.072 2.165 1.429 3.564.257 1.012.335 1.573.335 2.436 0 .92-.103 1.516-.373 2.163-.291.699-.707 1.16-1.337 1.485l-.207.107-27.145.01zm5.248-6.652c.772-.195 1.224-.196 1.958-.007.27.07.388.089.57.09.255.002.39-.012.39-.038 0-.02.098-.058.127-.05q.017.001.018-.024.002-.024.015-.014c.013.01.042-.014.075-.05s.052-.05.042-.029c-.01.02.014.004.052-.036a.5.5 0 0 0 .072-.086c0-.006.036-.06.078-.118.144-.196.19-.348.187-.635-.001-.207-.012-.28-.056-.389-.095-.23-.304-.514-.555-.755a2.9 2.9 0 0 0-.826-.575c-.916-.434-2.087-.284-2.973.381-.194.146-.548.504-.65.658-.047.073-.099.141-.113.15s-.026.032-.026.05c0 .016-.027.096-.059.176-.046.116-.06.197-.064.393a1.4 1.4 0 0 1-.021.273q-.014.024.016.014c.042-.016.1.127.059.144q-.023.01.013.013c.022 0 .048.025.057.052.009.028.086.125.171.216.245.26.52.355.896.31.093-.01.34-.062.547-.114m16.583.107a.94.94 0 0 0 .428-.217c.05-.046.1-.076.11-.066q.016.015.01-.007a.4.4 0 0 1 .072-.144c.175-.27.226-.522.164-.802-.125-.56-.65-1.14-1.359-1.504-.088-.045-.154-.088-.147-.096q.01-.011-.019-.01a2 2 0 0 1-.3-.086c-.535-.177-.993-.186-1.62-.029a2.8 2.8 0 0 0-1.077.533c-.2.156-.428.378-.53.516-.032.043-.066.07-.076.06q-.015-.015-.01.007c.009.025-.095.208-.132.233-.012.009-.02.025-.019.037.005.04-.055.25-.07.241-.007-.004-.016.07-.02.168a1.5 1.5 0 0 1-.03.255c-.027.095.035.28.087.26q.032-.013.017.026-.014.038.012.023c.025-.016.07.07.059.114q-.003.016.019.004.023-.012.025.006c0 .033.245.268.34.326.308.186.59.196 1.313.046.466-.097.523-.103.899-.104.409-.001.531.015.984.13.486.124.645.138.87.08m-4.609-.792a.13.13 0 0 1 .01-.091c.02-.033.023-.03.018.01a.14.14 0 0 0 .012.077c.01.016.008.035-.004.043s-.028-.01-.036-.04"/><path fill="#86d6be" d="M23.212 35.893c-8.248-.1-15.782-1.64-19.263-3.934a5.7 5.7 0 0 1-.942-.751c-.41-.399-.654-.765-.744-1.118-.132-.52.109-1.063.744-1.68.573-.556 1.256-1.004 2.293-1.506.568-.275.534-.263.537-.184.004.09.03.359.047.489l.044.328c.018.12.042.264.055.328.007.033.016.088.02.122.004.033.01.06.013.06s.009.022.014.049c.004.027.015.081.023.121s.015.092.015.115.011.049.024.057.017.023.01.035c-.007.011 0 .051.014.09a1 1 0 0 1 .058.214c.004.027.01.051.013.054a.1.1 0 0 1 .012.03l.012.037.013.037.012.036.012.037.012.042c.003.01.005.026.004.035-.002.01.015.058.037.11s.043.107.047.124c.003.018.014.051.023.073.01.023.02.053.024.067.016.076.376.816.416.856.018.018.032.043.032.056s.03.07.067.126l.09.142a4 4 0 0 0 .305.414c.158.2.412.464.597.62l.193.166c.109.093.526.368.59.387.03.01.054.03.054.044q.001.024.016.01c.015-.013.085.023.168.07.084.046.168.084.189.084s.07.033.11.073.083.073.096.073.028.01.033.024a.6.6 0 0 0 .178.085c.16.058.222.076.34.098l.11.024.862.073.182.054c1.395.416 4.409.745 8.3.905 1.644.068 2.577.084 4.909.084s3.264-.016 4.909-.084c3.89-.16 6.904-.489 8.3-.905l.181-.054-.802-.014c-.789-.013-.782-.014.414-.018 1.293-.004 1.402-.008 1.664-.062l.14-.025a.5.5 0 0 0 .127-.039c.027-.014.05-.02.05-.012 0 .007.022.002.05-.013a.4.4 0 0 1 .09-.035c.023-.005.069-.02.102-.032s.07-.025.08-.026a.8.8 0 0 0 .188-.1c.006-.008.105-.061.218-.118.114-.057.262-.136.328-.175.067-.039.152-.085.189-.101s.067-.04.067-.05.016-.018.036-.018.037-.011.037-.025c0-.013.013-.024.03-.024.028 0 .075-.034.357-.26.125-.1.616-.606.745-.767.015-.018.075-.104.133-.19s.112-.162.12-.168a1 1 0 0 0 .074-.122c.033-.06.066-.115.075-.121s.05-.084.092-.17.086-.175.098-.195a1.5 1.5 0 0 0 .147-.343c0-.024.01-.05.022-.057.013-.007.03-.049.04-.092.01-.044.028-.106.042-.14a1 1 0 0 0 .031-.085c.004-.013.023-.07.044-.127s.031-.104.023-.104c-.007 0-.002-.013.011-.03a.3.3 0 0 0 .038-.103c.018-.101.048-.221.087-.351.014-.046.02-.089.015-.094s-.001-.03.01-.052a.7.7 0 0 0 .038-.16c.009-.067.02-.143.025-.17.01-.053.028-.162.048-.285l.024-.189.049-.425q.009-.07.04-.065c.06.015.597.32.883.503.416.266.71.494 1.023.796.663.637.91 1.18.775 1.708-.165.648-.912 1.414-2.038 2.088-3.2 1.917-9.151 3.255-16.103 3.62a79 79 0 0 1-4.387.095z"/><path fill="#78c0ab" d="M22.204 33.877c-5.273-.1-9.431-.467-11.18-.988l-.566-.13 4.085.011c4.894.013 15.97-.088 19.924-.003l3.457-.023-.448.136c-1.574.476-4.98.81-9.743.964-.74.024-4.744.048-5.529.033z"/><path fill="#030a12" d="M22.47 38.106c-4.668-.11-8.694-.575-12.394-1.431-2.605-.603-5.055-1.488-6.663-2.408Q.511 32.606.048 30.49c-.065-.294-.065-1.066 0-1.36.27-1.237 1.153-2.346 2.664-3.344.823-.544 1.582-.934 2.722-1.398l.522-.213.066-.463c.272-1.912.837-3.487 1.873-5.215a15 15 0 0 1 2.374-3.028c1.351-1.355 2.792-2.382 4.67-3.328 1.533-.772 3.076-1.315 4.938-1.736 2.949-.667 6.27-.688 9.276-.059a22 22 0 0 1 2.977.866c2.239.86 4.035 1.917 5.667 3.336a27 27 0 0 1 1.687 1.689c1.38 1.59 2.293 3.206 2.866 5.07.262.854.52 2.142.62 3.099l.016.149.283.128c2.469 1.112 4.037 2.488 4.557 3.997.147.429.174.6.174 1.13s-.027.7-.174 1.13c-.238.69-.622 1.26-1.277 1.896-.977.95-2.301 1.734-4.211 2.495-1.152.46-2.936 1.004-4.411 1.345-3.371.78-6.999 1.232-11.204 1.397-.618.025-3.63.048-4.253.033zm4.083-2.245c.327-.014.89-.042 1.251-.062 5.903-.327 11.077-1.354 14.465-2.87 1.708-.763 2.894-1.64 3.333-2.464.129-.24.182-.434.182-.656 0-.441-.256-.906-.779-1.412-.13-.127-.324-.3-.43-.384-.331-.263-1.023-.7-1.438-.91l-.124-.062-.042.357c-.196 1.675-.631 2.805-1.434 3.72-.449.511-.834.805-1.56 1.189-.634.335-.967.43-1.638.467-.237.013-6.07.02-14.302.017l-13.9-.005-.241-.056q-.439-.102-.618-.244a2 2 0 0 0-.309-.175 4.9 4.9 0 0 1-1.66-1.323c-.306-.372-.718-1.113-.913-1.644-.26-.705-.395-1.354-.54-2.591-.007-.057-.022-.103-.033-.103-.04 0-.704.316-1.003.477-.827.446-1.345.807-1.824 1.27-.522.505-.778.97-.778 1.412s.256.907.778 1.412c.277.268.488.44.81.66 3.189 2.181 9.954 3.699 17.74 3.98l.984.033c.531.016 3.44-.008 4.023-.033zm11.68-5.87c.45-.227.742-.488 1.034-.924.463-.69.68-1.56.682-2.721.001-.868-.077-1.427-.346-2.479-.298-1.162-.654-2.113-1.132-3.022-.42-.799-1.062-1.769-1.587-2.397-.856-1.026-1.785-1.886-2.773-2.569-.99-.683-2.65-1.459-2.692-1.256-.005.022.051.131.124.243.174.268.431.762.523 1.005.28.742.37 1.576.222 2.042-.167.523-.514.887-1.003 1.049-.178.059-.237.066-.54.067-.383.002-.542-.03-.826-.166a1.61 1.61 0 0 1-.87-.974 7 7 0 0 1-.115-.535c-.096-.533-.125-.655-.233-.988-.316-.98-.991-2.052-1.672-2.652-.354-.313-.918-.698-1.022-.698-.034 0-.038.237-.037 2.333 0 2.613.009 2.486-.176 2.865-.173.354-.45.584-.887.74-.204.073-.23.076-.59.076-.427 0-.536-.024-.862-.188-.233-.116-.483-.353-.584-.552-.154-.304-.146-.14-.146-2.836 0-1.353-.008-2.466-.016-2.474-.022-.022-.385.164-.628.322a4.3 4.3 0 0 0-.774.625c-.687.667-1.23 1.597-1.546 2.648q-.117.387-.234 1.083c-.032.196-.11.443-.176.557a3 3 0 0 1-.178.247c-.275.341-.69.544-1.175.574a1.6 1.6 0 0 1-.863-.175c-.65-.32-.915-.814-.878-1.64.031-.714.325-1.555.798-2.282.179-.274.156-.326-.103-.235-.847.297-2.207 1.069-3.057 1.735-1.128.883-1.95 1.758-2.829 3.009-.54.77-1.104 1.85-1.463 2.803-.182.48-.203.546-.327.977-.472 1.644-.6 3.194-.364 4.377.175.876.657 1.722 1.222 2.147.158.119.475.288.634.339.079.025 2.724.03 13.662.026l13.564-.004zm-23.195-6.5a1.08 1.08 0 0 1-.713-.576 1.1 1.1 0 0 1-.07-.668c.168-.73 1.093-1.502 2.07-1.726.188-.043.304-.052.665-.053.395 0 .46.006.673.064.745.2 1.478.785 1.773 1.416.191.407.101.904-.223 1.23-.209.21-.347.27-.646.283-.224.01-.28.002-.652-.09-.758-.186-1.21-.183-1.98.012-.445.113-.717.145-.897.107m17.02.006c-.04-.006-.248-.055-.462-.108a2.8 2.8 0 0 0-.79-.11c-.428-.013-.6.007-1.276.15-.603.126-.95.053-1.268-.271a.98.98 0 0 1-.296-.642c-.01-.227.024-.403.118-.602.25-.53.92-1.077 1.592-1.303.392-.132.977-.19 1.377-.137.905.121 1.906.848 2.2 1.598.055.14.066.205.066.41.001.201-.008.263-.054.364-.144.319-.37.532-.653.62-.15.046-.366.058-.555.03"/></svg>