<svg xmlns="http://www.w3.org/2000/svg" viewBox="0 0 48 48"><path fill="#005eb8" d="M46.303 17.625c-.937 0-1.697.76-1.697 1.697 0 13.964-11.32 25.284-25.284 25.284a1.697 1.697 0 1 0 0 3.394C35.16 48 48 35.16 48 19.322c0-.937-.76-1.697-1.697-1.697Z"/><path fill="#003b5c" d="M36.061 28.5c1.632-2.662 3.21-6.212 2.9-11.18C38.317 7.024 28.994-.784 20.19.062c-3.447.331-6.986 3.14-6.671 8.172.136 2.187 1.206 3.478 2.946 4.47 1.655.944 3.782 1.543 6.194 2.22 2.912.82 6.29 1.74 8.887 3.654 3.112 2.293 5.24 4.952 4.514 9.921z"/><path fill="#005eb8" d="M2.939 10.5c-1.632 2.662-3.21 6.212-2.9 11.18.644 10.295 9.967 18.103 18.77 17.257 3.447-.331 6.986-3.14 6.671-8.172-.136-2.187-1.206-3.478-2.946-4.47-1.655-.944-3.782-1.543-6.194-2.22-2.912-.82-6.29-1.74-8.887-3.654-3.112-2.293-5.24-4.952-4.514-9.921Z"/></svg>