<svg xmlns="http://www.w3.org/2000/svg" viewBox="0 0 48 48"><g fill-rule="evenodd" clip-rule="evenodd"><path fill="#e64a19" d="m2.484 34.267 18.781-18.795L24 12.737l2.735 2.735L40.6 29.336l-.02.07-.274.805-.31.786-.349.768-.384.749-.35.606L24 18.207 4.479 37.742c-.752-1.106-1.45-2.246-1.996-3.475z"/><path fill="#474747" d="M24 0c13.22 0 24 10.78 24 24S37.22 48 24 48c-7.22 0-13.712-3.219-18.118-8.293l.848-.851.616-.616.617-.618.617-.617.025-.025c3.701 4.383 9.231 7.176 15.395 7.176 11.101 0 20.156-9.054 20.156-20.156C44.156 12.898 35.1 3.844 24 3.844S3.844 12.898 3.844 24c0 1.496.167 2.952.478 4.357l-1.337 1.34L1.2 31.483A23.844 23.844 0 0 1 0 24.001C0 10.78 10.78 0 24 0z"/></g></svg>