<svg xmlns="http://www.w3.org/2000/svg" viewBox="0 0 48 48"><path fill="#0d1a2b" fill-rule="evenodd" d="M25.62.417a3.367 3.367 0 0 0-3.243 0L5.757 9.552a3.817 3.817 0 0 0-.041.023l-2.188 1.202a3.367 3.367 0 0 0-1.745 2.95v20.548c0 1.228.668 2.359 1.745 2.95l16.777 9.222.065.034 2.007 1.104a3.367 3.367 0 0 0 3.243 0l2.012-1.106.06-.032 16.777-9.222a3.367 3.367 0 0 0 1.746-2.95V13.728a3.367 3.367 0 0 0-1.746-2.95l-2.18-1.2a2.861 2.861 0 0 0-.049-.026zM26.688 24l15.552-8.548.047-.026.186-.102a.777.777 0 0 1 1.151.68v15.993c0 .591-.633.966-1.15.68l-.144-.078a5.393 5.393 0 0 0-.09-.051zm-20.97-8.57.04.023L21.308 24 5.757 32.548a5.07 5.07 0 0 0-.086.05l-.147.08a.777.777 0 0 1-1.151-.68V16.005c0-.59.633-.965 1.15-.68zm35.298-3.596L26.444 3.825a.777.777 0 0 0-1.15.658v17.328l15.721-8.641a.777.777 0 0 0 0-1.336zm-34.03 1.338 15.717 8.64V4.482a.777.777 0 0 0-1.15-.657L6.984 11.833a.777.777 0 0 0 0 1.34zm.019 23.008a.777.777 0 0 1-.041-1.338l15.739-8.651v17.328a.777.777 0 0 1-1.12.674zm18.288 7.316V26.19l15.742 8.652a.777.777 0 0 1-.043 1.337l-14.577 8.012a.777.777 0 0 1-1.122-.673v-.023z" clip-rule="evenodd"/><path fill="#e7c200" d="M23.627 2.685a.777.777 0 0 1 .748 0l16.62 9.135a.777.777 0 0 1 0 1.362l-16.62 9.135a.776.776 0 0 1-.748 0l-16.62-9.135a.777.777 0 0 1 0-1.362z"/><path fill="#ffda18" d="M4.374 16.004c0-.591.633-.966 1.151-.681l16.777 9.221a.777.777 0 0 1 .403.681v18.27c0 .59-.633.965-1.151.68l-16.778-9.22a.777.777 0 0 1-.402-.682z"/><path fill="#fff" d="M42.475 15.323a.777.777 0 0 1 1.15.68v18.27a.777.777 0 0 1-.402.681l-16.777 9.222a.777.777 0 0 1-1.152-.681v-18.27c0-.283.155-.544.403-.68z"/><path fill="#0d1a2b" d="m11.42 30.339-.002.025-3.933-2.07.002-.025c.091-1.223 1.046-1.752 2.132-1.18 1.086.57 1.892 2.026 1.801 3.25zM17.609 33.91l-.002.025-3.933-2.069.002-.025c.09-1.224 1.045-1.753 2.131-1.181 1.086.57 1.893 2.026 1.801 3.25z"/></svg>
