<svg xmlns="http://www.w3.org/2000/svg" viewBox="0 0 48 48"><path fill="#0099b0" d="m47.74 23.05-5.894-1.097a.51.51 0 0 1-.349-.3L39.69 17.44a.489.489 0 0 1 .03-.456l3.433-5.005a.334.334 0 0 0-.038-.407l-4.289-4.289a.332.332 0 0 0-.406-.038l-5.093 3.495a.503.503 0 0 1-.458.033L28.784 9.1a.499.499 0 0 1-.302-.345l-1.134-6.096a.333.333 0 0 0-.315-.261h-6.066a.333.333 0 0 0-.314.261L19.52 8.755a.498.498 0 0 1-.301.345l-4.086 1.672a.503.503 0 0 1-.458-.033L9.582 7.244a.333.333 0 0 0-.407.038l-4.29 4.289a.333.333 0 0 0-.037.407l3.434 5.005a.492.492 0 0 1 .028.456l-1.807 4.214a.507.507 0 0 1-.348.3L.26 23.05a.334.334 0 0 0-.261.315v6.066c0 .146.118.288.262.314l5.748 1.07a.487.487 0 0 1 .342.302L8.146 35.6a.503.503 0 0 1-.034.457l-3.265 4.759a.335.335 0 0 0 .038.407l4.29 4.29a.334.334 0 0 0 .406.037l4.675-3.208a.459.459 0 0 1 .448-.016l2.061 1.1c.13.068.283.011.34-.124l4.25-10.27a.321.321 0 0 0-.125-.384l-.516-.316a2.442 2.442 0 0 1-.326-.25 6.708 6.708 0 1 1 7.224 0c-.1.092-.23.192-.326.25l-.515.316a.322.322 0 0 0-.125.384l4.25 10.27a.242.242 0 0 0 .339.125l2.061-1.1a.458.458 0 0 1 .448.015l4.675 3.208c.12.082.304.066.407-.037l4.29-4.29a.334.334 0 0 0 .037-.407l-3.266-4.758a.505.505 0 0 1-.033-.458l1.794-4.483a.486.486 0 0 1 .341-.302l5.749-1.07a.333.333 0 0 0 .261-.315L48 23.364a.333.333 0 0 0-.26-.315" style="stroke-width:.358509"/></svg>