<svg xmlns="http://www.w3.org/2000/svg" xmlns:xlink="http://www.w3.org/1999/xlink" viewBox="0 0 48 48"><linearGradient id="openbsd_svg__a"><stop offset="0" stop-color="#fff68e"/><stop offset=".5" stop-color="#faea82"/><stop offset="1" stop-color="#d6aa4a"/></linearGradient><radialGradient xlink:href="#openbsd_svg__a" id="openbsd_svg__m" cx="497.43" cy="348.2" r="9.247" gradientTransform="matrix(.39649 0 0 .77025 199.24 17.699)" gradientUnits="userSpaceOnUse"/><radialGradient xlink:href="#openbsd_svg__a" id="openbsd_svg__l" cx="488.7" cy="285.97" r="7.616" gradientTransform="matrix(.32864 0 0 .92928 199.24 17.699)" gradientUnits="userSpaceOnUse"/><radialGradient xlink:href="#openbsd_svg__a" id="openbsd_svg__k" cx="501.06" cy="394.91" r="8.932" gradientTransform="matrix(.46705 0 0 .65388 199.24 17.699)" gradientUnits="userSpaceOnUse"/><radialGradient xlink:href="#openbsd_svg__a" id="openbsd_svg__j" cx="338.42" cy="292.83" r="7.609" gradientTransform="matrix(.35939 0 0 .84976 199.24 17.699)" gradientUnits="userSpaceOnUse"/><radialGradient xlink:href="#openbsd_svg__a" id="openbsd_svg__i" cx="492.17" cy="412.91" r="8.303" gradientTransform="translate(199.24 17.699) scale(.55263)" gradientUnits="userSpaceOnUse"/><radialGradient xlink:href="#openbsd_svg__a" id="openbsd_svg__h" cx="178.34" cy="341.68" r="10.078" gradientTransform="matrix(.47601 0 0 .64158 199.24 17.699)" gradientUnits="userSpaceOnUse"/><radialGradient xlink:href="#openbsd_svg__a" id="openbsd_svg__g" cx="509.23" cy="353.12" r="248.78" gradientTransform="matrix(.54751 0 0 .5578 199.24 17.699)" gradientUnits="userSpaceOnUse"/><radialGradient xlink:href="#openbsd_svg__a" id="openbsd_svg__f" cx="507.45" cy="320.44" r="25.233" gradientTransform="matrix(.55139 0 0 .55387 199.24 17.699)" gradientUnits="userSpaceOnUse"/><radialGradient xlink:href="#openbsd_svg__a" id="openbsd_svg__e" cx="429.5" cy="326.19" r="23.596" gradientTransform="matrix(.65364 0 0 .46723 199.24 17.699)" gradientUnits="userSpaceOnUse"/><radialGradient xlink:href="#openbsd_svg__a" id="openbsd_svg__d" cx="551.65" cy="183.26" r="9.608" gradientTransform="matrix(.52102 0 0 .58615 199.24 17.699)" gradientUnits="userSpaceOnUse"/><radialGradient xlink:href="#openbsd_svg__a" id="openbsd_svg__c" cx="364.33" cy="234.71" r="21.186" gradientTransform="matrix(.69902 0 0 .4369 199.24 17.699)" gradientUnits="userSpaceOnUse"/><radialGradient id="openbsd_svg__b" cx="359.25" cy="159.95" r="145.69" gradientTransform="matrix(1 0 0 1.0475 0 -7.597)" gradientUnits="userSpaceOnUse"><stop offset="0" stop-color="#fff68e"/><stop offset=".731" stop-color="#eed26a"/><stop offset="1" stop-color="#d6aa4a"/></radialGradient><path d="M27.388 3.306c-.405.941-.291 2.039-.586 3.017-.068.225-.29.906-.617.858-.666-.096-.32-1.375-1.09-1.401l.242 1.87c-1.155.145-.997-1.658-1.466-2.39-.541-.845-.671.383-.635.761.023.243.072.483.1.724.051.42.063.787.01 1.207-1.103-.013-.698-1.466-1.508-1.69l.06 1.75c-1.223-.01-1.78-1.114-2.318-2.05-.224-.392-.523-1.147-1.06-.906.251 1.087.846 2.127.907 3.258.016.292-.26 1.034-.666.898-.936-.316-.81-2.015-1.591-2.462-.158-.09-.407-.012-.58-.004 0 .901.396 1.99.712 2.835.067.181.258.82-.138.808-.706-.021-.882-1.392-1.6-1.23.088.37.307.67.43 1.025.074.218.213.437.253.664.088.495-.539.535-.864.439-.769-.227-1.32-.855-1.87-1.404-.153-.153-.555-.689-.808-.445-.283.27.271.746.429.927.47.543.977 1.179 1.201 1.87.097.298.116.72-.18.924-.292.202-.768-.165-1.004-.32-.724-.476-1.443-1.308-2.353-1.328l-.214.543.581.785 1.503 1.689-1.75-.724c.07.457 1.167 1.012.95 1.483-.127.28-.76.284-1.01.248-.892-.127-1.523-.79-2.353-1.029-.733-.21-.596.358-.18.686.143.114.282.234.421.354.251.215.49.437.724.671.366.366.687.757 1.026 1.146l-1.75-.06v.12l1.69.785-.302 1.206c-.488 0-.883-.134-1.327-.327-.303-.131-.622-.35-.966-.326-.41.029-.655.404-.38.755.413.525 1.24.824 1.768 1.234.201.156.493.423.265.69-.45.526-1.663-.15-2.256.026v.12c.55.321 1.678.505 2.002 1.097.253.463-.467 1.512-.976 1.471-.454-.036-.872-.549-1.207-.818-.802-.644-1.66-1.402-2.594-1.846-1.603-.762-3.194.451-4.465 1.242.163.513.804-.033 1.207.059.542.123.954.627 1.302 1.027 1.68 1.935 3.085 4.128 3.713 6.637.165.66.448 1.45-.046 2.042-.132.159-.33.18-.476.31-.109.098-.103.237.047.283.276.084.679-.044.95-.11.886-.213 1.896-.69 2.299-1.56.25-.541.338-1.594.959-1.81.137.58.79 1.347.726 1.93-.057.519-.603 1.12-.922 1.503-.113.136-.386.434-.222.63.162.193.498-.225.599-.32.458-.433 1.458-1.116 1.73-.123.236.862-.523 2.257-.902 3.016-.105.211-.591.871-.402 1.106.22.272.677-.435.774-.563.38-.498 1.712-1.974 2.42-1.443.862.646.565 1.109.238 1.986-.092.247-.433.867-.201 1.102.224.227.517.019.632-.198.207-.393.764-1.56 1.321-1.261.35.186.883.502 1.085.85.318.544.042 1.63-.043 2.222-.048.34-.415 1.403-.11 1.649.28.227.507-.456.592-.624.297-.59.639-1.194 1.081-1.689.159-.177.383-.475.653-.424 1.401.262-.03 1.658.545 2.37.116.145.432.134.601.166l.724-1.87c.368.141.91.19 1.182.495.228.256.273.688.339 1.013.184.908.285 1.792.169 2.715.114.082.295.274.449.175.195-.124.22-.63.286-.839.213-.666.538-1.302.84-1.93.198-.415.74-.856 1.13-.285.402.584.241 1.607.492 2.275.64-.315.71-1.65.724-2.292l.831.121.5 1.025.901 2.594c.467-.178.32-1.076.371-1.508.071-.586.207-1.762.637-2.198.173-.176.517-.19.742-.276.256.625.396 1.333.706 1.93.12.233.396.484.675.341.266-.136.256-.448.222-.702-.084-.625-.226-1.24-.276-1.87 1.196-.085 1.898.882 2.65 1.689.29.312.542.725.97.845l-.62-1.81-.346-1.69c.434-.181 1.353-1.069 1.81-.94.682.193 1.202 2.092 2.048 1.645.36-.19.174-.513.005-.765-.252-.375-1.011-1.277-.929-1.75.061-.349.646-.756.988-.751.782.01 2.142.606 2.594 1.234l.543-.06c-.081-1.08-1.7-1.573-1.931-2.654a.809.809 0 0 1 .007-.345c.172-.694.589-.39 1.02-.205.133.059.427.208.538.041.122-.183-.095-.424-.174-.577-.163-.313-.312-.674-.244-1.026.564.147.911.483 1.387.8.113.074.361.262.503.157.15-.11-.07-.332-.142-.414-.212-.247-.863-.842-.8-1.201.044-.243.454-.503.62-.67.552-.55 1.18-1.111 1.63-1.749h.06c1.065 1.243 4.406.371 3.981-1.508-.265.038-.512.247-.784.153-1.188-.41-.901-2.313-2.232-2.325-.098-1.24-.597-2.481-1.198-3.56-.276-.494-.85-.946-1.05-1.45-.11-.279-.092-.721-.105-1.023.698-.109.354-.815.1-1.206-.283-.437-.583-.954-.95-1.322-.452-.452-1.124-.747-1.066-1.514.054-.714 1.285-.623 1.494-1.267-.365.016-.726.106-1.086.166-.897.15-1.053-.152-.634-.95.366-.697.948-1.227 1.461-1.81.164-.187.671-.612.41-.882-.216-.224-.572.117-.755.239a8.456 8.456 0 0 1-2.172 1.003c-.227.07-.896.333-.972-.07-.102-.543.926-.644.791-1.255-.41.098-1.22.747-1.615.446-.475-.362.223-1.287.298-1.713.076-.432-.271-.447-.516-.178-.085.095-.163.198-.242.299-.136.173-.25.34-.338.542-.988-.576.882-1.247.53-1.78-.126-.19-.357 0-.47.098-.234.205-1.116 1.221-1.307.476-.213-.825.216-1.816.438-2.594.057-.203.32-.752.065-.898-.37-.213-.533.506-.62.717-.267.649-.709 1.213-1.23 1.679-.172.153-.463.45-.72.38-.374-.103-.375-1.14-.363-1.456.005-.15.09-.411-.057-.52-.193-.143-.293.143-.322.279-.093.444-.369 1.713-1.027.881-.596-.753.326-2.314-.89-2.63l-.663 2.11c-.795-.173-.619-1.31-.422-1.93l-.362-.12a6.608 6.608 0 0 1-.223.723c-.321.903-.751 1.078-1.083.06-.253-.776-.163-1.614-.29-2.412-.05-.319-.08-.642-.395-.785z"/><path fill="url(#openbsd_svg__b)" d="M389.04 30.214c-.246 11.919-3.845 20.849-17.103 20.858l4.589 18.772c-4.979-5.217-6.794-12.52-9.039-19.189-1.425-4.233-3.24-8.487-3.893-12.932h-.417c.155 7.53 1.743 15.003.23 22.526-.833 4.136-3.164 7.35-4.402 11.263h-.417l2.503-18.355c-9.313.736-17.353 2.147-23.455-6.675-1.326-1.916-2.35-4.11-3.243-6.257h-.417c1.045 6.98 7.261 15.125-.038 20.98-1.114.894-2.401 1.443-3.717 1.964l6.595 9.996 3.834 5.022c-10.554-6.99-16.832-19.162-22.109-30.452h-.417c1.346 8.985 6.806 17.107 8.165 26.28.472 3.188 1.706 7.697-1.073 10.013l-3.338-15.852c-4.859 2.52-8.598 10.099-15.018 9.03-2.73-.456-4.94-2.666-7.508-3.607 1.209 3.821 4.557 7.435 2.647 11.68-.706 1.57-2.085 2.774-3.065 4.171l13.35 5.006c-2.436 2.915-7.508.627-10.43-.743-5.538-2.596-10.467-6.026-15.435-9.564-2.823-2.01-6.144-4.877-9.594-5.544 2.124 4.555 7.578 8.417 11.263 11.75 3.047 2.757 5.323 5.944 7.892 9.107 2.531 3.115 5.839 6.63 4.622 10.846-4.436-4.474-8.31-7.726-15.018-6.16-2.434.569-4.487 1.999-7.091 1.935-4.638-.115-9.118-2.477-13.35-4.118 2.457 5.268 8.932 8.104 10.314 14.183 1.015 4.466-2.206 10.166-2.804 14.6l14.183 2.086v.834c-12.163 3.218-20.733-3.462-32.121-5.423v.417c7.681 3.634 16.387 9.772 21.863 16.27 1.992 2.362 4.434 5.106 4.418 8.342-2.242-1.816-6.476-6.559-9.594-6.08-2.489.38-3.311 3.142-3.64 5.246-.89 5.678-.95 11.776-.95 17.52-2.389-2.086-2.085-4.993-2.085-7.925-2.968 1.955-6.175 4.407-10.012 3.638-3.882-.778-7.748-5.559-10.43-8.226-5.297-5.27-11.17-10.468-18.771-11.504-3.965-.54-15.97.017-10.604 6.072.553.624 1.107 1.273 1.86 1.665 2.825 1.472 8.853-.406 12.08-.406v.417l-10.428 2.086c4.19 8.782 13.263.91 18.355 6.258-3.479-1.029-9.453-1.029-12.932 0l5.828 7.508 2.678 3.503 9.849 1.086v.417h-8.76c.517 4.594 5.83 3.343 9.177 2.92v.417l-7.092 1.252c1.114 2.585 3.836 10.252 6.42 11.427 2.023.92 4.834-.857 6.512-1.833-2.303 4.199-6.42 2.507-4.172 8.343l6.675-3.337c-1.488 1.678-3.988 3.004-4.993 5.012-1.158 2.317.799 6.516 1.656 8.754l6.674-5.005-6.352 7.13.512 7.47c5.592-2.329 10.123-6.461 12.508-12.098.99-2.338 1.093-5.265 2.273-7.453.862-1.6 3.354-1.342 3.856-3.071.961-3.309-1.083-5.996.552-9.5h.417l1.251 6.675c4.214-1.184 6.725-7.81 7.926-11.68h.835c1.163 5.352-3.68 8.82-5.423 13.349 2.944.682 8.24 2.11 7.926 5.84l-10.43-3.754 7.927 17.52h.417c3.816-5.766 7.504-14.94 12.932-19.188 1.896 6.153-4.673 11.155-7.092 16.269 3.577-.979 10.063-5.782 13.35-3.755-4.598 1.914-8.682 4.673-12.06 8.343-1.11 1.208-3.143 3.235-3.118 5.006.025 1.812 2.252 4.005 3.256 5.423 3.646 5.15 8.053 10.57 13.59 13.766 2.265-4.306 4.18-8.613 5.37-13.349.545-2.173.458-5.1 2.555-6.257 2.042 11.51-6.19 24.196-8.76 35.041 7.842-6.65 12.578-17.405 22.526-21.692-.229 5.363-8.85 8.202-9.312 14.177-.162 2.096 2.444 3.188 3.888 4.188 4.046 2.803 7.47 5.918 12.098 7.79 1.665.673 3.238 2.089 4.786.473 2.811-2.936 3.053-8.643 2.604-12.445-.284-2.407-1.285-6.09.536-7.926l2.904 17.103-1.652 20.024h.417c3.9-9.91 7.355-20.683 15.018-28.367.045 5.228-5.869 12.58-7.926 17.521 7.823 3.659 16.99 5.87 25.447 7.51.662-5.24.469-10.305-.899-15.436-.613-2.298-2.624-5.37-1.187-7.509 5.174 11.134 10.838 22.427 10.846 35.041h.417c.005-7.649 1.339-15.453 2.837-22.944.274-1.368.668-7.005 2.6-7.005 2.11 0 1.284 3.377 1.075 4.503-.949 5.12-2.101 10.269-2.757 15.435l17.938-.449 6.245-1.113-.167-6.365-8.581-15.018c3.263-.745 6.487 5.065 8.003 7.51 5.524 8.908 9.246 20.264 11.603 30.451h.418c-1.09-13.789-4.684-26.512-2.92-40.464 4.06 1.63 1.872 11.903 2.385 15.852.165 1.271-.026 4.591 1.501 5.095 1.428.47 3.93-.759 5.29-1.203 4.91-1.6 9.499-3.908 14.184-6.052 1.79-.819 4.327-1.819 4.456-4.099.452-8.035-6.777-10.319-11.547-14.599 4.21-.437 7.283 2.324 10.429 4.766 4.698 3.647 9.326 7.787 13.166 12.337 2.212 2.622 3.85 6.14 6.44 8.343-1.427-4.48-4.868-8.688-6.989-12.932-4.109-8.224-7.284-17.134-8.446-26.28h.417l7.926 20.857c4.309-1.464 7.805-6.582 10.591-10.012 1.253-1.542 2.806-2.961 2.758-5.006 7.004-2.518-1.976-8.076-3.337-10.429 4.85-.728 9.213 3.965 13.766 5.006-2.03-4.347-5.56-10.029-4.589-15.018h.834l2.92 8.343c7.308-6.756 15.96-13.689 21.402-22.109 7.682-11.89 7.633-26.929 2.258-39.63-1.47-3.477-2.873-8.408-5.467-11.202-3.692-3.975-6.887 2.715-7.346 5.779 1.814.272 3.473.882 5.004 1.918 5.657 3.83 5.949 10.54 3.567 16.436-1.01 2.5-2.879 4.734-3.059 7.51-.223 3.437 1.626 6.702 2.22 10.011.987 5.493-1.701 11.34-5.646 14.98-3.66 3.375-8.79 5.237-13.766 4.501-2.302-.34-4.751-2.513-7.09-1.648-3.67 1.355-4.383 6.908-6.677 9.7-1.035-6.272 3.726-9.884 4.72-15.435.518-2.887-1.596-7.667-2.496-10.43-.712-2.184-1.812-8.332-5.14-7.079-2.147.809-3.227 3.248-4.486 4.994-2.972 4.12-5.674 9.163-10.952 10.43 1.94-5.007 7.198-9.197 10.14-13.767 5.837-9.067 12.027-24.396 4.297-34.206-2.329-2.956-6.067-5.045-9.431-6.625-4.63-2.174-9.723-2.85-14.6-4.221v-.835l5.84-.834-1.252-9.177-3.754 1.251c.042-15.273 15.328-23.605 25.864-31.704l-1.926 5.423 5.2 7.926 10.492 16.269-4.172-.417c.805 5.975 2.233 11.573.126 17.52-1.354 3.824-4.685 7.01-5.693 10.847-.51 1.935.418 3.895.42 5.84.003 2.712-.93 5.318-1.527 7.926 7.472-3.555 8.9-14.457 16.686-17.103-.635-3.692-2.204-7.025-2.466-10.846-.565-8.243 1.064-16.392-.22-24.612-1.406-8.996-5.322-17.055-8.577-25.447l3.754 1.669c.865-5.77 5.62-8.89 8.76-13.35-4.822 1.756-12.23 7.735-17.52 4.586-3.649-2.172-4.973-6.953-8.76-8.757l-5.007 20.023h-.417c-2.2-9.245 2.526-17.99 4.589-26.698-6.357 5.142-10.796 11.631-19.606 12.932l12.098-8.797 2.776-4.062-3.61-3.119-9.178-6.548 4.172.834 1.668-13.349h-.417a24.744 24.744 0 0 1-3.374 4.589c-1.725 1.86-3.987 4.838-6.46 5.689-4.853 1.668-11.556-3.983-16.03-5.272v19.189c-4.261-.712-3.708-5.015-3.752-8.76-.1-8.247-.356-16.36-.002-24.612h-.417c-1.25 9.274-4.29 22.49-13.35 27.115 2.594-4.164 5.06-7.721 6.434-12.515.405-1.413 1.59-3.827.102-4.948-4.204-3.165-10.652-.46-14.106-5.488-3.394-4.94-1.167-11.236-3.276-16.263z" transform="translate(-28.814 .747) scale(.14462)"/><path fill="#0f0d06" d="m23.77 6.383.06.06zm-.06.181.06.06z"/><path fill="#0e0b05" d="m30.949 6.806.06.06z"/><path fill="#0f0d06" d="m27.148 6.926.06.06z"/><path fill="#0d0b05" d="m30.888 7.047.06.06z"/><path fill="#0f0d06" d="m27.087 7.107.06.06z"/><path fill="#fff" d="m17.133 7.59.06.06z"/><path fill="#0f0d06" d="m26.785 7.59.06.06zm-.06.06.06.06zm1.387.06.06.06zm-8.265.06.06.061zm8.386 0 .06.061zm-10.92.061.061.06zm2.957 0 .06.06zm8.084 0 .06.06z"/><path fill="#0f0e07" d="m20.45 8.012.061.06zm5.43 0 .06.06z"/><path fill="#0d0b05" d="m35.413 8.012.06.06z"/><path fill="#fff" d="m35.373 8.113.02.04z"/><path fill="#0f0d06" d="m17.314 8.133.06.06zm12.367 0 .06.06z"/><path fill="#0f0e07" d="m19.968 8.374.06.06z"/><path fill="#0e0b05" d="m35.292 8.374.06.06z"/><path fill="#0f0e07" d="m17.616 8.917.06.06zm.302 0 .06.06zm.06.12.06.061z"/><path d="m26.907 9.279-.966 4.344c.744-.454.901-2.106.966-2.896h.06c.13.695.192 1.392.475 2.05.112.262.235.61.55.604l-.772-2.715z"/><path fill="#0f0e07" d="m24.734 9.34.06.06zm-5.127.12.06.06zm-.302.241.06.06zm-.302.121.06.06zm7.722.181.06.06z"/><path d="M20.995 10.063c.012 1.543.775 2.947.482 4.525.29-.177.298-.59.302-.905.008-.73-.119-1.445-.12-2.172h.06c.21.73.78 2.18 1.628 2.293-.102-.392-.422-.689-.637-1.026-.477-.749-.944-2.26-1.715-2.715z"/><path fill="#0f0e07" d="m18.58 10.124.061.06z"/><path fill="#0f0e08" d="m21.115 10.124.06.06z"/><path fill="#0f0d06" d="m29.38 10.184.06.06z"/><path fill="#0f0e07" d="m26.665 10.305.06.06zm2.956 0 .06.06z"/><path fill="#0f0d06" d="m34.75 10.305.06.06z"/><path fill="#0f0e07" d="m29.56 10.365.06.06zm-.362.06.06.06zm.302 0 .06.06z"/><path fill="#0f0e08" d="m21.356 10.486.06.06zm3.982.06.06.06z"/><path fill="#0d0b05" d="m35.11 10.546.061.06z"/><path fill="#0f0e07" d="m29.199 10.667.06.06z"/><path d="M33.361 10.727c-.67 1.053-1.47 2.49-2.473 3.258v.06c.76-.136 1.582-1.097 1.81-1.81h.06c-.009 1.073-.502 2.211-.06 3.258h.06c.32-1.086.154-2.367.43-3.5.087-.354.406-.946.173-1.266z"/><path fill="#0f0e07" d="m17.797 10.848.06.06z"/><path fill="#0f0e08" d="m21.598 10.908.06.06zm-3.319.12.06.061zm-.422.061.06.06zm1.388 0 .06.06zm8.024 0 .06.06zm-.483.12.06.061z"/><path fill="#0f0d06" d="m33.361 11.21.06.06z"/><path fill="#fff" d="m37.042 11.27.06.06zm-22.623.06.06.06z"/><path fill="#0f0e08" d="m21.84 11.33.06.06z"/><path fill="#0e0b05" d="m37.042 11.33.06.06z"/><path fill="#0f0e07" d="m32.88 11.45.06.061z"/><path fill="#0f0e08" d="m19.728 11.572.06.06z"/><path fill="#0f0e07" d="m31.069 11.572.06.06z"/><path fill="#0e0d08" d="m20.27 11.692.06.06z"/><path fill="#0f0e08" d="m20.33 11.753.061.06z"/><path fill="#0f0e07" d="m32.638 11.753.06.06z"/><path fill="#010101" d="m20.39 11.813.06.06z"/><path fill="#0f0e07" d="m15.444 11.873.06.06z"/><path fill="#0f0d06" d="m36.559 11.873.06.06zm-.06.06.06.06zm-25.218.121.06.06z"/><path fill="#0f0e07" d="m14.78 12.054.06.06z"/><path fill="#0e0d08" d="m21.96 12.115.06.06z"/><path fill="#0f0e07" d="m32.758 12.175.06.06z"/><path fill="#0f0d06" d="m35.655 12.175.06.06z"/><path fill="#0e0b05" d="m36.258 12.175.06.06z"/><path fill="#0f0e07" d="m32.697 12.235.06.06z"/><path fill="#0e0d08" d="m21.417 12.477.06.06z"/><path fill="#0f0d06" d="m36.62 12.537.06.06z"/><path fill="#0e0d08" d="m21.718 12.657.06.06z"/><path fill="#0e0b05" d="m34.87 12.718.06.06z"/><path fill="#0e0d08" d="m22.684 12.778.06.06z"/><path fill="#0f0d06" d="m37.705 12.899.06.06z"/><path fill="#fff" d="m40.964 12.899.06.06z"/><path fill="#0e0d08" d="m22.804 12.96.06.06z"/><path fill="#0f0e07" d="m32.216 12.96.06.06z"/><path fill="#0e0b05" d="m40.964 12.96.06.06z"/><path fill="#0d0b05" d="m40.722 13.02.06.06zm.181 0 .06.06z"/><path fill="#0f0e07" d="m32.094 13.08.06.06z"/><path fill="#0e0b05" d="m40.842 13.08.06.06z"/><path fill="#0e0d08" d="m22.503 13.14.06.06z"/><path d="M29.38 13.14c-.357.804-.53 1.55-1.267 2.112v.12c.53.14.898-.525 1.025-.965h.06c.053.405.102 1.248.544 1.387l-.297-1.387z"/><path fill="#0f0d06" d="m37.886 13.14.06.06z"/><path fill="#0d0b05" d="m40.781 13.14.06.06z"/><path d="M16.47 13.2c.13 1.484 2.126 2.487 1.87 4.103.32-.188.236-.537.128-.845-.222-.635-.595-1.192-.852-1.81.577.527 1.43 1.123 2.232.785l-1.266-.525z"/><path fill="#0e0b05" d="m40.722 13.2.06.06z"/><path fill="#0d0b05" d="m40.661 13.26.06.061z"/><path fill="#0f0d06" d="m36.86 13.321.061.06z"/><path fill="#0d0b05" d="m40.118 13.321.06.06z"/><path fill="#0e0b05" d="m40.6 13.321.061.06z"/><path fill="#0e0d08" d="m22.684 13.381.06.06z"/><path fill="#0f0e07" d="m31.853 13.381.06.06z"/><path fill="#0d0b05" d="m40.54 13.381.06.06z"/><path fill="#0f0e08" d="m16.47 13.442.06.06zm15.323 0 .06.06z"/><path fill="#0e0b05" d="m40.48 13.442.061.06z"/><path fill="#0f0e07" d="m16.892 13.502.06.06z"/><path fill="#0d0b05" d="m40.42 13.502.06.06z"/><path fill="#0f0e07" d="m13.513 13.562.06.06z"/><path fill="#0f0e08" d="m31.672 13.562.06.06zm-.06.06.06.061z"/><path fill="#0f0e07" d="m12.73 13.683.06.06z"/><path fill="#0e0d08" d="m22.985 13.683.06.06z"/><path d="M24.795 13.683c-.182.6-.694 1.773-.482 2.353h.12l.423-1.448h.06c.149.546.305 1.374.965 1.448l-.965-2.353z"/><path fill="#0f0e08" d="m12.789 13.743.06.06z"/><path fill="#0d0b05" d="m40.178 13.743.06.06z"/><path fill="#0f0e07" d="m12.85 13.804.06.06z"/><path fill="#0f0e08" d="m14.78 13.804.06.06zm16.289 0 .06.06z"/><path fill="#0f0e07" d="m12.91 13.864.06.06z"/><path fill="#0f0e08" d="m13.996 13.864.06.06z"/><path fill="#0e0d08" d="m29.079 13.864.06.06zm.362 0 .06.06z"/><path fill="#0f0e08" d="m31.008 13.864.06.06z"/><path fill="#0f0e07" d="m12.97 13.924.06.06z"/><path fill="#0e0d08" d="m30.949 13.924.06.06zm-13.454.121.06.06z"/><path fill="#0f0e08" d="m32.516 14.045.06.06z"/><path fill="#0e0d08" d="m16.892 14.226.06.06zm12.005.06.06.06z"/><path fill="#0f0e08" d="m14.961 14.347.06.06zm-1.508.06.06.06z"/><path fill="#0e0d08" d="m17.917 14.407.06.06zm3.56 0 .06.06z"/><path fill="#0f0d06" d="m36.62 14.407.06.06z"/><path fill="#0e0d08" d="m21.598 14.528.06.06zm3.257.06.06.06zm4.344 0 .06.06zm-11.885.241.06.06z"/><path fill="#0d0b05" d="m39.575 14.83.06.06z"/><path fill="#0e0d08" d="m18.098 15.01.06.06z"/><path fill="#0d0b05" d="m39.273 15.01.06.06z"/><path fill="#0e0d08" d="m17.495 15.07.06.06zm11.16.06.061.061z"/><path d="m20.753 15.191.302 2.534h.12l-.06-1.81c.393.274.926.95 1.448.724-.202-.218-.493-.256-.724-.443-.374-.303-.572-.964-1.086-1.005z"/><path fill="#0e0d08" d="m17.917 15.312.06.06zm10.196.06.06.06zm-10.377.06.06.06zm6.516 0 .06.06z"/><path fill="#0f0e08" d="m32.638 15.433.06.06zm.12 0 .06.06z"/><path d="M34.025 15.553c-.637.638-1.168 1.076-2.051 1.327v.121c.522.15 1.028-.14 1.448-.422-.07.354-.52 1.281-.181 1.508l.579-1.75z"/><path fill="#0e0d08" d="m21.295 15.614.06.06zm-6.877.06.06.06zm9.713 0 .06.06zm5.61 0 .06.06z"/><path fill="#0f0d06" d="m33.844 15.675.06.06z"/><path fill="#0f0e07" d="m10.316 15.795.06.06z"/><path fill="#0e0d08" d="m25.7 15.795.06.06z"/><path fill="#0f0e08" d="m13.574 15.855.06.06z"/><path fill="#0d0b05" d="m39.636 15.855.06.06z"/><path fill="#0e0d08" d="m17.978 15.915.06.06zm.241 0 .06.06zm6.214 0 .06.06zm-10.497.06.06.06z"/><path fill="#0f0e08" d="m33.483 16.097.06.06zm.361.06.06.06z"/><path fill="#0f0d06" d="m37.645 16.156.06.06z"/><path fill="#010101" d="m10.135 16.217.06.06z"/><path fill="#0e0d08" d="m21.598 16.278.06.06zm-3.198.06.06.06zm3.62 0 .06.06z"/><path fill="#0f0e07" d="m10.316 16.398.06.06z"/><path fill="#0f0e08" d="m33.06 16.398.06.06z"/><path fill="#0e0d08" d="m21.84 16.458.06.06zm.663.06.06.061z"/><path fill="#0f0e08" d="m33.302 16.578.06.06z"/><path fill="#0e0d08" d="m22.14 16.64.06.06zm.12.06.06.06zm10.196 0 .06.06z"/><path fill="#0f0e07" d="m36.317 16.7.06.06zm-25.7.06.06.06z"/><path fill="url(#openbsd_svg__c)" d="M439.1 129.5c9.544-2.299 19.981-3.657 29.618-1.669-1.435-4.983-5.156-9.076-8.456-12.932-1.129-1.318-2.567-3.757-4.478-3.901-2.263-.172-4.238 2.01-5.838 3.271-4.686 3.692-8.725 9.625-10.846 15.23z" transform="translate(-28.814 .747) scale(.14462)"/><path fill="#0e0d08" d="m32.819 16.88.06.061z"/><path fill="#0f0e07" d="m36.077 16.88.06.061z"/><path d="m23.71 16.941-.363 1.87c.303-.229.373-.961.422-1.327l.543.604a2.116 2.116 0 0 0-.603-1.147z"/><path fill="#0e0d08" d="m31.974 17 .06.061z"/><path fill="#0f0e08" d="m33.302 17 .06.061zm4.162.061.06.06z"/><path d="m29.621 17.122-1.146 1.146 1.086-.784.18 1.086c.212-.31.101-1.156-.12-1.448m-12.79.181v.06c.509.514.927 1.22 1.245 1.87.175.359.125.753.505.966-.03-.705-.332-1.24-.603-1.87.427.25 1 .622 1.508.482v-.12c-.685-.305-1.215-.563-1.81-1.038-.254-.202-.513-.463-.845-.35z"/><path fill="#0e0d08" d="m36.258 17.242.06.06zm-12.247.12.06.061zm-7.119.061.06.06zm7.18.06.06.06z"/><path fill="#0f0e08" d="m37.825 17.484.06.06z"/><path fill="#0e0d08" d="m23.89 17.544.06.06z"/><path fill="#0f0e08" d="m35.413 17.544.06.06z"/><path fill="#0f0d06" d="m38.429 17.544.06.06z"/><path fill="#0f0e08" d="m11.04 17.605.06.06z"/><path fill="#0e0d08" d="m29.079 17.605.06.06zm.482 0 .06.06zm3.56 0 .06.06zm-15.444.06.06.06zm6.033 0 .06.06z"/><path fill="#0f0d06" d="m40.24 17.664.06.06z"/><path fill="#0f0e08" d="m35.714 17.725.06.06z"/><path fill="#0e0d08" d="m29.138 17.786.06.06z"/><path d="M12.789 17.845c.056.509.473.699.844.98.51.386.984.803 1.374 1.313.254.332.41.906.738 1.146-.07-.887-.594-1.93-1.448-2.292v-.06c.868.168 1.733.49 2.594.12v-.12l-1.025-.041z"/><path fill="#0e0d08" d="m17.253 17.845.06.06zm11.463.06.06.06zm4.525 0 .06.06zm-15.203.06.06.061zm10.618 0 .06.061z"/><path fill="#0f0d06" d="m38.73 17.967.061.06z"/><path fill="#0f0e08" d="m34.99 18.027.061.06z"/><path fill="url(#openbsd_svg__d)" d="m481.65 119.49.834 10.012 9.178 1.251c-1.537-4.052-5.92-9.676-10.012-11.263z" transform="translate(-28.814 .747) scale(.14462)"/><path fill="#0e0d08" d="m24.312 18.087.06.06z"/><path d="m26.243 18.087-.543 1.025.603-.663.362.603z"/><path fill="#0e0d08" d="m33.18 18.087.06.06z"/><path fill="#0d0b05" d="m40.842 18.087.06.06z"/><path fill="#0e0d08" d="m17.434 18.148.06.06zm.845 0 .06.06z"/><path fill="#0f0d06" d="m38.37 18.148.06.06z"/><path fill="#0f0e08" d="m10.919 18.208.06.06z"/><path fill="#0e0d08" d="m26.062 18.268.06.06zm-7.48.06.06.06zm-.363.12.06.06zm11.584 0 .06.06zm11.583 0 .06.06zm-15.083.06.06.061zm15.143 0 .06.061zm-26.725.061.06.06zm26.786 0 .06.06zm-28.112.06.06.06zm13.151 0 .06.06z"/><path fill="#0f0e08" d="m10.799 18.75.06.06z"/><path fill="#0e0d08" d="m13.574 18.75.06.06z"/><path fill="#0d0b05" d="m35.05 18.75.06.06z"/><path fill="#0e0d08" d="m23.407 18.811.06.06zm2.534.06.06.061z"/><path fill="#0f0e08" d="m10.738 18.992.06.06z"/><path fill="#0e0d08" d="m14.72 18.992.06.06zm3.559 0 .06.06zm-.302.06.06.06z"/><path fill="#0d0b05" d="m34.87 19.053.06.06z"/><path fill="#0f0e08" d="m37.464 19.053.06.06z"/><path fill="#0d0b05" d="m38.55 19.112.06.06z"/><path fill="#0e0d08" d="m14.177 19.234.06.06zm3.922.06.06.06z"/><path fill="#0d0b05" d="m42.17 19.414.06.06z"/><path d="m32.035 19.534-1.026.785.905-.483-.12.724c.256-.179.352-.741.24-1.026z"/><path fill="#fff" d="M38.067 23.154c.458-.218.677-.74.8-1.206.152-.575.35-2.092-.38-2.377-.402-.157-1.073.024-1.506.024-.392 0-1.228-.06-1.532.232-.28.27-.071 1.287.136 1.561.214.285.725.341 1.034.486.617.29 1.113.68 1.448 1.28z"/><path fill="#0f0d06" d="m39.756 19.595.06.06z"/><path fill="#0d0b05" d="m41.928 19.595.06.06zm.362 0-.06.12z"/><path fill="#020202" d="m38.67 19.656.06.06z"/><path fill="#fff" d="m42.29 19.656.06.06z"/><path fill="#0f0e08" d="m11.04 19.717.06.06z"/><path fill="#0e0d08" d="m31.672 19.717.06.06z"/><path fill="#0f0e07" d="m9.41 19.776.06.06z"/><path fill="#0e0d08" d="m35.352 19.776.06.06zm3.379 0 .06.06zm-20.21.06.06.06zm13.332 0 .06.06z"/><path fill="#0f0e08" d="m9.774 19.897.06.06z"/><path fill="#0e0d08" d="m31.371 19.897.06.06z"/><path fill="#020202" d="m38.792 19.897.06.06z"/><path fill="#fff" d="M40.842 19.897v.543c1.094-.395 1.342 1.205.181 1.147l.242 1.387c.808-.377 1.18-2.196.516-2.876-.2-.206-.668-.18-.939-.2z"/><path fill="#0f0e07" d="m9.049 19.957.06.06z"/><path fill="#0e0d08" d="m15.323 20.017.06.06zm16.229 0 .06.06zm3.016 0 .06.06z"/><path fill="#020202" d="m38.85 20.017.061.06zm2.897 0 .06.06z"/><path fill="#0f0e07" d="m9.23 20.078.06.06z"/><path fill="#0e0d08" d="m34.447 20.078.06.06zm-15.988.06.06.06z"/><path d="M37.766 20.139c-.123.127-.304.22-.395.375-.637 1.09 1.773 1.118 1.092-.06-.078-.135-.215-.222-.335-.315l-.362.18z"/><path fill="#020202" d="M37.825 20.139v.06h.242z"/><path fill="#010101" d="m38.912 20.139.06.06z"/><path fill="#0f0e07" d="m9.41 20.198.06.06z"/><path fill="#020202" d="m37.604 20.239.02.04z"/><path fill="#010101" d="m37.685 20.218.04.02zm.08.04v.061l.302-.06z"/><path fill="#020202" d="m38.188 20.198.06.06z"/><path fill="#010101" d="m37.525 20.259.06.06z"/><path fill="#050505" d="m38.308 20.259.06.06z"/><path fill="#0f0e07" d="m9.591 20.32.06.06z"/><path fill="#010101" d="m37.464 20.32.06.06z"/><path fill="#020202" d="m41.023 20.32.181.12v-.06z"/><path fill="#050505" d="m41.084 20.32.06.06z"/><path fill="#010101" d="m41.144 20.32.06.06z"/><path fill="#020202" d="m41.265 20.32.06.06z"/><path fill="#010101" d="m41.325 20.32.06.06z"/><path fill="#0e0d08" d="m15.505 20.379.06.06z"/><path d="M25.096 20.379c0 .307-.06.619.241.784v-.603l.724.241z"/><path fill="#0e0d08" d="m25.217 20.379.06.06z"/><path fill="#020202" d="m40.903 20.379.06.06z"/><path fill="#010101" d="m40.964 20.379.12.12v-.12zm.301 0 .06.06z"/><path fill="#0e0d08" d="m25.398 20.44.06.06z"/><path fill="#010101" d="m37.344 20.44.06.06z"/><path fill="#0f0e08" d="m40.722 20.44.06.06z"/><path fill="#050505" d="m40.781 20.44.06.06z"/><path d="m28.777 21.224.301-.543.362.24c-.265-.709-.66-.2-.663.303z"/><path fill="#010101" d="m38.49 20.5.06.06zm2.231 0 .06.06z"/><path d="M21.476 20.561c.107.39.274.722.603.966l-.362-.785.724.06c-.186-.338-.624-.24-.965-.24z"/><path fill="#0e0d08" d="m22.32 20.561.061.06zm3.017 0 .06.06z"/><path fill="#fff" d="m40.661 20.561.06.06z"/><path fill="#0f0e08" d="m10.014 20.62.06.06z"/><path fill="#0e0d08" d="m29.26 20.62.06.06z"/><path fill="#fff" d="m40.6 20.62.061.06z"/><path fill="#0e0d08" d="m25.579 20.681.06.06z"/><path d="m18.4 20.923.845 1.025-.483-.844.724-.12-.06-.242z"/><path fill="#0e0d08" d="m21.718 20.742.06.06z"/><path fill="#050505" d="m38.55 20.742.06.06z"/><path fill="#fff" d="M40.54 20.742v.181h.06z"/><path fill="#0e0d08" d="m21.537 20.801.06.06z"/><path fill="#050505" d="m40.54 20.923.06.06z"/><path fill="#0e0d08" d="m15.686 20.984.06.06zm2.714 0 .06.06z"/><path fill="#fff" d="M40.54 20.984v.18h.06z"/><path fill="#010101" d="m38.449 21.083.02.04zm3.358-.04.06.06z"/><path fill="#0e0d08" d="m15.564 21.104.06.06zm9.592 0 .06.06zm-14.479.06.06.06zm11.04 0 .06.06z"/><path fill="#050505" d="m37.403 21.164.06.06z"/><path fill="#0f0e08" d="m10.738 21.224.06.06z"/><path fill="#fff" d="m40.6 21.224.061.06z"/><path fill="#010101" d="m38.248 21.284.06.06z"/><path fill="#050505" d="m40.6 21.284.061.06z"/><path fill="#020202" d="m37.645 21.345.06.06z"/><path fill="#010101" d="m37.705 21.345.06.06zm.403.02.04.02z"/><path fill="#fff" d="m40.661 21.345.06.06z"/><path fill="#010101" d="m41.646 21.386.02.04z"/><path fill="#050505" d="m41.687 21.345.06.06z"/><path fill="#010101" d="m10.919 21.406.06.06z"/><path fill="#050505" d="m37.886 21.406.06.06z"/><path fill="#fff" d="m40.722 21.406.06.06z"/><path fill="#010101" d="m35.594 21.465.06.06z"/><path fill="#fff" d="m40.781 21.465.06.06z"/><path fill="#010101" d="m40.903 21.465.06.06z"/><path d="M12.307 22.612v.12l1.75.604c-.036-.459-.629-.595-1.026-.664l1.207-1.086c-.641-.075-1.411.706-1.93 1.026z"/><path fill="#050505" d="m40.842 21.526.06.06z"/><path fill="#fff" d="m40.903 21.526.06.06z"/><path fill="#020202" d="m40.964 21.526.06.06z"/><path fill="#010101" d="M41.204 21.526v.06h.18z"/><path fill="#0f0e08" d="m11.1 21.587.06.06z"/><path fill="#0e0d08" d="m38.912 21.587.06.06zm2.292 0 .06.06z"/><path fill="#010101" d="m36.077 21.646.06.06z"/><path d="M14.841 22.37v.121l1.327.477.785.549c-.086-.641-.766-.749-1.207-1.086.56-.106 1.321-.115 1.568-.724z"/><path fill="#0e0d08" d="m34.93 21.767.06.06z"/><path fill="#010101" d="m36.378 21.767.06.06z"/><path fill="#0e0d08" d="m13.453 21.828.06.06zm3.378.06.06.06zm.362 0 .06.06zm24.795 0 .06.06zm-30.587.06.06.061z"/><path fill="#020202" d="m41.99 21.948.06.06z"/><path fill="#0e0d08" d="m13.152 22.009.06.06zm3.921 0 .06.06zm21.72.06.06.06zm2.292 0 .06.06zm-28.113.06.06.06z"/><path fill="#0f0d06" d="m39.395 22.129.06.06zm-34.449.12.06.06z"/><path fill="#010101" d="m41.084 22.25.06.06z"/><path fill="#0e0d08" d="m11.16 22.37.06.06z"/><path d="m23.348 22.793.18-.423c-.256.041-.458.24-.18.423z"/><path fill="#0e0d08" d="m12.547 22.431.06.06z"/><path fill="#0f0d06" d="m5.31 22.49.06.06z"/><path fill="#0f0e08" d="m36.74 22.49.06.06z"/><path fill="#0e0d08" d="m15.866 22.551.06.06z"/><path fill="#010101" d="m41.144 22.551.06.06z"/><path fill="#0e0d08" d="m11.341 22.612.06.06z"/><path fill="#0f0e07" d="m36.922 22.612.06.06z"/><path fill="#0e0d08" d="m38.55 22.612.06.06z"/><path fill="#0e0b05" d="m2.232 22.673.06.06z"/><path fill="#0f0d06" d="m5.55 22.673.06.06z"/><path fill="#0f0e08" d="m9.894 22.673.06.06z"/><path fill="#020202" d="m41.626 22.673.06.06z"/><path fill="#0e0d08" d="m16.289 22.732.06.06z"/><path d="m25.518 22.732-.06.422c.189-.11.22-.21.18-.422z"/><path fill="#0e0d08" d="m25.64 22.732.06.06z"/><path d="m28.052 23.154.181-.422c-.234.068-.428.236-.181.422z"/><path fill="#010101" d="m38.49 22.732.06.06z"/><path fill="#020202" d="m41.567 22.732.06.06z"/><path fill="#0e0d08" d="m15.986 22.853.06.06z"/><path fill="#010101" d="m37.886 22.853.06.06z"/><path fill="#0f0e07" d="m39.092 22.853.06.06z"/><path fill="#010101" d="m41.445 22.853.06.06zm-.06.06.06.061z"/><path fill="#0e0d08" d="m16.65 22.973.06.06z"/><path fill="#0f0d06" d="m5.971 23.034.06.06z"/><path fill="#0e0d08" d="m38.006 23.034.06.06z"/><path fill="#0e0b05" d="m3.498 23.095.06.06z"/><path fill="#0e0d08" d="m25.579 23.095.06.06zm2.353 0 .06.06z"/><path d="M29.863 23.517v.242l.603-.423z"/><path fill="#0e0d08" d="m16.71 23.396.061.06zm13.394 0 .06.06zm.302 0 .06.06z"/><path d="M32.758 23.396v.724c.227-.222.227-.502 0-.724z"/><path fill="#0f0d06" d="m40.781 23.396.06.06z"/><path fill="#0d0b05" d="m43.256 23.396.06.06z"/><path fill="#0e0d08" d="m30.043 23.457.06.06zm.302 0 .06.06zm2.353 0 .06.06z"/><path fill="#0f0e07" d="m38.73 23.457.061.06z"/><path fill="#0f0d06" d="m40.48 23.517.061.06z"/><path fill="#0e0d08" d="m29.983 23.698.06.06zm-8.627.06.06.06z"/><path d="m20.873 24.603.724.181-.402-.387.221-.578c-.29.15-.47.47-.543.784z"/><path fill="#0e0d05" d="m40.842 23.818.06.06z"/><path fill="url(#openbsd_svg__e)" d="M464.55 177.89v.417c10.496 1.327 15.223-3.69 22.944-9.594-1.108 2.987-6.614 6.822-6.47 9.594.156 2.968 4.823 3.242 6.887 2.424 3.943-1.563 6.436-5.918 7.293-9.933 1.778-8.334-9.164-15.158-16.014-9.838-5.872 4.56-8.464 12.35-14.64 16.93z" transform="translate(-28.814 .747) scale(.14462)"/><path fill="#010101" d="m3.62 23.94.06.06z"/><path d="M9.954 25.146c.078.45.525.208.845.186.46-.031 1.314.118 1.568.538l.423-.06c-.108-.683-1.093-.682-1.63-.725.396-.399.962-.518 1.087-1.146z"/><path fill="#0d0b05" d="m42.834 23.94.06.06z"/><path fill="#0f0e07" d="m6.998 23.999.06.06z"/><path fill="#0d0b05" d="m43.557 24.06.06.06z"/><path fill="#0f0d06" d="m5.368 24.12.06.06z"/><path fill="#0e0d08" d="m21.054 24.12.06.06zm-9.29.06.06.061zm9.35.061.06.06z"/><path fill="#0f0e07" d="m7.42 24.362.06.06z"/><path fill="#0e0d08" d="m11.522 24.362.06.06zm.483 0 .06.06z"/><path fill="#0e0b05" d="m3.74 24.421.06.06z"/><path d="m23.89 24.421-.664.845.845.301-.603-.362c.125-.263.618-.492.422-.784z"/><path fill="#0e0d05" d="m42.653 24.421.06.06z"/><path fill="#0f0e07" d="m8.988 24.482.06.06z"/><path fill="#0e0d08" d="m11.341 24.482.06.06zm9.472 0 .06.06z"/><path fill="#0f0e07" d="m7.66 24.543.06.06zm1.207 0 .06.06z"/><path fill="#0e0d08" d="m11.763 24.603.06.06zm6.818 0 .06.06z"/><path d="m18.642 24.603-.724.664c.282.095.935.467 1.146.181l-.784-.302zm15.624 0 .845.664v.12l-.784.423c.412-.034.764-.16 1.086-.422-.235-.398-.693-.697-1.147-.785z"/><path fill="#0f0e07" d="m7.843 24.663.06.06z"/><path fill="#010101" d="m42.773 24.663.06.06z"/><path fill="#0d0b05" d="m43.798 24.663.06.06zm-39.817.06.06.06z"/><path fill="#0e0d08" d="m23.528 24.723.06.06zm.302 0 .06.06zm10.799 0 .06.06z"/><path fill="#0e0d05" d="m39.878 24.723.06.06zm2.895 0 .06.06z"/><path fill="#0e0d08" d="m18.34 24.784.06.06zm.24 0 .061.06zm4.887 0 .06.06z"/><path fill="#0e0b05" d="m4.102 24.843.06.06z"/><path d="M14.9 24.843c-.365.82-.927 1.486-1.568 2.111-.368.359-.942.692-1.086 1.208l2.654-.564 1.388-.281c-.827-.59-2.278.067-3.077.422.549-1.101 1.626-1.538 1.87-2.835l-.06-.06z"/><path fill="#0e0d08" d="m18.52 24.843.06.06zm4.887 0 .06.06zm11.1 0 .06.06zm-23.227.06.06.061z"/><path d="m25.94 25.448.363.06v-.603c-.262.085-.292.296-.362.543z"/><path fill="#0f0e08" d="m10.436 24.965.06.06z"/><path fill="#0e0d08" d="m34.689 24.965.06.06zm-19.909.06.06.06z"/><path fill="#0e0b05" d="m4.282 25.085.06.06z"/><path fill="#0e0d08" d="m11.402 25.085.06.06zm12.066.06.06.06z"/><path fill="#010101" d="m42.834 25.146.06.06z"/><path fill="#0f0e08" d="m35.292 25.206.06.06z"/><path fill="#0f0e07" d="m39.153 25.206.06.06z"/><path fill="#0e0d08" d="m18.58 25.266.061.06z"/><path fill="#0f0d06" d="m41.445 25.266.06.06z"/><path fill="#0e0d08" d="m18.159 25.326.06.06zm7.782 0 .06.06z"/><path d="m28.777 25.326.06.664c.28-.148.463-.355.543-.664l-.422.302z"/><path fill="#0e0d08" d="m12.547 25.387.06.06zm16.169 0 .06.06zm.482 0 .06.06z"/><path fill="#0f0e08" d="m35.352 25.387.06.06z"/><path fill="#0e0d05" d="m41.567 25.387.06.06z"/><path fill="#0e0b05" d="m4.524 25.448.06.06z"/><path fill="#0e0d08" d="m18.52 25.448.06.06zm10.618 0 .06.06zm5.61.06.061.06z"/><path fill="#0e0d05" d="m39.214 25.629.06.06z"/><path fill="#010101" d="m42.712 25.629.06.06z"/><path fill="#0d0b05" d="m44.1 25.688.06.06z"/><path fill="#010101" d="m42.653 25.81.06.06z"/><path fill="#0e0d08" d="m14.72 25.87.06.06z"/><path fill="#0e0b05" d="m6.154 25.93.06.06z"/><path fill="#020202" d="m40.661 25.99.06.06z"/><path fill="#0d0b05" d="m38.85 26.051.061.06z"/><path fill="#0e0d05" d="m40.6 26.051.061.06zm-1.81.06.061.06z"/><path d="m20.27 26.593.12-.422c-.258.075-.4.262-.12.422z"/><path fill="#0f0d06" d="m4.946 26.232.06.06z"/><path fill="#0e0d08" d="m20.09 26.232.06.06zm-6.154.06.06.06z"/><path fill="#0e0d05" d="m40.118 26.293.06.06z"/><path fill="#0e0d08" d="m13.875 26.352.06.06z"/><path fill="#010101" d="m42.35 26.352.06.06zm-2.533.06.06.06z"/><path fill="#0e0d05" d="m42.29 26.413.06.06z"/><path d="m31.069 26.533-.06.844-.543-.362c.056.366.312.54.663.604l.06-1.086z"/><path fill="#010101" d="M39.273 26.533v.06h.181z"/><path d="M16.167 28.404c.4-.017 1.79.036 1.991-.241l-1.327-.181.724-1.388c-.44.137-1.193 1.384-1.388 1.81m4.887 5.249c.455-.261 1.047-1.038 1.267-1.509-.483.145-.694.618-1.026.966l-.18-1.267c1.41-.123 2.03-1.665 2.86-2.592.506-.564 1.14-.808 1.785-1.149-.38-.455-.91.026-1.267.301-.958.738-1.51 1.631-2.353 2.475l.482-1.267h-.06c-.262.63-.575 1.301-1.207 1.629l.242-.845h-.06c-.254.606-.54.905-1.207.905l.603-1.388h-.06l-.784 1.328-.242-.06.604-1.147h-.06c-.306.488-.627 1.182-1.268 1.026l.543-1.026c-.302.237-.433.802-.79.943-.162.064-.47-.055-.404-.27.085-.28.545-.555.727-.794.618-.811 1.119-2.134 2.036-2.633.751-.409 1.894.11 2.715.1.47-.007 1.005-.168 1.146-.664-.384-.042-.746.206-1.146.207-1.014.001-2.678-.504-3.55.185-.793.626-.838 1.467-1.336 2.262-.244.388-.674.65-1.026.93-.13.105-.367.255-.317.454.06.244.477.375.678.468.458.21.955.373 1.448.474.264.054.656.045.88.207.409.296.27 1.305.327 1.75z"/><path fill="#010101" d="m41.928 26.774.06.06zm-1.025.06.06.06zm.844 0 .06.06z"/><path d="m9.774 26.896-.06.362.24-.362z"/><path fill="#0e0d08" d="m24.01 26.896.06.06z"/><path fill="#010101" d="m41.144 26.896.06.06z"/><path fill="#0e0d08" d="m31.19 26.955.06.06z"/><path fill="url(#openbsd_svg__f)" d="M483.32 192.9c-.957-2.829-.52-6.249-2.358-8.742-2.401-3.258-7.787-2.981-11.408-2.937-1.25.016-3.334-.06-4.143 1.126-.965 1.415.791 4.873 1.17 6.381 1.57 6.25 2.971 14.871 8.398 19.058 3.567 2.752 10.744.948 13.72-2 4.749-4.702 6.03-15.69 1.207-20.766-5.965-6.279-5.874 4.89-6.585 7.88z" transform="translate(-28.814 .747) scale(.14462)"/><path fill="#0f0d06" d="m5.43 27.016.06.06z"/><path fill="#0e0d08" d="m20.45 27.016.061.06z"/><path fill="#0f0e08" d="m11.1 27.076.06.06z"/><path fill="#0e0d08" d="m13.152 27.076.06.06zm4.163 0 .06.06z"/><path fill="#0f0e08" d="m9.894 27.137.06.06z"/><path fill="#0e0d08" d="m11.402 27.137.06.06zm1.69 0 .06.06zm8.325 0 .06.06zm-8.386.06.06.06z"/><path fill="#0f0e08" d="m9.833 27.257.06.06z"/><path fill="#0e0d08" d="m16.952 27.257.06.06zm3.258 0 .06.06z"/><path fill="#0e0b05" d="m24.493 27.257.06.06z"/><path fill="#0e0d08" d="m41.748 27.257.06.06z"/><path fill="url(#openbsd_svg__g)" d="m509.18 183.73-2.23 10.429-1.58 5.405 2.976 2.104-.835-3.755h.418c1.929 4.633 3.962 5.423 8.76 5.423l-2.92-6.257c1.924 2.214 2.621 5.342 5.84 5.84l-2.92-5.423c2.67 2.898 3.988 4.9 7.926 2.92v-.834c-6.95-3.307-7.582-14.429-15.435-15.852z" transform="translate(-28.814 .747) scale(.14462)"/><path d="m35.172 27.8.18-.423c-.246.072-.375.21-.18.422z"/><path fill="#0e0d08" d="m16.831 27.438.06.06z"/><path fill="#0e0d05" d="m40.781 27.438.06.06z"/><path fill="#0f0e08" d="m20.812 27.499.06.06z"/><path fill="#010101" d="m38.49 27.499.06.06z"/><path fill="#0d0b05" d="m44.16 27.499.06.06z"/><path fill="#0e0d08" d="m14.9 27.56.06.06z"/><path fill="#0f0e08" d="m20.753 27.56.06.06zm-10.98.06.06.06zm.242 0 .06.06zm10.678 0 .06.06z"/><path fill="#0e0d08" d="m16.892 27.68.06.06zm2.896 0 .06.06z"/><path fill="#0f0e08" d="m10.799 27.74.06.06z"/><path fill="#0f0e07" d="m37.102 27.74.06.06z"/><path fill="#010101" d="m41.084 27.74.06.06z"/><path fill="#0f0e08" d="m10.738 27.86.06.06z"/><path fill="#0f0e07" d="m20.512 27.86.06.06z"/><path d="m27.027 27.86.663.724.302-.724-.302.483zm6.093 0-.06.905-.604-.362c-.033.398.576.85.905 1.026l-.12-1.569z"/><path fill="#0e0d08" d="m16.409 27.982.06.06zm1.025 0 .06.06zm-1.086.06.06.06z"/><path fill="#0f0e07" d="m36.922 28.041.06.06z"/><path fill="#0f0d06" d="m7.058 28.162.06.06z"/><path fill="#0f0e08" d="m10.858 28.222.06.06z"/><path fill="#0e0d08" d="m16.167 28.222.06.06z"/><path fill="#0f0d06" d="m24.674 28.222.06.06z"/><path fill="#0f0e07" d="m36.8 28.222.06.06zm.422.06.06.06z"/><path fill="#0e0d08" d="m27.388 28.343.06.06zm18.522 0 .06.06zm-26.485.06.06.06z"/><path fill="#0f0e07" d="m36.68 28.404.06.06z"/><path fill="#0f0d06" d="m6.515 28.463.06.06zm17.858 0 .06.06z"/><path fill="#0e0d08" d="m24.854 28.463.06.06z"/><path fill="#0f0d06" d="m6.334 28.524.06.06z"/><path fill="#0e0d08" d="m27.51 28.524.06.06zm5.188 0 .06.06z"/><path fill="#0f0e07" d="m36.98 28.644.061.06z"/><path fill="#0e0d08" d="m24.432 28.766.06.06z"/><path fill="#0f0d06" d="m6.334 28.826.06.06z"/><path fill="#0e0d08" d="m38.85 28.826.061.06zm-25.76.06.06.06z"/><path d="M16.772 28.886c-.19.903-.835 1.717-1.414 2.413-.276.331-.7.665-.819 1.086 1-.288 2.124-1.304 3.198-1.207-.276-.535-1.565.207-2.051.302.391-.58.926-1.086 1.178-1.75.106-.279.173-.654-.092-.845z"/><path fill="#0f0e07" d="m19.848 28.886.06.06z"/><path fill="#0e0d08" d="m23.77 28.886.06.06z"/><path fill="#0f0d06" d="m7.058 28.946.06.06zm.24 0 .061.06z"/><path fill="#0e0d08" d="m16.71 29.007.061.06z"/><path fill="#0f0e07" d="m36.197 29.007.06.06z"/><path fill="#010101" d="m38.912 29.066.06.06zm3.499.06.06.061z"/><path fill="#0f0e08" d="m46.393 29.127.06.06z"/><path fill="#0e0d08" d="m23.95 29.188.06.06z"/><path fill="#0f0e08" d="m11.1 29.249.06.06z"/><path fill="#0f0d06" d="m6.816 29.308.06.06z"/><path fill="#0e0d08" d="m23.348 29.308.06.06z"/><path fill="#0f0d06" d="m6.757 29.369.06.06z"/><path fill="#0e0d08" d="m33.18 29.369.06.06z"/><path d="M30.224 30.335c-.255-.255-.515-.606-.905-.543l1.147 1.387.301-1.75c-.46.073-.437.53-.543.906z"/><path fill="#0f0e07" d="m45.668 29.43.06.06z"/><path fill="#0f0e08" d="m10.377 29.489.06.06zm1.266 0 .06.06z"/><path d="m24.554 30.032-.06-.301h-.182l.06.784c.352-.06.718-.693.785-1.026z"/><path fill="#010101" d="m42.35 29.489.06.06z"/><path fill="#0e0d08" d="m12.669 29.55.06.06zm10.497 0 .06.06zm.483 0 .06.06zm7.118 0 .06.06z"/><path fill="#0f0e07" d="m36.317 29.55.06.06z"/><path fill="#0d0b05" d="m47.057 29.61.06.06z"/><path fill="#0e0d08" d="m18.762 29.67.06.061z"/><path fill="#0e0b05" d="m44.22 29.67.06.061z"/><path fill="#0e0d08" d="m13.152 29.73.06.06zm3.258 0 .06.06z"/><path d="m20.954 29.77.02.04z"/><path fill="#0f0e07" d="m36.077 29.79.06.061z"/><path fill="#0d0b05" d="m42.773 29.79.06.061zm1.87 0 .06.061z"/><path fill="#0e0d08" d="m16.772 29.852.06.06zm4.102 0 .06.06zm-4.585.12.06.06zm25.881 0 .06.06z"/><path fill="#0d0b05" d="m42.712 29.972.06.06z"/><path fill="#0f0d06" d="m45.97 29.972.06.06z"/><path d="m7.902 30.032.06.06z"/><path fill="#0e0d08" d="m18.34 30.032.06.06z"/><path fill="#0f0e07" d="m35.594 30.032.06.06z"/><path fill="#0f0d06" d="m7.782 30.093.06.06zm.12 0 .061.06z"/><path fill="#0f0e08" d="m20.33 30.093.061.06z"/><path fill="#0e0d08" d="m22.804 30.093.06.06zm19.305 0 .06.06zm-11.885.12.06.061zm9.17 0 .06.061z"/><path fill="#0f0e07" d="m8.927 30.274.06.06z"/><path fill="#0e0d08" d="m22.623 30.335.06.06zm7.843 0 .06.06z"/><path fill="#0f0e08" d="m12.73 30.394.06.06z"/><path fill="#0e0b05" d="m19.305 30.394.06.06z"/><path fill="#0e0d08" d="m20.09 30.394.06.06z"/><path fill="#0f0e08" d="m20.632 30.394.06.06z"/><path fill="#0e0d08" d="m23.045 30.394.06.06z"/><path fill="#0d0b05" d="m42.954 30.394.06.06z"/><path fill="#0e0d08" d="m17.797 30.455.06.06zm3.68 0 .06.06z"/><path d="m26.785 30.455-.301.784h-.06l-.483-.664.422 1.388h.06c.16-.403.729-1.145.362-1.508z"/><path fill="#0e0d08" d="m29.923 30.455.06.06z"/><path fill="#0f0e08" d="m20.572 30.515.06.06z"/><path fill="#0f0d06" d="m38.73 30.515.061.06z"/><path fill="#0d0b05" d="m18.46 30.575.061.06z"/><path fill="#0e0d08" d="m26.665 30.575.06.06z"/><path fill="#0f0e08" d="m10.919 30.635.06.06z"/><path fill="#0f0e07" d="m20.39 30.635.06.06z"/><path fill="#0e0d08" d="m21.476 30.635.06.06zm.543 0 .06.06z"/><path fill="#0f0d06" d="m7.36 30.696.06.06z"/><path fill="#0e0d08" d="m22.14 30.696.06.06zm17.616 0 .06.06zm-24.011.06.06.06zm24.072 0 .06.06z"/><path fill="#0f0d06" d="m7.179 30.816.06.06z"/><path fill="#0d0b05" d="m19.184 30.816.06.06z"/><path fill="#0f0d06" d="m19.968 30.816.06.06z"/><path fill="#0e0d08" d="m22.14 30.816.06.06z"/><path d="m33.302 30.877.362 1.99c-.385-.335-1.57-1.883-2.051-1.326 1.11.353 1.572 1.65 2.533 2.232l-.3-1.146-.363-1.81z"/><path fill="#0e0d08" d="m39.878 30.816.06.06z"/><path fill="#010101" d="m41.023 30.877.06.06z"/><path fill="#0e0b05" d="m42.531 30.877.06.06z"/><path fill="#0d0b05" d="m6.998 30.938.06.06z"/><path fill="#0f0e07" d="m8.566 30.938.06.06z"/><path fill="#0e0d08" d="m15.986 30.938.06.06z"/><path fill="#0d0b05" d="m18.942 30.938.06.06zm.181 0 .06.06z"/><path fill="#0e0b05" d="m20.21 30.938.06.06z"/><path fill="#010101" d="m40.178 30.938.06.06z"/><path fill="#0d0b05" d="m42.47 30.938.061.06z"/><path fill="#0e0d08" d="m15.564 30.997.06.06z"/><path fill="#0d0b05" d="m18.822 30.997.06.06zm.845 0 .06.06z"/><path fill="#0f0e08" d="m11.703 31.058.06.06z"/><path fill="#0f0e07" d="m21.537 31.118.06.06z"/><path fill="#0f0d06" d="m8.385 31.18.06.06z"/><path fill="#0e0b05" d="m20.029 31.18.06.06z"/><path fill="#0f0e07" d="m21.417 31.18.06.06z"/><path fill="#0e0d08" d="m16.47 31.239.06.06z"/><path fill="#0f0d06" d="m39.515 31.239.06.06z"/><path fill="#0e0d08" d="m18.642 31.3.06.06z"/><path d="M36.5 31.3c-.306.747.44 1.55.723 2.231-.784-.404-1.48-1.078-2.413-1.085v.24c1.343.118 2.06 1.493 3.137 2.112-.01-1.124-.975-2.417-1.327-3.499z"/><path fill="#0f0d06" d="m38.308 31.3.06.06z"/><path fill="#0e0d08" d="m16.108 31.36.06.06z"/><path fill="#0f0d06" d="m39.756 31.36.06.06z"/><path fill="#0e0b05" d="m42.048 31.36.06.06z"/><path fill="#0e0d08" d="m22.08 31.42.061.06z"/><path fill="#0d0b05" d="m41.99 31.42.06.06z"/><path fill="#0f0e08" d="m12.73 31.48.06.06zm20.632 0 .06.06z"/><path fill="#0e0b05" d="m41.928 31.48.06.06z"/><path fill="#0f0e08" d="m12.669 31.54.06.061z"/><path fill="#0e0d08" d="m19.365 31.54.06.061zm2.534 0 .06.061z"/><path fill="#0f0d06" d="m38.67 31.54.06.061z"/><path fill="#0f0e08" d="m12.608 31.602.06.06zm-.06.06.06.06z"/><path fill="#0e0d08" d="m26.484 31.66.06.061z"/><path fill="#0f0e08" d="m12.488 31.722.06.06z"/><path fill="#0e0d08" d="m14.961 31.722.06.06z"/><path fill="#0f0e08" d="m33.663 31.782.06.06z"/><path fill="#0f0e07" d="m36.439 31.963.06.06z"/><path fill="#0f0e08" d="m12.247 32.024.06.06z"/><path fill="#0e0d08" d="m15.263 32.024.06.06zm-.12.06.06.06z"/><path d="m24.251 32.205-.422.06c.142.338.394.612.512.965.13.392.045.932.453 1.146.19-.424.654-1.115.543-1.568-.342.168-.505.535-.543.905h-.06z"/><path fill="#0f0e08" d="m12.066 32.264.06.06z"/><path d="M18.642 32.264c0 1.184-.161 2.297-.483 3.439.42.015.64-.422.867-.724.45-.598.9-1.258 1.607-1.569v-.06c-.717-.093-1.613.979-1.87 1.568h-.061c.212-.82.401-1.847.06-2.654z"/><path fill="#0e0d08" d="m22.261 32.264.06.06z"/><path fill="#0e0b05" d="m39.636 32.264.06.06z"/><path fill="#0d0b05" d="m41.084 32.264.06.06z"/><path d="m28.897 33.591-1.388-.965c.077.247.273.32.456.49.36.334.674 1.115 1.173 1.2l.12-1.991c-.486.185-.361.839-.361 1.267z"/><path fill="#0f0e07" d="m36.62 32.325.06.06z"/><path fill="#0e0b05" d="m41.023 32.325.06.06z"/><path fill="#0e0d08" d="m24.312 32.385.06.06z"/><path fill="#0f0e08" d="m33.542 32.446.06.06z"/><path fill="#0e0d08" d="m23.95 32.505.06.06z"/><path fill="#0f0e08" d="m32.88 32.505.06.06zm.422.06.06.061z"/><path fill="#0f0e07" d="m33.361 32.627.06.06z"/><path fill="#0e0d08" d="m21.84 32.686.06.06zm5.911 0 .06.06z"/><path fill="#0f0e08" d="m35.895 32.747.06.06z"/><path fill="#0f0e07" d="m12.186 32.808.06.06z"/><path fill="#0e0d08" d="m25.338 32.808.06.06zm-3.68.12.06.06z"/><path fill="#0f0e08" d="m33.241 32.928.06.06z"/><path fill="#0f0d06" d="m37.222 32.928.06.06z"/><path fill="#0e0b05" d="m40.118 32.928.06.06z"/><path fill="#010101" d="m40.42 32.928.06.06z"/><path fill="#0f0e07" d="m12.307 32.988.06.06z"/><path fill="#0e0b05" d="m40.36 32.988.06.06z"/><path fill="#0e0d08" d="m27.932 33.05.06.06z"/><path fill="#0f0d06" d="m36.439 33.05.06.06z"/><path fill="#0e0b05" d="m40.3 33.05.06.06z"/><path fill="#0e0d08" d="m15.263 33.17.06.06zm9.05 0 .06.06zm3.86.12.061.06z"/><path fill="#0f0e08" d="m15.203 33.41.06.061z"/><path fill="#0e0d08" d="m28.716 33.471.06.06z"/><path d="M32.336 33.471c-.426.755.194 2.309.301 3.138h-.06c-.336-.71-.984-1.297-1.508-1.87-.074-.082-.456-.602-.593-.383-.142.228.556.77.687.925.482.572.918 1.218 1.283 1.87.21.378.394.882.795 1.086-.302-1.556-.78-3.172-.785-4.765z"/><path fill="#0f0d06" d="m36.439 33.471.06.06z"/><path fill="#010101" d="m19.968 33.53.06.061z"/><path fill="#0e0d08" d="m20.27 33.53.06.061zm4.404 0 .06.061z"/><path fill="#0f0e07" d="m33.844 33.53.06.061z"/><path fill="#0f0e08" d="m32.216 33.591.06.06z"/><path fill="#0e0b05" d="m40.058 33.591.06.06z"/><path fill="#0e0d08" d="m21.054 33.652.06.06z"/><path fill="#0f0e08" d="m24.734 33.652.06.06z"/><path fill="#0e0b05" d="m38.67 33.713.06.06zm.784 0 .06.06z"/><path fill="#0e0d08" d="m19.968 33.772.06.06zm8.566 0 .06.06z"/><path fill="#0f0d06" d="m36.74 33.772.06.06z"/><path fill="#0f0e08" d="m15.081 33.833.06.06z"/><path fill="#0e0b05" d="m38.972 33.894.06.06z"/><path fill="#0e0d08" d="m18.52 33.953.06.06z"/><path fill="#0f0e07" d="m13.091 34.014.06.06z"/><path fill="#0f0e08" d="m28.716 34.014.06.06zm3.499 0 .06.06z"/><path fill="#0d0b05" d="m40.058 34.014.06.06z"/><path fill="url(#openbsd_svg__h)" d="m283.92 230.45-4.589 12.932 9.595-6.675c-.168-3.223-1.914-5.338-5.006-6.257z" transform="translate(-28.814 .747) scale(.14462)"/><path fill="#0e0d08" d="m19.606 34.135.06.06zm9.23.06.06.06z"/><path fill="#0f0e08" d="m14.841 34.436.06.06z"/><path fill="#0f0d06" d="m37.464 34.436.06.06z"/><path fill="#0f0e08" d="m30.827 34.497.06.06z"/><path fill="#0e0d08" d="m17.616 34.558.06.06z"/><path d="m22.261 34.558-.06.06c.295.81.586 1.483.729 2.353.066.404.025.93.357 1.206.34-.643.461-1.39.771-2.05.178-.38.468-.713.375-1.147-.58.285-.922 1.573-1.086 2.172-.299-.798-.207-2.184-1.086-2.594z"/><path fill="#0f0e08" d="m30.586 34.678.06.06zm.06.06.06.06z"/><path fill="#0e0d08" d="m18.7 34.798.061.06z"/><path fill="#0f0e08" d="m30.707 34.798.06.06z"/><path fill="#0f0e07" d="m13.936 34.858.06.06z"/><path fill="#0f0e08" d="m15.203 34.858.06.06z"/><path fill="#fff" d="m18.7 34.858.061.06z"/><path fill="#0f0e08" d="m30.768 34.858.06.06z"/><path fill="#010101" d="m38.972 34.858.06.06z"/><path fill="#0e0d08" d="m19.003 34.92.06.06zm5.249.06.06.06z"/><path fill="#0f0e07" d="m32.336 34.98.06.06z"/><path fill="#0e0d08" d="m24.432 35.04.06.06z"/><path fill="#0f0e08" d="m31.31 35.04.06.06z"/><path fill="#0f0d06" d="m31.371 35.1.06.06z"/><path fill="#0f0e07" d="m14.297 35.16.06.061zm4.525 0 .06.061z"/><path d="M26.363 35.16c.682 1.355 1.187 2.63 1.568 4.103.426-.238.367-.66.363-1.086-.011-.993.37-1.981.301-2.956-.285.098-.336.39-.385.664-.12.658-.121 1.337-.279 1.99-.327-.76-.586-2.557-1.568-2.714z"/><path fill="#0e0d08" d="m26.544 35.16.06.061z"/><path fill="#0f0d06" d="m36.197 35.16.06.061z"/><path fill="#0e0d08" d="m22.503 35.22.06.06z"/><path fill="#0f0e07" d="m31.13 35.22.06.06zm-16.047.06.06.06z"/><path fill="#0e0d08" d="m19.667 35.28.06.061z"/><path fill="#0f0e08" d="m28.354 35.28.06.061z"/><path fill="#0f0d06" d="m38.67 35.28.06.061z"/><path fill="#0d0b05" d="m12.247 35.341.06.06z"/><path fill="#0f0e08" d="m28.294 35.402.06.06zm-12.247.12.06.061z"/><path fill="#0e0d08" d="m23.95 35.522.06.06zm.363 0 .06.06z"/><path fill="#0f0e07" d="m31.371 35.522.06.06zm-15.383.06.06.06z"/><path fill="#0f0d06" d="m36.378 35.583.06.06z"/><path fill="#0d0b05" d="m38.429 35.583.06.06z"/><path fill="#0f0e08" d="m15.927 35.642.06.06z"/><path fill="#0e0d08" d="m24.251 35.642.06.06z"/><path fill="#0f0e08" d="m26.966 35.642.06.06z"/><path fill="url(#openbsd_svg__i)" d="m469.55 241.29-2.92 5.006 9.177 4.171z" transform="translate(-28.814 .747) scale(.14462)"/><path fill="#0f0e07" d="m31.913 35.703.06.06z"/><path fill="#0e0d08" d="m24.192 35.764.06.06z"/><path fill="#0f0e08" d="m26.726 35.824.06.06z"/><path fill="#0d0b05" d="m11.643 35.884.06.06z"/><path fill="#0f0e08" d="m16.47 35.884.06.06z"/><path fill="#fff" d="m11.522 35.944.06.06z"/><path fill="#0e0d08" d="m23.77 35.944.06.06z"/><path fill="#0f0e08" d="m26.785 35.944.06.06z"/><path fill="#0e0b05" d="m38.128 35.944.06.06z"/><path fill="#0f0e08" d="m26.846 36.065.06.06zm.362 0 .06.06zm-.302.12.06.06zm.362 0 .06.06zm-3.62.06.06.06zm.302 0 .06.06z"/><path fill="#0f0d06" d="m34.447 36.247.06.06z"/><path fill="#0f0e08" d="m27.329 36.306.06.06z"/><path fill="#010101" d="m38.73 36.367.061.06z"/><path fill="#0f0e07" d="m15.203 36.427.06.06z"/><path d="m22.02 36.487.06.06z"/><path fill="#0f0e07" d="m32.035 36.487.06.06z"/><path fill="#0f0e08" d="m23.528 36.548.06.06z"/><path fill="#0f0d06" d="m34.87 36.548.06.06z"/><path fill="#0f0e07" d="m16.228 36.608.06.06z"/><path fill="#0f0e08" d="m22.14 36.608.06.06z"/><path fill="#0f0d06" d="m35.11 36.728.061.06zm-3.86.06.06.061zm.12 0 .06.061z"/><path fill="#0f0e07" d="m14.841 36.85.06.06z"/><path fill="#0f0e08" d="m23.407 36.85.06.06z"/><path fill="#0f0e07" d="m32.275 36.85.06.06zm-15.324.241.06.06z"/><path fill="#0f0e08" d="m24.493 37.091.06.06zm-9.894.06.06.061z"/><path fill="#0f0d06" d="m33 37.15.06.06z"/><path fill="#0f0e07" d="m27.69 37.211.06.06zm-10.497.06.06.061z"/><path fill="#0f0d06" d="m32.516 37.272.06.06z"/><path fill="#0f0e07" d="m28.837 37.333.06.06z"/><path fill="#0f0e08" d="m17.314 37.392.06.06z"/><path fill="#0e0b05" d="m35.956 37.453.06.06z"/><path fill="#0f0e07" d="m14.358 37.514.06.06z"/><path fill="#0f0e08" d="m22.985 37.514.06.06z"/><path fill="#0f0e07" d="m26.665 37.514.06.06z"/><path fill="#0e0b05" d="m36.016 37.514.06.06z"/><path fill="#0f0e07" d="m19.545 37.573.06.06zm8.266.06.06.06zm-10.075.06.06.06zm11.824 0 .06.06zm-11.643.121.06.06zm11.281.06.06.06zm-8.144.06.06.061zm8.687 0 .06.061zm-8.748.122.06.06zm-2.473.06.06.06zm.784 0 .06.06zm10.558 0 .06.06zm-11.161.06.06.06zm6.334.06.06.06z"/><path fill="url(#openbsd_svg__j)" d="m318.96 260.07-.834 12.932c3.666-3.915 9.78-12.145.834-12.932z" transform="translate(-28.814 .747) scale(.14462)"/><path fill="#0f0e07" d="m21.295 38.358.06.06z"/><path fill="#0e0b05" d="m34.87 38.6.06.06z"/><path fill="#0d0b05" d="m37.283 38.6.06.06z"/><path fill="#0f0e07" d="m28.354 38.659.06.06z"/><path fill="#0e0b05" d="m34.628 38.72.06.06z"/><path fill="#0f0e07" d="m25.277 38.84.06.06zm2.534 0 .06.06z"/><path fill="#0d0b05" d="m34.206 38.9.06.06z"/><path fill="#0f0e07" d="m28.174 39.081.06.06z"/><path fill="#0f0d06" d="m29.923 39.081.06.06z"/><path fill="#0e0b05" d="m33.844 39.081.06.06z"/><path fill="#0f0e07" d="m21.175 39.142.06.06zm6.938 0 .06.06z"/><path fill="#0e0b05" d="m33.724 39.142.06.06z"/><path fill="#0f0e07" d="m26.726 39.262.06.06z"/><path fill="#0f0d06" d="m29.983 39.262.06.06zm.482 0 .06.06z"/><path fill="#0d0b05" d="m17.676 39.384.06.06z"/><path fill="#0f0e07" d="m22.08 39.444.061.06zm3.44.12.06.061z"/><path fill="#0e0b05" d="m32.697 39.564.06.06zm-.18.06.06.061z"/><path fill="#0d0b05" d="m37.825 39.684.06.06zm.121 0 .06.06z"/><path fill="#0f0d06" d="m32.094 39.745.06.06z"/><path fill="url(#openbsd_svg__k)" d="M429.09 272.58c1.607 3.45 5.253 7 8.343 9.177l-3.754-11.68z" transform="translate(-28.814 .747) scale(.14462)"/><path fill="#0f0d06" d="m30.707 39.867.06.06zm-10.497.12.06.06z"/><path fill="#0f0e07" d="m23.95 39.987.06.06z"/><path fill="#0d0b05" d="m33.361 40.047.06.06z"/><path fill="#0f0d06" d="m24.493 40.107.06.06z"/><path fill="#0d0b05" d="m33.483 40.529.06.06zm.06.06.06.06z"/><path fill="url(#openbsd_svg__l)" d="M358.17 290.52h.417l3.755-13.349-4.749-.806-.257 3.726z" transform="translate(-28.814 .747) scale(.14462)"/><path fill="#0d0b05" d="m33.603 40.65.06.06zm.603.242.06.06z"/><path fill="url(#openbsd_svg__m)" d="m392.8 279.67 4.589 13.349c1.03-2.386 4.208-11.602 1.952-13.515-1.745-1.48-4.647-.335-6.541.166z" transform="translate(-28.814 .747) scale(.14462)"/><path fill="#0d0b05" d="m28.113 41.133.06.06z"/><path fill="#010101" d="m34.025 41.133.06.06zm-2.836.242.06.06z"/><path fill="#0d0b05" d="m34.327 41.434.06.06zm-6.274.06.06.06zm6.334 0 .121.121z"/><path fill="#fff" d="m34.447 41.495.06.06z"/><path fill="#0e0b05" d="m31.491 41.615.06.06z"/><path fill="#0d0b05" d="m23.287 41.676.06.06z"/><path fill="#fef666" d="M41.173 26.932c-.239-.044-.426-.221-.426-.405 0-.173.111-.348.563-.887.36-.43.317-.418-.35.092-.737.564-1.265.778-2.002.813-.341.017-.621.008-.621-.019 0-.026.1-.133.224-.237.123-.103.536-.606.918-1.118.698-.933 1.039-1.25 1.487-1.381.71-.208 1.622.34 1.828 1.096.19.703-.429 1.834-1.108 2.023-.146.04-.281.07-.3.064a5.737 5.737 0 0 0-.213-.041z"/><path fill="#fef67a" d="M40.215 30.975c-.232-.064-.53-.307-.748-.607-.259-.357-.442-.846-.748-2.003-.135-.507-.26-.974-.28-1.038-.1-.324.605-.488 1.468-.343.678.114.927.342 1.049.958.046.232.092.455.103.494.01.039.06-.148.111-.415.056-.297.154-.557.251-.67l.16-.186.258.175c.406.274.636.812.632 1.478-.006.942-.394 1.677-1.049 1.984-.324.152-.955.243-1.207.173z"/></svg>