<svg xmlns="http://www.w3.org/2000/svg" viewBox="0 0 48 48"><g transform="translate(-5.778 -15.932) scale(.0981)"><path d="M296.76 168.62s-49 93-73 152-50 125-59 163-22.31 100-21 120c1.143 17.454 1.205 20.431 9.204 32.432 4.795 7.193 11.988 11.09 22.796 11.568 12.987.575 32.587-10.781 46-18 14.222-7.654 29.807-20.542 52-23 23.875-2.645 36-4 56 2s30.6 9.75 41 17c11.66 8.128 12.078 10.732 20.18 17.014 9.682 7.505 15.1 8.682 25.291 9.06s18.117-2.265 24.535-12.456c6.416-10.191 11.004-26.263 12.803-40.049 1.617-12.386.031-56.205-6.764-87.157s-5.66-25.289-12.455-53.6-18.496-68.699-40.012-119.28-27.555-63.415-44.541-97.764-34.727-62.282-39.256-69.831c-4.531-7.55-8.119-14.639-13.781-2.938z"/><path fill="#fff" d="M396.22 382.9c-40.479-3.615-35.811-2.775-80.758-1.937-50.206.937-103.91 9.39-103.91 9.39-14.784 38.199-27.105 72.67-32.769 96.584-12.759 53.872-20.709 97.565-20.709 113.46 0 .837.022 1.598.066 2.277l.061.933c1.038 15.874 1.038 15.874 6.756 24.454 1.549 2.324 3.839 4.832 11.45 5.169 7.885.349 25.481-9.208 34.934-14.343l3.604-1.951c2.974-1.602 6.176-3.556 9.566-5.625 12.241-7.472 27.475-16.771 47.673-19.008 24.326-2.694 38.944-4.313 61.723 2.52 18.949 5.686 32.326 10.077 45.096 18.979 7.795 5.434 11.367 8.884 14.52 11.929 1.893 1.828 3.527 3.407 6.25 5.519 7.027 5.448 9.502 5.771 17 6.05 6.367.235 8.797-.944 11.816-5.739 4.709-7.48 9.014-21.24 10.709-34.239.289-2.214.451-6.104.451-11.147 0-17.17-1.875-47.714-7-71.059-5.059-23.039-5.654-25.494-8.52-37.294l-3.873-16.033c-6.283-26.184-13.923-51.39-24.132-78.892z"/><path d="M194.02 410.94s-6.715 3.778-14.27 10.073-8.395 8.813-19.727 15.109-24.763 13.012-35.676 20.986-18.888 13.851-20.566 15.949-3.357 3.778-.839 10.493 1.679 5.456 6.296 13.851 14.27 21.405 14.27 21.405-1.678.841-1.259 7.136 2.099 9.232 5.037 10.492.42 4.618-.839 11.333-.42 11.752-.42 11.752-8.394 0-13.851 1.679-9.653 1.678-9.234 7.135.42 7.555 7.975 12.172 5.456 5.036 13.011 6.296 15.11 4.616 20.566-.42 14.27-64.217 14.27-64.217-5.456-7.975-8.394-10.073-8.394-5.037-10.073-3.777-5.457 2.938-5.457 2.938-14.27-22.245-16.789-26.862-5.036-4.196-1.679-7.135 7.555-7.976 15.11-13.432 16.788-11.331 22.245-14.689 11.752-6.716 11.752-6.716-1.259-2.518 2.099 4.617 6.296 14.69 7.975 15.949 13.431-38.194 13.431-38.194zm216.15-11.75s9.234 2.098 16.369 7.975c7.135 5.876 8.395 4.195 12.172 10.072s5.037 7.556 5.037 7.556 24.762 18.887 31.898 25.183c7.135 6.296 17.207 14.69 22.244 20.986s8.395 9.654 6.297 14.271c-2.1 4.616-7.975 10.912-11.752 15.109l-11.332 12.592s1.678 6.717.418 13.012c-1.258 6.295-3.357 10.912-3.357 10.912s6.297 4.616 7.975 11.332c1.68 6.716 1.68 13.852 1.68 13.852s9.654.839 13.432 3.357 5.875 4.617 2.518 8.395-10.072 9.654-16.369 14.271c-6.295 4.616-7.135 7.135-12.592 9.653-5.455 2.519-7.135 1.678-13.012-.84-5.875-2.518-10.912-5.876-10.912-5.876l-9.654-73.45 12.592-.42s-1.258-4.196 3.359-7.555c4.615-3.358 10.912-2.939 13.01-3.358 2.1-.419 4.199-6.716 8.814-12.172 4.617-5.456 9.234-7.974 9.234-10.912s-5.037-11.332-7.135-14.271c-2.1-2.938-17.629-18.888-20.986-22.245s-16.369-11.752-16.369-11.752.42-.001-2.938 9.233c-3.359 9.234-7.555 16.37-10.074 19.308-2.518 2.938-22.244-64.217-22.244-64.217"/><ellipse cx="307.65" cy="385.4" fill="#b30838" stroke="#000" stroke-width="16" rx="74.43" ry="65.268"/><ellipse cx="276.73" cy="358.45" fill="#fff" rx="19.849" ry="13.741" transform="rotate(-22.706 276.758 358.468)"/></g></svg>