<svg xmlns="http://www.w3.org/2000/svg" viewBox="0 0 48 48"><path fill="#73ba25" fill-rule="evenodd" d="M43.021 16.214a1.952 1.952 0 0 0-1.417.529c-.385.36-.611.848-.627 1.377a1.987 1.987 0 0 0 1.908 2.051 1.982 1.982 0 0 0 1.422-.531 1.983 1.983 0 0 0-1.286-3.425zm.324 2.164c-.486 0-.878-.263-.878-.585 0-.325.392-.586.878-.586.485 0 .878.261.878.586 0 .322-.393.585-.878.585zm4.611 2.359c.015-.011.048-.04.043-.067-.11-.686-1.13-4.009-1.903-4.808-.213-.218-.383-.432-.728-.634-2.796-1.63-9.427-2.612-9.738-2.657 0 0-.03-.006-.053.015-.016.016-.02.048-.02.048l-.029 1.527c-.677-.227-5.6-1.817-10.216-1.978-3.914-.137-9.614-.643-17.168 4l-.223.14c-3.554 2.217-6.007 4.95-7.29 8.126-.402.999-.943 3.254-.407 5.376.231.927.662 1.86 1.242 2.693 1.312 1.885 3.514 3.136 5.885 3.347 3.348.3 5.883-1.204 6.785-4.02.62-1.942 0-4.792-2.377-6.246-1.933-1.184-4.011-.915-5.217-.117-1.046.693-1.638 1.77-1.628 2.955.024 2.1 1.833 3.215 3.133 3.218a3.76 3.76 0 0 0 1.185-.205c.152-.046.296-.104.453-.201l.05-.03.031-.02-.01.006a1.07 1.07 0 0 0 .433-1.174 1.067 1.067 0 0 0-1.223-.754l-.073.017-.1.03-.144.05c-.3.074-.524.08-.572.082-.152-.01-.9-.234-.9-1.054v-.01c0-.302.12-.513.187-.629.233-.365.87-.723 1.732-.648 1.13.098 1.945.677 2.485 1.771.501 1.017.37 2.267-.338 3.184-.703.907-1.954 1.293-3.619 1.114a4.961 4.961 0 0 1-3.892-2.655c-.778-1.47-.82-3.212-.11-4.551 1.7-3.208 4.909-3.174 6.668-2.87 2.604.452 5.567 2.854 6.617 5.627.17.442.257.793.332 1.113l.114.48 2.941 1.436c.064.03.085.041.11.022.03-.022.013-.085.013-.085-.018-.065-.06-.126-.129-.95-.056-.73-.17-2.73.838-3.721.39-.387.986-.733 1.457-.844 1.928-.47 4.19-.146 6.327 2.329 1.106 1.278 1.646 1.86 1.917 2.121 0 0 .061.059.094.086.036.029.06.054.111.083.09.05 3.676 1.7 3.676 1.7s.043.022.074-.017c.031-.038.002-.077.002-.077-.024-.027-2.274-2.935-1.874-5.33.316-1.906 1.834-1.734 3.933-1.497.686.08 1.466.17 2.274.188 2.255.014 4.685-.402 6.182-1.057.969-.421 1.587-.701 1.974-1.054.14-.115.212-.303.287-.504l.053-.133c.062-.164.155-.508.195-.697.016-.083.035-.164-.033-.218-.063-.048-.208.039-.208.039-.657.396-2.3 1.145-3.838 1.177-1.908.038-5.773-1.932-6.174-2.14-.268-.638-.536-1.276-.808-1.913 2.766 1.822 5.06 2.83 6.816 2.985 1.955.174 3.479-.893 4.14-1.336.087-.058.173-.122.252-.184zm-7.845-2.622c.028-.757.345-1.46.899-1.976a2.828 2.828 0 0 1 2.035-.76 2.846 2.846 0 0 1 2.738 2.936 2.828 2.828 0 0 1-.9 1.975 2.81 2.81 0 0 1-2.036.762 2.847 2.847 0 0 1-2.736-2.937z" clip-rule="evenodd"/></svg>