<svg xmlns="http://www.w3.org/2000/svg" viewBox="0 0 48 48"><g transform="translate(-6.031 -16.512) scale(.08235)"><path fill="#3ea639" stroke="#1e541e" stroke-linecap="round" stroke-linejoin="round" stroke-width="19.212" d="M398.4 595.28c40.321-14.974 61.37-43.813 61.37-93.448s-41.825-93.371-94.087-93.456c-55.149-.09-96.752 43.64-96.087 93.456.665 49.816 24.422 82.955 62.446 94.939l-67.358 165.71c-90.153-23.338-181.84-129.69-181.84-260.65 0-155.11 124.63-280.85 280.84-280.85s282.84 125.74 282.84 280.85c0 132.99-90.821 237.86-182.9 261.12z"/><path d="M626.327 745.38c.948.32 1.866 1.005 2.755 2.055.904 1.05 1.807 2.492 2.711 4.329l4.482 8.92h-4.744l-4.176-8.374c-1.079-2.186-2.128-3.636-3.148-4.35-1.006-.715-2.383-1.072-4.132-1.072h-4.81v13.796h-4.417v-32.641h9.97c3.731 0 6.515.78 8.352 2.34 1.836 1.559 2.754 3.913 2.754 7.06 0 2.056-.48 3.761-1.443 5.117-.947 1.355-2.332 2.295-4.154 2.82m-11.062-13.708v11.587h5.553c2.128 0 3.731-.488 4.81-1.464 1.093-.992 1.64-2.442 1.64-4.351 0-1.91-.547-3.345-1.64-4.307-1.079-.977-2.682-1.465-4.81-1.465h-5.553"/><ellipse cx="-217.01" cy="399.4" fill="none" stroke="#000" stroke-linecap="round" stroke-linejoin="round" stroke-width="7.524" rx="42.626" ry="44.564" transform="matrix(.53989 0 0 .51642 738.71 538.65)"/></g></svg>