<svg xmlns="http://www.w3.org/2000/svg" viewBox="0 0 48 48"><path fill="#00355b" d="M5.972 47.511c-1.087-1.925-1.51-3.84-1.51-5.603 0-6.97 2.453-13.72 8.021-17.746 6.84 2.034 13.817 3.738 20.23 6.094.277.102.717 1.142 1.01 1.135 1.005 6.361.178 12.743-5.839 16.595-5.46.055-9.065-.068-18.012-.157-1.523-.016-2.812-.106-3.9-.317z"/><path fill="#004b74" d="M27.885 47.987c3.596-4.616 5.76-10.361 5.839-16.596a32.1 32.1 0 0 0 14.172-3.703c-.034 2.848-.103 6.051-.21 10.874-.165 7.338-1.948 8.951-8.97 9.173-4.745.15-8.032.224-10.832.252z"/><path fill="#005a90" d="M28.715 15.217c3.924 3.099 5.903 7.022 5.903 12.894 0 .117-.893 3.163-.894 3.28q-.44.012-.883.012c-7.751 0-14.855-2.723-20.358-7.24 3.052-5.751 9.746-9.311 16.232-8.946z"/><path fill="#009acf" d="M47.897 27.689a32.1 32.1 0 0 1-14.173 3.703q.002-.176.002-.35c0-5.873-1.85-11.324-5.01-15.825 1.577-.27 3.199-.41 4.854-.41a28.36 28.36 0 0 1 14.326 3.851c.034 3.55.036 6.103 0 9.03z"/><path fill="#004e86" d="M12.483 24.162C6.723 20.13 1.423 9.65 1.476 3.502c1.285-.171 2.434-.407 3.754-.407 9.74 0 18.344 4.802 23.484 12.122a28.2 28.2 0 0 0-16.231 8.945z"/><path fill="#003c6c" d="M5.972 47.511C2.107 46.76.786 44.473.541 38.577-.041 24.64-.04 23.634.35 9.467c.074-2.654.54-4.676 1.125-5.965.95 8.196 4.88 15.63 11.008 20.66C8.125 29.016 5.48 35.384 5.48 42.354c0 1.762.17 3.486.493 5.157z"/><path fill="#00ceff" d="M47.896 18.658a28.36 28.36 0 0 0-14.326-3.851c-1.655 0-3.277.14-4.855.41C23.575 7.897 14.97 3.096 5.231 3.096c-1.235 0-2.666.256-3.754.406C2.607 1.623 5.223.891 9.833.633c14.288-.797 15.201-.855 28.9-.094 6.714.373 8.944 1.715 9.048 9.062.053 3.768.092 6.644.116 9.057z"/><path fill="#fff" d="M41.173 13.623c.1 4.682.278 16.097 0 20.841-.255 4.341-2.305 6.453-6.647 6.647-4.316.193-15.745.544-20.936 0-4.952-.519-6.142-2.283-6.636-6.635-.537-4.731-.555-16.163 0-20.881.478-4.054 1.946-6.36 6.607-6.607 4.699-.25 16.18-.418 20.976 0 4.119.358 6.546 2.495 6.635 6.635zm-4.335 0c0-1.27-1.22-2.195-2.3-2.301-3.88-.384-17.102-.38-20.976 0-1.068.104-2.145 1.21-2.273 2.272-.47 3.902-.46 17.058 0 20.881.13 1.076 1.22 2.195 2.301 2.302 3.873.383 17.061.385 20.936 0 1.087-.108 2.205-1.23 2.313-2.313.385-3.859.465-13.855 0-20.842z"/></svg>
