<svg xmlns="http://www.w3.org/2000/svg" viewBox="0 0 48 48"><path fill="#2a667f" d="M38.647 6.812a1.264 1.264 0 0 1-1.797 0 1.283 1.283 0 0 1 0-1.807 1.262 1.262 0 0 1 1.797 0 1.278 1.278 0 0 1 0 1.807m-.278 35.711a2.207 2.207 0 0 1-3.136 0 2.228 2.228 0 0 1 0-3.148 2.207 2.207 0 0 1 3.135 0 2.228 2.228 0 0 1 0 3.148m-7.417-4.3a2.228 2.228 0 0 1 0-3.147 2.207 2.207 0 0 1 3.134 0 2.226 2.226 0 0 1 .002 3.147 2.207 2.207 0 0 1-3.135 0m-1.141 4.3a2.207 2.207 0 0 1-3.135 0 2.224 2.224 0 0 1 0-3.148 2.207 2.207 0 0 1 3.135 0 2.228 2.228 0 0 1 0 3.148m-7.417-4.3a2.228 2.228 0 0 1 0-3.147 2.207 2.207 0 0 1 3.135 0 2.228 2.228 0 0 1 0 3.148 2.207 2.207 0 0 1-3.135 0m-1.14 4.3a2.206 2.206 0 0 1-3.135 0 2.228 2.228 0 0 1 0-3.15 2.207 2.207 0 0 1 3.135 0 2.226 2.226 0 0 1 0 3.148m-7.418-4.299a2.228 2.228 0 0 1 0-3.149 2.207 2.207 0 0 1 3.135 0 2.228 2.228 0 0 1 0 3.15 2.207 2.207 0 0 1-3.135-.003m-1.14 4.3a2.207 2.207 0 0 1-3.134 0 2.228 2.228 0 0 1 0-3.148 2.207 2.207 0 0 1 3.134 0 2.228 2.228 0 0 1 0 3.147M9.28 5.164a1.265 1.265 0 0 1 1.8 0 1.283 1.283 0 0 1 0 1.808 1.267 1.267 0 0 1-1.8 0 1.28 1.28 0 0 1 0-1.808m2.762 2.773a1.269 1.269 0 0 1 1.798 0c.496.5.496 1.309 0 1.809a1.27 1.27 0 0 1-1.8 0 1.283 1.283 0 0 1 0-1.808m2.762 2.772a1.266 1.266 0 0 1 1.8 0 1.28 1.28 0 0 1 0 1.806c-.496.501-1.3.501-1.798 0a1.28 1.28 0 0 1 0-1.806m0-5.545a1.263 1.263 0 0 1 1.798 0 1.28 1.28 0 0 1 0 1.808 1.267 1.267 0 0 1-1.798 0 1.278 1.278 0 0 1 0-1.808m2.762 8.317a1.268 1.268 0 0 1 1.8 0 1.282 1.282 0 0 1 0 1.81 1.27 1.27 0 0 1-1.8 0 1.286 1.286 0 0 1 0-1.809m.001-5.544a1.267 1.267 0 0 1 1.798 0 1.285 1.285 0 0 1 0 1.809 1.27 1.27 0 0 1-1.8 0 1.285 1.285 0 0 1 .001-1.81m2.762-2.772a1.264 1.264 0 0 1 1.798 0 1.283 1.283 0 0 1 0 1.807 1.269 1.269 0 0 1-1.798 0 1.283 1.283 0 0 1 0-1.807m2.761 8.317a1.269 1.269 0 0 1 1.799 0c.496.5.496 1.312 0 1.809a1.27 1.27 0 0 1-1.8 0 1.284 1.284 0 0 1 0-1.809m0-5.544a1.27 1.27 0 0 1 1.8 0 1.283 1.283 0 0 1 0 1.808 1.27 1.27 0 0 1-1.8 0 1.286 1.286 0 0 1 0-1.808m2.762-2.773a1.266 1.266 0 0 1 1.798 0 1.283 1.283 0 0 1 0 1.807 1.269 1.269 0 0 1-1.798 0 1.283 1.283 0 0 1 0-1.807m.852 25.608a2.207 2.207 0 0 1 3.134 0 2.228 2.228 0 0 1 0 3.148 2.207 2.207 0 0 1-3.134 0 2.224 2.224 0 0 1 0-3.148m.946-12.78a1.269 1.269 0 0 1-1.798 0 1.286 1.286 0 0 1 0-1.81 1.269 1.269 0 0 1 1.798.003 1.283 1.283 0 0 1 0 1.806m0-5.544c-.495.5-1.3.5-1.8 0a1.283 1.283 0 0 1 0-1.807 1.266 1.266 0 0 1 1.8 0 1.283 1.283 0 0 1 0 1.808m-4.562 6.507a1.27 1.27 0 0 1 1.8 0 1.286 1.286 0 0 1 0 1.81 1.27 1.27 0 0 1-1.8 0 1.284 1.284 0 0 1 .002-1.81m-.675 7.518a2.207 2.207 0 0 1 3.135 0 2.228 2.228 0 0 1 0 3.149 2.207 2.207 0 0 1-3.135 0 2.228 2.228 0 0 1 0-3.148m-1.14 4.3a2.228 2.228 0 0 1 0 3.148 2.207 2.207 0 0 1-3.134 0 2.226 2.226 0 0 1 0-3.148 2.207 2.207 0 0 1 3.134 0m-.949-20.135a1.267 1.267 0 0 1 1.8 0 1.283 1.283 0 0 1 0 1.807c-.498.501-1.3.501-1.799 0a1.283 1.283 0 0 1 0-1.806m0 5.544a1.265 1.265 0 0 1 1.8 0 1.288 1.288 0 0 1 0 1.81 1.267 1.267 0 0 1-1.8-.002 1.283 1.283 0 0 1 0-1.807m8.283-2.772a1.269 1.269 0 0 1 1.8 0 1.286 1.286 0 0 1 0 1.81 1.271 1.271 0 0 1-1.8 0 1.286 1.286 0 0 1 0-1.81m0-5.544a1.27 1.27 0 0 1 1.799 0 1.284 1.284 0 0 1 0 1.809 1.269 1.269 0 0 1-1.799-.001 1.286 1.286 0 0 1 0-1.81m2.762 2.773a1.266 1.266 0 0 1 1.799 0 1.283 1.283 0 0 1 0 1.807 1.267 1.267 0 0 1-1.8 0 1.283 1.283 0 0 1 0-1.807m0-5.545a1.266 1.266 0 0 1 1.8 0 1.283 1.283 0 0 1 0 1.807 1.266 1.266 0 0 1-1.8 0 1.283 1.283 0 0 1 0-1.807m2.762 2.772a1.27 1.27 0 0 1 1.8 0 1.286 1.286 0 0 1 0 1.81 1.265 1.265 0 0 1-1.8 0 1.286 1.286 0 0 1 0-1.81m13.758-4.205a3.66 3.66 0 0 0-3.65-3.665H3.76A3.657 3.657 0 0 0 .11 3.664v13.955h5.428L.109 30.378v13.955a3.657 3.657 0 0 0 3.65 3.666H44.24a3.657 3.657 0 0 0 3.65-3.666V30.378h-5.428L47.89 17.62z"/></svg>