<svg xmlns="http://www.w3.org/2000/svg" viewBox="0 0 48 48"><defs><clipPath id="openwrt_svg__a"><path d="M0 0h792v612H0Z"/></clipPath></defs><g clip-path="url(#openwrt_svg__a)" transform="matrix(1.0801 0 0 -1.0801 -229.16 210.51)"><g fill="#00ace2"><path d="M234.38 171.69a3.016 3.016 0 1 1 0-6.031 3.016 3.016 0 0 1 0 6.031m-18.52 15.51 3.139-3.139a21.7 21.7 0 0 0 15.387 6.37 21.705 21.705 0 0 0 15.388-6.37l3.139 3.139c-4.74 4.74-11.294 7.694-18.527 7.694-7.232 0-13.787-2.954-18.526-7.694"/><path d="m221.52 181.53 3.139-3.139a13.725 13.725 0 0 0 9.724 4.031 13.73 13.73 0 0 0 9.726-4.031l3.14 3.139c-3.293 3.293-7.848 5.356-12.864 5.356-5.017 0-9.571-2.062-12.864-5.356"/><path d="m227.15 175.9 3.139-3.139a5.795 5.795 0 0 0 8.186 0l3.139 3.139a10.183 10.183 0 0 1-7.232 2.985c-2.8 0-5.356-1.139-7.232-2.985"/></g><path fill="#002843" d="M245.52 176.76a13.696 13.696 0 0 0 2.647-8.094c0-7.601-6.186-13.787-13.787-13.787-7.602 0-13.787 6.186-13.787 13.787 0 3.016.984 5.817 2.646 8.094l-3.17 3.17a18.055 18.055 0 0 1-3.908-11.264c0-10.032 8.186-18.218 18.219-18.218 10.032 0 18.218 8.186 18.218 18.218 0 4.247-1.477 8.156-3.908 11.264z"/></g></svg>