<svg xmlns="http://www.w3.org/2000/svg" viewBox="0 0 48 48"><defs><style>.openstack_svg__cls-2{fill:#ed1944}</style></defs><path d="M38.267 3.354H3.927a3.93 3.93 0 0 0-3.92 3.92v9.237h9.526v-1.509a2.12 2.12 0 0 1 2.12-2.12h18.894a2.12 2.12 0 0 1 2.12 2.12v1.51h9.534v-9.24a3.933 3.933 0 0 0-3.934-3.919zM32.66 32.997a2.122 2.122 0 0 1-2.12 2.12H11.647a2.122 2.122 0 0 1-2.12-2.12v-1.509H0v9.236a3.93 3.93 0 0 0 3.92 3.922h34.34a3.933 3.933 0 0 0 3.94-3.922v-9.236h-9.54zM0 19.236h9.528v9.528H0zm32.66 0h9.53v9.528h-9.53z" class="openstack_svg__cls-2" style="opacity:.98"/><path d="M48 42.537a2.106 2.106 0 1 0-2.107 2.109A2.109 2.109 0 0 0 48 42.537zm-2.107 1.589a1.589 1.589 0 1 1 1.59-1.589 1.589 1.589 0 0 1-1.59 1.589z" class="openstack_svg__cls-2"/><path d="M46.683 42.155v-.012a.66.66 0 0 0-.174-.478.774.774 0 0 0-.56-.197h-.772v2.06h.426v-.686h.26l.38.686h.49l-.439-.767a.623.623 0 0 0 .39-.606zm-.43.013a.298.298 0 0 1-.337.31H45.6v-.623h.307c.229 0 .346.103.346.309z" class="openstack_svg__cls-2"/></svg>