<svg xmlns="http://www.w3.org/2000/svg" width="48" height="48" viewBox="0 0 45.016 44.953"><path fill="#2a667f" d="M36.245 6.358a1.185 1.185 0 0 1-1.685 0 1.203 1.203 0 0 1 0-1.695c.465-.47 1.22-.47 1.685 0a1.199 1.199 0 0 1 0 1.695m-.261 33.492a2.07 2.07 0 0 1-2.941 0 2.09 2.09 0 0 1 0-2.953 2.07 2.07 0 0 1 2.94 0 2.09 2.09 0 0 1 0 2.953m-6.956-4.033a2.09 2.09 0 0 1 0-2.952 2.07 2.07 0 0 1 2.94 0 2.088 2.088 0 0 1 .001 2.952 2.07 2.07 0 0 1-2.94 0m-1.07 4.033a2.07 2.07 0 0 1-2.94 0 2.086 2.086 0 0 1 0-2.953 2.07 2.07 0 0 1 2.94 0 2.09 2.09 0 0 1 0 2.953m-6.956-4.033a2.09 2.09 0 0 1 0-2.952 2.07 2.07 0 0 1 2.94 0 2.09 2.09 0 0 1 0 2.953 2.07 2.07 0 0 1-2.94 0m-1.069 4.032a2.069 2.069 0 0 1-2.94 0 2.09 2.09 0 0 1 0-2.953 2.07 2.07 0 0 1 2.94 0 2.088 2.088 0 0 1 0 2.952m-6.957-4.032a2.09 2.09 0 0 1 0-2.953 2.07 2.07 0 0 1 2.94 0 2.09 2.09 0 0 1 0 2.953 2.07 2.07 0 0 1-2.94-.002m-1.069 4.032a2.07 2.07 0 0 1-2.94 0 2.09 2.09 0 0 1 0-2.952 2.07 2.07 0 0 1 2.94 0 2.09 2.09 0 0 1 0 2.952M8.703 4.813c.468-.47 1.22-.47 1.688 0a1.203 1.203 0 0 1 0 1.695 1.188 1.188 0 0 1-1.688 0 1.201 1.201 0 0 1 0-1.695m2.59 2.6a1.19 1.19 0 0 1 1.687 0c.465.47.465 1.228 0 1.697a1.191 1.191 0 0 1-1.688 0 1.203 1.203 0 0 1 0-1.696m2.59 2.6a1.187 1.187 0 0 1 1.688 0 1.2 1.2 0 0 1 0 1.694c-.465.47-1.22.47-1.686 0a1.2 1.2 0 0 1 0-1.694m0-5.2c.466-.47 1.22-.47 1.686 0a1.201 1.201 0 0 1 0 1.695 1.188 1.188 0 0 1-1.686 0 1.199 1.199 0 0 1 0-1.695m2.59 7.8a1.189 1.189 0 0 1 1.688 0 1.202 1.202 0 0 1 0 1.697 1.191 1.191 0 0 1-1.688 0 1.206 1.206 0 0 1 0-1.696m.001-5.2a1.188 1.188 0 0 1 1.686 0c.465.47.467 1.227 0 1.697a1.191 1.191 0 0 1-1.688 0 1.205 1.205 0 0 1 .001-1.697m2.59-2.6c.465-.47 1.22-.47 1.687 0a1.203 1.203 0 0 1 0 1.694 1.19 1.19 0 0 1-1.687 0 1.203 1.203 0 0 1 0-1.694m2.59 7.8a1.19 1.19 0 0 1 1.687 0c.465.469.465 1.23 0 1.696a1.191 1.191 0 0 1-1.688 0 1.204 1.204 0 0 1 0-1.696m0-5.2a1.191 1.191 0 0 1 1.688 0 1.203 1.203 0 0 1 0 1.696 1.191 1.191 0 0 1-1.688 0 1.206 1.206 0 0 1 0-1.696m2.59-2.6a1.187 1.187 0 0 1 1.687 0 1.203 1.203 0 0 1 0 1.694 1.19 1.19 0 0 1-1.687 0 1.203 1.203 0 0 1 0-1.694m.799 24.017a2.07 2.07 0 0 1 2.94 0 2.09 2.09 0 0 1 0 2.952 2.07 2.07 0 0 1-2.94 0 2.086 2.086 0 0 1 0-2.952m.888-11.987a1.19 1.19 0 0 1-1.687 0 1.206 1.206 0 0 1 0-1.696 1.19 1.19 0 0 1 1.687.002 1.203 1.203 0 0 1 0 1.694m0-5.2c-.465.47-1.22.47-1.688 0a1.203 1.203 0 0 1 0-1.694 1.187 1.187 0 0 1 1.688 0 1.203 1.203 0 0 1 0 1.695m-4.279 6.103a1.191 1.191 0 0 1 1.688 0c.465.467.465 1.23 0 1.697a1.191 1.191 0 0 1-1.688 0 1.204 1.204 0 0 1 .002-1.697M21.02 24.8a2.07 2.07 0 0 1 2.94 0 2.09 2.09 0 0 1 0 2.953 2.07 2.07 0 0 1-2.94 0 2.09 2.09 0 0 1 0-2.952m-1.069 4.032a2.09 2.09 0 0 1 0 2.953 2.07 2.07 0 0 1-2.94 0 2.088 2.088 0 0 1 0-2.953 2.07 2.07 0 0 1 2.94 0m-.89-18.884a1.188 1.188 0 0 1 1.688 0 1.203 1.203 0 0 1 0 1.695c-.467.47-1.22.47-1.687 0a1.203 1.203 0 0 1 0-1.694m0 5.2c.465-.47 1.22-.47 1.687-.001a1.208 1.208 0 0 1 0 1.698 1.188 1.188 0 0 1-1.687-.001 1.203 1.203 0 0 1 0-1.695m7.768-2.6a1.19 1.19 0 0 1 1.688 0c.465.47.465 1.23 0 1.697a1.192 1.192 0 0 1-1.688 0 1.206 1.206 0 0 1 0-1.696m0-5.2a1.191 1.191 0 0 1 1.687 0 1.204 1.204 0 0 1 0 1.696 1.19 1.19 0 0 1-1.687-.001 1.206 1.206 0 0 1 0-1.697m2.59 2.6a1.187 1.187 0 0 1 1.687 0 1.203 1.203 0 0 1 0 1.695 1.188 1.188 0 0 1-1.688 0 1.203 1.203 0 0 1 0-1.695m0-5.2a1.187 1.187 0 0 1 1.688 0 1.203 1.203 0 0 1 0 1.695 1.187 1.187 0 0 1-1.687 0 1.203 1.203 0 0 1 0-1.695m2.59 2.6a1.191 1.191 0 0 1 1.687 0c.465.47.465 1.227 0 1.697s-1.222.47-1.688 0a1.206 1.206 0 0 1 0-1.697m12.904-3.944A3.432 3.432 0 0 0 41.49-.031H3.525A3.43 3.43 0 0 0 .102 3.406v13.088h5.091L.102 28.46v13.088a3.43 3.43 0 0 0 3.423 3.438h37.966a3.43 3.43 0 0 0 3.423-3.438V28.46h-5.091l5.091-11.965z" style="stroke-width:.219898"/></svg>