<svg width="128" height="128" version="1" viewBox="0 0 128 128" xmlns="http://www.w3.org/2000/svg" xmlns:cc="http://creativecommons.org/ns#">
<rect x="49.23" y="45.29" width="78.77" height="70.89" rx="4" ry="4" fill="#626262"/>
<rect x="96.49" y="45.29" width="31.50" height="70.89" rx="4" ry="4" fill="#7d4aef"/>
<circle cx="112.25" cy="27.56" r="15.75" fill="#7d4aef"/>
<rect x="49.23" y="45.29" width="31.51" height="70.89" rx="4" ry="4" fill="#42a5f5"/>
<circle cx="64.99" cy="27.56" r="15.75" fill="#42a5f5"/>
<path d="m45.42 83.96c-14.641 12.159-27.819 20.389-40.356 30.885-3.2427 2.741-5.0614 0.89044-5.0614-2.0901l0.098499-64.296c-0.004827-3.3706 1.101-4.2348 4.3683-1.6944 14.406 11.201 26.348 19.689 40.754 30.89 2.6849 1.987 2.6903 4.32 0.197 6.3054z" fill="#ffb300"/>
</svg>