<svg xmlns="http://www.w3.org/2000/svg" viewBox="0 0 48 48"><g fill-rule="evenodd" clip-rule="evenodd"><path fill="#99cfff" d="M43.73 10.331C46.423 14.211 48 18.921 48 24s-1.577 9.79-4.27 13.669l-6.217-6.217c1.221-2.209 1.916-4.75 1.916-7.452s-.695-5.243-1.916-7.452z"/><path fill="#1f87ff" d="m37.67 4.27-6.217 6.217A15.358 15.358 0 0 0 24 8.571c-8.52 0-15.429 6.908-15.429 15.43 0 8.52 6.908 15.428 15.43 15.428 2.701 0 5.242-.695 7.45-1.916l6.218 6.217A23.89 23.89 0 0 1 24.001 48c-13.255 0-24-10.745-24-24S10.746 0 24 0c5.08 0 9.79 1.578 13.669 4.27z"/></g></svg>