<svg xmlns="http://www.w3.org/2000/svg" viewBox="0 0 48 48" xmlns:xlink="http://www.w3.org/1999/xlink"><style>.st3{fill:#403f41}.st19{fill:#e24525}</style><g transform="matrix(.39894 0 0 .40067 -11.207 -106.46)"><defs><path id="cvfu" d="M38.8 284.1v-4.8c0-.4.1-1.1.1-1.1l.2-.5v-.2l.2-.4.1-.1.1-.2.1-.1v-.1l.2-.2v-.1l.7-.7.2-.1h.1l.3-.2h.3l.6-.3c.4-.1.7-.1 1.1-.1h94.6v9.2h9v-18.4H43.1c-7.3 0-13.3 6.1-13.3 13.6v4.8z"/></defs><clipPath id="cvfb"><use xlink:href="#cvfu" width="100%" height="100%"/></clipPath><path d="M30.2 264.7h117.1v12H30.2z" clip-path="url(#cvfb)" style="clip-path:url(#cvfb);fill:#898b8d"/><linearGradient id="cvfj" x1="-2420" x2="-2400" y1="800.1" y2="800.1" gradientTransform="matrix(.1869 .3575 -.6751 .353 1133 856.1)" gradientUnits="userSpaceOnUse"><stop offset="0" stop-color="#737373"/><stop offset="1" stop-color="#333"/></linearGradient><path fill="url(#cvfj)" d="m137.5 284.2-3.7-7.2 13.2-7.1 3.7 7.2z" clip-path="url(#cvfb)" style="clip-path:url(#cvfb);fill:url(#cvfj)"/><linearGradient id="cvfi" x1="-2368" x2="-2347" y1="2163" y2="2163" gradientTransform="matrix(-.1861 .3579 -.5495 -.2858 785 1739)" gradientUnits="userSpaceOnUse"><stop offset="0" stop-color="#737373"/><stop offset="1" stop-color="#333"/></linearGradient><path fill="url(#cvfi)" d="m28.2 278.4 3.7-7.3 10.7 5.8-3.7 7.2z" clip-path="url(#cvfb)" style="clip-path:url(#cvfb);fill:url(#cvfi)"/><path d="M47.8 284.1h80.9v9.2H47.8zM47.8 358h80.9v9.2H47.8z" class="st3"/><defs><path id="cvft" d="M137.7 367.2v4.8c0 .4-.1 1.1-.1 1.1l-.2.5v.2l-.2.4-.1.1-.1.2-.1.1v.1l-.2.2v.1l-.5.5h-.1l-.1.1-.2.1-.1.1-.3.2h-.3l-.5.2c-.4.1-.7.1-1.1.1H38.8v-9.2h-9v18.4h103.6c7.3 0 13.3-6.1 13.3-13.6v-4.8h-9z"/></defs><clipPath id="cvfa"><use xlink:href="#cvft" width="100%" height="100%"/></clipPath><path d="M29.2 374.6h117.1v12H29.2z" clip-path="url(#cvfa)" style="clip-path:url(#cvfa);fill:#898b8d"/><linearGradient id="cvfh" x1="1480" x2="1501" y1="2101" y2="2101" gradientTransform="matrix(-.1869 -.3575 .6751 -.353 -1106 1649)" gradientUnits="userSpaceOnUse"><stop offset="0" stop-color="#737373"/><stop offset="1" stop-color="#333"/></linearGradient><path fill="url(#cvfh)" d="m39 367.1 3.7 7.3-13.2 7.1-3.7-7.3z" clip-path="url(#cvfa)" style="clip-path:url(#cvfa);fill:url(#cvfh)"/><linearGradient id="cvfg" x1="1880" x2="1900" y1="995.7" y2="995.7" gradientTransform="matrix(.1861 -.3579 .5495 .2858 -757.7 765.5)" gradientUnits="userSpaceOnUse"><stop offset="0" stop-color="#737373"/><stop offset="1" stop-color="#333"/></linearGradient><path fill="url(#cvfg)" d="m148.4 372.9-3.7 7.3-10.8-5.8 3.7-7.2z" clip-path="url(#cvfa)" style="clip-path:url(#cvfa);fill:url(#cvfg)"/><defs><path id="cvfs" d="M38.8 302.6h34.6v9.2H38.8z"/></defs><clipPath id="cvff"><use xlink:href="#cvfs" width="100%" height="100%"/></clipPath><path d="M38.8 302.6h34.6v9.2H38.8z" clip-path="url(#cvff)" style="clip-path:url(#cvff);fill:#58595b"/><linearGradient id="cvfr" x1="2724" x2="2762" y1="2480" y2="2480" gradientTransform="matrix(-1.521 -1.021 3.14 1.519 -3559 -659.4)" gradientUnits="userSpaceOnUse"><stop offset=".107" stop-color="#58595B"/><stop offset="1"/></linearGradient><path fill="url(#cvfr)" d="m73.5 311.8-3.8 7.4-31.3-16.8 3.7-7.4z" clip-path="url(#cvff)" style="clip-path:url(#cvff);fill:url(#cvfr)"/><defs><path id="cvfx" d="M103.1 302.6h34.6v9.2h-34.6z"/></defs><clipPath id="cvfe"><use xlink:href="#cvfx" width="100%" height="100%"/></clipPath><path d="M103.1 302.6h34.6v9.2h-34.6z" clip-path="url(#cvfe)" style="clip-path:url(#cvfe);fill:#58595b"/><linearGradient id="cvfq" x1="2370" x2="2408" y1="2242" y2="2242" gradientTransform="matrix(1.521 -1.021 -3.14 1.519 3527 -659.4)" gradientUnits="userSpaceOnUse"><stop offset=".107" stop-color="#58595B"/><stop offset="1"/></linearGradient><path fill="url(#cvfq)" d="m103.1 311.8 3.7 7.4 31.4-16.8-3.8-7.4z" clip-path="url(#cvfe)" style="clip-path:url(#cvfe);fill:url(#cvfq)"/><defs><path id="cvfw" d="M103.1 339.5h34.6v9.2h-34.6z"/></defs><clipPath id="cvfd"><use xlink:href="#cvfw" width="100%" height="100%"/></clipPath><path d="M103.1 339.5h34.6v9.2h-34.6z" clip-path="url(#cvfd)" style="clip-path:url(#cvfd);fill:#58595b"/><linearGradient id="cvfp" x1="-2721" x2="-2683" y1="-204.9" y2="-204.9" gradientTransform="matrix(1.521 1.021 -3.14 -1.519 3587 2791)" gradientUnits="userSpaceOnUse"><stop offset=".107" stop-color="#58595B"/><stop offset="1"/></linearGradient><path fill="url(#cvfp)" d="m103.1 339.5 3.7-7.4 31.4 16.8-3.8 7.4z" clip-path="url(#cvfd)" style="clip-path:url(#cvfd);fill:url(#cvfp)"/><defs><path id="cvfv" d="M38.8 339.5h34.6v9.2H38.8z"/></defs><clipPath id="cvfc"><use xlink:href="#cvfv" width="100%" height="100%"/></clipPath><path d="M38.8 339.5h34.6v9.2H38.8z" clip-path="url(#cvfc)" style="clip-path:url(#cvfc);fill:#58595b"/><linearGradient id="cvfo" x1="-2569" x2="-2530" y1="-102.7" y2="-102.7" gradientTransform="matrix(-1.521 1.021 3.14 -1.519 -3500 2791)" gradientUnits="userSpaceOnUse"><stop offset=".107" stop-color="#58595B"/><stop offset="1"/></linearGradient><path fill="url(#cvfo)" d="m73.5 339.5-3.8-7.4-31.3 16.8 3.7 7.4z" clip-path="url(#cvfc)" style="clip-path:url(#cvfc);fill:url(#cvfo)"/><linearGradient id="cvfn" x1="29.84" x2="73.4" y1="295.5" y2="295.5" gradientUnits="userSpaceOnUse"><stop offset=".237" stop-color="#A6A8AB"/><stop offset="1" stop-color="#404040"/></linearGradient><path fill="url(#cvfn)" d="m29.8 279.3 43.6 23.3v9.2l-43.6-23.3z" style="fill:url(#cvfn)"/><linearGradient id="cvfm" x1="-287.9" x2="-244.3" y1="295.5" y2="295.5" gradientTransform="matrix(-1 0 0 1 -141.2 0)" gradientUnits="userSpaceOnUse"><stop offset=".237" stop-color="#A6A8AB"/><stop offset="1" stop-color="#404040"/></linearGradient><path fill="url(#cvfm)" d="m146.7 279.3-43.6 23.3v9.2l43.6-23.3z" style="fill:url(#cvfm)"/><linearGradient id="cvfl" x1="-119.4" x2="-75.84" y1="1846" y2="1846" gradientTransform="rotate(180 13.64 1101)" gradientUnits="userSpaceOnUse"><stop offset=".237" stop-color="#A6A8AB"/><stop offset="1" stop-color="#404040"/></linearGradient><path fill="url(#cvfl)" d="m146.7 372.1-43.6-23.3v-9.3l43.6 23.3z" style="fill:url(#cvfl)"/><linearGradient id="cvfk" x1="-138.6" x2="-95.07" y1="1846" y2="1846" gradientTransform="matrix(1 0 0 -1 168.5 2202)" gradientUnits="userSpaceOnUse"><stop offset=".237" stop-color="#A6A8AB"/><stop offset="1" stop-color="#404040"/></linearGradient><path fill="url(#cvfk)" d="m29.8 372.1 43.6-23.3v-9.3l-43.6 23.3z" style="fill:url(#cvfk)"/><path d="M128.7 307.4 103.1 321v9.3l25.6 13.7v-9.3l-8.3-4.4h26.3V321h-26.3l8.3-4.4zM29.8 321v9.3h26.3l-8.3 4.4v9.3l25.6-13.7V321l-25.6-13.6v9.2l8.4 4.4z" class="st19"/></g></svg>