<svg xmlns="http://www.w3.org/2000/svg" viewBox="0 0 48 48"><path d="M30.162 43.717v1.202a3.08 3.08 0 0 1-4.591 2.685L7.086 37.206a3.08 3.08 0 0 1-1.57-2.685V13.478c0-1.113.6-2.14 1.57-2.685L25.57.395a3.08 3.08 0 0 1 4.59 2.685v1.202l2.196-.659a3.08 3.08 0 0 1 3.966 2.951v1.25l2.7-.336a3.08 3.08 0 0 1 3.462 3.057v26.909a3.08 3.08 0 0 1-3.463 3.057l-2.699-.338v1.251a3.08 3.08 0 0 1-3.966 2.95zm0-3.216 3.08.924V6.575l-3.08.924zm6.162-29.57V37.07l3.08.385v-26.91zM5.516 33.604V14.397zm3.08-20.125v21.043L27.081 44.92V3.082zm3.081 2.049 3.081-1.54v20.024l-3.08-1.54z"/></svg>