<svg xmlns="http://www.w3.org/2000/svg" viewBox="0 0 48 48"><g fill-rule="evenodd" clip-rule="evenodd"><path fill="url(#overseerr_svg__a)" d="M48 96c26.51 0 48-21.49 48-48S74.51 0 48 0 0 21.49 0 48s21.49 48 48 48zm32-44c0 15.464-12.536 28-28 28S24 67.464 24 52c0-2.87.432-5.638 1.234-8.245C27.429 48.617 32.319 52 38 52c7.732 0 14-6.268 14-14 0-5.68-3.384-10.571-8.245-12.766A27.994 27.994 0 0 1 52 24c15.464 0 28 12.536 28 28z" transform="scale(.5)"/><path fill="#131928" d="M40 26c0 7.732-6.268 14-14 14-7.568 0-13.733-6.005-13.992-13.51-.005.169-.008.34-.008.51 0 8.284 6.716 15 15 15s15-6.716 15-15-6.716-15-15-15c-.17 0-.34.003-.508.008C33.996 12.268 40 18.432 40 26z" opacity=".2"/><path fill="url(#overseerr_svg__b)" d="M48 12c-19.882 0-36 16.118-36 36a4 4 0 0 1-8 0C4 23.7 23.7 4 48 4a4 4 0 0 1 0 8z" transform="scale(.5)"/></g><defs><linearGradient id="overseerr_svg__a" x1="48" x2="117.5" y2="69.5" gradientUnits="userSpaceOnUse"><stop offset="0" stop-color="#C395FC"/><stop offset="1" stop-color="#4F65F5"/></linearGradient><linearGradient id="overseerr_svg__b" x1="28" x2="28" y1="8" y2="48" gradientUnits="userSpaceOnUse"><stop offset="0" stop-color="#fff" stop-opacity=".4"/><stop offset="1" stop-color="#fff" stop-opacity="0"/></linearGradient></defs></svg>