<svg xmlns="http://www.w3.org/2000/svg" viewBox="0 0 48 48"><path fill="#fff" d="M10.378 19.03a3.337 3.337 0 0 1-.44-1.657 3.366 3.366 0 0 1 3.361-3.362 3.34 3.34 0 0 1 1.856.562 7.155 7.155 0 0 0-.592 3.474 7.7 7.7 0 0 0-4.185.983zm-.74 13.04a7.744 7.744 0 0 1-2.981-8.196c-.065-.002-.13-.005-.194-.005A6.47 6.47 0 0 0 0 30.331a6.47 6.47 0 0 0 6.463 6.463 6.425 6.425 0 0 0 3.66-1.14 4.256 4.256 0 0 1-.486-3.584zm.29-.697a4.286 4.286 0 0 1 3.787-2.3c.199 0 .394.014.585.04a9.728 9.728 0 0 1 1.821-7.137 7.197 7.197 0 0 1-1.04-1.758 7.14 7.14 0 0 1-.42-1.428 6.973 6.973 0 0 0-4.482 1.23A7.054 7.054 0 0 0 7.4 23.938a7.008 7.008 0 0 0 2.527 7.435zm22.642-8.275a7.687 7.687 0 0 1 3.09-.868c-.287-3.3-3.063-5.899-6.437-5.899a6.13 6.13 0 0 0-.384.013 7.178 7.178 0 0 1-.124 2.88 9.848 9.848 0 0 1 3.855 3.874zM15.353 18.5a6.541 6.541 0 0 0 .644 1.95c.172.331.37.646.595.94a9.859 9.859 0 0 1 2.146-1.855 9.716 9.716 0 0 1 5.12-1.53c.044-.001.086-.004.128-.004.123 0 .244.005.365.01a9.697 9.697 0 0 1 3.69.875 6.448 6.448 0 0 0-.092-3.173c-.772-2.706-3.265-4.693-6.215-4.693a6.467 6.467 0 0 0-6.381 7.48zm29.108 10.93c-.194 0-.382.02-.568.049a7.72 7.72 0 0 1-2.105 5.803 3.53 3.53 0 0 0 2.673 1.226A3.543 3.543 0 0 0 48 32.968a3.543 3.543 0 0 0-3.54-3.539zm-1.291.247a6.774 6.774 0 0 0-.071-.757 7.027 7.027 0 0 0-6.683-5.968 7.232 7.232 0 0 0-.255-.006c-.038 0-.075.002-.112.003a6.965 6.965 0 0 0-3.153.806 9.707 9.707 0 0 1 .86 3.64c.006.128.01.256.01.386l-.002.113a9.749 9.749 0 0 1-2.82 6.753 7 7 0 0 0 10.151.297 6.989 6.989 0 0 0 2.074-5.267zm-27.446 3.327a9.736 9.736 0 0 1-1.288-3.124 3.534 3.534 0 0 0-.72-.074c-.027 0-.052.003-.078.004a3.547 3.547 0 0 0-.729.092 3.548 3.548 0 0 0-2.733 3.442 3.51 3.51 0 0 0 .742 2.16 3.526 3.526 0 0 0 2.797 1.38c1.5-.001 2.78-.94 3.296-2.26a9.845 9.845 0 0 1-1.287-1.62zm17.28-4.522c.01-.156.019-.311.023-.468.002-.078.006-.155.006-.233a8.992 8.992 0 0 0-.928-3.987 9.11 9.11 0 0 0-4.265-4.196 8.989 8.989 0 0 0-3.644-.858c-.07-.002-.14-.005-.21-.005-.087 0-.172.004-.259.006a8.982 8.982 0 0 0-5.022 1.703 9.143 9.143 0 0 0-2.084 2.095 8.995 8.995 0 0 0-1.471 7.177 8.993 8.993 0 0 0 2.7 4.705 9.013 9.013 0 0 0 6.136 2.407 9.007 9.007 0 0 0 6.493-2.756 9.021 9.021 0 0 0 2.524-5.59z"/></svg>