<svg xmlns="http://www.w3.org/2000/svg" viewBox="0 0 48 48"><path fill="#4285f4" d="M24 20.82c-2.64 0-4.8 2.16-4.8 4.8s2.16 4.8 4.8 4.8 4.8-2.16 4.8-4.8-2.16-4.8-4.8-4.8zm14.4 4.8c0-7.944-6.456-14.4-14.4-14.4S9.6 17.676 9.6 25.62c0 5.328 2.904 9.96 7.2 12.456l2.4-4.176c-2.856-1.68-4.8-4.728-4.8-8.28 0-5.304 4.296-9.6 9.6-9.6s9.6 4.296 9.6 9.6c0 3.552-1.944 6.6-4.8 8.28l2.4 4.176c4.296-2.496 7.2-7.128 7.2-12.456zM24 1.62c-13.248 0-24 10.752-24 24 0 8.88 4.824 16.608 11.976 20.76l2.4-4.152C8.664 38.892 4.8 32.724 4.8 25.62c0-10.608 8.592-19.2 19.2-19.2s19.2 8.592 19.2 19.2c0 7.104-3.864 13.272-9.6 16.608L36 46.38c7.176-4.152 12-11.88 12-20.76 0-13.248-10.752-24-24-24z"/></svg>