<svg xmlns="http://www.w3.org/2000/svg" viewBox="0 0 48 48"><defs><clipPath id="paloaltonetworks_svg__a"><path d="M-246.59 46.366h1355V-201.39h-1355Z"/></clipPath><clipPath id="paloaltonetworks_svg__b"><path d="M0 113.866h1355V-133.89H0Z"/></clipPath><clipPath id="paloaltonetworks_svg__c"><path d="M-156.59 180.909h1355V-66.847h-1355Z"/></clipPath></defs><g fill="#f04e22"><path d="m0 0-44.773 44.772L-89.545 0l22.272-22.273-112.27-112.27 44.772-44.772 44.773 44.772-22.273 22.273z" clip-path="url(#paloaltonetworks_svg__a)" transform="matrix(.15304 0 0 -.15304 37.739 13.702)"/><path d="m0 0 44.772-44.773 112.27 112.27-44.773 44.772z" clip-path="url(#paloaltonetworks_svg__b)" transform="matrix(.15304 0 0 -.15304 0 24.036)"/><path d="m0 0 44.773-44.772 112.27 112.27-44.772 44.773z" clip-path="url(#paloaltonetworks_svg__c)" transform="matrix(.15304 0 0 -.15304 23.965 34.296)"/></g></svg>