<svg xmlns="http://www.w3.org/2000/svg" viewBox="0 0 48 48"><path fill="#f97315" d="M5.86 22.107a.585.585 0 1 1-1.171 0 .585.585 0 0 1 1.17 0m7.847-.641c-3.451-.376-5.185.991-9.468 4.17C.57 28.36-.12 26.22.016 25.29c.199-1.368 3.354-7.79 6.395-11.766a9.96 9.96 0 0 1 7.296 7.943zm-7.438.641a.995.995 0 1 0-1.99 0 .995.995 0 0 0 1.99 0m-2 6.441-.03 1.868 2.715 3.017-1.306.978 4.43 3.657-1.564 1.08 5.67 2.653-1.44 1.296 6.424 1.075-1.001 1.37 6.485-.602-.531 1.56 7.171-2.415-.367 1.777 6.395-4.569.197 1.804 4.534-6.46.994 1.889 2.02-7.833 1.382 1.135-.284-7.7 1.837.683L45.196 18l1.783.006-4.482-5.604 2.037-.181-6.255-4.367 1.896-1.117-7.292-1.953 1.232-1.556-6.601.047.08-1.774-5.126 1.873-.213-1.688-3.988 2.85-.857-1.443-3.005 3.526-.934-1.273-2.517 4.029-1.276-1.163-2.229 4.009a11.51 11.51 0 0 1 7.865 9.516c.054.012-2.976 4.158 1.457 7.695-.077-.397-.813-7.17 6.318-7.663 3.547-.245 6.437 2.882 6.437 6.438a6.4 6.4 0 0 1-.75 3.011c-2.118 3.939-8.626 4.09-10.697 4.07-6.006-.061-13.84-6.853-13.84-6.853z"/></svg>
