<svg xmlns="http://www.w3.org/2000/svg" viewBox="0 0 48 48"><path fill="#17541f" d="M12.677 46.055c-.236-1.119-.707-3.357-.766-3.357-9.953-5.948-8.775-16.255-5.477-22.144.707 7.42 13.84 12.544 6.184 21.614-.059.118.353 1.531.707 2.827 1.531-2.591 3.828-5.713 3.71-6.007C7.612 16.019 37.06 14.252 43.184 0c2.768 13.781-1.413 35.1-25.089 40.519-.118.059-4.3 7.42-4.476 7.48 0-.118-1.767-.06-1.531-.648.118-.354.353-.825.589-1.296zM31.11 15.018c-5.419 2.414-16.314 12.073-12.604 20.848-.353-3.592 1.532-10.954 12.604-20.848zm-18.729 25.5c3.004-3.474-.53-9.422-2.65-11.366 3.593 6.184 3.357 9.777 2.65 11.367z"/></svg>