<?xml version="1.0" encoding="utf-8"?>
<!-- Generator: Adobe Illustrator 27.1.1, SVG Export Plug-In . SVG Version: 6.00 Build 0)  -->
<svg version="1.1" id="Layer_1" xmlns="http://www.w3.org/2000/svg" xmlns:xlink="http://www.w3.org/1999/xlink" x="0px" y="0px"
	 viewBox="0 0 150 150" style="enable-background:new 0 0 150 150;" xml:space="preserve">
<style type="text/css">
	.st0{fill:#E10600;}
</style>
<g>
	<defs>
		<rect id="SVGID_1_" x="-149.2" y="35.5" width="448.5" height="79"/>
	</defs>
	<clipPath id="SVGID_00000101099598780700551380000007128941957021053063_">
		<use xlink:href="#SVGID_1_"  style="overflow:visible;"/>
	</clipPath>
</g>
<g>
	<path class="st0" d="M145.2,64.9L84.5,8.2c-5.3-4.9-13.6-4.9-19,0L27.4,43.9c10,3.7,17.8,12,20.7,22.4h51.5c2.7,0,4.7,2.2,4.7,4.7
		v7.8c0,2.7-2.2,4.7-4.7,4.7h-5.9v11c0,2.7-2.2,4.7-4.7,4.7h-13c-2.7,0-4.7-2.2-4.7-4.7v-11H48.3c-2.9,10.5-10.7,19-20.8,22.5
		l38.3,35.7c5.3,4.9,13.6,4.9,19,0l60.5-56.8C150.9,79.7,150.9,70.5,145.2,64.9z"/>
	<path class="st0" d="M16.3,59.3c-2.5,0-4.9,0.7-7.1,1.7c-5.1,2.5-8.6,7.8-8.6,13.9c0,5.9,3.2,11,8.1,13.7c2.2,1.2,4.7,1.9,7.5,1.9
		c8.6,0,15.6-6.9,15.6-15.6C32,66.4,24.9,59.3,16.3,59.3z"/>
</g>
</svg>
