<svg xmlns="http://www.w3.org/2000/svg" viewBox="0 0 48 48"><path fill="#39457e" d="M24 0C10.745 0 0 10.745 0 24s10.745 24 24 24 24-10.745 24-24S37.255 0 24 0zm-.624 1.71c.504 0 .824 8.235.426 10.97-.318 2.182-1.243 4.437-2.85 6.95-2.889 4.851-4.122 9.237-1.627 14.517.604 1.258 1.561 2.929 2.126 3.715.578.805.959 1.607.87 1.837-.26.677-.783.471-2.48-.981-2.163-1.851-3.504-3.588-4.439-5.742-1.117-2.756-1.208-6.393.071-9.107.717-1.52 2.179-3.74 2.852-4.332.748-.658 3.026-4.056 3.677-5.485.794-1.742.814-1.904.919-7.063.081-4.035.188-5.278.455-5.278zM22.01 3.902c.342 0 .41.525.407 3.086-.003 4.21-.308 4.815-4.858 9.571-5.274 5.514-6.58 7.624-6.85 11.07-.361 4.611 1.905 8.53 6.76 11.696 1.123.732 2.142 1.332 2.263 1.332.122 0 .22.185.22.411 0 .875-2.443.242-5.354-1.386-6.522-3.647-9.176-10.888-6.172-16.84.984-1.949 3.53-4.56 6.569-6.734 4.202-3.008 5.722-4.493 6.284-6.143.175-.513.32-2.086.32-3.497 0-2.097.075-2.566.411-2.566zm2.72 1.14c.073-.012.165.217.276.66.142.564.29.664.756.516.49-.155.548-.103.366.328-.12.281-.276 1.201-.347 2.046-.11 1.3-.025 1.698.555 2.605.962 1.504 1.783 2.196 5.686 4.786 4.467 2.965 6.6 5.022 7.863 7.575 1.421 2.96 1.22 6.678-.124 9.652-1.548 3.124-3.872 5.383-7.338 7.134-2.382 1.203-3.57 1.303-4.899.418-.587-.392-1.574-.856-2.194-1.032-1.39-.395-1.82-1.181-2.827-5.155-1.1-4.677-.874-9.355.622-13.94l1.343-5.074.006-5.28c.004-3.606.071-5.208.257-5.239zm1.289 8.277c-.014.003-.022.02-.023.048-.011.559 1.083 1.894 2.729 3.33 3.962 3.456 6.468 7.389 6.77 10.629.33 3.53-.817 7.169-3.23 10.239-.743.946-1.281 1.72-1.196 1.72.476 0 1.778-.928 2.76-1.967 1.756-1.854 2.812-3.522 3.542-5.591 2.134-6.895-2.164-10.845-7.375-14.795-1.677-1.257-3.262-2.635-3.522-3.063-.211-.347-.393-.564-.455-.551zm-2 27.954h.035c.125.004.274.08.45.225.296.247.387.77.329 1.875-.071 1.352-.153 1.545-.697 1.622-.586.083-.618-.005-.618-1.7 0-1.35.15-1.994.5-2.022zm-1.863.505c.153.003.324.128.524.37.356.428.108 1.117-.689 1.914-.238.238-.671.434-.962.434-.613 0-.718-.768-.136-.991.216-.083.519-.51.672-.95.184-.527.368-.782.591-.777zm3.742.113c.337 0 1.735 1.887 1.735 2.342 0 .546-1.082.232-1.64-.476-.601-.766-.658-1.866-.095-1.866z"/></svg>