<svg xmlns="http://www.w3.org/2000/svg" viewBox="0 0 48 48"><path d="M22.4 54.7c2.9 0 5.4-.9 7.5-2.6 2.1-1.7 3.6-4 4.4-6.8.8-2.8.6-5.1-.5-6.8-1.1-1.7-3.2-2.6-6.1-2.6-2.9 0-5.4.9-7.5 2.6-2.1 1.7-3.5 4-4.3 6.8-.8 2.8-.7 5.1.5 6.8 1 1.8 3 2.6 6 2.6" class="pfsense-black_svg__pf0" style="fill:#1a1a1a" transform="scale(.61935)"/><path d="m47.2 35.9 2.6-9.2h4.6l1.8-6.6c.6-2 1.3-4 2.2-5.8.8-1.8 2-3.4 3.4-4.8S65 7 67.1 6.2C69.2 5.4 71.9 5 75 5c.8 0 1.5 0 2.3.1C76.6 2.2 74 .1 71 0H6.5C2.9 0 0 3 0 6.6V64l10.5-37.3h10.6l-1.4 4.9h.2c.6-.7 1.4-1.3 2.4-2s2-1.3 3.1-1.9c1.1-.6 2.3-1 3.6-1.4 1.3-.4 2.6-.5 3.9-.5 2.8 0 5.1.5 7.1 1.4 2 .9 3.5 2.3 4.7 4 1 1.5 1.6 3.3 1.9 5.4l.8-.6h-.2z" class="pfsense-black_svg__pf1" style="fill:#1a1a1a" transform="scale(.61935)"/><path d="M76.7 14.9c-.5-.1-1.1-.2-1.8-.2-1.8 0-3.3.4-4.5 1.2-1.1.8-2.1 2.4-2.8 4.9l-1.7 5.9h6.5l1.6 5.1-4.2 4.1h-6.5l-7.9 28H44l7.9-28h-4.4l-.9.6c0 .2.1.5.1.7.2 2.3-.1 4.9-.9 7.7-.7 2.6-1.8 5.1-3.3 7.5-1.5 2.4-3.2 4.5-5.1 6.3-2 1.8-4.2 3.3-6.6 4.4-2.4 1.1-4.9 1.6-7.6 1.6-2.4 0-4.5-.4-6.4-1.1-1.9-.7-3.2-2-4-3.8h-.2l-5 17.7h63.3c3.6 0 6.6-2.9 6.6-6.6V15.2c-.3-.1-.6-.2-.8-.3" class="pfsense-black_svg__pf2" style="fill:#1a1a1a" transform="scale(.61935)"/></svg>