<svg xmlns="http://www.w3.org/2000/svg" viewBox="0 0 48 48"><path d="M-114.729 135.472c22.452 0 41.807-6.967 58.065-20.129 16.258-13.16 27.87-30.967 34.064-52.645 6.194-21.677 4.645-39.484-3.87-52.645-8.517-13.161-24.775-20.129-47.227-20.129-22.451 0-41.806 6.968-58.064 20.13-16.258 13.16-27.097 30.967-33.29 52.644-6.194 21.678-5.42 39.484 3.87 52.645 7.743 13.936 23.226 20.13 46.452 20.13" style="fill:#2b40b5;stroke-width:7.74195" transform="matrix(.08 0 0 .08 23.052 23.04)"/><path d="m77.271-10.076 20.13-71.226h35.612l13.936-51.096c4.645-15.484 10.064-30.968 17.032-44.904 6.193-13.935 15.484-26.322 26.322-37.161 10.84-10.839 24.775-19.355 41.033-25.548 16.258-6.194 37.161-9.29 61.161-9.29 6.194 0 11.613 0 17.806.773-5.419-22.451-25.548-38.71-48.774-39.483h-499.355c-27.87 0-50.322 23.225-50.322 51.096v444.387l81.29-288.774h82.065l-10.839 37.936h1.548c4.646-5.42 10.84-10.065 18.581-15.484 7.742-5.42 15.484-10.065 24-14.71 8.516-4.645 17.806-7.742 27.871-10.838 10.064-3.097 20.129-3.871 30.194-3.871 21.677 0 39.483 3.87 54.967 10.838 15.484 6.968 27.097 17.807 36.387 30.968 7.742 11.613 12.387 25.548 14.71 41.806l6.194-4.645h-1.55z" style="fill:#1475cf;stroke-width:7.74195" transform="matrix(.08 0 0 .08 23.052 23.04)"/><path d="M305.658-172.657c-3.87-.774-8.516-1.548-13.935-1.548-13.936 0-25.549 3.097-34.839 9.29-8.516 6.194-16.258 18.581-21.677 37.936l-13.162 45.677h50.323l12.387 39.484-32.516 31.742h-50.323l-61.16 216.774h-88.26l61.161-216.774H79.594L72.626-5.43c0 1.549.774 3.871.774 5.42 1.549 17.806-.774 37.935-6.968 59.613-5.419 20.129-13.935 39.483-25.548 58.064C29.271 136.246 16.11 152.505 1.4 166.44c-15.484 13.936-32.516 25.549-51.097 34.065-18.58 8.516-37.935 12.387-58.838 12.387-18.58 0-34.839-3.097-49.549-8.516-14.71-5.42-24.774-15.484-30.967-29.42h-1.549l-38.71 137.033h490.065c27.871 0 51.097-22.452 51.097-51.097v-431.226c-2.323-.774-4.645-1.548-6.194-2.323" style="fill:#1c1275;stroke-width:7.74195" transform="matrix(.08 0 0 .08 23.052 23.04)"/></svg>