<?xml version="1.0" encoding="utf-8"?>
<!-- Generator: Adobe Illustrator 26.3.1, SVG Export Plug-In . SVG Version: 6.00 Build 0)  -->
<svg version="1.1" id="Laag_1" xmlns="http://www.w3.org/2000/svg" xmlns:xlink="http://www.w3.org/1999/xlink" x="0px" y="0px"
	 viewBox="0 0 48 48" style="enable-background:new 0 0 48 48;" xml:space="preserve">
<style type="text/css">
	.st0{fill:url(#SVGID_1_);}
	.st1{fill:none;stroke:#1D1D1B;stroke-miterlimit:10;}
</style>
<linearGradient id="SVGID_1_" gradientUnits="userSpaceOnUse" x1="12.763" y1="2.003" x2="45.997" y2="35.237" gradientTransform="matrix(1 0 0 -1 -5.38 42.62)">
	<stop  offset="0" style="stop-color:#FFFFFF"/>
	<stop  offset="0" style="stop-color:#B8EDFF"/>
	<stop  offset="1" style="stop-color:#D4B8FF"/>
</linearGradient>
<circle class="st0" cx="24" cy="24" r="23.5"/>
<path class="st1" d="M40.2,31.7l-0.7,4.3 M7.8,31.9l2.6,2.5 M27.5,9.9L10.4,34.4c0,0,0,0,0,0c0,0,0,0,0,0l29.1,1.7c0,0,0,0,0,0
	c0,0,0,0,0,0L27.5,9.9C27.5,9.9,27.5,9.9,27.5,9.9L27.5,9.9z M24,7.5L7.8,31.9c0,0,0,0,0,0c0,0,0,0,0,0l32.4-0.1c0,0,0,0,0,0
	c0,0,0,0,0,0L24,7.5C24,7.5,24,7.5,24,7.5C24,7.5,24,7.5,24,7.5L24,7.5z M24,7.5l3.5,2.4"/>
</svg>
