<svg xmlns="http://www.w3.org/2000/svg" viewBox="0 0 48 48"><path fill="#5663a0" d="M18.461 36.919c-5.737 1.952-5.901 2.697-11.1 2.087-3.67-.43-7.36-2.234-7.36-2.234s4.811 3.938 9.828 4.254c3.97.25 7.008-1.64 10.628-2.825 5.323-1.742 9.022-1.942 12.507-1.95C38.72 36.234 48 38.706 48 38.706s-4.223-2.09-10.069-3.443c-6.51-1.507-13.734-.297-19.471 1.655z"/><path fill="#f89c0e" d="m44.115 26.43-35.84 6.098c1.849.626 3.148 2.43 3.07 4.506a4.626 4.626 0 0 1-.21 1.221c.109-.052 5.374-2.548 12.68-4.067 6.477-1.346 11.445-.722 12.57-.548a12.923 12.923 0 0 1 7.73-7.21z"/><path fill="#6c78af" d="M21.134 18.122c1.214 5.911.097 9.671-.804 11.546a14.681 14.681 0 0 1 9.008-3.987c1.72-.13 3.394.04 4.968.465-.199-1.481-1.187-6.83-5.465-11.843-6.527-7.646-14.359-7.276-14.359-7.276s4.812 2.132 6.653 11.095z"/><path fill="#6c78af" fill-opacity=".75" d="M18.296 13.685c-2.137-4.772-6.002-6.321-7.371-6.733 2.453 3.498 4.067 7.848 4.433 12.646.284 3.728-.217 7.303-1.342 10.509a8.58 8.58 0 0 1 6.235-3.064c.16-.982.938-6.898-1.954-13.358z"/></svg>