<?xml version="1.0" encoding="utf-8"?>
<!-- Generator: Adobe Illustrator 27.1.1, SVG Export Plug-In . SVG Version: 6.00 Build 0)  -->
<svg version="1.1"
	 id="svg2" xmlns:dc="http://purl.org/dc/elements/1.1/" xmlns:cc="http://creativecommons.org/ns#" xmlns:svg="http://www.w3.org/2000/svg" xmlns:rdf="http://www.w3.org/1999/02/22-rdf-syntax-ns#"
	 xmlns="http://www.w3.org/2000/svg" xmlns:xlink="http://www.w3.org/1999/xlink" x="0px" y="0px" viewBox="0 0 48 48"
	 style="enable-background:new 0 0 48 48;" xml:space="preserve">
<style type="text/css">
	.st0{fill:#FFFF59;}
	.st1{fill:#BBBBFF;}
	.st2{fill:none;stroke:#CCCCCC;stroke-linecap:round;stroke-linejoin:round;}
</style>
<g id="g5">
	<path id="path14" class="st0" d="M26.8,1.7L26.8,1.7c-0.1-0.1-0.1-0.1-0.1-0.1l-0.1,0c0,0-0.1,0.1-0.1,0.1l-1.7,31.6l0.3,0
		l1.7-30.7l2,3.3h0c1.5,4.5,2.2,9.2,1.9,14.3l0.1,0.2l2,3.5l0.1,0.1c3.1,2.7,6.5,4.5,10.3,5.4l0.9,1.5l0.1,0l0,0L26.8,2.3L26.8,1.7"
		/>
	<path id="path18" class="st0" d="M26.2,12.8c2.2,4.4,2.9,11.1,2.4,20l8.4-1L26.2,12.8z"/>
	<path id="path20" class="st1" d="M45.3,32.2c0.9-0.1,1.4-0.3,1.7-0.6L3.1,37h0c0,1.8,0.8,3.3,2.4,4.3C6,41.6,6.4,41.8,6.8,42
		c0.4-0.5,0.8-0.8,1.3-1.1h0c4.6-2.8,11.4-3.2,20.4-1.3l0.1,0c1,0.2,2,0.5,2.9,0.7c0.3,0,0.5,0,0.7-0.2c0.3-0.2,0.7-0.4,1.3-0.6v0
		c1.5-2.6,3.4-4.5,5.9-5.7C41.2,33,43.1,32.4,45.3,32.2"/>
	<path id="path22" class="st0" d="M24.3,33l2-30.8c-2.9,11.2-7.6,21.7-14,31.5L24.3,33"/>
	<path id="path24" class="st0" d="M13,8.2L13,8.2l-0.2,0l0,0.1l-1.7,26.7l0.2,0L13,8.2L13,8.2"/>
	<path id="path26" class="st0" d="M10.6,34.4L10.6,34.4l1.8-26L3.1,35.2L10.6,34.4"/>
</g>
<g id="g13">
	<path id="path34" class="st2" d="M11,43c-2.3,1.1-4,1.3-5.1,0.6c-1.1-0.7-2.7-0.6-4.9,0.5"/>
	<path id="path36" class="st2" d="M16.4,43.2C16,43.1,15.5,43,15,42.9c-1-0.1-2.2,0.3-3.6,1.1c-1.4,0.9-3.1,1.2-5.1,1"/>
	<path id="path38" class="st2" d="M29.1,41.1c-9.8-2-16.8-1.5-21.1,1.4"/>
	<path id="path40" class="st2" d="M35.2,42.1c-0.4-0.2-0.9-0.3-1.4-0.3c-1-0.1-2.2,0.3-3.6,1.1c-1.4,0.8-3.1,1.2-5.1,1"/>
	<path id="path42" class="st2" d="M22.1,8.4C21.1,7.8,20.1,8,19,9c-0.9-1-1.9-1.1-3-0.5"/>
	<path id="path44" class="st2" d="M19.8,5c-1-0.6-2-0.4-3.1,0.7c-1-1.1-2-1.4-3.1-0.7"/>
</g>
</svg>
