
<svg xmlns="http://www.w3.org/2000/svg" version="1.1" xmlns:xlink="http://www.w3.org/1999/xlink" preserveAspectRatio="none" x="0px" y="0px" width="150px" height="150px" viewBox="0 0 150 150">
<defs>
<g id="Layer0_0_FILL">
<path fill="#C98B17" stroke="none" d="
M 101 20.1
Q 96.986328125 20.6587890625 93.55 22.5 91.0751953125 23.875390625 88.9 25.9 88.06953125 26.67890625 87.35 27.5 85.2828125 29.841796875 84.1 32.5 82.7974609375 35.4212890625 82.5 38.7 82.45 39.593359375 82.45 40.5 82.45 42.7390625 82.9 44.8 83.0958984375 45.7306640625 83.35 46.6 83.911328125 48.2861328125 84.75 49.8 85.8916015625 51.9130859375 87.6 53.75 87.65 54.3822265625 87.65 55 87.65 60.4212890625 83.85 64.25
L 87.35 67.65
Q 91.5470703125 63.408203125 92.35 57.75 95.1087890625 59.5078125 98.25 60.35 96.85234375 66.94765625 91.85 72.05
L 96.05 76.15
Q 102.466796875 69.6416015625 104.1 61.15 104.336328125 61.15 104.55 61.15 108.3544921875 61.15 111.7 60.1 110.17734375 72.244140625 101.3 81.3
L 105.75 85.65
Q 117.6341796875 73.5302734375 118.2 56.75
L 121.7 60.05 120.5 61.15 138.75 77.6
Q 138.9119140625 77.7619140625 139.05 77.9 139.1919921875 77.9958984375 139.3 78.05 140.39140625 78.85 141.8 78.85 143.6 78.85 144.85 77.6 146.1 76.35 146.1 74.55 146.1 72.8634765625 145 71.65
L 126.95 55.35 125.25 57.15 121.6 53.6
Q 126.65 48.0083984375 126.65 40.5 126.65 31.95 120.15 25.9 113.7 19.85 104.55 19.85 102.7185546875 19.85 101 20.1
M 104.75 24.05
Q 105.1083984375 24.05 105.45 24.05 112.2546875 24.2873046875 117.15 28.85 122.3 33.65 122.3 40.4 122.3 46.28515625 118.35 50.7 118.23515625 50.85703125 118.1 51 117.646484375 51.487109375 117.15 51.95 114.794140625 54.1458984375 112 55.3 108.6833984375 56.75 104.75 56.75 104.7029296875 56.75 104.65 56.75 101.523046875 56.736328125 98.8 55.8 95.2392578125 54.64296875 92.35 51.95 92.3291015625 51.9306640625 92.3 51.9 88.174609375 48.0361328125 87.35 42.9 87.3361328125 42.5748046875 87.3 42.25 87.2 41.344921875 87.2 40.4 87.2 37.99296875 87.85 35.8 88.0037109375 35.321484375 88.2 34.8 89.2388671875 32.1265625 91.35 29.8 91.83359375 29.33125 92.35 28.85 94.766796875 26.5974609375 97.65 25.4 100.9021484375 24.05 104.75 24.05
M 99.65 27.1
Q 99.714453125 27.169140625 99.75 27.2 100.662890625 27.1 101.6 27.1 102.898828125 27.1 104.1 27.3 107.7767578125 27.943359375 110.8 30.45 112.2486328125 31.633203125 113.55 33.25 118.141015625 38.95390625 118.45 46.85 119.7 44.1072265625 119.7 40.85 119.7 34.75 115.4 30.45 112.0513671875 27.1013671875 107.6 26.35 106.5212890625 26.1775390625 105.35 26.15 105.1853515625 26.15 105 26.15 102.123046875 26.15 99.65 27.1
M 126.15 97.4
Q 124.5529296875 95.8029296875 122.3 95.75
L 77.75 95.75 77.75 59.75
Q 78.1408203125 59.4591796875 78.5 59.1 78.5208984375 59.0791015625 78.55 59.05 80.2 57.3705078125 80.2 55 80.2 52.6982421875 78.6 51.05 78.56953125 50.96953125 78.5 50.9 76.8 49.2 74.4 49.2 72 49.2 70.3 50.9 70.278125 50.921875 70.25 50.95 68.6 52.630859375 68.6 55 68.6 57.292578125 70.15 58.95 70.223828125 59.023828125 70.3 59.1 70.8396484375 59.6396484375 71.45 60
L 71.45 95.75 27.65 95.75
Q 27.6001953125 95.75 27.55 95.75 25.2 95.75 23.5 97.4 22.0078125 98.9375 21.85 101 21.8537109375 101.1369140625 21.85 101.25
L 21.85 119.55
Q 21.8646484375 120.1443359375 21.95 120.65 22.313671875 122.213671875 23.5 123.4 25.1681640625 125.0681640625 27.45 125.1
L 122.15 125.1
Q 124.5 125.1 126.15 123.4 127.6435546875 121.950390625 127.8 119.95
L 127.7 118.05 127.7 102.75 127.85 101.25
Q 127.77578125 99.02578125 126.15 97.4
M 43.5 110.8
Q 43.5 113.4 41.65 115.25 39.8 117.1 37.2 117.1 34.6 117.1 32.75 115.25 30.9 113.4 30.9 110.8 30.9 108.2 32.75 106.35 34.6 104.5 37.2 104.5 39.8 104.5 41.65 106.35 43.5 108.2 43.5 110.8
M 71.9 110.7
Q 71.9 112.05 70.95 112.95 70.05 113.9 68.7 113.9 67.35 113.9 66.4 112.95 65.5 112.05 65.5 110.7 65.5 109.35 66.4 108.4 67.35 107.5 68.7 107.5 70.05 107.5 70.95 108.4 71.9 109.35 71.9 110.7
M 87.7 110.7
Q 87.7 112.05 86.75 112.95 85.85 113.9 84.5 113.9 83.15 113.9 82.2 112.95 81.3 112.05 81.3 110.7 81.3 109.35 82.2 108.4 83.15 107.5 84.5 107.5 85.85 107.5 86.75 108.4 87.7 109.35 87.7 110.7
M 101.65 108.4
Q 102.6 109.35 102.6 110.7 102.6 112.05 101.65 112.95 100.75 113.9 99.4 113.9 98.05 113.9 97.1 112.95 96.2 112.05 96.2 110.7 96.2 109.35 97.1 108.4 98.05 107.5 99.4 107.5 100.75 107.5 101.65 108.4
M 117.7 108.4
Q 118.65 109.35 118.65 110.7 118.65 112.05 117.7 112.95 116.8 113.9 115.45 113.9 114.1 113.9 113.15 112.95 112.25 112.05 112.25 110.7 112.25 109.35 113.15 108.4 114.1 107.5 115.45 107.5 116.8 107.5 117.7 108.4
M 47.5 28.7
L 43.05 24.35
Q 30.55 37.0978515625 30.55 55 30.55 72.36875 42.3 84.85
L 46.85 80.65
Q 36.8 69.9255859375 36.8 55 36.8 39.613671875 47.5 28.7
M 56.95 37.95
L 52.7 33.8
Q 44.1 42.621875 44.1 55 44.1 67.025390625 52.2 75.65
L 56.55 71.6
Q 50 64.6626953125 50 55 50 45.0427734375 56.95 37.95
M 64.9 45.7
L 61.4 42.3
Q 56.25 47.6056640625 56.25 55 56.25 62.1916015625 61.1 67.35
L 64.7 64
Q 61.15 60.2765625 61.15 55 61.15 49.578515625 64.9 45.7 Z"/>
</g>

<path id="Layer0_0_1_STROKES" stroke="#C98B17" stroke-width="1" stroke-linejoin="round" stroke-linecap="round" fill="none" d="
M 122.3 40.4
Q 122.3 46.28515625 118.375 50.7 118.23515625 50.85703125 118.1 51.025 117.646484375 51.487109375 117.15 51.95 114.794140625 54.1458984375 112 55.325 108.6833984375 56.75 104.75 56.75 104.7029296875 56.75 104.65 56.75 101.523046875 56.736328125 98.8 55.825 95.2392578125 54.64296875 92.35 51.95 92.3291015625 51.9306640625 92.3 51.9 88.174609375 48.0361328125 87.375 42.9 87.3361328125 42.5748046875 87.3 42.25 87.2 41.344921875 87.2 40.4 87.2 37.99296875 87.85 35.825 88.0037109375 35.321484375 88.2 34.825 89.2388671875 32.1265625 91.375 29.825 91.83359375 29.33125 92.35 28.85 94.766796875 26.5974609375 97.65 25.4 100.9021484375 24.05 104.75 24.05 105.1083984375 24.05 105.45 24.05 112.2546875 24.2873046875 117.15 28.85 122.3 33.65 122.3 40.4 Z
M 126.65 40.5
Q 126.65 48.0083984375 121.625 53.6
L 125.25 57.15 126.95 55.35 145 71.65
Q 146.1 72.8634765625 146.1 74.55 146.1 76.35 144.85 77.6 143.6 78.85 141.8 78.85 140.39140625 78.85 139.325 78.075 139.1919921875 77.9958984375 139.075 77.9 138.9119140625 77.7619140625 138.75 77.6
L 120.5 61.15 121.7 60.05 118.225 56.75
Q 117.6341796875 73.5302734375 105.75 85.65
L 101.3 81.3
Q 110.17734375 72.244140625 111.7 60.1 108.3544921875 61.15 104.55 61.15 104.336328125 61.15 104.125 61.15 102.466796875 69.6416015625 96.05 76.15
L 91.85 72.05
Q 96.85234375 66.94765625 98.25 60.35 95.1087890625 59.5078125 92.35 57.775 91.5470703125 63.408203125 87.35 67.65
L 83.85 64.25
Q 87.65 60.4212890625 87.65 55 87.65 54.3822265625 87.6 53.775 85.8916015625 51.9130859375 84.75 49.825 83.911328125 48.2861328125 83.375 46.625 83.0958984375 45.7306640625 82.9 44.8 82.45 42.7390625 82.45 40.5 82.45 39.593359375 82.525 38.725 82.7974609375 35.4212890625 84.1 32.525 85.2828125 29.841796875 87.35 27.5 88.06953125 26.67890625 88.9 25.9 91.0751953125 23.875390625 93.55 22.525 96.986328125 20.6587890625 101 20.1 102.7185546875 19.85 104.55 19.85 113.7 19.85 120.15 25.9 126.65 31.95 126.65 40.5 Z
M 118.475 46.85
Q 119.7 44.1072265625 119.7 40.85 119.7 34.75 115.4 30.45 112.0513671875 27.1013671875 107.6 26.35 106.5212890625 26.1775390625 105.375 26.15 105.1853515625 26.15 105 26.15 102.123046875 26.15 99.65 27.125 99.714453125 27.169140625 99.775 27.225 100.662890625 27.1 101.6 27.1 102.898828125 27.1 104.125 27.3 107.7767578125 27.943359375 110.8 30.45 112.2486328125 31.633203125 113.55 33.25 118.141015625 38.95390625 118.475 46.85 Z
M 99.775 27.225
Q 99.4814453125 27.2515625 99.2 27.3 99.425 27.2025390625 99.65 27.125
M 87.3 42.25
Q 87.4861328125 42.438671875 87.675 42.625
L 87.375 42.9
M 127.825 119.95
Q 127.6435546875 121.950390625 126.15 123.4 124.5 125.1 122.15 125.1
L 27.45 125.1
Q 25.1681640625 125.0681640625 23.5 123.4 22.313671875 122.213671875 21.975 120.675 21.8646484375 120.1443359375 21.85 119.575
L 21.85 101.275
Q 21.8537109375 101.1369140625 21.875 101 22.0078125 98.9375 23.5 97.4 25.2 95.75 27.55 95.75 27.6001953125 95.75 27.65 95.75
L 71.45 95.75 71.45 60
Q 70.8396484375 59.6396484375 70.3 59.1 70.223828125 59.023828125 70.15 58.95 68.6 57.292578125 68.6 55 68.6 52.630859375 70.25 50.95 70.278125 50.921875 70.3 50.9 72 49.2 74.4 49.2 76.8 49.2 78.5 50.9 78.56953125 50.96953125 78.625 51.05 80.2 52.6982421875 80.2 55 80.2 57.3705078125 78.55 59.05 78.5208984375 59.0791015625 78.5 59.1 78.1408203125 59.4591796875 77.75 59.75
L 77.75 95.75 122.3 95.75
Q 124.5529296875 95.8029296875 126.15 97.4 127.77578125 99.02578125 127.85 101.25 127.85 101.347265625 127.85 101.45 127.85 102.14765625 127.7 102.775
L 127.7 118.05
Q 127.85 118.70234375 127.85 119.4 127.85 119.685546875 127.825 119.95
L 127.7 118.05
M 52.7 33.8
Q 44.1 42.621875 44.1 55 44.1 67.025390625 52.225 75.65
L 56.55 71.625
Q 50 64.6626953125 50 55 50 45.0427734375 56.95 37.95
L 52.7 33.8 Z
M 61.4 42.3
Q 56.25 47.6056640625 56.25 55 56.25 62.1916015625 61.125 67.35
L 64.7 64.025
Q 61.15 60.2765625 61.15 55 61.15 49.578515625 64.9 45.7
L 61.4 42.3 Z
M 43.05 24.35
Q 30.55 37.0978515625 30.55 55 30.55 72.36875 42.325 84.875
L 46.875 80.65
Q 36.8 69.9255859375 36.8 55 36.8 39.613671875 47.5 28.7
L 43.05 24.35 Z
M 71.9 110.7
Q 71.9 112.05 70.95 112.95 70.05 113.9 68.7 113.9 67.35 113.9 66.4 112.95 65.5 112.05 65.5 110.7 65.5 109.35 66.4 108.4 67.35 107.5 68.7 107.5 70.05 107.5 70.95 108.4 71.9 109.35 71.9 110.7 Z
M 43.5 110.8
Q 43.5 113.4 41.65 115.25 39.8 117.1 37.2 117.1 34.6 117.1 32.75 115.25 30.9 113.4 30.9 110.8 30.9 108.2 32.75 106.35 34.6 104.5 37.2 104.5 39.8 104.5 41.65 106.35 43.5 108.2 43.5 110.8 Z
M 127.85 101.25
L 127.7 102.775
M 118.65 110.7
Q 118.65 112.05 117.7 112.95 116.8 113.9 115.45 113.9 114.1 113.9 113.15 112.95 112.25 112.05 112.25 110.7 112.25 109.35 113.15 108.4 114.1 107.5 115.45 107.5 116.8 107.5 117.7 108.4 118.65 109.35 118.65 110.7 Z
M 102.6 110.7
Q 102.6 112.05 101.65 112.95 100.75 113.9 99.4 113.9 98.05 113.9 97.1 112.95 96.2 112.05 96.2 110.7 96.2 109.35 97.1 108.4 98.05 107.5 99.4 107.5 100.75 107.5 101.65 108.4 102.6 109.35 102.6 110.7 Z
M 87.7 110.7
Q 87.7 112.05 86.75 112.95 85.85 113.9 84.5 113.9 83.15 113.9 82.2 112.95 81.3 112.05 81.3 110.7 81.3 109.35 82.2 108.4 83.15 107.5 84.5 107.5 85.85 107.5 86.75 108.4 87.7 109.35 87.7 110.7 Z"/>
</defs>

<g transform="matrix( 1, 0, 0, 1, 0,0) ">
<use xlink:href="#Layer0_0_FILL"/>

<use xlink:href="#Layer0_0_1_STROKES"/>
</g>
</svg>
