<svg xmlns="http://www.w3.org/2000/svg" viewBox="0 0 48 48"><defs><linearGradient id="pihole_svg__New_Gradient_Swatch_1" x1="2.71" x2="69.77" y1="20.04" y2="20.04" gradientUnits="userSpaceOnUse"><stop offset="0" stop-color="#12b212"/><stop offset="1" stop-color="#0f0"/></linearGradient><style>.pihole_svg__cls-2{fill:#980200}.pihole_svg__cls-3{fill:red}</style></defs><path fill="url(#pihole_svg__New_Gradient_Swatch_1)" d="M36.56 39.93C20.34 38.2 4 25.94 2.71 0c25.17 0 38.63 14.9 39.93 38.51 4.76-28.32 27.07-25 27.07-25 1.06 16.05-12.12 25.78-27.07 26.59-4.2-8.85-29.36-30.56-29.36-30.56a.07.07 0 0 0-.11.08s24.28 21.15 23.39 30.31" transform="translate(7.686) scale(.36943)"/><path d="M24 48c-.58-.033-5.992-.24-6.32-6.32-.267-3.695 2.652-6.418 2.652-10.005-.662-8.944-12.646-7.836-12.646 0a7.366 7.366 0 0 0 2.154 5.224l8.929 8.932a7.366 7.366 0 0 0 5.224 2.154" class="pihole_svg__cls-2"/><path d="M40.314 31.679c-.033.58-.24 5.992-6.32 6.32-3.695.267-6.422-2.652-10.005-2.652-8.944.661-7.836 12.642 0 12.642a7.366 7.366 0 0 0 5.224-2.154l8.936-8.929a7.366 7.366 0 0 0 2.154-5.224" class="pihole_svg__cls-3"/><path d="M24 15.365c.58.033 5.992.24 6.321 6.32.266 3.695-2.653 6.418-2.653 10.005.662 8.944 12.642 7.835 12.642 0a7.366 7.366 0 0 0-2.153-5.224l-8.933-8.937A7.366 7.366 0 0 0 24 15.376" class="pihole_svg__cls-2"/><path d="M7.716 31.679c.033-.58.24-5.993 6.32-6.321 3.695-.266 6.421 2.652 10.005 2.652 8.944-.672 7.835-12.642 0-12.642a7.366 7.366 0 0 0-5.224 2.154L9.88 26.455a7.366 7.366 0 0 0-2.153 5.224" class="pihole_svg__cls-3"/></svg>