<svg xmlns="http://www.w3.org/2000/svg" viewBox="0 0 48 48"><path d="M46.536 3.605c-.333.187-1.164.416-1.705.478-.187.021-.457.049-.589.07-1.718.228-3.61.256-18.295.284-7.415.007-13.666.034-13.895.055-1.476.118-1.517.125-2.39.25-.777.117-.756.11-1.497.305-2.239.596-3.992 1.677-5.399 3.333-.388.457-1.074 1.455-1.074 1.56 0 .034-.028.068-.055.082-.028.007-.208.333-.402.714C.61 11.976.16 13.39.057 14.478c-.07.7-.077 1.906-.014 2.149.027.11.07.318.09.45s.11.36.194.506c.374.672.99.54 1.615-.354.43-.61 1.406-1.573 1.968-1.94 1.08-.714 2.536-1.233 4.4-1.566.118-.02.27-.056.347-.07s.325-.048.554-.076.492-.062.59-.076c.2-.028.956-.09 1.558-.138.908-.07 3.015-.111 3.015-.056 0 .035-.042.312-.097.617a61.74 61.74 0 0 0-.222 1.247c-.014.111-.041.284-.062.381s-.049.264-.07.382c-.013.11-.096.52-.173.9s-.16.804-.18.936-.048.298-.07.36c-.02.07-.048.208-.068.312-.077.465-.617 2.78-.867 3.729-.928 3.5-1.843 6.022-3.125 8.676-1.144 2.356-2.467 4.026-4.214 5.28-.949.687-1.42 1.227-1.822 2.073-.222.464-.222.47-.222 1.573 0 1.24.097 1.74.478 2.53.555 1.15 1.885 1.974 3.576 2.21.485.07 2.148.055 2.266-.014.035-.02.173-.062.305-.083.686-.125 1.615-.645 2.252-1.268 1.421-1.4 2.842-4.671 3.52-8.088.063-.305.132-.63.153-.727s.049-.25.07-.347.124-.61.235-1.15c.111-.534.222-1.081.243-1.213s.118-.61.208-1.067c.235-1.192.644-3.354.686-3.638.041-.264.152-.901.208-1.178a23.4 23.4 0 0 0 .11-.624c.035-.25.084-.513.098-.59s.048-.276.076-.45.062-.374.076-.45c.042-.27.305-1.802.333-1.975.02-.097.173-1.06.353-2.148.173-1.089.347-2.163.381-2.391.042-.229.083-.513.104-.624.049-.312.312-1.989.347-2.176.014-.09.055-.312.083-.485s.055-.34.062-.374c.007-.028.014-.084.021-.118.007-.049 2.114-.07 6.168-.07h6.16l-.38.915a96.004 96.004 0 0 0-.555 1.372c-.09.25-.201.513-.236.59-.499 1.129-2.786 7.283-3.201 8.627a49.64 49.64 0 0 0-.638 2.28c-.104.458-.45 2.176-.485 2.398-.02.153-.07.464-.104.693s-.083.617-.104.866c-.028.25-.055.5-.07.555-.062.235-.13 1.843-.124 2.876.007 1.275.042 1.711.263 3.187.139.943.555 2.197.991 3.015.458.86 1.234 1.726 2.142 2.398.956.714 1.559 1.005 2.668 1.275.797.194 1.032.215 2.377.242 3.167.056 5.863-.81 8.454-2.71 1.192-.872 2.78-2.681 3.493-3.977.54-.984 1.026-2.003 1.351-2.82s.395-1.068.402-1.456c.035-1.171-.436-1.663-1.372-1.441-.464.11-.707.27-1.199.824-1.351 1.511-2.474 2.37-3.555 2.73-.762.257-.977.299-1.594.327-.637.027-1.04-.063-1.621-.347-1.24-.61-2.232-2.218-2.654-4.331-.23-1.13-.278-1.92-.25-4.262.02-1.296.042-2.481.062-2.634.014-.152.049-.589.077-.97.02-.38.055-.79.069-.9.028-.195.07-.59.139-1.248.02-.153.048-.388.069-.52.014-.131.048-.38.07-.554s.055-.388.068-.485c.021-.097.049-.27.063-.381.048-.298.242-1.428.284-1.629.02-.097.062-.346.104-.554.104-.569.11-.596.312-1.49.2-.922.575-2.405.617-2.44.013-.014.63-.041 1.365-.055 1.261-.028 2.578-.09 2.827-.139.063-.007.25-.041.423-.069 1.712-.256 2.585-.88 3.548-2.516.665-1.122 1.386-3.187 1.552-4.414.021-.194.063-.485.09-.658s.049-.617.049-.991c-.007-.659-.014-.693-.201-.853-.236-.2-.409-.2-.804.014z"/></svg>