
<svg xmlns="http://www.w3.org/2000/svg" version="1.1" xmlns:xlink="http://www.w3.org/1999/xlink" preserveAspectRatio="none" x="0px" y="0px" width="700px" height="700px" viewBox="0 0 700 700">
<defs>
<g id="Layer0_0_FILL">
<path fill="#02CECC" stroke="none" d="
M 609.15 148.35
Q 608.55 147.65 608 147 607.7 146.65 607.45 146.3 607.15 145.95 606.9 145.65 597.15 134.25 586.25 123.35 486.25 23.35 344.8 23.35 203.35 23.35 103.3 123.35 3.3 223.4 3.3 364.85 3.3 504.4 100.65 603.6 101.1 603.85 101.5 604.25 101.95 604.7 102.25 605.25 102.7 606.1 102.7 607.15 102.7 608.85 101.5 610.05 100.35 611.2 98.75 611.25
L 98.6 611.25
Q 98.05 611.25 97.5 611.3 92.1 611.45 87.3 613.25 80.75 615.65 75.4 620.95 65.7 630.7 65.7 644.45 65.7 658.2 75.4 667.9 84.3 676.8 96.55 677.6 96.75 677.6 96.95 677.6
L 597.3 677.55
Q 609 676.5 617.55 667.9 627.3 658.2 627.3 644.45 627.3 630.7 617.55 620.95 612.6 616 606.55 613.55 600.8 611.25 594.1 611.25 593.4 611.25 592.7 611.3 592.3 611.3 591.85 611.35 591.4 611.45 590.85 611.45 590.65 611.45 590.45 611.45 589 611.3 587.95 610.25 587.05 609.35 586.85 608.25 586.75 607.8 586.75 607.35 586.75 606.4 587.1 605.65 587.2 605.4 587.4 605.15 587.6 604.8 587.95 604.45 588.25 604.15 588.6 603.95 588.8 603.7 589.1 603.45 589.6 602.9 590.15 602.4 686.3 503.55 686.3 364.85 686.3 246.1 615.85 156.45 614.85 155.2 613.85 154 611.5 151.15 609.15 148.35
M 527.3 149.3
Q 536.05 156.85 544.4 165.2 592.5 213.3 612.7 273 613.85 276.45 614.95 279.95 615.6 283.25 615.6 286.8 615.6 300.55 605.85 310.25 598.65 317.5 589.15 319.4 585.9 320 582.4 320 581.65 320 580.95 320
L 374.7 334.95
Q 373.35 335.2 371.9 335.2 371.6 335.2 371.35 335.2 369.4 335.15 367.7 334.65 364.25 333.6 361.55 330.9 360.25 329.6 359.35 328.1 358.65 327 358.2 325.8
L 265.95 137.75
Q 264.05 134.75 262.85 131.45 261 126.15 261 120.15 261 106.4 270.7 96.65 276.05 91.35 282.6 88.95 284.5 88.25 286.5 87.8 287.55 87.6 288.65 87.4 290.7 87 292.8 86.65 293.05 86.6 293.25 86.55 295.3 86.2 297.35 85.9 301.05 85.3 304.8 84.85 324 82.35 344.3 82.35 449.7 82.35 527.3 149.3
M 371.3 393.55
Q 372.25 393.55 373.15 393.65
L 581.7 409.05
Q 582.25 409 582.8 409 586.2 409 589.35 409.6 598.95 411.4 606.25 418.7 610.15 422.6 612.5 427.15 616 433.95 616 442.2 616 446.55 615.05 450.5 614.45 452.35 613.85 454.2 593.9 515.95 544.4 565.45 461.55 648.35 344.3 648.35 337.55 648.35 330.95 648.1 310.2 647.2 290.55 643.7 288.1 643.25 285.75 642.8 282.55 641.9 279.65 640.45 275.05 638.05 271.15 634.15 261.45 624.45 261.45 610.7 261.45 604.55 263.4 599.2 264.45 596.3 266.1 593.6
L 357.9 402.25
Q 358 402 358.1 401.8 359.15 399.65 360.95 397.8 365.25 393.55 371.3 393.55
M 182.25 172.5
L 187.4 180.05 307.1 354.95
Q 310.1 358.8 310.1 363.85 310.1 367.15 308.85 369.9 307.85 372 306.15 373.8
L 188.1 547.2
Q 186.25 550.7 183.55 553.85 183.55 553.9 183.5 553.9 182.65 554.85 181.75 555.75 172.05 565.5 158.3 565.5 152 565.5 146.55 563.45 140.35 561.15 135.25 556.2 135 555.95 134.8 555.75 133.35 554.3 132.1 552.75 61.3 473.75 61.3 365.35 61.3 255.55 134 175.85 135 174.6 136.2 173.4 136.4 173.2 136.6 173 141.8 168 148.1 165.7 152.9 163.9 158.3 163.75 159 163.7 159.7 163.7 172.8 163.7 182.25 172.5 Z"/>

<path fill="#F91B18" stroke="none" d="
M 187.4 180.05
Q 181.55 177.75 174.75 177.75 160.55 177.75 150.5 187.8 148.85 189.45 147.5 191.2 12.65 370.05 146.55 563.45 152 565.5 158.3 565.5 172.05 565.5 181.75 555.75 182.65 554.85 183.5 553.9 183.55 553.9 183.55 553.85
L 188.1 547.2 306.15 373.8
Q 307.85 372 308.85 369.9 310.1 367.15 310.1 363.85 310.1 358.8 307.1 354.95
L 187.4 180.05 Z"/>

<path fill="#6E0A07" stroke="none" d="
M 174.75 177.75
Q 181.55 177.75 187.4 180.05
L 182.25 172.5
Q 172.8 163.7 159.7 163.7 159 163.7 158.3 163.75 152.9 163.9 148.1 165.7 141.8 168 136.6 173 135.25 174.4 134 175.85 61.3 255.55 61.3 365.35 61.3 473.75 132.1 552.75 133.65 554.45 135.25 556.2 140.35 561.15 146.55 563.45 12.65 370.05 147.5 191.2 148.85 189.45 150.5 187.8 160.55 177.75 174.75 177.75 Z"/>

<path fill="#848484" stroke="none" d="
M 373.15 393.65
Q 372.25 393.55 371.3 393.55 365.25 393.55 360.95 397.8 359.15 399.65 358.1 401.8 358 402 357.9 402.25
L 266.1 593.6
Q 264.45 596.3 263.4 599.2 261.45 604.55 261.45 610.7 261.45 624.45 271.15 634.15 275.05 638.05 279.65 640.45 274.35 632.3 274.35 622 274.35 616.45 275.9 611.55 277.35 606.8 280.25 602.7
L 372.35 414.9
Q 372.6 414.15 373 413.5 373.85 412 375.15 410.7 378.95 406.95 384.25 406.9 384.35 406.9 384.4 406.9 385.5 406.9 386.55 407.05
L 595.3 421.35
Q 607.1 422.7 612.5 427.15 610.15 422.6 606.25 418.7 598.95 411.4 589.35 409.6
L 581.7 409.05 373.15 393.65
M 358.2 325.8
Q 358.65 327 359.35 328.1 360.25 329.6 361.55 330.9 364.25 333.6 367.7 334.65
L 279.75 150.85
Q 277.3 147.1 275.95 142.9 274.35 137.9 274.35 132.25 274.35 118.05 284.4 108 285.05 107.35 285.7 106.75 315.25 92.75 350.15 94.7 454.15 93.75 527.3 149.3 449.7 82.35 344.3 82.35 324 82.35 304.8 84.85 301.05 85.3 297.35 85.9 295.3 86.2 293.25 86.55 293.05 86.6 292.8 86.65 290.7 87 288.65 87.4 287.55 87.6 286.5 87.8 284.5 88.25 282.6 88.95 276.05 91.35 270.7 96.65 261 106.4 261 120.15 261 126.15 262.85 131.45 264.05 134.75 265.95 137.75
L 358.2 325.8
M 699.9 385.8
Q 701.05 335.75 688.45 288.2 675.85 240.65 646.3 193.6 633.1 172.5 615.85 156.45 686.3 246.1 686.3 364.85 686.3 503.55 590.15 602.4 589.6 602.9 589.1 603.45 588.8 603.7 588.6 603.95 588 604.55 587.4 605.15 587.2 605.4 587.1 605.65 586.75 606.4 586.75 607.35 586.75 607.8 586.85 608.25 587.05 609.35 587.95 610.25 589 611.3 590.45 611.45 591.15 611.35 591.85 611.35 592.3 611.3 592.7 611.3 593.4 611.25 594.1 611.25 600.8 611.25 606.55 613.55 639.2 577.5 659.9 539.8 678 506.85 686.85 474.25 698.85 429.9 699.9 385.8 Z"/>
</g>
</defs>

<g transform="matrix( 1, 0, 0, 1, 0,0) ">
<use xlink:href="#Layer0_0_FILL"/>
</g>
</svg>
