<svg xmlns="http://www.w3.org/2000/svg" xmlns:xlink="http://www.w3.org/1999/xlink" viewBox="0 0 48 48"><defs><linearGradient id="pixelfed_svg__a" x1="1" x2="0" y1=".558" y2=".601"><stop offset="0" stop-color="#FF5C34"/><stop offset="1" stop-color="#EB0256"/></linearGradient><linearGradient id="pixelfed_svg__b" x1=".5" x2=".306" y1="1.119"><stop offset="0" stop-color="#FFB000"/><stop offset="1" stop-color="#FF7725"/></linearGradient><linearGradient id="pixelfed_svg__l" x1="38.66" x2="29.418" y1="42.314" y2="17.769" gradientTransform="scale(.85442 1.1704)" gradientUnits="userSpaceOnUse"><stop offset="0" stop-color="#21EFE3"/><stop offset="1" stop-color="#2598FF"/></linearGradient><linearGradient id="pixelfed_svg__k" x1="32.778" x2="-5.737" y1="31.292" y2="34.564" gradientTransform="scale(.85442 1.1704)" gradientUnits="userSpaceOnUse"><stop offset="0" stop-color="#A63FDB"/><stop offset="1" stop-color="#FF257E"/></linearGradient><linearGradient xlink:href="#pixelfed_svg__a" id="pixelfed_svg__j" x1="26.799" x2="6.491" y1="19.64" y2="20.515" gradientTransform="scale(.85442 1.1704)" gradientUnits="userSpaceOnUse"/><linearGradient xlink:href="#pixelfed_svg__a" id="pixelfed_svg__i" x1="26.799" x2="6.491" y1="19.64" y2="20.515" gradientTransform="matrix(.73238 -.44006 .60279 1.0032 -5.439 4.178)" gradientUnits="userSpaceOnUse"/><linearGradient xlink:href="#pixelfed_svg__b" id="pixelfed_svg__g" x1="15.185" x2="9.592" y1="33.22" y2="1.019" gradientTransform="matrix(.87275 .73232 -.5642 .67238 20.873 -10.32)" gradientUnits="userSpaceOnUse"/><linearGradient id="pixelfed_svg__h" x1="16.691" x2="57.873" y1="19.196" y2="21.721" gradientTransform="scale(.85442 1.1704)" gradientUnits="userSpaceOnUse"><stop offset="0" stop-color="#9EE85D"/><stop offset="1" stop-color="#0ED061"/></linearGradient><linearGradient id="pixelfed_svg__f" x1="40.014" x2="21.611" y1="3.05" y2="22.693" gradientTransform="matrix(.80281 .67364 -.61335 .73096 20.873 -10.32)" gradientUnits="userSpaceOnUse"><stop offset="0" stop-color="#17C934"/><stop offset="1" stop-color="#03FF6E"/></linearGradient><linearGradient id="pixelfed_svg__e" x1="31.906" x2="56.143" y1="22.861" y2="28.198" gradientTransform="matrix(.67306 .56477 -.73159 .87187 20.873 -10.32)" gradientUnits="userSpaceOnUse"><stop offset="0" stop-color="#00FFF0"/><stop offset="1" stop-color="#0087FF"/></linearGradient><linearGradient id="pixelfed_svg__d" x1="18.604" x2="29.552" y1="60.089" y2="34.263" gradientTransform="matrix(.93317 .78302 -.52767 .62885 20.873 -10.32)" gradientUnits="userSpaceOnUse"><stop offset="0" stop-color="#A63FDB"/><stop offset="1" stop-color="#FF257E"/></linearGradient><linearGradient xlink:href="#pixelfed_svg__a" id="pixelfed_svg__c" x1="30.973" x2="1.109" y1="27.509" y2="28.797" gradientTransform="matrix(.64007 .53708 -.7693 .91682 20.873 -10.32)" gradientUnits="userSpaceOnUse"/><filter id="pixelfed_svg__m" width="1.383" height="1.387" x="-.192" y="-.17"><feOffset dy="1" in="SourceAlpha" result="shadowOffsetOuter1"/><feGaussianBlur in="shadowOffsetOuter1" result="shadowBlurOuter1" stdDeviation="1.5"/><feColorMatrix in="shadowBlurOuter1" values="0 0 0 0 0 0 0 0 0 0 0 0 0 0 0 0 0 0 0.298686594 0"/></filter></defs><path fill="url(#pixelfed_svg__c)" d="M24.845 25.209c-4.066-5.563-11.842-6.838-17.367-2.847S.769 34.096 4.835 39.659l.308.42c-6.631-8.672-6.957-20.838-.347-29.753l.118-.156c4.095-5.442 11.877-6.487 17.38-2.334 5.505 4.153 6.647 11.931 2.551 17.374z" transform="translate(0 -.352)scale(.96601)"/><path fill="url(#pixelfed_svg__d)" d="M24.845 25.209c-6.473 2.19-9.878 9.222-7.605 15.709 2.273 6.486 9.363 9.97 15.836 7.78l.429-.145c-8.05 2.88-17.428 1.495-24.513-4.45a25.4 25.4 0 0 1-3.85-4.023l-.307-.421C.77 34.096 1.952 26.352 7.478 22.362s13.301-2.715 17.367 2.847" transform="translate(0 -.352)scale(.96601)"/><path fill="url(#pixelfed_svg__e)" d="M24.845 25.209c.042 6.846 5.637 12.429 12.497 12.47s12.388-5.474 12.346-12.32l-.001-.157c.073 5.68-1.798 11.39-5.714 16.056a24.3 24.3 0 0 1-10.468 7.294l-.43.145c-6.472 2.189-13.562-1.294-15.835-7.78s1.132-13.52 7.605-15.71z" transform="translate(0 -.352)scale(.96601)"/><path fill="url(#pixelfed_svg__f)" d="M24.845 25.209c6.537 2.155 13.523-1.365 15.604-7.863s-1.533-13.512-8.07-15.667l-.535-.177a25.2 25.2 0 0 1 8.855 4.814 25.04 25.04 0 0 1 8.989 18.887v.156c.042 6.846-5.485 12.361-12.345 12.32s-12.455-5.625-12.497-12.47z" transform="translate(0 -.352)scale(.96601)"/><path fill="url(#pixelfed_svg__g)" d="M24.845 25.209c4.095-5.442 2.954-13.221-2.55-17.374S9.009 4.727 4.914 10.169l-.118.156q.44-.593.921-1.167c6.528-7.78 16.895-10.467 26.126-7.656l.535.176c6.538 2.155 10.151 9.17 8.07 15.667-2.08 6.498-9.066 10.018-15.604 7.863z" transform="translate(0 -.352)scale(.96601)"/><g opacity=".544"><path fill="url(#pixelfed_svg__h)" d="m28.379 9.27.187-.075c6.393-2.55 13.67.5 16.253 6.815s-.506 13.502-6.899 16.053a12.2 12.2 0 0 0-.508-2.905c3.43-1.856 5.755-5.456 5.755-9.591 0-6.037-4.954-10.93-11.066-10.93a11.2 11.2 0 0 0-3.722.633" transform="rotate(112 32.678 23.278)scale(.96601)"/><path fill-opacity=".5" d="m28.379 9.27.187-.075c6.393-2.55 13.67.5 16.253 6.815s-.506 13.502-6.899 16.053a12.2 12.2 0 0 0-.508-2.905c3.43-1.856 5.755-5.456 5.755-9.591 0-6.037-4.954-10.93-11.066-10.93a11.2 11.2 0 0 0-3.722.633" style="mix-blend-mode:overlay" transform="rotate(112 32.678 23.278)scale(.96601)"/></g><path fill="url(#pixelfed_svg__g)" d="M24.845 25.209c4.095-5.442 2.954-13.221-2.55-17.374S9.009 4.727 4.914 10.169l-.118.156q.44-.593.921-1.167c6.528-7.78 16.895-10.467 26.126-7.656l.535.176c6.538 2.155 10.151 9.17 8.07 15.667-2.08 6.498-9.066 10.018-15.604 7.863z" opacity=".1" transform="translate(0 -.352)scale(.96601)"/><path fill="url(#pixelfed_svg__i)" d="m4.825 10.491.121-.16C9.112 4.85 16.921 3.718 22.387 7.8c5.467 4.082 6.52 11.834 2.355 17.314a12.2 12.2 0 0 0-1.931-2.228c1.983-3.358 2.123-7.64-.007-11.186-3.11-5.174-9.877-6.817-15.115-3.67a11.2 11.2 0 0 0-2.864 2.46z" opacity=".18" transform="translate(0 -.352)scale(.96601)"/><g fill="none"><g opacity=".18"><path fill="url(#pixelfed_svg__j)" d="m5.546 10.697.187-.075c6.393-2.55 13.67.5 16.253 6.815 2.583 6.314-.506 13.502-6.899 16.053a12.2 12.2 0 0 0-.508-2.905c3.43-1.856 5.755-5.456 5.755-9.592 0-6.036-4.954-10.93-11.066-10.93a11.2 11.2 0 0 0-3.722.634" transform="rotate(-31 4.367 11.1)scale(.96601)"/><path fill="#000" fill-opacity=".773" d="m5.546 10.697.187-.075c6.393-2.55 13.67.5 16.253 6.815 2.583 6.314-.506 13.502-6.899 16.053a12.2 12.2 0 0 0-.508-2.905c3.43-1.856 5.755-5.456 5.755-9.592 0-6.036-4.954-10.93-11.066-10.93a11.2 11.2 0 0 0-3.722.634" style="mix-blend-mode:multiply" transform="rotate(-31 4.367 11.1)scale(.96601)"/></g><g opacity=".584"><path fill="url(#pixelfed_svg__k)" d="m10.654 23.765.187-.075c6.393-2.55 13.67.5 16.253 6.815 2.583 6.314-.506 13.502-6.899 16.053a12.2 12.2 0 0 0-.508-2.905c3.43-1.856 5.755-5.456 5.755-9.592 0-6.036-4.954-10.93-11.066-10.93a11.2 11.2 0 0 0-3.722.634" transform="rotate(-103 13.467 32.706)scale(.96601)"/><path fill="#000" fill-opacity=".503" d="m10.654 23.765.187-.075c6.393-2.55 13.67.5 16.253 6.815 2.583 6.314-.506 13.502-6.899 16.053a12.2 12.2 0 0 0-.508-2.905c3.43-1.856 5.755-5.456 5.755-9.592 0-6.036-4.954-10.93-11.066-10.93a11.2 11.2 0 0 0-3.722.634" style="mix-blend-mode:overlay" transform="rotate(-103 13.467 32.706)scale(.96601)"/></g><g opacity=".562"><path fill="url(#pixelfed_svg__l)" d="m25.135 22.732.187-.075c6.393-2.55 13.67.5 16.253 6.815 2.583 6.314-.506 13.502-6.899 16.053a12.2 12.2 0 0 0-.508-2.905c3.43-1.856 5.755-5.456 5.755-9.592 0-6.036-4.954-10.93-11.066-10.93a11.2 11.2 0 0 0-3.722.634" transform="rotate(-177.001 28.519 34.143)scale(.96601)"/><path fill="#000" d="m25.135 22.732.187-.075c6.393-2.55 13.67.5 16.253 6.815 2.583 6.314-.506 13.502-6.899 16.053a12.2 12.2 0 0 0-.508-2.905c3.43-1.856 5.755-5.456 5.755-9.592 0-6.036-4.954-10.93-11.066-10.93a11.2 11.2 0 0 0-3.722.634" style="mix-blend-mode:overlay" transform="rotate(-177.001 28.519 34.143)scale(.96601)"/></g></g><path fill-opacity=".496" d="m32.187 1.616.191.063c6.538 2.155 10.151 9.169 8.07 15.667s-9.066 10.018-15.604 7.863a12.2 12.2 0 0 0 1.478-2.552c3.82.783 7.916-.48 10.575-3.648 3.88-4.624 3.23-11.558-1.451-15.486a11.2 11.2 0 0 0-3.259-1.907" style="mix-blend-mode:overlay" transform="translate(0 -.352)scale(.96601)"/><path d="M24.101 55.523h4.545c4.281 0 7.752-3.364 7.752-7.513 0-4.15-3.47-7.513-7.752-7.513h-6.56c-2.47 0-4.472 1.94-4.472 4.335v16.87z" filter="url(#pixelfed_svg__m)" transform="translate(-1.174 -24.502)scale(.96601)"/><path fill="#fff" d="M22.108 29.134h4.39c4.136 0 7.49-3.25 7.49-7.258s-3.354-7.258-7.49-7.258h-6.336c-2.386 0-4.32 1.875-4.32 4.188v16.296z"/></svg>