<svg xmlns="http://www.w3.org/2000/svg" fill-rule="evenodd" viewBox="0 0 48 48"><path fill="#22252a" d="M4.942 0h38.116A4.956 4.956 0 0 1 48 4.942v38.116A4.956 4.956 0 0 1 43.058 48H4.942A4.956 4.956 0 0 1 0 43.058V4.942A4.956 4.956 0 0 1 4.942 0m6.081 35.391h6.306c1.012 0 1.84.827 1.84 1.839v2.459a1.844 1.844 0 0 1-1.84 1.839h-6.306a1.844 1.844 0 0 1-1.839-1.84V37.23c0-1.011.828-1.839 1.84-1.839m.012-7.24h6.306c1.012 0 1.84.828 1.84 1.84v2.459a1.844 1.844 0 0 1-1.84 1.839h-6.306a1.844 1.844 0 0 1-1.839-1.84v-2.458c0-1.012.828-1.84 1.84-1.84m22.877-7.454-8.258 1.579a1.844 1.844 0 0 0-1.461 2.15l.461 2.416a1.845 1.845 0 0 0 2.152 1.461l8.258-1.578a1.844 1.844 0 0 0 1.461-2.151l-.462-2.416a1.845 1.845 0 0 0-2.151-1.46m-22.891.19h9.488c1.012 0 1.839.826 1.839 1.838v2.459a1.844 1.844 0 0 1-1.839 1.839h-9.488a1.844 1.844 0 0 1-1.839-1.84v-2.458c0-1.012.828-1.839 1.839-1.839m-.055-7.28h6.306c1.011 0 1.839.828 1.839 1.84v2.459a1.845 1.845 0 0 1-1.84 1.839h-6.305a1.844 1.844 0 0 1-1.839-1.84v-2.458c0-1.012.828-1.84 1.84-1.84m26.664-.022h-7.499a1.844 1.844 0 0 0-1.839 1.839v2.458c0 1.012.828 1.839 1.839 1.839h7.5a1.844 1.844 0 0 0 1.838-1.839v-2.458a1.844 1.844 0 0 0-1.839-1.84m-2.892-7.176H26.31a1.853 1.853 0 0 0-1.848 1.847v2.47c0 1.016.832 1.847 1.848 1.847h8.43a1.853 1.853 0 0 0 1.848-1.847v-2.47a1.853 1.853 0 0 0-1.847-1.847m-23.788-.032h9.581c1.012 0 1.84.827 1.84 1.839v2.459a1.844 1.844 0 0 1-1.84 1.839h-9.581a1.844 1.844 0 0 1-1.84-1.84V8.216c0-1.012.828-1.84 1.84-1.84"/></svg>
