<?xml version="1.0" encoding="UTF-8"?>
<!DOCTYPE svg PUBLIC "-//W3C//DTD SVG 1.1//EN" "http://www.w3.org/Graphics/SVG/1.1/DTD/svg11.dtd">
<!-- Creator: CorelDRAW 2019 (64-Bit) -->
<svg xmlns="http://www.w3.org/2000/svg" xml:space="preserve" width="100%" height="100%" version="1.1" style="shape-rendering:geometricPrecision; text-rendering:geometricPrecision; image-rendering:optimizeQuality; fill-rule:evenodd; clip-rule:evenodd"
viewBox="0 0 1958.88 1958.9"
 xmlns:xlink="http://www.w3.org/1999/xlink">
 <defs>
  <style type="text/css">
   <![CDATA[
    .fil0 {fill:#22252A}
   ]]>
  </style>
 </defs>
 <g id="Ebene_x0020_1">
  <metadata id="CorelCorpID_0Corel-Layer"/>
  <path class="fil0" d="M201.68 0l1555.51 0c110.95,0 201.69,90.76 201.69,201.68l0 1555.55c0,110.92 -90.74,201.67 -201.69,201.67l-1555.51 0c-110.94,0 -201.68,-90.75 -201.68,-201.67l0 -1555.55c0,-110.92 90.74,-201.68 201.68,-201.68zm248.17 1444.31l257.35 0c41.28,0 75.05,33.77 75.05,75.05l0 100.35c0,41.28 -33.77,75.05 -75.05,75.05l-257.35 0c-41.28,0 -75.05,-33.77 -75.05,-75.05l0 -100.35c0,-41.28 33.77,-75.05 75.05,-75.05zm0.53 -295.44l257.35 0c41.28,0 75.05,33.76 75.05,75.05l0 100.35c0,41.28 -33.77,75.05 -75.05,75.05l-257.35 0c-41.28,0 -75.05,-33.77 -75.05,-75.05l0 -100.35c0,-41.29 33.77,-75.05 75.05,-75.05zm933.65 -304.22l-337.03 64.41c-40.54,7.75 -67.37,47.25 -59.62,87.8l18.83 98.57c7.75,40.54 47.26,67.37 87.8,59.63l337.03 -64.41c40.54,-7.75 67.38,-47.25 59.63,-87.8l-18.84 -98.57c-7.75,-40.54 -47.26,-67.37 -87.8,-59.63zm-934.18 7.75l387.21 0c41.28,0 75.05,33.76 75.05,75.05l0 100.34c0,41.29 -33.77,75.05 -75.05,75.05l-387.21 0c-41.28,0 -75.05,-33.76 -75.05,-75.05l0 -100.34c0,-41.29 33.77,-75.05 75.05,-75.05zm-2.24 -297.08l257.34 0c41.28,0 75.06,33.77 75.06,75.05l0 100.35c0,41.28 -33.78,75.05 -75.06,75.05l-257.34 0c-41.28,0 -75.05,-33.77 -75.05,-75.05l0 -100.35c0,-41.28 33.77,-75.05 75.05,-75.05zm1088.22 -0.93l-306.04 0c-41.27,0 -75.04,33.76 -75.04,75.04l0 100.34c0,41.28 33.77,75.04 75.04,75.04l306.04 0c41.29,0 75.04,-33.76 75.04,-75.04l0 -100.34c0,-41.28 -33.75,-75.04 -75.04,-75.04zm-118.03 -292.89l-344.08 0c-41.46,0 -75.39,33.92 -75.39,75.38l0 100.78c0,41.47 33.93,75.39 75.39,75.39l344.08 0c41.45,0 75.38,-33.92 75.38,-75.39l0 -100.78c0,-41.46 -33.93,-75.38 -75.38,-75.38zm-970.8 -1.31l391.02 0c41.27,0 75.05,33.77 75.05,75.05l0 100.35c0,41.28 -33.78,75.05 -75.05,75.05l-391.02 0c-41.28,0 -75.05,-33.77 -75.05,-75.05l0 -100.35c0,-41.28 33.77,-75.05 75.05,-75.05z"/>
 </g>
</svg>
