<svg xmlns="http://www.w3.org/2000/svg" viewBox="0 0 48 48"><g fill="#fff"><path d="M11.023 35.391c-1.012 0-1.84.829-1.84 1.84v2.457a1.844 1.844 0 0 0 1.84 1.84h6.305a1.844 1.844 0 0 0 1.842-1.838v-2.46c0-1.011-.83-1.84-1.842-1.84zM11.035 28.15a1.845 1.845 0 0 0-1.838 1.84v2.459a1.844 1.844 0 0 0 1.838 1.84h6.307a1.844 1.844 0 0 0 1.84-1.84v-2.46c0-1.011-.828-1.839-1.84-1.839h-6.305zM11.023 20.887c-1.011 0-1.84.828-1.84 1.84v2.457a1.844 1.844 0 0 0 1.84 1.84h9.488a1.844 1.844 0 0 0 1.838-1.838v-2.46a1.84 1.84 0 0 0-1.838-1.837h-9.488z"/></g><path fill="#d9e314" d="M34.152 20.67a2 2 0 0 0-.238.027l-8.258 1.578a1.844 1.844 0 0 0-1.461 2.15l.461 2.417a1.845 1.845 0 0 0 2.152 1.46l8.258-1.577a1.844 1.844 0 0 0 1.461-2.15l-.463-2.417a1.845 1.845 0 0 0-1.912-1.488"/><g fill="#fff"><path d="M10.969 13.607c-1.012 0-1.84.828-1.84 1.84v2.457a1.844 1.844 0 0 0 1.84 1.84h6.305a1.845 1.845 0 0 0 1.84-1.838v-2.46c0-1.011-.83-1.84-1.84-1.84zM37.633 13.584v.002h-7.498a1.844 1.844 0 0 0-1.84 1.838v2.459c0 1.012.829 1.838 1.84 1.838h7.5a1.844 1.844 0 0 0 1.838-1.838v-2.46a1.844 1.844 0 0 0-1.84-1.839zM26.311 6.408a1.853 1.853 0 0 0-1.848 1.848v2.469c0 1.016.832 1.847 1.848 1.847h8.43a1.853 1.853 0 0 0 1.847-1.847v-2.47a1.853 1.853 0 0 0-1.847-1.847zM10.953 6.377c-1.012 0-1.84.828-1.84 1.84v2.457a1.844 1.844 0 0 0 1.84 1.84h9.58a1.844 1.844 0 0 0 1.84-1.84v-2.46a1.843 1.843 0 0 0-1.84-1.837z"/></g><path fill="#22252a" d="M4.941 0A4.956 4.956 0 0 0 0 4.941v38.117A4.956 4.956 0 0 0 4.941 48h38.117A4.956 4.956 0 0 0 48 43.058V4.941A4.956 4.956 0 0 0 43.058 0zm6.012 6.377h9.58c1.012 0 1.84.826 1.84 1.838v2.459a1.844 1.844 0 0 1-1.84 1.84h-9.58a1.844 1.844 0 0 1-1.84-1.84V8.217c0-1.012.828-1.84 1.84-1.84m15.357.031h8.43a1.853 1.853 0 0 1 1.848 1.848v2.469a1.853 1.853 0 0 1-1.848 1.847h-8.43a1.853 1.853 0 0 1-1.848-1.847V8.256a1.853 1.853 0 0 1 1.848-1.848m11.322 7.176a1.844 1.844 0 0 1 1.84 1.84v2.459a1.844 1.844 0 0 1-1.838 1.838h-7.5a1.844 1.844 0 0 1-1.84-1.838v-2.46a1.844 1.844 0 0 1 1.84-1.837h7.498zm-26.664.023h6.305c1.01 0 1.84.828 1.84 1.84v2.46a1.845 1.845 0 0 1-1.84 1.837h-6.305a1.844 1.844 0 0 1-1.84-1.84v-2.457c0-1.012.828-1.84 1.84-1.84zm23.184 7.063a1.845 1.845 0 0 1 1.912 1.488l.463 2.416a1.844 1.844 0 0 1-1.46 2.15l-8.259 1.579a1.845 1.845 0 0 1-2.152-1.461l-.46-2.416a1.844 1.844 0 0 1 1.46-2.15l8.258-1.579a2 2 0 0 1 .238-.027m-23.129.217v.002h9.488c1.012 0 1.838.826 1.838 1.838v2.459a1.844 1.844 0 0 1-1.838 1.838h-9.488a1.844 1.844 0 0 1-1.84-1.84v-2.457c0-1.012.83-1.84 1.84-1.84m.012 7.263h6.307c1.012 0 1.84.828 1.84 1.84v2.46a1.844 1.844 0 0 1-1.84 1.84h-6.307a1.844 1.844 0 0 1-1.838-1.84v-2.46c0-1.011.827-1.839 1.838-1.84m-.012 7.24h6.305c1.012 0 1.842.829 1.842 1.84v2.46a1.844 1.844 0 0 1-1.842 1.837h-6.305a1.844 1.844 0 0 1-1.84-1.84v-2.456c0-1.011.828-1.84 1.84-1.84z"/></svg>
