<svg xmlns="http://www.w3.org/2000/svg" viewBox="0 0 48 48"><defs><radialGradient id="plausible_svg__a" cx="591.27" cy="905.24" r="724.41" gradientUnits="userSpaceOnUse"><stop offset="0" stop-color="#2440E6"/><stop offset="1" stop-color="#5661B3"/></radialGradient><radialGradient id="plausible_svg__b" cx=".292" cy="256.69" r="527.57" gradientTransform="scale(.85001 1.1765)" gradientUnits="userSpaceOnUse"><stop offset="0" stop-color="#6574CD" stop-opacity=".5"/><stop offset="1" stop-color="#6574CD"/></radialGradient></defs><g fill="none" fill-rule="evenodd"><path d="M0 0h48v48H0z"/><g transform="matrix(.048 0 0 -.048 6.063 48)"><circle cx="373.7" cy="624.07" r="373.45" fill="url(#plausible_svg__a)"/><path fill="url(#plausible_svg__b)" fill-rule="nonzero" d="M309.68 993.32c-77.171-13.4-142.18-46.154-196.03-98.759-55.335-54.094-89.578-117.12-106.2-195.78l-5.707-26.799-.745-335.48L.254.772h6.948c3.97 0 16.625 1.24 28.04 2.481 97.519 11.911 180.4 70.968 225.56 160.55 11.414 22.83 19.603 49.132 25.31 81.886 4.714 27.792 4.963 36.973 4.218 181.89l-.744 152.61 5.955 14.888c8.189 20.347 30.77 42.928 51.117 51.117l14.888 5.956 138.96.248c76.427 0 143.42.992 148.64 1.985 24.318 4.715 50.372 25.062 60.794 47.643 2.978 6.203 6.948 18.362 8.685 26.55 2.73 13.649 2.481 17.37-1.489 32.755-12.407 45.658-56.079 108.93-100.74 145.91-50.62 41.935-106.45 69.975-166.75 84.119-31.762 7.196-103.72 8.437-139.95 1.985z"/></g></g></svg>