<svg xmlns="http://www.w3.org/2000/svg" viewBox="0 0 48 48"><path d="M7.973 16.818c-1.92 0-3.173.56-4.24 1.867v-1.44H0v17.76s.076.035.254.074c.277.059 1.641.374 2.661-.499C3.797 33.825 4 32.951 4 31.945v-2.567c1.067 1.146 2.293 1.627 4 1.627 3.68 0 6.507-2.987 6.507-6.96 0-4.24-2.72-7.227-6.534-7.227zm-.826 10.506c-1.867 0-3.36-1.546-3.36-3.44 0-1.893 1.52-3.333 3.36-3.333 1.84 0 3.36 1.467 3.36 3.36 0 1.893-1.467 3.413-3.36 3.413zm12.571-3.664c0 1.537.22 3.402 1.737 5.443.03.04.112.14.112.14-.613 1.051-1.486 1.76-2.497 1.76-.797 0-1.627-.423-2.276-1.159a4.356 4.356 0 0 1-1.075-2.882V12.818h4z"/><path d="M35.06 24.098c0-4.16-3.04-7.28-7.04-7.28s-6.934 3.173-6.934 7.146 3.12 7.04 7.013 7.04c2.827 0 5.254-1.68 6.507-4.586h-4.08s-.102.104-.187.186c-.853.8-1.44 1.067-2.453 1.067-1.573 0-2.747-1.013-2.907-2.534h9.974c.08-.426.106-.613.106-1.04zm-10-1.653c.32-1.414 1.44-2.267 2.986-2.267 1.547 0 2.747.934 3.014 2.267z"/><path fill="#ebaf00" d="M38.285 30.58h-4.782l4.495-6.665-4.495-6.67h4.782l4.495 6.67z"/><path d="M43.868 23.377 48 17.243h-4.782l-1.74 2.586zm-2.398 4.631.812 1.182c.783 1.227 1.787 1.811 2.985 1.815 1.242-.022 2.126-1.123 2.45-1.509 0 0-.612-.54-1.372-1.441-1.034-1.228-2.426-3.51-2.48-3.605l-2.395 3.558z"/></svg>