<svg xmlns="http://www.w3.org/2000/svg" viewBox="0 0 48 48"><path fill="#fff" d="M7.887 16.958c-1.9 0-3.139.554-4.194 1.846V17.38H0v17.567s.075.035.251.073c.274.059 1.623.37 2.632-.492.873-.747 1.074-1.612 1.074-2.607v-2.539c1.055 1.134 2.269 1.61 3.957 1.61 3.64 0 6.436-2.955 6.436-6.886 0-4.193-2.69-7.148-6.463-7.148zm-.72 10.727c-2.03 0-3.655-1.682-3.655-3.742s1.902-3.626 3.655-3.626c2.06 0 3.655 1.596 3.655 3.655 0 2.059-1.595 3.713-3.655 3.713zm12.433-3.96c0 1.52.17 3.367 1.669 5.385.029.04.11.138.11.138-.605 1.04-1.37 1.74-2.37 1.74-.79 0-1.56-.417-2.202-1.145-.686-.778-1.014-1.794-1.014-2.851V12.877h3.809L19.6 23.725z"/><path fill="#ebaf00" d="M38.358 30.57h-4.581l4.446-6.592-4.446-6.597h4.58l4.447 6.597z"/><path fill="#fff" d="M44.026 23.231 48 17.381h-4.599l-1.675 2.438zm-2.3 4.931c0 .003.78 1.086.78 1.086.751 1.179 1.715 1.739 2.865 1.743 1.192-.021 2.041-1.078 2.352-1.448 0 0-.588-.518-1.317-1.384-.992-1.179-2.33-3.32-2.38-3.412l-2.3 3.416zm-11.373-1.385c-.766.706-1.288 1.115-2.377 1.115-1.93 0-3.011-1.346-3.17-2.85h10.16c.064-.205.106-.461.106-.884 0-4.114-3.008-7.2-6.964-7.2-3.957 0-6.858 3.138-6.858 7.068 0 3.93 3.086 6.964 6.937 6.964 2.69 0 5.011-1.538 6.288-4.214h-4.121Zm-2.22-6.704c1.682 0 2.94 1.11 3.23 2.56h-6.432c.348-1.537 1.52-2.56 3.202-2.56z"/></svg>