<svg xmlns="http://www.w3.org/2000/svg" viewBox="0 0 48 48"><g fill="#f90000" fill-rule="evenodd" transform="translate(.571)scale(1.1429)"><path d="M19.794 16h1.35a1.5 1.5 0 0 1 1.467 1.815L17.419 42H13l5.327-24.815A1.5 1.5 0 0 1 19.794 16zM11.108 22.229c-4.752-4.473-4.355-11.41.02-15.448.838-.766 2.178-.725 2.932.124.796.829.733 2.133-.105 2.92-2.659 2.464-2.91 6.647.021 9.401.838.787.88 2.091.084 2.92a2.102 2.102 0 0 1-2.952.083zm-1.466 3.044c1.046.621 1.256 1.864.418 2.899-.418.621-1.047.828-1.675.828-.418 0-.837-.207-1.256-.414C2.942 25.48.22 20.096.011 14.506-.2 8.706 2.523 3.943 7.129.423c.838-.621 2.303-.621 2.931.414.628.829.628 2.278-.418 2.9-3.56 2.691-5.444 6.419-5.444 10.767 0 4.142 2.094 8.49 5.444 10.768zm17.29-3.127c-.795-.828-.753-2.133.063-2.94 2.931-2.754 2.701-6.937.021-9.401-.837-.766-.9-2.092-.104-2.92.774-.828 2.114-.89 2.952-.104 4.375 4.038 4.773 10.975.02 15.448a2.102 2.102 0 0 1-2.951-.082zM33.873.424c4.606 3.52 7.307 8.283 7.118 14.081 0 5.591-2.722 10.975-7.118 14.081-.419.207-.838.414-1.256.414-.628 0-1.256-.207-1.675-.828-.838-1.035-.628-2.278.419-2.899 3.35-2.278 5.443-6.626 5.443-10.768 0-4.348-1.884-8.076-5.443-10.768-1.047-.621-1.047-2.07-.42-2.899.629-1.035 2.094-1.035 2.932-.414z"/><circle cx="20.5" cy="14.5" r="4.5"/></g></svg>