<svg xmlns="http://www.w3.org/2000/svg" viewBox="0 0 48 48"><g transform="matrix(.8 0 0 .8 -180.998 -177.6)"><circle cx="256.25" cy="252" r="30" fill="#48b9c7"/><g fill="#fff" stroke-width="3.784" transform="matrix(.06342 0 0 .06342 226.25 221.94)"><rect width="488.77" height="78.833" x="236.5" y="710.5" rx="39.417" ry="39.417"/><path d="M536 357c-24 51-64 92-120 112l48 125c9 23 17 47 10 69s-39 29-62 5c-44-47-192-343-203-365s-23-40-23-62c1-33 52-67 77-84s74-40 117-41 61 9 86 25c38 25 65 64 75 109s7 80-5 105m-113-54c-9-31-28-61-53-81-5-4-11-9-18-11-46-15-26 62-19 82s26 62 47 83c5 5 10 9 16 10s18-5 23-13 6-14 6-22a128 128 0 0 0-2-48zM625 664c-2 9-7 17-15 22s-27 5-38-4-13-24-10-36 13-25 27-29c29-9 42 23 36 47zM607 573c-18-7-12-103 5-220 5-32 13-48 22-56s36-12 52-9a90 90 0 0 1 49 24c12 11 13 23 9 38s-18 47-29 70l-28 53c-54 96-65 106-80 100z"/></g></g></svg>