<svg xmlns="http://www.w3.org/2000/svg" viewBox="0 0 48 48"><style id="style2" type="text/css">.portainer_svg__st0{fill-rule:evenodd;clip-rule:evenodd;fill:#13bef9}</style><g id="portainer_svg__g418" style="stroke-width:5.45833" transform="translate(2.84 -3.48) scale(.1832)"><path id="portainer_svg__polygon12" d="M21.8 68.5v8.2h187.4v-8.2z" class="portainer_svg__st0" style="stroke-width:5.45833"/><path id="portainer_svg__polygon4" d="M84.3 76.6h-4v20.7h4z" class="portainer_svg__st0" style="stroke-width:5.45833"/><path id="portainer_svg__polygon6" d="M101.5 76.6h-4v20.7h4z" class="portainer_svg__st0" style="stroke-width:5.45833"/><path id="portainer_svg__polygon8" d="m125 37.1-4.1-7.1-68.4 39.5 4.1 7.1z" class="portainer_svg__st0" style="stroke-width:5.45833"/><path id="portainer_svg__polygon10" d="m124.6 37.1 4.1-7.1 68.4 39.5-4.1 7.1z" class="portainer_svg__st0" style="stroke-width:5.45833"/><path id="portainer_svg__path14" d="M135 192.5V71h8.2v127.4c-2.2-2.5-5-4.3-8.2-5.9z" class="portainer_svg__st0" style="stroke-width:5.45833"/><path id="portainer_svg__path16" d="M121 190.4V19h8.2v172.4c-2.3-1.1-7.9-1-8.2-1z" class="portainer_svg__st0" style="stroke-width:5.45833"/><path id="portainer_svg__path18" d="M43.3 207.5c-10-7.4-16.6-19.2-16.6-32.6 0-7.1 1.9-14.1 5.4-20.2h70c3.6 6.1 5.4 13.1 5.4 20.2 0 6.2-.8 12-3.3 17.2-5.3-5.1-13.1-7.3-21-7.3-14 0-26 8.7-29.1 21.7-1.1-.1-1.8-.2-2.9-.2-2.7.1-5.3.5-7.9 1.2z" class="portainer_svg__st0" style="stroke-width:5.45833"/><path id="portainer_svg__polygon44" d="M77.7 106.5H56.5v21.3h21.2z" class="portainer_svg__st0" style="stroke-width:5.45833"/><path id="portainer_svg__polygon46" d="M53.8 106.5H32.6v21.3h21.2z" class="portainer_svg__st0" style="stroke-width:5.45833"/><path id="portainer_svg__polygon48" d="M53.8 130.2H32.6v21.3h21.2z" class="portainer_svg__st0" style="stroke-width:5.45833"/><path id="portainer_svg__polygon50" d="M77.7 130.2H56.5v21.3h21.2z" class="portainer_svg__st0" style="stroke-width:5.45833"/><path id="portainer_svg__polygon52" d="M101.5 130.2H80.3v21.3h21.2z" class="portainer_svg__st0" style="stroke-width:5.45833"/><path id="portainer_svg__polygon54" d="M101.5 95.1H80.3v21.3h21.2z" class="portainer_svg__st0" style="stroke-width:5.45833"/><path id="portainer_svg__path56" d="M57.6 210.7c2.9-12.3 14-21.5 27.2-21.5 8.5 0 16.1 3.8 21.3 9.8 4.5-3.1 9.9-4.9 15.8-4.9 15.4 0 27.9 12.5 27.9 27.9 0 3.2-.5 6.2-1.5 9.1 3.4 4.6 5.5 10.4 5.5 16.6 0 15.4-12.5 27.9-27.9 27.9-6.8 0-13-2.4-17.8-6.4-5.1 7.1-13.4 11.8-22.8 11.8-10.8 0-20.2-6.2-24.9-15.2-1.9.4-3.8.6-5.8.6-15.4 0-28-12.5-28-27.9 0-15.4 12.5-27.9 28-27.9 1-.1 2-.1 3 .1z" class="portainer_svg__st0" style="stroke-width:5.45833"/></g></svg>