<svg xmlns="http://www.w3.org/2000/svg" viewBox="0 0 48 48"><g fill="none" stroke="#fff" stroke-linecap="round" stroke-linejoin="round" stroke-width="12.465"><path fill="#000" stroke="#000" stroke-linecap="butt" stroke-linejoin="miter" stroke-width="4.033" d="M35.514 34.964c.305-2.545.213-2.918 2.11-2.506l.48.042c1.458.067 3.365-.234 4.485-.755 2.412-1.118 3.841-2.987 1.464-2.496-5.424 1.12-5.797-.717-5.797-.717 5.727-8.498 8.121-19.286 6.055-21.926C38.674-.596 28.917 2.81 28.754 2.898l-.052.01a19.334 19.334 0 0 0-3.618-.377c-2.455-.04-4.317.643-5.73 1.715 0 0-17.406-7.171-16.596 9.018.172 3.444 4.936 26.06 10.619 19.228a104.785 104.785 0 0 1 4.084-4.61c.996.663 2.19 1 3.44.88l.098-.083c-.03.31-.017.613.038.972-1.463 1.636-1.033 1.923-3.96 2.525-2.96.61-1.221 1.697-.086 1.981 1.377.344 4.562.832 6.715-2.181l-.086.344c.575.46.536 3.302.617 5.333.082 2.03.218 3.926.632 5.043.414 1.117.902 3.996 4.748 3.171 3.215-.689 5.673-1.68 5.897-10.903"/><path fill="#336791" stroke="none" d="M44.054 29.249c-5.424 1.119-5.797-.718-5.797-.718 5.727-8.498 8.121-19.286 6.055-21.926C38.676-.597 28.92 2.809 28.756 2.897l-.053.01a19.344 19.344 0 0 0-3.619-.378c-2.454-.04-4.316.644-5.729 1.715 0 0-17.406-7.17-16.596 9.019.172 3.444 4.936 26.06 10.619 19.228 2.077-2.498 4.084-4.61 4.084-4.61.996.662 2.19 1 3.44.879l.098-.083c-.03.31-.017.614.039.973-1.464 1.636-1.034 1.923-3.96 2.525-2.962.61-1.222 1.697-.086 1.98 1.376.345 4.562.833 6.714-2.18l-.086.344c.574.459.977 2.988.91 5.28-.068 2.293-.113 3.867.339 5.096s.902 3.995 4.749 3.171c3.214-.689 4.88-2.474 5.112-5.452.164-2.117.537-1.804.56-3.696l.299-.896c.344-2.87.054-3.796 2.035-3.365l.48.042c1.459.066 3.366-.234 4.486-.755 2.411-1.119 3.841-2.987 1.464-2.496z"/><path stroke-width="1.344" d="M23.937 30.893c-.148 5.34.039 10.715.56 12.022.524 1.307 1.643 3.848 5.49 3.024 3.214-.69 4.383-2.023 4.89-4.967.373-2.164 1.095-8.178 1.187-9.41M19.327 4.125S1.91-2.995 2.72 13.195c.172 3.445 4.936 26.057 10.619 19.228a94.03 94.03 0 0 1 3.953-4.457m11.442-25.14c-.602.19 9.69-3.762 15.537 3.711 2.067 2.64-.328 13.427-6.053 21.925"/><path stroke-linejoin="bevel" stroke-width="1.344" d="M38.218 28.464s.373 1.837 5.798.717c2.377-.49.946 1.378-1.464 2.497-1.979.918-6.414 1.154-6.486-.115-.187-3.274 2.334-2.28 2.152-3.1-.164-.738-1.292-1.463-2.037-3.27-.651-1.579-8.929-13.68 2.295-11.882.411-.085-2.927-10.677-13.43-10.849-10.503-.172-10.158 12.915-10.158 12.915"/><path stroke-width="1.344" d="M21 29.582c-1.467 1.636-1.035 1.923-3.96 2.525-2.962.61-1.223 1.696-.087 1.98 1.376.345 4.562.832 6.714-2.181.656-.917-.004-2.381-.904-2.755-.435-.18-1.018-.405-1.764.431z"/><path stroke-width="1.344" d="M20.901 29.554c-.146-.963.318-2.107.814-3.445.746-2.008 2.47-4.018 1.09-10.39-1.026-4.746-7.913-.986-7.918-.343-.004.644.312 3.264-.115 6.314-.556 3.98 2.533 7.347 6.09 7.001"/><path fill="#fff" stroke-linecap="butt" stroke-linejoin="miter" stroke-width=".448" d="M19.265 15.28c-.031.22.402.807.968.886.564.078 1.047-.38 1.078-.6.03-.22-.403-.462-.968-.54-.565-.08-1.048.035-1.078.255z"/><path fill="#fff" stroke-linecap="butt" stroke-linejoin="miter" stroke-width=".224" d="M36.456 14.832c.03.22-.402.807-.968.885-.565.079-1.048-.38-1.079-.6-.03-.22.403-.462.968-.54s1.048.036 1.079.255z"/><path stroke-width="1.344" d="M38.476 13.309c.093 1.725-.374 2.9-.431 4.736-.087 2.67 1.272 5.722-.776 8.781"/></g></svg>