<svg xmlns="http://www.w3.org/2000/svg" width="130" height="91"><path fill="#f2e69e" d="M17.373 83.585v-6.5h4.3c4.744 0 6.7 1.313 6.7 4.5 0 2.882-1.869 4.5-5.2 4.5-2.133 0-2.8.476-2.8 2 0 1.11-.666 2-1.5 2-1.18 0-1.5-1.39-1.5-6.5zm6.776-.677c.86-.859.88-1.533.078-2.5-1.801-2.17-3.854-1.544-3.854 1.176 0 2.651 1.814 3.287 3.776 1.324zm6.796 5.605c-2.15-2.15-2.003-7.728.257-9.774 2.427-2.196 7.454-2.104 9.516.174 2.197 2.428 2.105 7.454-.174 9.517-2.313 2.093-7.544 2.139-9.6.083zm7.874-3.147c1.498-3.905-2.184-7.401-4.917-4.668-1.942 1.942-1.942 3.83 0 5.773 1.733 1.733 4.025 1.218 4.916-1.105zm5.554 3.194c0-1.284.623-1.498 2.905-.996 4.325.95 4.738-1.184.567-2.927-3.075-1.285-3.562-1.918-3.29-4.28.285-2.487.756-2.804 4.568-3.08 3.422-.248 4.25.017 4.25 1.358 0 1.267-.585 1.52-2.439 1.054-3.917-.983-3.93 1.119-.014 2.41 3.2 1.057 3.534 1.501 3.26 4.331-.292 3.003-.535 3.169-5.057 3.46-3.853.246-4.75-.005-4.75-1.33zm15-3.976c0-4.833-.242-5.5-2-5.5-1.1 0-2-.45-2-1s2.475-1 5.5-1 5.5.45 5.5 1-.9 1-2 1c-1.758 0-2 .667-2 5.5 0 4.223-.348 5.5-1.5 5.5s-1.5-1.277-1.5-5.5zm10-1v-6.5h4.5c2.475 0 4.5.45 4.5 1s-1.35 1-3 1c-2 0-3 .5-3 1.5s1 1.5 3 1.5c1.65 0 3 .45 3 1s-1.35 1-3 1c-2.667 0-3 .334-3 3 0 2-.5 3-1.5 3-1.18 0-1.5-1.388-1.5-6.5zm12 0c0-5.11.32-6.5 1.5-6.5s1.5 1.39 1.5 6.5-.32 6.5-1.5 6.5-1.5-1.388-1.5-6.5zm6.862 3.224 2.024-3.276-2.041-3.223c-2.019-3.19-2.02-3.225-.066-3.225 1.087 0 2.546.687 3.242 1.526 1.135 1.367 1.44 1.367 2.951 0 .927-.84 2.482-1.526 3.455-1.526 1.636 0 1.616.243-.272 3.224l-2.041 3.224 4.05 6.553h-2.074c-1.14 0-2.617-.872-3.282-1.937-1.196-1.914-1.224-1.914-2.565 0-.746 1.065-2.268 1.936-3.381 1.936H86.21zM37.623 74.335c11.412-.16 30.088-.16 41.5 0s2.075.292-20.75.292-32.162-.131-20.75-.292zm-11.924-8.272c-8.557-1.739-15.643-7.82-16.896-14.497-.997-5.312 1.393-7.482 8.239-7.482 4.718 0 5.806.412 9.095 3.443l3.735 3.442 4.217-4.118c3.881-3.79 4.424-4.023 6.825-2.93 1.434.654 3.024.932 3.533.617 1.763-1.09 1.02-9.064-1.096-11.753-1.723-2.19-2.568-2.484-5.75-1.992-2.05.317-5.529 1.483-7.729 2.592-2.454 1.236-6.805 2.198-11.257 2.49l-7.257.473-3.465-3.674C3.605 28.127 1.71 22.387 3.005 17.857c1.714-6.004 8.405-4.268 10.197 2.645.51 1.969 1.407 3.052 2.484 2.998.928-.045 3.925-.158 6.661-.25 4.383-.146 5.15-.506 6.453-3.025.813-1.573 2.85-3.427 4.526-4.122 2.284-.946 3.056-1.92 3.082-3.89.11-8.111 10.853-14.792 16.782-10.435 2.362 1.736 3.042 1.818 5.683.684C64.287.138 69.944.729 73.607 4.002c2.835 2.532 3.266 3.556 3.266 7.75 0 3.778-.624 5.647-2.86 8.57-3.033 3.965-2.936 4.148 2.682 5.056 2.28.368 2.999-.007 3.74-1.956 1.126-2.963 10.354-12.338 12.144-12.338.715 0 2.566-1.34 4.112-2.979 7.391-7.83 23.603-5.198 30.437 4.943 3.21 4.765 3.677 7.42 2.22 12.628-3.127 11.166-14.77 15.097-29.47 9.95-3.849-1.347-7.297-2.133-7.665-1.745-.367.387-.819 2.053-1.004 3.703-.316 2.823-.11 3.019 3.47 3.314 4.307.355 5.5 2.12 3.863 5.715-.688 1.51-.736 2.62-.131 2.995 1.488.92 1.138 5.781-.594 8.254-2.97 4.239-12.234 2.465-18.693-3.579-2.711-2.536-2.75-2.542-2.75-.386 0 1.203-.46 2.188-1.022 2.188s-1.53 1.116-2.152 2.48c-1.258 2.763-4.503 4.243-6.006 2.74-.543-.543-3.758-.754-7.237-.475-7.857.63-13.195-1.57-15.149-6.247-.725-1.737-2.014-3.735-2.864-4.44-2.041-1.694-4.57-.638-4.57 1.91 0 1.117-.45 2.031-1 2.031-1.517 0-1.201 2.487.75 5.9 3.286 5.75-1.225 8.151-11.424 6.079zM72.955 42.95c.228-2.402 1.028-4.82 1.778-5.376.866-.64 1.19-2.195.886-4.26-.547-3.728-3.097-4.84-8.925-3.895-4.852.787-5.077 1.256-2.121 4.425 3.35 3.591 4.416 5.827 5.287 11.085.882 5.319 2.5 4.284 3.095-1.98zm45.668-11.572c-2.362-.455-3.153-2.283-1-2.31.905-.01.87-.256-.129-.888-2.171-1.375-.318-3.108 3.188-2.98 1.755.063 2.428.316 1.496.562-2.105.555-1.235 3.316 1.052 3.337 1.426.013 1.445.143.143.985-.943.608-1.049.975-.286.984 2.059.026 3.511-3.968 2.808-7.718-1.05-5.6-5.253-14.266-6.918-14.266-1.872 0-11.604 2.06-11.604 2.456 0 .159.887 2.295 1.971 4.746 1.084 2.45 2.271 7.008 2.638 10.127l.666 5.67 4.113-.135c2.29-.076 3.115-.329 1.862-.57zm-3.844-8.446c-.865-1.4 2.248-3.848 4.892-3.848 1.292 0 1.728.488 1.34 1.5-.317.824-.14 1.5.393 1.5s.969.45.969 1c0 1.393-6.722 1.258-7.594-.152zm-.406-4.632c0-1.118 4.927-2.622 5.784-1.765.797.796.063 1.298-3.036 2.076-1.626.407-2.748.28-2.748-.31zm-1-3.216c0-.55.868-1 1.93-1 1.218 0 2.077-.831 2.327-2.25.394-2.242.4-2.24 1.445.25.905 2.158.758 2.588-1.077 3.15-3.248.993-4.626.949-4.626-.15zm-77.35 9.532c-.31-.808-.132-1.734.394-2.06s.984.224 1.02 1.219c.05 1.456.239 1.37.967-.441.497-1.238.55-3.21.115-4.385-.775-2.096-.829-2.084-2.968.635-2.568 3.265-2.852 6.5-.571 6.5 1.002 0 1.395-.553 1.044-1.468zm-5.112-1.471c-.32-.516-.008-1.304.69-1.75.7-.446 1.947-1.673 2.772-2.725 1.414-1.804 1.372-1.846-.727-.727-3.152 1.68-5.487 6.14-3.214 6.14.582 0 .798-.422.479-.938z"/><path fill="#abadaa" d="M17.373 83.585v-6.5h4.3c4.744 0 6.7 1.313 6.7 4.5 0 2.882-1.869 4.5-5.2 4.5-2.133 0-2.8.476-2.8 2 0 1.11-.666 2-1.5 2-1.18 0-1.5-1.39-1.5-6.5zm6.418-.107c2.039-.783 2.039-3.004 0-3.786-2.742-1.053-3.418-.679-3.418 1.893s.676 2.945 3.418 1.893zm7.237 4.778c-2.197-2.428-2.105-7.454.174-9.517 2.427-2.196 7.454-2.104 9.516.174 2.197 2.427 2.105 7.454-.174 9.516-2.427 2.197-7.454 2.105-9.516-.173zm7.413-2.298c1.372-2.563-.203-6.874-2.511-6.874-2.397 0-3.95 3.84-2.681 6.627 1.342 2.946 3.688 3.058 5.192.247zm5.932 2.547c0-1.223.655-1.436 2.905-.942 4.289.942 4.753-1.177.636-2.897-2.685-1.122-3.54-2.07-3.54-3.924 0-2.68 1.625-3.658 6.081-3.658 1.872 0 2.918.516 2.918 1.439 0 .88-.872 1.365-2.25 1.25-2.79-.234-3.828 1.678-1.179 2.169 2.913.54 4.43 2.135 4.43 4.658 0 2.59-1.691 3.484-6.583 3.484-2.448 0-3.418-.448-3.418-1.58zm15-3.92c0-4.834-.242-5.5-2-5.5-1.1 0-2-.45-2-1s2.475-1 5.5-1 5.5.45 5.5 1-.9 1-2 1c-1.757 0-2 .666-2 5.5 0 4.222-.348 5.5-1.5 5.5s-1.5-1.278-1.5-5.5zm10-1v-6.5h4.5c2.475 0 4.5.45 4.5 1s-1.35 1-3 1c-2 0-3 .5-3 1.5s1 1.5 3 1.5c1.65 0 3 .45 3 1s-1.35 1-3 1c-2.667 0-3 .333-3 3 0 2-.5 3-1.5 3-1.18 0-1.5-1.39-1.5-6.5zm12 0c0-5.112.32-6.5 1.5-6.5s1.5 1.388 1.5 6.5-.32 6.5-1.5 6.5-1.5-1.39-1.5-6.5zm6.996 3.006 2.16-3.494-2.174-2.756c-1.955-2.48-2-2.791-.459-3.103.942-.19 2.423.363 3.29 1.23 1.43 1.43 1.734 1.432 3.307.008.952-.862 2.483-1.415 3.401-1.23 1.476.3 1.418.658-.503 3.095l-2.173 2.756 2.16 3.494c2.14 3.463 2.141 3.493.133 3.493-1.113 0-2.635-.87-3.38-1.936-1.342-1.915-1.37-1.915-2.566 0-.665 1.065-2.142 1.936-3.282 1.936H86.21zM37.623 74.336c11.412-.16 30.088-.16 41.5 0s2.075.292-20.75.292-32.162-.132-20.75-.292zm-11.52-8.267c-5.962-1.03-10.204-3.477-13.85-7.988-6.145-7.604-4.148-14 4.37-13.992 4.527.004 9.88 2.629 11.875 5.824 1.113 1.783 1.355 1.695 4.166-1.506 4.337-4.94 6.345-5.79 9.224-3.904 2.696 1.766 3.053 1.456 3.934-3.426.45-2.495.08-4.491-1.294-6.992-1.839-3.344-2.137-3.485-6.697-3.152-2.625.192-6.471 1.233-8.547 2.315-4.873 2.54-13.908 3.495-17.802 1.882-3.504-1.451-7.807-7.286-8.712-11.814-.366-1.827-.106-4.519.601-6.225 2.284-5.515 8.234-3.097 9.637 3.917.629 3.142.821 3.264 4.262 2.695 1.982-.328 5.242-.601 7.245-.607 3.057-.01 3.744-.417 4.276-2.54.393-1.563 1.961-3.16 4.109-4.185 2.716-1.295 3.473-2.254 3.473-4.395 0-3.208 3.991-8.318 8.193-10.49 3.43-1.774 8.328-1.08 9.701 1.374.828 1.48 1.257 1.46 4.972-.215 8.317-3.75 16.758.063 17.788 8.037.415 3.216-.06 4.746-2.698 8.696-1.761 2.637-3.034 4.936-2.829 5.109.205.173 2.081.578 4.169.9 3.383.523 3.9.315 4.746-1.911 1.019-2.681 9.356-11.391 10.903-11.391.513 0 3.013-1.8 5.555-4 4.41-3.818 4.926-4 11.31-3.972 8.315.035 14.523 2.922 18.379 8.548 3.553 5.184 4.092 7.665 2.75 12.65-2.76 10.248-15.13 15.47-26.44 11.161-6.926-2.638-10.597-3.323-10.983-2.047-1.904 6.301-1.77 6.66 2.495 6.66 4.534 0 6.111 1.971 4.123 5.155-.866 1.386-.89 2.433-.091 3.926 1.431 2.675.278 7.676-2.06 8.927-4.455 2.384-13.986-.653-17.98-5.73-1.88-2.39-2.005-2.419-2.005-.47 0 1.144-1.526 3.747-3.393 5.784-2.61 2.848-3.821 3.517-5.25 2.894-1.02-.445-5.38-.85-9.686-.898-7.572-.086-7.918-.196-10.5-3.336-8.389-10.2-8.05-9.92-9.606-7.906-.785 1.016-1.207 2.42-.938 3.121s-.23 1.55-1.108 1.887c-1.404.539-1.32 1.095.692 4.607 3.868 6.747.598 8.938-10.482 7.023zm10.27-2.534c0-.852-.711-2.926-1.581-4.608-.936-1.81-1.327-4.074-.957-5.548.45-1.789.261-2.366-.668-2.048-.712.242-1.245 1.636-1.186 3.097.125 3.081-1.191 3.545-2.083.735-1.06-3.342-8.26-9.086-11.278-9-1.511.044-2.169.312-1.462.596.707.284 2.827 3.576 4.71 7.317s4.629 7.748 6.1 8.905c3.195 2.513 8.405 2.857 8.405.554zm-15.168-7.504c-4.506-7.817-8.374-11.28-9.902-8.867-1.416 2.238-1.109 3.94 1.527 8.437 2.371 4.046 7.22 7.414 10.743 7.461 1.37.018.913-1.342-2.368-7.031zm75.42.724c.423-.643.652-2.52.51-4.17-.217-2.495-.657-2.957-2.611-2.744-1.292.14-3.49 1.153-4.885 2.25-1.394 1.096-3.464 1.994-4.6 1.994-2.449 0-1.478 1.183 2.835 3.456 3.14 1.654 7.396 1.272 8.75-.786zm-27.252-2.17c0-.825-.177-1.5-.393-1.5s-.652.675-.968 1.5c-.317.825-.14 1.5.393 1.5.532 0 .968-.675.968-1.5zm11.463-5.956c-.805-2.674-1.463-5.947-1.463-7.273 0-1.928-.45-2.346-2.25-2.09-1.838.26-2.31 1.052-2.574 4.319-.178 2.2-1.06 4.815-1.96 5.81-1.418 1.57-1.441 1.934-.176 2.73 1.115.7 1.671.213 2.355-2.062.817-2.722 2.605-4.172 2.605-2.113 0 1.085 4.103 6.365 4.577 5.89.192-.191-.309-2.536-1.114-5.21zm-5.463-6.576c0-.532.675-.968 1.5-.968 1.92 0 1.92.624 0 1.361-.825.317-1.5.14-1.5-.393zm13.816 8.732c1.412-1.132 4.544-6.716 4.008-7.145-.178-.142-1.79-.753-3.583-1.358-3.168-1.069-3.227-1.038-2.086 1.102 1.036 1.945.99 2.05-.393.91-.861-.71-1.87-2.506-2.243-3.99-.64-2.55-2.092-4.17-3.77-4.204-1.117-.023-.921 2.332.84 10.076 1.458 6.41 1.767 6.932 3.75 6.325 1.188-.364 2.753-1.136 3.477-1.716zM73.373 41.8c0-3.075.428-4.015 2.021-4.431 1.355-.354 1.716-.9 1.096-1.656-.51-.62-1.081-2.253-1.271-3.628-.329-2.377-.656-2.496-6.61-2.403-3.446.054-6.489.322-6.763.596-.275.275 1.064 2.156 2.974 4.182 2.121 2.25 3.717 5.13 4.1 7.404.345 2.046.87 4.592 1.167 5.658.526 1.89.573 1.89 1.913.058.755-1.032 1.373-3.634 1.373-5.78zm24 2.046c0-1.764-2.312-.15-3.192 2.23-.87 2.348-.85 2.357 1.154.543 1.121-1.014 2.038-2.262 2.038-2.773zm21-9.315c3.452-1.382 3.418-1.392-2.402-.79-5.787.6-5.89.567-5.3-1.688.71-2.714-1.412-12.485-3.711-17.095-1.992-3.993-1.19-4.986 5.21-6.448l4.703-1.075-4.434-1.263c-4.949-1.41-8.825-.947-12.561 1.502-3.262 2.137-3.175 3.382.245 3.528 1.703.073.917.426-2.062.926-2.647.445-6.022 1.622-7.5 2.616l-2.688 1.806 7 1.1-4 .693c-4.625.8-8.5 3.216-8.5 5.298 0 .815.946 1.444 2.172 1.444 2.489 0 5.828 2.667 5.828 4.655 0 1.69 2.172 1.742 3.948.095 1.1-1.02 1.234-.929.731.5-.447 1.27-.093 1.75 1.294 1.75 1.05 0 2.187-.45 2.527-1 1.061-1.717 2.338-1.094 1.82.887-.97 3.71 10.615 5.388 17.68 2.56zm.25-3.152c-2.362-.455-3.153-2.283-1-2.31.836-.01.753-.341-.25-1-1.333-.875-1.333-1.094 0-1.97.825-.54 2.4-.955 3.5-.92 1.1.035 1.463.282.806.55-1.671.68-.442 3.352 1.55 3.371 1.427.013 1.446.143.144.985-.825.533-1.028.976-.45.984 1.881.028 3.45-2.324 3.45-5.174 0-3.595-4.885-15.829-6.58-16.479-1.207-.463-12.42 1.444-12.42 2.113 0 .166.943 2.436 2.097 5.043 1.158 2.619 2.166 7.15 2.25 10.12l.152 5.377 4.5-.128c2.475-.07 3.488-.323 2.25-.562zm-3.25-9.187c0-1.896 1.828-3.107 4.689-3.107.945 0 1.306.57.95 1.5-.317.825-.14 1.5.392 1.5.533 0 .969.45.969 1s-1.575 1-3.5 1c-2.767 0-3.5-.397-3.5-1.893zm-1-3.882c0-.993 5.131-2.413 5.917-1.637.664.657-.223 1.2-3.17 1.939-1.613.405-2.747.28-2.747-.302zm-1-3.225c0-.55.869-1 1.93-1 1.218 0 2.077-.83 2.327-2.25.394-2.241.4-2.24 1.445.25.906 2.158.759 2.589-1.077 3.15-3.247.994-4.625.949-4.625-.15zm-76.93 8.75c.067-2.138.11-2.15.885-.25.755 1.85.868 1.8 1.52-.678.388-1.473.283-3.431-.232-4.352-.83-1.482-1.186-1.36-3.09 1.062-1.185 1.506-2.153 3.577-2.153 4.602 0 2.706 2.985 2.332 3.07-.384zm-5.532-.689c-.32-.516-.009-1.304.69-1.75.7-.446 1.947-1.673 2.772-2.725 1.414-1.804 1.372-1.846-.728-.727-3.152 1.68-5.487 6.14-3.213 6.14.582 0 .798-.422.479-.938zm95.439-7.355c-1.19-1.763-1.93-2.466-1.642-1.56.287.905 1.116 3.605 1.843 6 1.207 3.978 1.349 4.112 1.642 1.56.19-1.66-.558-4.095-1.843-6z"/><path fill="#a79c6c" d="M17.373 83.585v-6.5h4.3c4.744 0 6.7 1.313 6.7 4.5 0 2.882-1.869 4.5-5.2 4.5-2.133 0-2.8.476-2.8 2 0 1.11-.666 2-1.5 2-1.18 0-1.5-1.39-1.5-6.5zm7.5-2c0-1.313-.773-2.11-2.25-2.32-1.846-.262-2.25.155-2.25 2.32s.405 2.581 2.25 2.32c1.477-.21 2.25-1.008 2.25-2.32zm6.155 6.67c-2.196-2.426-2.105-7.453.174-9.515 2.427-2.197 7.454-2.105 9.516.173 2.197 2.428 2.105 7.454-.174 9.517-2.427 2.196-7.454 2.104-9.516-.174zm7.145-1.37c3.026-3.026-.172-9.31-3.634-7.14-2.097 1.314-2.695 4.996-1.12 6.895 1.46 1.759 3.153 1.846 4.754.244zm6.867 2.533c-1.489-1.489-.502-2.25 2.212-1.708 4.306.861 4.78-1.323.662-3.044-3.673-1.535-4.616-4.106-2.34-6.382 1.686-1.686 7.8-1.56 7.8.162 0 .895-.817 1.205-2.384.906-3.903-.747-4.017 1.538-.157 3.151 3.673 1.535 4.616 4.106 2.34 6.381-1.275 1.276-7.014 1.653-8.133.534zm14.333-4.833c0-4.834-.243-5.5-2-5.5-1.1 0-2-.45-2-1s2.475-1 5.5-1 5.5.45 5.5 1-.9 1-2 1c-1.758 0-2 .666-2 5.5 0 4.222-.349 5.5-1.5 5.5s-1.5-1.278-1.5-5.5zm10-1v-6.5h4.5c2.475 0 4.5.45 4.5 1s-1.35 1-3 1c-2 0-3 .5-3 1.5s1 1.5 3 1.5c1.65 0 3 .45 3 1s-1.35 1-3 1c-2.667 0-3 .333-3 3 0 2-.5 3-1.5 3-1.18 0-1.5-1.39-1.5-6.5zm12 0c0-5.112.32-6.5 1.5-6.5s1.5 1.388 1.5 6.5-.32 6.5-1.5 6.5-1.5-1.39-1.5-6.5zm6.932 3.595c2.544-3.572 2.544-3.618 0-7.191l-2.068-2.905h2.033c1.118 0 2.538.944 3.155 2.098l1.123 2.098 1.469-2.098c.808-1.154 2.374-2.098 3.48-2.098 2.003 0 2.003.014-.056 2.905-2.544 3.572-2.544 3.618 0 7.191 2.02 2.836 2.022 2.905.122 2.905-1.07 0-2.608-.998-3.418-2.216l-1.47-2.216-1.187 2.216c-.652 1.218-2.1 2.216-3.219 2.216h-2.032zM37.623 74.336c11.412-.16 30.088-.16 41.5 0s2.075.292-20.75.292-32.162-.131-20.75-.292zm-9.628-8.353c-10.88-1.588-18.622-8.365-18.622-16.297 0-4.283 1.272-5.072 8.201-5.089 4.071-.01 5.212.483 8.5 3.67l3.799 3.68 4-3.985c3.94-3.926 5.309-4.27 9.677-2.426 1.38.583 1.797-.095 2.359-3.842.536-3.573.266-5.254-1.255-7.83-1.7-2.878-2.433-3.27-5.995-3.2-2.233.042-6.388 1.08-9.234 2.304-6.307 2.713-13.615 3.663-17.268 2.246-4.52-1.753-8.784-8.625-8.784-14.156 0-5.797 1.828-7.827 5.528-6.142 1.69.77 2.827 2.47 3.61 5.397l1.14 4.273 5.111-.286c7.71-.432 9.166-.942 10.396-3.642.62-1.362 2.445-3.157 4.054-3.989 2.15-1.111 3.112-2.507 3.628-5.26 1.01-5.384 6.488-10.323 11.45-10.323 2.417 0 4.382.672 5.468 1.872 1.655 1.829 1.78 1.827 5.405-.063 6.807-3.55 15.296-.783 17.046 5.557 1.328 4.812.455 7.935-3.52 12.577-3.448 4.03-3.455 4.057-1.019 4.057 1.35 0 3.86.28 5.578.625 2.52.504 3.125.295 3.125-1.077 0-.936 1.293-2.996 2.874-4.577 1.581-1.58 3.15-3.591 3.486-4.468.337-.876 2.298-2.298 4.36-3.16 2.06-.86 4.345-2.418 5.074-3.46 4.855-6.931 19.806-6.432 27.545.92 5.645 5.361 7.12 11.77 4.274 18.58-3.004 7.19-14.974 11.299-23.648 8.116-5.862-2.15-12.113-3.685-12.684-3.114-.25.25-.818 2.066-1.262 4.035l-.808 3.58h4.328c3.482 0 4.454.399 4.977 2.047.357 1.127.097 2.715-.58 3.53-.93 1.121-.957 2.08-.11 3.94 1.916 4.203-1.292 9.498-5.73 9.46-3.6-.03-10.124-3.202-12.99-6.315-2.456-2.667-4.105-2.691-4.105-.062 0 .816-.45 2.027-1 2.691-.55.665-1.842 2.31-2.871 3.658-1.762 2.308-2.009 2.359-4.255.887-1.758-1.152-3.04-1.314-4.879-.617-3.19 1.208-10.661.229-13.763-1.804-1.32-.864-3.035-3.095-3.813-4.958-1.747-4.181-4.895-6.137-7.028-4.367-.815.676-1.255 1.82-.978 2.543.278.722-.239 1.73-1.147 2.237-1.497.838-1.423 1.361.791 5.588 2.402 4.584 2.41 4.688.502 6.102-1.067.792-2.192 1.384-2.5 1.317-.307-.067-3.204-.508-6.437-.98zm8.378-2.448c0-.852-.712-2.925-1.582-4.607-.936-1.81-1.326-4.074-.956-5.549.449-1.788.26-2.365-.669-2.048-.711.243-1.245 1.637-1.185 3.098.06 1.46-.278 2.656-.75 2.656s-.858-.46-.858-1.022-1.858-3.038-4.128-5.5c-3.153-3.421-4.846-4.478-7.174-4.478h-3.047l2.064 2.25c1.135 1.238 3.224 4.568 4.641 7.401 1.418 2.834 3.778 6.096 5.245 7.25 3.19 2.51 8.399 2.85 8.399.55zm-15.168-7.504c-4.507-7.816-8.375-11.28-9.902-8.867-1.417 2.239-1.109 3.94 1.527 8.437 2.37 4.046 7.22 7.414 10.743 7.461 1.37.019.912-1.341-2.368-7.03zm40.523 2.471c.899-.345 1.27-1.231.908-2.173-.448-1.167-.178-1.425 1.012-.969 1.197.46 1.46.2 1.004-.99-.381-.993-.214-1.363.435-.962.581.36 1.596-.658 2.264-2.27 1.256-3.033.705-7.82-1.347-11.686-1.884-3.55-8.019-9.79-10.91-11.096-4.293-1.938-3.384-3.493 1.602-2.745 4.807.72 10.603-1.17 14.332-4.673 5.387-5.06 5.57-13.65.349-16.35-8.621-4.459-18.863 1.89-20.654 12.801-.413 2.518-1.057 3.639-1.905 3.314-2.064-.792-2.532 2.207-.563 3.604 2.254 1.6 4.117 5.041 4.117 7.605 0 2.242-2.706 3.656-4.377 2.287-1.843-1.51-1.513 19.075.342 21.329 2.522 3.064 9.257 4.56 13.39 2.974zM56.082 22.46c-.39-.39-.71-2.043-.71-3.674 0-4.142 7.539-11.702 11.669-11.702 3.457 0 5.356 1.604 5.268 4.45-.06 1.934-.115 1.923-.968-.2-2.211-5.501-13.059-.14-13.463 6.655-.163 2.741.103 3.17 1.708 2.75 1.17-.306 1.753-.047 1.515.674-.446 1.356-3.975 2.092-5.02 1.047zm15.29 35.565c0-.582-.45-.78-1-.44-1.28.791-1.28 1.5 0 1.5.55 0 1-.477 1-1.06zm25.252-1.27c.423-.644.653-2.52.51-4.17-.217-2.496-.656-2.958-2.61-2.745-1.293.14-3.491 1.153-4.886 2.25-1.394 1.097-3.464 1.994-4.6 1.994-2.448 0-1.478 1.183 2.835 3.456 3.14 1.655 7.396 1.273 8.75-.785zm-26.631-1.123c.816-2.127-.631-4.138-1.73-2.404-1.18 1.86-1.106 3.856.141 3.856.567 0 1.282-.653 1.589-1.452zm10.843-7.003c-.805-2.675-1.464-5.947-1.464-7.273 0-1.928-.45-2.347-2.25-2.091-1.837.26-2.309 1.052-2.573 4.32-.179 2.2-1.06 4.814-1.96 5.81-1.418 1.569-1.442 1.934-.177 2.729 1.116.7 1.672.214 2.355-2.061.818-2.723 2.605-4.173 2.605-2.114 0 1.085 4.103 6.366 4.578 5.891.192-.192-.31-2.537-1.114-5.211zm-5.464-6.576c0-.533.675-.969 1.5-.969 1.921 0 1.921.625 0 1.362-.825.316-1.5.14-1.5-.393zm13.816 8.732c1.413-1.132 4.545-6.716 4.008-7.145-.178-.143-1.79-.754-3.583-1.358-3.168-1.07-3.226-1.039-2.086 1.101 1.036 1.945.99 2.051-.393.91-.86-.71-1.87-2.505-2.243-3.99-.64-2.55-2.091-4.17-3.769-4.204-1.118-.022-.922 2.333.84 10.076 1.457 6.41 1.767 6.932 3.75 6.325 1.188-.363 2.752-1.136 3.476-1.716zm-52.816-2.2c.685-.826 1.02-1.5.745-1.5s-1.06.674-1.745 1.5-1.02 1.5-.745 1.5 1.06-.676 1.745-1.5zm35.608-.25c.73-.963 1.343-3.176 1.36-4.919.043-4.216.936-6.332 2.675-6.332 1.12 0 1.196-.432.351-2.011-.592-1.106-.945-2.794-.785-3.75.246-1.468-.642-1.779-5.709-1.997-8.489-.366-9.832.784-5.8 4.965 3.705 3.84 5.3 7.56 5.3 12.359 0 3.842.651 4.262 2.608 1.685zm-27.608.372c0-.208-.787-.996-1.75-1.75-1.586-1.244-1.621-1.209-.377.377 1.306 1.666 2.127 2.196 2.127 1.373zm53-4.861c0-1.765-2.312-.15-3.192 2.229-.869 2.348-.85 2.357 1.155.543 1.12-1.014 2.037-2.262 2.037-2.772zm-8-5.96c0-.595-.787-1.68-1.75-2.41-1.666-1.265-1.666-1.33 0-1.36 2.183-.04 2.31-2.88.166-3.702-1.277-.49-1.325-.775-.25-1.469 2.052-1.324-1.075-3.052-4.166-2.302-1.375.334-4.3.605-6.5.602-3.308-.004-3.567.123-1.5.734 2.046.604 2.44 1.27 2.174 3.664-.179 1.61-.01 2.611.374 2.226.95-.95 8.412 2.946 9.106 4.755.602 1.57 2.346 1.021 2.346-.739zm29-3.355c3.452-1.382 3.419-1.393-2.401-.79-5.787.6-5.89.567-5.3-1.688.709-2.714-1.412-12.485-3.712-17.095-1.992-3.993-1.189-4.987 5.21-6.449l4.703-1.074-4.434-1.264c-4.948-1.41-8.825-.946-12.56 1.502-3.262 2.137-3.176 3.382.245 3.529 1.702.072.916.425-2.063.926-2.647.444-6.022 1.621-7.5 2.615l-2.687 1.807 7 1.1-4 .693c-4.625.8-8.5 3.216-8.5 5.298 0 .814.946 1.443 2.171 1.443 2.49 0 5.829 2.667 5.829 4.655 0 1.69 2.171 1.743 3.947.095 1.1-1.02 1.234-.928.731.5-.447 1.27-.092 1.75 1.294 1.75 1.05 0 2.188-.45 2.528-1 1.06-1.716 2.337-1.093 1.819.888-.97 3.71 10.616 5.387 17.68 2.559zm-91-2.615c2.475-1.168 6.278-2.395 8.451-2.728 3.154-.482 4.625-1.488 7.29-4.984 3.784-4.963 3.769-6.482-.068-6.936-2.456-.291-2.673-.028-2.673 3.25 0 5.914-5.852 9.859-9 6.066-.884-1.066-3.225-1.5-8.089-1.5-6.481 0-7.029.185-10.324 3.48-3.088 3.089-3.289 3.592-1.783 4.47 2.96 1.726 11.405 1.144 16.197-1.118zm18-1.832c-.588-1.1-1.574-2-2.19-2s-.305.9.69 2 1.981 2 2.19 2-.101-.9-.69-2zm78.777.443c2.854-1.998 2.895-6.169.134-13.443-3.31-8.716-3.638-8.895-12.743-6.942l-4.93 1.057 1.921 3.978c2.18 4.511 4.257 14.426 3.335 15.917-1.033 1.67 9.803 1.17 12.284-.567zm-6.477-.782c.35-.914.201-1.66-.332-1.66-.532 0-.968-.45-.968-1 0-1.644 2.537-1.137 5 1 1.268 1.1 1.9 2.005 1.403 2.013-.497.007-1.992.305-3.322.66-1.974.529-2.302.343-1.781-1.013zm1.97-4.265c.333-.332 1.195-.368 1.917-.079.798.32.561.556-.604.604-1.054.044-1.645-.193-1.312-.525zm-4.27-2.86c0-1.448 2.896-3.536 4.903-3.536.569 0 .775.675.458 1.5-.316.825-.05 1.5.59 1.5s.889.45.549 1c-.998 1.615-6.5 1.222-6.5-.465zm4-.536c0-.55-.45-1-1-1s-1 .45-1 1 .45 1 1 1 1-.45 1-1zm-5-3.98c0-.561 1.425-1.02 3.167-1.02 3.64 0 3.509.437-.417 1.379-1.633.391-2.75.245-2.75-.36zm-1-2.913c0-.609 1.173-1.107 2.607-1.107 1.945 0 2.456-.394 2.011-1.552-.341-.89-.174-1.291.393-.94 1.498.925 1.183 3.492-.43 3.492-.78 0-2.13.273-3 .607-.87.334-1.581.11-1.581-.5zM37.149 25.527c2.24-1.57 3.136-6.76 1.356-7.86-1.669-1.032-6.755 6.603-5.62 8.438.832 1.348 1.678 1.233 4.264-.578zm33.953.864c-.973-.254-2.323-.237-3 .037-.677.274.119.481 1.769.461s2.204-.245 1.23-.498zm-39.223-3.294c-.336-.543.308-1.973 1.43-3.177 2.82-3.027 1.626-3.715-1.442-.832-2.823 2.651-3.262 4.996-.937 4.996.857 0 1.284-.444.949-.987zm94.469-7.307c-1.19-1.763-1.93-2.465-1.642-1.56.287.905 1.116 3.605 1.843 6 1.207 3.978 1.35 4.113 1.642 1.56.19-1.66-.558-4.095-1.843-6zM52.232 8.823c1.906-1.906 1.278-4.719-1.316-5.9-4.932-2.248-12.545 3.393-12.545 9.296 0 2.492.376 2.865 2.89 2.865 1.588 0 3.942.853 5.229 1.895l2.34 1.895 1.131-4.456c.623-2.45 1.644-4.969 2.27-5.595z"/><path fill="#5c5d57" d="M17.373 83.585v-6.5h4.3c4.744 0 6.7 1.313 6.7 4.5 0 2.882-1.869 4.5-5.2 4.5-2.133 0-2.8.476-2.8 2 0 1.11-.666 2-1.5 2-1.18 0-1.5-1.39-1.5-6.5zm7.5-2c0-1.313-.773-2.11-2.25-2.32-1.846-.262-2.25.155-2.25 2.32s.405 2.581 2.25 2.32c1.477-.21 2.25-1.008 2.25-2.32zm6.5 6.5c-2.557-2.557-2.557-6.443 0-9 1.1-1.1 3.125-2 4.5-2 5.581 0 8.461 7.039 4.5 11-1.1 1.1-3.125 2-4.5 2s-3.4-.9-4.5-2zm6.8-1.2c3.026-3.026-.172-9.31-3.634-7.14-2.097 1.314-2.695 4.996-1.12 6.895 1.46 1.759 3.153 1.846 4.754.244zm6.867 2.533c-1.428-1.429-.523-1.915 2.833-1.523 4.604.537 4.604-1.451 0-3.375-3.62-1.513-4.537-3.998-2.3-6.236 1.663-1.662 7.8-1.562 7.8.127 0 .906-.953 1.187-3 .887-4.141-.608-3.827 1.414.5 3.222 3.634 1.518 4.566 4.099 2.3 6.364-1.276 1.276-7.014 1.652-8.133.534zm14.333-4.833c0-4.834-.243-5.5-2-5.5-1.1 0-2-.45-2-1s2.475-1 5.5-1 5.5.45 5.5 1-.9 1-2 1c-1.758 0-2 .666-2 5.5 0 4.222-.349 5.5-1.5 5.5s-1.5-1.278-1.5-5.5zm10-1v-6.5h4.5c2.475 0 4.5.45 4.5 1s-1.35 1-3 1c-2 0-3 .5-3 1.5s1 1.5 3 1.5c1.65 0 3 .45 3 1s-1.35 1-3 1c-2.667 0-3 .333-3 3 0 2-.5 3-1.5 3-1.18 0-1.5-1.39-1.5-6.5zm12 0c0-5.112.32-6.5 1.5-6.5s1.5 1.388 1.5 6.5-.32 6.5-1.5 6.5-1.5-1.39-1.5-6.5zm6.932 3.595c2.544-3.572 2.544-3.618 0-7.191l-2.068-2.905h2.033c1.118 0 2.566.998 3.218 2.216l1.186 2.216 1.472-2.216c.809-1.218 2.347-2.216 3.417-2.216 1.9 0 1.897.069-.122 2.905-2.544 3.572-2.544 3.618 0 7.191 2.02 2.836 2.022 2.905.122 2.905-1.07 0-2.608-.998-3.417-2.216l-1.472-2.216-1.186 2.216c-.652 1.218-2.1 2.216-3.218 2.216h-2.033zM37.623 74.336c11.412-.16 30.088-.16 41.5 0s2.075.292-20.75.292-32.162-.131-20.75-.292zm-14.005-9.228c-6.866-1.63-14.245-9.103-14.245-14.427 0-4.306 1.043-5.48 5.457-6.142 4.821-.723 8.542.75 12.44 4.923l2.398 2.566 4.103-4.02c4.04-3.959 5.427-4.308 9.791-2.468 1.35.57 1.824-.007 2.36-2.865 2.092-11.15-5.297-15.738-16.22-10.07-5.643 2.927-13.654 4.118-17.546 2.609-4.52-1.753-8.783-8.625-8.783-14.156 0-5.219 1.711-7.516 4.855-6.518 1.922.61 5.147 6.063 5.142 8.697-.001 1.034 1.62 1.271 6.949 1.018 6.726-.319 7.016-.441 8.98-3.77 1.372-2.324 3.02-3.639 5.078-4.05 2.36-.472 2.919-1.016 2.477-2.406-.92-2.9 2.132-8.738 5.708-10.918C46.82.515 51.536.503 53.87 3.08c1.116 1.233 2.227 1.665 2.905 1.13.604-.476 2.757-1.4 4.784-2.052 7.218-2.324 14.35 1.484 14.845 7.926.359 4.68-.03 5.846-3.435 10.307l-3.404 4.46 4.937.655c5.589.742 6.872.283 6.872-2.458 0-1.055 1.107-2.644 2.461-3.53s2.72-2.43 3.037-3.427c.316-.998 2.237-2.603 4.267-3.566 2.03-.963 4.496-2.774 5.479-4.024 3.828-4.867 14.696-5.71 22.39-1.737 5.632 2.908 10.366 9.502 10.366 14.437 0 5.654-3.06 10.986-7.848 13.677-4.87 2.737-15.25 3.223-19.785.925-1.577-.799-4.542-1.756-6.588-2.126-3.479-.63-3.76-.492-4.334 2.116-.337 1.535-.785 3.353-.997 4.04-.262.85.845 1.25 3.46 1.25 4.81 0 7.063 2.216 5.234 5.144-.68 1.09-.97 2.966-.642 4.169.52 1.908.455 1.964-.502.437-1.43-2.279-3.143-2.21-6.27.25-3.505 2.756-4.146 2.51-1.183-.454 1.35-1.35 2.462-3.038 2.47-3.75.011-.945.265-.9.94.165.79 1.25 1.22 1.19 2.984-.405 1.134-1.026 2.06-2.246 2.06-2.71 0-1.046-3.675-1.128-4.252-.096-.23.413-.282.188-.115-.5.27-1.107-2.529-1.687-7.352-1.523-.67.022-1.518-.92-1.884-2.093-.653-2.093-2.16-3.588-3.646-3.618-.413-.009-.779 1.447-.813 3.234-.06 3.023-.129 3.088-.996.926-1.604-4-4.36-2.353-4.974 2.972-.294 2.544-1.12 5.332-1.837 6.195-1.531 1.846-.545 4.03 1.471 3.257 1.753-.673 1.85 1.934.149 4.014-4.43 5.421-4.616 5.52-7.197 3.83-1.954-1.28-2.846-1.357-4.636-.4-2.774 1.486-10.028.585-13.472-1.672-1.397-.915-3.155-3.137-3.908-4.937-2.41-5.77-8.537-6.771-8.537-1.396 0 .987-.562 1.986-1.25 2.22-.92.314-.679 1.56.914 4.726 1.19 2.365 1.93 4.911 1.643 5.658-.576 1.502-8.438 1.715-14.062.38zm13.046-.647c.343-.343-.272-2.38-1.367-4.526s-1.864-4.903-1.708-6.126c.432-3.38-1.637-3.533-2.264-.167l-.548 2.943-1.687-3.171c-1.922-3.613-6.086-6.882-10.028-7.871-2.656-.667-3.796.74-1.666 2.056.562.347 2.338 3.239 3.947 6.425 1.608 3.187 4.333 6.979 6.054 8.427 2.888 2.43 7.785 3.492 9.267 2.01zM24.57 61.335c-1.067-1.513-3.122-5.096-4.567-7.964-3.9-7.741-9.63-9.803-9.63-3.465 0 4.205 3.871 9.353 8.97 11.929 6.162 3.113 7.673 2.968 5.227-.5zm47.736-6.191c-.045-1.04-.43-.809-1.153.691-.597 1.237-1.777 2.25-2.623 2.25-1.23 0-1.166-.272.315-1.355 1.303-.954 1.621-1.918 1.071-3.25-.708-1.715-.894-1.634-1.962.855-.918 2.139-1.447 2.483-2.38 1.55-1.512-1.512-1.552-2.878-.075-2.55.618.137 1.587-1.08 2.152-2.707 1.615-4.647-.625-11.266-5.5-16.254l-4.116-4.21 2.728-1.037c4.902-1.864 10.338-2.287 13.97-1.089 3.248 1.073 3.512 1.439 2.974 4.13-.477 2.383-.294 2.839.948 2.362 1.912-.733 7.282 1.954 8.602 4.305.922 1.643 1.027 1.634 1.712-.145.487-1.266.17-2.303-.956-3.127-1.538-1.124-1.491-1.284.531-1.813 2.167-.566 2.175-.626.368-2.622-1.405-1.553-1.511-2.05-.443-2.075.975-.022.811-.48-.537-1.5-2.191-1.658-5.685-1.927-7.108-.547-.58.561-2.99.511-6.176-.128-4.2-.843-6.539-.719-11.92.633-6.542 1.643-6.738 1.635-8.722-.349l-2.03-2.03 4.949.545C69.604 27.074 80.523 13.143 72.8 5.421c-2.285-2.284-3.184-2.521-8.023-2.12-4.24.352-6.1 1.075-8.381 3.26-3.538 3.39-6.024 8.355-6.024 12.032 0 1.968-.4 2.552-1.468 2.142-2.851-1.094-2.649 1.452.39 4.914 3.38 3.849 3.88 6.525 1.578 8.435-1.885 1.564-3.765.189-5.514-4.033-.676-1.632-1.624-2.967-2.107-2.967-1.32 0-1.114.567 1.71 4.706 2.44 3.58 2.55 4.259 1.914 11.989-.828 10.072-.234 12.102 4.061 13.897 5.791 2.42 12.84 1.624 11.71-1.321-.411-1.07.637-.722 3.312 1.097 3.622 2.463 4.007 2.534 5.164.956.687-.938 1.22-2.407 1.182-3.264zM56.624 22.423c-2.434-.982-1.32-5.897 2.296-10.121 5.462-6.381 13.583-6.894 13.383-.844-.066 2-.115 2.012-.824.202-1.659-4.233-7.047-3.504-11.812 1.598-2.715 2.908-2.585 8.52.185 8.01 1.018-.187 1.452.12 1.063.75-.69 1.117-2.18 1.257-4.292.405zM42.087 47.566l2.787 1.76-2.133-2.225c-2.493-2.602-5.197-2.146-7.251 1.223-1.358 2.227-1.34 2.225 1.215-.129 2.533-2.333 2.66-2.347 5.382-.63zm29.952 1.269c.43-.688 1.02-3.263 1.309-5.724.394-3.35 1.098-4.758 2.802-5.605 2.026-1.008 2.105-1.275.713-2.43-.86-.714-1.434-2.218-1.276-3.343.377-2.687-4.486-3.774-10.828-2.422l-4.59.98 3.542 3.646c4.05 4.169 5.662 7.79 5.662 12.712 0 3.473 1.228 4.48 2.665 2.185zm46.835-14.304c2.97-1.45 2.948-1.46-2.222-1.006-2.873.252-5.487.031-5.81-.491-.344-.558 1.82-.95 5.25-.95 6.076 0 10.282-1.864 10.282-4.556 0-.794.45-1.444 1-1.444 1.748 0 1.07-7.374-.989-10.75-2.328-3.819-2.998-4.102-2.362-1 .253 1.238-.258.69-1.137-1.217-2.41-5.229-2.333-5.215-14.271-2.503l-2.26.513 1.887 3.729c1.93 3.814 4.52 14.174 3.74 14.954-.238.238-.974-2.19-1.636-5.396s-2.052-7.5-3.09-9.543c-1.787-3.52-1.794-3.762-.134-4.634.964-.506 3.777-1.266 6.252-1.688l4.5-.768-3-1.303c-5.823-2.53-12.182-1.592-16.86 2.485-1.786 1.557-1.746 1.647 1 2.253l2.86.632-3.215.118c-3.476.128-10.284 2.977-10.284 4.304 0 .448 1.237.86 2.75.915 2.342.086 2.185.233-1.06.997-8.249 1.94-10.473 5.67-4.44 7.446 1.8.53 3.69 1.96 4.237 3.207.543 1.237 1.754 2.25 2.69 2.25s1.972.432 2.299.961c.374.606 1.504.616 3.05.029 1.734-.66 2.384-.599 2.214.206-.73 3.459 12.925 5.096 18.76 2.25zm-1.185-4.825c.29-.758.08-1.826-.467-2.373-.66-.66-.089-1.223 1.697-1.67 1.48-.372 2.938-.43 3.24-.127.301.301-.27.548-1.272.548-1.636 0-1.6.19.348 1.88l2.167 1.88-2.264.606c-3.393.91-4.031.772-3.45-.744zm-1.909-6.773c-.391-.634.118-1.759 1.132-2.5 2.397-1.753 3.462-1.707 3.462.151 0 .825.476 1.5 1.059 1.5s.78.45.44 1c-.847 1.372-5.219 1.263-6.093-.151zm3.594-.849c0-.55-.45-1-1-1s-1 .45-1 1 .45 1 1 1 1-.45 1-1zm-5-4.173c0-.455 1.35-.827 3-.827 3.856 0 3.856.648 0 1.214-1.65.242-3 .068-3-.387zm-1-3c0-.455 1.173-.827 2.607-.827 1.945 0 2.456-.394 2.011-1.552-.341-.89-.174-1.29.393-.94 2.007 1.24.9 3.278-2.011 3.706-1.65.242-3 .068-3-.387zm-87 17.654c1.925-.697 4.85-1.753 6.5-2.346s4.2-1.314 5.667-1.604c1.69-.334 3.506-1.901 4.958-4.279 1.26-2.063 2.665-3.908 3.124-4.099 1.574-.655-1.493-3.152-3.872-3.152-2.05 0-2.377.481-2.377 3.5 0 5.85-5.874 9.766-9 6-.862-1.038-3.133-1.496-7.373-1.487-7.431.017-10.628.783-10.628 2.547 0 .73-.982 2.014-2.182 2.855-2.178 1.526-2.176 1.53 1.25 3.016 3.615 1.566 7.764 1.283 13.932-.95zm11.17-7.135c1.92-1.738 2.498-6.814.89-7.809-.518-.32-1.923.442-3.124 1.691l-2.183 2.273 1.158-2.25c1.473-2.86-.161-3-2.911-.25-2.346 2.345-2.628 5-.532 5 .96 0 1.247-.578.83-1.664-.445-1.161-.264-1.433.6-.9.68.422.98 1.436.667 2.255-1.272 3.315 1.622 4.354 4.606 1.654zm14.162-15.045c2.282-4.38 2.095-6.148-.788-7.461C45.856.617 38.373 6.34 38.373 12.52c0 2.953.236 3.165 3.515 3.165 2.003 0 4.26.746 5.25 1.737 1.647 1.649 1.765 1.595 2.318-1.05.32-1.533 1.333-4.227 2.25-5.987zm33.916 47.45c-4.94-2.734-10.25-7.233-10.25-8.686 0-1.756.91-1.237 3.997 2.278 6.475 7.375 15.859 9.66 17.984 4.378.657-1.632.91-1.772.957-.527.077 2.073-3.62 4.807-6.502 4.807-1.166 0-3.95-1.013-6.186-2.25zm-3.8-7.218c-.797-1.908-1.414-4.495-1.37-5.75.09-2.589.37-2.01 1.887 3.898.642 2.501 1.769 4.363 2.804 4.634 1.58.415 1.575.464-.071.57-1.166.075-2.312-1.108-3.25-3.352zm-5.716-8.656c.679-.684 1.485-.991 1.793-.683.308.308-.247.867-1.233 1.242-1.425.543-1.54.428-.56-.56z"/><path fill="#cc000d" d="M17.373 83.585v-6.5h3.929c3.98 0 7.071 1.966 7.071 4.5 0 2.144-2.916 4.5-5.571 4.5-1.762 0-2.429.549-2.429 2 0 1.11-.666 2-1.5 2-1.18 0-1.5-1.39-1.5-6.5zm7.5-2c0-1.313-.773-2.11-2.25-2.32-1.846-.262-2.25.155-2.25 2.32s.405 2.581 2.25 2.32c1.477-.21 2.25-1.008 2.25-2.32zm6.5 6.5c-2.557-2.557-2.557-6.443 0-9 1.1-1.1 3.125-2 4.5-2 5.581 0 8.461 7.039 4.5 11-1.1 1.1-3.125 2-4.5 2s-3.4-.9-4.5-2zm7.571-2.428c.954-3.8-.361-6.572-3.12-6.572-2.691 0-4.118 3.322-2.974 6.927.97 3.054 5.302 2.8 6.094-.355zm6.68 3.765c-2.545-1.026-1.138-1.923 2.374-1.513 4.391.513 4.296-1.374-.194-3.862-3.63-2.012-4.224-4.468-1.44-5.958 2.453-1.312 6.193-.991 6.708.576.222.676-.78.914-2.672.637-4.232-.621-4.054 2.199.216 3.423 1.932.554 3.391 1.698 3.609 2.829.628 3.26-4.45 5.544-8.602 3.868zm13.75-4.837c0-4.834-.243-5.5-2-5.5-1.1 0-2-.45-2-1s2.474-1 5.5-1 5.5.45 5.5 1-.9 1-2 1c-1.758 0-2 .666-2 5.5 0 4.222-.35 5.5-1.5 5.5s-1.5-1.278-1.5-5.5zm10-1v-6.5h4.5c2.474 0 4.5.45 4.5 1s-1.35 1-3 1c-2 0-3 .5-3 1.5s1 1.5 3 1.5c1.65 0 3 .45 3 1s-1.35 1-3 1c-2.667 0-3 .333-3 3 0 2-.5 3-1.5 3-1.18 0-1.5-1.39-1.5-6.5zm12 0c0-5.112.32-6.5 1.5-6.5s1.5 1.388 1.5 6.5-.321 6.5-1.5 6.5-1.5-1.39-1.5-6.5zm6 5.964c0-.294.738-1.662 1.641-3.04 1.423-2.173 1.46-2.867.282-5.215a556.006 556.006 0 0 1-1.725-3.46c-.895-1.836 2.463-.52 3.692 1.447l1.372 2.197 1.779-2.197c1.618-1.997 3.958-2.98 3.958-1.661 0 .294-.739 1.662-1.642 3.04-1.423 2.173-1.46 2.867-.282 5.215.748 1.49 1.524 3.047 1.725 3.46.895 1.836-2.463.52-3.692-1.447L93.11 85.69l-1.779 2.197c-1.617 1.997-3.958 2.98-3.958 1.661zm-49.75-15.214c11.411-.16 30.087-.16 41.5 0s2.074.292-20.75.292-32.163-.131-20.75-.292zm-13.179-9.339c-2.435-.477-4.91-1.356-5.5-1.953-.77-.78-.28-.785 1.744-.022 3.842 1.451 5.992 1.371 5.032-.187-.444-.721.289-.558 1.733.387 1.377.9 3.384 1.86 4.461 2.134 3.492.887-2.614.594-7.47-.359zm10.2.484c.331-.332 1.194-.368 1.916-.079.798.32.56.556-.604.604-1.054.044-1.645-.193-1.313-.525zm-20.772-6.396c-1.58-1.65-2.649-3-2.374-3 .275 0 1.793 1.35 3.374 3s2.65 3 2.374 3-1.793-1.35-3.374-3zm53.071 1.114c-.3-.487-3.543-.645-7.205-.351-7.252.582-12.78-1.339-13.886-4.827-.997-3.141-4.571-6.936-6.533-6.936-1.247 0-2.147.95-2.597 2.74-.696 2.776-3.35 6.253-3.35 4.39 0-.556.472-1.303 1.049-1.66 1.452-.897-.91-3.652-2.412-2.812-.625.35-.518.007.238-.761 1.154-1.172 1.455-1.178 1.872-.033.35.962 1.17.52 2.775-1.494 2.188-2.743 2.358-2.788 4.208-1.115 2.65 2.399 3.996 2.205 1.77-.255-2.228-2.462-4.21-2.533-6.921-.25-2.077 1.748-2.077 1.748-.174-.5 2.203-2.602 4.812-2.898 6.595-.75 1.644 1.98 2.756 1.896 3.285-.25.237-.962.418.635.401 3.55-.022 4.046.458 5.789 2.03 7.36 2.252 2.252 9.457 3.515 13.812 2.422 2.327-.584 2.486-.87 1.31-2.363-.736-.934.159-.465 1.988 1.042 3.772 3.105 4.279 3.23 6.033 1.489 1.01-1.002 1.127-.903.593.5-.695 1.826-3.933 2.399-4.882.864zm23.7-.718c.332-.332 1.195-.368 1.917-.079.798.32.56.556-.604.604-1.054.044-1.645-.193-1.313-.525zm-24.594-3.2c-1.807-1.997-2.265-3.677-.746-2.738 1.294.8 2.383-1.254 3.159-5.958l.66-4 .125 3.905.125 3.905 4.5-3.81-1.862 2.203c-1.84 2.177-1.832 2.21.75 2.858 2.857.717 3.492 2.888 1.112 3.8-1.053.405-1.504-.084-1.514-1.642-.015-2.185-.034-2.181-1.25.202-1.625 3.185-3.013 3.535-5.059 1.275zm3.829-.205c.343-.555.32-1.964-.05-3.132-.53-1.669-.862-1.827-1.55-.74-1.165 1.84-1.144 4.881.035 4.881.518 0 1.222-.454 1.565-1.009zm12.994.14c-3.152-1.956-7.929-7.035-7.253-7.712.218-.217 2.724 1.85 5.57 4.593 2.847 2.744 5.065 4.987 4.93 4.985-.136-.002-1.597-.842-3.247-1.866zm-53.164-1.964c-.906-1.451-.852-1.833.26-1.833.772 0 1.404.825 1.404 1.833s-.117 1.833-.26 1.833-.775-.825-1.404-1.833zM9.504 50.534c-.236-5.468 3.917-7.23 7.545-3.2 3.426 3.806 3.88 5.458.529 1.922-3.958-4.176-6.487-3.886-7.324.84-.616 3.472-.62 3.474-.75.438zm81.517-1.161c.96-1.534 1.857-2.952 1.994-3.152.137-.2.182.537.099 1.637-.083 1.1-.98 2.518-1.995 3.152-1.778 1.11-1.781 1.051-.098-1.637zm-64.2.63c-.367-.594-2.08-1.943-3.808-2.996-1.728-1.054-2.586-1.917-1.907-1.92 1.28-.003 8.298 5.916 7.075 5.968-.38.016-.992-.457-1.36-1.052zm69.322-.296c-1.606-1.22-1.54-1.485.92-3.718l2.648-2.405-1.64 2.432c-1.214 1.798-1.357 2.775-.548 3.75 1.377 1.659.852 1.637-1.38-.059zM73.45 43.393c-.044-2.305.277-4.41.712-4.68.435-.269.627 1.167.427 3.191-.546 5.534-1.05 6.193-1.14 1.49zm7 2.274c-.044-1.054.193-1.644.525-1.312.332.332.368 1.195.079 1.917-.32.797-.556.56-.604-.605zm-34.08-6.179c0-3.706-2.637-9.323-4.465-9.51-.569-.058-2.16-.126-3.534-.15-2.27-.04-2.295-.083-.266-.46 1.23-.227 3.668-2.41 5.42-4.849 3.576-4.98 3.861-5.211 3.171-2.573-.287 1.1.14 2.102 1.042 2.449 2.005.77 4.927 6.48 4.236 8.28-1.014 2.642-4.18 1.521-5.902-2.091-.918-1.925-2.126-3.5-2.685-3.5-1.462 0-1.305.487 1.484 4.595 1.598 2.356 2.5 5.076 2.5 7.545 0 2.123-.225 3.86-.5 3.86s-.5-1.618-.5-3.596zm20.608 1.168c-.348-1.387-2.518-4.333-4.822-6.547s-3.91-4.025-3.569-4.025 1.444-.267 2.452-.594c1.442-.468 1.528-.38.406.417-1.167.828-.873 1.476 1.62 3.574 2.972 2.5 6.088 8.154 5.06 9.182-.283.283-.8-.62-1.147-2.007zm25.393 1.642c-3.504-.416-6.984-2.314-8.113-4.424-1.293-2.417-.4-2.256 2.045.368 1.792 1.924 2.079 1.976 2.65.487.353-.919.086-2.34-.593-3.158-1.006-1.212-.934-1.487.388-1.487 2.082 0 2.05-.854-.127-3.343-.963-1.1-1.188-1.672-.5-1.27 1.616.945 1.616-.593 0-2.334-1.005-1.082-.993-1.2.061-.602.722.409 1.733 1.852 2.248 3.206.515 1.355 1.357 2.204 1.87 1.887.513-.317 1.183-.17 1.49.326s-.337 1.137-1.43 1.423c-1.154.302-1.99 1.365-1.99 2.532 0 1.106-.273 2.723-.606 3.593-.492 1.282.16 1.582 3.44 1.582 2.227 0 4.267.354 4.534.786.503.814-1.07.94-5.367.428zm-13.04-4.214c-.108-.825-.132-1.87-.053-2.324.078-.454-.287-.559-.813-.234s-1.2.195-1.499-.288c-.47-.76.92-.836 4.905-.266.603.086.563.435-.1.877-.605.405-1.357 1.41-1.67 2.235-.508 1.333-.594 1.333-.77 0zm32.04-1.936c4.125-.348 8.175-1.037 9-1.53 2.752-1.644 5.965-5.02 5.982-6.284.01-.687.484-1.25 1.053-1.25 1.413 0-.227 2.917-3.194 5.684-3.456 3.222-7.235 4.334-14.157 4.165l-6.184-.15zm-95.25-.726c.687-.278 1.812-.278 2.5 0 .687.277.125.504-1.25.504s-1.938-.227-1.25-.504zm-5.98-1.407c-2.84-1.655-6.77-9.316-6.77-13.197 0-3.28 2.008-6.734 3.916-6.734 1.515 0 4.195 3.82 5.179 7.382.55 1.99 1.445 3.618 1.991 3.618.999 0-.077 1.566-3.367 4.9-1.858 1.885-1.233 3.086 2.28 4.387 1.334.494 1.334.56 0 .604-.824.027-2.278-.405-3.23-.96zM8.184 21.91c-.358-3.631-2.348-4.869-3.251-2.023-.8 2.523.284 5.196 2.108 5.196 1.035 0 1.366-.918 1.143-3.173zm16.687 11.293c8.672-3.148 9.125-3.221 4-.652-2.75 1.378-5.9 2.497-7 2.486-1.1-.01.25-.836 3-1.834zm70.583.515c.23-.2 1.42-.886 2.644-1.523 1.872-.974 2.135-.915 1.643.365-.321.837-1.511 1.523-2.644 1.523-1.133 0-1.872-.164-1.643-.365zm21.167-1.325c.963-.251 2.538-.251 3.5 0 .963.252.175.458-1.75.458s-2.712-.206-1.75-.458zm-40.25-2.251c0-.583.45-1.06 1-1.06 1.281 0 1.281.709 0 1.5-.55.34-1 .142-1-.44zm41.38-.604c.255-.666-.04-1.716-.658-2.333-.83-.83-.827-1.122.007-1.122.62 0 1.731.602 2.468 1.339s2.006 1.566 2.821 1.842c.815.276 0 .724-1.81.994-2.32.346-3.156.133-2.829-.72zM53.977 27.2c-1.649-1.822-1.559-1.866 2.786-1.377 2.469.279 5.632.22 7.03-.131 3.445-.865 9.573-6.394 11.184-10.09.724-1.66 1.333-2.319 1.354-1.463.048 1.883-4.33 7.995-6.73 9.398-1.457.851-1.178 1.111 1.77 1.647l3.5.636-4 .143c-2.2.08-6.475.808-9.5 1.62s-5.543 1.482-5.595 1.488c-.053.007-.862-.835-1.8-1.87zm9.665 1.279c.332-.333 1.194-.368 1.916-.08.798.32.561.557-.604.605-1.054.043-1.645-.193-1.312-.525zm9 0c.332-.333 1.194-.368 1.916-.08.798.32.561.557-.604.605-1.054.043-1.645-.193-1.312-.525zm-40.398-2.146c-1.27-1.619-1.223-1.64.627-.283 1.1.807 2.188 1.594 2.417 1.75.23.155-.053.283-.628.283s-1.661-.788-2.416-1.75zm4.438-1.551c-.059-1.21.11-1.634.377-.943.265.691.895 1.002 1.398.691 1.373-.849 1.1.154-.377 1.38-.985.817-1.316.55-1.398-1.128zm42.19 1.243c5.065-1.047 9.158-1 5 .058-1.65.42-4.35.765-6 .766-2.523.003-2.364-.128 1-.824zm31.578-1.359c-.043-1.054.193-1.645.525-1.312.333.332.368 1.194.08 1.916-.32.798-.557.561-.605-.604zm-88.329-.324c4.506-.256 6.25-.743 6.25-1.748 0-.766.338-1.602.75-1.857.413-.255.75.619.75 1.941 0 2.329-.22 2.399-7 2.212l-7-.193zm106.5-2.76c-.011-2.2.185-3.217.435-2.26.25.955.26 2.755.02 4-.239 1.243-.444.46-.455-1.74zm-12.586 1.834c-1.24-1.24-.676-2.394 1.583-3.24 1.69-.634 2.406-.439 2.875.781.344.894.43 1.963.191 2.376-.537.93-3.745.987-4.649.083zm3.333-1.333c0-.55-.423-1-.94-1s-1.22.45-1.56 1 .084 1 .941 1c.858 0 1.56-.45 1.56-1zm-80-1.941c0-2.636-1.735-3.517-3.735-1.895-1.176.952-1.433.977-.898.086.918-1.527.185-1.58-2.682-.195-2.11 1.02-2.119 1.002-.244-.5 1.068-.855 2.756-1.555 3.75-1.555.995 0 1.81-.468 1.81-1.04 0-.629.513-.56 1.3.176 1.256 1.174 2.264 6.864 1.215 6.864-.283 0-.516-.874-.516-1.941zm16.525.56c-1.46-3.275 5.08-12.619 8.833-12.619.598 0-.025.765-1.385 1.7-3.538 2.433-5.39 5.281-6.04 9.298-.472 2.905-.712 3.181-1.408 1.622zm-7.525-.668c0-.576-1.462-1.683-3.25-2.46s-2.562-1.43-1.722-1.452c.84-.022 2.496.639 3.68 1.468 2 1.402 2.182 1.349 2.586-.75.316-1.641.471-1.37.57.993.075 1.787-.314 3.25-.864 3.25s-1-.472-1-1.049zm38.285-3.396c2.542-2.506 5.229-4.555 5.972-4.555s2.877-1.575 4.743-3.5 3.789-3.5 4.273-3.5c.484 0-.523 1.18-2.238 2.624-1.716 1.443-2.862 2.882-2.546 3.197.315.315-1.354 1.28-3.708 2.144-2.41.884-4.7 2.517-5.24 3.737-.527 1.192-2.065 2.671-3.417 3.287-1.755.8-1.136-.183 2.162-3.435zm22.794 3.028c-.043-1.054.193-1.645.526-1.312.332.332.368 1.194.079 1.916-.32.798-.557.561-.605-.604zM90.12 17.421c.688-.277 1.813-.277 2.5 0 .688.278.125.505-1.25.505s-1.937-.227-1.25-.505zm26 0c.688-.277 1.813-.277 2.5 0 .688.278.125.505-1.25.505s-1.937-.227-1.25-.505zm-8.29-1.404c-.363-.586-.445-1.28-.183-1.543.262-.262.743.218 1.069 1.067.676 1.762.1 2.072-.887.476zm8.367-1.649c1.55-.295 2.138-.934 1.761-1.916-.317-.827-.131-1.204.424-.861 2.124 1.312.98 3.492-1.761 3.357-2.47-.123-2.513-.182-.424-.58zm8.941-1.284c-.686-1.1-1.622-2-2.08-2-.456 0-1.506-.676-2.331-1.501-.924-.923-2.531-1.302-4.179-.985-2.208.426-2.327.357-.677-.394 1.916-.872 1.895-.953-.5-1.952-1.375-.573-1.916-1.07-1.2-1.105 3.072-.15 10.512 4.785 12.327 8.176 1.297 2.423.18 2.227-1.36-.24zm-74.764.618c-.002-.485.883-2.317 1.967-4.07 1.794-2.903 1.834-3.383.443-5.368-.965-1.378-2.581-2.18-4.393-2.18-3.158 0-8.707 4.095-10.051 7.418-.619 1.53-.86 1.649-.906.448-.035-.898 1.738-3.26 3.94-5.25C46 .52 50.24-.045 53.387 3.1c1.873 1.874 2.226 1.91 4.95.5 1.614-.833 5.127-1.516 7.809-1.516 4.023 0 5.299.47 7.3 2.688L75.87 7.46l-2.885-2.188c-4.304-3.264-11.465-3.027-15.679.52-1.77 1.488-4.052 4.076-5.073 5.75-1.02 1.673-1.857 2.645-1.86 2.16zm20.625-3.142c-.321-.838-1.607-1.935-2.857-2.437-1.61-.647-1.783-.93-.593-.976 1.785-.067 4.821 2.457 4.821 4.008 0 1.419-.717 1.107-1.37-.595zm4.53-.476c0-1.375.226-1.938.504-1.25.277.687.277 1.812 0 2.5-.278.687-.505.125-.505-1.25zm34.112-.604c.332-.333 1.195-.368 1.917-.08.798.32.56.557-.604.605-1.054.043-1.645-.193-1.313-.525zm-4.032-5.083c.956-.25 2.756-.26 4-.02 1.244.239.461.444-1.739.455-2.2.01-3.217-.185-2.261-.435z"/><path fill="#2d2f2b" d="M17.373 83.585v-6.5h3.929c3.98 0 7.071 1.966 7.071 4.5 0 2.144-2.916 4.5-5.571 4.5-1.762 0-2.429.549-2.429 2 0 1.11-.666 2-1.5 2-1.18 0-1.5-1.39-1.5-6.5zm7.5-2c0-1.313-.773-2.11-2.25-2.32-1.846-.262-2.25.155-2.25 2.32s.405 2.581 2.25 2.32c1.477-.21 2.25-1.008 2.25-2.32zm6.5 6.5c-2.557-2.557-2.557-6.443 0-9 1.1-1.1 3.125-2 4.5-2 5.581 0 8.461 7.039 4.5 11-1.1 1.1-3.125 2-4.5 2s-3.4-.9-4.5-2zm7.571-2.428c.954-3.8-.361-6.572-3.12-6.572-2.691 0-4.118 3.322-2.974 6.927.97 3.054 5.302 2.8 6.094-.355zm6.68 3.765c-2.545-1.026-1.138-1.923 2.374-1.513 4.391.513 4.296-1.374-.194-3.862-3.63-2.012-4.224-4.468-1.44-5.958 2.453-1.312 6.193-.991 6.708.576.222.676-.78.914-2.672.637-4.232-.621-4.054 2.199.216 3.423 1.932.554 3.391 1.698 3.609 2.829.628 3.26-4.45 5.544-8.602 3.868zm13.75-4.837c0-4.834-.243-5.5-2-5.5-1.1 0-2-.45-2-1s2.474-1 5.5-1 5.5.45 5.5 1-.9 1-2 1c-1.758 0-2 .666-2 5.5 0 4.222-.35 5.5-1.5 5.5s-1.5-1.278-1.5-5.5zm10-1v-6.5h4.5c2.474 0 4.5.45 4.5 1s-1.35 1-3 1c-2 0-3 .5-3 1.5s1 1.5 3 1.5c1.65 0 3 .45 3 1s-1.35 1-3 1c-2.667 0-3 .333-3 3 0 2-.5 3-1.5 3-1.18 0-1.5-1.39-1.5-6.5zm12 0c0-5.112.32-6.5 1.5-6.5s1.5 1.388 1.5 6.5-.321 6.5-1.5 6.5-1.5-1.39-1.5-6.5zm6 5.964c0-.294.738-1.662 1.641-3.04 1.423-2.173 1.46-2.867.282-5.215a556.006 556.006 0 0 1-1.725-3.46c-.895-1.836 2.463-.52 3.692 1.447l1.372 2.197 1.779-2.197c1.618-1.997 3.958-2.98 3.958-1.661 0 .294-.739 1.662-1.642 3.04-1.423 2.173-1.46 2.867-.282 5.215.748 1.49 1.524 3.047 1.725 3.46.895 1.836-2.463.52-3.692-1.447L93.11 85.69l-1.779 2.197c-1.617 1.997-3.958 2.98-3.958 1.661zm-49.75-15.214c11.411-.16 30.087-.16 41.5 0s2.074.292-20.75.292-32.163-.131-20.75-.292zm-13.179-9.339c-2.435-.477-4.91-1.356-5.5-1.953-.77-.78-.28-.785 1.744-.022 3.842 1.451 5.992 1.371 5.032-.187-.444-.721.289-.558 1.733.387 1.377.9 3.384 1.86 4.461 2.134 3.492.887-2.614.594-7.47-.359zm10.2.484c.331-.332 1.194-.368 1.916-.079.798.32.56.556-.604.604-1.054.044-1.645-.193-1.313-.525zm-20.772-6.396c-1.58-1.65-2.649-3-2.374-3 .275 0 1.793 1.35 3.374 3s2.65 3 2.374 3-1.793-1.35-3.374-3zm53.071 1.114c-.3-.487-3.543-.645-7.205-.351-7.252.582-12.78-1.339-13.886-4.827-.997-3.141-4.571-6.936-6.533-6.936-1.247 0-2.147.95-2.597 2.74-.696 2.776-3.35 6.253-3.35 4.39 0-.556.472-1.303 1.049-1.66 1.452-.897-.91-3.652-2.412-2.812-.625.35-.518.007.238-.761 1.154-1.172 1.455-1.178 1.872-.033.35.962 1.17.52 2.775-1.494 2.188-2.743 2.358-2.788 4.208-1.115 2.65 2.399 3.996 2.205 1.77-.255-2.228-2.462-4.21-2.533-6.921-.25-2.077 1.748-2.077 1.748-.174-.5 2.203-2.602 4.812-2.898 6.595-.75 1.644 1.98 2.756 1.896 3.285-.25.237-.962.418.635.401 3.55-.022 4.046.458 5.789 2.03 7.36 2.252 2.252 9.457 3.515 13.812 2.422 2.327-.584 2.486-.87 1.31-2.363-.736-.934.159-.465 1.988 1.042 3.772 3.105 4.279 3.23 6.033 1.489 1.01-1.002 1.127-.903.593.5-.695 1.826-3.933 2.399-4.882.864zm23.7-.718c.332-.332 1.195-.368 1.917-.079.798.32.56.556-.604.604-1.054.044-1.645-.193-1.313-.525zm-24.594-3.2c-1.807-1.997-2.265-3.677-.746-2.738 1.294.8 2.383-1.254 3.159-5.958l.66-4 .125 3.905.125 3.905 4.5-3.81-1.862 2.203c-1.84 2.177-1.832 2.21.75 2.858 2.857.717 3.492 2.888 1.112 3.8-1.053.405-1.504-.084-1.514-1.642-.015-2.185-.034-2.181-1.25.202-1.625 3.185-3.013 3.535-5.059 1.275zm3.829-.205c.343-.555.32-1.964-.05-3.132-.53-1.669-.862-1.827-1.55-.74-1.165 1.84-1.144 4.881.035 4.881.518 0 1.222-.454 1.565-1.009zm12.994.14c-3.152-1.956-7.929-7.035-7.253-7.712.218-.217 2.724 1.85 5.57 4.593 2.847 2.744 5.065 4.987 4.93 4.985-.136-.002-1.597-.842-3.247-1.866zm-53.164-1.964c-.906-1.451-.852-1.833.26-1.833.772 0 1.404.825 1.404 1.833s-.117 1.833-.26 1.833-.775-.825-1.404-1.833zM9.504 50.534c-.236-5.468 3.917-7.23 7.545-3.2 3.426 3.806 3.88 5.458.529 1.922-3.958-4.176-6.487-3.886-7.324.84-.616 3.472-.62 3.474-.75.438zm81.517-1.161c.96-1.534 1.857-2.952 1.994-3.152.137-.2.182.537.099 1.637-.083 1.1-.98 2.518-1.995 3.152-1.778 1.11-1.781 1.051-.098-1.637zm-64.2.63c-.367-.594-2.08-1.943-3.808-2.996-1.728-1.054-2.586-1.917-1.907-1.92 1.28-.003 8.298 5.916 7.075 5.968-.38.016-.992-.457-1.36-1.052zm69.322-.296c-1.606-1.22-1.54-1.485.92-3.718l2.648-2.405-1.64 2.432c-1.214 1.798-1.357 2.775-.548 3.75 1.377 1.659.852 1.637-1.38-.059zM73.45 43.393c-.044-2.305.277-4.41.712-4.68.435-.269.627 1.167.427 3.191-.546 5.534-1.05 6.193-1.14 1.49zm7 2.274c-.044-1.054.193-1.644.525-1.312.332.332.368 1.195.079 1.917-.32.797-.556.56-.604-.605zm-34.08-6.179c0-3.706-2.637-9.323-4.465-9.51-.569-.058-2.16-.126-3.534-.15-2.27-.04-2.295-.083-.266-.46 1.23-.227 3.668-2.41 5.42-4.849 3.357-4.675 4.155-5.405 3.206-2.933-.317.827.27 2.29 1.303 3.25 1.033.962 1.442 1.41.908.998-1.533-1.184-2.76-.874-1.984.5.565 1 .437 1-.64 0-1.91-1.772-3.446-1.555-1.928.273 1.056 1.273.995 1.42-.378.893-2.22-.852-2.075-.144.859 4.18 1.598 2.355 2.5 5.075 2.5 7.544 0 2.123-.225 3.86-.5 3.86s-.5-1.618-.5-3.596zm20.608 1.168c-.348-1.387-2.518-4.333-4.822-6.547s-3.91-4.025-3.569-4.025 1.444-.267 2.452-.594c1.442-.468 1.528-.38.406.417-1.167.828-.873 1.476 1.62 3.574 2.972 2.5 6.088 8.154 5.06 9.182-.283.283-.8-.62-1.147-2.007zm25.393 1.642c-3.504-.416-6.984-2.314-8.113-4.424-1.293-2.417-.4-2.256 2.045.368 1.792 1.924 2.079 1.976 2.65.487.353-.919.086-2.34-.593-3.158-1.006-1.212-.934-1.487.388-1.487 2.082 0 2.05-.854-.127-3.343-.963-1.1-1.188-1.672-.5-1.27 1.616.945 1.616-.593 0-2.334-1.005-1.082-.993-1.2.061-.602.722.409 1.733 1.852 2.248 3.206.515 1.355 1.357 2.204 1.87 1.887.513-.317 1.183-.17 1.49.326s-.337 1.137-1.43 1.423c-1.154.302-1.99 1.365-1.99 2.532 0 1.106-.273 2.723-.606 3.593-.492 1.282.16 1.582 3.44 1.582 2.227 0 4.267.354 4.534.786.503.814-1.07.94-5.367.428zm-13.04-4.214c-.108-.825-.132-1.87-.053-2.324.078-.454-.287-.559-.813-.234s-1.2.195-1.499-.288c-.47-.76.92-.836 4.905-.266.603.086.563.435-.1.877-.605.405-1.357 1.41-1.67 2.235-.508 1.333-.594 1.333-.77 0zm32.04-1.936c4.125-.348 8.175-1.037 9-1.53 2.752-1.644 5.965-5.02 5.982-6.284.01-.687.484-1.25 1.053-1.25 1.413 0-.227 2.917-3.194 5.684-3.456 3.222-7.235 4.334-14.157 4.165l-6.184-.15zm-95.25-.726c.687-.278 1.812-.278 2.5 0 .687.277.125.504-1.25.504s-1.938-.227-1.25-.504zm-5.98-1.407c-2.84-1.655-6.77-9.316-6.77-13.197 0-3.28 2.008-6.734 3.916-6.734 1.515 0 4.195 3.82 5.179 7.382.55 1.99 1.445 3.618 1.991 3.618.999 0-.077 1.566-3.367 4.9-1.858 1.885-1.233 3.086 2.28 4.387 1.334.494 1.334.56 0 .604-.824.027-2.278-.405-3.23-.96zM8.184 21.91c-.358-3.631-2.348-4.869-3.251-2.023-.8 2.523.284 5.196 2.108 5.196 1.035 0 1.366-.918 1.143-3.173zm16.687 11.293c8.672-3.148 9.125-3.221 4-.652-2.75 1.378-5.9 2.497-7 2.486-1.1-.01.25-.836 3-1.834zm21.682-1.62c-.626-1.375-.975-2.5-.775-2.5s1.1 1.125 2.001 2.5 1.25 2.5.776 2.5-1.375-1.125-2.002-2.5zm4.55.42c.353-1.353.806-1.806 1.056-1.057.24.722-.038 1.787-.62 2.368-.741.742-.872.352-.437-1.311zm44.351 1.715c.23-.2 1.42-.886 2.645-1.523 1.872-.974 2.134-.915 1.643.365-.322.837-1.512 1.523-2.645 1.523-1.132 0-1.872-.164-1.643-.365zm21.167-1.325c.963-.251 2.538-.251 3.5 0 .963.252.175.458-1.75.458s-2.712-.206-1.75-.458zm-40.25-2.251c0-.583.45-1.06 1-1.06 1.282 0 1.282.709 0 1.5-.55.34-1 .142-1-.44zm41.38-.604c.255-.666-.155-1.83-.772-2.448-.83-.829-.942-1.236-.108-1.236.62 0 1.96.831 2.697 1.568s2.006 1.566 2.821 1.842c.815.276 0 .724-1.81.994-2.32.346-3.156.133-2.829-.72zM53.977 27.2c-1.648-1.822-1.559-1.866 2.786-1.377 2.469.279 5.633.22 7.03-.131 3.446-.865 9.574-6.394 11.184-10.09.724-1.66 1.333-2.319 1.355-1.463.047 1.883-4.33 7.995-6.731 9.398-1.457.851-1.178 1.111 1.77 1.647l3.5.636-4 .143c-2.2.08-6.475.808-9.5 1.62s-5.543 1.482-5.595 1.488c-.052.007-.862-.835-1.799-1.87zm9.665 1.279c.332-.333 1.195-.368 1.917-.08.797.32.56.557-.604.605-1.055.043-1.645-.193-1.313-.525zm9 0c.332-.333 1.195-.368 1.917-.08.797.32.56.557-.604.605-1.055.043-1.645-.193-1.313-.525zm-40.398-2.146c-1.27-1.619-1.223-1.64.628-.283 1.1.807 2.187 1.594 2.416 1.75.23.155-.053.283-.627.283s-1.662-.788-2.417-1.75zm4.438-1.551c-.058-1.21.11-1.634.377-.943.266.691.895 1.002 1.398.691 1.374-.849 1.1.154-.377 1.38-.985.817-1.316.55-1.398-1.128zm42.19 1.243c5.065-1.047 9.158-1 5 .058-1.65.42-4.35.765-6 .766-2.523.003-2.364-.128 1-.824zm31.578-1.359c-.043-1.054.193-1.645.526-1.312.332.332.367 1.194.079 1.916-.32.798-.557.561-.605-.604zm-88.329-.324c4.507-.256 6.25-.743 6.25-1.748 0-.766.338-1.602.75-1.857.413-.255.75.619.75 1.941 0 2.329-.22 2.399-7 2.212l-7-.193zm106.5-2.76c-.01-2.2.185-3.217.435-2.26.25.955.26 2.755.02 4-.239 1.243-.444.46-.455-1.74zm-12.586 1.834c-1.24-1.24-.676-2.394 1.584-3.24 1.689-.634 2.405-.439 2.875.781.343.894.43 1.963.19 2.376-.537.93-3.745.987-4.649.083zm3.334-1.333c0-.55-.424-1-.941-1s-1.22.45-1.56 1 .084 1 .942 1c.857 0 1.559-.45 1.559-1zm-80-1.941c0-2.636-1.736-3.517-3.736-1.895-1.175.952-1.433.977-.897.086.917-1.527.185-1.58-2.683-.195-2.11 1.02-2.118 1.002-.243-.5 1.067-.855 2.755-1.555 3.75-1.555.995 0 1.809-.468 1.809-1.04 0-.629.513-.56 1.3.176 1.257 1.174 2.264 6.864 1.216 6.864-.284 0-.516-.874-.516-1.941zm16.525.56c-1.462-3.275 5.078-12.619 8.832-12.619.598 0-.025.765-1.385 1.7-3.538 2.433-5.389 5.281-6.04 9.298-.471 2.905-.712 3.181-1.407 1.622zm-7.525-.667c0-.577-1.463-1.684-3.25-2.461s-2.563-1.43-1.723-1.452c.84-.022 2.496.64 3.68 1.468 2 1.402 2.182 1.349 2.586-.75.316-1.641.472-1.37.57.993.076 1.787-.313 3.25-.863 3.25s-1-.472-1-1.049zm38.285-3.397c2.54-2.506 5.228-4.555 5.971-4.555s2.878-1.575 4.743-3.5 3.79-3.5 4.273-3.5c.485 0-.523 1.18-2.238 2.624-1.715 1.444-2.861 2.882-2.546 3.197.315.315-1.354 1.28-3.708 2.144-2.41.884-4.7 2.517-5.24 3.737-.527 1.192-2.065 2.671-3.417 3.287-1.755.8-1.136-.183 2.162-3.434zm22.794 3.028c-.044-1.054.193-1.645.525-1.312.332.332.368 1.194.079 1.916-.32.798-.556.561-.604-.604zm-19.33-2.245c.688-.278 1.813-.278 2.5 0 .688.277.126.504-1.25.504s-1.937-.227-1.25-.504zm26 0c.688-.278 1.813-.278 2.5 0 .688.277.126.504-1.25.504s-1.937-.227-1.25-.504zm-8.29-1.405c-.363-.586-.445-1.28-.183-1.543.262-.262.743.218 1.069 1.067.676 1.762.1 2.072-.886.476zm8.367-1.649c1.55-.295 2.138-.934 1.762-1.916-.318-.827-.132-1.204.423-.861 2.124 1.312.98 3.492-1.761 3.357-2.47-.123-2.513-.182-.424-.58zm8.942-1.284c-.687-1.1-1.623-2-2.08-2-.457 0-1.506-.675-2.332-1.501-.923-.923-2.53-1.302-4.179-.985-2.208.426-2.327.357-.677-.394 1.917-.872 1.896-.953-.5-1.952-1.375-.573-1.915-1.07-1.2-1.105 3.072-.15 10.513 4.785 12.328 8.176 1.297 2.423.18 2.227-1.36-.24zm-74.764.618c-.002-.485.883-2.317 1.966-4.07 1.794-2.903 1.834-3.383.444-5.368-.966-1.378-2.582-2.18-4.394-2.18-3.158 0-8.707 4.095-10.05 7.418-.62 1.53-.86 1.649-.906.448-.035-.898 1.738-3.26 3.94-5.25C46 .52 50.24-.045 53.386 3.1c1.873 1.874 2.227 1.91 4.95.5 1.614-.833 5.128-1.516 7.81-1.516 4.022 0 5.298.47 7.299 2.688L75.87 7.46l-2.885-2.188c-4.303-3.264-11.465-3.027-15.679.52-1.77 1.488-4.052 4.076-5.073 5.75-1.02 1.673-1.857 2.645-1.859 2.16zm20.625-3.142c-.322-.838-1.608-1.935-2.857-2.437-1.611-.647-1.784-.93-.594-.976 1.785-.067 4.822 2.457 4.822 4.008 0 1.419-.718 1.107-1.371-.595zm4.528-.476c0-1.375.227-1.938.505-1.25.277.687.277 1.812 0 2.5-.278.687-.505.125-.505-1.25zm34.113-.604c.333-.333 1.195-.368 1.917-.08.798.32.561.557-.604.605-1.054.043-1.645-.193-1.312-.525zm-4.032-5.083c.956-.25 2.756-.26 4-.02 1.244.239.462.444-1.738.455-2.2.01-3.218-.185-2.262-.435z"/><path fill="#060705" d="M17.373 83.585v-6.5h3.5c4.631 0 8.015 3.17 6.469 6.058-.593 1.107-2.403 2.278-4.023 2.602-2.004.401-2.946 1.189-2.946 2.465 0 1.03-.675 1.875-1.5 1.875-1.18 0-1.5-1.39-1.5-6.5zm8-2c0-2-.5-2.5-2.5-2.5s-2.5.5-2.5 2.5.5 2.5 2.5 2.5 2.5-.5 2.5-2.5zm6.455 6.045c-1.35-1.35-2.455-3.17-2.455-4.045 0-2.06 4.441-6.5 6.5-6.5s6.5 4.44 6.5 6.5c0 .875-1.104 2.695-2.454 4.045s-3.17 2.455-4.046 2.455-2.695-1.105-4.045-2.455zm7.045-4.045c0-3.778-.166-4-3-4-2.551 0-3.048.423-3.324 2.834-.5 4.37.456 5.84 3.568 5.483 2.496-.288 2.756-.695 2.756-4.317zm7 5.52c-1.62-.713-1.289-.893 1.75-.95 4.368-.082 5.276-2.65 1.291-3.65-3.1-.778-4.748-2.717-3.989-4.695.761-1.984 4.068-2.821 6.795-1.72 1.887.76 1.75.876-1.097.931-4.214.082-4.245 2.256-.06 4.133 1.756.787 3.323 1.88 3.485 2.43.838 2.86-4.477 5.15-8.175 3.522zm13.5-4.52c0-4.834-.242-5.5-2-5.5-1.1 0-2-.45-2-1s2.475-1 5.5-1 5.5.45 5.5 1-.9 1-2 1c-1.757 0-2 .666-2 5.5 0 4.222-.348 5.5-1.5 5.5s-1.5-1.278-1.5-5.5zm10-1v-6.5h4.5c2.475 0 4.5.45 4.5 1s-1.35 1-3 1c-2 0-3 .5-3 1.5s1 1.5 3 1.5c1.65 0 3 .45 3 1s-1.35 1-3 1c-2.667 0-3 .333-3 3 0 2-.5 3-1.5 3-1.18 0-1.5-1.39-1.5-6.5zm12 0c0-5.112.32-6.5 1.5-6.5s1.5 1.388 1.5 6.5-.32 6.5-1.5 6.5-1.5-1.39-1.5-6.5zm6.022 5.75c.013-.413.883-1.87 1.935-3.239 1.886-2.455 1.884-2.532-.104-5.75-1.478-2.392-1.658-3.261-.675-3.261.738 0 1.958.988 2.713 2.196l1.372 2.197 1.779-2.197c2.803-3.461 4.462-2.681 2.13 1.002l-2.026 3.198 2.036 2.86c2.45 3.44 1.415 5.192-1.178 1.994-2.246-2.77-3.168-2.818-4.772-.25-1.22 1.952-3.254 2.745-3.21 1.25zm-49.772-15c11.412-.16 30.088-.16 41.5 0s2.075.292-20.75.292-32.162-.131-20.75-.291zm-13-9.94c.963-.252 2.538-.252 3.5 0 .963.252.175.457-1.75.457s-2.712-.205-1.75-.457zm40.75-4.894c-1.375-.763-2.107-1.394-1.627-1.402.48-.008.272-.802-.462-1.765-.734-.962-.001-.568 1.628.876 1.629 1.443 3.636 2.87 4.461 3.17 1.334.486 1.334.544 0 .527-.825-.01-2.625-.643-4-1.406zm-12.729-.02c.333-.333 1.195-.369 1.917-.08.798.32.56.556-.604.604-1.054.044-1.645-.193-1.313-.525zm-4.865-2.647-1.905-2.25 2.5 1.99c1.375 1.094 2.687 2.106 2.916 2.25.23.143-.038.26-.595.26-.556 0-1.869-1.012-2.916-2.25zm-17.841-2.457c-.543-1.425-.428-1.54.56-.56.683.679.99 1.486.682 1.794-.308.308-.867-.247-1.242-1.234zm4.815-1.672c.126-.86.508-1.842.85-2.183.341-.342.517.082.39.942-.125.86-.508 1.842-.85 2.183-.34.341-.516-.083-.39-.942zm35.278-.07c-.371-.966-.076-1.265.887-.895.794.305 1.194.957.89 1.45-.766 1.24-1.133 1.125-1.777-.555zm-25.643-2.634c.008-1.33.457-3.092.998-3.917.692-1.055.793-.462.341 2-.791 4.313-1.36 5.126-1.34 1.917zm24.064-2.333c-.044-1.055.193-1.645.525-1.313.332.332.368 1.195.079 1.917-.32.798-.556.56-.604-.604zm-56.33-2.246c.688-.277 1.813-.277 2.5 0 .688.277.126.504-1.25.504s-1.937-.227-1.25-.504zm72.815-7.045c-.543-1.425-.428-1.54.56-.56.683.679.99 1.486.682 1.794-.308.308-.867-.247-1.242-1.234zm-5.486-.71c-.043-1.054.193-1.644.526-1.312.332.332.367 1.195.079 1.917-.32.798-.557.56-.605-.604zm10-2c-.043-1.054.193-1.644.526-1.312.332.332.367 1.195.079 1.917-.32.798-.557.56-.605-.604zm27.192-3.187c.333-.332 1.195-.368 1.917-.079.798.32.56.556-.604.604-1.054.044-1.645-.193-1.313-.525zM6.563 29.354c-2.545-3.575-2.765-4.704-.765-3.936 1.946.746 3.798-1.72 3.4-4.529-.507-3.574-4.145-3.063-4.948.695l-.642 3-.118-2.815c-.3-7.128 4.862-9.143 7.519-2.935.883 2.063 1.919 4.396 2.302 5.186.851 1.753-.996 6.046-2.606 6.056-.642.005-1.343.537-1.558 1.182-.215.646-1.378-.211-2.583-1.904zm116.81 2.337c0-.216.699-.66 1.552-.988.89-.342 1.292-.174.941.393-.587.95-2.493 1.405-2.493.595zm-4.675-2.265c.362-.362-.244-1.26-.927-2.135-.881-.651-.623-1.293.852-.334 2.006 1.572 5.271 3.127 3.56 3.127-.643 0-3.847-.296-3.485-.658zm-77.082-1.854c1.456-1.589 1.95-1.68 3-.548 1.012 1.09 1.005 1.211-.037.62-.711-.402-2.061-.155-3 .55-1.536 1.153-1.532 1.091.037-.622zm18.334-.455c.592-.597 3.517-1.284 6.5-1.526l5.423-.44-4.85.898c-2.667.494-5.592 1.18-6.5 1.526-1.183.45-1.345.32-.573-.458zm-14.838-1.433c-1.572-1.193-1.596-1.473-.227-2.61 1.301-1.08 1.429-.998.841.533-.424 1.104-.303 1.565.31 1.185.552-.34 1.004.036 1.004.836 0 .801-.038 1.442-.083 1.425-.046-.018-.876-.634-1.845-1.369zm70.72-2.666c-.362-.587-.389-1.337-.059-1.667.33-.33.6-.023.6.683 0 .791.768 1.083 2.002.76 1.1-.288 1.749-.115 1.44.384-.766 1.24-3.178 1.143-3.983-.16zM56.07 20.69c-.41-1.041-.508-2.129-.22-2.417.912-.912 1.714.583 1.332 2.482-.35 1.74-.404 1.737-1.112-.065zm-6.502-2.107c-.02-1.65.187-2.446.461-1.769.274.677.29 2.027.037 3-.253.973-.478.42-.498-1.23zm-14.195-1.486c0-1.175 2.848-2.068 3.457-1.084.286.464-.374 1.077-1.468 1.363s-1.989.16-1.989-.28zm81.271.382c.332-.332 1.195-.368 1.917-.079.798.32.56.556-.604.604-1.055.044-1.645-.193-1.313-.525zm-1.27-2.78c0-.21.9-.618 2-.905s2-.116 2 .383c0 .498-.9.906-2 .906s-2-.172-2-.383zm-20-3.557c0-.517.444-1.216.988-1.552.567-.35.734.051.393.941-.665 1.733-1.382 2.05-1.382.611zm21.506-4.047c-.35-.567.051-.735.941-.393 1.733.665 2.05 1.381.611 1.381-.517 0-1.216-.445-1.552-.988zM53.937 5.377c-.542-1.425-.428-1.54.56-.56.684.679.99 1.486.683 1.794s-.867-.247-1.243-1.234z"/></svg>