<?xml version="1.0" encoding="UTF-8"?>
<svg xmlns="http://www.w3.org/2000/svg" version="1.1" xmlns:inkscape="http://www.inkscape.org/namespaces/inkscape" xmlns:sodipodi="http://sodipodi.sourceforge.net/DTD/sodipodi-0.dtd" xmlns:svg="http://www.w3.org/2000/svg" viewBox="0 0 316 300">
  <!-- Generator: Adobe Illustrator 29.1.0, SVG Export Plug-In . SVG Version: 2.1.0 Build 142)  -->
  <g id="svg1" inkscape:version="1.4 (86a8ad7, 2024-10-11)">
    <sodipodi:namedview id="namedview1" bordercolor="#000000" borderopacity="0.25" pagecolor="#ffffff"/>
    <g id="layer1">
      <g id="g1">
        <path id="path1" d="M301.1,68.8c0,40-19,69.1-19.8,70.3-1.6,2.4-4.4,3.7-7.3,3.7s-3-.4-4.4-1.1c-4-2.2-5.3-7-2.9-10.7.2-.3,17.3-26.7,17.3-62.2s-14.3-34.9-34-34.9-34,14-34,31.3,3.9,26,5.4,32.6c1,4.2-2,8.4-6.6,9.3-4.6.9-9.1-1.8-10-6.1-.6-2.6-5.7-25.5-5.7-35.8,0-25.9,22.9-46.9,51-46.9s51,21.7,51,50.5h0ZM251.5,81.1c3.4,26,8.3,76.6,2.6,81.7l-123.5,113.6c-7.6,7-19.9,7-27.5,0L20.6,200.5c-7.6-7-7.6-18.3,0-25.3l123.5-113.5c2-1.8,23.3-1.9,47.3-.7-.1,1.5-.5,2.8-.5,4.3,0,5.7,1.4,14.4,2.8,22.2-2.5,3.4-4,7.6-4,12,0,11.9,10.5,21.5,23.4,21.5s23.4-9.6,23.4-21.5-4-13.7-10-17.6c-1.2-6.8-2.2-13.4-2.2-16.6s.2-1.3.2-2c3,.3,5.9.6,8.6.9,16.3,1.8,16.5,1.8,18.5,17h0ZM185.7,166.1c-1.9-4.9-5.1-10.8-12-17.5l9.4-8.6-10.4-9.6-10.1,9.3c-13.5-8.5-27.5-7.8-37,.9-10.3,9.5-7.9,21.5-.3,35.6,5.2,9.7,6.2,15.3,2.1,19-4.2,3.8-10.9,2.2-16.9-3.4-6.9-6.4-11-14.2-13-20.6l-15.7,8.5c1.8,5.8,6.7,14,13.6,20.8l-10.2,9.4,10.4,9.6,11-10.1c14.5,9.4,29.1,8.1,38.6-.6,9.7-8.9,10.5-18.9,2.2-34.8-5.8-11.4-7.1-17-3.7-20.1,3-2.8,8.3-3.5,15.2,2.8,7.7,7.1,10.2,13.9,11.6,17.5l15.2-8.1Z"/>
      </g>
    </g>
  </g>
</svg>