<svg xmlns="http://www.w3.org/2000/svg" viewBox="0 0 48 48"><path fill="#fff" d="M13.794 8.023c-2.208 0-3.597.562-4.18 1.687-.292.583-.485 1.104-.568 1.562-.042.458-.063 1.172-.063 2.13v34.596H19.67V37.206c1.541 1.916 4.022 2.875 7.438 2.875 3.416 0 6.622-1.603 9.62-4.81 3.042-3.208 4.563-6.935 4.563-11.184s-1.521-7.984-4.562-11.192c-3.041-3.207-6.268-4.81-9.684-4.81-3.374 0-5.854 1.082-7.437 3.248-.125-1.083-.585-1.89-1.376-2.432-.75-.583-2.23-.878-4.438-.879zm11.379 10.749c1.624 0 2.932.561 3.932 1.686 1 1.083 1.5 2.318 1.5 3.692 0 1.375-.542 2.6-1.625 3.684-1.041 1.083-2.337 1.624-3.878 1.624-1.5 0-2.746-.541-3.746-1.624-.958-1.125-1.438-2.35-1.438-3.684 0-1.333.48-2.567 1.438-3.692s2.234-1.686 3.817-1.686z"/><path fill="#2e4153" d="M.002 0v48h8.982V13.402c0-.958.02-1.672.062-2.13.083-.459.276-.98.568-1.563.583-1.124 1.972-1.686 4.18-1.686 2.208 0 3.688.295 4.438.879.792.541 1.25 1.349 1.376 2.432 1.583-2.167 4.063-3.249 7.438-3.249 3.416 0 6.642 1.603 9.683 4.81 3.041 3.208 4.562 6.944 4.562 11.193s-1.521 7.976-4.562 11.183c-3 3.208-6.205 4.81-9.621 4.81-3.416 0-5.897-.959-7.438-2.875V48h28.331V0H9.065zm25.17 18.772c-1.582 0-2.858.561-3.816 1.686-.958 1.125-1.438 2.36-1.438 3.692 0 1.333.48 2.559 1.438 3.684 1 1.083 2.246 1.624 3.746 1.624 1.541 0 2.837-.541 3.878-1.624 1.083-1.083 1.625-2.309 1.625-3.684 0-1.374-.5-2.609-1.5-3.692-1-1.125-2.308-1.686-3.932-1.686z"/></svg>