<svg xmlns="http://www.w3.org/2000/svg" viewBox="0 0 48 48"><defs><radialGradient id="privatebin_svg__a" cx="261.81" cy="238.72" r="307.34" gradientTransform="scale(.95488 1.0472)" gradientUnits="userSpaceOnUse"><stop offset="0" stop-color="#ffab00"/><stop offset=".206" stop-color="orange"/><stop offset=".247" stop-color="#ffab00"/><stop offset="1" stop-color="#f80"/></radialGradient><filter id="privatebin_svg__b" width="1.077" height="1.071" x="-.038" y="-.035" color-interpolation-filters="sRGB"><feGaussianBlur result="result1" stdDeviation="3"/><feBlend in="result1" in2="result1" mode="multiply" result="result5"/><feGaussianBlur in="result5" result="result6" stdDeviation="1"/><feComposite in="result6" in2="result5" operator="xor" result="result8"/><feComposite in="result6" in2="result8" operator="xor" result="fbSourceGraphic"/><feSpecularLighting in="fbSourceGraphic" lighting-color="#fff" result="result1" specularConstant="2.2" specularExponent="55" surfaceScale="2"><fePointLight x="-5000" y="-10000" z="20000"/></feSpecularLighting><feComposite in="result1" in2="fbSourceGraphic" operator="in" result="result2"/><feComposite in="fbSourceGraphic" in2="result2" k2="2" k3="1" operator="arithmetic" result="result4"/><feComposite in="result4" in2="result4" operator="in" result="result91"/><feBlend in2="result91" mode="darken"/></filter></defs><path fill="url(#privatebin_svg__a)" stroke="#000" stroke-linecap="round" stroke-linejoin="round" stroke-width="15.68" d="M250.42 3.158 23.3 126.238l-.42 246.84 226.7 123.76 227.12-123.08.42-246.84zm-.711 97.865v.006c3.78 0 7.604.297 11.457.875 41.101 6.166 72.183 40.64 66.384 70.457-5.798 29.816-33.28 55.978-40.085 61.672-6.805 5.695 37.096 164.94 37.096 164.94h-149.12s46.181-156.8 36.486-164.94-41.197-36.872-36.388-68.935c4.81-32.064 37.627-63.975 74.17-64.074z" filter="url(#privatebin_svg__b)" transform="translate(1.297 1.297) scale(.09081)"/></svg>