<svg xmlns="http://www.w3.org/2000/svg" viewBox="0 0 48 48"><defs><linearGradient id="privateinternetaccess_svg__a" x1="122.05" x2="122.14" y1="339.08" y2="359.32" gradientTransform="matrix(1.2291 0 0 .81363 -133.58 -275.31)" gradientUnits="userSpaceOnUse"><stop offset="0" stop-color="#56b14e"/><stop offset=".539" stop-color="#4a9e41"/><stop offset="1" stop-color="#357c2a"/></linearGradient><linearGradient id="privateinternetaccess_svg__b" x1="14.751" x2="14.751" y1="28.587" y2=".324" gradientTransform="matrix(1.0748 0 0 .9304 .5 15.169)" gradientUnits="userSpaceOnUse"><stop offset="0" stop-color="#4a9e41"/><stop offset="1" stop-color="#56b14e"/></linearGradient><linearGradient id="privateinternetaccess_svg__c" x1="6.494" x2="6.23" y1="10.775" y2="2.248" gradientTransform="scale(.77676 1.2874)" gradientUnits="userSpaceOnUse"><stop offset="0" stop-color="#56b14e"/><stop offset=".3" stop-color="#4a9e41"/><stop offset=".355" stop-color="#45973c"/><stop offset=".523" stop-color="#3c8732"/><stop offset=".717" stop-color="#367e2b"/><stop offset="1" stop-color="#357c2a"/></linearGradient><linearGradient id="privateinternetaccess_svg__d" x1="6.494" x2="6.23" y1="10.775" y2="2.248" gradientTransform="scale(.77676 1.2874)" gradientUnits="userSpaceOnUse"><stop offset="0" stop-color="#56b14e" stop-opacity=".153"/><stop offset="1" stop-color="#9bf893" stop-opacity=".263"/></linearGradient></defs><path fill="url(#privateinternetaccess_svg__a)" d="M16.751 0h-.489A12.711 12.711 0 0 0 3.551 12.711v3.411a1.031 1.031 0 0 0 1.031 1.031h2.743a1.031 1.031 0 0 0 1.031-1.031v-3.621a7.959 7.959 0 0 1 7.959-7.959h.384a7.959 7.959 0 0 1 7.959 7.959v3.621a1.031 1.031 0 0 0 1.031 1.031h2.742a1.031 1.031 0 0 0 1.031-1.031v-3.411A12.711 12.711 0 0 0 16.751 0z" data-name="Path 28986" transform="translate(5.58) scale(1.1263)"/><path fill="url(#privateinternetaccess_svg__b)" stroke="rgba(0,0,0,0)" stroke-miterlimit="10" d="M25.8 42.617h-3.564a3.133 3.133 0 0 1-2.8-1.718H12.9a3.133 3.133 0 0 1-2.8 1.718H6.54a3.139 3.139 0 0 1-2.87-1.872A4.289 4.289 0 0 1 .5 36.611V20.314a4.252 4.252 0 0 1 .588-2.168 3.016 3.016 0 0 1 3.005-2.977h5.769a2.971 2.971 0 0 1 2.1.854h8.82a2.964 2.964 0 0 1 2.086-.854h5.775a3.01 3.01 0 0 1 3.006 3.006v.017a4.3 4.3 0 0 1 .559 2.123v16.3a4.275 4.275 0 0 1-3.582 4.227 3.15 3.15 0 0 1-2.826 1.775zm-9.451-21.221a3.644 3.644 0 0 0-.4.021 3.509 3.509 0 0 0-1.565 6.392.532.532 0 0 1 .232.525l-.864 5.85a.557.557 0 0 0 .131.443.546.546 0 0 0 .411.187h4.116a.546.546 0 0 0 .411-.187.557.557 0 0 0 .131-.443l-.864-5.85a.556.556 0 0 1 .231-.532 3.506 3.506 0 0 0-1.971-6.406z" data-name="Subtraction 31" transform="translate(5.58) scale(1.1263)"/><path fill="#56b14e" d="M21.615 11.528a1.624 1.624 0 1 0-1.624 1.624 1.623 1.623 0 0 0 1.624-1.624m6.392-1.623a1.624 1.624 0 1 0 1.623 1.623 1.624 1.624 0 0 0-1.623-1.623m-1.751 4.307a3.372 3.372 0 0 1-4.514 0 .421.421 0 0 0-.571.618 4.129 4.129 0 0 0 5.66 0 .422.422 0 1 0-.574-.618" data-name="Path 28981"/><g stroke="rgba(0,0,0,0)" stroke-miterlimit="10" data-name="Group 37088"><path fill="url(#privateinternetaccess_svg__c)" d="M6.934 16.167H2.821a1.93 1.93 0 0 1-1.9-2.2l.8-5.377A4.876 4.876 0 0 1 4.328.028 4.395 4.395 0 0 1 4.881 0 4.876 4.876 0 0 1 8.04 8.589l.8 5.377a1.922 1.922 0 0 1-1.9 2.2zM4.885 1.37a3.864 3.864 0 0 0-.4.024 3.507 3.507 0 0 0-1.573 6.388.521.521 0 0 1 .231.525l-.863 5.855a.55.55 0 0 0 .542.627h4.112a.557.557 0 0 0 .417-.192.545.545 0 0 0 .125-.435l-.863-5.855a.555.555 0 0 1 .237-.532 3.505 3.505 0 0 0-1.965-6.4z" data-name="Subtraction 32" transform="translate(18.505 22.559) scale(1.1263)"/><path fill="url(#privateinternetaccess_svg__d)" d="M6.934 16.167H2.821a1.93 1.93 0 0 1-1.9-2.2l.8-5.377A4.876 4.876 0 0 1 4.328.028 4.395 4.395 0 0 1 4.881 0 4.876 4.876 0 0 1 8.04 8.589l.8 5.377a1.922 1.922 0 0 1-1.9 2.2zM4.884 1.37a3.848 3.848 0 0 0-.4.024 3.507 3.507 0 0 0-1.572 6.388.523.523 0 0 1 .231.525l-.863 5.855a.546.546 0 0 0 .12.438.556.556 0 0 0 .417.192h4.117a.55.55 0 0 0 .542-.627l-.863-5.858a.547.547 0 0 1 .231-.532 3.5 3.5 0 0 0-1.96-6.4z" data-name="Subtraction 30" transform="translate(18.505 22.556) scale(1.1263)"/></g></svg>