<svg xmlns="http://www.w3.org/2000/svg" viewBox="0 0 48 48"><path d="M24 0C10.746 0 0 10.745 0 24c0 13.254 10.746 24 24 24 13.255 0 24-10.746 24-24C48 10.745 37.254 0 24 0Zm0 44.918c-3.77 0-6.828-2.52-6.828-5.626h13.657c0 3.106-3.058 5.626-6.829 5.626zm11.279-7.489H12.72v-4.09h22.56v4.09zm-.081-6.196H12.785c-.075-.086-.151-.17-.223-.258-2.31-2.803-2.853-4.267-3.381-5.759-.009-.049 2.8.574 4.792 1.022 0 0 1.025.237 2.523.51-1.439-1.686-2.293-3.83-2.293-6.021 0-4.811 3.69-9.015 2.359-12.413 1.295.105 2.681 2.734 2.775 6.845 1.377-1.904 1.953-5.38 1.953-7.51 0-2.207 1.454-4.77 2.909-4.858-1.297 2.136.336 3.968 1.787 8.512.544 1.707.475 4.58.895 6.401.139-3.783.79-9.304 3.19-11.21-1.06 2.4.156 5.404.988 6.848 1.341 2.33 2.154 4.094 2.154 7.432a9.282 9.282 0 0 1-2.22 5.992c1.585-.297 2.68-.566 2.68-.566l5.146-1.004s-.747 3.076-3.621 6.037z" style="fill:#e6522c;fill-opacity:1;stroke-width:.999998"/></svg>