<svg xmlns="http://www.w3.org/2000/svg" width="48" height="48" viewBox="-3.94 -1.44 48 48"><path fill="#e75225" d="M20.107-1.11c13.164.003 23.97 10.672 23.953 23.652-.017 13.176-10.778 23.697-24.228 23.688C6.682 46.22-3.949 35.54-3.94 22.35-3.931 9.45 6.897-1.113 20.107-1.11Zm-7.276 8.307c.301 1.477.008 2.854-.438 4.21-.31.937-.736 1.84-.991 2.792-.42 1.566-.898 3.143-1.072 4.745-.252 2.304.659 4.334 2.218 6.352l-7.165-1.5c.012.225-.001.31.024.383.679 1.983 1.874 3.654 3.213 5.23.142.166.465.252.704.252 7.144.013 14.288.013 21.432.003.222 0 .518-.042.654-.184 1.53-1.6 2.702-3.423 3.434-5.719l-7.585 1.477c.5-.975 1.071-1.832 1.4-2.774 1.123-3.222.657-6.337-.955-9.275-1.293-2.358-2.487-4.705-1.841-7.547-1.366 1.341-1.891 3.049-2.224 4.808-.328 1.733-.521 3.492-.775 5.25-.036-.053-.083-.092-.09-.138a5.398 5.398 0 0 1-.067-.557c-.154-2.88-.72-5.655-1.914-8.305-.703-1.56-1.478-3.155-.754-5.016-.49.257-.933.513-1.251.877-.948 1.09-1.34 2.397-1.442 3.829-.086 1.223-.204 2.452-.432 3.655-.24 1.264-.62 2.504-1.474 3.665-.345-2.481-.384-4.936-2.61-6.513Zm18.42 24.64H8.844v3.869H31.25Zm-17.965 5.868c-.018 3.222 3.284 5.623 7.364 5.449 3.381-.145 6.374-2.79 6.117-5.449z" style="stroke-width:1"/></svg>