<svg xmlns="http://www.w3.org/2000/svg" viewBox="0 0 48 48"><g clip-path="url(#proton_svg__a)" transform="translate(5.003) scale(.09627)"><path fill="url(#proton_svg__b)" d="M-.117 368.77v129.85h91.035V374.39a45.603 45.603 0 0 1 13.332-32.226 45.492 45.492 0 0 1 32.186-13.348h93.342c43.545-.013 85.302-17.34 116.09-48.172s48.084-72.643 48.087-116.24a164.538 164.538 0 0 0-48.092-116.26A164.127 164.127 0 0 0 229.753-.024H-.117v162.32h91.035V85.77h132.7a77.655 77.655 0 0 1 54.936 22.778 77.84 77.84 0 0 1 22.768 54.996 77.845 77.845 0 0 1-22.76 55.012 77.657 77.657 0 0 1-54.944 22.787h-96.473a127.077 127.077 0 0 0-48.714 9.683 127.195 127.195 0 0 0-41.297 27.623 127.365 127.365 0 0 0-27.585 41.35 127.49 127.49 0 0 0-9.667 48.774z"/><path fill="url(#proton_svg__c)" d="M136.41 328.82a136.46 136.46 0 0 0-96.536 40.041A136.796 136.796 0 0 0-.118 465.515v33.112h91.035v-124.23a45.602 45.602 0 0 1 13.323-32.217 45.491 45.491 0 0 1 32.17-13.357z"/></g><defs><radialGradient id="proton_svg__b" cx="0" cy="0" r="1" gradientTransform="matrix(501.28 0 0 501.89 395.39 -69.256)" gradientUnits="userSpaceOnUse"><stop offset="0" stop-color="#A995FF"/><stop offset="1" stop-color="#6652F5"/></radialGradient><linearGradient id="proton_svg__c" x1="68.147" x2="68.147" y1="474.06" y2="283.26" gradientUnits="userSpaceOnUse"><stop offset="0" stop-color="#6D4BFD"/><stop offset="1" stop-color="#1C0554"/></linearGradient><clipPath id="proton_svg__a"><path fill="#fff" d="M.727 0h394v500h-394z"/></clipPath></defs></svg>