<svg xmlns="http://www.w3.org/2000/svg" viewBox="0 0 48 48"><path fill="#fff" d="M25.77 41.96A18.15 18.15 0 0 1 9.21 28.65c.02-.02.37.18.78.44 2.23 1.37 3.86 1.88 6.06 1.88.9 0 1.15-.03 1.75-.2 1.3-.34 2.33-.8 4.7-2.12 3.94-2.18 5.62-2.77 7.9-2.77 1.94 0 4.22.49 6.69 1.42 2 .76 6.29 3 6.29 3.28 0 .24-1.16 2.46-1.72 3.3a18.02 18.02 0 0 1-12.03 7.84c-.88.14-2.67.3-3.17.27zM20.54 25.8a8.5 8.5 0 0 1-.67-4.1c.1-.93.36-1.94.68-2.61l.24-.5 2.38 1.25 3.7 1.93 1.32.68-2.33 1.21-3.71 1.93-1.38.72zM38.98 23.65a3.18 3.18 0 0 1-1.77-4.58 4 4 0 0 1 1.41-1.3 3.18 3.18 0 0 1 4.43 2.07 3.2 3.2 0 0 1-1.73 3.66c-.46.22-.58.25-1.23.27-.58.01-.8 0-1.11-.12m1.72-1.6a1.6 1.6 0 0 0-.27-2.94c-.77-.22-1.5.1-1.85.79-.42.83-.11 1.74.71 2.18.32.16 1.06.15 1.4-.02"/><path fill="#fff" d="M26.58 9.06A17.97 16.42 0 0 0 8.6 25.48 17.97 16.42 0 0 0 26.58 41.9a17.97 16.42 0 0 0 17.66-13.4 2.05 1.82 0 0 1-.2.02A2.05 1.82 0 0 1 42 26.7a2.05 1.82 0 0 1 2.05-1.83 2.05 1.82 0 0 1 .48.06A17.97 16.42 0 0 0 26.58 9.06"/><path fill="#42a6dc" d="M24.62 0a36 36 0 0 0-2.28 3.6q-.7.15-1.4.35-.3-.05-.6-.15c-.3-.1-1.08-.8-3.32-1.88-.4 1.39-.75 2.67-1 4.14q-.66.38-1.3.82-.27.05-.59.05c-.3 0-1.28-.4-3.75-.7.07 1.44.16 2.78.4 4.25q-.5.59-.97 1.21-.25.14-.56.26c-.3.1-1.35.03-3.77.55a37 37 0 0 0 1.74 3.87 21 21 0 0 0-1.18 4.38 6.4 6.4 0 0 0-5.5-3.16H.5v12.72h.04c2.26 0 4.35-1.2 5.49-3.14q.33 2.15 1.1 4.2-.02.28-.1.6c-.06.3-.7 1.14-1.6 3.46 1.43.29 2.74.53 4.22.66q.44.6.91 1.18.07.3.1.6c.04.31-.3 1.31-.39 3.8a36 36 0 0 0 4.2-.74q.62.44 1.27.84.16.25.3.54c.13.28.14 1.34.86 3.71 1.3-.64 2.47-1.25 3.72-2.05q.77.23 1.56.4.22.18.45.4c.2.22.57 1.22 2.02 3.23a36 36 0 0 0 2.85-3.17q.77-.04 1.53-.12.29.09.57.24c.28.14.94.96 2.97 2.39.62-1.3 1.17-2.51 1.66-3.91q.7-.29 1.4-.61.29 0 .59.04c.3.05 1.2.61 3.58 1.3.17-1.43.3-2.76.3-4.25a21 21 0 0 0 6.84-11.15c-1.47-.4-3.44-1.26-4.28-3.04h4.76a20.9 20.9 0 0 0-7.19-17.54l-.2-.56c-.08-.3.08-1.34-.25-3.8-1.38.42-2.64.84-4 1.43q-.7-.35-1.43-.63l-.37-.46c-.17-.26-.36-1.3-1.47-3.52a37 37 0 0 0-3.32 2.66q-.76-.1-1.53-.14l-.5-.31c-.25-.19-.76-1.1-2.54-2.85m15.36 17.41a3.22 3.22 0 1 1 0 6.44 3.22 3.22 0 0 1 0-6.44m-19.22 1.13 7.5 3.91-7.5 3.91a8.5 8.5 0 0 1 0-7.82m19.22.53a1.56 1.56 0 1 0 0 3.12 1.56 1.56 0 0 0 0-3.12m-9.52 6.75h.28c4.38.2 9.05 2.38 12.74 4.66A18.1 18.1 0 0 1 9.12 28.5c2.68 1.75 4 2.3 6.5 2.47 4.83.33 9.15-5.2 14.84-5.14"/></svg>
