<svg xmlns="http://www.w3.org/2000/svg" viewBox="0 0 48 48"><path fill="#f26e7e" d="M9.06 40.701c1.774-1.025 1.778-4.343.006-7.412-1.772-3.068-4.647-4.725-6.422-3.7s-1.778 4.344-.007 7.412c1.772 3.069 4.647 4.725 6.423 3.7z"/><path fill="#8a3391" d="M45.368 37.006c1.771-3.068 1.768-6.387-.007-7.412-1.775-1.025-4.65.632-6.422 3.7-1.772 3.069-1.769 6.387.006 7.412 1.776 1.025 4.651-.631 6.423-3.7z"/><path fill="#f26e7e" d="M21.158 47.698c1.775-1.025 1.778-4.343.006-7.412-1.771-3.068-4.647-4.725-6.422-3.7-1.775 1.025-1.778 4.344-.006 7.412 1.771 3.068 4.646 4.725 6.422 3.7z"/><path fill="#8a3391" d="M33.274 43.989c1.772-3.069 1.769-6.387-.006-7.412-1.776-1.025-4.651.632-6.423 3.7-1.771 3.068-1.768 6.387.007 7.412 1.775 1.025 4.65-.632 6.422-3.7z"/><path fill="#f7bf2a" d="M23.995 7.424c3.543 0 6.415-1.662 6.415-3.712S27.538 0 23.995 0c-3.544 0-6.416 1.662-6.416 3.712s2.872 3.712 6.416 3.712z"/><path fill="#f26e7e" d="M9.055 26.719c1.775-1.025 1.778-4.343.007-7.412-1.772-3.068-4.647-4.725-6.423-3.7s-1.778 4.344-.006 7.412c1.771 3.068 4.647 4.725 6.422 3.7z"/><path fill="#f7bf2a" d="M11.901 14.399c3.544 0 6.416-1.662 6.416-3.712 0-2.05-2.872-3.712-6.416-3.712-3.543 0-6.415 1.662-6.415 3.712 0 2.05 2.872 3.712 6.415 3.712z"/><path fill="#8a3391" d="M45.362 23.03c1.772-3.07 1.769-6.388-.006-7.413-1.776-1.024-4.651.632-6.423 3.7-1.771 3.069-1.768 6.387.007 7.412 1.775 1.025 4.65-.631 6.422-3.7z"/><path fill="#f7bf2a" d="M36.106 14.399c3.543 0 6.415-1.662 6.415-3.712 0-2.05-2.872-3.712-6.415-3.712s-6.416 1.662-6.416 3.712c0 2.05 2.872 3.712 6.416 3.712z"/><path fill="#f26e7e" d="M21.155 33.716c1.775-1.025 1.778-4.344.006-7.412-1.771-3.069-4.647-4.725-6.422-3.7-1.775 1.025-1.778 4.343-.007 7.412 1.772 3.068 4.647 4.725 6.423 3.7z"/><path fill="#8a3391" d="M33.266 30.012c1.771-3.068 1.768-6.387-.007-7.412-1.775-1.025-4.65.632-6.422 3.7-1.772 3.069-1.769 6.387.006 7.412 1.776 1.025 4.65-.631 6.423-3.7z"/><path fill="#f7bf2a" d="M23.995 21.39c3.543 0 6.415-1.662 6.415-3.712 0-2.05-2.872-3.712-6.415-3.712-3.544 0-6.416 1.662-6.416 3.712 0 2.05 2.872 3.712 6.416 3.712z"/></svg>