<svg xmlns="http://www.w3.org/2000/svg" viewBox="0 0 48 48"><path fill="#bfbfbf" d="M19.985 23.5H44.75l3-3v-5.4H22.985l-3 3z"/><path fill="gray" d="M21.485 23.5V22H43.25v-2.4l4.5-4.5v5.4l-3 3z"/><path fill="#fff" d="M19.985 22h1.5v-2.4H43.25l4.5-4.5h-1.5l-3 3H19.985z"/><path d="M34.235 20.95h7.5V22h-7.5z"/><path fill="none" stroke="#000" stroke-linecap="round" stroke-linejoin="round" stroke-width=".5" d="M19.985 23.5H44.75l3-3v-5.4H22.985l-3 3z"/><path fill="#bfbfbf" d="M23.885 17.5h17.25l3-3V.25h-17.25l-3 3z"/><path fill="gray" d="m23.885 17.5.75-.75h15.75V4l3.75-3.75V14.5l-3 3z"/><path fill="#fff" d="m23.885 17.5.75-.75V4h15.75l.75-.75h-17.25z"/><path fill="gray" d="m24.635 15.25.75-.75V4.75h14.25l.75-.75h-15.75z"/><path fill="#fff" d="m24.635 15.25.75-.75h14.25V4.75l.75-.75v11.25z"/><path fill="#00f" d="M25.385 4.75h14.25v9.75h-14.25z"/><path fill="navy" d="M25.385 14.5h.75v-9h13.5v-.75h-14.25z"/><path fill="none" stroke="#000" stroke-linecap="round" stroke-linejoin="round" stroke-width=".5" d="M23.885 17.5h17.25l3-3V.25h-17.25l-3 3z"/><path fill="#bfbfbf" d="M.25 47.75h24.765l3-3v-5.4H3.25l-3 3z"/><path fill="gray" d="M1.75 47.75v-1.5h21.765v-2.4l4.5-4.5v5.4l-3 3z"/><path fill="#fff" d="M.25 46.25h1.5v-2.4h21.765l4.5-4.5h-1.5l-3 3H.25z"/><path d="M14.5 45.2H22v1.05h-7.5z"/><path fill="none" stroke="#000" stroke-linecap="round" stroke-linejoin="round" stroke-width=".5" d="M.25 47.75h24.765l3-3v-5.4H3.25l-3 3z"/><path fill="#bfbfbf" d="M4.15 41.75H21.4l3-3V24.5H7.15l-3 3z"/><path fill="gray" d="M4.15 41.75 4.9 41h15.75V28.25l3.75-3.75v14.25l-3 3z"/><path fill="#fff" d="M4.15 41.75 4.9 41V28.25h15.75l.75-.75H4.15z"/><path fill="gray" d="m4.9 39.5.75-.75V29H19.9l.75-.75H4.9z"/><path fill="#fff" d="m4.9 39.5.75-.75H19.9V29l.75-.75V39.5z"/><path fill="#00f" d="M5.65 29H19.9v9.75H5.65z"/><path fill="navy" d="M5.65 38.75h.75v-9h13.5V29H5.65z"/><path fill="none" stroke="#000" stroke-linecap="round" stroke-linejoin="round" stroke-width=".5" d="M4.15 41.75H21.4l3-3V24.5H7.15l-3 3z"/><path stroke="#000" stroke-linecap="round" stroke-linejoin="round" d="M23.41 23.625 13.15 34.25l16.826-13.625h-7.351L32.885 10 16.06 23.625z"/><path fill="#ff0" d="M23.41 23.625 13.15 34.25l16.826-13.625h-7.351L32.885 10 16.06 23.625z"/></svg>