<svg xmlns="http://www.w3.org/2000/svg" viewBox="0 0 48 48"><g fill="#a29d86" stroke="#ccc" stroke-linejoin="bevel" stroke-width=".073"><g color="#000"><path fill="#e9e9ff" d="m-186.33 59.726 3.185 1.16v3.742l-3.185-1.159z" style="isolation:auto;mix-blend-mode:normal" transform="translate(411.622 -110.937) scale(2.13496)"/><path fill="#353564" d="M-189.56 60.903v3.743l3.231-1.177v-3.743z" style="isolation:auto;mix-blend-mode:normal" transform="translate(411.622 -110.937) scale(2.13496)"/><path fill="#afafde" d="m-189.56 64.646 3.184 1.159 3.232-1.177-3.185-1.159z" style="isolation:auto;mix-blend-mode:normal" transform="translate(411.622 -110.937) scale(2.13496)"/></g><path fill="#f7f7f4" stroke-width=".156" d="m6.92 19.088 6.797 2.474 6.9-2.512-6.8-2.475z"/><path fill="#fff" stroke-width=".156" d="M13.708 21.562v7.992l6.9-2.513V19.05z"/><path fill="#efeeea" stroke-width=".156" d="m6.92 19.088 6.797 2.474v7.992l-6.8-2.477z"/><g color="#000"><path fill="#e9e9ff" d="m-186.33 59.726 3.185 1.16v3.742l-3.185-1.159z" style="isolation:auto;mix-blend-mode:normal" transform="translate(418.451 -116.527) scale(2.13496)"/><path fill="#353564" d="M-189.56 60.903v3.743l3.231-1.177v-3.743z" style="isolation:auto;mix-blend-mode:normal" transform="translate(418.451 -116.527) scale(2.13496)"/><path fill="#afafde" d="m-189.56 64.646 3.184 1.159 3.232-1.177-3.185-1.159z" style="isolation:auto;mix-blend-mode:normal" transform="translate(418.451 -116.527) scale(2.13496)"/></g><path fill="#f7f7f4" stroke-width=".156" d="m13.749 13.498 6.798 2.474 6.9-2.512-6.8-2.475z"/><path fill="#fff" stroke-width=".156" d="M20.538 15.972v7.992l6.9-2.513V13.46z"/><path fill="#efeeea" stroke-width=".156" d="m13.749 13.498 6.798 2.474v7.992l-6.8-2.477z"/><g color="#000"><path fill="#e9e9ff" d="m-186.33 59.726 3.185 1.16v3.742l-3.185-1.159z" style="isolation:auto;mix-blend-mode:normal" transform="translate(404.792 -100.378) scale(2.13496)"/><path fill="#353564" d="M-189.56 60.903v3.743l3.231-1.177v-3.743z" style="isolation:auto;mix-blend-mode:normal" transform="translate(404.792 -100.378) scale(2.13496)"/><path fill="#afafde" d="m-189.56 64.646 3.184 1.159 3.232-1.177-3.185-1.159z" style="isolation:auto;mix-blend-mode:normal" transform="translate(404.792 -100.378) scale(2.13496)"/></g><path fill="#f7f7f4" stroke-width=".156" d="m.09 29.648 6.797 2.474 6.9-2.513-6.8-2.474z"/><path fill="#fff" stroke-width=".156" d="M6.878 32.122v7.991l6.9-2.513v-7.99z"/><path fill="#efeeea" stroke-width=".156" d="m.09 29.648 6.797 2.474v7.991l-6.8-2.476z"/><g color="#000"><path fill="#e9e9ff" d="m-186.33 59.726 3.185 1.16v3.742l-3.185-1.159z" style="isolation:auto;mix-blend-mode:normal" transform="translate(411.622 -97.899) scale(2.13496)"/><path fill="#353564" d="M-189.56 60.903v3.743l3.231-1.177v-3.743z" style="isolation:auto;mix-blend-mode:normal" transform="translate(411.622 -97.899) scale(2.13496)"/><path fill="#afafde" d="m-189.56 64.646 3.184 1.159 3.232-1.177-3.185-1.159z" style="isolation:auto;mix-blend-mode:normal" transform="translate(411.622 -97.899) scale(2.13496)"/></g><path fill="#f7f7f4" stroke-width=".156" d="m6.92 32.127 6.797 2.474 6.9-2.513-6.8-2.474z"/><path fill="#fff" stroke-width=".156" d="M13.708 34.601v7.991l6.9-2.513v-7.99z"/><path fill="#efeeea" stroke-width=".156" d="m6.92 32.127 6.797 2.474v7.991l-6.8-2.476z"/><g color="#000"><path fill="#e9e9ff" d="m-186.33 59.726 3.185 1.16v3.742l-3.185-1.159z" style="isolation:auto;mix-blend-mode:normal" transform="translate(411.622 -105.967) scale(2.13496)"/><path fill="#353564" d="M-189.56 60.903v3.743l3.231-1.177v-3.743z" style="isolation:auto;mix-blend-mode:normal" transform="translate(411.622 -105.967) scale(2.13496)"/><path fill="#afafde" d="m-189.56 64.646 3.184 1.159 3.232-1.177-3.185-1.159z" style="isolation:auto;mix-blend-mode:normal" transform="translate(411.622 -105.967) scale(2.13496)"/></g><path fill="#f7f7f4" stroke-width=".156" d="m6.92 24.058 6.797 2.474 6.9-2.513-6.8-2.474z"/><path fill="#fff" stroke-width=".156" d="M13.708 26.532v7.991l6.9-2.512v-7.992z"/><path fill="#efeeea" stroke-width=".156" d="m6.92 24.058 6.797 2.474v7.991l-6.8-2.476z"/><g color="#000"><path fill="#e9e9ff" d="m-186.33 59.726 3.185 1.16v3.742l-3.185-1.159z" style="isolation:auto;mix-blend-mode:normal" transform="translate(438.931 -102.868) scale(2.13496)"/><path fill="#353564" d="M-189.56 60.903v3.743l3.231-1.177v-3.743z" style="isolation:auto;mix-blend-mode:normal" transform="translate(438.931 -102.868) scale(2.13496)"/><path fill="#afafde" d="m-189.56 64.646 3.184 1.159 3.232-1.177-3.185-1.159z" style="isolation:auto;mix-blend-mode:normal" transform="translate(438.931 -102.868) scale(2.13496)"/></g><path fill="#f7f7f4" stroke-width=".156" d="m34.229 27.158 6.797 2.474 6.9-2.513-6.8-2.474z"/><path fill="#fff" stroke-width=".156" d="M41.018 29.632v7.991l6.9-2.512v-7.992z"/><path fill="#efeeea" stroke-width=".156" d="m34.229 27.158 6.797 2.474v7.991l-6.8-2.476z"/></g><g transform="translate(-1228 -371.5) scale(.47536)"><g fill="#a29d86" stroke="#ccc" stroke-linejoin="bevel" stroke-width=".073"><g color="#000"><path fill="#e9e9ff" d="m-186.33 59.726 3.185 1.16v3.742l-3.185-1.159z" style="isolation:auto;mix-blend-mode:normal" transform="translate(3492.2 570.34) scale(4.4914)"/><path fill="#353564" d="M-189.56 60.903v3.743l3.231-1.177v-3.743z" style="isolation:auto;mix-blend-mode:normal" transform="translate(3492.2 570.34) scale(4.4914)"/><path fill="#afafde" d="m-189.56 64.646 3.184 1.159 3.232-1.177-3.185-1.159z" style="isolation:auto;mix-blend-mode:normal" transform="translate(3492.2 570.34) scale(4.4914)"/></g><path fill="#f7f7f4" stroke-width=".328" d="m2640.81 843.88 14.3 5.205 14.517-5.286-14.305-5.206z"/><path fill="#ffd242" stroke-width=".328" d="M2655.093 849.085v16.812l14.516-5.287V843.8z"/><path fill="#efeeea" stroke-width=".328" d="m2640.81 843.88 14.3 5.205v16.812l-14.304-5.21z"/></g><circle cx="2835.2" cy="1823.9" r="2.967" fill="#fff" transform="skewY(-20) scale(.9397 1)"/></g><g fill="#a29d86" stroke="#ccc" stroke-linejoin="bevel" stroke-width=".073"><g color="#000"><path fill="#e9e9ff" d="m-186.33 59.726 3.185 1.16v3.742l-3.185-1.159z" style="isolation:auto;mix-blend-mode:normal" transform="translate(425.281 -97.899) scale(2.13496)"/><path fill="#353564" d="M-189.56 60.903v3.743l3.231-1.177v-3.743z" style="isolation:auto;mix-blend-mode:normal" transform="translate(425.281 -97.899) scale(2.13496)"/><path fill="#afafde" d="m-189.56 64.646 3.184 1.159 3.232-1.177-3.185-1.159z" style="isolation:auto;mix-blend-mode:normal" transform="translate(425.281 -97.899) scale(2.13496)"/></g><path fill="#f7f7f4" stroke-width=".156" d="m20.579 32.127 6.798 2.474 6.9-2.513-6.8-2.474z"/><path fill="#ffd242" stroke-width=".156" d="M27.368 34.601v7.991l6.9-2.513v-7.99z"/><path fill="#efeeea" stroke-width=".156" d="m20.579 32.127 6.798 2.474v7.991l-6.8-2.476z"/><g color="#000"><path fill="#e9e9ff" d="m-186.33 59.726 3.185 1.16v3.742l-3.185-1.159z" style="isolation:auto;mix-blend-mode:normal" transform="translate(418.451 -95.416) scale(2.13496)"/><path fill="#353564" d="M-189.56 60.903v3.743l3.231-1.177v-3.743z" style="isolation:auto;mix-blend-mode:normal" transform="translate(418.451 -95.416) scale(2.13496)"/><path fill="#afafde" d="m-189.56 64.646 3.184 1.159 3.232-1.177-3.185-1.159z" style="isolation:auto;mix-blend-mode:normal" transform="translate(418.451 -95.416) scale(2.13496)"/></g><path fill="#f7f7f4" stroke-width=".156" d="m13.749 34.61 6.798 2.474 6.9-2.513-6.8-2.474z"/><path fill="#fff" stroke-width=".156" d="M20.538 37.084v7.991l6.9-2.513v-7.99z"/><path fill="#efeeea" stroke-width=".156" d="m13.749 34.61 6.798 2.474v7.991l-6.8-2.476z"/><g color="#000"><path fill="#e9e9ff" d="m-186.33 59.726 3.185 1.16v3.742l-3.185-1.159z" style="isolation:auto;mix-blend-mode:normal" transform="translate(438.931 -110.937) scale(2.13496)"/><path fill="#353564" d="M-189.56 60.903v3.743l3.231-1.177v-3.743z" style="isolation:auto;mix-blend-mode:normal" transform="translate(438.931 -110.937) scale(2.13496)"/><path fill="#afafde" d="m-189.56 64.646 3.184 1.159 3.232-1.177-3.185-1.159z" style="isolation:auto;mix-blend-mode:normal" transform="translate(438.931 -110.937) scale(2.13496)"/></g><path fill="#f7f7f4" stroke-width=".156" d="m34.229 19.088 6.797 2.474 6.9-2.512-6.8-2.475z"/><path fill="#ffd242" stroke-width=".156" d="M41.018 21.562v7.992l6.9-2.513V19.05z"/><path fill="#efeeea" stroke-width=".156" d="m34.229 19.088 6.797 2.474v7.992l-6.8-2.477z"/><g color="#000"><path fill="#e9e9ff" d="m-186.33 59.726 3.185 1.16v3.742l-3.185-1.159z" style="isolation:auto;mix-blend-mode:normal" transform="translate(438.931 -119.007) scale(2.13496)"/><path fill="#353564" d="M-189.56 60.903v3.743l3.231-1.177v-3.743z" style="isolation:auto;mix-blend-mode:normal" transform="translate(438.931 -119.007) scale(2.13496)"/><path fill="#afafde" d="m-189.56 64.646 3.184 1.159 3.232-1.177-3.185-1.159z" style="isolation:auto;mix-blend-mode:normal" transform="translate(438.931 -119.007) scale(2.13496)"/></g><path fill="#ffc91d" stroke-width=".156" d="m34.229 11.018 6.797 2.475 6.9-2.513-6.8-2.475z"/><path fill="#ffd242" stroke-width=".156" d="M41.018 13.493v7.99l6.9-2.512V10.98z"/><path fill="#efeeea" stroke-width=".156" d="m34.229 11.018 6.797 2.475v7.99l-6.8-2.476z"/><g color="#000"><path fill="#e9e9ff" d="m-186.33 59.726 3.185 1.16v3.742l-3.185-1.159z" style="isolation:auto;mix-blend-mode:normal" transform="translate(432.111 -108.457) scale(2.13496)"/><path fill="#353564" d="M-189.56 60.903v3.743l3.231-1.177v-3.743z" style="isolation:auto;mix-blend-mode:normal" transform="translate(432.111 -108.457) scale(2.13496)"/><path fill="#afafde" d="m-189.56 64.646 3.184 1.159 3.232-1.177-3.185-1.159z" style="isolation:auto;mix-blend-mode:normal" transform="translate(432.111 -108.457) scale(2.13496)"/></g><path fill="#f7f7f4" stroke-width=".156" d="m27.409 21.568 6.797 2.474 6.9-2.513-6.8-2.474z"/><path fill="#ffd242" stroke-width=".156" d="M34.198 24.042v7.991l6.9-2.512v-7.992z"/><path fill="#efeeea" stroke-width=".156" d="m27.409 21.568 6.797 2.474v7.991l-6.8-2.476z"/><g color="#000"><path fill="#e9e9ff" d="m-186.33 59.726 3.185 1.16v3.742l-3.185-1.159z" style="isolation:auto;mix-blend-mode:normal" transform="translate(432.111 -116.527) scale(2.13496)"/><path fill="#353564" d="M-189.56 60.903v3.743l3.231-1.177v-3.743z" style="isolation:auto;mix-blend-mode:normal" transform="translate(432.111 -116.527) scale(2.13496)"/><path fill="#afafde" d="m-189.56 64.646 3.184 1.159 3.232-1.177-3.185-1.159z" style="isolation:auto;mix-blend-mode:normal" transform="translate(432.111 -116.527) scale(2.13496)"/></g><path fill="#f7f7f4" stroke-width=".156" d="m27.409 13.498 6.797 2.474 6.9-2.512-6.8-2.475z"/><path fill="#3775a9" stroke-width=".156" d="M34.198 15.972v7.992l6.9-2.513V13.46z"/><path fill="#efeeea" stroke-width=".156" d="m27.409 13.498 6.797 2.474v7.992l-6.8-2.477z"/><g color="#000"><path fill="#e9e9ff" d="m-186.33 59.726 3.185 1.16v3.742l-3.185-1.159z" style="isolation:auto;mix-blend-mode:normal" transform="translate(432.111 -124.597) scale(2.13496)"/><path fill="#353564" d="M-189.56 60.903v3.743l3.231-1.177v-3.743z" style="isolation:auto;mix-blend-mode:normal" transform="translate(432.111 -124.597) scale(2.13496)"/><path fill="#afafde" d="m-189.56 64.646 3.184 1.159 3.232-1.177-3.185-1.159z" style="isolation:auto;mix-blend-mode:normal" transform="translate(432.111 -124.597) scale(2.13496)"/></g><path fill="#2f6491" stroke-width=".156" d="m27.409 5.428 6.797 2.475 6.9-2.513-6.8-2.475z"/><path fill="#3775a9" stroke-width=".156" d="M34.198 7.903v7.99l6.9-2.512V5.39z"/><path fill="#efeeea" stroke-width=".156" d="m27.409 5.428 6.797 2.475v7.99l-6.8-2.476z"/><g color="#000"><path fill="#e9e9ff" d="m-186.33 59.726 3.185 1.16v3.742l-3.185-1.159z" style="isolation:auto;mix-blend-mode:normal" transform="translate(425.281 -105.967) scale(2.13496)"/><path fill="#353564" d="M-189.56 60.903v3.743l3.231-1.177v-3.743z" style="isolation:auto;mix-blend-mode:normal" transform="translate(425.281 -105.967) scale(2.13496)"/><path fill="#afafde" d="m-189.56 64.646 3.184 1.159 3.232-1.177-3.185-1.159z" style="isolation:auto;mix-blend-mode:normal" transform="translate(425.281 -105.967) scale(2.13496)"/></g><path fill="#f7f7f4" stroke-width=".156" d="m20.579 24.058 6.798 2.474 6.9-2.513-6.8-2.474z"/><path fill="#ffd242" stroke-width=".156" d="M27.368 26.532v7.991l6.9-2.512v-7.992z"/><path fill="#efeeea" stroke-width=".156" d="m20.579 24.058 6.798 2.474v7.991l-6.8-2.476z"/><g color="#000"><path fill="#e9e9ff" d="m-186.33 59.726 3.185 1.16v3.742l-3.185-1.159z" style="isolation:auto;mix-blend-mode:normal" transform="translate(425.281 -114.037) scale(2.13496)"/><path fill="#353564" d="M-189.56 60.903v3.743l3.231-1.177v-3.743z" style="isolation:auto;mix-blend-mode:normal" transform="translate(425.281 -114.037) scale(2.13496)"/><path fill="#afafde" d="m-189.56 64.646 3.184 1.159 3.232-1.177-3.185-1.159z" style="isolation:auto;mix-blend-mode:normal" transform="translate(425.281 -114.037) scale(2.13496)"/></g><path fill="#f7f7f4" stroke-width=".156" d="m20.579 15.988 6.798 2.474 6.9-2.512-6.8-2.475z"/><path fill="#3775a9" stroke-width=".156" d="M27.368 18.462v7.992l6.9-2.513V15.95z"/><path fill="#efeeea" stroke-width=".156" d="m20.579 15.988 6.798 2.474v7.992l-6.8-2.477z"/><g color="#000"><path fill="#e9e9ff" d="m-186.33 59.726 3.185 1.16v3.742l-3.185-1.159z" style="isolation:auto;mix-blend-mode:normal" transform="translate(418.451 -103.487) scale(2.13496)"/><path fill="#353564" d="M-189.56 60.903v3.743l3.231-1.177v-3.743z" style="isolation:auto;mix-blend-mode:normal" transform="translate(418.451 -103.487) scale(2.13496)"/><path fill="#afafde" d="m-189.56 64.646 3.184 1.159 3.232-1.177-3.185-1.159z" style="isolation:auto;mix-blend-mode:normal" transform="translate(418.451 -103.487) scale(2.13496)"/></g><path fill="#f7f7f4" stroke-width=".156" d="m13.749 26.538 6.798 2.474 6.9-2.513-6.8-2.474z"/><path fill="#3775a9" stroke-width=".156" d="M20.538 29.012v7.991l6.9-2.512v-7.992z"/><path fill="#2f6491" stroke-width=".156" d="m13.749 26.538 6.798 2.474v7.991l-6.8-2.476z"/><g color="#000"><path fill="#e9e9ff" d="m-186.33 59.726 3.185 1.16v3.742l-3.185-1.159z" style="isolation:auto;mix-blend-mode:normal" transform="translate(418.451 -111.557) scale(2.13496)"/><path fill="#353564" d="M-189.56 60.903v3.743l3.231-1.177v-3.743z" style="isolation:auto;mix-blend-mode:normal" transform="translate(418.451 -111.557) scale(2.13496)"/><path fill="#afafde" d="m-189.56 64.646 3.184 1.159 3.232-1.177-3.185-1.159z" style="isolation:auto;mix-blend-mode:normal" transform="translate(418.451 -111.557) scale(2.13496)"/></g><path fill="#2f6491" stroke-width=".156" d="m13.749 18.468 6.798 2.474 6.9-2.512-6.8-2.475z"/><path fill="#3775a9" stroke-width=".156" d="M20.538 20.942v7.992l6.9-2.513V18.43z"/><path fill="#2f6491" stroke-width=".156" d="m13.749 18.468 6.798 2.474v7.992l-6.8-2.477z"/></g><g transform="translate(-1228 -371.5) scale(.47536)"><g fill="#a29d86" stroke="#ccc" stroke-linejoin="bevel" stroke-width=".073"><g color="#000"><path fill="#e9e9ff" d="m-186.33 59.726 3.185 1.16v3.742l-3.185-1.159z" style="isolation:auto;mix-blend-mode:normal" transform="translate(3477.9 524.63) scale(4.4914)"/><path fill="#353564" d="M-189.56 60.903v3.743l3.231-1.177v-3.743z" style="isolation:auto;mix-blend-mode:normal" transform="translate(3477.9 524.63) scale(4.4914)"/><path fill="#afafde" d="m-189.56 64.646 3.184 1.159 3.232-1.177-3.185-1.159z" style="isolation:auto;mix-blend-mode:normal" transform="translate(3477.9 524.63) scale(4.4914)"/></g><path fill="#2f6491" stroke-width=".328" d="m2626.51 798.17 14.3 5.205 14.517-5.286-14.305-5.206z"/><path fill="#3775a9" stroke-width=".328" d="M2640.793 803.375v16.812l14.516-5.287v-16.81z"/><path fill="#2f6491" stroke-width=".328" d="m2626.51 798.17 14.3 5.205v16.812l-14.304-5.21z"/></g><circle cx="2816" cy="1772.9" r="2.967" fill="#fff" transform="skewY(-20) scale(.9397 1)"/></g></svg>