<svg xmlns="http://www.w3.org/2000/svg" xmlns:xlink="http://www.w3.org/1999/xlink" width="48" height="48" version="1.0"><defs><linearGradient id="a"><stop offset="0" style="stop-color:#ffd43b;stop-opacity:1"/><stop offset="1" style="stop-color:#ffe873;stop-opacity:1"/></linearGradient><linearGradient id="b"><stop offset="0" style="stop-color:#5a9fd4;stop-opacity:1"/><stop offset="1" style="stop-color:#306998;stop-opacity:1"/></linearGradient><linearGradient xlink:href="#a" id="d" x1="150.961" x2="112.031" y1="192.352" y2="137.273" gradientTransform="matrix(.2005 0 0 .20244 -5.343 -4.171)" gradientUnits="userSpaceOnUse"/><linearGradient xlink:href="#b" id="c" x1="26.649" x2="135.665" y1="20.604" y2="114.398" gradientTransform="matrix(.2005 0 0 .20244 -5.343 -4.171)" gradientUnits="userSpaceOnUse"/></defs><g style="stroke-width:.834563"><path d="M19.575 0a27.288 27.288 0 0 0-4.567.39c-4.044.715-4.778 2.21-4.778 4.968V9h9.556v1.214H6.643c-2.777 0-5.21 1.67-5.97 4.846-.878 3.64-.917 5.911 0 9.712.68 2.83 2.301 4.846 5.079 4.846h3.286V25.25c0-3.154 2.729-5.937 5.97-5.937h9.546c2.657 0 4.778-2.187 4.778-4.856v-9.1c0-2.59-2.185-4.536-4.778-4.968a29.808 29.808 0 0 0-4.98-.39Zm-5.168 2.93c.987 0 1.793.82 1.793 1.826a1.806 1.806 0 0 1-1.793 1.816 1.804 1.804 0 0 1-1.794-1.816c0-1.007.803-1.826 1.794-1.826z" style="fill:url(#c);fill-opacity:1;stroke-width:.834563" transform="translate(.262) scale(1.19823)"/><path d="M30.524 10.214v4.244c0 3.29-2.79 6.06-5.97 6.06h-9.546c-2.615 0-4.778 2.237-4.778 4.856v9.1c0 2.59 2.252 4.113 4.778 4.856 3.025.89 5.926 1.05 9.546 0 2.406-.696 4.778-2.098 4.778-4.856v-3.642h-9.546v-1.214h14.325c2.777 0 3.812-1.938 4.778-4.846.998-2.993.955-5.872 0-9.712-.686-2.765-1.997-4.846-4.778-4.846zM25.155 33.26c.99 0 1.793.812 1.793 1.815 0 1.008-.802 1.827-1.793 1.827-.987 0-1.793-.82-1.793-1.827 0-1.003.806-1.815 1.793-1.815z" style="fill:url(#d);fill-opacity:1;stroke-width:.834563" transform="translate(.262) scale(1.19823)"/></g></svg>