<svg xmlns="http://www.w3.org/2000/svg" viewBox="0 0 48 48"><defs><linearGradient id="b" x1="150.96" x2="112.03" y1="192.35" y2="137.27" gradientTransform="matrix(.24025 0 0 .24257 -6.14 -4.998)" gradientUnits="userSpaceOnUse"><stop offset="0" stop-color="#ffd43b"/><stop offset="1" stop-color="#ffe873"/></linearGradient><linearGradient id="a" x1="26.649" x2="135.66" y1="20.604" y2="114.4" gradientTransform="matrix(.24025 0 0 .24257 -6.14 -4.998)" gradientUnits="userSpaceOnUse"><stop offset="0" stop-color="#5a9fd4"/><stop offset="1" stop-color="#306998"/></linearGradient></defs><path fill="url(#a)" d="M23.717 0a32.697 32.697 0 0 0-5.472.467c-4.846.857-5.725 2.648-5.725 5.953v4.364h11.45v1.455H8.222c-3.328 0-6.243 2-7.154 5.806-1.052 4.362-1.099 7.083 0 11.637.815 3.391 2.757 5.807 6.086 5.807h3.937v-5.234c0-3.78 3.27-7.114 7.154-7.114h11.438c3.184 0 5.725-2.62 5.725-5.818V6.419c0-3.104-2.618-5.436-5.725-5.953a35.717 35.717 0 0 0-5.967-.467zm-6.192 3.51c1.182 0 2.148.983 2.148 2.189a2.164 2.164 0 0 1-2.148 2.176 2.162 2.162 0 0 1-2.15-2.176c0-1.207.962-2.188 2.15-2.188z" transform="translate(.001 .002) scale(.99997)"/><path fill="url(#b)" d="M36.837 12.239v5.085c0 3.942-3.343 7.262-7.153 7.262H18.246c-3.134 0-5.725 2.68-5.725 5.818v10.904c0 3.104 2.698 4.928 5.725 5.819 3.624 1.066 7.1 1.258 11.438 0 2.883-.834 5.725-2.514 5.725-5.819v-4.364H23.97V35.49h17.165c3.327 0 4.567-2.322 5.725-5.806 1.196-3.586 1.144-7.036 0-11.637-.822-3.313-2.393-5.807-5.725-5.807zm-6.433 27.614c1.186 0 2.148.973 2.148 2.175 0 1.208-.96 2.189-2.148 2.189-1.183 0-2.149-.983-2.149-2.19 0-1.201.966-2.174 2.149-2.174z" transform="translate(.001 .002) scale(.99997)"/></svg>