<svg xmlns="http://www.w3.org/2000/svg" xmlns:xlink="http://www.w3.org/1999/xlink" width="48" height="48"><defs><linearGradient id="b"><stop offset="0" style="stop-color:#000;stop-opacity:1"/><stop offset="1" style="stop-color:#000;stop-opacity:.8974359"/></linearGradient><linearGradient id="a"><stop offset="0" style="stop-color:#fff;stop-opacity:1"/><stop offset="1" style="stop-color:#fff;stop-opacity:0"/></linearGradient><linearGradient xlink:href="#a" id="d" x1="142.819" x2="142.819" y1="831.523" y2="878.907" gradientUnits="userSpaceOnUse"/><radialGradient xlink:href="#b" id="c" cx="116.52" cy="98.282" r="55.859" fx="116.52" fy="98.282" gradientTransform="matrix(.97443 1.5089 -.8356 .53962 79.642 -130.285)" gradientUnits="userSpaceOnUse"/></defs><g transform="translate(-26.785 -23.872) scale(.42965)"><path d="M118.216 55.86c-30.85 0-55.875 24.87-55.875 55.562 0 30.692 25.024 55.562 55.875 55.562 10.095 0 19.546-2.652 27.719-7.312l2.906 7.312h22.531l-8.812-21.78c7.215-9.363 11.5-21.073 11.5-33.782 0-30.692-24.993-55.563-55.844-55.563z" style="fill:url(#c);fill-opacity:1;stroke:none"/><ellipse cx="142.5" cy="856.291" rx="35.357" ry="24.643" style="fill:url(#d);fill-opacity:1;stroke:none" transform="matrix(1.0465 0 0 1.29205 -31.641 -1016.861)"/><circle cx="115.662" cy="856.393" r="6.566" style="fill:#000;fill-opacity:1;stroke:none" transform="translate(7.67 -777.604)"/><path d="M125.012 65.255h37.644v5.501h-37.644z" style="fill:#000;fill-opacity:1;stroke:none" transform="matrix(.98975 .14282 -.18973 .98184 0 0)"/><path d="M144.925 89.017h6.566v2.904h-6.566z" style="fill:#000;fill-opacity:1;stroke:none"/><path d="M103.388 65.01c-.057 2.186-3.866.284-4.031 2.782-4.224-1.88.329 2.872-.094 3.312h-.031l-.313-.03a4.903 4.903 0 0 1-.937-.47c-2.95 2.35-3.022 7.234-6.063 9.938-1.994 4.305-2.48 8.983-3.937 13.469-.718 4.303-1.349 8.597-.281 12.906.32 3.501-.69 8.258 2.5 10.719 4.727 3.883 8.655 8.795 12.625 13.468 6.219 7.654 11.73 15.863 16.593 24.438.325-2.118 1.11 4.264 2.532 4.687-.492-3.192-1.133-8.263-1.438-12.187-1.581-10.291-6.653-19.65-8.562-29.844-.06-.43-.129-.872-.188-1.312v-1.282h-.156c-.626-5.043-.85-10.465 2.812-14.406 3.74-3.772 9.307-4.722 13.813-7.344a14.855 14.855 0 0 1 3.125-1.406c.009-.003.023.003.031 0 3.117-.963 6.449-.933 9.688-.406.047.008.108.023.156.031.294.05.614.099.906.156 2.371.212 7.145 1.137 8-.5-3.272-2.786-7.985-2.592-11.969-3.687-.63-.115-1.412-.24-2.187-.313l-3.906-.875-.97-.25v.031l-13.968-2.718a6.808 6.808 0 0 0-.687-.563l13.625 1.688v-.063c.48.107.955.194 1.437.25v.031l9.625 1.782c1.661.62 3.432 1.083 5.094 1.187 2.742.4 6.225 4.491 7.125 4.688-.441-4.307-4.742-6.236-8.313-7.5-4.17-2.028-10.402-1.954-11.062-7.563-.176-.39-.35-.781-.563-1.156l-1.625-2.156.063-.032c-2.217-2.616-5.34-4.521-8.656-5.25-3.292-1.136-6.988-2.267-10.47-2.718-1.18 3.478-2.502-2.756-5.343-.907-2.49.295-2.146.953-4-.625zm17.906 10.157c.902-.024 1.933.142 2.969.5 2.763.954 4.561 2.965 4.031 4.5-.53 1.535-3.206 1.986-5.969 1.031-2.762-.954-4.561-2.934-4.03-4.469.33-.959 1.496-1.523 3-1.562z" style="fill:#f60;fill-opacity:1"/></g></svg>