<svg xmlns="http://www.w3.org/2000/svg" viewBox="0 0 48 48"><defs><radialGradient id="qemu_svg__a" cx="116.52" cy="98.282" r="55.859" gradientTransform="matrix(.41866 .6483 -.35902 .23185 7.433 -79.849)" gradientUnits="userSpaceOnUse"><stop offset="0"/><stop offset="1" stop-opacity=".897"/></radialGradient><linearGradient id="qemu_svg__b" x1="142.82" x2="142.82" y1="831.52" y2="878.91" gradientTransform="matrix(.44963 0 0 .55513 -40.38 -460.77)" gradientUnits="userSpaceOnUse"><stop offset="0" stop-color="#fff"/><stop offset="1" stop-color="#fff" stop-opacity="0"/></linearGradient></defs><path fill="url(#qemu_svg__a)" d="M24.007.128C10.752.128 0 10.813 0 24s10.752 23.872 24.007 23.872a23.95 23.95 0 0 0 11.909-3.141l1.249 3.141h9.68l-3.786-9.358A23.692 23.692 0 0 0 47.999 24C48 10.813 37.263.127 24.008.127z"/><ellipse cx="23.693" cy="14.586" fill="url(#qemu_svg__b)" rx="15.898" ry="13.68"/><circle cx="26.205" cy="9.98" r="2.821"/><path d="m21.056 11.327 16.008 2.31-.448 2.32-16.008-2.31z"/><path d="M35.482 14.374h2.821v1.248h-2.821z"/><path fill="#f60" d="M17.636 4.06c-.024.939-1.661.122-1.732 1.195-1.815-.808.141 1.234-.04 1.423h-.014l-.134-.013a2.107 2.107 0 0 1-.403-.202c-1.267 1.01-1.298 3.108-2.605 4.27-.856 1.85-1.065 3.86-1.691 5.787-.309 1.849-.58 3.694-.12 5.545.137 1.504-.297 3.548 1.073 4.605 2.031 1.669 3.719 3.78 5.424 5.787 2.672 3.288 5.04 6.815 7.13 10.5.14-.91.477 1.832 1.088 2.014a79.316 79.316 0 0 1-.618-5.236c-.68-4.422-2.859-8.443-3.679-12.822-.026-.185-.055-.375-.08-.564v-.55h-.068c-.269-2.168-.365-4.497 1.208-6.19 1.607-1.621 4-2.03 5.935-3.156a6.383 6.383 0 0 1 1.343-.604h.013c1.34-.414 2.771-.4 4.163-.174.02.003.046.01.067.013.126.021.264.042.389.067 1.019.091 3.07.488 3.437-.215-1.406-1.197-3.43-1.114-5.142-1.584-.271-.05-.607-.103-.94-.134l-1.678-.376-.417-.108v.014l-6.001-1.168a2.925 2.925 0 0 0-.295-.242l5.854.725v-.027c.206.046.41.083.617.107v.014l4.135.765c.714.267 1.475.466 2.189.51 1.178.172 2.675 1.93 3.061 2.015-.19-1.85-2.037-2.68-3.571-3.223-1.792-.871-4.47-.84-4.753-3.25-.076-.167-.15-.335-.242-.496l-.698-.926.027-.014a6.899 6.899 0 0 0-3.72-2.256c-1.414-.488-3.002-.974-4.498-1.167-.507 1.494-1.075-1.185-2.295-.39-1.07.127-.922.41-1.719-.269zm7.693 4.364c.388-.01.83.06 1.276.214 1.187.41 1.96 1.274 1.732 1.934-.228.66-1.378.853-2.565.443-1.186-.41-1.96-1.26-1.731-1.92.141-.412.642-.655 1.289-.672z"/></svg>