<svg xmlns="http://www.w3.org/2000/svg" viewBox="0 0 48 48"><defs><clipPath id="qnap_svg__a"><path d="M0 75h350V0H0z"/></clipPath></defs><g clip-path="url(#qnap_svg__a)" transform="matrix(.1424 0 0 -.1424 -1.076 29.167)"><path fill="#0c2e82" d="M336.09 56.993h2.131c.455 0 .808.047 1.062.139.256.092.452.245.582.451a1.2 1.2 0 0 1 .202.671c0 .354-.131.645-.387.875-.258.227-.664.342-1.219.342h-2.371zm-.994-4.188v7.494h3.322c.67 0 1.176-.068 1.527-.202.346-.135.624-.372.831-.713.207-.342.312-.717.312-1.13 0-.532-.174-.979-.516-1.345-.345-.363-.877-.596-1.597-.693.265-.127.465-.252.599-.374.291-.265.565-.599.821-.997l1.308-2.04h-1.248l-.992 1.561c-.291.447-.529.793-.715 1.031-.191.239-.355.407-.508.499a1.35 1.35 0 0 1-.451.201 3.032 3.032 0 0 1-.551.035h-1.148v-3.327z"/><path fill="#0c2e82" d="M332.42 56.643a5.633 5.633 0 0 1 5.623-5.62 5.634 5.634 0 0 1 5.625 5.62 5.638 5.638 0 0 1-5.625 5.626 5.636 5.636 0 0 1-5.623-5.626m-.969 0a6.59 6.59 0 1 0 13.182 0 6.588 6.588 0 0 0-6.59-6.587 6.589 6.589 0 0 0-6.592 6.587M223.65 49.639h-30.055V33.365h30.055zm21.469-41.597H223.65v14.979h-30.054V8.042h-21.457v43.996c0 3.76 1.408 6.734 4.246 8.971 2.767 2.166 6.722 3.242 11.867 3.242h40.846c5.146 0 9.097-1.076 11.863-3.242 2.775-2.162 4.158-5.163 4.158-8.971zm58.591 27.027h-27.305v14.569h27.305zm18.387 26.367c-2.172 1.723-5.508 2.641-9.977 2.79l.078.019h-.838c-.181.004-.349.006-.537.006h-38.207l-.019-.006h-1.244c-5.141 0-9.092-1.074-11.868-3.246-2.767-2.152-4.166-5.066-4.238-8.693h-.004v-.135c0-.057-.008-.095-.008-.14h.008V8.042h21.461v14.683h34.707c9.43 0 14.143 3.774 14.143 11.366v18.023c0 4.328-1.16 7.426-3.457 9.322M145.16 64.251h-3.203V31.552c-.141-.342-.449-.6-1.105-.481 0 0-.421.084-.718.401-3.623 5.601-17.576 24.779-22.037 30.889-.013.021-.039.038-.057.064h.013a1.54 1.54 0 0 1-.222.189c-.031.055-.066.097-.105.11-1.137 1.025-2.628 1.527-4.608 1.527h-17.34c-2.178 0-3.857-.616-5.029-1.837-1.179-1.233-1.771-2.894-1.795-4.94l-.029-.022V8.042h20.278s-.116 26.102-.167 33.799c.087.506.454 1.248 2.003 1.055 0 0 .597-.04.85-.49 3.914-6.249 29.554-34.364 29.554-34.364h21.06v56.209zM53.638 21.06l-.957.687H30.206v29.661h29.921V26.247c8.986-2.8 15.166-6.406 19.375-9.83.713 1.801 1.077 3.883 1.077 6.258v27.403c0 9.408-5.507 14.365-16.503 14.881v.042H62.28c-.068 0-.132.007-.197.007v-.007H26.056c-12.336 0-18.502-4.976-18.502-14.923V22.675c0-9.888 6.166-14.836 18.502-14.836h36.08v.012c1.926.002 3.683.143 5.308.387-3.012 4.336-8.591 9.049-13.806 12.822"/><path fill="#ee2427" d="M46.668 28.018c6.729-4.272 18.989-12.751 23.045-20.476h15.272c-2.608 4.655-11.427 15.874-38.317 20.476"/></g></svg>