<svg xmlns="http://www.w3.org/2000/svg" xmlns:xlink="http://www.w3.org/1999/xlink" viewBox="0 0 48 48"><defs><clipPath id="radarr_svg__b"><use xlink:href="#radarr_svg__a" clip-rule="evenodd"/></clipPath><path id="radarr_svg__a" d="M0 0h1024v1024H0z"/></defs><g clip-path="url(#radarr_svg__b)" transform="scale(.04688)"><use xlink:href="#radarr_svg__a" fill="#fff" fill-opacity="0"/><path fill="#24292e" d="m175.3 175.94 7.522 714.55c-60.173 7.522-105.3-22.565-105.3-82.737L70 213.553c0-188.04 173-233.17 278.3-157.95l534.03 308.38c75.216 52.651 90.26 150.43 52.651 218.12-7.52-52.651-30.086-82.737-75.216-112.82l-601.73-338.47c-45.129-30.086-82.737-22.565-82.737 45.13z"/><path fill="#24292e" d="M130.172 928.1c45.13 15.043 90.259 7.521 127.87-15.043l616.77-361.04c37.608 52.651 30.087 105.3-15.043 135.39l-518.99 300.86c-75.216 37.608-173 0-210.6-60.172z"/><path fill="#ffc230" d="m310.69 717.5 368.56-210.6-361.04-203.08z"/></g></svg>