<svg xmlns="http://www.w3.org/2000/svg" xmlns:xlink="http://www.w3.org/1999/xlink" viewBox="0 0 48 48"><defs><clipPath id="radarr-light_svg__b"><use xlink:href="#radarr-light_svg__a" clip-rule="evenodd"/></clipPath><path id="radarr-light_svg__a" d="M0 0h1024v1024H0z"/></defs><g clip-path="url(#radarr-light_svg__b)" transform="scale(.04688)"><use xlink:href="#radarr-light_svg__a" fill="#24292e" fill-opacity="0"/><path fill="#fff" d="m175.3 174.12 7.522 719.97c-60.173 7.579-105.3-22.736-105.3-83.364L70 212.016c0-189.46 173-234.94 278.3-159.15l534.03 310.72c75.216 53.05 90.26 151.57 52.651 219.78-7.522-53.05-30.086-83.365-75.216-113.68l-601.73-341.04c-45.13-30.315-82.738-22.736-82.738 45.471z"/><path fill="#fff" d="M130.173 931.98c45.13 15.158 90.259 7.579 127.87-15.157l616.77-363.77c37.607 53.05 30.086 106.1-15.044 136.42l-518.99 303.14c-75.216 37.893-173 0-210.6-60.629z"/><path fill="#ffc230" d="m310.69 719.77 368.56-212.2-361.04-204.62z"/></g></svg>