<svg xmlns="http://www.w3.org/2000/svg" viewBox="0 0 48 48"><path fill="#a40000" d="M38.76 29.646c-.34-15.295-25.831-14.105-23.622.68C17.178 45.111 29.243 48 29.243 48s10.027-3.229 9.517-18.354z"/><path fill="#fff" d="M19.556 38.143c7.818.68 11.387.51 17.674-2.719-.85 8.158-7.817 11.216-7.817 11.216s-7.307-2.039-9.687-8.497z"/><g fill="none" stroke="#4e9a06" stroke-width="2.549"><path d="M24.655 20.98C20.236 9.422 9.36 8.233 9.36 8.233"/><path d="M24.995 20.81c0-8.498-11.557-19.714-11.557-19.714"/><path d="M24.995 20.64c1.19-10.537-3.74-20.054-3.74-20.054"/></g></svg>