<svg xmlns="http://www.w3.org/2000/svg" viewBox="0 0 48 48"><path d="m45.454 18.012-.498-2.963c-.159-.955-.537-1.731-.815-1.731-.298 0-.537.796-.537 1.75v.776c0 .955-.796 1.75-1.75 1.75h-.936v2.129h3.084c.954 0 1.61-.776 1.452-1.71m-6.982-2.507h-9.687c-.06 0-.12 0-.16.02v-.458c0-.954-.238-1.75-.536-1.75s-.657.776-.816 1.73l-.497 2.964c-.16.955.497 1.73 1.472 1.73h2.904c.298 0 .577-.039.835-.119a1.07 1.07 0 0 1-1.054.876h-4.077c-.657 0-1.154-.597-1.055-1.253l.418-2.487c.1-.656-.398-1.253-1.054-1.253H4.836c-.437 0-.795.259-.974.637L.042 21.97a.27.27 0 0 0 .02.318l.736.875c.1.12.259.12.378.04l2.606-2.049v12.452a1.07 1.07 0 0 0 1.074 1.074h5.769a1.07 1.07 0 0 0 1.074-1.074V29.27a1.07 1.07 0 0 1 1.074-1.075h14.4a1.07 1.07 0 0 1 1.075 1.075v4.336a1.07 1.07 0 0 0 1.074 1.074h5.768a1.07 1.07 0 0 0 1.075-1.074v-4.655H33.1c-.954 0-1.75-.795-1.75-1.75v-3.004c0-.576.278-1.074.696-1.392v3.58c0 .955.796 1.75 1.75 1.75h4.715c.954 0 1.75-.795 1.75-1.75v-9.11c-.04-.994-.815-1.77-1.79-1.77m7.301-1.073c0-.776.577-1.114 1.114-1.114S48 13.656 48 14.432c0 .756-.577 1.094-1.114 1.094s-1.114-.338-1.114-1.094zm1.97 0c0-.617-.399-.875-.836-.875s-.856.258-.856.875c0 .597.418.875.856.875.437-.02.835-.278.835-.875zm-1.214-.557h.398c.199 0 .397.06.397.338 0 .16-.119.259-.258.298l.258.458h-.238l-.239-.438h-.1v.438h-.218zm.398.497c.1 0 .179-.06.179-.159 0-.12-.1-.14-.18-.14h-.198v.3z" style="fill:#2453ff"/></svg>