<svg xmlns="http://www.w3.org/2000/svg" xml:space="preserve" id="Layer_1" width="48" height="48" x="0" y="0" version="1.1"><style id="style2" type="text/css">.st0{fill:#0876a9}</style><path id="path4" d="m47.978 17.696-.519-3.128c-.173-1.007-.566-1.824-.865-1.824-.314 0-.566.833-.566 1.855v.818a1.858 1.858 0 0 1-1.855 1.855h-.99v2.232h3.238c1.022.016 1.714-.818 1.557-1.808" class="st0" style="stroke-width:1"/><path id="path6" d="M40.605 15.04H30.386c-.063 0-.125 0-.173.015v-.472c0-1.022-.251-1.855-.566-1.855-.314 0-.707.818-.864 1.824l-.519 3.128c-.173 1.006.534 1.824 1.54 1.824h3.066c.315 0 .613-.047.88-.142a1.13 1.13 0 0 1-1.1.928h-4.307a1.14 1.14 0 0 1-1.117-1.32l.44-2.61a1.131 1.131 0 0 0-1.116-1.32H5.107a1.11 1.11 0 0 0-1.021.66l-4.04 6.162c-.064.11-.064.236.015.33l.786.928a.29.29 0 0 0 .393.031l2.751-2.17v13.143c0 .629.503 1.132 1.132 1.132h6.084c.629 0 1.132-.503 1.132-1.132v-4.559c0-.629.503-1.132 1.132-1.132h15.202c.629 0 1.132.503 1.132 1.132v4.575c0 .629.503 1.132 1.132 1.132h6.083c.63 0 1.132-.503 1.132-1.132v-4.92h-3.238a1.858 1.858 0 0 1-1.855-1.856v-3.16c0-.597.298-1.132.739-1.477V26.5c0 1.021.833 1.855 1.855 1.855h4.983a1.858 1.858 0 0 0 1.855-1.855v-9.606c-.031-1.022-.864-1.855-1.886-1.855" class="st0" style="stroke-width:1"/></svg>