<svg xmlns="http://www.w3.org/2000/svg" xml:space="preserve" id="Layer_1" width="48" height="48" x="0" y="0" version="1.1"><style id="style2" type="text/css">.st0{fill:#2453ff}</style><g id="g310" style="stroke-width:4.7632" transform="translate(-.102 12.726) scale(.20994)"><g id="g8" style="stroke-width:4.7632"><path id="path4" d="m229 23.6-2.5-14.9c-.8-4.8-2.7-8.7-4.1-8.7-1.5 0-2.7 4-2.7 8.8v3.9c0 4.8-4 8.8-8.8 8.8h-4.7v10.7h15.5c4.8 0 8.1-3.9 7.3-8.6" class="st0" style="stroke-width:4.7632"/><path id="path6" d="M193.9 11h-48.7c-.3 0-.6 0-.8.1V8.8c0-4.8-1.2-8.8-2.7-8.8-1.5 0-3.3 3.9-4.1 8.7l-2.5 14.9c-.8 4.8 2.5 8.7 7.4 8.7h14.6c1.5 0 2.9-.2 4.2-.6-.5 2.5-2.6 4.4-5.3 4.4h-20.5c-3.3 0-5.8-3-5.3-6.3l2.1-12.5c.5-3.3-2-6.3-5.3-6.3H24.8c-2.2 0-4 1.3-4.9 3.2L.7 43.5c-.3.5-.3 1.1.1 1.6l3.7 4.4c.5.6 1.3.6 1.9.2l13.1-10.3V102c0 3 2.4 5.4 5.4 5.4h29c3 0 5.4-2.4 5.4-5.4V80.2c0-3 2.4-5.4 5.4-5.4h72.4c3 0 5.4 2.4 5.4 5.4V102c0 3 2.4 5.4 5.4 5.4h29c3 0 5.4-2.4 5.4-5.4V78.6h-15.4c-4.8 0-8.8-4-8.8-8.8V54.7c0-2.9 1.4-5.4 3.5-7v18c0 4.8 4 8.8 8.8 8.8h23.7c4.8 0 8.8-4 8.8-8.8V19.9c-.2-5-4.1-8.9-9-8.9" class="st0" style="stroke-width:4.7632"/></g></g></svg>