<svg xmlns="http://www.w3.org/2000/svg" viewBox="0 0 48 48"><path fill="#100f0d" d="M4.99 23.57H3.019l.426-1.92h1.823c.602 0 .953.322.953.792 0 .615-.454 1.128-1.231 1.128zm3.254-1.32c0-1.319-1.026-2.286-2.814-2.286H1.787L0 28.027h2.032l.614-2.77h1.19l1.178 2.77h2.028l-1.26-2.902c1.51-.235 2.462-1.437 2.462-2.874m3.566 2.756 1.74-2.972.658 2.972zm.916-5.043L8.01 28.027h2.027l.789-1.337 3.756.002.296 1.335h2.026l-1.777-8.063h-2.4m9.963 3.606h-1.802l.423-1.92h1.57c.615 0 .996.293.996.792 0 .615-.47 1.128-1.187 1.128zm.395-3.606h-3.43l-1.787 8.063h2.026l.62-2.772 2.264.002c1.935 0 3.108-1.452 3.108-2.977 0-1.363-1.07-2.316-2.8-2.316m6.617 0H27.67l-1.786 8.063h2.031l1.787-8.063"/><path fill="#e84c1f" d="M44.344 19.964h-6.403c.098.098.192.199.281.306.718.862 1.097 1.947 1.097 3.139 0 1.84-.781 3.499-2.035 4.618h3.922l1.861-4.596h-2.334l.391-1.782h4.63l-2.432 6.378h.952c2.223.014 3.725-1.816 3.725-4.038 0-2.223-1.432-4.025-3.655-4.025"/><path fill="#100f0d" d="M33.033 26.343h-1.12l1.04-4.692 1.056-.001c1.163 0 1.816.865 1.816 1.945 0 1.455-1.046 2.748-2.792 2.748zm4.071-5.065c-.7-.842-1.85-1.314-3.207-1.314h-2.603l-1.786 8.063h3.275c1.27 0 2.251-.28 2.997-.728 1.518-.913 2.057-2.523 2.057-3.89 0-.853-.268-1.573-.733-2.131"/></svg>