<svg xmlns="http://www.w3.org/2000/svg" viewBox="0 0 48 48"><path d="M133.28 619.306c-3.179-.096-6.604-1.252-10.487-4.273-9.516 3.615-18.74 4.871-26.988-2.486-12.737 1.628-16.877-1.731-20.014-5.651-2.795.057-20.925 2.83-29.237-9.384-20.892 2.434-27.496-12.105-20.014-25.661-4.267-6.507-8.686-12.935 1.29-25.337-3.529-6.908-1.341-14.401 6.974-23.472-2.195-9.711 2.12-16.562 9.856-21.902-1.448-13.288 12.371-21.015 16.498-23.769 1.584-7.742 4.887-15.05 20.673-19.089 2.601-11.541 12.088-13.533 21.275-15.955-30.363-17.384-56.399-40.257-56.223-96.377l-4.449-7.815c-34.813-20.854-66.136-87.88-17.156-142.357 3.2-17.055 8.565-29.303 13.343-42.858 7.146-54.629 53.78-80.208 66.08-83.234 18.024-13.522 37.219-26.353 63.196-35.342C192.385 9.47 218.913-.012 245.589.004c.391 0 .789-.006 1.18 0 26.675-.017 53.205 9.463 77.691 34.34 25.978 8.99 45.174 21.82 63.198 35.342 12.3 3.026 58.933 28.605 66.079 83.234 4.777 13.555 10.144 25.803 13.342 42.858 48.981 54.482 17.659 121.513-17.157 142.367l-4.453 7.813c.176 56.115-25.863 78.988-56.224 96.377 9.187 2.421 18.673 4.414 21.276 15.953 15.786 4.042 19.088 11.349 20.671 19.091 4.128 2.752 17.947 10.48 16.499 23.77 7.736 5.339 12.05 12.191 9.857 21.901 8.314 9.07 10.503 16.563 6.973 23.471 9.98 12.399 5.551 18.826 1.291 25.333 7.475 13.556.879 28.094-20.021 25.659-8.311 12.215-26.434 9.441-29.236 9.385-3.137 3.92-7.274 7.279-20.012 5.651-8.248 7.357-17.473 6.101-26.987 2.487-11.299 8.781-18.774 1.743-27.313-.918-13.677 4.402-16.805-1.629-23.524-4.084-14.918 3.105-19.451-3.654-26.603-10.79l-8.319.162c-22.498-13.058-33.674-39.652-37.636-53.323-3.964 13.674-15.117 40.267-37.61 53.323l-8.318-.162c-7.16 7.136-11.694 13.895-26.61 10.79-6.72 2.455-9.838 8.486-23.525 4.084-5.605 1.746-10.761 5.377-16.829 5.192l.011-.004" style="fill:#040606;fill-opacity:1;fill-rule:nonzero;stroke:none;stroke-width:.1" transform="matrix(.0775 0 0 -.0775 4.92 48)"/><path d="M88.932 561.851c59.692-30.311 94.394-54.833 113.404-75.716-9.735-38.436-60.524-40.19-79.094-39.111 3.801 1.743 6.974 3.832 8.099 7.04-4.659 3.26-21.183.344-32.718 6.727 4.43.905 6.504 1.784 8.575 5.006-10.897 3.423-22.637 6.374-29.54 12.046 3.726-.047 7.203-.821 12.07 2.503-9.762 5.182-20.178 9.287-28.27 17.208 5.046.12 10.487.05 12.07 1.877-8.934 5.451-16.473 11.515-22.713 18.147 7.064-.84 10.046-.117 11.754 1.095-6.754 6.812-15.302 12.566-19.377 20.963 5.244-1.781 10.042-2.463 13.501.156-2.295 5.101-12.128 8.108-17.79 20.024 5.522-.526 11.377-1.185 12.549 0-2.564 10.283-6.96 16.066-11.273 22.055 11.815.172 29.717-.046 28.907.939l-7.305 7.353c11.54 3.06 23.35-.492 31.924-3.13 3.849 2.992-.069 6.776-4.765 10.64 9.808-1.292 18.671-3.513 26.681-6.573 4.282 3.808-2.777 7.615-6.194 11.421 15.154-2.832 21.575-6.81 27.954-10.795 4.63 4.371.265 8.085-2.859 11.889 11.426-4.168 17.312-9.549 23.507-14.861 2.101 2.792 5.337 4.839 1.43 11.577 8.111-4.606 14.22-10.033 18.742-16.113 5.019 3.147 2.99 7.453 3.017 11.42 8.43-6.756 13.781-13.944 20.331-20.963 1.318.945 2.474 4.155 3.493 9.23 20.112-19.22 48.532-67.63 7.306-86.824-35.087 28.503-76.991 49.221-123.428 64.762l.012.008m316.157 0c-59.687-30.316-94.387-54.829-113.398-75.716 9.736-38.436 60.526-40.19 79.096-39.111-3.803 1.743-6.974 3.832-8.099 7.04 4.66 3.26 21.183.344 32.718 6.727-4.43.905-6.504 1.784-8.576 5.006 10.899 3.423 22.638 6.374 29.542 12.046-3.726-.047-7.206-.821-12.071 2.503 9.761 5.182 20.178 9.287 28.27 17.208-5.047.12-10.487.05-12.071 1.877 8.937 5.451 16.475 11.515 22.714 18.147-7.063-.84-10.045-.117-11.754 1.095 6.755 6.812 15.302 12.566 19.378 20.963-5.244-1.781-10.042-2.463-13.501.156 2.295 5.101 12.127 8.108 17.788 20.024-5.521-.526-11.375-1.185-12.547 0 2.567 10.288 6.965 16.07 11.276 22.06-11.816.172-29.716-.046-28.908.938l7.309 7.352c-11.543 3.061-23.352-.49-31.926-3.128-3.848 2.992.068 6.776 4.764 10.637-9.808-1.289-18.671-3.51-26.682-6.57-4.28 3.806 2.779 7.613 6.194 11.42-15.153-2.832-21.573-6.811-27.954-10.794-4.629 4.37-.263 8.085 2.86 11.888-11.426-4.167-17.312-9.548-23.506-14.86-2.101 2.792-5.336 4.838-1.43 11.577-8.113-4.607-14.221-10.034-18.741-16.114-5.02 3.148-2.991 7.453-3.019 11.419-8.43-6.754-13.782-13.943-20.329-20.962-1.319.946-2.474 4.156-3.495 9.23-20.113-19.22-48.534-67.63-7.305-86.824 35.068 28.509 76.969 49.226 123.41 64.766h-.007" style="fill:#63c54d;fill-opacity:1;fill-rule:nonzero;stroke:none;stroke-width:.1" transform="matrix(.0775 0 0 -.0775 4.92 48)"/><path d="M319.2 170.472c.208-35.864-31.636-65.093-71.123-65.282-39.487-.189-71.668 28.732-71.876 64.598v.684c-.207 35.866 31.635 65.095 71.124 65.283 39.487.189 71.668-28.731 71.875-64.598v-.685M207.717 355.987c29.627-19.117 34.968-62.454 11.93-96.792-23.038-34.339-65.731-46.68-95.356-27.562-29.626 19.119-34.968 62.456-11.929 96.796 23.038 34.338 65.73 46.678 95.355 27.558m79.965 3.462c-29.627-19.118-34.967-62.456-11.929-96.793 23.039-34.339 65.73-46.68 95.356-27.561 29.627 19.118 34.968 62.455 11.93 96.795-23.038 34.339-65.73 46.678-95.357 27.559M61.48 324.531c31.984 8.445 10.798-130.341-15.226-118.954-28.63 22.681-37.85 89.101 15.226 118.954m369.641 1.731c-31.988 8.442-10.798-130.348 15.229-118.961 28.627 22.682 37.847 89.108-15.229 118.961m-107.277 103.55c55.199 9.181 101.131-23.121 99.277-82.08-1.815-22.603-119.615 78.715-99.277 82.08m-152.515 1.731c-55.204 9.181-101.131-23.129-99.277-82.082 1.814-22.602 119.614 78.716 99.277 82.082m76.049 13.749c-32.946.844-64.564-24.085-64.641-38.543-.092-17.569 26.048-35.558 64.865-36.015 39.641-.279 64.934 14.399 65.062 32.531.146 20.543-36.052 42.345-65.286 42.029v-.002m2.545-360.275c28.723 1.236 67.267-9.112 67.343-22.839.477-13.33-34.956-43.448-69.248-42.867-35.516-1.508-70.339 28.655-69.883 39.11-.532 15.331 43.244 27.299 71.788 26.596m-106.304 81.357c20.449-24.269 29.772-66.905 12.707-79.472-16.147-9.596-55.357-5.645-83.228 33.792-18.792 33.088-16.372 66.763-3.174 76.653 19.734 11.842 50.225-4.152 73.695-30.973m205.897 7.691c-22.127-25.527-34.449-72.088-18.307-87.083 15.433-11.649 56.864-10.02 87.469 31.805 22.221 28.091 14.775 75.007 2.083 87.464-18.858 14.366-45.926-4.019-71.245-32.178v-.008" style="fill:#c51850;fill-opacity:1;fill-rule:nonzero;stroke:none;stroke-width:.1" transform="matrix(.0775 0 0 -.0775 4.92 48)"/></svg>