<svg xmlns="http://www.w3.org/2000/svg" viewBox="0 0 48 48"><defs><clipPath id="raspberrypi_svg__a"><path d="M101.34 147.43h250.81v315.49H101.34z"/></clipPath></defs><g clip-path="url(#raspberrypi_svg__a)" transform="matrix(.15215 0 0 -.15215 -10.499 70.432)"><path fill="#020203" d="M169.24 462.92c-1.62-.049-3.364-.638-5.342-2.176-4.848 1.841-9.547 2.481-13.748-1.267-6.489.829-8.598-.881-10.196-2.879-1.424.029-10.659 1.442-14.894-4.78-10.642 1.24-14.006-6.166-10.195-13.072-2.173-3.314-4.425-6.589.657-12.907-1.797-3.519-.683-7.336 3.553-11.957-1.118-4.947 1.08-8.437 5.02-11.157-.737-6.769 6.303-10.705 8.405-12.108.807-3.944 2.49-7.667 10.531-9.725 1.325-5.879 6.158-6.893 10.838-8.127-15.468-8.855-28.73-20.507-28.641-49.095l-2.266-3.981c-17.734-10.624-33.69-44.767-8.739-72.519 1.629-8.688 4.362-14.927 6.796-21.833 3.64-27.828 27.396-40.858 33.663-42.4 9.181-6.888 18.959-13.424 32.192-18.003 12.475-12.672 25.988-17.502 39.578-17.494.199 0 .401-.003.601 0 13.588-.008 27.102 4.821 39.576 17.494 13.233 4.579 23.013 11.115 32.194 18.003 6.266 1.542 30.021 14.572 33.662 42.4 2.433 6.906 5.167 13.145 6.796 21.833 24.951 27.754 8.996 61.9-8.74 72.523l-2.269 3.98c.09 28.586-13.174 40.238-28.64 49.096 4.679 1.234 9.512 2.248 10.837 8.127 8.042 2.059 9.724 5.781 10.531 9.725 2.103 1.402 9.142 5.338 8.405 12.108 3.94 2.72 6.138 6.211 5.021 11.157 4.235 4.62 5.35 8.437 3.552 11.956 5.084 6.317 2.828 9.591.657 12.905 3.809 6.906.449 14.312-10.198 13.072-4.234 6.222-13.466 4.809-14.894 4.78-1.597 1.997-3.705 3.708-10.194 2.879-4.201 3.748-8.901 3.108-13.748 1.267-5.755 4.473-9.563.888-13.913-.467-6.967 2.242-8.561-.83-11.984-2.081-7.599 1.581-9.908-1.862-13.551-5.497l-4.238.083c-11.461-6.652-17.154-20.199-19.173-27.164-2.018 6.966-7.7 20.513-19.158 27.164l-4.237-.083c-3.648 3.635-5.958 7.078-13.556 5.497-3.423 1.251-5.012 4.323-11.984 2.081-2.855.889-5.481 2.738-8.573 2.644z"/><path fill="#68bf4b" d="M146.65 433.65c30.408-15.441 48.085-27.933 57.769-38.571-4.959-19.579-30.831-20.472-40.291-19.923 1.936.888 3.553 1.952 4.126 3.586-2.374 1.661-10.791.175-16.667 3.427 2.256.461 3.313.909 4.368 2.55-5.551 1.744-11.532 3.247-15.048 6.137 1.898-.025 3.669-.419 6.148 1.275-4.972 2.639-10.278 4.731-14.401 8.765 2.57.062 5.343.026 6.148.957-4.55 2.777-8.391 5.866-11.57 9.244 3.599-.428 5.118-.06 5.988.558-3.44 3.47-7.795 6.401-9.871 10.678 2.672-.907 5.116-1.254 6.878.08-1.17 2.598-6.178 4.13-9.062 10.201 2.813-.269 5.795-.604 6.392 0-1.306 5.238-3.545 8.184-5.742 11.235 6.018.087 15.138-.023 14.725.478l-3.721 3.745c5.879 1.56 11.894-.25 16.262-1.593 1.961 1.523-.035 3.451-2.427 5.419 4.996-.658 9.511-1.789 13.592-3.348 2.181 1.94-1.415 3.879-3.156 5.818 7.72-1.442 10.991-3.469 14.24-5.499 2.359 2.227.135 4.118-1.456 6.057 5.821-2.124 8.819-4.865 11.975-7.571 1.07 1.423 2.719 2.465.728 5.897 4.132-2.346 7.244-5.111 9.548-8.208 2.556 1.604 1.523 3.797 1.537 5.818 4.294-3.442 7.02-7.104 10.356-10.679.672.481 1.261 2.116 1.78 4.702 10.245-9.791 24.723-34.451 3.722-44.23-17.874 14.52-39.221 25.074-62.876 32.991zm161.05 0c-30.405-15.443-48.082-27.931-57.766-38.571 4.959-19.579 30.832-20.472 40.292-19.923-1.937.888-3.552 1.952-4.125 3.586 2.373 1.661 10.79.175 16.666 3.427-2.256.461-3.313.909-4.368 2.55 5.552 1.744 11.532 3.247 15.049 6.137-1.898-.025-3.671-.419-6.149 1.275 4.972 2.639 10.279 4.731 14.401 8.765-2.571.062-5.343.026-6.149.957 4.552 2.777 8.392 5.866 11.57 9.244-3.598-.428-5.117-.06-5.987.558 3.441 3.47 7.795 6.401 9.871 10.678-2.671-.907-5.115-1.254-6.877.08 1.169 2.598 6.177 4.13 9.061 10.201-2.812-.269-5.795-.604-6.392 0 1.308 5.24 3.548 8.186 5.744 11.237-6.019.088-15.137-.023-14.726.478l3.724 3.745c-5.88 1.559-11.896-.25-16.264-1.593-1.96 1.524.035 3.451 2.427 5.419-4.996-.657-9.511-1.789-13.592-3.348-2.18 1.94 1.416 3.879 3.156 5.818-7.72-1.442-10.99-3.47-14.241-5.499-2.357 2.226-.134 4.119 1.457 6.057-5.821-2.123-8.819-4.865-11.974-7.571-1.07 1.423-2.718 2.465-.729 5.898-4.133-2.347-7.244-5.112-9.547-8.209-2.556 1.604-1.523 3.797-1.537 5.818-4.295-3.442-7.021-7.103-10.356-10.679-.672.482-1.261 2.117-1.781 4.702-10.245-9.791-24.723-34.452-3.721-44.23 17.864 14.523 39.209 25.077 62.867 32.993z"/><path fill="#c21e4a" d="M263.95 234.28c.106-18.27-16.116-33.159-36.231-33.255-20.115-.097-36.508 14.636-36.614 32.906a20.3 20.3 0 0 0 0 .349c-.106 18.27 16.115 33.16 36.231 33.256 20.115.096 36.509-14.636 36.614-32.907v-.349m-56.79 94.5c15.092-9.739 17.813-31.815 6.077-49.307-11.736-17.493-33.484-23.78-48.576-14.04-15.092 9.739-17.812 31.815-6.076 49.308s33.484 23.778 48.575 14.039m40.73 1.76c-15.092-9.739-17.813-31.816-6.077-49.307 11.737-17.493 33.484-23.78 48.576-14.04 15.092 9.739 17.813 31.815 6.077 49.308s-33.484 23.778-48.576 14.039m-115.23-17.79c16.293 4.302 5.501-66.397-7.756-60.597-14.584 11.554-19.282 45.39 7.756 60.597m188.3.89c-16.295 4.3-5.501-66.401 7.758-60.6 14.582 11.554 19.28 45.393-7.758 60.6m-54.64 52.75c28.119 4.677 51.517-11.779 50.573-41.813-.925-11.514-60.933 40.099-50.573 41.813m-77.7.88c-28.122 4.677-51.517-11.782-50.573-41.814.924-11.513 60.933 40.099 50.573 41.814m38.74 7c-16.783.43-32.89-12.269-32.929-19.634-.047-8.95 13.269-18.114 33.043-18.347 20.194-.141 33.078 7.336 33.143 16.572.075 10.465-18.365 21.571-33.257 21.41zm1.3-183.53c14.632.629 34.267-4.642 34.305-11.634.243-6.791-17.807-22.133-35.276-21.837-18.092-.769-35.831 14.597-35.599 19.923-.271 7.809 22.029 13.906 36.57 13.548m-54.15 41.45c10.417-12.363 15.166-34.082 6.473-40.484-8.225-4.888-28.199-2.875-42.397 17.214-9.573 16.855-8.34 34.01-1.617 39.048 10.053 6.032 25.585-2.115 37.541-15.778m104.88 3.92c-11.272-13.004-17.548-36.722-9.326-44.361 7.862-5.934 28.968-5.105 44.558 16.202 11.32 14.31 7.527 38.209 1.061 44.555-9.606 7.318-23.395-2.047-36.293-16.392z"/><path fill="#1e1f1d" d="M335.41 357.31c-7.681 0-13.907 6.224-13.907 13.907 0 7.688 6.226 13.908 13.907 13.908s13.908-6.22 13.908-13.908c0-7.683-6.227-13.907-13.908-13.907m0 30.598c-9.219 0-16.688-7.472-16.688-16.691 0-9.214 7.469-16.686 16.688-16.686s16.689 7.472 16.689 16.686c0 9.219-7.47 16.691-16.689 16.691"/><path fill="#1e1f1d" d="M332.31 372.28h4.298c1.751 0 2.699.753 2.699 2.553 0 1.718-.948 2.471-2.699 2.471h-4.298zm-3.923 8.072h9.622c3.201 0 5.223-2.222 5.223-4.914 0-2.107-.849-3.681-2.824-4.482v-.048c1.925-.5 2.472-2.371 2.599-4.175.075-1.124.051-3.221.752-4.224h-3.924c-.477 1.128-.427 2.846-.627 4.276-.273 1.876-.998 2.697-2.972 2.697h-3.926v-6.973h-3.923z"/></g></svg>