<svg xmlns="http://www.w3.org/2000/svg" viewBox="0 0 48 48"><g stroke-width="5.333" transform="translate(-86.077 -278.48) scale(.72334)"><path fill="none" d="M119 385h66.359v66.359H119z"/><clipPath id="rclone_svg__a"><path d="M119 385h66.359v66.359H119z"/></clipPath><g clip-path="url(#rclone_svg__a)"><path fill="#70caf2" d="M182.64 419.202a20.185 20.185 0 0 0-8.66-8.084 22.085 22.085 0 0 1-2.585 6.99l-2.031 3.523a8.786 8.786 0 0 1 3.36 3.296 8.836 8.836 0 0 1-3.234 12.069 8.836 8.836 0 0 1-12.07-3.234l-4.097-7.086h-6.612l-3.306 5.726 4.1 7.085c5.602 9.703 18.008 13.027 27.71 7.425 9.702-5.602 13.026-18.007 7.425-27.71"/><path fill="#b4e3f9" d="M162.32 389.447c-9.703-5.601-22.108-2.277-27.71 7.425a20.181 20.181 0 0 0-2.67 11.542 22.084 22.084 0 0 1 7.345-1.256l4.066-.003a8.788 8.788 0 0 1 1.174-4.557 8.836 8.836 0 0 1 12.07-3.234 8.835 8.835 0 0 1 3.234 12.069l-4.087 7.091 3.305 5.727h6.612l4.086-7.094c5.602-9.702 2.278-22.109-7.425-27.71"/><path fill="#3f79ad" d="m145.86 440.435-2.037-3.52a8.779 8.779 0 0 1-4.533 1.262 8.836 8.836 0 1 1 0-17.671l8.184-.006 3.307-5.726-3.307-5.726-8.185.008c-11.204 0-20.285 9.082-20.285 20.285s9.081 20.286 20.285 20.286a20.193 20.193 0 0 0 11.327-3.456 22.099 22.099 0 0 1-4.756-5.736"/></g></g></svg>