
<svg xmlns="http://www.w3.org/2000/svg" version="1.1" xmlns:xlink="http://www.w3.org/1999/xlink" preserveAspectRatio="none" x="0px" y="0px" width="48px" height="48px" viewBox="0 0 48 48">
<defs>
<g id="Layer0_0_FILL">
<path fill="#B8D995" stroke="none" d="
M 40.2 8.6
Q 40.05078125 8.45078125 39.9 8.3 33.3 1.7 23.95 1.7 14.6 1.7 7.95 8.3 1.35 14.95 1.35 24.3 1.35 33.65 7.95 40.25 9.5318359375 41.8318359375 11.25 43
L 8.7 38.25 15.35 42.55
Q 11.6244140625 38.6794921875 10.05 35.2 6.45 30.6869140625 6.45 24.7 6.45 17.65 11.45 12.65 16.45 7.65 23.5 7.65 26.5951171875 7.65 29.3 8.6 29.5291015625 8.70625 29.75 8.8
L 29.95 8.85
Q 35.35234375 9.4763671875 41.6 12.95
L 36.2 7.65 40.2 8.6 Z"/>

<path fill="#9FD1EC" stroke="none" d="
M 44.45 21.6
L 42.65 14.45
Q 42.441796875 20.3392578125 40.45 26.6 40.4125 26.9375 40.35 27.25 39.6216796875 32.6783203125 35.55 36.75 30.55 41.75 23.5 41.75 16.45 41.75 11.45 36.75 10.6958984375 35.9958984375 10.05 35.2 11.6244140625 38.6794921875 15.35 42.55
L 8.7 38.25 11.25 43
Q 16.8240234375 46.9 23.95 46.9 33.3 46.9 39.9 40.25 46.55 33.65 46.55 24.3 46.55 21.63984375 46 19.2
L 44.45 21.6 Z"/>
</g>

<path id="Layer0_0_1_STROKES" stroke="#9FD1EC" stroke-width="0.1" stroke-linejoin="round" stroke-linecap="round" fill="none" d="
M 10.05 35.2
Q 10.6958984375 35.9958984375 11.45 36.75 16.45 41.75 23.5 41.75 30.55 41.75 35.55 36.75 39.6216796875 32.6783203125 40.375 27.25 40.4125 26.9375 40.45 26.625 42.441796875 20.3392578125 42.65 14.45
L 44.45 21.6 46 19.2
Q 46.55 21.63984375 46.55 24.3 46.55 33.65 39.9 40.25 33.3 46.9 23.95 46.9 16.8240234375 46.9 11.275 43.025"/>

<path id="Layer0_0_2_STROKES" stroke="#B8D995" stroke-width="0.1" stroke-linejoin="round" stroke-linecap="round" fill="none" d="
M 11.275 43.025
Q 9.5318359375 41.8318359375 7.95 40.25 1.35 33.65 1.35 24.3 1.35 14.95 7.95 8.3 14.6 1.7 23.95 1.7 33.3 1.7 39.9 8.3 40.05078125 8.45078125 40.2 8.6
L 36.2 7.65 41.6 12.95
Q 35.35234375 9.4763671875 29.95 8.875
L 29.75 8.8
Q 29.5291015625 8.70625 29.3 8.625 26.5951171875 7.65 23.5 7.65 16.45 7.65 11.45 12.65 6.45 17.65 6.45 24.7 6.45 30.6869140625 10.05 35.2 11.6244140625 38.6794921875 15.35 42.55
L 8.7 38.25 11.275 43.025 Z"/>
</defs>

<g transform="matrix( 1, 0, 0, 1, 0,0) ">
<use xlink:href="#Layer0_0_FILL"/>

<use xlink:href="#Layer0_0_1_STROKES"/>

<use xlink:href="#Layer0_0_2_STROKES"/>
</g>
</svg>
