<svg xmlns="http://www.w3.org/2000/svg" viewBox="0 0 48 48"><path d="M144.7 87.11c1.57 7.43 1.57 8.21 1.57 9.19 0 12.71-14.28 19.75-33.05 19.75-42.43 0-79.59-24.83-79.59-41.26A16.78 16.78 0 0 1 35 68.14c-15.25.78-35 3.52-35 20.92 0 28.55 67.66 63.75 121.24 63.75 41.06 0 51.43-18.57 51.43-33.24 0-11.54-10-24.64-28-32.46m-29.49 10.36c11.34 0 27.76-2.34 27.76-15.84a12.92 12.92 0 0 0-.28-3.1l-6.75-29.36c-1.57-6.45-2.94-9.38-14.28-15.05-8.8-4.5-28-11.93-33.63-11.93-5.28 0-6.85 6.84-13.11 6.84C68.83 29 64.34 24 58.67 24c-5.48 0-9 3.71-11.74 11.34 0 0-7.62 21.51-8.6 24.64a5.48 5.48 0 0 0-.2 1.76c0 8.36 32.92 35.78 77.05 35.78" style="fill:#e00" transform="translate(0 -.324) scale(.27799)"/><path d="M40.225 23.892c.436 2.065.436 2.282.436 2.554 0 3.533-3.97 5.49-9.187 5.49-11.795 0-22.125-6.902-22.125-11.47a4.665 4.665 0 0 1 .38-1.848l.926-2.282a1.523 1.523 0 0 0-.055.49c0 2.323 9.151 9.946 21.419 9.946 3.152 0 7.716-.651 7.716-4.404a3.592 3.592 0 0 0-.077-.862l.556 2.386z"/></svg>