<svg xmlns="http://www.w3.org/2000/svg" viewBox="0 0 48 48"><path fill="#c22133" d="M48 13.205a21.874 21.874 0 0 0-1.88-3.19l-7.706 2.804a14.405 14.405 0 0 1 2.265 3.05zm-34.061 8.522L6.23 24.532c.098 1.236.312 2.457.61 3.653l7.323-2.666a14.328 14.328 0 0 1-.225-3.792"/><path fill="#db212e" d="M31.044 11.022a14.265 14.265 0 0 1 4.163 2.964l7.706-2.804a21.907 21.907 0 0 0-8.604-7.16C23.293-1.115 10.15 3.668 5.015 14.684A21.88 21.88 0 0 0 3.025 25.7l7.706-2.805c.128-1.67.535-3.343 1.282-4.948 3.338-7.156 11.875-10.262 19.032-6.925m8.218 14.081a14.132 14.132 0 0 1-1.294 4.948c-3.336 7.158-11.874 10.263-19.03 6.927a14.177 14.177 0 0 1-4.171-2.96l-7.69 2.798a21.856 21.856 0 0 0 8.598 7.162c11.016 5.136 24.156.353 29.293-10.663a21.817 21.817 0 0 0 1.984-11.01z"/><path fill="#eb2126" d="m41.157 15.695-7.322 2.665a14.366 14.366 0 0 1 1.792 8.064l7.69-2.797a22.206 22.206 0 0 0-2.16-7.932M7.321 28.009 0 30.675a22.29 22.29 0 0 0 3.444 7.464l7.688-2.8a14.391 14.391 0 0 1-3.81-7.33"/><path fill="#ad213b" d="M46.883 11.174a21.007 21.007 0 0 0-.763-1.16l-7.705 2.805c.338.347.65.715.948 1.093zm-32.974 12.1c-.02-.514-.011-1.03.029-1.547L6.23 24.531c.04.494.102.984.176 1.473l7.503-2.73z"/><path fill="#ba2133" d="m46.953 22.305-7.69 2.798a14.07 14.07 0 0 1-.65 3.308l8.37-3.052c.06-1.023.05-2.043-.03-3.054M7.078 36.818a21.827 21.827 0 0 0 1.96 2.38l8.371-3.054a14.23 14.23 0 0 1-2.642-2.126z"/></svg>