<svg xmlns="http://www.w3.org/2000/svg" viewBox="0 0 48 48"><defs><clipPath id="redis_svg__clip-path" transform="translate(.01 .01)"><path d="M0 0h146.42v125.48H0z" style="fill:none"/></clipPath><style>.redis_svg__cls-3{fill:#a32422}.redis_svg__cls-4{fill:#dc382c}</style></defs><g clip-path="url(#redis_svg__clip-path)" style="clip-path:url(#redis_svg__clip-path)" transform="translate(0 3.43) scale(.32785)"><path d="M140.67 96.75c-7.8 4.08-48.28 20.73-57 25.3s-13.39 4.44-20.21 1.18-49.75-20.72-57.53-24.44C2.01 96.95.01 95.38.01 93.91V79.1s56.08-12.17 65.13-15.45 12.18-3.36 19.87-.54 53.79 11.14 61.4 13.9v14.6c0 1.52-1.75 3-5.74 5.13z" class="redis_svg__cls-3"/><path d="M140.67 82.01c-7.8 4.06-48.28 20.71-57 25.2s-13.39 4.45-20.21 1.2S13.71 87.7 5.93 84.01s-7.93-6.27-.3-9.25 50.46-19.75 59.51-23.05 12.18-3.37 19.87-.54 48 18.84 55.57 21.63 7.92 5.08.09 9.13z" class="redis_svg__cls-4"/><path d="M140.67 72.63c-7.8 4.07-48.28 20.71-57 25.2s-13.35 4.45-20.17 1.18S13.71 78.38 5.93 74.67C2.01 72.81.01 71.25.01 69.77V55.01S56.09 42.8 65.14 39.52s12.18-3.37 19.87-.51 53.79 11.1 61.4 13.88v14.6c0 1.52-1.75 3.04-5.74 5.14z" class="redis_svg__cls-3"/><path d="M140.67 57.82c-7.8 4.08-48.28 20.72-57 25.21s-13.39 4.46-20.21 1.2S13.71 63.58 5.93 59.86s-7.92-6.25-.3-9.23 50.46-19.79 59.51-23 12.18-3.41 19.87-.62 48 18.94 55.57 21.65 7.92 5.09.09 9.13z" class="redis_svg__cls-4"/><path d="M140.67 47.6c-7.8 4.08-48.28 20.73-57 25.21s-13.35 4.45-20.17 1.2S13.71 53.35 5.93 49.64C2.01 47.8.01 46.23.01 44.75V29.94S56.09 17.77 65.14 14.5s12.18-3.37 19.87-.55 53.77 11.14 61.38 13.92v14.6c.02 1.54-1.73 3.04-5.72 5.13z" class="redis_svg__cls-3"/><path d="M140.67 32.81c-7.8 4-48.28 20.75-57 25.2s-13.39 4.44-20.21 1.2S13.71 38.54 5.93 34.84s-7.93-6.27-.3-9.25S56.09 5.81 65.14 2.55s12.18-3.36 19.87-.54 48 18.85 55.57 21.63 7.92 5.09.09 9.14z" class="redis_svg__cls-4"/></g><path d="m27.064 8.306 3.223 1.207-4.154.432-.934 2.243-1.502-2.502-4.803-.432 3.587-1.292-1.079-1.987 3.354 1.318 3.167-1.04zm-2.108 12.078-7.764-3.223 11.121-1.708zm-10.763-9.626c3.278 0 5.944 1.033 5.944 2.295s-2.672 2.295-5.944 2.295-5.948-1.032-5.948-2.295 2.666-2.295 5.948-2.295z" style="fill:#fff"/><path d="m107.39 20.42 20.07 7.93-20.05 7.93z" style="fill:#741113" transform="translate(0 3.43) scale(.32785)"/><path d="m107.39 20.42.02 15.86-2.18.85-20.06-7.93z" style="fill:#ac2724" transform="translate(0 3.43) scale(.32785)"/></svg>