
<svg xmlns="http://www.w3.org/2000/svg" version="1.1" xmlns:xlink="http://www.w3.org/1999/xlink" preserveAspectRatio="none" x="0px" y="0px" width="48px" height="48px" viewBox="0 0 48 48">
<defs>
<g id="Layer0_0_FILL">
<path fill="#1D90F1" stroke="none" d="
M 25.6 30.65
Q 26.25 30 26.25 29.1 26.25 28.2 25.6 27.55 24.95 26.9 24.05 26.9 23.15 26.9 22.5 27.55 21.85 28.2 21.85 29.1 21.85 30 22.5 30.65 23.15 31.3 24.05 31.3 24.95 31.3 25.6 30.65
M 26.15 17.85
Q 26.15 16.95 25.5 16.3 24.9 15.7 24 15.7 23.1 15.7 22.45 16.3 21.85 16.95 21.85 17.85 21.85 18.75 22.45 19.35 23.1 20 24 20 24.9 20 25.5 19.35 26.15 18.75 26.15 17.85
M 40.5 23.6
L 46.85 7.45 33.95 7.45 27.35 23.6 33.95 40.1 46.85 40.1 40.5 23.6
M 1.1 7.45
L 7.55 23.6 1.1 40.1 14.15 40.1 20.6 23.6 14.15 7.45 1.1 7.45 Z"/>
</g>

<path id="Layer0_0_1_STROKES" stroke="#1D90F1" stroke-width="0.1" stroke-linejoin="round" stroke-linecap="round" fill="none" d="
M 33.95 7.45
L 27.35 23.6 33.95 40.1 46.85 40.1 40.5 23.6 46.85 7.45 33.95 7.45 Z
M 26.15 17.85
Q 26.15 18.75 25.5 19.35 24.9 20 24 20 23.1 20 22.45 19.35 21.85 18.75 21.85 17.85 21.85 16.95 22.45 16.3 23.1 15.7 24 15.7 24.9 15.7 25.5 16.3 26.15 16.95 26.15 17.85 Z
M 1.1 7.45
L 14.15 7.45 20.6 23.6 14.15 40.1 1.1 40.1 7.55 23.6 1.1 7.45 Z
M 26.25 29.1
Q 26.25 30 25.6 30.65 24.95 31.3 24.05 31.3 23.15 31.3 22.5 30.65 21.85 30 21.85 29.1 21.85 28.2 22.5 27.55 23.15 26.9 24.05 26.9 24.95 26.9 25.6 27.55 26.25 28.2 26.25 29.1 Z"/>
</defs>

<g transform="matrix( 1, 0, 0, 1, 0,0) ">
<use xlink:href="#Layer0_0_FILL"/>

<use xlink:href="#Layer0_0_1_STROKES"/>
</g>
</svg>
