<svg xmlns="http://www.w3.org/2000/svg" version="1.0" viewBox="0 0 48 48"><style>.reolink_svg__st6{fill:#1ea2e9}</style><path d="M5.892 8.225C14.605-1.762 29.763-2.8 39.756 5.913a24 24 0 0 1 7.348 11.66c3.279 11.809-2.876 24.193-14.266 28.719a24.9 24.9 0 0 1-9.552 1.704c-7.756-.113-15.513 0-23.269-.102V23.668A23.74 23.74 0 0 1 5.892 8.225m6.757 4.467A16.04 16.04 0 0 0 7.95 24.07c-.027 5.278 0 10.562 0 15.84 4.73.146 9.46 0 14.19.108 2.548.07 5.15-.102 7.526-1.075 8.267-3.14 12.427-12.384 9.288-20.652S26.571 5.865 18.304 9.004a16 16 0 0 0-5.666 3.671z" class="reolink_svg__st6"/><path d="M17.142 14.895c5-3.805 12.138-2.843 15.949 2.161s2.843 12.137-2.161 15.948a11.4 11.4 0 0 1-6.51 2.323c-3.94.043-7.874-.081-11.825-.043V23.662a11.33 11.33 0 0 1 4.547-8.767" class="reolink_svg__st6"/></svg>
