<svg xmlns="http://www.w3.org/2000/svg" viewBox="0 0 48 48"><g fill="#f5455c"><path d="M45.812 16.764c-1.302-2.021-3.126-3.81-5.42-5.32-4.431-2.912-10.254-4.516-16.396-4.516a34 34 0 0 0-6.035.532 20 20 0 0 0-4.149-3.06C8.22 1.612 3.29 2.65.8 3.546-.019 3.84-.27 4.875.334 5.499c1.756 1.813 4.662 5.395 3.948 8.653-2.777 2.835-4.283 6.253-4.283 9.813 0 3.627 1.506 7.045 4.283 9.88.714 3.258-2.192 6.842-3.948 8.655-.604.622-.353 1.657.465 1.951 2.49.896 7.42 1.936 13.015-.852a20 20 0 0 0 4.149-3.06c1.962.353 3.983.532 6.035.532 6.143 0 11.966-1.603 16.396-4.514 2.294-1.51 4.118-3.297 5.42-5.32 1.45-2.252 2.184-4.677 2.184-7.203-.001-2.594-.736-5.017-2.186-7.27M23.746 36.869c-2.655 0-5.187-.343-7.494-.962l-1.687 1.622a15.5 15.5 0 0 1-3.112 2.307c-1.484.726-2.95 1.124-4.4 1.243.081-.148.157-.298.237-.448q2.536-4.656 1.368-8.369c-2.764-2.17-4.422-4.95-4.422-7.978 0-6.95 8.735-12.583 19.51-12.583S43.26 17.335 43.26 24.284c0 6.95-8.735 12.585-19.513 12.585z"/><path d="M14.413 21.39c-1.589 0-2.876 1.278-2.876 2.853s1.287 2.853 2.876 2.853 2.875-1.277 2.875-2.853-1.287-2.852-2.875-2.852M23.667 21.39c-1.588 0-2.875 1.278-2.875 2.853s1.287 2.853 2.875 2.853 2.876-1.277 2.876-2.853-1.287-2.852-2.876-2.852M32.925 21.39c-1.588 0-2.876 1.278-2.876 2.853s1.288 2.853 2.876 2.853S35.8 25.82 35.8 24.243s-1.287-2.852-2.875-2.852"/></g></svg>
