<svg xmlns="http://www.w3.org/2000/svg" viewBox="0 0 48 48"><defs><clipPath id="romm_svg__a"><path d="M36.488 0h302.25v302.25H36.488z"/></clipPath><clipPath id="romm_svg__b"><path d="M187.61 0C104.126 0 36.49 67.641 36.49 151.12c0 83.484 67.641 151.12 151.12 151.12 83.484 0 151.12-67.641 151.12-151.12C338.73 67.636 271.089 0 187.61 0zm0 252.13c-46.754 0-85.938-31.754-97.5-74.863 16.543-1.75 35.324-1.824 55.512 1.543l-.277.14c10.44 1.75 19.977 7.36 26.215 16.122l18.715 26.008c9.113 12.688 26.285 17.379 41.004 10.094 15.14-7.5 21.098-26.078 15.21-41.922-12.894-34.762-31.12-83.41-35.468-92.52-11.984-25.098-44.156-26.711-65.465-11.988-.282.207-.633.351-.91.562-.075.067-.145.067-.211.137-3.02 2.035-6.735 3.578-10.586 4.555-10.164 3.714-20.54 5.328-30.7 5.609 18.083-27.406 49.063-45.562 84.392-45.562 55.793 0 101.01 45.21 101.01 101.01 0 55.793-45.141 101.08-100.94 101.08z"/></clipPath><clipPath id="romm_svg__d"><path d="M41.188 177.34H95.86v43.949H41.188z"/></clipPath><clipPath id="romm_svg__e"><path d="M90.113 177.34c-20.328 2.098-37.363 6.727-48.926 10.723a144.826 144.826 0 0 0 5.184 16.473c.14.348.21.629.351.977 2.031 5.402 4.414 10.656 7.078 15.777 11.004-15.984 27.477-23.973 42.06-28.043-2.317-5.047-4.278-10.371-5.747-15.906z"/></clipPath><clipPath id="romm_svg__g"><path d="M51.137 60.141h59.582v35.773H51.137z"/></clipPath><clipPath id="romm_svg__h"><path d="M103.22 95.609c2.316-3.438 4.77-6.797 7.5-9.883h-.07S84.787 79.628 67.189 60.14a144.685 144.685 0 0 0-8.617 12.758l-.07.07a171.032 171.032 0 0 0-7.364 13.599c13.879 4.91 32.523 9.464 52.082 9.043z"/></clipPath><linearGradient id="romm_svg__c" x1="284.94" x2="795.06" y1="687.26" y2="392.74" gradientTransform="translate(-190.9 -227.39) scale(.70095)" gradientUnits="userSpaceOnUse"><stop offset="0" stop-color="#3900cd"/><stop offset=".125" stop-color="#3900cd"/><stop offset=".133" stop-color="#3900cd"/><stop offset=".137" stop-color="#3a00cd"/><stop offset=".141" stop-color="#3b00cd"/><stop offset=".145" stop-color="#3c00cd"/><stop offset=".148" stop-color="#3d00ce"/><stop offset=".152" stop-color="#3e00ce"/><stop offset=".156" stop-color="#3f00cf"/><stop offset=".16" stop-color="#4000cf"/><stop offset=".164" stop-color="#4100cf"/><stop offset=".168" stop-color="#4200cf"/><stop offset=".172" stop-color="#4300d0"/><stop offset=".18" stop-color="#4300d0"/><stop offset=".184" stop-color="#4400d0"/><stop offset=".188" stop-color="#4500d0"/><stop offset=".191" stop-color="#4600d1"/><stop offset=".195" stop-color="#4700d1"/><stop offset=".203" stop-color="#4800d1"/><stop offset=".207" stop-color="#4900d2"/><stop offset=".211" stop-color="#4a00d2"/><stop offset=".215" stop-color="#4b00d2"/><stop offset=".219" stop-color="#4c00d2"/><stop offset=".223" stop-color="#4d00d2"/><stop offset=".227" stop-color="#4e00d2"/><stop offset=".23" stop-color="#4f00d3"/><stop offset=".234" stop-color="#5000d3"/><stop offset=".238" stop-color="#5100d3"/><stop offset=".242" stop-color="#5200d3"/><stop offset=".246" stop-color="#5300d4"/><stop offset=".25" stop-color="#5300d4"/><stop offset=".254" stop-color="#5400d5"/><stop offset=".258" stop-color="#5500d5"/><stop offset=".266" stop-color="#5600d5"/><stop offset=".27" stop-color="#5700d6"/><stop offset=".273" stop-color="#5900d6"/><stop offset=".277" stop-color="#5a00d6"/><stop offset=".281" stop-color="#5b00d6"/><stop offset=".285" stop-color="#5b00d7"/><stop offset=".289" stop-color="#5c00d7"/><stop offset=".293" stop-color="#5d00d7"/><stop offset=".297" stop-color="#5e00d7"/><stop offset=".301" stop-color="#5e00d8"/><stop offset=".305" stop-color="#5f00d8"/><stop offset=".309" stop-color="#6000d8"/><stop offset=".313" stop-color="#6100d9"/><stop offset=".316" stop-color="#6200d9"/><stop offset=".32" stop-color="#6300da"/><stop offset=".324" stop-color="#6400da"/><stop offset=".328" stop-color="#6500da"/><stop offset=".332" stop-color="#6600da"/><stop offset=".336" stop-color="#6700db"/><stop offset=".34" stop-color="#6700db"/><stop offset=".344" stop-color="#6800db"/><stop offset=".348" stop-color="#6900db"/><stop offset=".352" stop-color="#6900dc"/><stop offset=".355" stop-color="#6b00dc"/><stop offset=".359" stop-color="#6c00dc"/><stop offset=".363" stop-color="#6d00dc"/><stop offset=".367" stop-color="#6d00dd"/><stop offset=".371" stop-color="#6e00dd"/><stop offset=".375" stop-color="#6e00de"/><stop offset=".379" stop-color="#6f00de"/><stop offset=".383" stop-color="#7000de"/><stop offset=".387" stop-color="#7100de"/><stop offset=".391" stop-color="#7200df"/><stop offset=".395" stop-color="#7400df"/><stop offset=".398" stop-color="#7500df"/><stop offset=".406" stop-color="#7500df"/><stop offset=".41" stop-color="#7700df"/><stop offset=".414" stop-color="#7800df"/><stop offset=".418" stop-color="#7800e0"/><stop offset=".422" stop-color="#7900e0"/><stop offset=".426" stop-color="#7a00e0"/><stop offset=".43" stop-color="#7b00e0"/><stop offset=".434" stop-color="#7c00e1"/><stop offset=".438" stop-color="#7c00e1"/><stop offset=".441" stop-color="#7d00e1"/><stop offset=".445" stop-color="#7f00e2"/><stop offset=".449" stop-color="#8000e2"/><stop offset=".453" stop-color="#8100e2"/><stop offset=".461" stop-color="#8100e2"/><stop offset=".465" stop-color="#8300e3"/><stop offset=".469" stop-color="#8400e3"/><stop offset=".473" stop-color="#8400e3"/><stop offset=".477" stop-color="#8500e3"/><stop offset=".48" stop-color="#8600e4"/><stop offset=".484" stop-color="#8700e4"/><stop offset=".488" stop-color="#8800e5"/><stop offset=".492" stop-color="#8800e6"/><stop offset=".496" stop-color="#8900e6"/><stop offset=".5" stop-color="#8a00e6"/><stop offset=".504" stop-color="#8b00e6"/><stop offset=".508" stop-color="#8c00e6"/><stop offset=".512" stop-color="#8d00e7"/><stop offset=".516" stop-color="#8e00e7"/><stop offset=".52" stop-color="#8f00e7"/><stop offset=".523" stop-color="#9000e8"/><stop offset=".527" stop-color="#9100e8"/><stop offset=".531" stop-color="#9200e8"/><stop offset=".535" stop-color="#9300e8"/><stop offset=".539" stop-color="#9300e9"/><stop offset=".543" stop-color="#9400e9"/><stop offset=".547" stop-color="#9400e9"/><stop offset=".551" stop-color="#9500e9"/><stop offset=".555" stop-color="#9600ea"/><stop offset=".559" stop-color="#9700ea"/><stop offset=".563" stop-color="#9800ea"/><stop offset=".566" stop-color="#9900ea"/><stop offset=".57" stop-color="#9b00eb"/><stop offset=".574" stop-color="#9b00eb"/><stop offset=".578" stop-color="#9c00eb"/><stop offset=".582" stop-color="#9d00eb"/><stop offset=".586" stop-color="#9e00eb"/><stop offset=".59" stop-color="#9e00eb"/><stop offset=".594" stop-color="#9f00eb"/><stop offset=".598" stop-color="#a000ec"/><stop offset=".602" stop-color="#a100ec"/><stop offset=".605" stop-color="#a200ec"/><stop offset=".609" stop-color="#a300ec"/><stop offset=".613" stop-color="#a400ed"/><stop offset=".617" stop-color="#a500ed"/><stop offset=".621" stop-color="#a600ee"/><stop offset=".625" stop-color="#a700ee"/><stop offset=".629" stop-color="#a700ee"/><stop offset=".633" stop-color="#a800ee"/><stop offset=".637" stop-color="#a900ef"/><stop offset=".641" stop-color="#a900ef"/><stop offset=".645" stop-color="#ab00ef"/><stop offset=".648" stop-color="#ac00ef"/><stop offset=".652" stop-color="#ad00f0"/><stop offset=".656" stop-color="#ad00f0"/><stop offset=".664" stop-color="#ae00f0"/><stop offset=".668" stop-color="#af00f1"/><stop offset=".672" stop-color="#b000f1"/><stop offset=".676" stop-color="#b100f1"/><stop offset=".68" stop-color="#b200f1"/><stop offset=".684" stop-color="#b300f2"/><stop offset=".688" stop-color="#b400f3"/><stop offset=".691" stop-color="#b500f3"/><stop offset=".695" stop-color="#b600f3"/><stop offset=".699" stop-color="#b700f3"/><stop offset=".703" stop-color="#b800f4"/><stop offset=".707" stop-color="#b900f4"/><stop offset=".711" stop-color="#b900f4"/><stop offset=".715" stop-color="#ba00f4"/><stop offset=".719" stop-color="#ba00f5"/><stop offset=".723" stop-color="#bb00f5"/><stop offset=".727" stop-color="#bc00f5"/><stop offset=".73" stop-color="#bd00f5"/><stop offset=".734" stop-color="#bf00f6"/><stop offset=".738" stop-color="#c000f6"/><stop offset=".742" stop-color="#c100f7"/><stop offset=".75" stop-color="#c100f7"/><stop offset=".754" stop-color="#c300f7"/><stop offset=".758" stop-color="#c400f8"/><stop offset=".762" stop-color="#c400f8"/><stop offset=".766" stop-color="#c500f8"/><stop offset=".77" stop-color="#c600f8"/><stop offset=".773" stop-color="#c700f8"/><stop offset=".777" stop-color="#c800f8"/><stop offset=".781" stop-color="#c900f8"/><stop offset=".785" stop-color="#c900f9"/><stop offset=".789" stop-color="#ca00f9"/><stop offset=".793" stop-color="#cb00f9"/><stop offset=".797" stop-color="#cc00f9"/><stop offset=".801" stop-color="#cd00fa"/><stop offset=".805" stop-color="#ce00fa"/><stop offset=".809" stop-color="#ce00fa"/><stop offset=".813" stop-color="#cf00fa"/><stop offset=".816" stop-color="#d100fb"/><stop offset=".82" stop-color="#d200fb"/><stop offset=".824" stop-color="#d300fb"/><stop offset=".828" stop-color="#d300fb"/><stop offset=".836" stop-color="#d400fc"/><stop offset=".84" stop-color="#d500fc"/><stop offset=".844" stop-color="#d600fc"/><stop offset=".848" stop-color="#d700fd"/><stop offset=".852" stop-color="#d800fd"/><stop offset=".855" stop-color="#d900fe"/><stop offset=".859" stop-color="#db00ff"/><stop offset=".863" stop-color="#db00ff"/><stop offset=".867" stop-color="#dc00ff"/><stop offset=".875" stop-color="#dc00ff"/><stop offset="1" stop-color="#dc00ff"/></linearGradient><linearGradient id="romm_svg__f" x1="383.14" x2="363.07" y1="646.81" y2="569.14" gradientTransform="translate(-190.9 -227.39) scale(.70095)" gradientUnits="userSpaceOnUse"><stop offset="0" stop-color="#fff"/><stop offset=".243" stop-color="#fff"/><stop offset=".25" stop-color="#fff"/><stop offset=".375" stop-color="#fff"/><stop offset=".438" stop-color="#fff"/><stop offset=".469" stop-color="#fff"/><stop offset=".477" stop-color="#fff"/><stop offset=".48" stop-color="#fdfdfd"/><stop offset=".484" stop-color="#fcfcfc"/><stop offset=".488" stop-color="#f9f9f9"/><stop offset=".492" stop-color="#f6f6f6"/><stop offset=".496" stop-color="#f3f3f3"/><stop offset=".5" stop-color="#f0f0f0"/><stop offset=".504" stop-color="#eee"/><stop offset=".508" stop-color="#ebebeb"/><stop offset=".512" stop-color="#e8e8e8"/><stop offset=".516" stop-color="#e6e5e5"/><stop offset=".52" stop-color="#e2e2e2"/><stop offset=".523" stop-color="#dfdede"/><stop offset=".527" stop-color="#dcdbdc"/><stop offset=".531" stop-color="#d9d8d9"/><stop offset=".535" stop-color="#d6d6d6"/><stop offset=".539" stop-color="#d3d3d3"/><stop offset=".543" stop-color="#d1d0d0"/><stop offset=".547" stop-color="#cfcece"/><stop offset=".551" stop-color="#cccbcb"/><stop offset=".555" stop-color="#c9c8c8"/><stop offset=".559" stop-color="#c6c5c5"/><stop offset=".563" stop-color="#c3c2c2"/><stop offset=".566" stop-color="#c0bfbf"/><stop offset=".57" stop-color="#bcbbbb"/><stop offset=".574" stop-color="#bab8b9"/><stop offset=".578" stop-color="#b8b5b6"/><stop offset=".582" stop-color="#b5b2b4"/><stop offset=".586" stop-color="#b2afb1"/><stop offset=".59" stop-color="#afadae"/><stop offset=".594" stop-color="#acabab"/><stop offset=".598" stop-color="#a9a8a8"/><stop offset=".602" stop-color="#a6a5a5"/><stop offset=".605" stop-color="#a3a2a2"/><stop offset=".609" stop-color="#9f9e9e"/><stop offset=".613" stop-color="#9d9b9b"/><stop offset=".617" stop-color="#9a9898"/><stop offset=".621" stop-color="#979595"/><stop offset=".625" stop-color="#949292"/><stop offset=".629" stop-color="#929090"/><stop offset=".633" stop-color="#8f8d8e"/><stop offset=".637" stop-color="#8c8a8b"/><stop offset=".641" stop-color="#898788"/><stop offset=".645" stop-color="#868484"/><stop offset=".648" stop-color="#838181"/><stop offset=".652" stop-color="#807e7e"/><stop offset=".656" stop-color="#7d7b7b"/><stop offset=".66" stop-color="#7a7878"/><stop offset=".664" stop-color="#787676"/><stop offset=".668" stop-color="#757373"/><stop offset=".672" stop-color="#727070"/><stop offset=".676" stop-color="#6f6d6d"/><stop offset=".68" stop-color="#6d6a6b"/><stop offset=".684" stop-color="#6a6768"/><stop offset=".688" stop-color="#676465"/><stop offset=".691" stop-color="#646162"/><stop offset=".695" stop-color="#605d5e"/><stop offset=".699" stop-color="#5d5a5b"/><stop offset=".703" stop-color="#5a5758"/><stop offset=".707" stop-color="#585555"/><stop offset=".711" stop-color="#555252"/><stop offset=".715" stop-color="#535050"/><stop offset=".719" stop-color="#504d4d"/><stop offset=".723" stop-color="#4d4a4a"/><stop offset=".727" stop-color="#4a4748"/><stop offset=".73" stop-color="#474344"/><stop offset=".734" stop-color="#434041"/><stop offset=".738" stop-color="#413d3e"/><stop offset=".742" stop-color="#3e3a3b"/><stop offset=".746" stop-color="#3b3738"/><stop offset=".75" stop-color="#393536"/><stop offset=".754" stop-color="#363233"/><stop offset=".758" stop-color="#332f30"/><stop offset=".762" stop-color="#302c2d"/><stop offset=".766" stop-color="#2d2a2a"/><stop offset=".77" stop-color="#292627"/><stop offset=".773" stop-color="#262323"/><stop offset=".777" stop-color="#242121"/><stop offset=".781" stop-color="#221f1f"/><stop offset=".813" stop-color="#221f1f"/><stop offset=".875" stop-color="#221f1f"/><stop offset="1" stop-color="#221f1f"/></linearGradient><linearGradient id="romm_svg__i" x1="406.6" x2="376.96" y1="400.63" y2="474.02" gradientTransform="translate(-190.9 -227.39) scale(.70095)" gradientUnits="userSpaceOnUse"><stop offset="0" stop-color="#fff"/><stop offset=".25" stop-color="#fff"/><stop offset=".375" stop-color="#fff"/><stop offset=".402" stop-color="#fff"/><stop offset=".406" stop-color="#fff"/><stop offset=".422" stop-color="#fff"/><stop offset=".43" stop-color="#fff"/><stop offset=".434" stop-color="#fdfdfd"/><stop offset=".438" stop-color="#fbfbfb"/><stop offset=".441" stop-color="#f9f8f8"/><stop offset=".445" stop-color="#f6f6f6"/><stop offset=".449" stop-color="#f4f3f3"/><stop offset=".453" stop-color="#f2f1f1"/><stop offset=".457" stop-color="#efefef"/><stop offset=".461" stop-color="#ededed"/><stop offset=".465" stop-color="#ebebeb"/><stop offset=".469" stop-color="#e8e8e8"/><stop offset=".473" stop-color="#e6e6e6"/><stop offset=".477" stop-color="#e4e3e3"/><stop offset=".48" stop-color="#e2e1e1"/><stop offset=".484" stop-color="#dfdede"/><stop offset=".488" stop-color="#dcdcdc"/><stop offset=".492" stop-color="#dadada"/><stop offset=".496" stop-color="#d8d7d7"/><stop offset=".5" stop-color="#d6d5d5"/><stop offset=".504" stop-color="#d4d3d3"/><stop offset=".508" stop-color="#d1d0d0"/><stop offset=".512" stop-color="#cfcece"/><stop offset=".516" stop-color="#cdcccc"/><stop offset=".52" stop-color="#cac9ca"/><stop offset=".523" stop-color="#c8c7c7"/><stop offset=".527" stop-color="#c5c4c4"/><stop offset=".531" stop-color="#c3c2c2"/><stop offset=".535" stop-color="#c1bfc0"/><stop offset=".539" stop-color="#bebdbd"/><stop offset=".543" stop-color="#bcbbbb"/><stop offset=".547" stop-color="#bab8b9"/><stop offset=".551" stop-color="#b8b6b7"/><stop offset=".555" stop-color="#b5b4b4"/><stop offset=".559" stop-color="#b3b2b2"/><stop offset=".563" stop-color="#b1afaf"/><stop offset=".566" stop-color="#aeadad"/><stop offset=".57" stop-color="#acaaaa"/><stop offset=".574" stop-color="#aaa8a8"/><stop offset=".578" stop-color="#a7a5a6"/><stop offset=".582" stop-color="#a5a3a4"/><stop offset=".586" stop-color="#a2a1a1"/><stop offset=".59" stop-color="#a09f9f"/><stop offset=".594" stop-color="#9e9c9d"/><stop offset=".598" stop-color="#9c9a9a"/><stop offset=".602" stop-color="#999798"/><stop offset=".605" stop-color="#979595"/><stop offset=".609" stop-color="#949293"/><stop offset=".613" stop-color="#929090"/><stop offset=".617" stop-color="#908e8e"/><stop offset=".621" stop-color="#8e8c8c"/><stop offset=".625" stop-color="#8b8989"/><stop offset=".629" stop-color="#898787"/><stop offset=".633" stop-color="#868485"/><stop offset=".637" stop-color="#848283"/><stop offset=".641" stop-color="#828080"/><stop offset=".645" stop-color="#807d7e"/><stop offset=".648" stop-color="#7d7b7b"/><stop offset=".652" stop-color="#7b7979"/><stop offset=".656" stop-color="#787676"/><stop offset=".66" stop-color="#767474"/><stop offset=".664" stop-color="#747172"/><stop offset=".668" stop-color="#726f70"/><stop offset=".672" stop-color="#6f6d6d"/><stop offset=".676" stop-color="#6d6a6b"/><stop offset=".68" stop-color="#6b6869"/><stop offset=".684" stop-color="#696666"/><stop offset=".688" stop-color="#666364"/><stop offset=".691" stop-color="#646161"/><stop offset=".695" stop-color="#615e5f"/><stop offset=".699" stop-color="#5f5c5d"/><stop offset=".703" stop-color="#5d595a"/><stop offset=".707" stop-color="#5a5758"/><stop offset=".711" stop-color="#585556"/><stop offset=".715" stop-color="#565353"/><stop offset=".719" stop-color="#535051"/><stop offset=".723" stop-color="#514e4f"/><stop offset=".727" stop-color="#4f4c4c"/><stop offset=".73" stop-color="#4c494a"/><stop offset=".734" stop-color="#4a4647"/><stop offset=".738" stop-color="#484445"/><stop offset=".742" stop-color="#454243"/><stop offset=".746" stop-color="#434040"/><stop offset=".75" stop-color="#413d3e"/><stop offset=".754" stop-color="#3e3b3c"/><stop offset=".758" stop-color="#3c3939"/><stop offset=".762" stop-color="#3a3637"/><stop offset=".766" stop-color="#383434"/><stop offset=".77" stop-color="#353232"/><stop offset=".773" stop-color="#332f30"/><stop offset=".777" stop-color="#302d2d"/><stop offset=".781" stop-color="#2e2a2b"/><stop offset=".785" stop-color="#2c2829"/><stop offset=".789" stop-color="#292626"/><stop offset=".793" stop-color="#272324"/><stop offset=".797" stop-color="#252122"/><stop offset=".801" stop-color="#242021"/><stop offset=".805" stop-color="#231f20"/><stop offset=".813" stop-color="#231f20"/><stop offset=".875" stop-color="#221f1f"/><stop offset="1" stop-color="#221f1f"/></linearGradient></defs><g clip-path="url(#romm_svg__a)" transform="translate(-5.795) scale(.15881)"><g clip-path="url(#romm_svg__b)"><path fill="url(#romm_svg__c)" d="M36.488 0v302.25h302.25V0z"/></g></g><g fill="#fff"><path d="M22.264 18.724a1.172 1.172 0 0 1-.722 1.08 1.134 1.134 0 0 1-.448.09 1.13 1.13 0 0 1-.446-.09 1.157 1.157 0 0 1-.633-.632 1.181 1.181 0 0 1-.067-.676 1.16 1.16 0 0 1 .175-.422 1.236 1.236 0 0 1 .322-.322 1.246 1.246 0 0 1 .422-.175 1.176 1.176 0 0 1 1.054.32 1.158 1.158 0 0 1 .343.827zM22.264 23.343a1.161 1.161 0 0 1-.52.973 1.18 1.18 0 0 1-1.299 0 1.2 1.2 0 0 1-.322-.323 1.167 1.167 0 0 1 1.621-1.621 1.112 1.112 0 0 1 .323.323 1.125 1.125 0 0 1 .175.42c.014.076.022.152.022.228zM19.948 21.028a1.182 1.182 0 0 1-.196.649 1.144 1.144 0 0 1-.323.322 1.121 1.121 0 0 1-.422.174 1.12 1.12 0 0 1-.456 0 1.14 1.14 0 0 1-.42-.174 1.11 1.11 0 0 1-.323-.322 1.19 1.19 0 0 1-.197-.649 1.166 1.166 0 0 1 1.169-1.169 1.166 1.166 0 0 1 1.168 1.169zM24.568 21.028a1.182 1.182 0 0 1-.197.649 1.136 1.136 0 0 1-.524.43 1.128 1.128 0 0 1-.448.09 1.12 1.12 0 0 1-.227-.023 1.12 1.12 0 0 1-.422-.175 1.144 1.144 0 0 1-.43-.524 1.187 1.187 0 0 1-.067-.675 1.165 1.165 0 0 1 1.146-.94 1.177 1.177 0 0 1 .827.342 1.131 1.131 0 0 1 .253.379 1.123 1.123 0 0 1 .09.447z"/></g><g clip-path="url(#romm_svg__d)" transform="translate(-5.795) scale(.15881)"><g clip-path="url(#romm_svg__e)"><path fill="url(#romm_svg__f)" d="M41.188 177.34v43.949H95.86V177.34z"/></g></g><g clip-path="url(#romm_svg__g)" transform="translate(-5.795) scale(.15881)"><g clip-path="url(#romm_svg__h)"><path fill="url(#romm_svg__i)" d="M51.137 60.141v35.773h59.582V60.141z"/></g></g></svg>
