<svg xmlns="http://www.w3.org/2000/svg" viewBox="0 0 48 48"><style>.roundcube_svg__st0,.roundcube_svg__st3{fill-rule:evenodd;clip-rule:evenodd;fill:#404f54}.roundcube_svg__st3{fill:#37beff}</style><path d="M24 20.275V5.478l24 13.864v14.795z" class="roundcube_svg__st3"/><path d="M24 20.275V5.478L0 19.342v14.795z" class="roundcube_svg__st0"/><path fill="#ccc" fill-rule="evenodd" d="M24 0c9.167 0 16.602 7.435 16.602 16.602S33.167 33.204 24 33.204 7.398 25.77 7.398 16.602 14.832 0 24 0" clip-rule="evenodd"/><path fill="#e5e5e5" fill-rule="evenodd" d="M24 0c9.17 0 16.607 7.435 16.607 16.602S33.17 33.204 24 33.204c-5.264-3.543-7.442-10.68-7.442-16.593S18.736 3.55 24 .001" clip-rule="evenodd"/><path d="M24 33.204V48l24-13.863V19.342z" class="roundcube_svg__st3"/><path d="M24 33.204V48L0 34.137V19.342z" class="roundcube_svg__st0"/></svg>