<svg xmlns="http://www.w3.org/2000/svg" id="svg16" width="48" height="48" version="1.1" viewBox="9.14 141.8 48 48"><style id="style2" type="text/css">.st0,.st3{fill-rule:evenodd;clip-rule:evenodd;fill:#404f54}.st3{fill:#37beff}</style><g id="g255" transform="translate(8.375 129.935) scale(.08367)"><path id="polygon4" d="M295.96 384.1V207.27l286.83 165.68v176.82z" class="st3"/><path id="polygon6" d="M295.96 384.1V207.27L9.14 372.95v176.82z" class="st0"/><path id="path8" d="M295.96 141.8c109.56 0 198.41 88.85 198.41 198.41s-88.85 198.41-198.41 198.41S97.55 449.77 97.55 340.21 186.4 141.8 295.96 141.8" style="fill-rule:evenodd;clip-rule:evenodd;fill:#ccc"/><path id="path10" d="M295.96 141.8c109.6 0 198.48 88.85 198.48 198.41s-88.88 198.41-198.48 198.41c-62.91-42.34-88.94-127.64-88.94-198.3 0-70.66 26.03-156.1 88.94-198.52" style="fill-rule:evenodd;clip-rule:evenodd;fill:#e5e5e5"/><path id="polygon12" d="M295.96 538.62v176.83l286.83-165.68V372.95z" class="st3"/><path id="polygon14" d="M295.96 538.62v176.83L9.14 549.77V372.95z" class="st0"/></g></svg>