<svg xmlns="http://www.w3.org/2000/svg" viewBox="0 0 48 48"><defs><linearGradient id="ruby_svg__a" x2="1" gradientTransform="rotate(-119.5 109.326 -251.107) scale(84.8)" gradientUnits="userSpaceOnUse"><stop offset="0" stop-color="#fb7655"/><stop offset=".41" stop-color="#e42b1e"/><stop offset=".99" stop-color="#900"/><stop offset="1" stop-color="#900"/></linearGradient><linearGradient id="ruby_svg__b" x2="1" gradientTransform="rotate(-146.136 149.269 -232.143) scale(64.874)" gradientUnits="userSpaceOnUse"><stop offset="0" stop-color="#871101"/><stop offset=".99" stop-color="#911209"/><stop offset="1" stop-color="#911209"/></linearGradient><linearGradient id="ruby_svg__c" x2="1" gradientTransform="rotate(-146.136 137.494 -193.472) scale(64.874)" gradientUnits="userSpaceOnUse"><stop offset="0" stop-color="#871101"/><stop offset=".99" stop-color="#911209"/><stop offset="1" stop-color="#911209"/></linearGradient><linearGradient id="ruby_svg__d" x2="1" gradientTransform="rotate(81.253 337.597 -40.36) scale(54.9117)" gradientUnits="userSpaceOnUse"><stop offset="0" stop-color="#fff"/><stop offset=".23" stop-color="#e57252"/><stop offset=".46" stop-color="#de3b20"/><stop offset=".99" stop-color="#a60003"/><stop offset="1" stop-color="#a60003"/></linearGradient><linearGradient id="ruby_svg__e" x2="1" gradientTransform="rotate(86.82 373.125 -48.712) scale(55.4754)" gradientUnits="userSpaceOnUse"><stop offset="0" stop-color="#fff"/><stop offset=".23" stop-color="#e4714e"/><stop offset=".56" stop-color="#be1a0d"/><stop offset=".99" stop-color="#a80d00"/><stop offset="1" stop-color="#a80d00"/></linearGradient><linearGradient id="ruby_svg__f" x2="1" gradientTransform="rotate(76.936 473.026 -11.614) scale(40.75)" gradientUnits="userSpaceOnUse"><stop offset="0" stop-color="#fff"/><stop offset=".18" stop-color="#e46342"/><stop offset=".4" stop-color="#c82410"/><stop offset=".99" stop-color="#a80d00"/><stop offset="1" stop-color="#a80d00"/></linearGradient><linearGradient id="ruby_svg__g" x2="1" gradientTransform="rotate(-26.564 -861.277 -933.74) scale(44.379)" gradientUnits="userSpaceOnUse"><stop offset="0" stop-color="#fff"/><stop offset=".54" stop-color="#c81f11"/><stop offset=".99" stop-color="#bf0905"/><stop offset="1" stop-color="#bf0905"/></linearGradient><linearGradient id="ruby_svg__h" x2="1" gradientTransform="rotate(84.296 316.664 -73.964) scale(32.8728)" gradientUnits="userSpaceOnUse"><stop offset="0" stop-color="#fff"/><stop offset=".31" stop-color="#de4024"/><stop offset=".99" stop-color="#bf190b"/><stop offset="1" stop-color="#bf190b"/></linearGradient><linearGradient id="ruby_svg__i" x2="1" gradientTransform="rotate(-45.801 -308.096 -393.949) scale(220.28)" gradientUnits="userSpaceOnUse"><stop offset="0" stop-color="#bd0012"/><stop offset=".07" stop-color="#fff"/><stop offset=".17" stop-color="#fff"/><stop offset=".27" stop-color="#c82f1c"/><stop offset=".33" stop-color="#820c01"/><stop offset=".46" stop-color="#a31601"/><stop offset=".72" stop-color="#b31301"/><stop offset=".99" stop-color="#e82609"/><stop offset="1" stop-color="#e82609"/></linearGradient><linearGradient id="ruby_svg__j" x2="1" gradientTransform="rotate(-166.136 133.668 -180.778) scale(47.642)" gradientUnits="userSpaceOnUse"><stop offset="0" stop-color="#8c0c01"/><stop offset=".54" stop-color="#990c00"/><stop offset=".99" stop-color="#a80d0e"/><stop offset="1" stop-color="#a80d0e"/></linearGradient><linearGradient id="ruby_svg__k" x2="1" gradientTransform="rotate(-138.131 120.458 -263.758) scale(55.184)" gradientUnits="userSpaceOnUse"><stop offset="0" stop-color="#7e110b"/><stop offset=".99" stop-color="#9e0c00"/><stop offset="1" stop-color="#9e0c00"/></linearGradient><linearGradient id="ruby_svg__l" x2="1" gradientTransform="rotate(-133.088 103.598 -310.743) scale(29.965)" gradientUnits="userSpaceOnUse"><stop offset="0" stop-color="#79130d"/><stop offset=".99" stop-color="#9e120b"/><stop offset="1" stop-color="#9e120b"/></linearGradient><linearGradient id="ruby_svg__o" x2="1" gradientTransform="rotate(-106.423 5.736 -236.583) scale(59.004)" gradientUnits="userSpaceOnUse"><stop offset="0" stop-color="#8b2114"/><stop offset=".43" stop-color="#9e100a"/><stop offset=".99" stop-color="#b3100c"/><stop offset="1" stop-color="#b3100c"/></linearGradient><linearGradient id="ruby_svg__p" x2="1" gradientTransform="matrix(37.4 16.509 -16.509 37.4 362.32 -485.48)" gradientUnits="userSpaceOnUse"><stop offset="0" stop-color="#b31000"/><stop offset=".44" stop-color="#910f08"/><stop offset=".99" stop-color="#791c12"/><stop offset="1" stop-color="#791c12"/></linearGradient><radialGradient id="ruby_svg__m" cx="0" cy="0" r="1" gradientTransform="translate(351.51 -415.9) scale(50.36)" gradientUnits="userSpaceOnUse"><stop offset="0" stop-color="#a80d00"/><stop offset=".99" stop-color="#7e0e08"/><stop offset="1" stop-color="#7e0e08"/></radialGradient><radialGradient id="ruby_svg__n" cx="0" cy="0" r="1" gradientTransform="translate(281.77 -349.54) scale(66.947)" gradientUnits="userSpaceOnUse"><stop offset="0" stop-color="#a30c00"/><stop offset=".99" stop-color="#800e08"/><stop offset="1" stop-color="#800e08"/></radialGradient></defs><g fill-rule="evenodd"><path fill="url(#ruby_svg__a)" d="m248.06-297.71 146.47-9.94 11.28-147.69-44.63 90.46z" transform="translate(-50.314 120.059) scale(.2423)"/><path fill="url(#ruby_svg__b)" d="m347.89-349.36 46.88 41.61-12.59-86.89z" transform="translate(-50.314 120.059) scale(.2423)"/><path fill="url(#ruby_svg__c)" d="m248.55-297.9 146.39-9.85-92.23-7.24z" transform="translate(-50.314 120.059) scale(.2423)"/><path fill="url(#ruby_svg__d)" d="m221.02-362.52 27.66 64.64 23.04-75.48z" transform="translate(-50.314 120.059) scale(.2423)"/><path fill="url(#ruby_svg__e)" d="m266.01-375.28 81.87 26.17-21.2-83.04z" transform="translate(-50.314 120.059) scale(.2423)"/><path fill="url(#ruby_svg__f)" d="m327.68-426.19 73.32-4.79-57.35-46.84z" transform="translate(-50.314 120.059) scale(.2423)"/><path fill="url(#ruby_svg__g)" d="m319.17-494.77 55.01.25-33.73 18.64z" transform="translate(-50.314 120.059) scale(.2423)"/><path fill="url(#ruby_svg__h)" d="m210.38-393.67-2.7 56.47 14.13-25.77z" transform="translate(-50.314 120.059) scale(.2423)"/><path fill="#fff" d="m.47 24.45 2.786 7.903 12.106-2.715 13.821-12.845 3.9-12.39-6.14-4.336L16.5 3.974c-3.29 3.06-9.674 9.114-9.904 9.228-.228.117-4.216 7.653-6.127 11.249z"/><path fill="url(#ruby_svg__i)" d="M250-453.24c29.43-29.18 67.37-46.42 81.93-31.73 14.55 14.69-.88 50.39-30.31 79.56s-66.9 47.36-81.45 32.67c-14.56-14.68.4-51.33 29.83-80.5z" transform="translate(-50.314 120.059) scale(.2423)"/><path fill="url(#ruby_svg__j)" d="m248.68-297.91 22.86-75.72 75.92 24.39c-27.45 25.74-57.98 47.5-98.78 51.33z" transform="translate(-50.314 120.059) scale(.2423)"/><path fill="url(#ruby_svg__k)" d="m328.24-426.4 19.49 77.2c22.93-24.11 43.51-50.03 53.59-82.09z" transform="translate(-50.314 120.059) scale(.2423)"/><path fill="url(#ruby_svg__l)" d="M401.12-430.9c7.8-23.54 9.6-57.31-27.18-63.58l-30.18 16.67z" transform="translate(-50.314 120.059) scale(.2423)"/><path fill="#9e1209" d="M0 38.284c.262 9.412 7.052 9.553 9.945 9.635L3.263 32.315z"/><path fill="url(#ruby_svg__m)" d="M328.35-426.28c17.62 10.83 53.13 32.58 53.85 32.98 1.12.63 15.31-23.93 18.53-37.81z" transform="translate(-50.314 120.059) scale(.2423)"/><path fill="url(#ruby_svg__n)" d="m271.51-373.63 30.56 58.96c18.07-9.8 32.22-21.74 45.18-34.53z" transform="translate(-50.314 120.059) scale(.2423)"/><path fill="url(#ruby_svg__o)" d="m221.03-362.1-4.33 51.56c8.17 11.16 19.41 12.13 31.2 11.26-8.53-21.23-25.57-63.68-26.87-62.82z" transform="translate(-50.314 120.059) scale(.2423)"/><path fill="url(#ruby_svg__p)" d="m343.58-477.68 60.71 8.52c-3.24-13.73-13.19-22.59-30.15-25.36z" transform="translate(-50.314 120.059) scale(.2423)"/></g></svg>