<svg xmlns="http://www.w3.org/2000/svg" width="48" height="48" viewBox="0 0 12.7 12.7"><defs><linearGradient id="a" x1="0" x2="1" y1="0" y2="0" gradientTransform="rotate(-119.527 109.348 -251.127) scale(84.81561)" gradientUnits="userSpaceOnUse" spreadMethod="pad"><stop offset="0" style="stop-opacity:1;stop-color:#fb7655"/><stop offset="0" style="stop-opacity:1;stop-color:#fb7655"/><stop offset=".41" style="stop-opacity:1;stop-color:#e42b1e"/><stop offset=".99" style="stop-opacity:1;stop-color:#900"/><stop offset="1" style="stop-opacity:1;stop-color:#900"/></linearGradient><linearGradient id="b" x1="0" x2="1" y1="0" y2="0" gradientTransform="rotate(-146.136 149.27 -232.145) scale(64.87391)" gradientUnits="userSpaceOnUse" spreadMethod="pad"><stop offset="0" style="stop-opacity:1;stop-color:#871101"/><stop offset="0" style="stop-opacity:1;stop-color:#871101"/><stop offset=".99" style="stop-opacity:1;stop-color:#911209"/><stop offset="1" style="stop-opacity:1;stop-color:#911209"/></linearGradient><linearGradient id="c" x1="0" x2="1" y1="0" y2="0" gradientTransform="rotate(-146.136 137.496 -193.471) scale(64.87391)" gradientUnits="userSpaceOnUse" spreadMethod="pad"><stop offset="0" style="stop-opacity:1;stop-color:#871101"/><stop offset="0" style="stop-opacity:1;stop-color:#871101"/><stop offset=".99" style="stop-opacity:1;stop-color:#911209"/><stop offset="1" style="stop-opacity:1;stop-color:#911209"/></linearGradient><linearGradient id="d" x1="0" x2="1" y1="0" y2="0" gradientTransform="rotate(81.253 337.597 -40.36) scale(54.9117)" gradientUnits="userSpaceOnUse" spreadMethod="pad"><stop offset="0" style="stop-opacity:1;stop-color:#fff"/><stop offset="0" style="stop-opacity:1;stop-color:#fff"/><stop offset=".23" style="stop-opacity:1;stop-color:#e57252"/><stop offset=".46" style="stop-opacity:1;stop-color:#de3b20"/><stop offset=".99" style="stop-opacity:1;stop-color:#a60003"/><stop offset="1" style="stop-opacity:1;stop-color:#a60003"/></linearGradient><linearGradient id="e" x1="0" x2="1" y1="0" y2="0" gradientTransform="rotate(86.82 373.125 -48.707) scale(55.475)" gradientUnits="userSpaceOnUse" spreadMethod="pad"><stop offset="0" style="stop-opacity:1;stop-color:#fff"/><stop offset="0" style="stop-opacity:1;stop-color:#fff"/><stop offset=".23" style="stop-opacity:1;stop-color:#e4714e"/><stop offset=".56" style="stop-opacity:1;stop-color:#be1a0d"/><stop offset=".99" style="stop-opacity:1;stop-color:#a80d00"/><stop offset="1" style="stop-opacity:1;stop-color:#a80d00"/></linearGradient><linearGradient id="f" x1="0" x2="1" y1="0" y2="0" gradientTransform="rotate(76.936 473.023 -11.614) scale(40.7497)" gradientUnits="userSpaceOnUse" spreadMethod="pad"><stop offset="0" style="stop-opacity:1;stop-color:#fff"/><stop offset="0" style="stop-opacity:1;stop-color:#fff"/><stop offset=".18" style="stop-opacity:1;stop-color:#e46342"/><stop offset=".4" style="stop-opacity:1;stop-color:#c82410"/><stop offset=".99" style="stop-opacity:1;stop-color:#a80d00"/><stop offset="1" style="stop-opacity:1;stop-color:#a80d00"/></linearGradient><linearGradient id="g" x1="0" x2="1" y1="0" y2="0" gradientTransform="matrix(39.69395 -19.84702 19.84702 39.69394 326.656 -483.748)" gradientUnits="userSpaceOnUse" spreadMethod="pad"><stop offset="0" style="stop-opacity:1;stop-color:#fff"/><stop offset="0" style="stop-opacity:1;stop-color:#fff"/><stop offset=".54" style="stop-opacity:1;stop-color:#c81f11"/><stop offset=".99" style="stop-opacity:1;stop-color:#bf0905"/><stop offset="1" style="stop-opacity:1;stop-color:#bf0905"/></linearGradient><linearGradient id="h" x1="0" x2="1" y1="0" y2="0" gradientTransform="rotate(84.296 316.673 -73.983) scale(32.8727)" gradientUnits="userSpaceOnUse" spreadMethod="pad"><stop offset="0" style="stop-opacity:1;stop-color:#fff"/><stop offset="0" style="stop-opacity:1;stop-color:#fff"/><stop offset=".31" style="stop-opacity:1;stop-color:#de4024"/><stop offset=".99" style="stop-opacity:1;stop-color:#bf190b"/><stop offset="1" style="stop-opacity:1;stop-color:#bf190b"/></linearGradient><linearGradient id="i" x1="0" x2="1" y1="0" y2="0" gradientTransform="rotate(-45.799 -308.112 -393.951) scale(220.27902)" gradientUnits="userSpaceOnUse" spreadMethod="pad"><stop offset="0" style="stop-opacity:1;stop-color:#bd0012"/><stop offset="0" style="stop-opacity:1;stop-color:#bd0012"/><stop offset=".07" style="stop-opacity:1;stop-color:#fff"/><stop offset=".17" style="stop-opacity:1;stop-color:#fff"/><stop offset=".27" style="stop-opacity:1;stop-color:#c82f1c"/><stop offset=".33" style="stop-opacity:1;stop-color:#820c01"/><stop offset=".46" style="stop-opacity:1;stop-color:#a31601"/><stop offset=".72" style="stop-opacity:1;stop-color:#b31301"/><stop offset=".99" style="stop-opacity:1;stop-color:#e82609"/><stop offset="1" style="stop-opacity:1;stop-color:#e82609"/></linearGradient><linearGradient id="j" x1="0" x2="1" y1="0" y2="0" gradientTransform="rotate(-166.136 133.667 -180.776) scale(47.642)" gradientUnits="userSpaceOnUse" spreadMethod="pad"><stop offset="0" style="stop-opacity:1;stop-color:#8c0c01"/><stop offset="0" style="stop-opacity:1;stop-color:#8c0c01"/><stop offset=".54" style="stop-opacity:1;stop-color:#990c00"/><stop offset=".99" style="stop-opacity:1;stop-color:#a80d0e"/><stop offset="1" style="stop-opacity:1;stop-color:#a80d0e"/></linearGradient><linearGradient id="k" x1="0" x2="1" y1="0" y2="0" gradientTransform="rotate(-138.131 120.458 -263.757) scale(55.1837)" gradientUnits="userSpaceOnUse" spreadMethod="pad"><stop offset="0" style="stop-opacity:1;stop-color:#7e110b"/><stop offset="0" style="stop-opacity:1;stop-color:#7e110b"/><stop offset=".99" style="stop-opacity:1;stop-color:#9e0c00"/><stop offset="1" style="stop-opacity:1;stop-color:#9e0c00"/></linearGradient><linearGradient id="l" x1="0" x2="1" y1="0" y2="0" gradientTransform="rotate(-133.088 103.598 -310.74) scale(29.9655)" gradientUnits="userSpaceOnUse" spreadMethod="pad"><stop offset="0" style="stop-opacity:1;stop-color:#79130d"/><stop offset="0" style="stop-opacity:1;stop-color:#79130d"/><stop offset=".99" style="stop-opacity:1;stop-color:#9e120b"/><stop offset="1" style="stop-opacity:1;stop-color:#9e120b"/></linearGradient><linearGradient id="o" x1="0" x2="1" y1="0" y2="0" gradientTransform="rotate(-106.423 5.736 -236.584) scale(59.0043)" gradientUnits="userSpaceOnUse" spreadMethod="pad"><stop offset="0" style="stop-opacity:1;stop-color:#8b2114"/><stop offset="0" style="stop-opacity:1;stop-color:#8b2114"/><stop offset=".43" style="stop-opacity:1;stop-color:#9e100a"/><stop offset=".99" style="stop-opacity:1;stop-color:#b3100c"/><stop offset="1" style="stop-opacity:1;stop-color:#b3100c"/></linearGradient><linearGradient id="p" x1="0" x2="1" y1="0" y2="0" gradientTransform="rotate(23.817 1332.209 616.29) scale(40.8816)" gradientUnits="userSpaceOnUse" spreadMethod="pad"><stop offset="0" style="stop-opacity:1;stop-color:#b31000"/><stop offset="0" style="stop-opacity:1;stop-color:#b31000"/><stop offset=".44" style="stop-opacity:1;stop-color:#910f08"/><stop offset=".99" style="stop-opacity:1;stop-color:#791c12"/><stop offset="1" style="stop-opacity:1;stop-color:#791c12"/></linearGradient><radialGradient id="m" cx="0" cy="0" r="1" fx="0" fy="0" gradientTransform="translate(351.51 -415.9) scale(50.36)" gradientUnits="userSpaceOnUse" spreadMethod="pad"><stop offset="0" style="stop-opacity:1;stop-color:#a80d00"/><stop offset="0" style="stop-opacity:1;stop-color:#a80d00"/><stop offset=".99" style="stop-opacity:1;stop-color:#7e0e08"/><stop offset="1" style="stop-opacity:1;stop-color:#7e0e08"/></radialGradient><radialGradient id="n" cx="0" cy="0" r="1" fx="0" fy="0" gradientTransform="translate(281.77 -349.54) scale(66.9469)" gradientUnits="userSpaceOnUse" spreadMethod="pad"><stop offset="0" style="stop-opacity:1;stop-color:#a30c00"/><stop offset="0" style="stop-opacity:1;stop-color:#a30c00"/><stop offset=".99" style="stop-opacity:1;stop-color:#800e08"/><stop offset="1" style="stop-opacity:1;stop-color:#800e08"/></radialGradient></defs><path d="m248.06-297.71 146.47-9.94 11.28-147.69-44.63 90.46-113.12 67.17z" style="fill:url(#a);fill-rule:evenodd;stroke:none" transform="translate(-13.312 31.765) scale(.0641)"/><path d="m347.89-349.36 46.88 41.61-12.59-86.89-34.29 45.28z" style="fill:url(#b);fill-rule:evenodd;stroke:none" transform="translate(-13.312 31.765) scale(.0641)"/><path d="m248.55-297.9 146.39-9.85-92.23-7.24-54.16 17.09z" style="fill:url(#c);fill-rule:evenodd;stroke:none" transform="translate(-13.312 31.765) scale(.0641)"/><path d="m221.02-362.52 27.66 64.64 23.04-75.48-50.7 10.84z" style="fill:url(#d);fill-rule:evenodd;stroke:none" transform="translate(-13.312 31.765) scale(.0641)"/><path d="m266.01-375.28 81.87 26.17-21.2-83.04-60.67 56.87z" style="fill:url(#e);fill-rule:evenodd;stroke:none" transform="translate(-13.312 31.765) scale(.0641)"/><path d="m327.68-426.19 73.32-4.79-57.35-46.84-15.97 51.63z" style="fill:url(#f);fill-rule:evenodd;stroke:none" transform="translate(-13.312 31.765) scale(.0641)"/><path d="m319.17-494.77 55.01.25-33.73 18.64-21.28-18.89z" style="fill:url(#g);fill-rule:evenodd;stroke:none" transform="translate(-13.312 31.765) scale(.0641)"/><path d="m210.38-393.67-2.7 56.47 14.13-25.77-11.43-30.7z" style="fill:url(#h);fill-rule:evenodd;stroke:none" transform="translate(-13.312 31.765) scale(.0641)"/><path d="m209.62-394.64 11.5 32.62 49.97-11.21 57.05-53.02 16.1-51.14-25.35-17.9-43.1 16.13c-13.58 12.63-39.93 37.62-40.88 38.09-.94.48-17.4 31.59-25.29 46.43z" style="fill:#fff;fill-opacity:1;fill-rule:evenodd;stroke:none" transform="translate(-13.312 31.765) scale(.0641)"/><path d="M250-453.24c29.43-29.18 67.37-46.42 81.93-31.73 14.55 14.69-.88 50.39-30.31 79.56s-66.9 47.36-81.45 32.67c-14.56-14.68.4-51.33 29.83-80.5z" style="fill:url(#i);fill-rule:evenodd;stroke:none" transform="translate(-13.312 31.765) scale(.0641)"/><path d="m248.68-297.91 22.86-75.72 75.92 24.39c-27.45 25.74-57.98 47.5-98.78 51.33z" style="fill:url(#j);fill-rule:evenodd;stroke:none" transform="translate(-13.312 31.765) scale(.0641)"/><path d="m328.24-426.4 19.49 77.2c22.93-24.11 43.51-50.03 53.59-82.09l-73.08 4.89z" style="fill:url(#k);fill-rule:evenodd;stroke:none" transform="translate(-13.312 31.765) scale(.0641)"/><path d="M401.12-430.9c7.8-23.54 9.6-57.31-27.18-63.58l-30.18 16.67 57.36 46.91z" style="fill:url(#l);fill-rule:evenodd;stroke:none" transform="translate(-13.312 31.765) scale(.0641)"/><path d="M207.68-337.54c1.08 38.85 29.11 39.43 41.05 39.77l-27.58-64.41-13.47 24.64z" style="fill:#9e1209;fill-opacity:1;fill-rule:evenodd;stroke:none" transform="translate(-13.312 31.765) scale(.0641)"/><path d="M328.35-426.28c17.62 10.83 53.13 32.58 53.85 32.98 1.12.63 15.31-23.93 18.53-37.81l-72.38 4.83z" style="fill:url(#m);fill-rule:evenodd;stroke:none" transform="translate(-13.312 31.765) scale(.0641)"/><path d="m271.51-373.63 30.56 58.96c18.07-9.8 32.22-21.74 45.18-34.53l-75.74-24.43z" style="fill:url(#n);fill-rule:evenodd;stroke:none" transform="translate(-13.312 31.765) scale(.0641)"/><path d="m221.03-362.1-4.33 51.56c8.17 11.16 19.41 12.13 31.2 11.26-8.53-21.23-25.57-63.68-26.87-62.82z" style="fill:url(#o);fill-rule:evenodd;stroke:none" transform="translate(-13.312 31.765) scale(.0641)"/><path d="m343.58-477.68 60.71 8.52c-3.24-13.73-13.19-22.59-30.15-25.36l-30.56 16.84z" style="fill:url(#p);fill-rule:evenodd;stroke:none" transform="translate(-13.312 31.765) scale(.0641)"/></svg>