<svg xmlns="http://www.w3.org/2000/svg" viewBox="0 0 48 48"><path d="M24 2.287C12.03 2.287 2.287 12.034 2.287 24S12.034 45.712 24 45.712 45.712 35.965 45.712 24 35.965 2.287 24 2.287zm-.032 1.93a1.424 1.429 0 0 1 1.387 1.428 1.429 1.429 0 0 1-2.857 0 1.429 1.429 0 0 1 1.47-1.428zm3.27 2.351a17.579 17.579 0 0 1 12.035 8.571l-1.686 3.804c-.29.656.01 1.428.661 1.722l3.243 1.438a17.579 17.579 0 0 1 .037 3.05h-1.805c-.18 0-.253.12-.253.294v.827c0 1.947-1.098 2.374-2.062 2.48-.919.106-1.934-.386-2.063-.946-.542-3.046-1.442-3.693-2.866-4.819 1.769-1.12 3.606-2.779 3.606-4.993 0-2.393-1.64-3.9-2.756-4.639-1.571-1.033-3.307-1.24-3.776-1.24H10.904a17.579 17.579 0 0 1 9.835-5.549l2.2 2.306a1.295 1.295 0 0 0 1.837.041zM6.936 17.142a1.429 1.429 0 0 1 1.387 1.429 1.429 1.429 0 0 1-2.857 0 1.429 1.429 0 0 1 1.47-1.429zm34.06.064a1.429 1.429 0 0 1 1.386 1.429 1.429 1.429 0 0 1-2.857 0 1.429 1.429 0 0 1 1.47-1.429zm-31.369.23h2.49v11.226H7.092a17.579 17.579 0 0 1-.57-6.71l3.078-1.37a1.3 1.3 0 0 0 .661-1.717zm10.39.12h5.93c.308 0 2.164.353 2.164 1.745 0 1.153-1.424 1.566-2.595 1.566h-5.503zm0 8.065h4.543c.414 0 2.219.12 2.793 2.426.18.707.579 3.013.85 3.752.27.827 1.369 2.48 2.54 2.48h7.413a17.579 17.579 0 0 1-1.626 1.884l-3.017-.648a1.305 1.305 0 0 0-1.548 1.002l-.717 3.344a17.579 17.579 0 0 1-14.657-.07l-.717-3.343a1.3 1.3 0 0 0-1.543-1.002l-2.953.634a17.579 17.579 0 0 1-1.525-1.8h14.363c.16 0 .27-.028.27-.18v-5.08c0-.147-.11-.179-.27-.179h-4.203zM13.39 37.256a1.429 1.429 0 0 1 1.388 1.429 1.429 1.429 0 0 1-2.857 0 1.429 1.429 0 0 1 1.47-1.429zm21.153.064a1.429 1.429 0 0 1 1.387 1.429 1.429 1.429 0 0 1-2.857 0 1.429 1.429 0 0 1 1.47-1.429z"/><path fill-rule="evenodd" stroke="#000" stroke-linecap="round" stroke-linejoin="round" stroke-width="1.378" d="M44.5 24A20.5 20.5 0 0 1 24 44.5 20.5 20.5 0 0 1 3.5 24 20.5 20.5 0 0 1 24 3.5 20.5 20.5 0 0 1 44.5 24zm-.386-1.98L47.311 24l-3.197 1.98 2.747 2.567-3.519 1.319 2.196 3.054-3.716.606 1.562 3.427-3.762-.133.863 3.665-3.665-.863.133 3.762-3.427-1.562-.606 3.716-3.054-2.196-1.319 3.519-2.567-2.747L24 47.31l-1.98-3.197-2.567 2.747-1.319-3.519-3.054 2.196-.607-3.716-3.426 1.562.133-3.762-3.665.863.863-3.665-3.762.133 1.562-3.427-3.716-.606 2.196-3.054-3.519-1.319 2.747-2.567L.689 24l3.197-1.98-2.747-2.568 3.519-1.318-2.196-3.054 3.716-.607-1.562-3.426 3.762.133-.863-3.665 3.665.863-.133-3.762 3.426 1.562.607-3.716 3.054 2.195 1.319-3.518 2.567 2.747L24 .689l1.98 3.197 2.567-2.747 1.319 3.518 3.054-2.195.606 3.716 3.427-1.562-.133 3.762 3.665-.863-.863 3.665 3.762-.133-1.562 3.426 3.716.607-2.196 3.054 3.519 1.318z"/></svg>