<svg xmlns="http://www.w3.org/2000/svg" viewBox="0 0 48 48"><path fill="#a52b00" fill-rule="nonzero" d="M23.89 21.823c-5.22 0-9.961.628-13.472 1.65v8.735c3.51 1.023 8.253 1.65 13.472 1.65 5.974 0 11.322-.821 14.914-2.117v-7.8c-3.592-1.296-8.94-2.118-14.914-2.118M44.187 28.92l-.612-1.267c.003-.048.006-.096.006-.145 0-1.436-1.494-2.76-4.008-3.82v7.642c1.173-.495 2.124-1.047 2.805-1.641-.2.805-.885 2.434-1.432 3.58-.897 1.639-1.222 3.066-1.18 3.136.026.045.332-.428.784-1.193 1.05-1.498 3.042-4.356 3.44-5.085.45-.825.197-1.206.197-1.206M4.591 27.592c0 .277.056.55.163.817l-.366.652s-.294.381.223 1.184c.456.709 2.74 3.482 3.945 4.934.518.745.869 1.203.9 1.159.048-.07-.322-1.468-1.35-3.063-.48-.856-1.053-1.991-1.397-2.83.96.608 2.216 1.16 3.709 1.634v-8.973c-3.597 1.142-5.827 2.73-5.827 4.486"/><path fill="url(#rust-crab_svg__a)" fill-rule="nonzero" d="M.991-.034.933.008v.018L.99.069C.996.073.999.08.998.087S.992.1.986.103L.92.133.916.15l.048.053C.968.208.97.216.968.222a.023.023 0 0 1-.015.014L.882.254.875.27.91.33a.018.018 0 0 1 0 .02C.907.356.9.36.893.361L.82.365.81.379l.022.066c.003.007.001.014-.004.02a.022.022 0 0 1-.019.007L.737.462.724.474l.009.07C.734.551.731.558.725.562S.711.568.704.565L.636.542l-.015.01-.006.069a.02.02 0 0 1-.011.017.026.026 0 0 1-.021 0L.521.602.518.603.406.729S.394.747.359.725C.329.705.206.599.141.543A.267.267 0 0 1 .09.502C.093.499.149.509.217.554.278.588.371.631.38.619c0 0 .016-.015.026-.044.001.001.001.001 0 0 0 0-.315-.551-.101-1.106.006-.062-.03-.096-.03-.096C.266-.639.178-.598.12-.566c-.065.043-.118.053-.12.05a.245.245 0 0 1 .049-.039C.11-.608.227-.707.256-.726.289-.748.301-.73.301-.73l.101.115.013.002.055-.045c.005-.005.013-.006.02-.004s.012.007.014.014l.018.068.016.006.064-.034a.02.02 0 0 1 .021 0c.006.003.01.009.01.016l.004.07.015.01.069-.022a.023.023 0 0 1 .02.003.02.02 0 0 1 .008.019l-.011.069.013.012.072-.008a.023.023 0 0 1 .019.007.018.018 0 0 1 .003.02l-.024.065.01.015.072.005a.02.02 0 0 1 .017.011.018.018 0 0 1 0 .02l-.037.06.006.016.07.018c.007.002.013.007.015.014s0 .014-.005.02L.92-.116l.004.017.064.031c.007.003.011.009.012.016s-.003.014-.009.018zM.406.575z" transform="scale(-32.5071 32.5071) rotate(-85 .3 1.045)"/><path fill-rule="nonzero" d="M17.561 34.459a2.653 2.653 0 0 1-.109-.098l6.136-.502c-5.005-6.604-9.015-1.344-9.442-.755v1.355zM30.338 34.387c.072-.06.11-.097.11-.097l-5.898-.432c5.008-6.875 8.777-1.414 9.204-.826v1.355z"/><path fill="url(#rust-crab_svg__b)" fill-rule="nonzero" d="M1-.586s-.232.058-.476.421L.5-.064s.6.329-.076.795c0 0 .084-.145-.019-.534 0 0-.274.179-.265.539 0 0-.415-.345.184-.871 0 0 .215-.556.676-.601z" transform="matrix(0 -11.50366 -11.50366 0 33.022 39.335)"/><path fill-rule="nonzero" d="M27.336 24.41s1.872-2.05 3.745 0c0 0 1.47 2.733 0 4.1 0 0-2.407 1.913-3.745 0 0 0-1.604-1.503 0-4.1"/><path fill="#fff" fill-rule="nonzero" d="M29.504 25.17c0 .799-.47 1.446-1.05 1.446-.581 0-1.052-.647-1.052-1.445s.47-1.446 1.051-1.446c.58 0 1.05.647 1.05 1.446"/><path fill-rule="nonzero" d="M18.98 23.85s3.212-1.422 4.088 1.752c0 0 .919 3.7-2.637 3.908 0 0-4.533-.873-1.45-5.66"/><path fill="#fff" fill-rule="nonzero" d="M20.594 25.223c0 .823-.486 1.49-1.084 1.49-.598 0-1.084-.667-1.084-1.49s.486-1.49 1.084-1.49c.598 0 1.084.667 1.084 1.49"/><path fill="url(#rust-crab_svg__c)" fill-rule="nonzero" d="M.367.129c-.731-.57-.144-.84-.144-.84.036.32.249.547.249.547C.521-.548.525-.77.525-.77c.678.514.064.931.064.931.038.104.183.211.317.29L1 .77C.376.403.367.129.367.129z" transform="matrix(0 -10.29005 -10.29005 0 15.487 39.816)"/><defs><linearGradient id="rust-crab_svg__a" x2="1" gradientTransform="matrix(1 0 0 -1 0 0)" gradientUnits="userSpaceOnUse"><stop offset="0" stop-color="#f74c00"/><stop offset=".33" stop-color="#f74c00"/><stop offset="1" stop-color="#f49600"/></linearGradient><linearGradient id="rust-crab_svg__b" x2="1" gradientTransform="matrix(1 0 0 -1 0 0)" gradientUnits="userSpaceOnUse"><stop offset="0" stop-color="#cc3a00"/><stop offset=".15" stop-color="#cc3a00"/><stop offset=".74" stop-color="#f74c00"/><stop offset="1" stop-color="#f74c00"/></linearGradient><linearGradient id="rust-crab_svg__c" x2="1" gradientTransform="scale(1 -1)" gradientUnits="userSpaceOnUse"><stop offset="0" stop-color="#cc3a00"/><stop offset=".15" stop-color="#cc3a00"/><stop offset=".74" stop-color="#f74c00"/><stop offset="1" stop-color="#f74c00"/></linearGradient></defs></svg>
