
<svg xmlns="http://www.w3.org/2000/svg" version="1.1" xmlns:xlink="http://www.w3.org/1999/xlink" preserveAspectRatio="none" x="0px" y="0px" width="820px" height="819px" viewBox="0 0 820 819">
<defs>
<g id="Layer0_0_FILL">
<path fill="#0003F9" stroke="none" d="
M 819.45 84.05
L 819.45 77.95
Q 818.4 46.55 795.9 24.05 772.35 0.5 739 0.5 737.4 0.5 735.85 0.55
L 81.65 0.5
Q 81.35 0.5 81 0.5 47.65 0.5 24.05 24.05 1.75 46.4 0.55 77.5 0.5 78.35 0.5 79.25
L 0.5 739.45
Q 0.7 772.5 24.05 795.85 45.85 817.65 75.95 819.3
L 86.25 819.3 740.65 819.45
Q 741.45 819.45 742.25 819.4 773.5 818.3 795.9 795.85 819.25 772.55 819.5 739.7 819.5 739.4 819.5 739.15 819.5 739.05 819.5 738.95 819.5 737.4 819.45 735.9
L 819.45 84.05
M 787 235.8
Q 787 301.65 740.45 348.2 693.9 394.75 628.05 394.75 563.85 394.75 518 350.5 435.5 278.4 444.3 385.95
L 444.3 526.9
Q 439 569.85 467.4 599.65 475.4 608.05 486.9 609.55 537.5 616.85 549.4 666.35 561.25 715.85 533.55 737.65 505.85 759.4 465.1 757.5
L 187.25 757.5
Q 97.7 753.8 78.5 733.8 59.25 713.75 54 697.7 41 658.3 76.55 631.4 83.25 626.35 90.85 622.95 112.9 613.15 126.3 593.35 149.05 559.55 144 518.05
L 144 411.55
Q 146.65 343.6 147.25 332.25 148.05 316.7 143.3 301.95 138.45 286.85 126.75 276.2 115.35 265.95 100.85 260.75 96.8 259.2 93 257.3 89.3 255.4 85.9 253.05 73.05 243.95 66.4 229.75 63.25 223 63.35 215.6 63.55 200.55 71.75 187.8 80.1 174.85 91.15 164.1 141.3 110.3 349 83.55 439.25 68.75 441.1 126.5 443.7 228.45 492.35 152.45 502 137.05 515.65 123.4 562.2 76.85 628.05 76.85 693.9 76.85 740.45 123.4 787 169.95 787 235.8 Z"/>

<path fill="#FFFEFF" stroke="none" d="
M 740.45 348.2
Q 787 301.65 787 235.8 787 169.95 740.45 123.4 693.9 76.85 628.05 76.85 562.2 76.85 515.65 123.4 502 137.05 492.35 152.45 443.7 228.45 441.1 126.5 439.25 68.75 349 83.55 141.3 110.3 91.15 164.1 80.1 174.85 71.75 187.8 63.55 200.55 63.35 215.6 63.25 223 66.4 229.75 73.05 243.95 85.9 253.05 89.3 255.4 93 257.3 96.8 259.2 100.85 260.75 115.35 265.95 126.75 276.2 138.45 286.85 143.3 301.95 148.05 316.7 147.25 332.25 146.65 343.6 144 411.55
L 144 518.05
Q 149.05 559.55 126.3 593.35 112.9 613.15 90.85 622.95 83.25 626.35 76.55 631.4 41 658.3 54 697.7 59.25 713.75 78.5 733.8 97.7 753.8 187.25 757.5
L 465.1 757.5
Q 505.85 759.4 533.55 737.65 561.25 715.85 549.4 666.35 537.5 616.85 486.9 609.55 475.4 608.05 467.4 599.65 439 569.85 444.3 526.9
L 444.3 385.95
Q 435.5 278.4 518 350.5 563.85 394.75 628.05 394.75 693.9 394.75 740.45 348.2 Z"/>
</g>

<path id="Layer0_0_1_STROKES" stroke="#0003F9" stroke-width="1" stroke-linejoin="round" stroke-linecap="round" fill="none" d="
M 819.45 77.95
L 819.45 84.05
Q 819.5 82.55 819.5 81 819.5 79.45 819.45 77.95 818.4 46.55 795.9 24.05 772.35 0.5 739 0.5 737.4 0.5 735.85 0.55
L 81.65 0.5
Q 81.35 0.5 81 0.5 47.65 0.5 24.05 24.05 1.75 46.4 0.55 77.5 0.5 78.35 0.5 79.25
L 0.5 739.45
Q 0.7 772.5 24.05 795.85 45.85 817.65 75.95 819.3
L 86.25 819.3 740.65 819.45
Q 741.45 819.45 742.25 819.4 773.5 818.3 795.9 795.85 819.25 772.55 819.5 739.7 819.5 739.4 819.5 739.15 819.5 739.05 819.5 738.95 819.5 737.4 819.45 735.9
L 819.45 84.05
M 819.45 70.55
L 819.45 77.95
M 91.15 164.1
Q 141.3 110.3 349 83.55 439.25 68.75 441.1 126.5 443.7 228.45 492.35 152.45 502 137.05 515.65 123.4 562.2 76.85 628.05 76.85 693.9 76.85 740.45 123.4 787 169.95 787 235.8 787 301.65 740.45 348.2 693.9 394.75 628.05 394.75 563.85 394.75 518 350.5 435.5 278.4 444.3 385.95
L 444.3 526.9
Q 439 569.85 467.4 599.65 475.4 608.05 486.9 609.55 537.5 616.85 549.4 666.35 561.25 715.85 533.55 737.65 505.85 759.4 465.1 757.5
L 187.25 757.5
Q 97.7 753.8 78.5 733.8 59.25 713.75 54 697.7 41 658.3 76.55 631.4 83.25 626.35 90.85 622.95 112.9 613.15 126.3 593.35 149.05 559.55 144 518.05
L 144 411.55
Q 146.65 343.6 147.25 332.25 148.05 316.7 143.3 301.95 138.45 286.85 126.75 276.2 115.35 265.95 100.85 260.75 96.8 259.2 93 257.3 89.3 255.4 85.9 253.05 73.05 243.95 66.4 229.75 63.25 223 63.35 215.6 63.55 200.55 71.75 187.8 80.1 174.85 91.15 164.1 Z
M 86.25 819.3
Q 83.65 819.45 81 819.45 78.45 819.45 75.95 819.3"/>
</defs>

<g transform="matrix( 1, 0, 0, 1, 0,0) ">
<use xlink:href="#Layer0_0_FILL"/>

<use xlink:href="#Layer0_0_1_STROKES"/>
</g>
</svg>
