<svg xmlns="http://www.w3.org/2000/svg" viewBox="0 0 48 48"><defs><filter id="safari_svg__d" width="1.043" height="1.044" x="-.021" y="-.022" color-interpolation-filters="sRGB"><feGaussianBlur stdDeviation=".958"/></filter><filter id="safari_svg__a" width="1.096" height="1.096" x="-.048" y="-.048" color-interpolation-filters="sRGB"><feGaussianBlur stdDeviation="3.564"/></filter><radialGradient id="safari_svg__c" cx="413.06" cy="136.82" r="82.125" gradientTransform="translate(194.54 155.58) scale(.38143)" gradientUnits="userSpaceOnUse"><stop offset="0" stop-color="#06c2e7"/><stop offset=".25" stop-color="#0db8ec"/><stop offset=".5" stop-color="#12aef1"/><stop offset=".75" stop-color="#1f86f9"/><stop offset="1" stop-color="#107ddd"/></radialGradient><linearGradient id="safari_svg__b" x1="412.98" x2="412.98" y1="237.61" y2="59.392" gradientTransform="translate(206.79 159.77) scale(.35154)" gradientUnits="userSpaceOnUse"><stop offset="0" stop-color="#bdbdbd"/><stop offset="1" stop-color="#fff"/></linearGradient></defs><path d="M502.08 148.5a89.108 89.108 0 0 1-89.108 89.108 89.108 89.108 0 0 1-89.108-89.108 89.108 89.108 0 0 1 89.108-89.108A89.108 89.108 0 0 1 502.08 148.5z" filter="url(#safari_svg__a)" opacity=".53" paint-order="markers stroke fill" transform="matrix(.24574 0 0 .23664 -77.487 -10.382)"/><path fill="url(#safari_svg__b)" stroke="#cdcdcd" stroke-linecap="round" stroke-linejoin="round" stroke-width=".093" d="M383.29 211.98a31.325 31.325 0 0 1-31.325 31.325 31.325 31.325 0 0 1-31.325-31.325 31.325 31.325 0 0 1 31.325-31.325 31.325 31.325 0 0 1 31.325 31.325z" paint-order="markers stroke fill" transform="translate(-231.414 -130.93) scale(.72566)"/><path fill="url(#safari_svg__c)" d="M380.84 211.98a28.871 28.871 0 0 1-28.871 28.871 28.871 28.871 0 0 1-28.871-28.871 28.871 28.871 0 0 1 28.871-28.871 28.871 28.871 0 0 1 28.871 28.871z" paint-order="markers stroke fill" transform="translate(-231.414 -130.93) scale(.72566)"/><path fill="#f4f2f3" d="M23.999 3.039a.305.305 0 0 0-.306.305v3.523a.305.305 0 1 0 .611 0V3.344A.305.305 0 0 0 24 3.04zM22 3.165a.305.305 0 0 0-.334.336l.153 1.474a.305.305 0 1 0 .608-.064l-.154-1.474A.305.305 0 0 0 22 3.165zm4.01.001a.305.305 0 0 0-.274.273l-.155 1.473a.305.305 0 1 0 .608.064l.155-1.474a.305.305 0 0 0-.334-.336zm-6.063.297a.305.305 0 0 0-.297.369l.73 3.446a.305.305 0 1 0 .597-.126l-.73-3.447a.305.305 0 0 0-.3-.243zm8.116.002a.304.304 0 0 0-.3.243l-.733 3.446a.305.305 0 1 0 .598.127l.732-3.447a.305.305 0 0 0-.297-.368zm-10.075.55a.305.305 0 0 0-.317.399l.459 1.41a.305.305 0 1 0 .58-.19l-.457-1.409a.305.305 0 0 0-.265-.21zm12.023 0a.305.305 0 0 0-.264.21l-.458 1.41a.305.305 0 1 0 .58.19l.459-1.41a.305.305 0 0 0-.317-.4zm-13.96.709a.305.305 0 0 0-.274.43l1.432 3.22a.305.305 0 1 0 .558-.249l-1.43-3.22a.305.305 0 0 0-.285-.181zm15.92.01a.305.305 0 0 0-.285.182L30.25 8.133a.305.305 0 1 0 .558.25l1.435-3.218a.305.305 0 0 0-.273-.43zm-17.718.941a.305.305 0 0 0-.286.458l.742 1.283a.305.305 0 1 0 .529-.305l-.741-1.283a.305.305 0 0 0-.244-.153zm19.491 0a.304.304 0 0 0-.243.153L32.76 7.11a.305.305 0 1 0 .529.305l.74-1.283a.305.305 0 0 0-.285-.458zm-21.236 1.09a.306.306 0 0 0-.237.484l2.068 2.852a.305.305 0 1 0 .495-.359L12.766 6.89a.305.305 0 0 0-.257-.126zm23.004.015a.304.304 0 0 0-.258.126l-2.073 2.849a.305.305 0 1 0 .494.36l2.073-2.85a.305.305 0 0 0-.236-.485zM10.948 8.073a.305.305 0 0 0-.243.51l.991 1.101a.305.305 0 1 0 .454-.409l-.991-1.1a.305.305 0 0 0-.211-.102zm26.106.002a.306.306 0 0 0-.211.101l-.992 1.102a.305.305 0 1 0 .454.408l.992-1.1a.305.305 0 0 0-.243-.51zM9.452 9.51a.305.305 0 0 0-.188.532l2.618 2.357a.305.305 0 1 0 .409-.454L9.672 9.588a.305.305 0 0 0-.22-.078zm29.105.01a.304.304 0 0 0-.22.078l-2.62 2.356a.305.305 0 1 0 .408.454l2.62-2.355a.305.305 0 0 0-.188-.533zM8.208 11.11a.305.305 0 0 0-.19.553l1.2.87a.305.305 0 1 0 .36-.494l-1.2-.871a.305.305 0 0 0-.17-.059zm31.592.01a.306.306 0 0 0-.17.059l-1.199.87a.305.305 0 1 0 .359.495l1.2-.87a.305.305 0 0 0-.19-.553zM7.046 12.817a.305.305 0 0 0-.131.57l3.05 1.76a.305.305 0 1 0 .306-.528L7.22 12.856a.305.305 0 0 0-.174-.04zm33.908 0a.302.302 0 0 0-.174.04l-3.052 1.762a.305.305 0 1 0 .306.529l3.051-1.762a.305.305 0 0 0-.131-.57zM6.166 14.634a.305.305 0 0 0-.13.585l1.353.603a.305.305 0 1 0 .25-.558l-1.354-.603a.305.305 0 0 0-.119-.027zm35.672.013c-.04 0-.08.01-.118.026l-1.354.603a.305.305 0 1 0 .248.558l1.354-.603a.305.305 0 0 0-.13-.584zM5.383 16.535a.305.305 0 0 0-.069.595l3.35 1.091a.305.305 0 1 0 .19-.58l-3.35-1.092a.306.306 0 0 0-.12-.014zm37.238.013a.296.296 0 0 0-.121.014l-3.35 1.09a.305.305 0 1 0 .188.58l3.35-1.09a.305.305 0 0 0-.068-.594zM4.896 18.53a.305.305 0 0 0-.065.604l1.449.309a.305.305 0 1 0 .127-.598l-1.45-.308a.3.3 0 0 0-.061-.007zm38.21.003a.42.42 0 0 0-.062.006l-1.45.308a.305.305 0 1 0 .127.598l1.45-.308a.305.305 0 0 0-.066-.604zm-38.58 2.004a.305.305 0 0 0-.002.608l3.504.37a.305.305 0 1 0 .064-.607l-3.504-.37a.313.313 0 0 0-.062-.001zm38.95.026a.28.28 0 0 0-.061 0l-3.504.366a.305.305 0 1 0 .063.608l3.504-.366a.305.305 0 0 0-.001-.608zm-39.01 2.028a.305.305 0 1 0 0 .611H5.95a.305.305 0 1 0 0-.61zm37.585 0a.305.305 0 1 0 0 .611h1.482a.305.305 0 1 0 0-.61zM8.088 24.256a.279.279 0 0 0-.062 0l-3.504.366a.305.305 0 1 0 .063.608l3.504-.366a.305.305 0 0 0-.001-.608zm31.822.022a.305.305 0 0 0-.002.608l3.504.37a.305.305 0 1 0 .064-.607l-3.504-.37a.315.315 0 0 0-.062 0zM6.341 26.342a.312.312 0 0 0-.062.006l-1.45.308a.305.305 0 1 0 .128.598l1.45-.308a.305.305 0 0 0-.066-.605zm35.317.002a.305.305 0 0 0-.065.604l1.45.309a.305.305 0 1 0 .127-.598l-1.45-.308a.3.3 0 0 0-.062-.006zM8.782 27.548a.296.296 0 0 0-.12.014L5.31 28.65a.305.305 0 1 0 .189.58l3.35-1.088a.305.305 0 0 0-.068-.596zm30.432.01a.305.305 0 0 0-.069.595l3.35 1.092a.305.305 0 1 0 .19-.581l-3.35-1.092a.305.305 0 0 0-.12-.014zm-31.71 2.375c-.04 0-.08.01-.119.027l-1.354.602a.305.305 0 1 0 .249.558l1.354-.602a.305.305 0 0 0-.13-.585zm32.987.012a.305.305 0 0 0-.13.585l1.354.603a.305.305 0 1 0 .248-.558l-1.353-.604a.305.305 0 0 0-.119-.026zm-30.351.662a.302.302 0 0 0-.174.04L6.915 32.41a.305.305 0 1 0 .305.529l3.051-1.762a.305.305 0 0 0-.131-.57zm27.72 0a.305.305 0 0 0-.131.57l3.05 1.76a.305.305 0 1 0 .306-.528l-3.05-1.762a.305.305 0 0 0-.175-.04zM9.38 33.192a.306.306 0 0 0-.17.058l-1.199.87a.305.305 0 1 0 .359.495l1.2-.87a.305.305 0 0 0-.19-.553zm29.235.01a.305.305 0 0 0-.19.553l1.199.87a.305.305 0 1 0 .36-.494l-1.2-.87a.305.305 0 0 0-.169-.06zm-26.518.105a.304.304 0 0 0-.22.079L9.254 35.74a.305.305 0 1 0 .408.454l2.62-2.355a.305.305 0 0 0-.187-.533zm23.801.009a.306.306 0 0 0-.188.532l2.618 2.357a.305.305 0 1 0 .41-.454l-2.62-2.357a.304.304 0 0 0-.22-.078zm-21.316 2.237a.304.304 0 0 0-.258.126l-2.072 2.85a.305.305 0 1 0 .494.359l2.072-2.85a.305.305 0 0 0-.236-.485zm18.82.013a.306.306 0 0 0-.236.485l2.069 2.852a.305.305 0 1 0 .494-.359l-2.069-2.852a.305.305 0 0 0-.257-.126zm-21.495.44a.306.306 0 0 0-.212.101l-.991 1.102a.305.305 0 1 0 .454.408l.991-1.101a.305.305 0 0 0-.242-.51zm24.186.002a.305.305 0 0 0-.243.51l.992 1.1a.305.305 0 1 0 .454-.409l-.992-1.1a.305.305 0 0 0-.21-.101zM17.476 37.23a.304.304 0 0 0-.285.18l-1.436 3.218a.305.305 0 1 0 .558.25l1.436-3.218a.305.305 0 0 0-.273-.43zm13.03.008a.305.305 0 0 0-.274.43l1.431 3.22a.305.305 0 1 0 .558-.249l-1.43-3.22a.305.305 0 0 0-.285-.18zm-15.553.986a.304.304 0 0 0-.243.153l-.74 1.283a.305.305 0 1 0 .528.306l.741-1.284a.305.305 0 0 0-.286-.458zm18.094 0a.305.305 0 0 0-.286.458l.741 1.284a.305.305 0 1 0 .53-.306l-.742-1.283a.305.305 0 0 0-.243-.153zm-12.376.046a.304.304 0 0 0-.3.242l-.732 3.447a.305.305 0 1 0 .597.127l.732-3.447a.305.305 0 0 0-.297-.368zm6.647.003a.305.305 0 0 0-.297.369l.73 3.446a.305.305 0 1 0 .598-.127l-.73-3.446a.305.305 0 0 0-.3-.243zM24 38.62a.305.305 0 0 0-.305.306v3.523a.305.305 0 1 0 .61 0v-3.523A.305.305 0 0 0 24 38.62zm-5.607 1.139a.305.305 0 0 0-.264.21l-.458 1.41a.305.305 0 1 0 .581.188l.458-1.41a.305.305 0 0 0-.317-.398zm11.212 0a.305.305 0 0 0-.317.399l.458 1.41a.305.305 0 1 0 .581-.189l-.458-1.41a.305.305 0 0 0-.264-.21zm-7.522.785a.305.305 0 0 0-.273.272l-.155 1.474c-.018.169.103.318.272.336s.318-.103.335-.272l.155-1.474a.305.305 0 0 0-.334-.336zm3.823.002a.305.305 0 0 0-.334.336l.154 1.474a.305.305 0 1 0 .608-.064l-.155-1.474a.305.305 0 0 0-.273-.272z" paint-order="markers stroke fill"/><path d="m469.1 100.61-65.51 38.061-41.42 65.207 60.594-44.881z" filter="url(#safari_svg__d)" opacity=".409" paint-order="markers stroke fill" transform="translate(-81.355 -14.986) scale(.2551)"/><path fill="#ff5150" d="m26.394 25.404-4.79-5.016 16.992-11.43z" paint-order="markers stroke fill"/><path fill="#f1f1f1" d="m26.394 25.404-4.79-5.016L9.402 36.835z" paint-order="markers stroke fill"/><path d="m9.402 36.835 16.992-11.43L38.596 8.956z" opacity=".243"/></svg>