<svg xmlns="http://www.w3.org/2000/svg" viewBox="0 0 48 48"><g fill="#4f0599"><path d="M20.2 36.375c.55.543 1.293.845 2.066.84v-.012h7.919a3.779 3.779 0 0 0 3.304-3.544V22.254a2.898 2.898 0 0 0-2.895-2.896 2.898 2.898 0 0 0-2.896 2.896v7.245a1.886 1.886 0 0 1-1.888 1.888h-3.581a2.914 2.914 0 0 0-2.029 4.988zm-4.72-8.535a2.893 2.893 0 0 0 2.047.848 2.895 2.895 0 0 0 2.889-2.896v-7.244a1.887 1.887 0 0 1 1.888-1.889h3.588a2.916 2.916 0 0 0 2.06-.867 2.912 2.912 0 0 0 .835-2.072 2.94 2.94 0 0 0-2.933-2.89H17.93a3.776 3.776 0 0 0-3.299 3.55v11.412c0 .768.305 1.505.848 2.048z"/><path fill-rule="evenodd" d="M12.781 0h14.37a17.131 17.131 0 0 1 17.164 17.12v22.83A9.045 9.045 0 0 1 36.051 48H20.857a17.152 17.152 0 0 1-12.143-5.015A17.148 17.148 0 0 1 3.686 30.85V9.109A9.114 9.114 0 0 1 12.78 0zm18.696 6.716a11.399 11.399 0 0 0-4.376-.869L13 5.822a3.562 3.562 0 0 0-3.51 3.575v21.344a11.408 11.408 0 0 0 7.044 10.545c1.384.573 2.869.868 4.368.867h14.59a3.571 3.571 0 0 0 3.021-2.914V17.29a11.404 11.404 0 0 0-3.328-8.093 11.393 11.393 0 0 0-3.707-2.481z" clip-rule="evenodd"/></g></svg>