<svg xmlns="http://www.w3.org/2000/svg" viewBox="0 0 48 48"><path fill="none" d="M-1-1h802v602H-1z"/><g fill-opacity=".8"><path fill="#6875f5" d="M44.989 15.561h-2.636c-1.254-1.13-2.886-1.757-4.643-1.757h-5.898c-2.51 0-4.706 1.38-5.96 3.389-.753-.565-1.632-.879-2.636-.879s-1.882.314-2.635.879a6.986 6.986 0 0 0-5.96-3.389H8.721c-1.757 0-3.388.628-4.643 1.757H1.444C.628 15.561 0 16.19 0 17.004s.627 1.444 1.443 1.444h.753a7.2 7.2 0 0 0-.377 2.321v2.447c0 5.208 4.267 9.412 9.412 9.412h.941c5.208 0 9.412-4.267 9.412-9.412V20.77c0-.878.753-1.631 1.631-1.631s1.632.753 1.632 1.631v2.447c0 5.208 4.266 9.412 9.411 9.412h.941c5.208 0 9.412-4.267 9.412-9.412V20.77a7.2 7.2 0 0 0-.376-2.321h.753c.815 0 1.443-.628 1.443-1.444s-.628-1.443-1.443-1.443zM12.173 29.804h-.941a6.587 6.587 0 0 1-6.588-6.588V20.77a4 4 0 0 1 1.066-2.76c.753-.816 1.82-1.381 3.075-1.381h5.898a4.137 4.137 0 0 1 4.141 4.141v2.447c-.063 3.64-3.012 6.588-6.65 6.588zm23.027 0h-.94a6.587 6.587 0 0 1-6.589-6.588V20.77a4.137 4.137 0 0 1 4.141-4.141h5.898a4.137 4.137 0 0 1 4.141 4.141v2.447c0 3.64-3.011 6.588-6.65 6.588z"/><path fill="#f05252" d="M46.557 17.13h-2.635c-1.255-1.13-2.886-1.757-4.643-1.757H33.38c-2.51 0-4.706 1.38-5.96 3.388-.754-.564-1.632-.878-2.636-.878s-1.883.314-2.635.878a6.986 6.986 0 0 0-5.961-3.388H10.29c-1.757 0-3.389.628-4.643 1.757H3.012c-.815 0-1.443.627-1.443 1.443s.628 1.443 1.443 1.443h.753a7.2 7.2 0 0 0-.376 2.322v2.447c0 5.208 4.266 9.412 9.412 9.412h.94c5.209 0 9.412-4.267 9.412-9.412v-2.447c0-.879.753-1.632 1.632-1.632s1.631.753 1.631 1.632v2.447c0 5.208 4.267 9.412 9.412 9.412h.941c5.208 0 9.412-4.267 9.412-9.412v-2.447a7.2 7.2 0 0 0-.377-2.322h.753c.816 0 1.443-.627 1.443-1.443s-.627-1.443-1.443-1.443zM13.742 31.373H12.8a6.587 6.587 0 0 1-6.589-6.588v-2.447a4 4 0 0 1 1.067-2.761c.753-.816 1.82-1.38 3.074-1.38h5.898a4.137 4.137 0 0 1 4.142 4.14v2.448c-.063 3.639-3.012 6.588-6.651 6.588zm23.027 0h-.941a6.587 6.587 0 0 1-6.588-6.588v-2.447a4.137 4.137 0 0 1 4.14-4.141h5.899a4.137 4.137 0 0 1 4.141 4.14v2.448c0 3.639-3.012 6.588-6.65 6.588z"/></g><path d="M45.773 16.346h-2.635c-1.255-1.13-2.887-1.757-4.643-1.757h-5.898c-2.51 0-4.706 1.38-5.961 3.388-.753-.565-1.632-.878-2.636-.878s-1.882.313-2.635.878a6.986 6.986 0 0 0-5.96-3.388H9.505c-1.756 0-3.388.627-4.643 1.757H2.228c-.816 0-1.443.627-1.443 1.443s.627 1.443 1.443 1.443h.753a7.2 7.2 0 0 0-.377 2.321V24c0 5.208 4.267 9.412 9.412 9.412h.941c5.208 0 9.412-4.266 9.412-9.411v-2.448c0-.878.753-1.63 1.631-1.63s1.632.752 1.632 1.63V24c0 5.208 4.267 9.412 9.412 9.412h.94c5.209 0 9.413-4.266 9.413-9.411v-2.448a7.2 7.2 0 0 0-.377-2.321h.753c.816 0 1.443-.628 1.443-1.443s-.627-1.443-1.443-1.443zM12.957 30.589h-.94A6.587 6.587 0 0 1 5.427 24v-2.447a4 4 0 0 1 1.067-2.76c.753-.816 1.82-1.38 3.074-1.38h5.898a4.137 4.137 0 0 1 4.141 4.14V24c-.062 3.64-3.011 6.589-6.65 6.589zm23.028 0h-.941A6.587 6.587 0 0 1 28.455 24v-2.447a4.137 4.137 0 0 1 4.142-4.14h5.898a4.137 4.137 0 0 1 4.14 4.14V24c0 3.64-3.011 6.589-6.65 6.589z"/></svg>