<svg xmlns="http://www.w3.org/2000/svg" viewBox="0 0 48 48"><path fill="none" d="M0 0h140.06v36.686H0z"/><path fill="url(#seafile_svg__a)" d="M0 22.046a1.442 1.442 0 0 1 2.429-1.051c-.007-.13-.015-.252-.015-.382a4.83 4.83 0 0 1 6.78-4.424c-.007-.137-.014-.273-.014-.403a7.244 7.244 0 0 1 7.247-7.248c3.978 0 7.205 3.207 7.248 7.176a11.402 11.402 0 0 0-3.025 4.25 8.421 8.421 0 0 0-4.46-1.289c-3.371 0-6.282 1.917-7.644 4.814H1.448C.648 23.473 0 22.846 0 22.046zm38.164-4.33a9.865 9.865 0 0 0-7.003-2.903c-4.993 0-9.128 3.696-9.806 8.509a6.756 6.756 0 0 0-5.411-2.71 6.767 6.767 0 0 0-6.052 9.792c-2.35.475-4.093 2.298-4.093 4.467 0 2.536 2.377 4.59 5.317 4.59 1.297 0 2.486-.403 3.408-1.073l10.872-10.692a6.723 6.723 0 0 1 4.56-1.773 6.773 6.773 0 0 1 6.766 6.585s0-.007-.007-.007c.057 1.08-.504 2.169-1.541 2.766-1.449.836-3.264.39-4.057-.987-.8-1.383-.274-3.178 1.175-4.013a3.237 3.237 0 0 1 1.052-.381 4.7 4.7 0 0 0-.965-.094 4.835 4.835 0 0 0 0 9.67c.115 0 .238-.007.353-.015l-.007-.015.137-.015h9.489v.036c2.903-.13 5.648-2.802 5.648-6.06 0-3.335-2.853-6.058-6.189-6.058h-.014c-.54.965-1.196 1.527-1.938 2.132a9.86 9.86 0 0 0 1.225-4.763 9.932 9.932 0 0 0-2.92-6.988z"/><defs><linearGradient id="seafile_svg__a" x2="1" gradientTransform="rotate(90 7.727 16.27) scale(30.925)" gradientUnits="userSpaceOnUse"><stop offset="0" stop-color="#fad956"/><stop offset="1" stop-color="#ffa10f"/></linearGradient></defs></svg>