<svg xmlns="http://www.w3.org/2000/svg" viewBox="0 0 48 48"><path fill="#64c438" d="m22.456 45.368-1.553-5.91c.547-.264.997-.473 1.593-.768 2.478-1.056 4.873-2.265 7.102-3.785 2.79-1.903 5.395-4.03 7.664-6.535 1.781-1.966 3.265-4.136 4.112-6.685.564-1.696.84-3.43.592-5.217-.206-1.482-.75-2.836-1.592-4.074-1.016-1.494-2.338-2.63-3.948-3.442-2.013-1.017-4.16-1.392-6.395-1.326-1.982.059-3.89.495-5.75 1.174-3.419 1.249-6.555 3.035-9.565 5.056a12 12 0 0 0-2.383 2.075c-.38.437-.674.921-.797 1.498-.208.974.351 1.716 1.345 1.763.695.033 1.315-.236 1.923-.524 1.892-.893 3.599-2.098 5.366-3.2 1.451-.905 2.916-1.789 4.51-2.423 1.572-.626 3.195-.97 4.894-.685 1.851.31 3.34 1.183 4.245 2.883.634 1.191.684 2.454.35 3.742-.38 1.466-1.229 2.658-2.233 3.752-1.385 1.509-2.98 2.763-4.744 3.798-1.848 1.084-3.68 2.2-5.576 3.197-2.217 1.165-4.58 1.991-6.985 2.689-2.021.587-4.076.852-6.173.665-1.758-.156-3.414-.666-4.873-1.682a7.86 7.86 0 0 1-2.88-3.639c-.91-2.321-.863-4.687-.287-7.07.65-2.693 2.016-5.02 3.7-7.182 1.279-1.642 2.753-3.094 4.342-4.43 2.248-1.892 4.634-3.594 7.19-5.048.866-.492 1.747-.956 2.57-1.404l.843 1.733c-.762.41-1.514.802-2.255 1.215-3.192 1.777-6.115 3.92-8.72 6.483-1.414 1.391-2.609 2.961-3.514 4.733-.948 1.857-1.457 3.821-1.233 5.917.246 2.294 1.322 4.058 3.435 5.116 1.26.631 2.606.82 3.994.79 1.913-.042 3.716-.585 5.497-1.222 2.655-.95 5.125-2.275 7.53-3.728 1.411-.853 2.819-1.719 4.013-2.873.63-.609 1.26-1.229 1.582-2.076.573-1.507-.242-2.812-1.856-2.965-.878-.083-1.675.209-2.452.568-2.052.95-3.897 2.25-5.809 3.438-1.461.908-2.939 1.789-4.546 2.418-1.114.435-2.265.707-3.473.568-2.073-.237-3.37-1.874-3.144-3.95.178-1.632.971-2.963 2.044-4.15 1.187-1.314 2.571-2.39 4.057-3.34 2.282-1.458 4.598-2.856 7.077-3.966 2.872-1.288 5.82-2.309 8.98-2.587 2.288-.202 4.551-.073 6.783.506 1.973.513 3.792 1.347 5.43 2.56a14 14 0 0 1 3.917 4.457 12.4 12.4 0 0 1 1.551 5.117c.158 1.913-.068 3.79-.621 5.616-.539 1.78-1.262 3.49-2.253 5.075A30.6 30.6 0 0 1 40.18 34.1c-1.928 1.829-3.874 3.631-6.068 5.144-2.854 1.969-5.827 3.719-9.042 5.038-.858.352-1.713.713-2.613 1.087"/></svg>