<svg xmlns="http://www.w3.org/2000/svg" viewBox="0 0 48 48"><defs><radialGradient id="searx_svg__a" cx="294.46" cy="208.38" r="107.58" gradientTransform="translate(-22.325 -9.611) scale(.13226)" gradientUnits="userSpaceOnUse"><stop offset="0" stop-color="#a9a9a9"/><stop offset="1"/></radialGradient><linearGradient id="searx_svg__b" x1="120.69" x2="120.69" y1="239.62" y2="602.18" gradientTransform="translate(3.185 -12.512) scale(.10166)" gradientUnits="userSpaceOnUse"><stop offset="0" stop-color="#fff"/><stop offset="1" stop-color="#fff" stop-opacity="0"/></linearGradient></defs><g transform="translate(0 -1.284) scale(1.0979)"><path d="M1.164 3.017C.223 5.033-.182 7.22.076 9.473c.664 5.79 5.512 10.492 12.107 12.586-.876-2.964-.706-5.943.35-8.709-6.315-1.874-10.8-5.66-11.37-10.332zm30.851.178c.942 2.016 1.346 4.203 1.088 6.456-.664 5.79-5.512 10.492-12.107 12.586.876-2.964.706-5.943-.35-8.709 6.314-1.876 10.799-5.662 11.369-10.334z"/><path d="m17.266 21.378 1.597-1.84c.54-.62 2.64.326 4.71 2.123l17.26 14.988c2.068 1.797 3.3 3.744 2.76 4.365l-1.596 1.84c-.54.62-2.64-.326-4.71-2.123l-17.26-14.988c-2.069-1.797-3.3-3.744-2.761-4.365z"/><circle cx="16.62" cy="17.949" r="14.229" fill="url(#searx_svg__a)"/><circle cx="16.587" cy="17.916" r="10.321" fill="url(#searx_svg__b)"/><circle cx="16.747" cy="18.14" r="3.607" fill="#1a1a1a"/><circle cx="18.22" cy="16.89" r=".735" fill="#fff"/></g></svg>