<svg xmlns="http://www.w3.org/2000/svg" viewBox="0 0 48 48"><path fill="#fdfdfd" d="M39.223 42.277c-11.286 9.669-29.459 6.31-36.579-7.546C-3.52 22.734 1.122 6.747 16.254 1.644c8.144-2.747 15.81-1.607 22.665 3.81 1.292 1.02 1.452 1.665.834 3.186-3.834 9.437-7.668 18.875-11.512 28.309-1.136 2.787-2.578 3.655-4.997 3.122-1.21-.267-1.942-1.06-2.426-2.106-1.342-2.902-2.326-5.946-3.479-8.922-1.684-4.35-3.304-8.723-4.957-13.084-.744-1.964.028-3.61 2.066-4.372 1.964-.735 3.546.014 4.224 2.073 1.595 4.84 3.154 9.693 4.735 14.539.15.457.17 1.108.845 1.075.585-.029.593-.632.752-1.057 2.493-6.651 4.986-13.303 7.484-19.953.676-1.801.684-1.798-1.049-2.505C18.285.393 3.752 10.252 3.952 24.405c.14 9.974 8.081 18.497 17.99 19.308 10.786.882 19.833-6.093 21.631-16.738.627-3.714-.016-7.298-1.413-10.77-.507-1.26-.13-2.19 1.044-2.75 1.09-.52 1.926-.225 2.467.896 3.93 8.148 2.668 15.826-2.147 23.155-1.17 1.78-2.612 3.342-4.301 4.77z"/></svg>
