<svg xmlns="http://www.w3.org/2000/svg" viewBox="0 0 48 48"><path fill="#414753" d="M31.454 42.277c6.744-3.002 10.796-8.056 12.072-15.253.665-3.747.024-7.365-1.386-10.871-.507-1.26-.129-2.192 1.044-2.75 1.09-.519 1.926-.224 2.468.895 3.824 7.885 2.799 15.437-1.797 22.605-5.419 8.453-15.107 12.406-24.765 10.313C9.241 45.082 1.826 37.299.287 27.482-1.709 14.742 6.887 2.88 19.72.655 26.834-.58 33.276.87 38.946 5.433c1.228.988 1.4 1.643.807 3.101-3.845 9.47-7.689 18.94-11.545 28.403-1.118 2.745-2.611 3.621-5.024 3.064-1.207-.279-1.964-1.075-2.394-2.139-1.262-3.125-2.468-6.272-3.671-9.42-1.588-4.155-3.15-8.319-4.727-12.477-.772-2.032.004-3.702 2.083-4.452 1.964-.709 3.518.056 4.202 2.133 1.591 4.84 3.144 9.693 4.744 14.53.13.393.496.708.752 1.059.265-.338.633-.637.778-1.02 2.528-6.674 5.028-13.359 7.536-20.04.663-1.766.667-1.765-1.105-2.483-13.066-5.3-27.55 4.462-27.44 18.493.09 11.418 10.16 20.595 21.474 19.462 2.011-.202 3.975-.881 6.038-1.369z"/></svg>
