<svg xmlns="http://www.w3.org/2000/svg" viewBox="0 0 48 48"><g fill-rule="evenodd" clip-rule="evenodd"><path fill="#a7a8ab" d="M0 19.68h23.04v-4.8H0z"/><path fill="#808284" d="M0 26.4h23.04v-4.8H0z"/><path fill="#59595b" d="M0 33.12h23.04v-4.8H0z"/><path fill="#d1d2d4" d="M0 12.96h23.04v-4.8H0z"/><path fill="#221f1f" d="M0 39.84h23.04v-4.8H0z"/><path fill="#982224" d="M25.92 19.68h9.6v-4.8h-9.6z"/><path fill="#630f16" d="M25.92 26.4h9.6v-4.8h-9.6z"/><path fill="#2b1315" d="M25.92 33.12h9.6v-4.8h-9.6z"/><path fill="#e7282d" d="M25.92 12.96h9.6v-4.8h-9.6z"/><path fill="#221f1f" d="M25.92 39.84h9.6v-4.8h-9.6z"/><path fill="#a7a8ab" d="M38.4 19.68H48v-4.8h-9.6z"/><path fill="#808284" d="M38.4 26.4H48v-4.8h-9.6z"/><path fill="#59595b" d="M38.4 33.12H48v-4.8h-9.6z"/><path fill="#d1d2d4" d="M38.4 12.96H48v-4.8h-9.6z"/><path fill="#221f1f" d="M38.4 39.84H48v-4.8h-9.6z"/></g></svg>