<svg xmlns="http://www.w3.org/2000/svg" viewBox="0 0 48 48"><linearGradient id="shelly_svg__a" x2="512" y1="256" y2="256" gradientTransform="scale(.09375)" gradientUnits="userSpaceOnUse"><stop offset="0" stop-color="#4495D1"/><stop offset="1" stop-color="#65BBE9"/></linearGradient><path fill="url(#shelly_svg__a)" d="M8.809 24.382c-3.693 0-6.608.458-8.745 1.37A24.647 24.647 0 0 1 0 24C0 10.745 10.746 0 24 0a23.927 23.927 0 0 1 17.395 7.466 17.956 17.956 0 0 0-3.38-.302h-3.81l-.003.008c-9.174.182-13.764 3.06-13.764 8.636 0 1.77.648 4.248 1.94 7.438 1.298 3.19 1.944 5.638 1.944 7.342 0 2.48-1.018 4.382-3.054 5.71-1.754 1.152-3.943 1.73-6.562 1.73-2.07 0-4.01-.389-5.83-1.16-2.35-1.012-3.526-2.41-3.526-4.194 0-1.58.85-2.773 2.557-3.577 1.309-.616 2.853-.923 4.618-.923h1.847c1.357 0 2.567-.307 3.625-.926 1.183-.694 1.94-1.65 2.274-2.865H8.809zm37.62-8.937c-.434.57-1.014 1.093-1.738 1.57H35.99l2.84-5.65h-3.773s-1.377.013-1.568.013c-2.399 0-3.6 1.003-3.6 3.008 0 1.026.71 3.325 2.12 6.893 1.413 3.57 2.123 6.365 2.123 8.385 0 4.326-2.393 7.573-7.18 9.736-3.568 1.595-7.744 2.39-12.53 2.39-2.571 0-4.97-.21-7.196-.63A23.911 23.911 0 0 0 24 48c13.255 0 24-10.747 24-24a23.94 23.94 0 0 0-1.571-8.555z" style="fill:url(#shelly_svg__a)"/></svg>