<svg xmlns="http://www.w3.org/2000/svg" viewBox="0 0 48 48"><path fill="#3a76f0" d="m18.24.7.54 2.182a21.69 21.69 0 0 0-6.03 2.494l-1.155-1.928A23.91 23.91 0 0 1 18.24.7zm11.52 0-.54 2.182a21.69 21.69 0 0 1 6.03 2.494l1.163-1.928A23.91 23.91 0 0 0 29.76.7zM3.45 11.592a23.91 23.91 0 0 0-2.749 6.645l2.183.54a21.69 21.69 0 0 1 2.493-6.03zm-1.2 12.405a21.713 21.713 0 0 1 .244-3.258L.27 20.402a24.086 24.086 0 0 0 0 7.193l2.224-.338a21.713 21.713 0 0 1-.244-3.259zm34.155 20.55L35.25 42.62a21.69 21.69 0 0 1-6.022 2.494l.54 2.182a23.91 23.91 0 0 0 6.637-2.749zm9.345-20.55a21.713 21.713 0 0 1-.244 3.26l2.224.337a24.086 24.086 0 0 0 0-7.193l-2.224.338a21.713 21.713 0 0 1 .244 3.258zm1.549 5.76-2.183-.54a21.69 21.69 0 0 1-2.493 6.03l1.927 1.163a23.91 23.91 0 0 0 2.749-6.653zm-20.04 15.75a21.904 21.904 0 0 1-6.518 0l-.337 2.224a24.086 24.086 0 0 0 7.192 0zm14.25-8.606a21.829 21.829 0 0 1-4.609 4.605l1.335 1.811a24.038 24.038 0 0 0 5.085-5.07zM36.9 6.49a21.829 21.829 0 0 1 4.609 4.609l1.811-1.35a24.038 24.038 0 0 0-5.07-5.07zM6.491 11.098A21.829 21.829 0 0 1 11.1 6.489L9.75 4.678a24.038 24.038 0 0 0-5.07 5.07zm38.059.495-1.927 1.155a21.69 21.69 0 0 1 2.493 6.022l2.183-.54a23.91 23.91 0 0 0-2.749-6.637zM20.741 2.492a21.904 21.904 0 0 1 6.517 0l.338-2.224a24.086 24.086 0 0 0-7.193 0zM7.646 43.915 3 44.998l1.083-4.646-2.19-.514L.81 44.485a2.25 2.25 0 0 0 2.703 2.703l4.643-1.065zm-5.284-6.083 2.19.51.75-3.221a21.656 21.656 0 0 1-2.419-5.903l-2.182.54a23.82 23.82 0 0 0 2.212 5.704zm10.5 4.875-3.221.75.51 2.19 2.37-.551a23.82 23.82 0 0 0 5.704 2.212l.54-2.182a21.656 21.656 0 0 1-5.888-2.434zM24 4.498A19.5 19.5 0 0 0 7.5 34.374l-1.875 7.999 7.999-1.875A19.5 19.5 0 1 0 24 4.498z"/></svg>