<svg xmlns="http://www.w3.org/2000/svg" viewBox="0 0 48 48"><style id="style2" type="text/css">.slack_svg__st0{fill:#e01e5a}.slack_svg__st1{fill:#36c5f0}.slack_svg__st2{fill:#2eb67d}.slack_svg__st3{fill:#ecb22e}</style><g id="slack_svg__g327" transform="translate(-22.683 -22.663) scale(.38186)"><path id="slack_svg__path14" d="M85.9 138.8c0 7.3-5.9 13.2-13.2 13.2-7.3 0-13.2-5.9-13.2-13.2 0-7.3 5.9-13.2 13.2-13.2h13.2z" class="slack_svg__st0"/><path id="slack_svg__path16" d="M92.5 138.8c0-7.3 5.9-13.2 13.2-13.2 7.3 0 13.2 5.9 13.2 13.2v33c0 7.3-5.9 13.2-13.2 13.2-7.3 0-13.2-5.9-13.2-13.2z" class="slack_svg__st0"/><path id="slack_svg__path18" d="M105.7 85.8c-7.3 0-13.2-5.9-13.2-13.2 0-7.3 5.9-13.2 13.2-13.2 7.3 0 13.2 5.9 13.2 13.2v13.2z" class="slack_svg__st1"/><path id="slack_svg__path20" d="M105.7 92.5c7.3 0 13.2 5.9 13.2 13.2 0 7.3-5.9 13.2-13.2 13.2H72.6c-7.3 0-13.2-5.9-13.2-13.2 0-7.3 5.9-13.2 13.2-13.2z" class="slack_svg__st1"/><path id="slack_svg__path22" d="M158.6 105.7c0-7.3 5.9-13.2 13.2-13.2 7.3 0 13.2 5.9 13.2 13.2 0 7.3-5.9 13.2-13.2 13.2h-13.2z" class="slack_svg__st2"/><path id="slack_svg__path24" d="M152 105.7c0 7.3-5.9 13.2-13.2 13.2-7.3 0-13.2-5.9-13.2-13.2V72.6c0-7.3 5.9-13.2 13.2-13.2 7.3 0 13.2 5.9 13.2 13.2z" class="slack_svg__st2"/><g id="slack_svg__g30"><path id="slack_svg__path26" d="M138.8 158.6c7.3 0 13.2 5.9 13.2 13.2 0 7.3-5.9 13.2-13.2 13.2-7.3 0-13.2-5.9-13.2-13.2v-13.2z" class="slack_svg__st3"/><path id="slack_svg__path28" d="M138.8 152c-7.3 0-13.2-5.9-13.2-13.2 0-7.3 5.9-13.2 13.2-13.2h33.1c7.3 0 13.2 5.9 13.2 13.2 0 7.3-5.9 13.2-13.2 13.2z" class="slack_svg__st3"/></g></g></svg>