<svg xmlns="http://www.w3.org/2000/svg" viewBox="0 0 48 48"><linearGradient id="slskd_svg__a" x2="490" y1="245" y2="245" gradientTransform="scale(.09796)" gradientUnits="userSpaceOnUse"><stop offset="0" stop-color="#00C6FF"/><stop offset="1" stop-color="#0072FF"/></linearGradient><path d="M45.453 5.701c-2.4-1.46-5.633-2.233-9.355-2.233-5.711 0-12 1.802-17.652 4.937l-.04-.02s-.01.03-.01.05a41 41 0 0 0-4.926 3.193C4.29 18.612 1.725 26.9 3.89 31.328 1.518 35.373.058 39.566 0 44.533c4.555-8.69 7.298-15.732 22.15-27.585-4.242.91-11.58 5.22-16.517 11.775-.47-3.83 2.557-10.011 9.306-15.144a41 41 0 0 1 2.645-1.832c-.705 2.204-.48 1.655-1.95 4.741 2.176-2.057 3.606-3.32 5.751-6.847 2.782-1.372 5.682-2.39 8.552-3.008-.48 1.578-1.381 4.242-2.606 6.358 0 0 3.105-.666 5.672-.52-1.4 1.549-2.665 3.224-3.948 4.938-1.753 2.341-3.566 4.77-5.887 7.024-.284.274-.549.519-.813.774-3.566-.343-5.927.989-8.13 3.35 1.743-.813 4.074-1.48 5.544-1.078-2.704 2.204-6.955 5.104-10.452 4.869-.666 1.009-.706 1.038-1.43 2.263 5.671 1.41 12.792-4.35 16.975-8.425 2.46-2.39 4.33-4.888 6.142-7.308 3.723-4.986 6.946-9.286 14.087-10.922l2.91-.666z" style="fill:url(#slskd_svg__a)"/></svg>
