<svg xmlns="http://www.w3.org/2000/svg" viewBox="0 0 48 48"><path d="M55.44 53.57c1.9 9.67 13 18 16.84 20.21l42.05 24.5c4.09 2.29 27.44 16.32 36.38 41.9a1.62 1.62 0 0 0 1.52 1.08 1.62 1.62 0 0 0 1.62-1.61V70.51a10.56 10.56 0 0 0-5.48-9.25l-7.9-4.34a3.45 3.45 0 0 0-4.64 1.3l-11 19.07a3.45 3.45 0 0 1-4.7 1.26L87.62 59.79a3.46 3.46 0 0 1-1.26-4.71L96.93 36.8a3.45 3.45 0 0 0-1.69-4.92c-3.34-1.35-7.3-2.82-7.71-3-8.24-2.68-19.92-3.62-25.53 4.58-3.93 5.81-8 12.78-6.56 20.11ZM111.2 156c-1.9-9.68-13-18-16.84-20.22l-42-24.49C48.22 109 24.87 95 15.92 69.43a1.6 1.6 0 0 0-1.51-1.09A1.62 1.62 0 0 0 12.79 70v69.13a10.56 10.56 0 0 0 5.47 9.25l7.91 4.35a3.45 3.45 0 0 0 4.64-1.3l11-19.07a3.44 3.44 0 0 1 4.7-1.26L79 149.82a3.44 3.44 0 0 1 1.26 4.7l-10.55 18.29a3.43 3.43 0 0 0 1.68 4.91c3.35 1.36 7.31 2.83 7.71 3 8.24 2.73 19.93 3.66 25.51-4.53 3.95-5.85 8.03-12.82 6.59-20.19z" style="fill:#dc4b40;fill-opacity:1" transform="translate(-1.687 -8.315) scale(.3083)"/></svg>