<svg xmlns="http://www.w3.org/2000/svg" viewBox="0 0 48 48"><path fill="#fffc00" d="M40.352 0A7.649 7.649 0 0 1 48 7.65v32.703A7.65 7.65 0 0 1 40.352 48H7.649A7.65 7.65 0 0 1 0 40.352V7.649A7.649 7.649 0 0 1 7.65 0z"/><path fill="#fff" d="M992.5 756.3c-4.2-13.9-24.3-23.7-24.3-23.7-1.9-1-3.6-1.9-5-2.6-33.5-16.2-63.2-35.7-88.2-57.8-20.1-17.8-37.3-37.4-51.1-58.2-16.9-25.4-24.8-46.6-28.2-58.1-1.9-7.5-1.6-10.5 0-14.4 1.3-3.3 5.2-6.4 7-7.9 11.3-8 29.5-19.8 40.7-27 9.7-6.3 18-11.7 22.9-15.1 15.7-11 26.5-22.2 32.8-34.3 8.2-15.6 9.2-32.8 2.8-49.7-8.6-22.8-29.9-36.4-57-36.4-6 0-12.2.7-18.4 2-15.5 3.4-30.2 8.9-42.5 13.7-.9.4-1.9-.3-1.8-1.3 1.3-30.5 2.8-71.5-.6-110.4-3-35.2-10.3-64.9-22.1-90.8-11.9-26-27.4-45.2-39.5-59.1-11.5-13.2-31.8-32.7-62.4-50.2-43-24.6-92-37.1-145.6-37.1-53.5 0-102.4 12.5-145.5 37.1-32.4 18.5-53.1 39.4-62.5 50.2-12.1 13.9-27.6 33.1-39.5 59.1-11.9 25.9-19.1 55.5-22.1 90.8-3.4 39.1-2 76.8-.6 110.4 0 1-.9 1.7-1.9 1.3-12.3-4.8-27-10.3-42.5-13.7-6.1-1.3-12.3-2-18.4-2-27 0-48.3 13.6-57 36.4-6.4 16.9-5.4 34.1 2.8 49.7 6.4 12.1 17.1 23.3 32.8 34.3 4.8 3.4 13.2 8.8 22.9 15.1 10.9 7.1 28.6 18.6 40 26.5 1.4 1 6.2 4.6 7.7 8.4 1.6 4 1.9 7-.2 15-3.5 11.6-11.4 32.6-28 57.5-13.8 20.9-31 40.4-51.1 58.2-25 22.1-54.7 41.6-88.2 57.8-1.6.8-3.5 1.7-5.5 2.9 0 0-20 10.2-23.8 23.4-5.6 19.5 9.3 37.8 24.4 47.6 24.8 16 55 24.6 72.5 29.3 4.9 1.3 9.3 2.5 13.3 3.7 2.5.8 8.8 3.2 11.5 6.7 3.4 4.4 3.8 9.8 5 15.9 1.9 10.3 6.2 23 18.9 31.8 14 9.6 31.7 10.3 54.2 11.2 23.5.9 52.7 2 86.2 13.1 15.5 5.1 29.6 13.8 45.8 23.8 34 20.9 76.3 46.9 148.5 46.9 72.3 0 114.9-26.1 149.1-47.1 16.2-9.9 30.1-18.5 45.3-23.5 33.5-11.1 62.7-12.2 86.2-13.1 22.5-.9 40.2-1.5 54.2-11.2 13.6-9.4 17.5-23.4 19.3-33.9 1-5.2 1.6-9.9 4.6-13.7 2.6-3.3 8.4-5.6 11.1-6.5 4.1-1.3 8.7-2.5 13.8-3.9 17.5-4.7 39.5-10.2 66.2-25.3 32.2-18.3 34.4-40.7 31-51.8z" style="fill:#fff" transform="translate(6.755 6.756) scale(.03368)"/><path d="M41.12 31.865c-.24-.653-.698-1-1.216-1.29a2.949 2.949 0 0 0-.263-.138c-.155-.08-.313-.158-.471-.24-1.62-.858-2.887-1.942-3.763-3.226a7.558 7.558 0 0 1-.646-1.145c-.074-.215-.071-.337-.017-.448a.711.711 0 0 1 .209-.215c.28-.186.566-.37.76-.495.348-.226.624-.405.8-.526.666-.465 1.13-.96 1.42-1.512.411-.778.462-1.667.145-2.503-.438-1.158-1.536-1.879-2.863-1.879-.276 0-.555.03-.832.09l-.215.051c.013-.788-.007-1.63-.078-2.452-.249-2.896-1.263-4.415-2.32-5.624a9.242 9.242 0 0 0-2.361-1.903c-1.607-.923-3.426-1.388-5.41-1.388-1.976 0-3.795.465-5.402 1.384a9.16 9.16 0 0 0-2.364 1.903c-1.058 1.21-2.071 2.729-2.32 5.625-.071.822-.088 1.664-.078 2.452l-.216-.05c-.276-.061-.559-.091-.832-.091-1.327 0-2.425.72-2.862 1.879a3.007 3.007 0 0 0 .144 2.502c.29.553.758 1.048 1.422 1.513.178.124.451.303.798.525.189.121.461.3.73.478.041.027.186.135.237.236.057.115.057.24-.027.468a7.43 7.43 0 0 1-.637 1.122c-.859 1.256-2.088 2.32-3.654 3.17-.832.44-1.694.734-2.058 1.724-.276.747-.095 1.6.603 2.317.229.246.518.465.882.667a9.563 9.563 0 0 0 2.156.862c.1.03.333.104.434.195.256.223.22.56.56 1.051.205.307.44.516.636.65.71.492 1.512.522 2.36.556.765.03 1.634.064 2.625.39.41.135.838.398 1.33.701 1.186.731 2.812 1.728 5.53 1.728 2.722 0 4.355-1.004 5.55-1.734.493-.3.917-.563 1.314-.694.99-.327 1.86-.36 2.624-.391.849-.034 1.647-.064 2.361-.556.223-.155.505-.407.728-.791.242-.414.239-.707.468-.906.094-.081.3-.152.41-.185a9.578 9.578 0 0 0 2.187-.873c.387-.212.687-.444.926-.71l.01-.01c.65-.708.815-1.533.546-2.264zm-2.415 1.297c-1.476.815-2.456.727-3.217 1.216-.646.417-.266 1.317-.734 1.64-.58.4-2.287-.027-4.493.7-1.819.603-2.98 2.331-6.258 2.331-3.284 0-4.412-1.72-6.258-2.33-2.206-.728-3.917-.3-4.493-.701-.468-.323-.087-1.223-.734-1.64-.761-.492-1.741-.404-3.217-1.216-.94-.519-.407-.839-.094-.99 5.342-2.584 6.19-6.578 6.231-6.878.047-.357.098-.64-.296-1.007-.38-.354-2.075-1.401-2.543-1.728-.778-.542-1.118-1.084-.866-1.751.175-.462.606-.633 1.061-.633.142 0 .286.016.424.047.853.185 1.681.613 2.16.727a.719.719 0 0 0 .175.024c.256 0 .343-.128.326-.421-.054-.933-.188-2.752-.04-4.453.202-2.337.956-3.496 1.852-4.523.431-.492 2.452-2.627 6.315-2.627 3.874 0 5.884 2.135 6.316 2.627.895 1.024 1.65 2.182 1.852 4.523.148 1.701.02 3.52-.04 4.453-.02.306.074.42.326.42.05 0 .111-.006.175-.023.479-.114 1.307-.542 2.16-.727.137-.03.282-.047.424-.047.454 0 .886.175 1.06.633.253.667-.09 1.209-.865 1.751-.468.327-2.162 1.374-2.543 1.728-.394.364-.343.647-.296 1.007.037.3.889 4.294 6.23 6.878.304.151.84.471-.1.99z"/></svg>