<svg xmlns="http://www.w3.org/2000/svg" viewBox="0 0 48 48"><g data-name="PRIMARY - GHOST"><path d="M417.93 340.71c-60.61-29.34-70.27-74.64-70.7-78-.52-4.07-1.11-7.27 3.38-11.41 4.33-4 23.54-15.89 28.87-19.61 8.81-6.16 12.69-12.31 9.83-19.87-2-5.23-6.87-7.2-12-7.2a22.3 22.3 0 0 0-4.81.54c-9.68 2.1-19.08 6.95-24.52 8.26a8.56 8.56 0 0 1-2 .27c-2.9 0-4-1.29-3.72-4.78.68-10.58 2.12-31.23.45-50.52-2.29-26.54-10.85-39.69-21-51.32C316.8 101.43 294 77.2 250 77.2s-66.77 24.23-71.65 29.8c-10.18 11.63-18.73 24.78-21 51.32-1.67 19.29-.17 39.93.45 50.52.2 3.32-.82 4.78-3.72 4.78a8.64 8.64 0 0 1-2-.27c-5.43-1.31-14.83-6.16-24.51-8.26a22.3 22.3 0 0 0-4.81-.54c-5.15 0-10 2-12 7.2-2.86 7.56 1 13.71 9.84 19.87 5.33 3.72 24.54 15.6 28.87 19.61 4.48 4.14 3.9 7.34 3.38 11.41-.43 3.41-10.1 48.71-70.7 78-3.55 1.72-9.59 5.36 1.06 11.24 16.72 9.24 27.85 8.25 36.5 13.82 7.34 4.73 3 14.93 8.34 18.61 6.56 4.53 25.95-.32 51 7.95 21 6.92 33.76 26.47 71 26.47s50.37-19.64 71-26.47c25-8.27 44.43-3.42 51-7.95 5.33-3.68 1-13.88 8.34-18.61 8.65-5.57 19.77-4.58 36.5-13.82 10.63-5.81 4.59-9.45 1.04-11.17z" style="fill:#fff" transform="translate(-6.66 -6.422) scale(.12264)"/><path d="M47.83 34.94c-.334-.908-.97-1.394-1.693-1.796a4.232 4.232 0 0 0-.368-.193c-.216-.111-.437-.22-.656-.333-2.256-1.196-4.017-2.705-5.238-4.493a10.186 10.186 0 0 1-.9-1.594c-.103-.298-.099-.467-.024-.622a1.012 1.012 0 0 1 .288-.3c.388-.257.788-.516 1.059-.692.483-.313.866-.56 1.112-.736.926-.647 1.574-1.335 1.978-2.104a4.19 4.19 0 0 0 .208-3.48c-.614-1.615-2.138-2.617-3.985-2.617a5.488 5.488 0 0 0-1.159.123 7.792 7.792 0 0 0-.303.071 34.19 34.19 0 0 0-.105-3.415c-.349-4.032-1.76-6.145-3.232-7.83a12.877 12.877 0 0 0-3.285-2.644C29.293 1.01 26.76.362 24 .362s-5.28.648-7.516 1.923a12.83 12.83 0 0 0-3.292 2.65c-1.472 1.684-2.883 3.801-3.232 7.829a34.625 34.625 0 0 0-.106 3.415c-.1-.026-.2-.049-.302-.071a5.488 5.488 0 0 0-1.159-.123c-1.848 0-3.375 1.002-3.986 2.616a4.196 4.196 0 0 0 .203 3.484c.406.77 1.053 1.457 1.979 2.105.245.172.63.42 1.112.736.262.169.643.417 1.017.664a1.091 1.091 0 0 1 .326.328c.079.16.081.333-.035.652a10.092 10.092 0 0 1-.885 1.562C6.93 29.879 5.22 31.36 3.037 32.547 1.881 33.16.68 33.569.171 34.949c-.382 1.041-.132 2.226.84 3.224a4.86 4.86 0 0 0 1.227.929 13.288 13.288 0 0 0 3 1.2 1.982 1.982 0 0 1 .607.271c.354.31.304.778.776 1.462a3.41 3.41 0 0 0 .888.903c.99.684 2.104.727 3.284.772 1.066.041 2.274.088 3.654.543.571.188 1.165.554 1.853.98 1.652 1.016 3.913 2.406 7.698 2.406s6.062-1.397 7.726-2.416c.683-.42 1.273-.782 1.829-.966 1.38-.456 2.587-.501 3.653-.542 1.18-.045 2.293-.088 3.284-.772a3.42 3.42 0 0 0 1.01-1.104c.34-.578.332-.981.65-1.263a1.879 1.879 0 0 1 .57-.26 13.338 13.338 0 0 0 3.041-1.212 4.783 4.783 0 0 0 1.288-1.008l.012-.015c.913-.976 1.142-2.126.768-3.142zm-3.365 1.807c-2.052 1.133-3.415 1.012-4.476 1.695-.902.58-.368 1.83-1.023 2.282-.805.556-3.183-.039-6.255.975-2.533.838-4.15 3.246-8.707 3.246s-6.136-2.403-8.711-3.252c-3.066-1.014-5.45-.42-6.255-.975-.654-.451-.123-1.702-1.023-2.282-1.062-.683-2.426-.562-4.476-1.689-1.306-.721-.565-1.168-.13-1.378 7.432-3.599 8.618-9.154 8.67-9.566.064-.5.135-.892-.414-1.4-.531-.49-2.887-1.948-3.54-2.405-1.082-.755-1.558-1.51-1.207-2.437.245-.641.843-.883 1.471-.883a2.735 2.735 0 0 1 .59.067c1.187.257 2.34.852 3.006 1.013a1.06 1.06 0 0 0 .245.033c.356 0 .481-.18.457-.586-.076-1.3-.26-3.83-.056-6.196.281-3.255 1.33-4.868 2.576-6.294.598-.686 3.41-3.657 8.788-3.657s8.198 2.96 8.796 3.642c1.247 1.426 2.297 3.04 2.575 6.294.205 2.366.029 4.898-.055 6.196-.028.428.1.586.457.586a1.05 1.05 0 0 0 .245-.033c.667-.16 1.82-.756 3.007-1.013a2.735 2.735 0 0 1 .59-.066c.631 0 1.226.245 1.471.883.351.927-.122 1.681-1.205 2.437-.654.456-3.01 1.913-3.54 2.405-.551.507-.479.9-.415 1.399.053.418 1.237 5.974 8.67 9.566.44.22 1.18.666-.126 1.393z"/></g></svg>