<svg xmlns="http://www.w3.org/2000/svg" viewBox="0 0 48 48"><path fill="#bce68f" fill-rule="evenodd" d="M23.511 9.397c-2.235.025-4.09 1.538-4.244 3.535q-.024.326.013.642a10.4 10.4 0 0 0-2.356-.455c-3.633-.282-6.792 1.306-7.512 3.642-2.402.778-4.309 2.291-5.25 4.231a3.967 3.967 0 0 0-4.15 3.656c-.169 2.18 1.453 4.09 3.629 4.258a3.95 3.95 0 0 0 1.941-.348c1.7 1.789 4.32 3.047 7.325 3.28 2.707.21 5.22-.454 7.123-1.687.752 1.243 2.148 2.162 3.816 2.41v.04c.05-.004.098-.02.148-.026.05.006.096.021.147.026v-.04c1.671-.247 3.064-1.166 3.816-2.41 1.903 1.233 4.43 1.897 7.137 1.687 3.005-.233 5.611-1.491 7.31-3.28a3.95 3.95 0 0 0 1.942.348 3.966 3.966 0 0 0-.509-7.914c-.94-1.94-2.86-3.453-5.262-4.23-.72-2.337-3.866-3.925-7.498-3.643-.835.065-1.625.22-2.357.455a3.4 3.4 0 0 0 .013-.642c-.155-1.997-2.022-3.51-4.258-3.535a5 5 0 0 0-.455.013h-.054a5 5 0 0 0-.455-.013zm.429 2.678h.067c.38 0 .723.106.977.294.255.188.415.456.415.75a.8.8 0 0 1-.053.255l1.125.83c.234-.131.505-.214.816-.214.38 0 .724.107.978.294s.428.456.428.75c0 .194-.093.367-.214.522l1.58 1.152c.2-.084.425-.134.67-.134.38 0 .736.106.99.294.255.188.416.456.416.75 0 .166-.07.317-.161.455l1.5 1.085a1.8 1.8 0 0 1 .682-.147c.38 0 .724.106.978.294s.415.456.415.75c0 .295-.16.562-.415.75s-.598.295-.978.295c-.379 0-.723-.107-.977-.295s-.428-.455-.428-.75c0-.227.12-.433.28-.602l-1.405-1.031a1.7 1.7 0 0 1-1.714.04l-1.125.817c.097.118.18.246.214.388a.6.6 0 0 1 .014.147c0 .295-.161.562-.415.75a1.5 1.5 0 0 1-.442.228 1.7 1.7 0 0 1-.536.067c-.298 0-.575-.067-.803-.188l-1.58 1.165c.163.137.284.318.335.509.016.063.026.12.026.187 0 .295-.16.549-.415.737-.063.047-.127.096-.2.134a1.7 1.7 0 0 1-.496.16c-.09.014-.186.014-.281.014-.38 0-.724-.12-.978-.308a1.1 1.1 0 0 1-.308-.322.9.9 0 0 1-.107-.415c0-.294.161-.562.415-.75a1.65 1.65 0 0 1 1.513-.214l1.7-1.232a1.1 1.1 0 0 1-.146-.24.7.7 0 0 1-.067-.282c0-.294.16-.563.415-.75q.092-.067.2-.12c.222-.11.493-.174.777-.174s.54.075.763.187l1.152-.83a1.2 1.2 0 0 1-.147-.241.7.7 0 0 1-.054-.268c0-.23.13-.431.295-.602l-1.554-1.139c-.226.119-.495.201-.79.201-.333 0-.628-.092-.87-.24l-1.299.95c.116.125.202.27.241.428.013.053.027.106.027.161 0 .294-.16.562-.415.75-.064.047-.14.097-.214.134a1.66 1.66 0 0 1-.777.16c-.38 0-.723-.106-.977-.294s-.415-.456-.415-.75.16-.563.415-.75c.254-.187.598-.294.977-.294.262 0 .513.052.723.147l1.353-.99a.83.83 0 0 1-.161-.456q0-.069.013-.134a1 1 0 0 1 .174-.362l-1.017-.75c-.259.232-.63.389-1.058.389-.356 0-.675-.127-.924-.295l-1.004.697a.84.84 0 0 1 .147.455c0 .294-.16.548-.415.736s-.598.308-.978.308c-.253 0-.49-.057-.696-.147l-1.58 1.071c.176.175.322.377.322.616a.7.7 0 0 1-.014.147c-.032.138-.111.26-.2.375l1.15.83c.171-.055.353-.093.55-.093.38 0 .723.12.977.308s.415.442.415.736-.16.562-.415.75-.598.308-.977.308c-.38 0-.724-.12-.978-.308-.253-.188-.415-.456-.415-.75q0-.203.094-.375c.032-.057.076-.109.12-.16q.067-.078.148-.148l-1.058-.776c-.227.12-.494.214-.79.214-.367 0-.7-.131-.95-.308l-1.474 1.018c.178.139.318.322.375.522.02.066.027.13.027.2 0 .129-.051.237-.107.349l1.299.937c.175-.06.359-.094.562-.094.38 0 .737.107.991.295s.415.455.415.75-.16.563-.415.75c-.254.186-.612.294-.99.294-.19 0-.371-.016-.536-.067a2 2 0 0 1-.241-.094c-.074-.036-.138-.087-.201-.133-.254-.187-.415-.456-.415-.75 0-.263.166-.487.375-.67l-1.179-.843a1.62 1.62 0 0 1-.964.321c-.433 0-.813-.15-1.071-.388l-1.393.964c.068.08.131.176.174.268.022.045.042.085.054.134a.6.6 0 0 1 .013.147c0 .294-.16.563-.415.75-.063.046-.127.097-.2.134a1.7 1.7 0 0 1-.777.16c-.38 0-.737-.108-.991-.294-.254-.187-.415-.456-.415-.75 0-.295.16-.562.415-.75.254-.188.611-.295.99-.295.265 0 .499.064.71.161l1.567-1.071c-.022-.071-.053-.136-.053-.214 0-.295.16-.562.415-.75s.598-.308.977-.308c.162 0 .323.028.469.067l.214-.16.027-.014 1.42-.964a.8.8 0 0 1-.108-.362c0-.294.161-.562.415-.75s.612-.294.991-.294c.215 0 .406.04.59.107l.187-.12 1.419-.978c-.137-.161-.255-.342-.255-.55 0-.294.175-.562.429-.749s.598-.295.977-.295c.326 0 .618.086.857.228l1.031-.696a.85.85 0 0 1-.12-.402c0-.294.16-.562.415-.75.237-.175.574-.267.924-.28zm.067.442c-.26 0-.5.084-.656.2a.6.6 0 0 0-.228.295.467.467 0 0 0 .12.428q.047.05.108.094a1.1 1.1 0 0 0 .656.201c.26 0 .484-.084.643-.2.159-.118.24-.264.24-.416q0-.226-.24-.402a1.1 1.1 0 0 0-.643-.2m-3.174 1.914c-.26 0-.498.072-.656.188a.54.54 0 0 0-.214.308.468.468 0 0 0 .107.428.7.7 0 0 0 .107.094c.158.117.397.187.657.187s.484-.07.642-.187c.16-.117.241-.263.241-.415s-.082-.298-.24-.415a1.1 1.1 0 0 0-.644-.188m6.454 0c-.26 0-.485.072-.642.188a.6.6 0 0 0-.228.308.467.467 0 0 0 .12.428q.047.05.108.094c.157.117.383.187.642.187.26 0 .498-.07.656-.187.16-.117.242-.263.242-.415s-.082-.298-.242-.415c-.158-.116-.396-.188-.656-.188m-3.307 2.344c-.26 0-.484.084-.643.2a.57.57 0 0 0-.227.295.4.4 0 0 0-.014.107c0 .114.044.224.134.321q.047.05.107.094a1.05 1.05 0 0 0 .643.201c.26 0 .5-.084.656-.2.158-.118.241-.263.241-.416s-.083-.285-.24-.402a1.14 1.14 0 0 0-.657-.2m-6.494.24c-.26 0-.5.086-.656.201a.6.6 0 0 0-.228.308.46.46 0 0 0 .12.428c.03.032.068.052.108.081a1.1 1.1 0 0 0 .656.201c.26 0 .484-.084.642-.2q.241-.175.242-.402c0-.227-.082-.299-.242-.416a1.1 1.1 0 0 0-.642-.2m13.242 0c-.26 0-.484.085-.642.201a.6.6 0 0 0-.228.308.461.461 0 0 0 .12.428c.03.032.068.052.108.081a1.05 1.05 0 0 0 .642.201c.26 0 .5-.084.657-.2.157-.118.24-.25.24-.402s-.083-.3-.24-.416a1.14 1.14 0 0 0-.657-.2m-3.106 2.197c-.26 0-.499.085-.656.2a.53.53 0 0 0-.214.295.468.468 0 0 0 .107.428.7.7 0 0 0 .107.094 1.1 1.1 0 0 0 .656.201c.26 0 .498-.084.656-.2a.5.5 0 0 0 .228-.416c0-.152-.069-.285-.228-.402a1.14 1.14 0 0 0-.656-.2m-7.257.107c-.26 0-.486.084-.643.2a.6.6 0 0 0-.227.309.4.4 0 0 0-.014.107c0 .152.083.298.241.415a1 1 0 0 0 .455.174q.09.013.188.013c.26 0 .498-.07.656-.187.159-.118.241-.264.241-.415 0-.152-.082-.298-.241-.415a1.13 1.13 0 0 0-.656-.201m13.792.134c-.26 0-.5.085-.657.2a.53.53 0 0 0-.214.295.469.469 0 0 0 .107.429.7.7 0 0 0 .108.093 1.1 1.1 0 0 0 .656.201c.26 0 .485-.084.642-.2.158-.118.241-.263.241-.416s-.083-.285-.24-.402a1.1 1.1 0 0 0-.643-.2m-20.099.04c-.26 0-.485.084-.642.2a.6.6 0 0 0-.228.309.46.46 0 0 0 .12.428c.03.031.068.051.108.08a1.06 1.06 0 0 0 .642.201c.26 0 .5-.085.657-.2q.239-.175.24-.402c.002-.227-.083-.298-.24-.415a1.13 1.13 0 0 0-.657-.201m-3.615 2.182c-.26 0-.499.085-.656.201a.6.6 0 0 0-.228.308.46.46 0 0 0 .12.428c.031.032.069.052.108.08a1.1 1.1 0 0 0 .656.202c.26 0 .486-.085.643-.201s.241-.25.241-.402-.083-.298-.241-.415a1.1 1.1 0 0 0-.643-.2m6.775.067c-.26 0-.485.085-.642.201a.6.6 0 0 0-.228.295.4.4 0 0 0-.013.107.5.5 0 0 0 .067.227.5.5 0 0 0 .067.094q.046.05.107.094a1.06 1.06 0 0 0 .642.2c.26 0 .498-.084.656-.2.16-.117.242-.264.242-.415q-.001-.227-.242-.402a1.13 1.13 0 0 0-.656-.2m6.99.188c-.26 0-.485.071-.643.187a.6.6 0 0 0-.228.308.4.4 0 0 0-.013.107c0 .114.044.224.134.322a1 1 0 0 0 .107.093c.158.117.383.188.643.188s.499-.071.656-.188.227-.262.227-.415-.07-.298-.227-.415-.397-.187-.656-.187" clip-rule="evenodd"/><path fill="#5e9622" d="m17.063 24.211 3.685 2.885-3.332.02-1.848-1.418-1.82-.012 3.276 2.57.039-.026v.007l5.105-.027.101.078-1.871 10.261 7.202.055-1.992-10.215.222-.175 5.109.027v-.007l.035.027 3.277-2.57-1.821.011-1.848 1.417-3.331-.02 3.688-2.884-1.976.023-3.615 2.82-.26-1.344-2.345-.023-.23 1.254-3.474-2.71z"/></svg>
