<svg xmlns="http://www.w3.org/2000/svg" viewBox="0 0 48 48"><defs><filter id="spi_svg__a" width="1.07" height="1.162" x="-.035" y="-.081" color-interpolation-filters="sRGB"><feGaussianBlur stdDeviation="1.654"/></filter><filter id="spi_svg__d" width="1.042" height="1.091" x="-.021" y="-.046" color-interpolation-filters="sRGB"><feGaussianBlur stdDeviation=".827"/></filter><linearGradient id="spi_svg__b" x1="366.55" x2="366.55" y1="332.68" y2="396.93" gradientTransform="translate(-148.84 -199.21) scale(.7631)" gradientUnits="userSpaceOnUse"><stop offset="0" stop-color="#003ab2"/><stop offset=".21" stop-color="#0a3e97"/><stop offset=".362" stop-color="#068ae0"/><stop offset=".707" stop-color="#afebc8"/><stop offset=".776" stop-color="#def9d4"/><stop offset="1" stop-color="#3b7932"/></linearGradient><clipPath id="spi_svg__c"><path fill="url(#spi_svg__linearGradient6478)" d="M278.25 83.98c-2.036 0-3.785.448-5.246 1.383-1.462.936-2.705 2.48-3.72 4.626l-1.36 5.104h28.807l.024-.072h8.251l-.024.072c.002-.003.022.003.024 0a265.03 265.03 0 0 1 2.981-4.77 451.996 451.996 0 0 0 3.935-6.343H278.25zm69.251 0-33.696.071-2.957 11.042h41.017c.431-1.61.81-2.968 1.383-5.104.135-2.146-.28-3.69-1.24-4.626-.96-.935-2.471-1.383-4.507-1.383zm9.157.071-2.957 11.042h13.927l2.981-11.042zm-91.238 17.797a58.148 58.148 0 0 1-.715 2.384l-.74 2.79c-.103 3.467 1.866 5.223 5.938 5.223h19.078l-2.599 9.395h-22.297l-7.082 11.303 23.25-.166.024-.072 10.683-.167c4.072 0 6.998-1.732 8.752-5.198l5.151-19.244h-.167c.03-.11.066-.2.096-.31.099-.166.16-.32.19-.43.135-2.146-.28-3.69-1.24-4.626-.386-.376-.87-.657-1.43-.882H265.42zm42.853 0-8.299 30.928h14.046l2.767-10.302h-.096l3.244-12.066h21.534l.071-.239c1.56-.275 2.899-.877 4.03-1.812 1.186-.936 2.228-2.31 3.1-4.126.103-.385.201-.84.334-1.335.06-.227.198-.72.286-1.05h-41.017zm42.853 0-8.275 30.857h13.88l8.322-30.858z" color="#000" style="text-decoration-line:none;text-indent:0;text-transform:none"/></clipPath></defs><g color="#000"><path fill="#555753" d="M98.407 58.848c-2.036 0-3.785.448-5.246 1.383-1.462.936-2.705 2.48-3.72 4.626l-1.36 5.104h28.807l.024-.072h8.251l-.024.072c.002-.003.022.003.024 0a265.03 265.03 0 0 1 2.981-4.77 451.996 451.996 0 0 0 3.935-6.343H98.407zm69.251 0-33.696.071-2.957 11.042h41.017c.431-1.61.81-2.968 1.383-5.104.135-2.146-.28-3.69-1.24-4.626-.96-.935-2.471-1.383-4.507-1.383zm9.157.071-2.957 11.042h13.927l2.981-11.042zM85.577 76.716a58.148 58.148 0 0 1-.715 2.384l-.74 2.79c-.103 3.467 1.866 5.223 5.938 5.223h19.077l-2.599 9.395H84.241l-7.082 11.303 23.25-.166.024-.072 10.683-.167c4.072 0 6.998-1.732 8.752-5.198l5.151-19.244h-.167c.03-.11.066-.2.096-.31.099-.166.16-.32.19-.43.135-2.146-.28-3.69-1.24-4.626-.386-.376-.87-.657-1.43-.882H85.577zm42.853 0-8.298 30.928h14.046l2.766-10.302h-.096l3.243-12.066h21.534l.072-.239c1.56-.275 2.899-.877 4.03-1.812 1.186-.936 2.228-2.31 3.1-4.126.103-.385.201-.84.334-1.335.06-.227.198-.72.286-1.05H128.43zm42.853 0-8.275 30.857h13.88l8.322-30.857z" filter="url(#spi_svg__a)" style="text-decoration-line:none;text-indent:0;text-transform:none" transform="translate(-28.9 -8.91) scale(.39491)"/><path fill="url(#spi_svg__b)" d="M95.426 55.377c-2.036 0-3.785.448-5.246 1.383-1.462.936-2.705 2.48-3.72 4.626L85.1 66.49h28.807l.024-.072h8.251l-.024.072c.002-.003.022.003.024 0a265.03 265.03 0 0 1 2.981-4.77 451.996 451.996 0 0 0 3.935-6.343H95.426zm69.251 0-33.696.071-2.957 11.042h41.017c.431-1.61.81-2.968 1.383-5.104.135-2.146-.28-3.69-1.24-4.626-.96-.935-2.471-1.383-4.507-1.383zm9.157.071-2.957 11.042h13.927l2.981-11.041zM82.596 73.246a58.148 58.148 0 0 1-.715 2.384l-.74 2.79c-.103 3.467 1.866 5.223 5.938 5.223h19.078l-2.599 9.395H81.261L74.18 104.34l23.25-.166.024-.072 10.683-.167c4.072 0 6.998-1.732 8.752-5.198l5.151-19.244h-.167c.03-.11.066-.2.096-.31.099-.166.16-.32.19-.43.135-2.146-.28-3.69-1.24-4.626-.386-.376-.87-.657-1.43-.882H82.597zm42.853 0-8.298 30.928h14.046l2.766-10.301h-.096l3.244-12.068h21.534l.071-.238c1.56-.275 2.899-.877 4.03-1.812 1.186-.936 2.228-2.31 3.1-4.126.103-.385.201-.84.334-1.335.06-.227.198-.72.286-1.05H125.45zm42.853 0-8.275 30.857h13.88l8.322-30.857z" style="text-decoration-line:none;text-indent:0;text-transform:none" transform="translate(-28.9 -8.91) scale(.39491)"/><path fill="none" stroke="#000" stroke-width=".493" d="M277.8 83.534c-2.036 0-3.785.448-5.246 1.383-1.462.936-2.705 2.48-3.72 4.626l-1.36 5.104h28.807l.024-.072h8.251l-.024.072c.002-.003.022.003.024 0a265.03 265.03 0 0 1 2.981-4.77 451.996 451.996 0 0 0 3.935-6.343H277.8zm69.251 0-33.696.071-2.957 11.042h41.017c.431-1.61.81-2.968 1.383-5.104.135-2.146-.28-3.69-1.24-4.626-.96-.935-2.471-1.383-4.507-1.383zm9.157.071-2.957 11.042h13.927l2.981-11.042zm-91.238 17.797a58.148 58.148 0 0 1-.715 2.384l-.74 2.79c-.103 3.467 1.866 5.223 5.938 5.223h19.078l-2.599 9.395h-22.297l-7.082 11.303 23.25-.166.024-.072 10.683-.167c4.072 0 6.998-1.732 8.752-5.198l5.151-19.244h-.167c.03-.11.066-.2.096-.31.099-.166.16-.32.19-.43.135-2.146-.28-3.69-1.24-4.626-.386-.376-.87-.657-1.43-.882H264.97zm42.853 0-8.298 30.928h14.046l2.766-10.302h-.096l3.244-12.066h21.534l.071-.239c1.56-.275 2.899-.877 4.03-1.812 1.186-.936 2.228-2.31 3.1-4.126.103-.385.201-.84.334-1.335.06-.227.198-.72.286-1.05h-41.017zm42.853 0-8.275 30.857h13.88l8.322-30.857z" clip-path="url(#spi_svg__c)" filter="url(#spi_svg__d)" style="text-decoration-line:none;text-indent:0;text-transform:none" transform="translate(-101.097 -20.205) scale(.39491)"/></g></svg>