<svg xmlns="http://www.w3.org/2000/svg" viewBox="0 0 48 48"><path fill="#50bd37" d="M42.737 17.415c-.746 0-1.276-.546-1.276-1.279 0-.733.53-1.28 1.276-1.28.752 0 1.281.547 1.281 1.28s-.53 1.279-1.281 1.279zm-.002-3.81c-1.477 0-2.526 1.08-2.526 2.531 0 1.45 1.049 2.53 2.526 2.53 1.486 0 2.535-1.08 2.535-2.53 0-1.45-1.049-2.53-2.535-2.53zm-.002 6.372c-2.242 0-3.835-1.64-3.835-3.84 0-2.202 1.593-3.841 3.835-3.841 2.256 0 3.848 1.639 3.848 3.84 0 2.201-1.592 3.841-3.848 3.841zm-.003-9.101c-3.07 0-5.25 2.246-5.25 5.26 0 3.015 2.18 5.26 5.25 5.26 3.09 0 5.27-2.245 5.27-5.26 0-3.014-2.18-5.26-5.27-5.26zM5.959 20.282l-1.576-.376c-1.435-.33-2.164-.706-2.164-1.74 0-1.177 1.2-1.648 2.281-1.648 1.1 0 1.904.55 2.377 1.405a.067.067 0 0 0 .007.012l.03.055.003-.002a.814.814 0 0 0 .669.376.764.764 0 0 0 .791-.791 1.02 1.02 0 0 0-.12-.502C7.45 15.7 6.12 15.107 4.595 15.107c-2.07 0-4.07 1.035-4.07 3.316 0 2.094 2.07 2.706 2.823 2.894l1.505.353c1.153.282 2.093.66 2.093 1.764 0 1.27-1.317 1.835-2.587 1.835-1.293 0-2.251-.661-2.911-1.638a.788.788 0 0 0-.653-.364.791.791 0 0 0-.795.817.862.862 0 0 0 .162.47c1.034 1.548 2.53 2.126 4.197 2.126 2.14 0 4.281-.988 4.281-3.387 0-1.552-1.152-2.658-2.681-3.011zm10.523 4.98c-2.54 0-4.14-1.905-4.14-4.374 0-2.47 1.6-4.376 4.14-4.376 2.565 0 4.164 1.905 4.164 4.376 0 2.47-1.6 4.374-4.164 4.374zm0-10.161c-3.41 0-5.833 2.47-5.833 5.786 0 3.317 2.423 5.786 5.833 5.786 3.434 0 5.857-2.47 5.857-5.786 0-3.317-2.423-5.786-5.857-5.786zM33 24.062c-.058.056-.116.11-.18.163a3.68 3.68 0 0 1-.289.24c-.662.48-1.498.758-2.476.758-2.541 0-4.14-1.905-4.14-4.375 0-2.47 1.599-4.376 4.14-4.376 2.563 0 4.163 1.906 4.163 4.376 0 1.29-.437 2.424-1.218 3.214zm-3.796 6.272c.19 0 .386-.013.59-.038a8.307 8.307 0 0 1 1.029-.068c1.443.008 2.178.427 2.62.912.443.487.613 1.148.612 1.71a2.23 2.23 0 0 1-.088.653c-.22.67-.666 1.126-1.35 1.469-.677.336-1.582.508-2.527.506-.339 0-.683-.021-1.023-.062-.643-.074-1.494-.35-2.11-.832a2.7 2.7 0 0 1-.746-.861 2.569 2.569 0 0 1-.29-1.234v-.055c.019-.926.444-1.541.91-1.988a3.744 3.744 0 0 1 .717-.527c.457.27 1.025.417 1.656.415zm.85-15.273c-3.41 0-5.833 2.47-5.833 5.787 0 2.241 1.107 4.094 2.878 5.061a2.658 2.658 0 0 0-.761 1.866c-.001.287.046.58.148.862a5.45 5.45 0 0 0-.785.611c-.677.63-1.405 1.69-1.426 3.157v.084a4.218 4.218 0 0 0 .483 2.008c.46.86 1.177 1.459 1.916 1.858.744.4 1.52.613 2.196.696.402.048.811.074 1.22.074 1.136-.002 2.27-.194 3.255-.677.982-.475 1.825-1.294 2.19-2.442.108-.341.166-.729.167-1.157-.001-.87-.251-1.932-1.033-2.809-.781-.88-2.074-1.467-3.846-1.459-.385 0-.796.027-1.232.08a3.05 3.05 0 0 1-.387.026c-.543-.004-.816-.154-.978-.308a.826.826 0 0 1-.242-.604 1.02 1.02 0 0 1 .26-.68c.167-.175.375-.294.738-.298.033 0 .068 0 .103.003.233.017.459.025.678.025 1.814.003 3.178-.559 4.106-1.332a5.254 5.254 0 0 0 1.656-2.457h-.003c.253-.668.39-1.405.39-2.188 0-3.317-2.423-5.787-5.857-5.787z"/></svg>