
<svg xmlns="http://www.w3.org/2000/svg" version="1.1" xmlns:xlink="http://www.w3.org/1999/xlink" preserveAspectRatio="none" x="0px" y="0px" width="48px" height="48px" viewBox="0 0 48 48">
<defs>
<g id="Layer0_0_FILL">
<path fill="#71C2FF" stroke="none" d="
M 35.6 26.5
Q 35.55 26.4 35.5 26.3 35.4 26.15 35.3 26 34.95 25.7 34.55 25.7 34.05 25.7 33.7 26 33.4 26.35 33.4 26.75 33.4 26.8 33.4 26.85 33.4 26.9 33.4 27 33.45 27.2 33.55 27.45 34.35 29.55 34.35 31.95
L 34.35 32
Q 34.35 32.05 34.35 32.1 34.35 32.15 34.4 32.25 34.4 32.55 34.7 32.85 35 33.2 35.45 33.2 35.9 33.2 36.25 32.85 36.5 32.6 36.6 32.35 36.6 32.25 36.6 32.2 36.6 32.15 36.6 32.05
L 36.6 31.95
Q 36.6 31.75 36.6 31.55
L 36.6 31.5
Q 36.6 28.8 35.6 26.5
M 33.15 22.45
Q 32.8 22.1 32.35 22.1 31.85 22.1 31.45 22.45 31.3 22.6 31.1 22.8
L 25.75 28.2
Q 25 27.8 23.95 27.8 22.4 27.8 21.25 28.85 20.2 30 20.2 31.55 20.2 33.1 21.25 34.25 22.4 35.35 23.95 35.35 25.5 35.35 26.65 34.25 27.8 33.1 27.8 31.55 27.8 30.8 27.5 30.1
L 33.15 24.15
Q 33.5 23.75 33.5 23.25 33.5 22.8 33.15 22.45
M 22.85 30.65
Q 23.25 30.2 23.9 30.2 24.5 30.2 24.95 30.65 25.4 31.1 25.4 31.75 25.4 32.35 24.95 32.75 24.5 33.2 23.9 33.2 23.25 33.2 22.85 32.75 22.4 32.35 22.4 31.75 22.4 31.1 22.85 30.65
M 29 22.2
Q 29.45 22.2 29.8 21.9 30.05 21.6 30.1 21.3 30.1 21.2 30.1 21.05 30.1 20.65 29.8 20.3 29.65 20.2 29.55 20.15 29.45 20.1 29.4 20.05 26.9 18.8 23.9 18.8 18.65 18.8 14.95 22.55 11.25 26.25 11.25 31.5 11.25 31.55 11.25 31.65 11.25 31.75 11.25 31.9
L 11.25 31.95
Q 11.25 32.05 11.3 32.1 11.3 32.45 11.6 32.7 11.9 33.05 12.35 33.05 12.85 33.05 13.15 32.7 13.45 32.45 13.5 32.2 13.5 32.1 13.5 32
L 13.5 31.95
Q 13.5 27.65 16.5 24.6 19.6 21.5 23.9 21.5 26.3 21.5 28.65 22.15 28.8 22.2 29 22.2 Z"/>

<path fill="#CCCCCC" stroke="none" d="
M 8.55 4.8
Q 8.25 5.15 8.25 5.6 8.25 6.05 8.55 6.35 8.9 6.7 9.35 6.7 9.75 6.7 10.05 6.35 10.4 6.05 10.4 5.6 10.4 5.15 10.05 4.8 9.75 4.55 9.35 4.55 8.9 4.55 8.55 4.8
M 6.4 4.8
Q 6.1 4.55 5.65 4.55 5.2 4.55 4.85 4.8 4.6 5.15 4.6 5.6 4.6 6.05 4.85 6.35 5.2 6.7 5.65 6.7 6.1 6.7 6.4 6.35 6.75 6.05 6.75 5.6 6.75 5.15 6.4 4.8
M 13.4 4.55
Q 12.95 4.55 12.6 4.8 12.3 5.15 12.3 5.6 12.3 6.05 12.6 6.35 12.95 6.7 13.4 6.7 13.85 6.7 14.1 6.35 14.45 6.05 14.45 5.6 14.45 5.15 14.1 4.8 13.85 4.55 13.4 4.55 Z"/>
</g>

<path id="Layer0_0_1_STROKES" stroke="#FF0000" stroke-width="1" stroke-linejoin="round" stroke-linecap="round" fill="none" d="
M 1.05 43.7
L 1.05 44.25"/>

<path id="Layer0_0_2_STROKES" stroke="#71C2FF" stroke-width="0.1" stroke-linejoin="round" stroke-linecap="round" fill="none" d="
M 11.25 31.5
Q 11.25 26.25 14.95 22.55 18.65 18.8 23.9 18.8 26.9 18.8 29.4 20.05 29.45 20.1 29.55 20.15 29.65 20.2 29.8 20.3 30.1 20.65 30.1 21.05 30.1 21.2 30.1 21.3 30.05 21.6 29.8 21.9 29.45 22.2 29 22.2 28.8 22.2 28.65 22.15 26.3 21.5 23.9 21.5 19.6 21.5 16.5 24.6 13.5 27.65 13.5 31.95
L 13.5 32
Q 13.5 32.1 13.5 32.2 13.45 32.45 13.15 32.7 12.85 33.05 12.35 33.05 11.9 33.05 11.6 32.7 11.3 32.45 11.3 32.1 11.25 32.05 11.25 31.95
L 11.25 31.9
Q 11.25 31.75 11.25 31.65 11.25 31.55 11.25 31.5 Z
M 27.8 31.55
Q 27.8 33.1 26.65 34.25 25.5 35.35 23.95 35.35 22.4 35.35 21.25 34.25 20.2 33.1 20.2 31.55 20.2 30 21.25 28.85 22.4 27.8 23.95 27.8 25 27.8 25.75 28.2
L 31.1 22.8
Q 31.3 22.6 31.45 22.45 31.85 22.1 32.35 22.1 32.8 22.1 33.15 22.45 33.5 22.8 33.5 23.25 33.5 23.75 33.15 24.15
L 27.5 30.1
Q 27.8 30.8 27.8 31.55 Z
M 36.6 31.5
L 36.6 31.55
Q 36.6 31.75 36.6 31.95
L 36.6 32.05
Q 36.6 32.15 36.6 32.2 36.6 32.25 36.6 32.35 36.5 32.6 36.25 32.85 35.9 33.2 35.45 33.2 35 33.2 34.7 32.85 34.4 32.55 34.4 32.25 34.35 32.15 34.35 32.1 34.35 32.05 34.35 32
L 34.35 31.95
Q 34.35 29.55 33.55 27.45 33.45 27.2 33.4 27 33.4 26.9 33.4 26.85 33.4 26.8 33.4 26.75 33.4 26.35 33.7 26 34.05 25.7 34.55 25.7 34.95 25.7 35.3 26 35.4 26.15 35.5 26.3 35.55 26.4 35.6 26.5 36.6 28.8 36.6 31.5 Z
M 25.4 31.75
Q 25.4 32.35 24.95 32.75 24.5 33.2 23.9 33.2 23.25 33.2 22.85 32.75 22.4 32.35 22.4 31.75 22.4 31.1 22.85 30.65 23.25 30.2 23.9 30.2 24.5 30.2 24.95 30.65 25.4 31.1 25.4 31.75 Z"/>

<path id="Layer0_0_3_STROKES" stroke="#CCCCCC" stroke-width="2" stroke-linejoin="round" stroke-linecap="round" fill="none" d="
M 41.95 10.15
L 1.05 10.15 1.05 4.8
Q 1 4.65 1 4.4 1 4.15 1.05 3.95 1.2 2.8 2 2 2.95 1 4.4 1 4.8 1 5.05 1
L 43.7 1
Q 45.05 1.05 46.05 2 46.75 2.75 46.95 3.85 47 4.1 47 4.35
L 47 43.8
Q 47 44 46.95 44.25 46.75 45.35 46.05 46.1 45.15 46.95 44 47.05 43.9 47.05 43.75 47.05
L 4.3 47.05
Q 2.9 47 2 46.1 1.2 45.3 1.05 44.25
M 1.05 15.1
L 1.05 43.7
M 1.05 3.95
L 1.05 4.8"/>

<path id="Layer0_0_4_STROKES" stroke="#CCCCCC" stroke-width="0.1" stroke-linejoin="round" stroke-linecap="round" fill="none" d="
M 14.45 5.6
Q 14.45 6.05 14.1 6.35 13.85 6.7 13.4 6.7 12.95 6.7 12.6 6.35 12.3 6.05 12.3 5.6 12.3 5.15 12.6 4.8 12.95 4.55 13.4 4.55 13.85 4.55 14.1 4.8 14.45 5.15 14.45 5.6 Z
M 6.75 5.6
Q 6.75 6.05 6.4 6.35 6.1 6.7 5.65 6.7 5.2 6.7 4.85 6.35 4.6 6.05 4.6 5.6 4.6 5.15 4.85 4.8 5.2 4.55 5.65 4.55 6.1 4.55 6.4 4.8 6.75 5.15 6.75 5.6 Z
M 10.4 5.6
Q 10.4 6.05 10.05 6.35 9.75 6.7 9.35 6.7 8.9 6.7 8.55 6.35 8.25 6.05 8.25 5.6 8.25 5.15 8.55 4.8 8.9 4.55 9.35 4.55 9.75 4.55 10.05 4.8 10.4 5.15 10.4 5.6 Z"/>
</defs>

<g transform="matrix( 1, 0, 0, 1, 0,0) ">
<use xlink:href="#Layer0_0_FILL"/>

<use xlink:href="#Layer0_0_1_STROKES"/>

<use xlink:href="#Layer0_0_2_STROKES"/>

<use xlink:href="#Layer0_0_3_STROKES"/>

<use xlink:href="#Layer0_0_4_STROKES"/>
</g>
</svg>
