<svg xmlns="http://www.w3.org/2000/svg" viewBox="0 0 48 48"><path fill="#0c1724" d="M5.119 25.505c0 .318-.067.613-.201.885-.135.27-.325.5-.564.688-.242.19-.53.336-.862.44a3.63 3.63 0 0 1-1.093.157c-.474 0-.9-.063-1.272-.194A3.823 3.823 0 0 1 0 26.84l.623-1.013c.299.25.567.434.81.55.238.115.485.171.738.171.31 0 .556-.078.747-.239.19-.16.28-.373.28-.646 0-.116-.02-.224-.053-.325a1.006 1.006 0 0 0-.186-.314 2.536 2.536 0 0 0-.377-.347c-.157-.124-.362-.28-.616-.463-.19-.135-.38-.277-.563-.419a4.56 4.56 0 0 1-.5-.463 2.112 2.112 0 0 1-.362-.553 1.71 1.71 0 0 1-.138-.695A1.822 1.822 0 0 1 1.1 20.63c.216-.175.473-.31.78-.407a3.21 3.21 0 0 1 .988-.146c.377 0 .739.049 1.09.15.35.1.675.246.977.44l-.563.912c-.385-.269-.791-.407-1.217-.407-.257 0-.473.067-.641.202a.625.625 0 0 0-.254.508c0 .194.075.37.224.523.15.156.407.37.772.653.37.27.676.508.914.71.243.202.433.396.575.575.142.18.235.359.29.546.057.19.083.392.083.616zm6.399-1.707c0 .28-.03.583-.09.908a3.119 3.119 0 0 1-.298.9 1.988 1.988 0 0 1-.553.68c-.227.179-.518.269-.865.269-.582 0-1.041-.232-1.377-.699-.336-.463-.503-1.102-.503-1.912 0-.833.167-1.491.51-1.98.34-.49.803-.732 1.385-.732.552 0 .989.231 1.31.687.32.46.48 1.087.48 1.879zm2.022-.071c0-.542-.078-1.035-.231-1.476a3.373 3.373 0 0 0-.66-1.146 3.036 3.036 0 0 0-1.016-.747 3.083 3.083 0 0 0-1.298-.27c-.522 0-.981.101-1.377.296-.395.198-.765.508-1.1.934l-.012-1.058H5.985v10.866h1.858v-4.59c.183.212.358.392.53.537.167.146.339.266.514.355.176.09.359.157.553.195.194.037.403.056.623.056.492 0 .955-.101 1.38-.296a3.26 3.26 0 0 0 1.105-.833 4.02 4.02 0 0 0 .727-1.251 4.46 4.46 0 0 0 .265-1.573zm.828 3.777h1.91V16.873h-1.91zm10.06.003v-7.254h-1.911v3.904c0 .347-.015.616-.045.806a2.13 2.13 0 0 1-.145.516c-.269.598-.765.9-1.485.9-.564 0-.956-.202-1.18-.609a1.553 1.553 0 0 1-.182-.523 5.258 5.258 0 0 1-.052-.844v-4.15h-1.91v4.12c0 .28.003.52.007.71a4.967 4.967 0 0 0 .104.915c.023.116.06.228.108.333.176.444.456.78.847 1.008.392.228.873.34 1.44.34.512 0 .963-.09 1.351-.269.388-.18.765-.47 1.13-.878l.004.972zm8.23-.003V23.39c0-.28-.004-.52-.008-.717a3.95 3.95 0 0 0-.108-.897 4.141 4.141 0 0 0-.1-.325 2.02 2.02 0 0 0-.847-1.005c-.392-.235-.874-.355-1.444-.355-.512 0-.963.09-1.351.27-.388.179-.765.474-1.13.877l-.004-.971h-1.922v7.24h1.925V23.6c0-.336.012-.601.038-.788.022-.187.07-.363.138-.53a1.34 1.34 0 0 1 .574-.658c.258-.15.564-.224.922-.224.563 0 .955.202 1.179.609.086.153.145.328.179.519.034.19.052.474.052.84V27.5zm7.902-.479-2.91-3.62 2.459-2.636-1.448-.624-2.56 2.97h-.2v-6.242h-1.926v10.63H35.9v-3.85l2.88 3.996zm7.44-2.6v-1.184l-5.787-2.906v1.304l4.485 2.185-4.485 2.215v1.274z"/></svg>