<svg xmlns="http://www.w3.org/2000/svg" viewBox="0 0 48 48"><path fill="#1ed760" d="M38.195 21.285c-7.736-4.594-20.496-5.017-27.881-2.776a2.244 2.244 0 1 1-1.303-4.295c8.477-2.574 22.57-2.077 31.475 3.21a2.245 2.245 0 0 1-2.292 3.86zm-.254 6.804a1.872 1.872 0 0 1-2.573.616c-6.45-3.964-16.284-5.113-23.915-2.796a1.874 1.874 0 0 1-2.335-1.247 1.874 1.874 0 0 1 1.248-2.333c8.716-2.645 19.552-1.364 26.96 3.188a1.871 1.871 0 0 1 .615 2.572zm-2.936 6.535a1.495 1.495 0 0 1-2.057.498c-5.636-3.445-12.729-4.222-21.083-2.314a1.495 1.495 0 1 1-.666-2.916c9.142-2.09 16.984-1.19 23.31 2.675.705.43.927 1.352.496 2.057zM23.998.008C10.744.008 0 10.753 0 24.007c0 13.255 10.745 24 24 24 13.254 0 23.998-10.745 23.998-24-.001-13.254-10.745-23.999-24-23.999"/></svg>