<svg xmlns="http://www.w3.org/2000/svg" viewBox="0 0 48 48"><defs><linearGradient id="sqlite_svg__a" x1="-15.615" x2="-6.741" y1="-9.108" y2="-9.108" gradientTransform="rotate(90 -116.515 85.675) scale(11.486)" gradientUnits="userSpaceOnUse"><stop offset="0" stop-color="#97d9f6"/><stop offset=".92" stop-color="#0f80cc"/><stop offset="1" stop-color="#0f80cc"/></linearGradient></defs><path fill="#0f80cc" d="M36.33 2.13H6.21A3.681 3.681 0 0 0 2.54 5.8v33.216a3.681 3.681 0 0 0 3.67 3.67h19.837c-.225-9.87 3.146-29.025 10.282-40.556z"/><path fill="url(#sqlite_svg__a)" d="M118.02 20.574H22.129c-4.735 0-8.589 3.853-8.589 8.589v101.73c21.717-8.335 54.312-15.527 76.85-15.2 4.529-23.681 17.84-70.09 27.63-95.12z" transform="translate(-.486 -3.027) scale(.30268)"/><path fill="#003b57" d="M43.354 1.043c-2.062-1.84-4.56-1.1-7.025 1.087-.366.325-.73.685-1.094 1.07-4.217 4.474-8.13 12.76-9.347 19.087.474.961.844 2.187 1.088 3.124a30.813 30.813 0 0 1 .328 1.405s-.038-.143-.193-.592l-.101-.292a3.377 3.377 0 0 0-.065-.16c-.275-.64-1.036-1.99-1.371-2.577-.287.845-.54 1.635-.752 2.35.967 1.769 1.556 4.8 1.556 4.8s-.05-.196-.294-.882c-.215-.606-1.29-2.488-1.544-2.928-.435 1.606-.608 2.691-.452 2.955.303.512.59 1.395.844 2.372.572 2.2.97 4.878.97 4.878l.034.45a44.82 44.82 0 0 0 .112 5.495c.19 2.292.546 4.261 1 5.315l.31-.169c-.668-2.076-.94-4.796-.82-7.934.179-4.796 1.282-10.58 3.322-16.608 3.445-9.1 8.225-16.402 12.6-19.889-3.987 3.602-9.384 15.258-11 19.575-1.808 4.834-3.09 9.37-3.863 13.716 1.333-4.075 5.643-5.826 5.643-5.826s2.114-2.607 4.584-6.331c-1.48.337-3.91.915-4.724 1.257-1.2.503-1.524.675-1.524.675s3.89-2.368 7.225-3.44c4.589-7.227 9.587-17.493 4.553-21.983"/></svg>