<svg xmlns="http://www.w3.org/2000/svg" viewBox="0 0 48 48"><path d="M25.858.002a.596.596 0 0 0-.34.134c-.074.063-.448.55-.833 1.083l-.697.968-.209.012c-.502.03-.412.1-1.214-.945-.4-.52-.784-.99-.853-1.045a.815.815 0 0 0-.31-.135c-.155-.027-.209-.018-.367.065a.783.783 0 0 0-.262.22c-.042.07-.293.603-.559 1.187-.533 1.175-.463 1.089-.958 1.174l-.206.036-.9-.784c-.495-.431-.97-.82-1.056-.865-.293-.153-.718-.008-.849.288-.032.074-.177.645-.323 1.268-.146.624-.284 1.158-.31 1.188-.023.03-.168.108-.32.172l-.278.119-1.098-.635c-1.043-.6-1.112-.634-1.322-.625a.61.61 0 0 0-.362.108c-.244.173-.28.345-.317 1.542-.019.598-.038 1.153-.042 1.232-.007.126-.042.166-.285.325l-.277.182-1.163-.393c-1.3-.44-1.46-.465-1.689-.269a1.123 1.123 0 0 0-.218.275c-.094.183-.091.219.154 1.677.094.55.165 1.02.158 1.045a1.59 1.59 0 0 1-.23.262l-.217.218-1.192-.155c-.655-.084-1.27-.143-1.363-.133a.643.643 0 0 0-.55.694c.01.094.209.678.44 1.297l.42 1.125-.161.262c-.09.144-.182.272-.204.284-.022.011-.496.048-1.052.083-1.477.092-1.512.098-1.669.232-.074.062-.17.185-.217.273-.14.27-.079.42.646 1.584l.648 1.041-.115.312c-.1.274-.132.318-.253.353-.076.022-.612.167-1.19.321-1.158.309-1.317.382-1.43.66a.607.607 0 0 0-.022.377c.04.206.087.266.91 1.144l.867.926-.052.298c-.03.163-.072.32-.095.351-.024.03-.512.287-1.087.57-.574.284-1.097.556-1.161.605-.247.186-.3.624-.105.873.053.069.543.447 1.09.841l.995.718.007.246c.004.135.004.29 0 .343-.007.071-.249.28-.935.808-.509.392-.973.758-1.03.816a.786.786 0 0 0-.155.305c-.045.172-.041.226.021.372a.83.83 0 0 0 .2.271c.07.055.617.321 1.214.592.807.366 1.095.517 1.116.585.016.05.052.201.08.334l.049.242-.805.924c-.443.508-.835.988-.871 1.067-.133.287.018.701.301.826.074.033.644.18 1.268.325.624.145 1.159.283 1.188.308.03.024.107.17.173.322l.118.277-.635 1.1c-.601 1.041-.633 1.11-.625 1.32.006.16.036.26.107.361.174.246.346.28 1.543.318.599.018 1.153.037 1.232.042.126.007.167.043.327.287l.182.277-.391 1.156c-.216.636-.395 1.221-.399 1.301a.549.549 0 0 0 .198.471c.26.245.279.245 1.537.045a33.677 33.677 0 0 0 1.258-.215c.113-.03.152-.01.368.206l.242.24-.154 1.192c-.085.655-.144 1.268-.133 1.362.04.332.36.586.693.55.094-.01.678-.208 1.297-.44l1.126-.42.262.162c.143.09.27.18.282.203.012.023.05.496.085 1.054.091 1.475.096 1.51.231 1.667.063.074.186.17.274.217.268.14.419.08 1.584-.646l1.043-.646.316.116c.174.063.319.126.319.138.022.193.641 2.355.707 2.47a.713.713 0 0 0 .265.246c.146.074.21.08.403.043.219-.045.265-.08 1.154-.914l.926-.868.297.053c.164.029.322.071.353.095.03.023.287.512.57 1.086.284.574.557 1.097.604 1.162.195.258.64.301.892.087.073-.063.448-.55.832-1.082l.697-.97.273-.016c.15-.01.308-.013.35-.006.042.008.402.438.8.958s.758.976.8 1.016a.854.854 0 0 0 .259.132c.226.074.31.065.518-.061.199-.118.23-.176.817-1.471.24-.534.47-.984.51-1 .039-.016.192-.05.341-.074l.27-.045.901.783c.494.432.969.821 1.055.866.293.152.718.008.848-.288.033-.075.18-.645.325-1.269.145-.623.284-1.158.308-1.187.024-.03.169-.108.321-.173l.278-.119 1.1.634c1.041.601 1.11.635 1.32.626a.608.608 0 0 0 .36-.107c.247-.175.283-.346.32-1.543.017-.598.036-1.153.04-1.232.008-.125.044-.166.287-.326l.279-.183 1.16.394c1.3.44 1.46.467 1.689.27.075-.066.173-.189.218-.275.095-.183.091-.219-.154-1.678-.094-.549-.165-1.019-.158-1.043.006-.024.11-.144.228-.263l.218-.217 1.194.153c.655.085 1.268.145 1.362.133a.643.643 0 0 0 .55-.692c-.01-.095-.208-.679-.44-1.298l-.42-1.126.161-.261c.09-.144.182-.271.204-.283.023-.012.496-.05 1.053-.084 1.476-.093 1.511-.097 1.668-.231a1.12 1.12 0 0 0 .217-.274c.14-.27.079-.419-.646-1.583l-.648-1.042.115-.312c.1-.273.132-.317.253-.353.077-.023.611-.167 1.19-.321 1.157-.309 1.317-.383 1.43-.66a.606.606 0 0 0 .022-.377c-.04-.206-.086-.265-.91-1.143l-.867-.927.052-.296c.03-.164.072-.323.095-.353.024-.03.512-.285 1.084-.569.573-.282 1.095-.555 1.162-.604.26-.197.305-.642.09-.894-.063-.073-.55-.448-1.083-.831l-.049-.036-.493-1.68c.152-.125.311-.254.508-.404.519-.398.982-.766 1.03-.82a.859.859 0 0 0 .134-.293c.043-.167.04-.221-.023-.367a.812.812 0 0 0-.2-.27c-.07-.055-.615-.32-1.211-.592-.597-.27-1.098-.524-1.114-.563a2.597 2.597 0 0 1-.074-.341l-.045-.27.784-.899c.43-.495.82-.97.865-1.057.152-.294.008-.717-.29-.85-.077-.033-.647-.179-1.27-.324-.622-.145-1.155-.284-1.184-.307a1.318 1.318 0 0 1-.155-.283l-.107-.366.605-1.05c.601-1.042.634-1.11.625-1.32a.61.61 0 0 0-.107-.361c-.173-.245-.346-.281-1.543-.318-.598-.019-1.152-.038-1.231-.042-.126-.007-.167-.043-.327-.287l-.183-.277.395-1.162c.44-1.298.467-1.459.268-1.688a1.108 1.108 0 0 0-.274-.218c-.183-.095-.218-.091-1.677.155-.55.092-1.02.164-1.044.158a1.59 1.59 0 0 1-.262-.23l-.218-.217.154-1.193c.085-.655.144-1.269.132-1.363a.643.643 0 0 0-.692-.55c-.095.01-.679.208-1.298.44l-1.126.421-.261-.162c-.144-.09-.27-.181-.282-.204-.012-.022-.05-.497-.084-1.053-.093-1.476-.097-1.512-.232-1.669a1.109 1.109 0 0 0-.274-.217c-.269-.14-.42-.078-1.584.646l-1.04.649-.318-.117c-.175-.064-.32-.125-.32-.136-.023-.196-.642-2.36-.707-2.473a.72.72 0 0 0-.265-.245c-.146-.075-.21-.081-.403-.043-.219.044-.265.08-1.154.913l-.927.868-.296-.053c-.164-.028-.323-.072-.354-.094-.03-.023-.287-.512-.57-1.086C26.73.81 26.458.288 26.41.224c-.121-.162-.34-.239-.55-.222zm-.625 6.346.206.006c.693.024 2.126.274 3.179.554 1.31.35 2.575.856 3.768 1.499L18.621 22.849l17.605-3.303-5.52 6.61 10.953-.972c-.147 2.086-.595 3.949-1.394 5.807-.507 1.18-1.25 2.493-1.914 3.38l-.189.251-1.662-.074c-1.153-.05-1.736-.058-1.897-.025a1.35 1.35 0 0 0-1.003.898c-.054.17-.091.648-.138 1.8-.034.862-.066 1.62-.071 1.684-.008.094-.07.15-.341.316-1.404.848-3.053 1.519-4.917 2-.57.147-3.024.47-3.675.483-1.888.04-3.959-.246-5.67-.784-.43-.134-.506-.173-.536-.269-.02-.061-.225-.793-.456-1.625-.307-1.105-.453-1.57-.545-1.722a1.352 1.352 0 0 0-1.181-.646c-.165.005-.73.145-1.84.457l-1.605.449-.24-.201c-.848-.712-1.87-1.821-2.632-2.855-1.403-1.903-2.341-3.916-2.974-6.377-.244-.951-.53-3.49-.482-4.27.008-.136.054-.172 1.42-1.074 1.517-1.002 1.657-1.122 1.807-1.543.065-.184.071-.292.04-.59l-.042-.364-.97-1.462-.971-1.462.096-.236a20.921 20.921 0 0 1 .825-1.687 17.72 17.72 0 0 1 9.386-8.06c.278-.102.594-.21.701-.24l.197-.052 1.345 1.063c1.537 1.214 1.637 1.27 2.183 1.207.545-.062.63-.14 1.852-1.673z"/></svg>