<svg xmlns="http://www.w3.org/2000/svg" viewBox="0 0 48 48"><defs><clipPath id="a"><path stroke-width="1.662" d="M.035 48h50.05V-.002H.034z"/></clipPath></defs><path fill="#231f20" fill-rule="evenodd" d="M28.11 15.312a4.529 4.529 0 1 0 7.957 4.246 4.542 4.542 0 0 0-.984-4.939 4.537 4.537 0 0 0-4.94-.979 4.532 4.532 0 0 0-2.033 1.672m8.776-.833a6.032 6.032 0 0 1 1.015 3.352 6.049 6.049 0 0 1-6.032 6.026 6.027 6.027 0 0 1-5.572-3.724 6.03 6.03 0 0 1 10.589-5.653m-21.81 21.939-2.953-1.222a5.102 5.102 0 0 0 7.528 1.97 5.09 5.09 0 0 0 2.07-5.177 5.105 5.105 0 0 0-3.906-3.979 5.102 5.102 0 0 0-2.902.213l3.046 1.263a3.75 3.75 0 0 1 1.935 4.87 3.752 3.752 0 0 1-4.818 2.057zM7.678 6.367A24.005 24.005 0 0 1 23.948 0l.012.038a23.98 23.98 0 0 1 12.638 3.595A23.983 23.983 0 0 1 47.86 26.262 23.995 23.995 0 0 1 19.526 47.62 23.988 23.988 0 0 1 .872 30.56l9.198 3.806a6.797 6.797 0 0 0 11.69 3.21 6.79 6.79 0 0 0 1.763-4.552v-.321l8.156-5.82h.19a9.052 9.052 0 1 0-9.053-9.052v.095l-5.72 8.288h-.379a6.74 6.74 0 0 0-3.82 1.185L.035 22.077a24.003 24.003 0 0 1 7.643-15.71" clip-path="url(#a)"/></svg>