<svg xmlns="http://www.w3.org/2000/svg" width="48" height="48" viewBox="0 0 12.7 12.7"><defs><clipPath id="a" clipPathUnits="userSpaceOnUse"><path d="M42.739 391.343h30.117v28.885H42.739Z"/></clipPath></defs><g clip-path="url(#a)" transform="matrix(.43967 0 0 -.43967 -18.782 184.764)"><path d="M0 0a2.725 2.725 0 1 1 4.788-2.555A2.733 2.733 0 0 1 4.196.417a2.73 2.73 0 0 1-2.973.589A2.727 2.727 0 0 1 0 0m5.281.501a3.63 3.63 0 0 0 .611-2.017 3.64 3.64 0 0 0-3.63-3.626 3.627 3.627 0 0 0-3.353 2.241A3.628 3.628 0 0 0 5.281.501M-7.843-12.701l-1.777.735a3.07 3.07 0 0 1 4.53-1.185 3.063 3.063 0 0 1 1.246 3.115 3.072 3.072 0 0 1-2.351 2.394 3.07 3.07 0 0 1-1.746-.128l1.833-.76a2.256 2.256 0 0 0 1.164-2.93 2.258 2.258 0 0 0-2.899-1.238zm-4.452 18.084a14.445 14.445 0 0 0 9.791 3.831l.007-.023a14.43 14.43 0 0 0 7.605-2.163 14.432 14.432 0 0 0 6.777-13.617 14.439 14.439 0 0 0-17.05-12.852A14.435 14.435 0 0 0-16.39-9.176l5.535-2.29a4.09 4.09 0 0 1 7.034-1.931 4.086 4.086 0 0 1 1.061 2.739v.193l4.908 3.502h.114a5.447 5.447 0 1 1-5.447 5.447v-.057L-6.627-6.56h-.228a4.056 4.056 0 0 1-2.299-.713l-7.74 3.202a14.444 14.444 0 0 0 4.599 9.454" style="fill:#231f20;fill-opacity:1;fill-rule:evenodd;stroke:none" transform="translate(59.633 411.014)"/></g></svg>