<svg xmlns="http://www.w3.org/2000/svg" viewBox="0 0 48 48"><path d="M23.959 0C11.35 0 1.023 9.721.04 22.075l12.864 5.319a6.751 6.751 0 0 1 4.202-1.17l5.72-8.293v-.117c0-4.99 4.06-9.05 9.052-9.05 4.99 0 9.05 4.06 9.05 9.05s-4.06 9.052-9.05 9.052c-.07 0-.138 0-.206-.005l-8.159 5.821a6.8 6.8 0 0 1-6.786 7.115c-3.288 0-6.037-2.347-6.66-5.455l-9.2-3.801C3.716 40.615 12.972 48 23.958 48c13.256 0 24-10.746 24-24C47.959 10.745 37.214 0 23.959 0"/><path d="m15.081 36.416-2.948-1.218a5.073 5.073 0 0 0 2.626 2.5 5.104 5.104 0 0 0 6.667-2.748 5.058 5.058 0 0 0 .008-3.9 5.064 5.064 0 0 0-2.753-2.765 5.076 5.076 0 0 0-3.758-.057l3.045 1.259a3.753 3.753 0 1 1-2.887 6.93M37.908 17.814a6.038 6.038 0 0 0-6.03-6.03 6.038 6.038 0 0 0-6.031 6.03 6.037 6.037 0 0 0 6.03 6.03 6.037 6.037 0 0 0 6.031-6.03m-10.551-.01a4.53 4.53 0 1 1 9.06 0 4.53 4.53 0 0 1-9.06 0"/></svg>