<svg xmlns="http://www.w3.org/2000/svg" viewBox="0 0 48 48"><defs><clipPath id="steam_svg__a"><path d="M42.739 391.34h30.117v28.885H42.739z"/></clipPath></defs><g clip-path="url(#steam_svg__a)" transform="matrix(1.5938 0 0 -1.5938 -68.117 670.73)"><path fill="#231f20" fill-rule="evenodd" d="M59.633 411.01a2.725 2.725 0 1 1 4.788-2.555 2.733 2.733 0 0 1-.592 2.972 2.73 2.73 0 0 1-2.973.589 2.727 2.727 0 0 1-1.223-1.006m5.281.501a3.63 3.63 0 0 0 .611-2.017 3.64 3.64 0 0 0-3.63-3.626 3.627 3.627 0 0 0-3.353 2.241 3.628 3.628 0 0 0 6.372 3.402M51.79 398.309l-1.777.735a3.07 3.07 0 0 1 4.53-1.185 3.063 3.063 0 0 1 1.246 3.115 3.072 3.072 0 0 1-2.351 2.394 3.07 3.07 0 0 1-1.746-.128l1.833-.76a2.256 2.256 0 0 0 1.164-2.93 2.258 2.258 0 0 0-2.899-1.238zm19.685 17.804h-.257v.459h.26c.2 0 .269-.089.269-.218a.242.242 0 0 0-.083-.18.26.26 0 0 0-.088-.051.247.247 0 0 0-.101-.01m.491.244c0 .199-.108.389-.478.389h-.482v-1.384h.203v.548h.298l.278-.548h.247l-.316.612a.419.419 0 0 1 .25.383m-1.471-.98c-.132.193-.204.42-.208.654h-.012a1.153 1.153 0 0 0 1.197 1.2 1.18 1.18 0 0 0 1.092-.728 1.18 1.18 0 0 0-.852-1.616 1.183 1.183 0 0 0-1.217.49m2.132-.121c.154.229.237.499.238.775a1.352 1.352 0 0 1-.395 1.001 1.374 1.374 0 0 1-.998.402 1.4 1.4 0 0 1-1.374-1.665 1.394 1.394 0 0 1 1.093-1.101 1.398 1.398 0 0 1 1.436.588m-25.289 1.137a14.445 14.445 0 0 0 9.791 3.831l.007-.023a14.43 14.43 0 0 0 7.605-2.163 14.432 14.432 0 0 0 6.777-13.617 14.439 14.439 0 0 0-17.05-12.852 14.435 14.435 0 0 0-11.225 10.265l5.535-2.29a4.09 4.09 0 0 1 7.034-1.931 4.086 4.086 0 0 1 1.061 2.739v.193l4.908 3.502h.114a5.447 5.447 0 1 1-5.447 5.447v-.057l-3.442-4.987h-.228a4.056 4.056 0 0 1-2.299-.713l-7.74 3.202a14.444 14.444 0 0 0 4.599 9.454"/></g></svg>