<svg xmlns="http://www.w3.org/2000/svg" viewBox="0 0 48 48"><path fill="#201d1c" d="M16.99 48.042v-8.615c8.483 0 15.385-6.901 15.385-15.384S25.473 8.658 16.991 8.658V.043c13.233 0 24 10.766 24 24 0 13.233-10.767 24-24 24"/><path fill="#5b96d6" d="M16.99 12.066c6.628 0 12 5.373 12 12s-5.372 12-12 12-12-5.372-12-12 5.373-12 12-12"/><path fill="#211d1d" d="M39.283 7.67h-.66v-.39h1.775v.391h-.659v1.784h-.456V7.67m3.727-.388v2.175h-.437V8.074l-.584 1.32h-.277l-.596-1.304v1.367h-.417V7.282h.438l.734 1.544.677-1.544h.463"/></svg>