<svg xmlns="http://www.w3.org/2000/svg" viewBox="0 0 48 48"><defs><linearGradient id="stirlingpdf_svg__e" x1="120.07" x2="135.16" y1="63.258" y2="78.079" gradientUnits="userSpaceOnUse"><stop offset="0" stop-color="#9b0e11"/><stop offset="1" stop-color="#370707"/></linearGradient><linearGradient id="stirlingpdf_svg__c" x1="127.97" x2="133.89" y1="101.66" y2="104.77" gradientUnits="userSpaceOnUse"><stop offset="0" stop-color="#8ea8ad"/><stop offset="1" stop-color="#e9e7eb"/></linearGradient><linearGradient id="stirlingpdf_svg__g" x1="117.93" x2="130.67" y1="86.055" y2="76.946" gradientUnits="userSpaceOnUse"><stop offset="0" stop-color="#401016"/><stop offset="1" stop-color="#761f19"/></linearGradient><linearGradient id="stirlingpdf_svg__f" x1="130.98" x2="135.72" y1="82.403" y2="86.452" gradientUnits="userSpaceOnUse"><stop offset="0" stop-color="#3a4b4f"/><stop offset="1" stop-color="#617979" stop-opacity=".975"/></linearGradient><linearGradient id="stirlingpdf_svg__h" x1="63.798" x2="96.637" y1="74.818" y2="120.29" gradientUnits="userSpaceOnUse"><stop offset="0" stop-color="#da453f"/><stop offset="1" stop-color="#a60008"/></linearGradient><linearGradient id="stirlingpdf_svg__d" x1="120.54" x2="128.04" y1="124.77" y2="126.07" gradientUnits="userSpaceOnUse"><stop offset="0" stop-color="#285459"/><stop offset="1" stop-color="#a6b6af"/></linearGradient><linearGradient id="stirlingpdf_svg__b" x1="113.85" x2="119.66" y1="114.04" y2="128.5" gradientUnits="userSpaceOnUse"><stop offset="0" stop-color="#f4f2f4"/><stop offset="1" stop-color="#57767b"/></linearGradient><linearGradient id="stirlingpdf_svg__l" x1="73.993" x2="94.845" y1="114.14" y2="71.247" gradientUnits="userSpaceOnUse"><stop offset="0" stop-color="#f7f6f8"/><stop offset="1" stop-color="#b7b7b5"/></linearGradient><linearGradient id="stirlingpdf_svg__i" x1="95.854" x2="103.78" y1="114.67" y2="120.19" gradientUnits="userSpaceOnUse"><stop offset="0" stop-color="#6a0007"/><stop offset="1" stop-color="#b8000f"/></linearGradient><linearGradient id="stirlingpdf_svg__k" x1="98.58" x2="118.1" y1="87.187" y2="101.19" gradientUnits="userSpaceOnUse"><stop offset="0" stop-color="#4b0005"/><stop offset="1" stop-color="#8f000c"/></linearGradient><linearGradient id="stirlingpdf_svg__j" x1="78.278" x2="92.313" y1="97.433" y2="104.34" gradientUnits="userSpaceOnUse"><stop offset="0" stop-color="#4b0005"/><stop offset="1" stop-color="#8f000c"/></linearGradient><linearGradient id="stirlingpdf_svg__a" x1="125.77" x2="123.33" y1="138.47" y2="126.03" gradientUnits="userSpaceOnUse"><stop offset="0" stop-color="#ccd6d7"/><stop offset="1" stop-color="#0f3a3f"/></linearGradient></defs><path fill="url(#stirlingpdf_svg__a)" d="M84.146 134.74s11.721 2.483 17.939 2.916c6.217.434 14.752.6 22.412-.433 8.01-1.081 13.2-2.228 14.5-2.662 1.302-.433 4.008-1.243 4.153-2.255s-3.47-2.747-6.218-3.325c-2.747-.579-12.724-1.446-14.893-1.446s-37.893 7.205-37.893 7.205z" transform="translate(-30.818 -25.729) scale(.53429)"/><path fill="url(#stirlingpdf_svg__b)" d="m84.46 134.87 35.166-6.857 16.155-42.738z" transform="translate(-30.818 -25.729) scale(.53429)"/><path fill="url(#stirlingpdf_svg__c)" d="m135.72 85.428.398 45.05-9.662-20.463z" transform="translate(-30.818 -25.729) scale(.53429)"/><path fill="url(#stirlingpdf_svg__d)" d="m119.6 128 16.534 2.487-9.688-20.551z" transform="translate(-30.818 -25.729) scale(.53429)"/><path fill="url(#stirlingpdf_svg__e)" d="m118.42 57.023 12.704-2.767-.078 25.087-12.439-13.377z" transform="translate(-30.818 -25.729) scale(.53429)"/><path fill="url(#stirlingpdf_svg__f)" d="m135.72 85.387-4.842-6.46.03 11.127z" transform="translate(-30.818 -25.729) scale(.53429)"/><path fill="url(#stirlingpdf_svg__g)" d="m119.1 65.682 11.969 13.45-.09 10.82-11.886 11.43z" transform="translate(-30.818 -25.729) scale(.53429)"/><path fill="url(#stirlingpdf_svg__h)" d="m62.146 130.16-.103-64.72s.18-2.779 1.896-4.037c1.874-1.374 4.341-1.894 4.341-1.894l50.918-11.35-.011 53.145-34.733 33.566z" transform="translate(-30.818 -25.729) scale(.53429)"/><path fill="url(#stirlingpdf_svg__i)" d="m94.78 91.407 16.871 17.075-23.723 23.002-18.122-17.998 5.497-2.806 18.404-.051 2.352-8.23z" transform="translate(-30.818 -25.729) scale(.53429)"/><path fill="url(#stirlingpdf_svg__j)" d="m72.44 92.225 16.155 15.745 4.09-6.799z" transform="translate(-30.818 -25.729) scale(.53429)"/><path fill="url(#stirlingpdf_svg__k)" d="m95.139 84.965 1.124-14.11 22.925 22.287.008 8.165-3.289 3.166z" transform="translate(-30.818 -25.729) scale(.53429)"/><path fill="url(#stirlingpdf_svg__l)" d="M95.139 84.965h1.227l-.051-14.11s-5.777-3.22-12.168-2.402c-6.39.818-8.151 2.125-10.582 4.396-1.902 1.778-2.914 3.528-3.987 7.158-.513 1.733-.282 5.988.613 8.537.665 1.891 2.454 4.294 4.959 6.135 2.662 1.956 8.282 3.527 8.282 3.527s5.134 1.887 5.572 4.294c.308 1.695-.102 3.221-1.636 4.96-1.258 1.425-3.63 1.993-6.288 1.073s-6.14-3.85-7.106-4.908c-.818-.895-2.82-3.062-2.89-4.294-.012-.214-1.23-.096-1.23-.096l-.072 14.257 5.88 2.25s5.214 1.788 8.946 1.43c3.731-.357 7.617-.51 11.604-5.163 3.988-4.652 3.681-12.832 2.147-15.899-1.533-3.067-3.56-6.139-10.48-8.282-5.776-1.789-7.872-3.016-8.128-4.396s.009-4.254 2.76-5.215c3.221-1.124 5.624-.05 7.055 1.125 1.432 1.176 5.573 5.623 5.573 5.623z" transform="translate(-30.818 -25.729) scale(.53429)"/></svg>
