<svg xmlns="http://www.w3.org/2000/svg" viewBox="0 0 48 48"><linearGradient id="stringis_svg__a" x1="57.5" x2="57.5" y1="115" y2="33.216" gradientUnits="userSpaceOnUse"><stop offset="0" stop-color="#36f"/><stop offset="1" stop-color="#36f" stop-opacity=".727"/></linearGradient><g fill="none" transform="scale(.4174)"><rect width="115" height="115" fill="url(#stringis_svg__a)" rx="2" style="fill:url(#stringis_svg__a)"/><path fill="#fff" d="m25.399 63.888 11.733 11.734a1.59 1.59 0 0 0 2.249 0l3.985-3.986a1.59 1.59 0 0 0 0-2.248l-10.609-10.61a1.589 1.589 0 0 1 0-2.249L43.366 45.92a1.592 1.592 0 0 0 0-2.25l-3.985-3.986a1.59 1.59 0 0 0-2.249 0L25.399 51.418l-5.112 5.11a1.592 1.592 0 0 0 0 2.249zm70.985-5.111a1.59 1.59 0 0 0 0-2.249l-5.11-5.11L79.54 39.684a1.59 1.59 0 0 0-2.249 0l-3.985 3.986a1.592 1.592 0 0 0 0 2.25l10.608 10.609a1.589 1.589 0 0 1 0 2.249l-10.608 10.61a1.59 1.59 0 0 0 0 2.248l3.985 3.986a1.59 1.59 0 0 0 2.249 0l11.733-11.734ZM51.502 79.334l-6.684-3.403c-.492-.25-.703-.823-.469-1.282l19.506-38.304c.234-.457.822-.624 1.314-.374l6.683 3.403c.493.251.703.825.47 1.282L52.814 78.96c-.233.458-.819.625-1.312.374z"/></g></svg>