
<svg xmlns="http://www.w3.org/2000/svg" version="1.1" xmlns:xlink="http://www.w3.org/1999/xlink" preserveAspectRatio="none" x="0px" y="0px" width="1000px" height="550px" viewBox="0 0 1000 550">
<defs>
<g id="Layer0_0_FILL">
<path fill="#075ECC" stroke="none" d="
M 733 270.5
Q 733 173.8 664.6 105.4 606.2 47 527.15 38.45 500.25 36.75 473.4 38.3 393.35 46.45 334.4 105.4 266 173.8 266 270.5 266 367.2 334.4 435.6 402.8 504 499.5 504 596.2 504 664.6 435.6 733 367.2 733 270.5
M 434.15 135.7
Q 434.6 135.95 435 136.25
L 625.5 257.3
Q 627.2 258.1 628.75 259.35 629.65 260.05 630.5 260.9 635.95 266.35 635.95 274 635.95 281.65 630.5 287.05 628.15 289.4 625.4 290.75
L 435.45 408.95
Q 434.15 409.9 432.8 410.6 429.05 412.5 424.5 412.5 416.85 412.5 411.4 407.05 406.25 401.9 406 394.7 406 394.35 406 394 406 393.25 406.05 392.55
L 406.25 154.65
Q 406 153.15 406 151.5 406 149.85 406.25 148.3 407.15 142.7 411.4 138.4 416.85 133 424.5 133 429.9 133 434.15 135.7 Z"/>
</g>

<path id="Layer0_0_1_STROKES" stroke="#075FCA" stroke-width="22" stroke-linejoin="round" stroke-linecap="round" fill="none" d="
M 527.15 38.45
Q 606.2 47 664.6 105.4 733 173.8 733 270.5 733 367.2 664.6 435.6 596.2 504 499.5 504 402.8 504 334.4 435.6 266 367.2 266 270.5 266 173.8 334.4 105.4 393.35 46.45 473.4 38.3 257.25 50.65 42 271 498 737.85 957.95 271 742.1 51.9 527.15 38.45 500.25 36.75 473.4 38.3 486.15 37 499.5 37 513.6 37 527.15 38.45 Z
M 406 151.5
Q 406 149.85 406.25 148.3 407.15 142.7 411.4 138.4 416.85 133 424.5 133 429.9 133 434.15 135.7 434.6 135.95 435 136.25
L 625.5 257.3
Q 627.2 258.1 628.75 259.35 629.65 260.05 630.5 260.9 635.95 266.35 635.95 274 635.95 281.65 630.5 287.05 628.15 289.4 625.4 290.75
L 435.45 408.95
Q 434.15 409.9 432.8 410.6 429.05 412.5 424.5 412.5 416.85 412.5 411.4 407.05 406.25 401.9 406 394.7 406 394.35 406 394 406 393.25 406.05 392.55
L 406.25 154.65
Q 406 153.15 406 151.5 Z
M 406.25 148.3
L 406.25 154.65
M 406.05 392.55
L 406 394.7"/>
</defs>

<g transform="matrix( 1, 0, 0, 1, 0,0) ">
<use xlink:href="#Layer0_0_FILL"/>

<use xlink:href="#Layer0_0_1_STROKES"/>
</g>
</svg>
