<svg xmlns="http://www.w3.org/2000/svg" viewBox="0 0 48 48"><path fill="url(#supabase_svg__a)" d="M63.708 110.28c-2.86 3.601-8.657 1.628-8.726-2.97l-1.008-67.251h45.22c8.19 0 12.758 9.46 7.666 15.875z" transform="translate(.624 -.09) scale(.42883)"/><path fill="url(#supabase_svg__b)" fill-opacity=".2" d="M63.708 110.28c-2.86 3.601-8.657 1.628-8.726-2.97l-1.008-67.251h45.22c8.19 0 12.758 9.46 7.666 15.875z" transform="translate(.624 -.09) scale(.42883)"/><path fill="#3ecf8e" d="M20.057.798c1.226-1.545 3.712-.699 3.742 1.273l.19 28.84H4.838c-3.512 0-5.471-4.057-3.287-6.808z"/><defs><linearGradient id="supabase_svg__a" x1="53.974" x2="94.163" y1="54.974" y2="71.829" gradientUnits="userSpaceOnUse"><stop offset="0" stop-color="#249361"/><stop offset="1" stop-color="#3ECF8E"/></linearGradient><linearGradient id="supabase_svg__b" x1="36.156" x2="54.484" y1="30.578" y2="65.081" gradientUnits="userSpaceOnUse"><stop offset="0"/><stop offset="1" stop-opacity="0"/></linearGradient></defs></svg>
