<svg xmlns="http://www.w3.org/2000/svg" viewBox="0 0 48 48"><path fill="#0a974b" d="M26.08 33.887C14.44 35.051 4.5 31.254 3.877 25.405c-.624-5.85 8.307-11.535 19.948-12.7 11.64-1.164 21.581 2.633 22.205 8.483.622 5.85-8.308 11.535-19.947 12.7zm19.986-12.995c-.956-6.57-12.028-10.5-24.731-8.779C8.632 13.836-.89 20.56.065 27.13c.957 6.57 12.03 10.501 24.732 8.778 12.702-1.722 22.225-8.445 21.27-15.016"/><path fill="#fff" d="M23.823 12.705c-11.64 1.165-20.571 6.85-19.948 12.7.623 5.849 10.565 9.646 22.205 8.482 11.64-1.164 20.57-6.85 19.947-12.699-.624-5.85-10.565-9.647-22.205-8.483"/><g fill="#223a6d"><path d="M8.536 22.807h-.15c-.059-.904-.628-1.636-1.548-1.636-.477 0-.962.37-.962.887 0 1.196 3.028 1.403 3.028 3.09 0 .896-.686 1.645-1.748 1.645-.385 0-.661-.077-.879-.163-.225-.078-.393-.155-.593-.155-.193 0-.235.146-.252.318h-.15V24.84h.15c.126 1.377 1.147 1.618 1.64 1.618.56 0 1.104-.301 1.104-.93 0-1.308-2.944-1.463-2.944-3.168 0-.878.77-1.524 1.64-1.524.3 0 .551.078.752.164.21.077.368.163.477.163.2 0 .25-.154.284-.327h.151v1.972"/><path d="M5.683 26.319c.191 0 .354.059.527.121l.118.042c.172.068.437.155.828.155.922 0 1.592-.626 1.592-1.488 0-.823-.827-1.267-1.626-1.697-.721-.387-1.402-.753-1.402-1.394 0-.624.578-1.043 1.118-1.043.713 0 1.276.403 1.542 1.055v-.853a.388.388 0 0 1-.279.102c-.106 0-.217-.046-.357-.104a6.238 6.238 0 0 0-.174-.07 1.727 1.727 0 0 0-.699-.153c-.818 0-1.483.613-1.483 1.367 0 .818.782 1.255 1.538 1.678.723.405 1.406.788 1.406 1.49 0 .747-.653 1.087-1.26 1.087-.228 0-1.226-.06-1.634-1.062v.845a.377.377 0 0 1 .246-.078zm1.473.63c-.444 0-.747-.099-.936-.174a6.97 6.97 0 0 1-.116-.041c-.16-.057-.285-.103-.42-.103-.048 0-.079 0-.096.178l-.014.14h-.448v-2.266h.449l.013.142c.125 1.37 1.167 1.476 1.484 1.476.472 0 .948-.239.948-.773 0-.52-.606-.859-1.247-1.218-.796-.445-1.698-.95-1.698-1.95 0-.927.806-1.68 1.796-1.68.271 0 .538.057.815.175.06.022.12.048.177.071.095.04.194.08.238.08.055 0 .092 0 .13-.2l.026-.127h.435v2.284H8.24l-.01-.146c-.048-.741-.496-1.49-1.391-1.49-.381 0-.806.3-.806.731 0 .454.601.777 1.238 1.119.839.451 1.79.962 1.79 1.972 0 1.027-.819 1.8-1.904 1.8m2.708-3.984c0-.579 0-.751-.63-.751v-.124h1.888v.124c-.63 0-.63.172-.63.75v1.819c0 .269.027.772.108 1.013.154.454.595.66 1.037.66.435 0 .917-.172 1.17-.557.215-.331.215-.868.215-1.24v-1.694c0-.579 0-.751-.629-.751v-.124h1.546v.124c-.629 0-.629.172-.629.75v2.032c0 .827-.314 1.756-1.706 1.756-1.42 0-1.74-.833-1.74-1.735v-2.052"/><path d="M13.042 22.247c.076.088.11.207.125.358.016-.151.05-.27.126-.358zm-.261 3.932a1.45 1.45 0 0 1-.533.328c.216-.07.394-.179.533-.328zm-2.898-3.932c.128.149.138.387.138.718v2.052c0 1.005.413 1.497 1.331 1.57-.434-.081-.767-.35-.9-.74-.09-.275-.115-.816-.115-1.064v-1.818c0-.331.01-.57.138-.718zm1.722 4.662c-1.259 0-1.897-.636-1.897-1.892v-2.052c0-.249 0-.429-.051-.504-.029-.042-.102-.09-.421-.09h-.157v-.437h2.2v.437h-.156c-.32 0-.393.048-.422.09-.051.075-.051.255-.051.504v1.818c0 .258.027.747.1.963.137.409.55.554.888.554.348 0 .804-.128 1.04-.487.19-.29.19-.81.19-1.154v-1.694c0-.249 0-.429-.052-.504-.029-.042-.103-.09-.422-.09h-.156v-.437h1.858v.437h-.156c-.319 0-.393.048-.421.09-.052.075-.052.255-.052.504v2.032c0 1.233-.661 1.912-1.862 1.912m3.787-2.394c.248.054.495.103.743.103 1.185 0 1.379-.896 1.379-1.254 0-.675-.53-1.274-1.573-1.274h-1.807v.124c.63 0 .63.172.63.75v2.81c0 .58 0 .752-.63.752v.124h1.887v-.124c-.629 0-.629-.173-.629-.751zm0-2.087a1.66 1.66 0 0 1 .455-.062c.576 0 .917.468.917 1.033 0 .496-.3.984-.736.984-.2 0-.448-.027-.636-.068v-1.887"/><path d="M15.548 24.186c.157.026.334.041.48.041.347 0 .58-.428.58-.828 0-.436-.235-.877-.76-.877-.102 0-.202.01-.3.03zm.617-1.93c.452.14.755.578.755 1.143 0 .416-.196.858-.532 1.046.94-.129.97-.977.97-1.08 0-.477-.318-1.028-1.193-1.108zm-1.383 4.238h.592c-.128-.15-.138-.387-.138-.719V22.31l.114-.032c.042-.012.084-.023.127-.031h-.695c.128.149.137.387.137.718v2.81c0 .332-.01.57-.137.719zm1.396.312h-2.2v-.436h.156c.319 0 .393-.048.421-.09.052-.076.052-.256.052-.505v-2.81c0-.249 0-.429-.052-.504-.028-.042-.102-.09-.421-.09h-.156v-.437h1.963c1.194 0 1.729.719 1.729 1.43 0 .524-.323 1.41-1.535 1.41-.2 0-.397-.029-.587-.066v1.067c0 .25 0 .429.052.505.028.042.102.09.421.09h.157v.436m2.935-2.664h.89c.529 0 .737-.055.777-.668h.12v1.591h-.12c-.054-.606-.235-.675-.776-.675h-.89v1.667c0 .282.08.344.36.344h.91c.59 0 .804-.282 1.152-.895h.127l-.375 1.143h-3.433v-.124c.63 0 .63-.172.63-.75v-2.81c0-.58 0-.751-.63-.751v-.124h3.4l.06.998h-.134c-.127-.695-.308-.75-.937-.75h-1.13v1.804"/><path d="M20.842 22.247a.56.56 0 0 1 .277.205l-.012-.205zm-.423 2.021c.137.03.244.085.324.179v-.354a.567.567 0 0 1-.324.175zm-1.917 2.226h.64c-.117-.067-.186-.197-.186-.436v-3.811h-.454c.128.149.138.387.138.718v2.81c0 .331-.01.57-.138.719zm2.317 0h.355l.105-.32c-.13.148-.275.256-.46.32zm.582.312h-3.703v-.436h.156c.32 0 .393-.048.422-.09.051-.076.051-.256.051-.505v-2.81c0-.249 0-.429-.051-.504-.029-.042-.103-.09-.422-.09h-.156v-.437H21.4l.08 1.311h-.43l-.024-.128c-.11-.605-.21-.622-.783-.622h-.975v1.491h.734c.474 0 .587-.019.62-.521l.01-.147h.423v1.904h-.42l-.013-.142c-.043-.497-.126-.533-.62-.533h-.734v1.51c0 .185 0 .189.205.189h.91c.504 0 .68-.224 1.015-.817l.045-.079h.434l-.477 1.456m4.947-.156v-.124c-.609-.048-.85-.386-1.178-.854l-.863-1.24c.582-.124 1.098-.496 1.098-1.157 0-.4-.235-1.185-1.54-1.185h-1.92v.125c.629 0 .629.171.629.75v2.81c0 .579 0 .751-.63.751v.124h1.888v-.124c-.63 0-.63-.172-.63-.75v-1.254h.456l1.506 2.128zm-3.145-4.25c.18-.027.361-.062.549-.062.542 0 .903.414.903.965 0 .764-.67.998-1.305.998h-.147v-1.9"/><path d="M23.358 22.534v1.61c.43 0 1.14-.114 1.14-.841 0-.476-.308-.808-.747-.808-.13 0-.259.018-.393.04zm.81-.27c.389.16.642.549.642 1.039 0 .466-.227.81-.634.997l.097-.02c.293-.063.974-.286.974-1.005 0-.22-.083-.898-1.078-1.012zm-1.576 4.23h.591c-.128-.15-.137-.387-.137-.719v-3.509l.128-.02h-.583c.128.15.138.388.138.72v2.81c0 .33-.01.569-.137.718zm2.652 0h.473c-.283-.172-.47-.44-.676-.733l-.984-1.413a1.66 1.66 0 0 1-.28.073zm1.26.312h-1.422l-1.506-2.128h-.218v1.097c0 .25 0 .429.052.505.028.042.102.09.421.09h.156v.436h-2.2v-.436h.157c.319 0 .393-.048.421-.09.052-.076.052-.256.052-.505v-2.81c0-.249 0-.429-.052-.504-.028-.042-.102-.09-.421-.09h-.156v-.437h2.076c1.252 0 1.696.722 1.696 1.341 0 .59-.369 1.046-.999 1.25l.737 1.058c.314.448.521.745 1.062.787l.144.012v.424"/><path d="M27.331 22.834h-.013v2.941c0 .578 0 .75.629.75v.125H26.4v-.124c.629 0 .629-.173.629-.751v-2.817c0-.55-.067-.744-.63-.744v-.124h1.259l1.606 3.568 1.586-3.568h1.251v.124c-.628 0-.628.172-.628.75v2.811c0 .578 0 .75.628.75v.125h-1.887v-.124c.63 0 .63-.173.63-.751v-2.94h-.014l-1.693 3.815h-.108l-1.699-3.816"/><path d="M27.175 22.678h.257l1.652 3.708.167-.378-1.694-3.761h-.541c.101.107.143.254.16.43zm-.127 3.816h.25c-.075-.088-.11-.207-.125-.358-.015.15-.05.27-.125.358zm3.814 0h.593c-.128-.15-.138-.388-.138-.719v-2.81c0-.331.01-.57.138-.718h-.503l-.192.43H31v3.098c0 .331-.01.57-.138.719zm1.396.312h-2.2v-.436h.156c.32 0 .393-.049.422-.09.052-.076.052-.256.052-.505v-2.234l-1.449 3.265h-.31l-1.456-3.267v2.236c0 .249 0 .429.052.504.029.042.102.09.421.09h.156v.437h-1.858v-.436h.156c.32 0 .393-.049.422-.09.051-.076.051-.256.051-.505v-2.817c0-.527-.048-.587-.473-.587h-.156v-.437h1.515l1.505 3.341 1.485-3.341h1.51v.437h-.157c-.319 0-.392.048-.42.09-.052.075-.052.255-.052.504v2.81c0 .249 0 .429.051.504.029.042.102.09.421.09h.156v.437m1.397-1.031c0 .578 0 .75.63.75v.125h-1.888v-.124c.629 0 .629-.173.629-.751v-2.81c0-.579 0-.75-.63-.75v-.125h1.888v.124c-.63 0-.63.172-.63.75v2.81"/><path d="M33.045 26.494h.591c-.128-.15-.137-.387-.137-.719v-2.81c0-.331.01-.57.137-.718h-.592c.128.149.138.387.138.718v2.81c0 .332-.01.57-.137.719zm1.396.312h-2.2v-.436h.156c.319 0 .393-.048.421-.09.052-.076.052-.256.052-.505v-2.81c0-.249 0-.429-.052-.504-.028-.042-.102-.09-.421-.09h-.157v-.437h2.2v.437h-.156c-.32 0-.393.048-.421.09-.052.075-.052.255-.052.504v2.81c0 .25 0 .429.052.505.028.042.102.09.421.09h.157v.436m4.146-3.269h-.1c-.208-.779-.656-1.31-1.486-1.31-.89 0-1.546.71-1.546 2.226 0 1.529.89 2.004 1.653 2.004.71 0 1.077-.345 1.479-.944l.1.07c-.408.77-.957 1.17-1.834 1.17-1.277 0-2.147-1.005-2.147-2.293 0-1.35.91-2.466 2.268-2.466a2 2 0 0 1 .944.24c.053.028.127.07.194.07.147 0 .234-.172.26-.317h.114l.101 1.55"/><path d="M38.058 22.455c.125.114.235.253.329.416l-.033-.51a.344.344 0 0 1-.296.094zm-1.911-.141c-.777.33-1.285 1.133-1.285 2.145 0 1.238.837 2.136 1.99 2.137-.792-.104-1.554-.706-1.554-2.144 0-1.034.306-1.778.849-2.138zm.706 4.594c-1.335 0-2.304-1.03-2.304-2.449 0-1.495 1.043-2.622 2.425-2.622.351 0 .654.077 1.014.258l.014.007c.03.016.086.045.11.045.033 0 .087-.083.107-.19l.023-.127h.39l.121 1.862h-.387l-.03-.116c-.215-.802-.651-1.192-1.335-1.192-.884 0-1.39.754-1.39 2.068 0 1.715 1.145 1.848 1.497 1.848.641 0 .969-.307 1.349-.874l.088-.131.345.237-.065.123c-.453.855-1.08 1.253-1.972 1.253m6.599-.258v-.124c-.61-.048-.85-.386-1.178-.854l-.863-1.24c.582-.124 1.097-.496 1.097-1.157 0-.4-.234-1.185-1.539-1.185h-1.92v.125c.629 0 .629.171.629.75v2.81c0 .579 0 .751-.63.751v.124h1.888v-.124c-.63 0-.63-.172-.63-.75v-1.254h.456l1.505 2.128zm-3.145-4.25c.18-.027.36-.062.548-.062.543 0 .904.414.904.965 0 .764-.67.998-1.305.998h-.147v-1.9"/><path d="M40.464 22.533v1.611c.43-.002 1.139-.115 1.139-.842 0-.476-.307-.808-.747-.808-.13 0-.259.018-.392.04zm.81-.27c.388.16.641.55.641 1.039 0 .466-.227.811-.633.997l.097-.02c.292-.063.974-.285.974-1.005 0-.22-.084-.897-1.08-1.012zm-1.577 4.23h.592c-.128-.149-.138-.387-.138-.719v-3.508l.129-.02h-.583c.128.149.137.387.137.718v2.81c0 .332-.01.57-.137.719zm2.651 0h.474c-.283-.171-.47-.44-.675-.732l-.985-1.413c-.086.03-.18.055-.28.073l.008.01zm1.26.313h-1.421l-1.506-2.129h-.217v1.097c0 .25 0 .43.051.505.029.042.102.09.421.09h.156v.437h-2.2v-.437h.157c.319 0 .393-.048.421-.09.052-.076.052-.256.052-.505v-2.81c0-.249 0-.428-.052-.504-.028-.042-.102-.09-.421-.09h-.156v-.437h2.077c1.613 0 1.695 1.117 1.695 1.341 0 .591-.369 1.047-.998 1.251l.736 1.057c.314.448.522.745 1.062.788l.144.011v.425"/></g><path fill="#db202c" d="M48 24.347c0 1.282-1.011 2.322-2.257 2.322-1.247 0-2.257-1.04-2.257-2.322 0-1.283 1.01-2.322 2.257-2.322 1.246 0 2.256 1.039 2.256 2.322"/><path fill="#223a6d" d="M45.786 16.407h.084c.099 0 .178-.033.178-.113 0-.07-.051-.117-.164-.117a.428.428 0 0 0-.098.009zm-.005.436h-.178v-.77a1.56 1.56 0 0 1 .295-.023c.146 0 .211.023.268.056a.213.213 0 0 1 .075.17c0 .084-.066.15-.16.177v.01c.075.028.117.084.141.187a.587.587 0 0 0 .056.193h-.192c-.024-.029-.038-.099-.061-.188-.014-.084-.061-.122-.16-.122h-.084zm-.474-.404c0 .343.254.615.6.615.338 0 .587-.272.587-.61 0-.342-.249-.62-.591-.62s-.596.278-.596.615zm1.384 0a.773.773 0 0 1-.788.779.78.78 0 0 1-.793-.779c0-.426.352-.769.793-.769.446 0 .788.343.788.77"/></svg>