<svg xmlns="http://www.w3.org/2000/svg" viewBox="0 0 48 48"><g fill-rule="evenodd"><path d="M5.809 47.987c-.39 0-.649-.13-.649-.518V.558c0-.39.26-.52.649-.52h11.553c.388 0 .777.13.777.52V3.41c0 .389-.259.519-.648.519h-6.353c-.648 0-.778.259-.778.648v38.989c0 .389.26.518.778.518h6.224c.388 0 .777.13.777.519v2.749c-.13.389-.259.648-.777.648H5.809z"/><path fill="#38a1ce" d="M36.318 34.36v8.168c0 6.095-5.225 5.446-12.357 5.446h-1.167c-.389 0-.778-.13-.778-.518v-2.853c0-.389.26-.519.649-.519h.907c4.279 0 7.52.908 7.52-2.463v-7.78c0-2.463 1.686-5.705 5.057-7.001.26 0 .26-.13.26-.26s-.13-.259-.26-.389c-3.112-1.426-5.056-3.63-5.056-6.483v-8.946c0-3.371-3.216-6.872-7.495-6.872h-.907c-.39 0-.649-.13-.649-.519V.52c0-.39.26-.519.778-.519h1.167c7.261 0 12.357 5.186 12.357 11.28v7.391c0 2.853 1.828 4.408 4.81 5.446 1.167.389 1.686.389 1.686 1.296v2.334c0 .519-.519.778-1.945 1.167-2.982.908-4.564 2.593-4.564 5.446z"/><path d="M27.216 20.875c0 .649-.649 1.167-1.297 1.167h-2.593c-.778 0-1.297-.518-1.297-1.167v-2.852c0-.649.649-1.167 1.297-1.167h2.593c.778 0 1.297.518 1.297 1.167v2.865z"/></g></svg>