<svg xmlns="http://www.w3.org/2000/svg" viewBox="0 0 48 48"><path fill="#0086e5" d="M42 48H6c-3.3 0-6-2.7-6-6V6c0-3.3 2.7-6 6-6h36c3.3 0 6 2.7 6 6v36c0 3.3-2.7 6-6 6z"/><g fill="#fff"><path d="M45 15.75h-3l-3.75 4.5-3.75-4.5h-3v16.5h3V21l3.75 3.75L42 21v11.25h3zM29.25 26.25c0-2.1-1.65-3.75-3.75-3.75h-3.75c-.675 0-1.5-.825-1.5-1.5v-.75c0-.675.825-1.5 1.5-1.5h7.5v-3H21c-2.1 0-3.75 2.4-3.75 4.5v1.5c0 2.1 1.65 3.75 3.75 3.75h3.75c.675 0 1.5.825 1.5 1.5v.75c0 .675-.825 1.5-1.5 1.5h-7.5v3h8.25c2.1 0 3.75-1.65 3.75-3.75zM15 19.5c0-2.1-1.65-3.75-3.75-3.75h-9v3h8.25c.675 0 1.5.825 1.5 1.5v7.5c0 .675-.825 1.5-1.5 1.5H5.25v-7.5h-3v10.5h9c2.1 0 3.75-1.65 3.75-3.75z"/></g></svg>
