<svg xmlns="http://www.w3.org/2000/svg" viewBox="0 0 48 48"><defs><style>.system76_svg__cls-2{fill:#fff}</style></defs><g id="system76_svg__secondary"><path d="m788.15 95.478-1.354 4.086c-9.669 17.97-122.02 221.12-159.22 288.38a28085.472 28085.472 0 0 0-13.646 24.684c-31.264 53.988-45.61 114.76-38.38 162.58a156.61 156.61 0 0 0 27.247 67.4 162.39 162.39 0 0 0 105.81 66.1c4.388.746 8.87 1.322 13.326 1.716 4.954.442 9.988.664 14.959.664a165.16 165.16 0 0 0 99.754-33.08 157.31 157.31 0 0 0 61.433-100.06c7.113-42.268-3.2-84.882-29.056-120a166.54 166.54 0 0 0-107.18-65.576c-2.393-.4-4.857-.762-7.327-1.07a28.992 28.992 0 0 1-25.479-29.794 28.646 28.646 0 0 1 9.643-20.878 29.256 29.256 0 0 1 22.777-7.139c3.325.412 6.7.906 10.04 1.465 58.706 9.878 110.17 41.505 144.92 89.061 34.911 47.776 48.789 105.88 39.076 163.6s-41.839 108.07-90.461 141.8a223.74 223.74 0 0 1-128.1 39.923h-.022c-6.638 0-13.336-.295-19.909-.875a231.429 231.429 0 0 1-18.054-2.324 219.99 219.99 0 0 1-144.02-90.222 231.59 231.59 0 0 1-17.667-29.286c-29.742-58.734-31.2-127.37-4.206-198.49 9.253-24.393 20.637-47.989 31.436-69.617l169.16-309.07 4-4.834.163-.323q-19.791-10.564-40.612-19.373a497.55 497.55 0 0 0-545.48 810.29q2.55 2.55 5.134 5.054l270.99-502.41h-289.89l50.885 85.7a26.221 26.221 0 0 1 3.168 20.311 28.074 28.074 0 0 1-26.983 21.028 26.367 26.367 0 0 1-22.562-12.358l-75.619-127.28a26.276 26.276 0 0 1-3.968-14.206l.024-1.1a26.888 26.888 0 0 1 26.627-26.04h383.98c6.928 0 15.264 2.456 19.5 5.8l.41.3a30.418 30.418 0 0 1 9.1 39.083l-293.18 543.76a30.389 30.389 0 0 1-5.773 7.563 497.56 497.56 0 0 0 651.8-748.85A500.3 500.3 0 0 0 788.24 95.23z" style="fill:#585048" transform="translate(-.276 -.268) scale(.04821)"/><path d="M7.283 41.21a24.171 24.171 0 0 0 2.247 1.94l.008-.008a24.16 24.16 0 0 1-2.252-1.936z" class="system76_svg__cls-2"/><path d="M23.95 16.562a1.466 1.466 0 0 0-.439-1.885l-.02-.014c-.204-.161-.605-.28-.94-.28H4.04a1.296 1.296 0 0 0-1.284 1.256l-.001.053a1.267 1.267 0 0 0 .191.685l3.646 6.135a1.271 1.271 0 0 0 1.088.596 1.353 1.353 0 0 0 1.3-1.014 1.264 1.264 0 0 0-.152-.979l-2.453-4.131H20.35L7.286 41.204a24.16 24.16 0 0 0 2.252 1.936 1.465 1.465 0 0 0 .278-.365zm12.967-.682c-.16-.027-.324-.051-.484-.071a1.41 1.41 0 0 0-1.098.344 1.381 1.381 0 0 0-.465 1.007 1.398 1.398 0 0 0 1.228 1.436c.12.015.238.032.354.052a8.029 8.029 0 0 1 5.167 3.161c1.246 1.693 1.744 3.747 1.4 5.785a7.584 7.584 0 0 1-2.961 4.824 7.962 7.962 0 0 1-4.81 1.595 8.154 8.154 0 0 1-1.363-.115 7.829 7.829 0 0 1-5.1-3.186 7.55 7.55 0 0 1-1.315-3.25c-.348-2.305.344-5.235 1.85-7.838l.659-1.19c1.793-3.243 7.21-13.036 7.676-13.903l.065-.197a23.805 23.805 0 0 0-2.434-1.488l-.193.233-8.155 14.9c-.521 1.043-1.07 2.18-1.516 3.357-1.301 3.429-1.231 6.738.203 9.57a11.165 11.165 0 0 0 .852 1.41 10.606 10.606 0 0 0 6.943 4.35 11.157 11.157 0 0 0 1.83.155h.001a10.787 10.787 0 0 0 6.176-1.925c2.344-1.626 3.893-4.053 4.36-6.836s-.2-5.584-1.883-7.887c-1.675-2.293-4.156-3.818-6.987-4.294z" class="system76_svg__cls-2"/><path d="M865.75 845.7H560.01a30.872 30.872 0 0 0-30.872 30.872v.624a30.872 30.872 0 0 0 30.872 30.872h234.56a500.84 500.84 0 0 0 61.308-52.2q5.021-5.022 9.877-10.168z" style="fill:#faa41a" transform="translate(-.276 -.268) scale(.04821)"/></g></svg>