<svg xmlns="http://www.w3.org/2000/svg" viewBox="0 0 48 48"><path fill="#a295ae" d="m41.001 7.035-2.11 14.86-14.862 2.112 2.112-14.86z" opacity=".8"/><path fill="#5d6f6d" d="m7.043 40.974 2.11-14.86 14.862-2.112-2.111 14.86z" opacity=".8"/><path fill="#8cd592" d="m7.043 7.055 14.86 2.11 2.112 14.862-14.86-2.112z" opacity=".8"/><path fill="#665e74" d="m40.983 40.976-14.86-2.111-2.112-14.861 14.861 2.111z" opacity=".8"/><path fill="#3c3647" d="m24.025 47.999-9.016-12.002 9.016-12 9.015 12z" opacity=".8"/><path fill="#837193" d="M47.995 23.974 35.994 32.99l-12.001-9.015 12.001-9.016z" opacity=".8"/><path fill="#a2f4ac" d="m24.003 0 9.016 12.002-9.016 12-9.015-12z" opacity=".8"/><path fill="#7ea685" d="M.004 24.016 12.005 15l12.001 9.016-12 9.015z" opacity=".8"/><path fill="#3c3647" d="M24 18.293 29.706 24 24 29.706 18.293 24z"/></svg>
