<svg xmlns="http://www.w3.org/2000/svg" viewBox="0 0 48 48"><g transform="matrix(.1 0 0 .1 -1.6 -1.6)"><circle cx="256" cy="256" r="240" fill="#272727"/><g fill="#161616" stroke-width="1.019"><path d="m157.82 429.46 237.71 237.71L680.1 499.1 379.69 198.69z" clip-path="url(#tandoor_svg__a)"/><path d="m206.86 176.92 282.59 282.59 106.08-93.029-298.69-298.69-2.8 68.749z" clip-path="url(#tandoor_svg__b)"/><path d="M227.84 170.91 510.43 453.5l2.751-62.765-298.69-298.69-3.172 72.084z" clip-path="url(#tandoor_svg__c)"/></g><path fill="#ffcb76" d="M256.05 222.25c28.287-.006 53.069-11.897 68.755-24.249 15.902-12.544 38.917-10.058 51.772 5.593 21.111 25.571 33.738 57.98 33.738 93.216 0 57.703-35.619 128.97-85.157 153.92-21.308 10.73-43.404 15.825-69.062 15.837h-.092c-25.658-.012-47.754-5.108-69.062-15.837-49.538-24.942-85.157-96.212-85.157-153.92 0-35.237 12.627-67.645 33.738-93.216 12.855-15.65 35.87-18.137 51.772-5.593 15.686 12.353 40.468 24.244 68.755 24.249z"/><path fill="#ff6f00" d="M233.74 41.248a5.56 5.56 0 0 1 6.377-8.564c11.756 4.333 27.12 11.016 39.045 20.01 24.815 18.714 31.601 31.232 37.141 44.124 6.559 15.261 7.53 31.025 6.132 42.05-3.999 31.56-29.641 57.64-66.152 57.64s-65.574-25.83-66.152-57.64c-.349-19.157 6.42-34.462 13.808-45.387a7.168 7.168 0 0 1 13.065 4.752c-1.06 6.897-1.756 14.09-1.405 19.837 1.188 19.446 13.688 24.447 26.559 24.328 13.718-.12 27.599-10.867 22.597-38.303-4.375-23.992-19.963-48.138-31.013-62.847z"/><path fill="#ffd100" d="M224.37 33.765c21.493 6.736 47.195 27.069 59.096 57.433 19.757 50.408-4.27 70.127-27.561 73.341-37.334 5.152-56.274-25.936-39.402-70.948 10.462-27.912-11.698-65.959 7.867-59.827z" clip-path="url(#tandoor_svg__d)"/><path fill="#161616" d="M228.94 411.61c-5.33 0-10.066-1.78-13.739-4.755a6.629 6.629 0 0 1 4.176-11.775c13.457-.07 36.623-.073 36.623-.073s23.165.004 36.622.073a6.628 6.628 0 0 1 4.176 11.775c-3.673 2.975-8.407 4.755-13.738 4.755zm-10.621-28.739a11.07 11.07 0 0 1-11.07-11.09l.021-12.502c0-3.99-2.66-7.489-6.505-8.555-13.395-3.755-23.198-15.748-23.198-29.945 0-17.21 14.404-31.181 32.146-31.181a16.092 16.092 0 0 0 15.175-10.737c3.127-8.91 12.014-18.967 31.003-18.983h.216c18.989.016 27.876 10.074 31.003 18.983a16.094 16.094 0 0 0 15.175 10.737c17.742 0 32.146 13.972 32.146 31.18 0 14.197-9.802 26.19-23.197 29.946a8.88 8.88 0 0 0-6.507 8.554l.01 12.513a11.069 11.069 0 0 1-11.07 11.08h-75.35z"/></g><defs><clipPath id="tandoor_svg__a"><circle cx="256" cy="256" r="240" stroke-width=".941"/></clipPath><clipPath id="tandoor_svg__d"><path stroke-width=".591" d="M233.74 41.248a5.56 5.56 0 0 1 6.377-8.564c11.756 4.333 27.12 11.016 39.045 20.01 24.815 18.714 31.601 31.232 37.141 44.124 6.559 15.261 7.53 31.025 6.132 42.05-3.999 31.56-29.641 57.64-66.152 57.64s-65.574-25.83-66.152-57.64c-.349-19.157 6.42-34.462 13.808-45.387a7.168 7.168 0 0 1 13.065 4.752c-1.06 6.897-1.756 14.09-1.405 19.837 1.188 19.446 13.688 24.447 26.559 24.328 13.718-.12 27.599-10.867 22.597-38.303-4.375-23.992-19.963-48.138-31.013-62.847z"/></clipPath><clipPath id="tandoor_svg__b"><circle cx="256" cy="256" r="240" stroke-width=".941"/></clipPath><clipPath id="tandoor_svg__c"><circle cx="256" cy="256" r="240" stroke-width=".941"/></clipPath></defs></svg>