<svg xmlns="http://www.w3.org/2000/svg" viewBox="0 0 48 48"><path fill="#fff" d="M42.427 37.022a5.49 5.49 0 0 0-4.952 3.118L29.615 39a5.488 5.488 0 0 0-8.41-4.594L10.036 21.75a5.488 5.488 0 1 0-1.884 1.654l11.289 12.792a5.488 5.488 0 1 0 9.624 5.257l7.875 1.142a5.487 5.487 0 0 0 10.975-.085 5.488 5.488 0 0 0-5.488-5.488z"/><path fill="#e5a00d" d="M42.427 0a5.488 5.488 0 0 0-3.925 9.323L26.34 26.51a5.489 5.489 0 0 0-7.474 6.577l-9.242 5.721A5.489 5.489 0 1 0 10.848 41l9.26-5.732a5.489 5.489 0 0 0 8.236-7.248L40.62 10.67A5.488 5.488 0 1 0 42.427 0z"/></svg>