
<svg xmlns="http://www.w3.org/2000/svg" version="1.1" xmlns:xlink="http://www.w3.org/1999/xlink" preserveAspectRatio="none" x="0px" y="0px" width="501px" height="501px" viewBox="0 0 501 501">
<defs>
<g id="Layer0_0_FILL">
<path fill="#6699FF" stroke="none" d="
M 500.5 500.5
L 500.5 0.5 0.5 0.5 0.5 500.5 500.5 500.5
M 417 21.95
L 477.45 21.95 477.45 385.35 417.35 385.35 417.35 175.7 210.15 175.7 210.15 114.9 417 114.9 417 21.95
M 385.4 21.95
L 385.4 82.05 175.75 82.05 175.75 289.25 114.95 289.25 114.95 82.4 22.05 82.4 22.05 21.95 385.4 21.95
M 23.55 114.2
L 83.65 114.2 83.65 323.85 290.85 323.85 290.85 384.65 84 384.65 84 477.55 23.55 477.55 23.55 114.2
M 114.1 477.55
L 114.1 417.5 323.7 417.5 323.7 210.3 384.5 210.3 384.5 417.15 477.45 417.15 477.45 477.55 114.1 477.55 Z"/>

<path fill="#FFFFFF" stroke="none" d="
M 114.1 417.5
L 114.1 477.55 477.45 477.55 477.45 417.15 384.5 417.15 384.5 210.3 323.7 210.3 323.7 417.5 114.1 417.5
M 83.65 114.2
L 23.55 114.2 23.55 477.55 84 477.55 84 384.65 290.85 384.65 290.85 323.85 83.65 323.85 83.65 114.2
M 385.4 82.05
L 385.4 21.95 22.05 21.95 22.05 82.4 114.95 82.4 114.95 289.25 175.75 289.25 175.75 82.05 385.4 82.05
M 477.45 21.95
L 417 21.95 417 114.9 210.15 114.9 210.15 175.7 417.35 175.7 417.35 385.35 477.45 385.35 477.45 21.95 Z"/>
</g>

<path id="Layer0_0_1_STROKES" stroke="#6699FF" stroke-width="1" stroke-linejoin="round" stroke-linecap="round" fill="none" d="
M 477.45 21.95
L 477.45 385.35 417.35 385.35 417.35 175.7 210.15 175.7 210.15 114.9 417 114.9 417 21.95 477.45 21.95 Z
M 22.05 21.95
L 385.4 21.95 385.4 82.05 175.75 82.05 175.75 289.25 114.95 289.25 114.95 82.4 22.05 82.4 22.05 21.95 Z
M 23.55 477.55
L 23.55 114.2 83.65 114.2 83.65 323.85 290.85 323.85 290.85 384.65 84 384.65 84 477.55 23.55 477.55 Z
M 477.45 477.55
L 114.1 477.55 114.1 417.5 323.7 417.5 323.7 210.3 384.5 210.3 384.5 417.15 477.45 417.15 477.45 477.55 Z
M 0.5 0.5
L 500.5 0.5 500.5 500.5 0.5 500.5 0.5 0.5 Z"/>
</defs>

<g transform="matrix( 1, 0, 0, 1, 0,0) ">
<use xlink:href="#Layer0_0_FILL"/>

<use xlink:href="#Layer0_0_1_STROKES"/>
</g>
</svg>
