<svg xmlns="http://www.w3.org/2000/svg" viewBox="0 0 48 48"><path fill="#15223c" d="m45.923 29.613-8.962 10.06 7.842-14.896c.232-.442.371-.928.407-1.426l1.242 3.691c.296.89.094 1.87-.53 2.572zm-13.55 15.185a2.652 2.652 0 0 1-2.47.836l-12.465-2.437 16.095-.813c.439-.026.87-.13 1.273-.306zm-24.43-4.81L3.738 27.492l8.948 14.105c.19.301.424.57.695.8l-3.442-.669a2.645 2.645 0 0 1-1.994-1.74zM2.067 18.39l8.966-10.033L3.19 23.25a3.614 3.614 0 0 0-.402 1.425l-1.243-3.69a2.625 2.625 0 0 1 .53-2.594zM15.624 3.21a2.627 2.627 0 0 1 2.467-.827L30.56 4.811l-16.094.813c-.44.026-.87.13-1.273.307zm24.177 12.863 3.674 5.843c.418.66.451 1.494.087 2.186l-3.726 7.077V16.636a3.433 3.433 0 0 0-.035-.564zM8.215 31.93l-3.691-5.822a2.187 2.187 0 0 1-.087-2.186l3.726-7.081v14.525c0 .189.017.378.052.564zm30.213-.547a1.749 1.749 0 0 1-.875 1.487l-12.692 7.34a1.75 1.75 0 0 1-1.723 0l-12.71-7.36a1.751 1.751 0 0 1-.874-1.488V16.637a1.75 1.75 0 0 1 .875-1.487l12.71-7.356a1.719 1.719 0 0 1 1.722 0l12.71 7.356c.533.307.865.872.874 1.487zm-4.3-24.211 4.405 6.932a2.588 2.588 0 0 0-.258-.17l-12.71-7.357a1.83 1.83 0 0 0-.179-.096l6.775-.346a2.187 2.187 0 0 1 1.955 1.02zm-19.592-.127 7.798-.394-12.609 7.282a.246.246 0 0 0-.057.035l3.018-5.764a2.217 2.217 0 0 1 1.85-1.159zm-.67 33.803L9.463 33.9c.084.062.172.12.263.171l12.71 7.356c.057.037.117.069.179.097l-6.775.345a2.186 2.186 0 0 1-1.972-1.019zm19.598.127-7.798.394 12.608-7.3.057-.035-3.035 5.764a2.187 2.187 0 0 1-1.832 1.177zm6.59-32.96 4.208 12.496-8.944-14.11a3.5 3.5 0 0 0-.695-.8l3.429.67c.932.18 1.697.846 2.003 1.745zm7.733 18.554L41.389 7.57a4.05 4.05 0 0 0-3.062-2.676L18.37.998a4.06 4.06 0 0 0-3.787 1.277L1.025 17.455a4.05 4.05 0 0 0-.814 3.98l6.399 19a4.046 4.046 0 0 0 3.062 2.677l19.97 3.897a4.055 4.055 0 0 0 3.788-1.277L46.987 30.55a4.054 4.054 0 0 0 .8-3.98"/></svg>