<svg xmlns="http://www.w3.org/2000/svg" viewBox="0 0 48 48" fill-rule="evenodd" stroke-miterlimit="10" clip-rule="evenodd"><g fill-rule="nonzero"><path fill="#363636" d="M25.468.393 43.71 10.926a2.938 2.938 0 0 1 1.467 2.541v21.066a2.938 2.938 0 0 1-1.467 2.541L25.468 47.608a2.937 2.937 0 0 1-2.935 0L4.289 37.074a2.938 2.938 0 0 1-1.467-2.54V13.466a2.938 2.938 0 0 1 1.467-2.541L22.533.393a2.937 2.937 0 0 1 2.934 0z"/><path fill="#fff" stroke="#fff" stroke-width=".5489388" d="m26.742 10.287-8.228 14.81h4.937l-2.194 12.616 8.228-14.81H24z"/></g></svg>
