<svg xmlns="http://www.w3.org/2000/svg" viewBox="0 0 48 48"><path fill="#ff004f" d="M34.241 17.326a18.852 18.852 0 0 0 10.997 3.517v-7.886c-.776 0-1.55-.081-2.31-.242v6.208c-4.1 0-7.896-1.303-10.996-3.517v16.095c0 8.051-6.53 14.578-14.585 14.578a14.52 14.52 0 0 1-8.12-2.466 14.545 14.545 0 0 0 10.428 4.386c8.056 0 14.586-6.527 14.586-14.578V17.326zM37.09 9.37a10.99 10.99 0 0 1-2.849-6.436V1.92h-2.188c.55 3.14 2.43 5.823 5.037 7.45zM14.32 37.435a6.67 6.67 0 0 1 7.335-10.393v-8.063a14.718 14.718 0 0 0-2.309-.133v6.276a6.682 6.682 0 0 0-2.024-.313 6.67 6.67 0 0 0-3.002 12.626z"/><path d="M31.932 15.406a18.855 18.855 0 0 0 10.996 3.517v-6.208A11.04 11.04 0 0 1 37.09 9.37a11.042 11.042 0 0 1-5.037-7.45h-5.749v31.5a6.671 6.671 0 0 1-11.983 4.015 6.668 6.668 0 0 1 3.002-12.625c.706 0 1.386.11 2.025.312v-6.276C11.434 19.01 5.07 25.472 5.07 33.42c0 3.968 1.585 7.565 4.157 10.193a14.522 14.522 0 0 0 8.12 2.466c8.055 0 14.585-6.527 14.585-14.578V15.407z"/><path fill="#00f2ea" d="M42.929 12.715v-1.678a10.999 10.999 0 0 1-5.838-1.667 11.03 11.03 0 0 0 5.838 3.345zM32.053 1.92c-.052-.3-.093-.602-.12-.906V0h-7.938v31.501a6.67 6.67 0 0 1-6.671 6.646 6.647 6.647 0 0 1-3.002-.712 6.664 6.664 0 0 0 5.311 2.632 6.67 6.67 0 0 0 6.672-6.646V1.92zM19.35 18.846v-1.787a14.732 14.732 0 0 0-2.001-.136c-8.056 0-14.586 6.527-14.586 14.577 0 5.048 2.566 9.496 6.466 12.113A14.524 14.524 0 0 1 5.071 33.42c0-7.948 6.364-14.41 14.278-14.574z"/></svg>