<svg xmlns="http://www.w3.org/2000/svg" viewBox="0 0 48 48"><g transform="matrix(1.5 0 0 1.5 -.75 -12)"><path fill="#00263d" d="M32.5 33V15a4 4 0 0 0-4-4h-24a4 4 0 0 0-4 4v18a4 4 0 0 0 4 4h24a4 4 0 0 0 4-4z"/><path fill="#fff" d="m5.252 25.546.654-.316a2 2 0 0 1 1.812.039l2.446 1.309a.5.5 0 0 0 .438.016l3.093-1.368a.25.25 0 0 0 .088-.39l-4.586-5.351a.5.5 0 0 1 .22-.8l.401-.134a3 3 0 0 1 2.714.412l5.702 4.12a.25.25 0 0 0 .247.026l3.426-1.516a4 4 0 0 1 3.062-.073l1.071.415a.75.75 0 0 1 .033 1.385l-13.82 6.113-2.13.942a1 1 0 0 1-1.104-.2l-3.9-3.821a.5.5 0 0 1 .133-.808z"/><rect width="8" height="3" x="19.5" y="29" fill="#3df91e" rx=".5"/></g></svg>