<svg xmlns="http://www.w3.org/2000/svg" viewBox="0 0 48 48"><g transform="translate(-4.484 1.846) scale(.79123)"><circle cx="13.988" cy="50.013" r="8.32" fill="#ffa000"/><path fill="#ff8f00" d="M45.88 58.333H34.094A28.425 28.426 0 0 0 5.669 29.907V18.121a40.212 40.212 0 0 1 40.212 40.212z"/><g fill="#ff6f00" stroke-width="2.013"><path d="M54.199 58.333A48.531 48.532 0 0 0 5.668 9.8V-2.333a60.664 60.666 0 0 1 60.664 60.666z"/><path d="M54.199 58.333A48.531 48.532 0 0 0 5.668 9.8V-2.333a60.664 60.666 0 0 1 60.664 60.666z"/></g></g><path fill="#fff" stroke="#2b4265" stroke-width="2.374" d="M36.134 19.97h-8.815l-3.024 11.919q-.074.404-.184.871l-.222.934q-.073.467-.147.902-.074.405-.074.685 0 1.245.738 1.836.737.591 2.434.591.442 0 1.106-.093.701-.093 1.402-.249.737-.155 1.401-.311.664-.187 1.07-.311l-1.807 7.282q-.664.218-1.623.436t-2.102.404q-1.144.187-2.398.312-1.217.124-2.397.124-2.803 0-4.684-.622-1.88-.592-3.024-1.65-1.106-1.089-1.586-2.52-.442-1.432-.442-3.113 0-.498.073-1.151.074-.654.185-1.338l.295-1.37q.184-.715.332-1.307l3.024-12.261H9.838l2.065-7.252h5.57L19.39 5.25l12.28-2.553-2.47 10.021h8.962l-2.029 7.251z"/></svg>