<svg xmlns="http://www.w3.org/2000/svg" xmlns:xlink="http://www.w3.org/1999/xlink" viewBox="0 0 48 48"><defs><linearGradient id="torbrowser_svg__a" x1="198.27" x2="198.27" y1="346.53" y2="20.551" gradientTransform="scale(.70864 1.4111)" gradientUnits="userSpaceOnUse"><stop offset="0" stop-color="#420C5D"/><stop offset="1" stop-color="#951AD1"/></linearGradient><linearGradient xlink:href="#torbrowser_svg__a" id="torbrowser_svg__b" x1="256" x2="256" y1="512" gradientUnits="userSpaceOnUse"/><filter id="torbrowser_svg__d" width="1.242" height="1.104" x="-.139" y="-.052"><feOffset dx="-8" in="SourceAlpha" result="shadowOffsetOuter1"/><feGaussianBlur in="shadowOffsetOuter1" result="shadowBlurOuter1" stdDeviation="10"/><feColorMatrix in="shadowBlurOuter1" values="0 0 0 0 0.250980392 0 0 0 0 0.250980392 0 0 0 0 0.250980392 0 0 0 0.2 0"/></filter><path id="torbrowser_svg__c" d="M25 29c127.58 0 231 102.97 231 230S152.58 489 25 489z"/></defs><g fill="none" fill-rule="evenodd" transform="translate(.047) scale(.09357)"><circle cx="256" cy="256" r="246" fill="#f2e4ff" fill-rule="nonzero"/><path fill="url(#torbrowser_svg__b)" d="M256.53 465.44v-31.033c98.301-.284 177.9-80.042 177.9-178.41 0-98.365-79.595-178.12-177.9-178.41V46.554c115.44.291 208.92 93.937 208.92 209.44 0 115.51-93.482 209.16-208.92 209.45zm0-108.62c55.445-.291 100.32-45.304 100.32-100.83 0-55.516-44.878-100.53-100.32-100.82v-31.026c72.59.284 131.36 59.192 131.36 131.85 0 72.661-58.766 131.57-131.36 131.85zm0-155.1c29.742.284 53.777 24.462 53.777 54.274 0 29.82-24.036 53.997-53.777 54.281zM0 255.994c0 141.39 114.61 256.01 256 256.01 141.38 0 256-114.62 256-256.01C512 114.614 397.38.004 256 .004 114.61.004 0 114.614 0 255.994z"/><g transform="matrix(-1 0 0 1 281 0)"><use xlink:href="#torbrowser_svg__c" fill="#000" filter="url(#torbrowser_svg__d)"/><use xlink:href="#torbrowser_svg__c" fill="url(#torbrowser_svg__a)"/></g></g></svg>