<svg xmlns="http://www.w3.org/2000/svg" viewBox="0 0 48 48"><path fill="#68b044" d="m27.06 11.665-.766 3.06c1.084-2.167 2.837-3.793 4.845-5.227-1.466 1.69-2.805 3.378-3.602 5.1 1.37-1.945 3.22-2.996 5.291-3.73-2.773 2.455-4.972 5.132-6.63 7.777l-1.338-.573c.223-2.136 1.02-4.303 2.2-6.407z"/><path fill="#f5f8de" d="m23.522 17.498 2.517 1.052c0 .637-.063 2.613.351 3.187 4.207 5.418 3.506 16.318-.86 16.573-6.63 0-9.18-4.494-9.18-8.637 0-3.793 4.526-6.279 7.235-8.51.733-.605.606-1.944-.063-3.665z"/><path fill="#7e4798" d="m26.04 18.518.924.478c-.096.605.032 1.944.637 2.263 2.677 1.657 5.163 3.442 6.151 5.259 3.506 6.342-2.454 12.238-7.649 11.665 2.805-2.072 3.634-6.343 2.582-11.028-.415-1.817-1.084-3.474-2.263-5.354-.51-.861-.319-2.008-.383-3.283z"/><path fill="#010101" d="M25.02 21.546c-.192.988-.415 2.772-1.275 3.442-.351.255-.733.51-1.116.765-1.562 1.051-3.091 2.04-3.793 4.557-.159.542-.032 1.116.096 1.658.382 1.561 1.466 3.219 2.327 4.207 0 .032.159.16.159.191.701.829.924 1.084 3.602 1.69l-.064.286c-1.626-.414-2.932-.829-3.793-1.785 0-.032-.16-.159-.16-.159-.892-1.02-2.007-2.741-2.39-4.366-.16-.638-.287-1.148-.095-1.817.733-2.614 2.326-3.665 3.92-4.75.35-.222.797-.445 1.147-.732.733-.478 1.084-1.976 1.435-3.187z"/><path fill="#010101" d="M25.72 25.689c.033 1.115-.095 1.69.192 2.486.16.478.765 1.116.924 1.753.223.829.478 1.753.478 2.327 0 .637-.032 1.848-.318 3.123-.224 1.052-.702 1.976-1.53 2.486-.86-.16-1.849-.478-2.423-.988-1.147-.988-2.135-2.645-2.262-4.08-.096-1.179.988-2.932 2.517-3.792 1.275-.765 1.594-1.594 1.88-2.996-.382 1.21-.764 2.199-2.007 2.868-1.817.956-2.741 2.518-2.645 4.048.127 1.944.892 3.25 2.422 4.303.637.446 1.848.924 2.613 1.051v-.095c.574-.096 1.307-1.052 1.69-2.295.318-1.147.446-2.582.414-3.506-.032-.542-.255-1.69-.701-2.74-.223-.575-.606-1.148-.829-1.563-.287-.478-.287-1.37-.414-2.39z"/><path fill="#010101" d="M25.53 30.055c.031.765.318 1.722.446 2.71.095.733.063 1.466.032 2.103-.032.733-.255 2.072-.606 2.741-.319-.16-.446-.319-.67-.574a4.93 4.93 0 0 1-.605-1.147c-.127-.319-.287-.701-.35-1.116a3.623 3.623 0 0 1 .669-2.677c.574-.828.701-.892.892-1.816-.255.828-.446.924-1.052 1.625-.669.765-.764 1.912-.764 2.837 0 .382.159.828.318 1.21.16.415.319.861.542 1.18.35.51.797.829 1.02.86v-.031c.414-.478.67-.925.765-1.403.096-.573.127-1.115.191-1.785.064-.573.032-1.306-.127-2.071-.192-.956-.542-1.944-.702-2.646z"/><path fill="#010101" d="M25.657 20.653c.032 1.116.096 3.187.414 4.016.096.287.893 1.498 1.435 2.996.382 1.02.478 1.976.541 2.263.255 1.211-.063 3.283-.478 5.227-.223 1.052-.956 2.358-1.785 2.868l-.159.287c.478-.032 1.626-1.147 2.04-2.581.701-2.39.956-3.506.637-6.184a7.598 7.598 0 0 0-.573-2.071c-.606-1.434-1.466-2.805-1.562-3.092-.223-.446-.478-2.422-.51-3.729z"/><path fill="#010101" d="M26.04 18.613c-.064 1.148-.064 2.04.127 2.9.223.925 1.434 2.264 1.944 3.794.956 2.932.701 6.756.032 9.72-.255 1.052-1.466 2.582-2.71 3.06l.893.223c.478-.032 1.753-1.21 2.263-2.55.797-2.135.956-4.653.638-7.33-.032-.255-.447-2.55-.86-3.506-.575-1.434-1.499-2.454-1.818-3.347-.255-.669-.35-2.454-.19-2.804z"/><path fill="#7e4798" d="M1.211 12.303h17.243c.637 0 1.211.542 1.211 1.21v5.1c0 .67-.574 1.212-1.211 1.212h-3.538c-.797 0-1.147.446-1.147.956V37.45a.973.973 0 0 1-.988.988H6.916c-.542 0-.956-.415-.956-.988V20.62c0-.51-.478-.828-.829-.828h-3.92A1.21 1.21 0 0 1 0 18.582v-5.1c0-.637.542-1.18 1.211-1.18zM45.45 19.06h1.53c.573 0 1.02.446 1.02.988v5.45c0 .7.031.988-.83.988-1.689 0-2.454.892-2.454 1.88v9.211c0 .415-.414.797-.892.797h-5.482c-.478 0-.892-.35-.892-.797V27.091c0-.19 0-.446.031-.605.287-3.889 3.347-6.98 7.204-7.395.095 0 .541-.031.764-.031z"/><path fill="#010101" d="M32.414 24.255c-.924-.829-2.072-1.53-3.283-2.2-.542-.286-2.2-1.593-1.625-3.442l-4.176-1.72-.287.222c1.403 2.518.67 3.857-.031 4.303-1.403.956-3.443 2.167-4.43 3.22-1.945 2.007-2.519 3.92-2.327 6.405.191 3.22 2.518 5.897 5.673 6.949 1.37.446 2.645.51 4.048.51 2.263 0 4.621-.606 6.31-2.008 1.817-1.498 2.869-3.761 2.869-6.088s-.988-4.558-2.741-6.151zm-.606 11.76c-1.561 1.275-4.366 2.168-5.864 2.104-1.658-.096-3.283-.35-4.717-1.052-2.518-1.21-4.175-3.856-4.303-5.992-.223-4.366 1.88-5.61 3.825-7.203 1.083-.892 2.613-1.338 3.474-2.932.16-.35.255-1.115.063-1.912-.095-.287-.478-1.243-.637-1.466l3.123 1.37c-.382 1.434.797 2.932 1.753 3.474s2.455 1.562 3.379 2.39c1.625 1.435 2.454 3.475 2.454 5.61s-.892 4.239-2.55 5.61z"/></svg>