<svg xmlns="http://www.w3.org/2000/svg" width="48" height="48"><path fill="#c9781f" d="M9.375 18.863s3.45-3 13.659-3c9.366 0 11.998 2.123 14.671 3l-13.947 6.806z" style="stroke:none;stroke-width:6.13291"/><path fill="#f6d2a2" d="M7.918 27.889c.064 1.3 1.365.699 1.954.292.56-.386.723-.065.773-.827.032-.5.09-1.002.061-1.504-.846-.077-1.766.124-2.46.627-.357.26-1.027 1.087-.328 1.412" style="stroke:none;stroke-width:6.13291"/><path fill="#c6b198" d="M7.918 27.889c.19-.07.39-.12.52-.291" style="stroke:none;stroke-width:6.13291"/><path fill="#37abc8" d="M10.926 12.391c-4.987-1.4-1.279-7.735 2.726-5.13Zm22.156-5.605c3.947-2.769 7.514 3.478 2.926 5.05z" style="stroke:none;stroke-width:6.13291"/><path fill="#f6d2a2" d="M33.93 43.9c1.003.619 2.836 2.492 1.332 3.4-1.445 1.322-2.254-1.45-3.522-1.834.546-.74 1.238-1.416 2.19-1.567z" style="stroke:none;stroke-width:6.13291"/><path d="M35.262 47.3c-.223-.442-.298-.96-.67-1.316" style="fill:none;fill-rule:evenodd;stroke:none;stroke-width:1"/><path fill="#f6d2a2" d="M16.019 46.016c-1.177.182-1.84 1.242-2.82 1.78-.925.551-1.278-.175-1.362-.323-.145-.066-.133.062-.356-.163-.857-1.351.893-2.338 1.804-3.01 1.27-.256 2.065.843 2.734 1.716z" style="stroke:none;stroke-width:6.13291"/><path d="M11.837 47.473c.045-.515.454-.86.649-1.295" style="fill:none;fill-rule:evenodd;stroke:none;stroke-width:1"/><path fill="#077e91" d="M11.134 10.642c-.658-.348-1.14-.82-.738-1.58.372-.703 1.065-.627 1.722-.28Zm23.836-.661c.657-.348 1.14-.82.737-1.58-.372-.703-1.064-.627-1.722-.28Z" style="stroke:none;stroke-width:6.13291"/><path fill="#f6d2a2" d="M39.498 27.724c-.063 1.3-1.365.699-1.954.292-.56-.386-.723-.065-.772-.827-.032-.5-.09-1.002-.062-1.505.846-.076 1.767.125 2.46.628.357.26 1.027 1.087.328 1.412" style="stroke:none;stroke-width:6.13291"/><path fill="#c6b198" d="M39.498 27.724c-.19-.07-.39-.12-.519-.292" style="stroke:none;stroke-width:6.13291"/><g style="stroke:none;stroke-width:37.6126"><path fill="#37abc8" d="M80.585.326c30.618 0 59.32 4.373 74.282 33.749 13.43 32.927 8.654 68.434 10.702 103.233 1.76 29.881 5.66 64.402-8.222 92.093-14.602 29.132-51.09 36.46-81.154 35.387-23.613-.844-52.138-8.537-65.464-30.082-15.636-25.276-8.233-62.859-7.098-90.983 1.345-33.315-9.036-66.731 1.923-99.331C16.924 10.576 47.585 2.933 80.584.326" style="stroke-width:6.13291" transform="translate(10.069 4.102) scale(.16305)"/></g><path fill="#fff" d="M24.09 10.848c.896 5.203 9.413 3.827 8.19-1.42-1.097-4.707-8.488-3.404-8.19 1.42m-10.178.842c1.162 4.53 8.424 3.37 8.15-1.175-.327-5.442-9.26-4.392-8.15 1.174m11.831 5.224c.004.696.165 1.375.026 2.156-.173.326-.512.36-.805.493a1.184 1.184 0 0 1-.906-.707c-.104-.821.038-1.616.065-2.438z" style="stroke:none;stroke-width:6.13291"/><g style="fill:none;stroke:none;stroke-width:37.6126" transform="translate(14.628 9.547) scale(.16305)"><ellipse cx="7.895" cy="8.606" fill="#000" rx="7.521" ry="8.136" style="stroke-width:230.675"/><ellipse cx="11.316" cy="10.441" fill="#fff" rx="1.773" ry="2.068" style="stroke-width:230.675"/></g><g style="fill:none;stroke:none;stroke-width:37.6126" transform="translate(24.908 9.28) scale(.16305)"><ellipse cx="7.866" cy="8.222" fill="#000" rx="7.396" ry="8.136" style="stroke-width:230.675"/><ellipse cx="11.231" cy="10.058" fill="#fff" rx="1.744" ry="2.068" style="stroke-width:230.675"/></g><path fill="#fff" d="M22.238 17.018c-.535 1.295.299 3.885 1.75 1.975-.103-.822.04-1.617.066-2.439z" style="stroke:none;stroke-width:6.13291"/><g style="stroke:none;stroke-width:37.6126"><path fill="#f6d2a2" d="M9.422.957c-6.117.52-11.117 7.783-7.936 13.529 4.211 7.61 13.611-.674 19.466.103 6.739.138 12.26 7.115 17.672 1.261C44.643 9.34 36.032 2.998 29.302.163Z" style="stroke-width:6.13291" transform="translate(20.617 14.368) scale(.16305)"/></g><path fill="#ef9325" d="M9.375 18.863s.315 3.415.294 4.888c-.022 1.472 1.39.542 1.464 2.858.073 2.315-.856 1.876-1.345 3.01-.49 1.133-.822 6.44-.822 6.44s.502.992 2.07 1.885c1.57.893 4.092 1.394 6.276 1.295 2.184-.099 3.744-.566 4.134-.824.39-.259 1.038-1.076 1.281-1.708.244-.632.752-5.839.717-8.818-.036-2.98-.528-5.728-.528-5.728z" style="fill-rule:nonzero;stroke:none;stroke-width:37.6126"/><path fill="#e5e5e5" d="M23.21 33.369c-6.432.717-13.895-1.265-13.895-1.265s.11-2.01.592-2.718c6.69 2.07 13.439 1.413 13.439 1.413.1.939.03 1.685-.136 2.57zm-.81 3.962c-6.432.717-13.434-1.344-13.434-1.344s-.023-1.932.233-2.78c6.69 2.07 13.835 1.554 13.835 1.554-.06 1.02-.204 2.022-.634 2.57z" style="fill-rule:nonzero;stroke:none;stroke-width:37.6126"/><path fill="#ef9325" d="M37.705 18.863s-.043 3.415-.022 4.888c.022 1.472-.856.542-.93 2.858-.074 2.315.866 1.876 1.362 3.01.496 1.133.832 6.44.832 6.44s-.508.992-2.097 1.885c-1.588.893-4.142 1.394-6.354 1.295-2.211-.099-3.79-.566-4.186-.824-.395-.259-1.05-1.076-1.297-1.708-.246-.632-.762-5.839-.726-8.818.036-2.98.535-5.728.535-5.728z" style="fill-rule:nonzero;stroke:none;stroke-width:37.6126"/><path fill="#e5e5e5" d="M24.524 33.369c6.513.717 14.07-1.265 14.07-1.265s-.111-2.01-.6-2.718c-6.774 2.07-13.607 1.413-13.607 1.413-.101.939-.03 1.685.137 2.57zm.82 3.962c6.513.717 13.603-1.344 13.603-1.344s.023-1.932-.236-2.78c-6.773 2.07-14.008 1.554-14.008 1.554.06 1.02.206 2.022.64 2.57z" style="fill-rule:nonzero;stroke:none;stroke-width:37.6126"/><path fill="#d2e261" d="M40.303 25.128c-.202.38-.603.565-.894.41l-.234-.123c-.292-.154-.365-.589-.162-.97l4.558-8.591c.202-.382.603-.566.894-.411l.234.123c.292.155.364.59.162.97z" style="fill-rule:nonzero;stroke:none;stroke-width:37.6126"/><path d="M38.15 29.185c-.117.222-.45.277-.74.122l-.235-.123c-.291-.155-.432-.46-.315-.682l2.14-4.03c.118-.223.45-.278.742-.123l.233.123c.292.155.433.46.315.682z" style="fill-rule:nonzero;stroke:none;stroke-width:37.6126"/><path fill="#9b9b9b" d="m40.052 24.325-.234-.123c-.291-.155-.59-.163-.666-.019l-.137.258c.076-.144.375-.136.667.018l.233.124c.292.154.467.396.39.54l.137-.257c.077-.144-.098-.386-.39-.54z" style="fill-rule:nonzero;stroke:none;stroke-width:37.6126"/><ellipse cx="45.03" cy="11.684" fill="#f6d2a2" rx="1.003" ry=".775" style="stroke:none;stroke-width:6.13291" transform="rotate(20.414)"/><path fill="#d2e261" d="M7.278 25.266c.184.39.576.593.875.452l.239-.113c.298-.14.39-.572.206-.962l-4.158-8.79c-.185-.39-.577-.593-.875-.452l-.24.113c-.298.14-.39.571-.206.961z" style="fill-rule:nonzero;stroke:none;stroke-width:37.6126"/><path d="M9.242 29.418c.107.227.436.297.735.156l.24-.112c.298-.141.453-.44.345-.667L8.611 24.67c-.108-.227-.437-.297-.735-.156l-.24.113c-.298.14-.453.439-.345.666z" style="fill-rule:nonzero;stroke:none;stroke-width:37.6126"/><path fill="#9b9b9b" d="m7.565 24.476.24-.112c.298-.141.597-.136.666.011l.125.264c-.07-.147-.368-.153-.667-.012l-.239.113c-.298.14-.484.375-.414.522l-.125-.264c-.07-.147.116-.38.414-.522z" style="fill-rule:nonzero;stroke:none;stroke-width:37.6126"/><ellipse cx=".354" cy="-28.43" fill="#f6d2a2" rx="1.003" ry=".775" style="stroke:none;stroke-width:6.13291" transform="rotate(159.586)"/><g style="fill:none;fill-rule:nonzero;stroke:none;stroke-width:6.13291"><path fill="#960000" d="M24.195 62.268c-1.216 2.209-4.084 2.965-6.407 1.689l-2.672-1.467c-2.323-1.275-3.22-4.1-2.004-6.308L40.915 5.686C42.131 3.478 45 2.722 47.323 3.998l2.671 1.467c2.323 1.275 2.922 3.662 2.004 6.307-9.739 28.064-27.803 50.496-27.803 50.496Z" style="stroke-width:37.6126" transform="translate(7.566 4.19) scale(.16305)"/><path fill="#595959" d="M31.55 33.426C40.005 18.07 45.56 4.863 44.236 3.365l.032-.056c-.036-.02-.075-.033-.111-.053-.004-.003-.006-.012-.01-.014l-.004.007C31.15-3.78 13.67 3.182 5.034 18.865-3.6 34.55-.124 53.02 12.78 60.21l-.004.008c.005.003.013-.001.018.001.036.02.067.046.103.065l.032-.056c1.974.314 10.166-11.446 18.62-26.801z" style="stroke-width:37.6126" transform="translate(7.566 4.19) scale(.16305)"/></g><g style="fill:none;fill-rule:nonzero;stroke:none;stroke-width:6.13291"><path fill="#960000" d="M26.696 62.374c1.15 2.242 3.997 3.081 6.355 1.873l2.713-1.39c2.359-1.208 3.337-4.005 2.186-6.247L11.617 5.334C10.466 3.092 7.62 2.253 5.261 3.46L2.55 4.851C.19 6.059-.478 8.428.363 11.098 9.288 39.43 26.696 62.374 26.696 62.374Z" style="stroke-width:37.6126" transform="translate(31.076 4.19) scale(.16305)"/><path fill="#595959" d="M20.177 33.331C12.17 17.74 6.998 4.377 8.365 2.918l-.03-.058c.037-.018.076-.03.112-.05.005-.002.006-.01.011-.013l.004.008c13.19-6.653 30.462.81 38.64 16.736 8.18 15.927 4.17 34.289-8.936 41.104l.004.008c-.005.002-.013-.002-.018 0-.037.02-.068.044-.105.063l-.03-.058c-1.983.257-9.832-11.734-17.84-27.327Z" style="stroke-width:37.6126" transform="translate(31.076 4.19) scale(.16305)"/></g><path fill="#353535" d="M38.617 8.553s-1.586-3.967-3.426-6.065c-1.84-2.098-19.84-2.813-22.795 0C9.44 5.3 8.326 8.553 8.326 8.553v-.878s1.367-3.863 4.07-6.066c2.703-2.203 20.466-2.087 22.758 0 2.291 2.087 3.463 6.066 3.463 6.066z" style="fill-rule:nonzero;stroke:none;stroke-width:37.6126"/><ellipse cx="-30.915" cy="-24.295" fill="#960000" rx=".621" ry="1.515" style="fill-rule:nonzero;stroke:none;stroke-width:37.6126" transform="rotate(152.85)"/><ellipse cx="11.058" cy="2.374" fill="#960000" rx=".621" ry="1.515" style="fill-rule:nonzero;stroke:none;stroke-width:37.6126" transform="rotate(28.803)"/><path d="M31.835 7.716H15.046c-3.014 0-3.004 8-.174 8.46l5.852-.375c.708 0 2.12-2.737 2.386-2.952.265-.215 1.138-.241 1.481 0 .344.242 1.126 2.676 1.834 2.676l5.852.652c2.733-1.256 2.044-8.46-.442-8.46z" opacity=".6" style="fill:#fff;fill-rule:nonzero;stroke:none;stroke-width:37.6126"/><path d="M19.504 9.37c-1.85-.04-4.743-.024-6.323-.011-.265.867-.56 1.966-.414 3.032 1.435 0 4.556.007 6.774.007 1.337 0 2.46.252 3.505.525a.468.468 0 0 1 .064-.07c.265-.216 1.138-.242 1.481 0 .09.062.208.272.347.548a8.33 8.33 0 0 0 1.623.197c1.512.02 5.055.013 7.336.007.29-.97.076-2.009.01-2.985-2.226 0-5.764-.05-7.46-.05-2.39 0-4.477-1.145-6.943-1.2z" opacity=".5" style="fill:#fff;fill-rule:nonzero;stroke:none;stroke-width:37.6126"/><path d="M22.028 14.472c-.074-1.725 3.22-1.941 3.61-.497.387 1.441-3.448 1.776-3.61.497-.13-1.02 0 0 0 0z" style="stroke:none;stroke-width:6.13291"/></svg>