<svg xmlns="http://www.w3.org/2000/svg" viewBox="0 0 48 48"><g fill="none" fill-rule="evenodd" stroke-width="6.133" style="stroke-width:6.13291" transform="translate(2.884 -.14) scale(.16305)"><path fill="#c9781f" fill-rule="nonzero" d="M39.804 116.54s21.155-18.392 83.77-18.392c57.44 0 73.583 13.013 89.978 18.392l-85.535 41.74z" style="stroke-width:37.6126"/><g style="stroke-width:6.13291"><path fill="#f6d2a2" fill-rule="nonzero" d="M2.163 145.886c.388 7.978 8.369 4.287 11.984 1.793 3.431-2.368 4.435-.4 4.736-5.073.197-3.072.552-6.143.377-9.227-5.189-.47-10.833.764-15.087 3.85-2.19 1.59-6.3 6.665-2.01 8.657" style="stroke-width:37.6126" transform="translate(28.71 26.01)"/><path fill="#c6b198" fill-rule="nonzero" d="M2.163 145.886c1.162-.431 2.393-.738 3.181-1.787" style="stroke-width:37.6126" transform="translate(28.71 26.01)"/><path fill="#37abc8" fill-rule="nonzero" d="M20.607 50.842c-30.583-8.59-7.842-47.444 16.717-31.462Zm135.881-34.378c24.207-16.98 46.083 21.33 17.95 30.97z" style="stroke-width:37.6126" transform="translate(28.71 26.01)"/><path fill="#f6d2a2" fill-rule="nonzero" d="M161.695 244.076c6.15 3.8 17.388 15.288 8.164 20.86-8.863 8.103-13.824-8.896-21.603-11.252 3.35-4.543 7.597-8.686 13.439-9.608z" style="stroke-width:37.6126" transform="translate(28.71 26.01)"/><path d="M169.859 264.935c-1.367-2.716-1.827-5.885-4.11-8.074" style="stroke-width:6.13291" transform="translate(28.71 26.01)"/><path fill="#f6d2a2" fill-rule="nonzero" d="M51.842 257.06c-7.217 1.115-11.28 7.618-17.296 10.92-5.669 3.376-7.838-1.081-8.349-1.986-.889-.405-.814.377-2.186-1.003-5.256-8.283 5.477-14.338 11.065-18.453 7.784-1.572 12.662 5.167 16.766 10.522z" style="stroke-width:37.6126" transform="translate(28.71 26.01)"/><path d="M26.198 265.993c.274-3.156 2.781-5.27 3.975-7.94" style="stroke-width:6.13291" transform="translate(28.71 26.01)"/><path fill="#077e91" fill-rule="nonzero" d="M21.884 40.11c-4.035-2.131-6.995-5.026-4.527-9.687 2.285-4.314 6.53-3.846 10.565-1.715zm146.179-4.052c4.035-2.131 6.995-5.026 4.527-9.687-2.285-4.315-6.53-3.846-10.566-1.715z" style="stroke-width:37.6126" transform="translate(28.71 26.01)"/><path fill="#f6d2a2" fill-rule="nonzero" d="M195.837 144.873c-.387 7.978-8.368 4.287-11.983 1.792-3.432-2.368-4.435-.4-4.736-5.072-.197-3.072-.552-6.143-.377-9.227 5.188-.47 10.833.764 15.086 3.85 2.191 1.59 6.3 6.666 2.01 8.657" style="stroke-width:37.6126" transform="translate(28.71 26.01)"/><path fill="#c6b198" fill-rule="nonzero" d="M195.837 144.873c-1.161-.432-2.392-.738-3.18-1.787" style="stroke-width:37.6126" transform="translate(28.71 26.01)"/><g style="stroke-width:37.6126"><path fill="#37abc8" fill-rule="nonzero" d="M80.585.326c30.618 0 59.32 4.373 74.282 33.749 13.43 32.927 8.654 68.434 10.702 103.233 1.76 29.881 5.66 64.402-8.222 92.093-14.602 29.132-51.09 36.46-81.154 35.387-23.613-.844-52.138-8.537-65.464-30.082-15.636-25.276-8.233-62.859-7.098-90.983 1.345-33.315-9.036-66.731 1.923-99.331C16.924 10.576 47.585 2.933 80.584.326" style="stroke-width:6.13291" transform="translate(44.06 26.01)"/></g><path fill="#fff" fill-rule="nonzero" d="M101.34 41.373c5.498 31.913 57.733 23.475 50.23-8.71-6.727-28.863-52.056-20.874-50.23 8.71m-62.42 5.161c7.126 27.783 51.667 20.67 49.988-7.199-2.011-33.378-56.8-26.937-49.987 7.2m72.56 32.038c.024 4.265 1.01 8.433.158 13.22-1.06 2.002-3.14 2.214-4.934 3.023a7.261 7.261 0 0 1-5.561-4.332c-.637-5.038.237-9.916.398-14.956z" style="stroke-width:37.6126" transform="translate(28.71 26.01)"/><g fill-rule="nonzero" style="stroke-width:37.6126" transform="translate(72.02 59.408)"><ellipse cx="7.895" cy="8.606" fill="#000" rx="7.521" ry="8.136" style="stroke-width:230.675"/><ellipse cx="11.316" cy="10.441" fill="#fff" rx="1.773" ry="2.068" style="stroke-width:230.675"/></g><g fill-rule="nonzero" style="stroke-width:37.6126" transform="translate(135.068 57.766)"><ellipse cx="7.866" cy="8.222" fill="#000" rx="7.396" ry="8.136" style="stroke-width:230.675"/><ellipse cx="11.231" cy="10.058" fill="#fff" rx="1.744" ry="2.068" style="stroke-width:230.675"/></g><path fill="#fff" fill-rule="nonzero" d="M89.987 79.215c-3.282 7.943 1.83 23.825 10.734 12.11-.637-5.038.237-9.915.398-14.955z" style="stroke-width:37.6126" transform="translate(28.71 26.01)"/><g style="stroke-width:37.6126"><path fill="#f6d2a2" fill-rule="nonzero" d="M9.422.957c-6.117.52-11.117 7.783-7.936 13.529 4.211 7.61 13.611-.674 19.466.103 6.739.138 12.26 7.115 17.672 1.261C44.643 9.34 36.032 2.998 29.302.163Z" style="stroke-width:6.13291" transform="translate(108.753 88.974)"/></g></g><g fill-rule="nonzero" style="stroke-width:37.6126"><path fill="#ef9325" d="M2.87.191S4.808 21.14 4.675 30.17c-.132 9.03 8.53 3.328 8.98 17.529.45 14.2-5.247 11.507-8.249 18.458-3.002 6.95-5.042 39.5-5.042 39.5s3.08 6.08 12.701 11.557c9.62 5.476 25.09 8.552 38.485 7.946 13.396-.606 22.964-3.472 25.356-5.057 2.392-1.584 6.362-6.597 7.856-10.474 1.493-3.877 4.613-35.808 4.396-54.08-.218-18.271-3.241-35.13-3.241-35.13z" style="stroke-width:230.675" transform="translate(36.933 116.349)"/><path fill="#e5e5e5" d="M87.722 89.156c-39.447 4.397-85.218-7.76-85.218-7.76s.673-12.33 3.633-16.67c41.027 12.695 82.417 8.67 82.417 8.67.614 5.756.181 10.332-.832 15.76zm-4.965 24.302C43.31 117.855.363 105.21.363 105.21s-.137-11.843 1.43-17.044c41.026 12.694 84.847 9.53 84.847 9.53-.369 6.25-1.249 12.4-3.883 15.762z" style="stroke-width:230.675" transform="translate(36.933 116.349)"/></g><g fill-rule="nonzero" style="stroke-width:37.6126"><path fill="#ef9325" d="M82.322.191s-.268 20.948-.134 29.978c.135 9.03-5.25 3.328-5.706 17.529-.456 14.2 5.313 11.507 8.353 18.458 3.04 6.95 5.105 39.5 5.105 39.5s-3.119 6.08-12.86 11.557c-9.741 5.476-25.406 8.552-38.969 7.946-13.563-.606-23.251-3.472-25.674-5.057-2.423-1.585-6.443-6.597-7.955-10.474C2.97 105.751-.189 73.82.032 55.548c.22-18.271 3.28-35.13 3.28-35.13Z" style="stroke-width:230.675" transform="translate(131.23 116.349)"/><path fill="#e5e5e5" d="M1.484 89.156c39.942 4.397 86.288-7.76 86.288-7.76s-.68-12.33-3.678-16.67C42.552 77.422.642 73.397.642 73.397c-.622 5.756-.184 10.332.842 15.76Zm5.026 24.302c39.944 4.397 83.43-8.248 83.43-8.248s.139-11.843-1.448-17.044C46.95 100.86 2.58 97.696 2.58 97.696c.374 6.25 1.265 12.4 3.932 15.762z" style="stroke-width:230.675" transform="translate(131.23 116.349)"/></g><g fill-rule="nonzero" style="stroke-width:37.6126"><path fill="#d2e261" d="M21.503 59.965c-1.242 2.34-3.698 3.468-5.488 2.52l-1.433-.757c-1.79-.947-2.235-3.611-.994-5.95L41.54 3.09C42.78.75 45.238-.378 47.028.569l1.433.758c1.79.947 2.235 3.61.994 5.95z" style="stroke-width:230.675" transform="translate(207.984 94.996)"/><path fill="#000" d="M8.302 84.847c-.723 1.363-2.76 1.7-4.55.753l-1.433-.758C.53 83.895-.336 82.022.388 80.66l13.114-24.719c.723-1.363 2.76-1.7 4.549-.753l1.433.758c1.79.947 2.655 2.82 1.932 4.182z" style="stroke-width:230.675" transform="translate(207.984 94.996)"/><path fill="#9b9b9b" d="m19.962 55.046-1.434-.758c-1.79-.947-3.62-.999-4.089-.115l-.838 1.58c.469-.884 2.3-.833 4.09.115l1.433.758c1.79.947 2.86 2.43 2.392 3.314l.838-1.58c.469-.883-.603-2.367-2.392-3.314z" style="stroke-width:230.675" transform="translate(207.984 94.996)"/></g><ellipse cx="216.137" cy="164.336" fill="#f6d2a2" fill-rule="nonzero" rx="6.153" ry="4.754" style="stroke-width:37.6126" transform="rotate(20.414 216.137 164.336)"/><g fill-rule="nonzero" style="stroke-width:37.6126"><path fill="#d2e261" d="M26.194 60.815c1.133 2.394 3.535 3.634 5.366 2.77l1.467-.692c1.83-.864 2.398-3.504 1.265-5.898L8.79 3.082C7.657.688 5.255-.552 3.424.312l-1.467.692C.127 1.868-.44 4.51.691 6.902Z" style="stroke-width:230.675" transform="translate(.75 94.996)"/><path fill="#000" d="M38.239 86.276c.66 1.395 2.678 1.825 4.51.961l1.467-.692c1.83-.864 2.78-2.695 2.12-4.089L34.372 57.162c-.66-1.395-2.678-1.824-4.51-.96l-1.466.691c-1.832.864-2.782 2.695-2.122 4.09z" style="stroke-width:230.675" transform="translate(.75 94.996)"/><path fill="#9b9b9b" d="m27.96 55.972 1.466-.692c1.83-.864 3.662-.831 4.09.072l.764 1.618c-.427-.904-2.258-.936-4.09-.073l-1.466.692c-1.831.864-2.97 2.297-2.542 3.201l-.764-1.617c-.428-.903.71-2.337 2.541-3.2z" style="stroke-width:230.675" transform="translate(.75 94.996)"/></g><ellipse cx="41.089" cy="165.024" fill="#f6d2a2" fill-rule="nonzero" rx="6.153" ry="4.754" style="stroke-width:37.6126" transform="rotate(159.586 41.09 165.024)"/><g fill-rule="nonzero" style="stroke-width:37.6126" transform="translate(26.517 .826)"><g style="stroke-width:6.13291"><path fill="#960000" d="M24.195 62.268c-1.216 2.209-4.084 2.965-6.407 1.689l-2.672-1.467c-2.323-1.275-3.22-4.1-2.004-6.308L40.915 5.686C42.131 3.478 45 2.722 47.323 3.998l2.671 1.467c2.323 1.275 2.922 3.662 2.004 6.307-9.739 28.064-27.803 50.496-27.803 50.496Z" style="stroke-width:37.6126" transform="translate(2.193 25.733)"/><path fill="#595959" d="M31.55 33.426C40.005 18.07 45.56 4.863 44.236 3.365l.032-.056c-.036-.02-.075-.033-.111-.053-.004-.003-.006-.012-.01-.014l-.004.007C31.15-3.78 13.67 3.182 5.034 18.865-3.6 34.55-.124 53.02 12.78 60.21l-.004.008c.005.003.013-.001.018.001.036.02.067.046.103.065l.032-.056c1.974.314 10.166-11.446 18.62-26.801z" style="stroke-width:37.6126" transform="translate(2.193 25.733)"/></g><g style="stroke-width:6.13291"><path fill="#960000" d="M26.696 62.374c1.15 2.242 3.997 3.081 6.355 1.873l2.713-1.39c2.359-1.208 3.337-4.005 2.186-6.247L11.617 5.334C10.466 3.092 7.62 2.253 5.261 3.46L2.55 4.851C.19 6.059-.478 8.428.363 11.098 9.288 39.43 26.696 62.374 26.696 62.374Z" style="stroke-width:37.6126" transform="translate(146.38 25.733)"/><path fill="#595959" d="M20.177 33.331C12.17 17.74 6.998 4.377 8.365 2.918l-.03-.058c.037-.018.076-.03.112-.05.005-.002.006-.01.011-.013l.004.008c13.19-6.653 30.462.81 38.64 16.736 8.18 15.927 4.17 34.289-8.936 41.104l.004.008c-.005.002-.013-.002-.018 0-.037.02-.068.044-.105.063l-.03-.058c-1.983.257-9.832-11.734-17.84-27.327Z" style="stroke-width:37.6126" transform="translate(146.38 25.733)"/></g><path fill="#353535" d="M192.63 52.488s-9.729-24.334-21.012-37.2c-11.283-12.865-121.675-17.252-139.803 0-18.128 17.253-24.963 37.2-24.963 37.2v-5.39s8.385-23.688 24.963-37.2c16.578-13.51 125.518-12.799 139.572 0 14.055 12.8 21.243 37.2 21.243 37.2z" style="stroke-width:230.675"/><ellipse cx="192.49" cy="46.096" fill="#960000" rx="3.81" ry="9.294" style="stroke-width:230.675" transform="rotate(152.85 192.49 46.096)"/><ellipse cx="8.209" cy="45.461" fill="#960000" rx="3.81" ry="9.294" style="stroke-width:230.675" transform="rotate(28.803 8.21 45.461)"/></g><g fill="#fff" fill-rule="nonzero" style="stroke-width:37.6126"><path d="M117.592.27H14.627C-3.86.27-3.796 49.328 13.561 52.156l35.89-2.305c4.34 0 13.005-16.784 14.63-18.103 1.626-1.32 6.979-1.48 9.087 0 2.109 1.48 6.904 16.411 11.243 16.411l35.891 3.996C137.067 44.452 132.841.27 117.592.27Z" opacity=".6" style="stroke-width:230.675" transform="translate(59.96 47.91)"/><path d="M41.965 10.413c-11.34-.253-29.084-.15-38.776-.071C1.564 15.662-.248 22.4.65 28.942c8.803 0 27.939.042 41.547.042 8.194 0 15.083 1.544 21.49 3.217.158-.202.29-.35.394-.434 1.626-1.32 6.979-1.48 9.087 0 .546.383 1.274 1.674 2.124 3.367 3.272.688 6.548 1.164 9.952 1.207 9.274.117 31.007.08 44.992.04 1.782-5.944.468-12.316.069-18.304-13.655 0-35.355-.307-45.758-.307-14.659 0-27.458-7.02-42.582-7.357z" opacity=".5" style="stroke-width:230.675" transform="translate(59.96 47.91)"/></g><path fill="#000" fill-rule="nonzero" d="M117.405 89.612c-.453-10.582 19.75-11.904 22.135-3.047 2.38 8.837-21.14 10.89-22.135 3.047-.794-6.261 0 0 0 0z" style="stroke-width:37.6126"/></g></svg>