<svg xmlns="http://www.w3.org/2000/svg" viewBox="0 0 48 48"><g style="fill:none;fill-rule:evenodd;stroke-width:1.15628"><g style="stroke-width:1.15628"><path fill="#24a1c1" fill-rule="nonzero" d="M27.75 0c2.517 0 4.754 1.777 4.754 3.965 0 2.189-2.13 3.966-4.754 3.966-.3 0-.692-.05-1.176-.148a1.584 1.584 0 0 0-1.099.176L8.43 17.66a.795.795 0 0 0 .004 1.381l18.478 10.381c.48.27 1.065.271 1.546.004l18.579-10.335a.793.793 0 0 0 .006-1.383l-5.797-3.293a1.58 1.58 0 0 0-1.55-.007l-6.12 3.396a.54.54 0 0 0-.275.414l-.003.059c0 2.188-2.13 3.965-4.755 3.965-2.624 0-4.754-1.777-4.754-3.965 0-2.189 2.13-3.966 4.754-3.966.098 0 .21.006.336.016l.2.02.223.028c.338.046.683-.019.982-.185l9.05-5.023a2.379 2.379 0 0 1 2.231-.04l.095.052 12.637 7.18c1.585.9 1.603 3.163.067 4.098l-.085.05-8.454 4.702a.793.793 0 0 0 .016 1.395l8.373 4.408c1.662.874 1.702 3.242.07 4.172L28.856 49.688a2.38 2.38 0 0 1-2.356 0L1.215 35.244c-1.634-.933-1.589-3.306.079-4.176l8.464-4.42a.793.793 0 0 0 .022-1.394l-8.566-4.812c-1.585-.89-1.62-3.146-.096-4.093l.084-.05L22.241 4.326a1.59 1.59 0 0 0 .712-.853l.027-.084C23.718 1.188 25.399 0 27.75 0Zm11.74 29.21L29.1 35.188l-.095.052a2.365 2.365 0 0 1-2.248-.042l-10.356-5.843a1.578 1.578 0 0 0-1.506-.023l-5.97 3.124a.794.794 0 0 0-.026 1.392L27.138 44.29c.485.278 1.08.279 1.566 0l18.397-10.517a.794.794 0 0 0-.024-1.392l-6.065-3.2a1.58 1.58 0 0 0-1.523.028z" style="stroke-width:1.33699" transform="translate(0 2.379) scale(.86484)"/></g></g></svg>