<svg xmlns="http://www.w3.org/2000/svg" viewBox="0 0 48 48"><path fill="#ed2224" d="M9.779 37.06c3.514 3.846 8.586 6.233 14.22 6.233 2.885 0 5.603-.63 8.056-1.757l-13.392-13.36z"/><path fill="#ed2224" d="M18.597 20.088 8.453 30.198l-1.36-1.358 23.14-23.138A19.345 19.345 0 0 0 24 4.674C13.326 4.674 4.674 13.326 4.674 24c0 4.342 1.425 8.353 3.878 11.602l10.11-10.11.697.663L33.845 40.64c.298-.166.564-.332.829-.53L18.663 24.098 8.95 33.812l-1.359-1.36 11.072-11.07.696.662 16.906 16.873c.265-.199.497-.431.73-.63L18.761 20.055z"/><path fill="#ed1c24" d="M38.353 36.928A19.247 19.247 0 0 0 43.326 24c0-7.757-4.575-14.42-11.138-17.503L20.022 18.63zM24.696 22.144l-1.36-1.36 9.581-9.58 1.36 1.36zm9.083-13.16L22.74 20.021l-1.359-1.36L32.42 7.625z"/><path fill="#ed2224" d="M24 48C10.773 48 0 37.226 0 24S10.773 0 24 0s24 10.773 24 24-10.774 24-24 24zm0-45.58C12.1 2.42 2.42 12.1 2.42 24S12.1 45.58 24 45.58 45.58 35.9 45.58 24 35.9 2.42 24 2.42z"/></svg>