<svg xmlns="http://www.w3.org/2000/svg" viewBox="0 0 48 48"><defs><linearGradient id="transmission_svg__h" x1="23.739" x2="23.739" y1="4.157" y2="19.466" gradientTransform="translate(-.962 -3.236) scale(1.0422)" gradientUnits="userSpaceOnUse"><stop offset="0" stop-color="#babdb6"/><stop offset=".133" stop-color="#eeeeec"/><stop offset="1" stop-color="#babdb6"/></linearGradient><linearGradient id="transmission_svg__i" x1="23.732" x2="23.688" y1="30.057" y2="22.633" gradientTransform="translate(-.962 -3.236) scale(1.0422)" gradientUnits="userSpaceOnUse"><stop offset="0" stop-color="#2e3436"/><stop offset="1" stop-color="#2e3436" stop-opacity="0"/></linearGradient><linearGradient id="transmission_svg__c" x1="23.938" x2="23.938" y1="30.617" y2="36.358" gradientTransform="translate(-.962 -3.236) scale(1.0422)" gradientUnits="userSpaceOnUse"><stop offset="0" stop-color="#555753"/><stop offset="1" stop-color="#2e3436"/></linearGradient><linearGradient id="transmission_svg__d" x1="14.813" x2="14.813" y1="5.624" y2="9" gradientTransform="translate(-.962 -3.236) scale(1.0422)" gradientUnits="userSpaceOnUse"><stop offset="0" stop-color="#c00"/><stop offset=".365" stop-color="#ef0000"/><stop offset="1" stop-color="#a00"/></linearGradient><linearGradient id="transmission_svg__e" x1="24.041" x2="24.041" y1="5.069" y2="10.009" gradientTransform="translate(-.962 -3.236) scale(1.0422)" gradientUnits="userSpaceOnUse"><stop offset="0" stop-color="#fff"/><stop offset="1" stop-color="#fff" stop-opacity="0"/></linearGradient><linearGradient id="transmission_svg__b" x1="13.625" x2="14.125" y1="33.125" y2="24" gradientTransform="translate(-.962 -3.236) scale(1.0422)" gradientUnits="userSpaceOnUse"><stop offset="0" stop-color="#f0f2ef"/><stop offset="1" stop-color="#cdd1c8"/></linearGradient><linearGradient id="transmission_svg__a" x1="10.188" x2="10.188" y1="20.25" y2="42.5" gradientTransform="translate(-.962 -3.236) scale(1.0422)" gradientUnits="userSpaceOnUse"><stop offset="0" stop-color="#787b76"/><stop offset=".871" stop-color="#babcb9"/><stop offset="1" stop-color="#787b76"/></linearGradient><linearGradient id="transmission_svg__f" x1="24.719" x2="23.937" y1="35.959" y2="17.071" gradientTransform="translate(-.962 -3.236) scale(1.0422)" gradientUnits="userSpaceOnUse"><stop offset="0" stop-color="#f9f9f9"/><stop offset="1" stop-color="#eeeeec" stop-opacity=".62"/></linearGradient><linearGradient id="transmission_svg__g" x1="18.313" x2="18.313" y1="20.744" y2="21.814" gradientTransform="translate(-.962 -3.236) scale(1.0422)" gradientUnits="userSpaceOnUse"><stop offset="0"/><stop offset="1" stop-opacity="0"/></linearGradient></defs><g transform="translate(-1.283 .001) scale(1.047)"><g fill-rule="evenodd" stroke-width="1.042"><path fill="url(#transmission_svg__a)" stroke="#555753" d="M9.46 14.059c-1.23-.047-2.46 1.02-2.573 2.312C5.962 23.967 4.59 31.58 3.891 39.17v3.192c.035 1.647 1.116 2.754 2.313 2.964H42.29c1.02-.026 2.153-.733 2.117-2.084v-4.105L41.15 17.023c-.264-1.357-1.423-2.798-3.029-2.964z" transform="scale(.99996)"/><path fill="url(#transmission_svg__b)" stroke="#555753" d="M10.088 38.063c-1.178-.128-2.01-.9-1.98-2.318l1.98-16.669c.304-1.114 1.027-2.004 2.167-2.001h22.85c1.133-.033 2.265.75 2.562 1.685l2.517 16.815c.059 1.531-.57 2.418-1.631 2.383z" transform="scale(.99996)"/><path fill="url(#transmission_svg__c)" stroke="url(#transmission_svg__linearGradient5849)" d="m20.372 18.066-2.15 12.538h-3.094l8.37 5.375 9.349-5.374H29.75l-1.953-12.54z" transform="scale(.99996)"/></g><g stroke-width="1.042"><rect width="32.427" height="6.317" x="7.881" y="1.469" fill="url(#transmission_svg__d)" stroke="#930000" stroke-linecap="round" stroke-linejoin="round" rx="5.228" ry="2.069"/><rect width="30.308" height="4.106" x="8.939" y="2.568" fill="none" stroke="url(#transmission_svg__e)" stroke-linecap="round" stroke-linejoin="round" opacity=".583" rx="1.911" ry="1.332"/><path fill="none" stroke="url(#transmission_svg__f)" d="M10.079 15.077c-1.166-.044-2.332.954-2.439 2.163l-2.9 20.923c.01.13.03.268.061.396v2.984c.033 1.54 1.058 2.545 2.192 2.74h34.235c.967-.022 2.01-.654 1.976-1.917v-3.838c.007-.03.025-.063.031-.091l-.031-.214v-.212h-.031l-3.025-20.193c-.25-1.269-1.35-2.586-2.87-2.74z" opacity=".245"/></g><path fill="url(#transmission_svg__g)" fill-rule="evenodd" d="m9.68 27.985 1.915-8.292 25.044.06 1.854 9.366-1.226-9.457c-.23-1.045-.783-2.054-1.796-2.028l-22.844-.045c-1.492-.046-1.785.92-2.124 2.073z" opacity=".208"/><rect width="7.396" height="27.066" x="20.386" y=".52" fill="url(#transmission_svg__h)" stroke="#888a85" stroke-linecap="round" stroke-linejoin="round" stroke-width="1.042" rx="1.121" ry="1.121"/><rect width="8.476" height="8.383" x="19.857" y="19.707" fill="url(#transmission_svg__i)" rx="1.121" ry="1.121"/><g fill="none" stroke-linecap="round" stroke-width="1.042" transform="scale(.99996)"><path stroke="#fff" d="M10.944 40.003h29.298" opacity=".435"/><rect width="5.37" height="24.948" x="21.371" y="1.592" stroke="#fff" stroke-linejoin="round" opacity=".227" rx="1.121" ry="1.121"/><path stroke="#888a85" d="M20.34 28.553h7.36" opacity=".62"/><path stroke="#888a85" d="M19.842 30.637h8.355" opacity=".422"/><path stroke="#5d5d5c" d="M20.168 29.595h7.769" opacity=".62"/><path stroke="#5d5d5c" d="M19.748 31.668h8.62" opacity=".422"/><path stroke="#fff" d="M14.027 29.609h3.27m13.472-.066h3.27"/></g><ellipse cx="8.958" cy="40.014" fill="#fff" opacity=".335" rx=".524" ry=".538"/></g></svg>