<svg xmlns="http://www.w3.org/2000/svg" viewBox="0 0 48 48"><path fill="#aeadae" d="m28.23 16.757-4.233 2.445-4.248-2.452 4.238-2.445z"/><path fill="#0095d5" d="M34.481 13.146 30.236 15.6l-5.246-3.03V7.666z"/><path fill="#31beec" d="M22.985 7.665v4.904l-5.242 3.023-4.246-2.451z"/><path fill="#0095d5" d="M10.492 33.056.002 27 0 22.099l4.73 2.732.039.022 5.72 3.303Z"/><path fill="#aeadae" d="m15.74 23.975-4.24 2.448-4.247-2.452 4.241-2.447z"/><path fill="#31beec" d="m10.484 19.792-5.237 3.021L1 20.362l9.481-5.471z"/><path fill="#0095d5" d="m21.986 20.367-4.238 2.447-5.246-3.03v-4.892l4.715 2.722.038.022z"/><path fill="#31beec" d="M35.493 29.373v4.902l-.949.548L25 40.334v-4.9l5.301-3.061 2.004-1.158z"/><path fill="#aeadae" d="m28.24 31.247-4.243 2.45-4.248-2.451 4.248-2.451z"/><path fill="#31beec" d="M22.994 22.156v4.903l-.957.552-4.294 2.477-.047-.027-4.199-2.425 6.298-3.634 3.19-1.84z"/><path fill="#0095d5" d="M22.994 35.434v4.9l-9.54-5.509-.957-.552-.002-4.9.008.005 3.188 1.84 1.534.886.04.023.432.25z"/><path fill="#31beec" d="M47.999 22.1v4.902L37.505 33.06v-4.899z"/><path fill="#aeadae" d="m40.747 23.974-4.244 2.451-4.247-2.453 4.247-2.45z"/><path fill="#0095d5" d="m46.998 20.363-4.245 2.453-5.246-3.03v-4.902z"/><path fill="#31beec" d="M35.5 14.882v4.903l-5.25 3.03-4.246-2.452z"/><path fill="#0095d5" d="m34.49 27.636-4.19 2.422L25.003 27l-.002-4.842 3.186 1.839 2.005 1.158z"/></svg>