<svg xmlns="http://www.w3.org/2000/svg" viewBox="0 0 48 48"><path d="m40.356 42.855 33.855-19.556v15.813L40.356 58.667z" data-name="logoMark &lt;PathItem&gt;" style="fill:#31beec" transform="translate(0 5.027) scale(.6468)"/><path d="M33.878 42.855v15.813L0 39.111V23.299l15.309 8.831a.25.25 0 0 0 .055.034z" data-name="logoMark &lt;PathItem&gt;" style="fill:#0095d5" transform="translate(0 5.027) scale(.6468)"/><path d="m37.117 21.427 13.694 7.912-13.694 7.912-13.706-7.912z" data-name="logoMark &lt;PathItem&gt;" style="fill:#aeadae" transform="translate(0 5.027) scale(.6468)"/><path d="m40.356 0 30.628 17.696-13.706 7.912-16.922-9.784z" data-name="logoMark &lt;PathItem&gt;" style="fill:#0095d5" transform="translate(0 5.027) scale(.6468)"/><path d="M3.228 17.696 33.878 0v15.824l-16.945 9.772z" data-name="logoMark &lt;PathItem&gt;" style="fill:#31beec" transform="translate(0 5.027) scale(.6468)"/></svg>