<svg xmlns="http://www.w3.org/2000/svg" viewBox="0 0 48 48"><defs><clipPath id="tubearchivist-white_svg__clippath"><path d="M25.6 22.9h948.9v954.2H25.6z" class="tubearchivist-white_svg__st2"/></clipPath><clipPath id="tubearchivist-white_svg__clippath-1"><path d="M25.6 22.9h948.9v954.2H25.6z" class="tubearchivist-white_svg__st2"/></clipPath><clipPath id="tubearchivist-white_svg__clippath-2"><path d="M25.6 22.9h948.9v954.2H25.6z" class="tubearchivist-white_svg__st2"/></clipPath><clipPath id="tubearchivist-white_svg__clippath-3"><path d="M25.6 22.9h948.9v954.2H25.6z" class="tubearchivist-white_svg__st2"/></clipPath><style>.tubearchivist-white_svg__st0{fill:#fff}.tubearchivist-white_svg__st1{fill:#039a86}.tubearchivist-white_svg__st2{fill:none}.tubearchivist-white_svg__st4{fill:#06131a}</style></defs><g style="clip-path:url(#tubearchivist-white_svg__clippath-2)" transform="translate(-1.155 -1.152)scale(.0503)"><g style="clip-path:url(#tubearchivist-white_svg__clippath-3)"><path d="M447.2 22.9v15.2c-177.9 21.2-328.4 141.3-388.6 310l76 21.8c49.9-135.2 169.9-232.2 312.6-252.7v15.4h35.3V22.9zM523 34.5v79.1c142.3 7.7 269.2 91.9 331.7 219.9l-14.8 4.2 9.7 33.7 106.6-30.3-9.7-33.9-14.9 4.3c-73.1-161.9-231-269-408.5-277m434.5 348.4-75.8 21.7c8.9 32.9 13.6 66.8 13.8 100.8-.2 103.8-41.6 203.3-114.9 276.8l-9.4-12.6-28.6 20.8 11.9 16 46.5 64 6.6 9.1 28.6-20.8-8.8-12.1c93.6-88.8 146.7-212.1 147-341.1-.2-41.4-5.9-82.6-16.8-122.6m-922.4.6-9.7 33.9 14 4c-5.3 27.7-8.1 55.8-8.4 84 0 145.5 67.3 282.8 182.1 372.1l46.5-64C165.4 739.1 110.2 625.6 110 505.4c.3-20.8 2.2-41.6 5.8-62.1l15.1 4.1 9.7-33.9-17.9-4.9L47 386.9l-11.6-3.3zm268.5 437.1L239 909.4l28.6 20.8 8.5-11.7c69.4 38.3 147.4 58.5 226.7 58.7 94.9 0 187.7-28.7 266.1-82.2l-46.6-64.1c-64.8 43.9-141.2 67.3-219.5 67.5-62.6-.3-124.2-15.5-179.8-44.4l9.4-12.6z" class="tubearchivist-white_svg__st1"/><path d="M115.1 324.3h146.2l-.2 134.2h90.8l.2-134.2h143.8l-.3-86.3-380.7.4zM261.1 554.4h90.8v200.1h-90.8zM526.4 754.4l140.2-392.8L806 754.4h96.9L710.4 244.2h-87.7L429.6 754.5z" class="tubearchivist-white_svg__st0"/><path d="M255.5 476.4c-16.5 0-29.9 13.6-29.9 30.1.2 17.6 16.1 30.1 30 30.1h103.3c16.1 0 28.9-14 28.9-30.1s-12.2-30.1-28.8-30.1H255.6M665.5 483.6c-16.1 0-29.8 12.2-29.8 28.8v172l-37.8-38.9-25 24.5 92.2 93.8 94.3-93.8-25-24.5-38.9 38.9v-68.6c-.3-34.5 0-69 0-103.6 0-16.1-13.7-28.6-29.8-28.6z" class="tubearchivist-white_svg__st1"/></g></g></svg>