<?xml version="1.0" encoding="utf-8"?>
<!-- Generator: Adobe Illustrator 27.1.1, SVG Export Plug-In . SVG Version: 6.00 Build 0)  -->
<svg version="1.1" id="Layer_1" xmlns="http://www.w3.org/2000/svg" xmlns:xlink="http://www.w3.org/1999/xlink" x="0px" y="0px"
	 viewBox="0 0 48 48" style="enable-background:new 0 0 48 48;" xml:space="preserve">
<style type="text/css">
	.st0{fill:#011627;}
</style>
<g transform="translate(0,-169)">
	<g transform="matrix(0.26458333,0,0,0.26458333,-178.7695,-21.269183)">
		<path class="st0" d="M749.3,769.7c-7.1-4.1-12.9-0.7-12.9,7.5V838c0,8.3,5.8,11.6,12.9,7.5l53.1-30.5c7.2-4.1,7.2-10.8,0-14.9
			L749.3,769.7z"/>
		<path class="st0" d="M765.6,721c-18.1,0.1-35.9,5.9-50.8,16.5c-17.2,12.2-29.5,30.3-34.6,50.8c-6,24.2-1.7,49.4,11.8,70.1
			l-13.2,15.5l55.3,10l-19-52.9L703,845.6c-9.1-16.1-11.7-35-7.2-53.3c4.2-16.8,14.3-31.6,28.4-41.7c13.9-9.9,30.9-14.6,48-13.3
			l1.3-16C770.8,721.1,768.2,721,765.6,721z"/>
		<path class="st0" d="M798.5,735.7l19,52.9l12.2-14.5c9.1,16.1,11.7,35,7.2,53.3c-4.2,16.8-14.3,31.6-28.4,41.7
			c-13.9,9.9-30.9,14.6-48,13.3l-1.3,16c20.7,1.7,41.5-4.1,58.6-16.2c17.2-12.2,29.5-30.3,34.7-50.9c6-24.2,1.7-49.4-11.8-70.1
			l13.2-15.5L798.5,735.7z"/>
	</g>
</g>
</svg>
