<svg xmlns="http://www.w3.org/2000/svg" viewBox="0 0 48 48"><path fill="#fdfffc" d="M19.375 13.145c-1.932-1.109-3.498-.2-3.498 2.027v16.435c0 2.23 1.566 3.136 3.498 2.029l14.36-8.239c1.933-1.109 1.933-2.905 0-4.014z" class="tubesync_svg__logo-icon"/><path fill="#011627" d="M23.8 0a24.059 24.059 0 0 0-13.724 4.46 23.954 23.954 0 0 0-9.36 13.73c-1.63 6.55-.452 13.348 3.201 18.947L.364 41.322l14.955 2.715-5.144-14.293-3.306 3.91c-2.458-4.358-3.165-9.448-1.935-14.391a19.641 19.641 0 0 1 7.669-11.26 19.738 19.738 0 0 1 12.96-3.592L25.9.076C25.2.02 24.499-.006 23.8 0z" class="tubesync_svg__logo-left-arrow"/><path fill="#011627" d="m32.673 3.961 5.144 14.293 3.306-3.91c2.459 4.359 3.165 9.448 1.935 14.392a19.641 19.641 0 0 1-7.669 11.259 19.738 19.738 0 0 1-12.96 3.592l-.338 4.335c5.605.454 11.22-1.109 15.824-4.382a23.969 23.969 0 0 0 9.366-13.752c1.63-6.549.451-13.348-3.201-18.947l3.553-4.185z" class="tubesync_svg__logo-right-arrow"/></svg>