<svg xmlns="http://www.w3.org/2000/svg" viewBox="0 0 48 48"><path fill="#fa7e00" d="M31.479 25.011 25.01 31.48c-.606.606-1.415.606-1.819 0l-6.467-6.468c-.607-.606-.607-1.415 0-1.819l6.467-6.467c.606-.607 1.415-.607 1.82 0l6.467 6.467c.606.404.606 1.213 0 1.82"/><path fill="#00bcfb" d="M3.992 18.746.758 21.979a2.56 2.56 0 0 0 0 3.638l12.53 12.531h.607v-9.297l-4.244-4.244c-.607-.606-.607-1.415 0-1.82l4.244-4.041zm14.754 25.263 3.233 3.234a2.56 2.56 0 0 0 3.638 0l12.531-12.53v-.607h-9.297l-4.244 4.244c-.606.607-1.415.607-1.82 0l-4.041-4.244zm25.263-14.754 3.234-3.233a2.56 2.56 0 0 0 0-3.638L34.713 9.853h-.607v9.297l4.244 4.244c.607.607.607 1.415 0 1.82l-4.244 4.041v.203h9.903zM29.255 3.992 26.022.758a2.56 2.56 0 0 0-3.638 0l-1.415 1.415-11.52 11.116v.606h9.297l4.244-4.244c.606-.607 1.415-.607 1.819 0l4.446 4.244h.203V3.992z"/></svg>