<?xml version="1.0" encoding="utf-8"?>
<!-- Generator: Adobe Illustrator 27.1.1, SVG Export Plug-In . SVG Version: 6.00 Build 0)  -->
<svg version="1.1" id="Layer_1" focusable="false" xmlns="http://www.w3.org/2000/svg" xmlns:xlink="http://www.w3.org/1999/xlink"
	 x="0px" y="0px" viewBox="0 0 50 50" style="enable-background:new 0 0 50 50;" xml:space="preserve">
<style type="text/css">
	.st0{fill-rule:evenodd;clip-rule:evenodd;}
</style>
<path class="st0" d="M10.6,21.4v20.9c0,0,3.4-2.3,7.1-4.9v-11c0-5.6,1.7-7.5,6.4-10.9c1.5-1.1,3.7-2.7,5.9-4.3V1c0,0-9.2,6.8-13,9.6
	C12.3,14,10.6,15.8,10.6,21.4z M20,49V28.2c0-5.6,1.7-7.5,6.4-10.9c3.8-2.8,13-9.6,13-9.6v18.2c0,0.5,0,1,0,1.5
	c0,5,0.1,7.7-5.1,11.6C30,42.3,20,49,20,49z"/>
</svg>
