<svg xmlns="http://www.w3.org/2000/svg" viewBox="0 0 48 48"><defs><clipPath id="a" clipPathUnits="userSpaceOnUse"><path d="M6.998 7.392h109.08v89.063H6.998Z"/></clipPath><clipPath id="b" clipPathUnits="userSpaceOnUse"><path d="M61.723 52.808c-3.456.157-6.115 1.034-8.175 2.303 1.395-6.055 6.612-9.029 6.864-9.17l1.538-.848c11.768.786 18.656 8.383 18.656 18.317v2.153c-2.797-9.126-9.307-13.186-18.883-12.755"/></clipPath><linearGradient id="c" x1="0" x2="1" y1="0" y2="0" gradientTransform="translate(53.548 55.328) scale(27.057)" gradientUnits="userSpaceOnUse" spreadMethod="pad"><stop offset="0" style="stop-opacity:1;stop-color:#656263"/><stop offset="1" style="stop-opacity:1;stop-color:#a7a5a6"/></linearGradient></defs><g clip-path="url(#a)" transform="matrix(1.03028 0 0 -1.03028 -37.718 94.384)"><path d="m0 0 1.004 3.275v22.437c-11.734 0-12.956-4.499-12.956-8.796v-24.64c0-1.276-.124-2.629-.382-3.956C-6.112-10.547-2.053-6.701 0 0" style="fill:#0d0d0d;fill-opacity:1;fill-rule:nonzero;stroke:none" transform="translate(79.602 65.87)"/><path d="M49.566 86.46h-2.593v2.561h2.593zm2.59-3.87h-2.59v2.563h2.59zm-2.605-3.223h-2.563v2.562h2.563zm-2.591-3.842h-2.562v2.562h2.562zm-5.168 13.496h-2.59v2.589h2.59z" style="fill:#39a2e1;fill-opacity:1;fill-rule:nonzero;stroke:none"/><path d="M0 0h2.587v-5.707h2.594v9.548h2.59v-18.659c0-8.855 7.749-13.126 7.749-13.126-13.017 0-20.703 7.891-20.703 18.39V11.56h2.589V-2.562H0Z" style="fill:#39a2e1;fill-opacity:1;fill-rule:nonzero;stroke:none" transform="translate(44.385 72.965)"/></g><g clip-path="url(#b)" transform="matrix(1.03028 0 0 -1.03028 -37.718 94.384)"><path d="M61.723 52.808c-3.456.157-6.115 1.034-8.175 2.303 1.395-6.055 6.612-9.029 6.864-9.17l1.538-.848c11.768.786 18.656 8.383 18.656 18.317v2.153c-2.797-9.126-9.307-13.186-18.883-12.755" style="fill:url(#c);stroke:none"/></g><path d="M62.61 26.632h-3.413v-3.416h3.414z" style="fill:#39a2e1;fill-opacity:1;fill-rule:nonzero;stroke:none;stroke-width:1.33333" transform="translate(-37.718 -12.607) scale(.77271)"/></svg>