<svg xmlns="http://www.w3.org/2000/svg" viewBox="0 0 48 48"><path fill="url(#ubiquiti_svg__a)" d="M0 0h256v256H0z" transform="scale(.1875)"/><g fill="url(#ubiquiti_svg__b)" transform="scale(.1875)"><path d="M188 67h-7.999v7.999H188zM160.01 123.02v-16.026l.004.005h15.993v15.997H192v5.071c0 5.861-.498 12.806-1.644 18.26-.642 3.048-1.615 6.077-2.756 8.986-1.169 2.976-2.516 5.827-3.982 8.382a62.78 62.78 0 0 1-6.695 9.547l-.136.158-.224.262c-.617.724-1.227 1.44-1.898 2.139a63.215 63.215 0 0 1-2.415 2.415c-10.237 9.859-23.575 16.017-37.521 17.431-1.678.172-5.047.35-6.729.35-1.687-.005-5.051-.178-6.729-.35-13.946-1.414-27.284-7.577-37.521-17.431a63.155 63.155 0 0 1-2.416-2.415c-.703-.729-1.338-1.477-1.98-2.233l-.002-.002-.275-.324a62.662 62.662 0 0 1-6.695-9.547c-1.467-2.559-2.813-5.406-3.983-8.382-1.14-2.909-2.113-5.938-2.755-8.986-1.146-5.459-1.644-12.399-1.644-18.26V68.002h31.99v55.018s0 4.218.053 5.598l.012.322v.002c.067 1.785.133 3.534.318 5.274.527 4.941 1.62 9.628 3.872 13.592.652 1.145 1.313 2.257 2.104 3.311 4.812 6.417 12.135 11.234 21.27 12.576 1.087.158 3.282.297 4.38.297s3.292-.139 4.38-.297c9.135-1.342 16.458-6.159 21.27-12.576.795-1.054 1.452-2.166 2.104-3.311 2.252-3.964 3.345-8.651 3.872-13.592.186-1.744.252-3.495.32-5.284l.011-.314c.053-1.38.053-5.598.053-5.598zM164 79.001h12v11.996h15.998v15.998H176V91.002h-12z"/></g><defs><radialGradient id="ubiquiti_svg__a" cx="0" cy="0" r="1" gradientTransform="matrix(0 256 -256 0 128 0)" gradientUnits="userSpaceOnUse"><stop offset="0" stop-color="#006FFF"/><stop offset="1" stop-color="#003C9E"/></radialGradient><linearGradient id="ubiquiti_svg__b" x1="106.28" x2="193.98" y1="265.31" y2="153.16" gradientUnits="userSpaceOnUse"><stop offset="0" stop-color="#C2C4CE"/><stop offset=".397" stop-color="#D6D9E2"/><stop offset="1" stop-color="#fff"/></linearGradient></defs></svg>
