<svg xmlns="http://www.w3.org/2000/svg" id="Layer_1" width="48" height="48" data-name="Layer 1" version="1.1"><defs id="defs4"><style id="style2">.cls-1{fill:#e9500e}</style></defs><g id="g316" style="stroke-width:15.9876" transform="translate(0 .91) scale(.06255)"><circle id="circle6" cx="109.027" cy="348.094" r="109.027" class="cls-1" style="stroke-width:15.9876"/><circle id="circle8" cx="563.084" cy="109.027" r="109.027" class="cls-1" style="stroke-width:15.9876"/><path id="path10" d="M354.92 628.686a265.525 265.525 0 0 1-181.07-138.098 156.948 156.948 0 0 1-93.22 11.458A354.935 354.935 0 0 0 336.167 716.21a359.208 359.208 0 0 0 77.42 7.967 156.003 156.003 0 0 1-31.923-91.154 271.197 271.197 0 0 1-26.744-4.337z" class="cls-1" style="stroke-width:15.9876"/><circle id="circle12" cx="538.52" cy="629.287" r="109.027" class="cls-1" style="stroke-width:15.9876"/><path id="path14" d="M690.236 589.241a356.7 356.7 0 0 0 17.875-418.519 157.144 157.144 0 0 1-61.31 71.803 267.293 267.293 0 0 1-8.736 265.489 156.347 156.347 0 0 1 52.171 81.227z" class="cls-1" style="stroke-width:15.9876"/><path id="path16" d="M100.615 191.74q4.15-.229 8.305-.226a157.346 157.346 0 0 1 82.683 23.545 265.907 265.907 0 0 1 214.108-114.51 158.088 158.088 0 0 1 33.076-88.42C301.684 1.272 168.463 72.021 100.615 191.74Z" class="cls-1" style="stroke-width:15.9876"/></g></svg>