<svg xmlns="http://www.w3.org/2000/svg" id="Layer_1" width="48" height="48" data-name="Layer 1" version="1.1"><defs id="defs4"><style id="style2">.cls-2{fill:#fff}</style></defs><g id="g311" style="stroke-width:33.3333" transform="translate(8.416) scale(.03)"><path id="rect6" d="M0 0h1038.905v1600H0z" style="stroke-width:33.3333;fill:#e9500e"/><circle id="circle8" cx="226.588" cy="1056.074" r="109.027" class="cls-2" style="stroke-width:33.3333"/><circle id="circle10" cx="680.645" cy="817.007" r="109.027" class="cls-2" style="stroke-width:33.3333"/><path id="path12" d="M472.482 1336.666a265.525 265.525 0 0 1-181.071-138.098 156.948 156.948 0 0 1-93.22 11.458A354.935 354.935 0 0 0 453.73 1424.19a359.21 359.21 0 0 0 77.42 7.967 156.003 156.003 0 0 1-31.923-91.154 271.168 271.168 0 0 1-26.744-4.337z" class="cls-2" style="stroke-width:33.3333"/><circle id="circle14" cx="656.082" cy="1337.267" r="109.027" class="cls-2" style="stroke-width:33.3333"/><path id="path16" d="M807.798 1297.22a356.7 356.7 0 0 0 17.875-418.518 157.144 157.144 0 0 1-61.31 71.803 267.293 267.293 0 0 1-8.737 265.488 156.347 156.347 0 0 1 52.172 81.228z" class="cls-2" style="stroke-width:33.3333"/><path id="path18" d="M218.176 899.72q4.15-.229 8.306-.226a157.346 157.346 0 0 1 82.682 23.545 265.906 265.906 0 0 1 214.108-114.51 158.088 158.088 0 0 1 33.076-88.42c-137.103-10.857-270.324 59.892-338.172 179.61Z" class="cls-2" style="stroke-width:33.3333"/></g></svg>