<svg xmlns="http://www.w3.org/2000/svg" viewBox="0 0 48 48"><g fill-rule="nonzero"><path fill="#2d2e83" d="M33.553 2.058v27.151l-9.27 5.342a.67.67 0 0 1-.597 0l-9.27-5.342V2.058L7.848 5.86a3.59 3.59 0 0 0-1.791 3.111v27.152a3.63 3.63 0 0 0 1.79 3.11L22.21 47.53a3.64 3.64 0 0 0 3.582 0l14.362-8.296a3.59 3.59 0 0 0 1.79-3.111V8.97a3.63 3.63 0 0 0-1.79-3.11z"/><path fill="url(#unbound_svg__a)" d="M87.5 6.548v86.4l-29.5 17a2.12 2.12 0 0 1-1.9 0l-29.5-17v-86.4l-20.9 12.1a11.43 11.43 0 0 0-5.7 9.9v86.4a11.56 11.56 0 0 0 5.7 9.9l45.7 26.4a11.59 11.59 0 0 0 11.4 0l45.7-26.4a11.43 11.43 0 0 0 5.7-9.9v-86.4a11.56 11.56 0 0 0-5.7-9.9z" transform="translate(6.057)scale(.31425)"/><path fill="#1fc2d7" d="M41.944 8.971a3.63 3.63 0 0 0-1.791-3.11L30.6.328a2.33 2.33 0 0 0-2.389 0 2.39 2.39 0 0 0-1.194 2.075v20.929a3.63 3.63 0 0 0 1.791 3.11l11.345 6.568a3.59 3.59 0 0 1 1.791 3.112zM6.057 8.971a3.63 3.63 0 0 1 1.79-3.11L17.433.328a2.33 2.33 0 0 1 2.389 0 2.39 2.39 0 0 1 1.194 2.075v20.929a3.63 3.63 0 0 1-1.791 3.11L7.879 33.012a3.59 3.59 0 0 0-1.791 3.112z"/></g><defs><linearGradient id="unbound_svg__a" x2="1" gradientTransform="translate(0 79.648)scale(114.2)" gradientUnits="userSpaceOnUse"><stop offset="0" stop-color="#0d0d27"/><stop offset=".02" stop-color="#10102f"/><stop offset=".1" stop-color="#1a1b4d"/><stop offset=".19" stop-color="#232365"/><stop offset=".28" stop-color="#282976"/><stop offset=".38" stop-color="#2c2d80"/><stop offset=".5" stop-color="#2d2e83"/><stop offset=".62" stop-color="#2c2d80"/><stop offset=".72" stop-color="#282976"/><stop offset=".81" stop-color="#232365"/><stop offset=".9" stop-color="#1a1b4d"/><stop offset=".98" stop-color="#10102f"/><stop offset="1" stop-color="#0d0d27"/></linearGradient></defs></svg>
