<svg xmlns="http://www.w3.org/2000/svg" fill="none" viewBox="0 0 48 48"><path fill="url(#uptimekuma_svg__a)" d="M490.4 235.64c53.69 122.74 53.69 199.7 0 230.86-80.55 46.74-290.44 60.99-350.86-10.86-40.28-47.9-40.28-121.24 0-220 40.96-67.46 99.17-101.19 174.63-101.19 75.47 0 134.21 33.73 176.23 101.19z" transform="translate(-.785 -.754) scale(.07735)"/><path stroke="#f2f2f2" stroke-opacity=".51" stroke-width="15.47" d="M37.15 17.473c4.153 9.495 4.153 15.448 0 17.858-6.231 3.616-22.467 4.718-27.14-.84-3.117-3.705-3.117-9.378 0-17.018 3.168-5.218 7.67-7.827 13.507-7.827 5.838 0 10.382 2.61 13.633 7.827z"/><defs><linearGradient id="uptimekuma_svg__a" x1="259.78" x2="463.85" y1="261.15" y2="456.49" gradientUnits="userSpaceOnUse"><stop offset="0" stop-color="#5CDD8B"/><stop offset="1" stop-color="#86E6A9"/></linearGradient></defs></svg>