<svg xmlns="http://www.w3.org/2000/svg" viewBox="0 0 48 48"><path fill="#123678" fill-rule="evenodd" d="m11.825 40.427-8.599-5.38V12.055L24.254 0l20.519 12.075V36.26L23.928 48l-7.236-4.528V32.454L12.768 30V17.531l11.361-6.513 11.102 6.533v13.066l-8.79 4.95v-5.262c2.635-1.015 4.527-3.623 4.527-6.7 0-3.968-3.142-7.154-6.968-7.154s-6.968 3.186-6.968 7.153c0 3.078 1.891 5.686 4.526 6.7v9.97l2.513 1.573 15.41-8.68V15.101L24.22 6.119 8.518 15.12v16.996l3.307 2.07zM24 20.317c1.731 0 3.101 1.492 3.101 3.287S25.731 26.89 24 26.89s-3.101-1.492-3.101-3.287 1.37-3.287 3.1-3.287"/></svg>