<svg xmlns="http://www.w3.org/2000/svg" xmlns:xlink="http://www.w3.org/1999/xlink" viewBox="0 0 48 48"><g transform="translate(24 24) scale(.45714)"><g mask="url(#vaultwarden_svg__a)"><path stroke="#000" stroke-width="4.512" d="m-31.172-33.813 26.496 74.189h9.351l26.496-74.189h-9.767L4.675 13.776Q3.013 18.348 1.87 22.4.727 26.35 0 29.985q-.728-3.636-1.87-7.689-1.144-4.052-2.806-8.728l-16.625-47.38z"/><circle r="43" fill="none" stroke="#000" stroke-width="9" transform="scale(-1 1)"/><g transform="scale(-1 1)"><path id="vaultwarden_svg__b" stroke="#000" stroke-linejoin="round" stroke-width="3" d="m51 0-5-3v6z"/><use xlink:href="#vaultwarden_svg__b" transform="rotate(11.25)"/><use xlink:href="#vaultwarden_svg__b" transform="rotate(22.5)"/><use xlink:href="#vaultwarden_svg__b" transform="rotate(33.75)"/><use xlink:href="#vaultwarden_svg__b" transform="rotate(45)"/><use xlink:href="#vaultwarden_svg__b" transform="rotate(56.25)"/><use xlink:href="#vaultwarden_svg__b" transform="rotate(67.5)"/><use xlink:href="#vaultwarden_svg__b" transform="rotate(78.75)"/><use xlink:href="#vaultwarden_svg__b" transform="rotate(90)"/><use xlink:href="#vaultwarden_svg__b" transform="rotate(101.25)"/><use xlink:href="#vaultwarden_svg__b" transform="rotate(112.5)"/><use xlink:href="#vaultwarden_svg__b" transform="rotate(123.75)"/><use xlink:href="#vaultwarden_svg__b" transform="rotate(135)"/><use xlink:href="#vaultwarden_svg__b" transform="rotate(146.25)"/><use xlink:href="#vaultwarden_svg__b" transform="rotate(157.5)"/><use xlink:href="#vaultwarden_svg__b" transform="rotate(168.75)"/><use xlink:href="#vaultwarden_svg__b" transform="scale(-1)"/><use xlink:href="#vaultwarden_svg__b" transform="rotate(191.25)"/><use xlink:href="#vaultwarden_svg__b" transform="rotate(202.5)"/><use xlink:href="#vaultwarden_svg__b" transform="rotate(213.75)"/><use xlink:href="#vaultwarden_svg__b" transform="rotate(225)"/><use xlink:href="#vaultwarden_svg__b" transform="rotate(236.25)"/><use xlink:href="#vaultwarden_svg__b" transform="rotate(247.5)"/><use xlink:href="#vaultwarden_svg__b" transform="rotate(258.75)"/><use xlink:href="#vaultwarden_svg__b" transform="rotate(-90)"/><use xlink:href="#vaultwarden_svg__b" transform="rotate(-78.75)"/><use xlink:href="#vaultwarden_svg__b" transform="rotate(-67.5)"/><use xlink:href="#vaultwarden_svg__b" transform="rotate(-56.25)"/><use xlink:href="#vaultwarden_svg__b" transform="rotate(-45)"/><use xlink:href="#vaultwarden_svg__b" transform="rotate(-33.75)"/><use xlink:href="#vaultwarden_svg__b" transform="rotate(-22.5)"/><use xlink:href="#vaultwarden_svg__b" transform="rotate(-11.25)"/></g><g transform="scale(-1 1)"><path id="vaultwarden_svg__c" stroke="#000" stroke-linejoin="round" stroke-width="6" d="m0-35 7-7H-7z"/><use xlink:href="#vaultwarden_svg__c" transform="rotate(72)"/><use xlink:href="#vaultwarden_svg__c" transform="rotate(144)"/><use xlink:href="#vaultwarden_svg__c" transform="rotate(216)"/><use xlink:href="#vaultwarden_svg__c" transform="rotate(-72)"/></g></g><mask id="vaultwarden_svg__a"><path fill="#fff" d="M-60-60H60V60H-60z"/><circle id="vaultwarden_svg__d" cy="-40" r="3"/><use xlink:href="#vaultwarden_svg__d" transform="rotate(72)"/><use xlink:href="#vaultwarden_svg__d" transform="rotate(144)"/><use xlink:href="#vaultwarden_svg__d" transform="rotate(216)"/><use xlink:href="#vaultwarden_svg__d" transform="rotate(-72)"/></mask></g></svg>