<svg xmlns="http://www.w3.org/2000/svg" viewBox="0 0 48 48"><path d="M474.54 185.21H19.89C8.9 185.21 0 176.31 0 165.32V19.89C0 8.9 8.9 0 19.89 0h454.65c10.98 0 19.89 8.9 19.89 19.89v145.44c0 10.98-8.91 19.88-19.89 19.88z" style="fill:#00b336" transform="translate(0 15.01) scale(.09708)"/><path d="M11.13 20.488a.651.651 0 0 0-.9.303l-2.41 5.19c-.055.112-.104.188-.232.188s-.178-.076-.233-.188l-2.41-5.19a.652.652 0 0 0-.9-.304.722.722 0 0 0-.288.948l2.354 4.803.268.546c.234.479.697.776 1.209.776.51 0 .974-.297 1.209-.776l.267-.546 2.355-4.803a.723.723 0 0 0-.289-.947zm31.984-.078c-.454-.002-.85.281-1.041.67-.613 1.25-2.413 4.967-2.421 4.98-.014.023-.052.11-.13.11-.072 0-.115-.082-.128-.111-.598-1.234-1.775-3.67-2.394-4.932-.237-.486-.636-.718-1.067-.718h-.001c-.663 0-1.2.56-1.2 1.322v5.11c0 .31.177.597.45.688.445.145.826-.243.826-.702l-.093-4.98c0-.052.062-.07.086-.026L38.46 26.8c.228.476.624.76 1.063.76.437 0 .834-.284 1.063-.76l2.46-4.977c.024-.046.088-.028.088.026l-.094 5.009c0 .396.296.715.658.703.35-.012.619-.348.619-.733v-5.094c0-.771-.538-1.32-1.203-1.323zm-9.199 6.112-2.71-5.346A1.348 1.348 0 0 0 30 20.405c-.32 0-.62.115-.857.32a1.41 1.41 0 0 0-.35.452l-2.697 5.32-.007.016-.004.008a.736.736 0 0 0 .053.75l.012.017.013.017a.64.64 0 0 0 .88.136l.008-.006a.435.435 0 0 0 .042-.033l.033-.03.015-.014a.68.68 0 0 0 .123-.173l.1-.212.564-1.182a.085.085 0 0 1 .076-.05h2.491c.333 0 .604-.285.604-.636 0-.351-.27-.635-.604-.635h-1.86c-.04 0-.065-.043-.05-.081l.138-.294 1.019-2.052.004-.01.005-.01c.017-.035.071-.181.17-.212a.275.275 0 0 1 .15-.002c.104.03.15.158.195.251l2.47 5.128c.12.237.351.373.59.373a.645.645 0 0 0 .227-.043l.014-.005a.544.544 0 0 0 .073-.036l.01-.007.016-.008.022-.016.019-.014.029-.022a.831.831 0 0 0 .032-.028c.003-.003.006-.005.007-.008a.733.733 0 0 0 .14-.852zm-20.966-1.763h4.56c.086-.001.792-.058.792-.856 0-1.966-1.519-3.565-3.385-3.565s-3.386 1.599-3.386 3.565l.003.187c-.003 2.244 1.44 3.452 3.349 3.564.09.005.18.008.267.008.734 0 1.354-.19 2.027-.616a2.48 2.48 0 0 0 .612-.577c.219-.281.238-.703 0-.923-.343-.316-.695-.145-1.01.123-.494.42-.876.748-1.862.749-.929 0-1.807-.53-2.016-1.59-.007-.035.015-.07.049-.07zm-.05-1.316c.126-1.029.834-1.941 2.015-1.941s1.928.894 2.046 1.941c.004.038-.02.074-.057.074h-3.949c-.035 0-.06-.036-.056-.074zm7.551 1.316h4.56c.086-.001.792-.058.792-.856 0-1.966-1.518-3.565-3.385-3.565s-3.385 1.599-3.385 3.565l.003.187c-.003 2.244 1.44 3.452 3.348 3.564.091.005.18.008.268.008.734 0 1.353-.19 2.026-.616a2.48 2.48 0 0 0 .613-.577c.218-.281.237-.703 0-.923-.343-.316-.696-.145-1.01.123-.494.42-.877.748-1.862.749-.93 0-1.808-.53-2.016-1.59-.008-.035.013-.07.048-.07zm-.051-1.316c.127-1.029.835-1.941 2.015-1.941s1.928.894 2.047 1.941c.003.038-.02.074-.058.074h-3.948c-.036 0-.061-.036-.056-.074z" style="fill:#fff"/></svg>