<svg xmlns="http://www.w3.org/2000/svg" viewBox="0 0 48 48"><g fill="#fff"><path d="M20.39 21.103c.81.69 2.17 1.213 3.535 1.23v.002h.15v-.001c1.365-.018 2.725-.542 3.534-1.231 4.263-3.637 16.6-14.946 16.6-14.946C47.522 3.077 38.31.019 24.076 0h-.151C9.691.02.478 3.076 3.79 6.157c0 0 12.338 11.309 16.601 14.946"/><path d="M27.605 27.226c-.808.69-2.168 1.213-3.533 1.231v.002H23.928v-.002c-1.365-.018-2.725-.541-3.534-1.231C17.445 24.71 7.038 15.275 3.118 11.699v5.46c0 .6.23 1.397.638 1.77 2.664 2.444 12.94 11.85 16.638 15.003.808.69 2.169 1.213 3.534 1.231v.002l.071-.001h.072c1.365-.019 2.725-.542 3.534-1.232 3.697-3.153 13.974-12.56 16.638-15.002.408-.374.638-1.17.638-1.77V11.7c-3.92 3.575-14.326 13.01-17.276 15.526"/><path d="M27.605 40.06c-.808.69-2.168 1.214-3.533 1.232v.002l-.069-.001H23.928v-.001c-1.365-.018-2.725-.541-3.534-1.231C17.445 37.545 7.038 28.11 3.118 24.534v5.46c0 .6.23 1.396.638 1.77 2.664 2.443 12.94 11.85 16.638 15.003.808.69 2.169 1.213 3.534 1.231V48l.071-.001h.072c1.365-.019 2.725-.542 3.534-1.232 3.697-3.153 13.974-12.56 16.638-15.003.408-.374.638-1.17.638-1.77v-5.46c-3.92 3.575-14.326 13.011-17.276 15.527"/></g></svg>