<svg xmlns="http://www.w3.org/2000/svg" viewBox="0 0 256 256"><path fill="#196aff" d="M226.874 46.803a127.146 127.146 0 0 0-6.66-7.583C196.136 13.938 163.385.013 127.995.013c-34.19 0-66.333 13.314-90.508 37.49a130.367 130.367 0 0 0-8.444 9.3C10.23 69.64-.003 98.038-.003 128.011c0 34.188 13.314 66.331 37.49 90.507 24.175 24.175 56.317 37.488 90.508 37.488 34.19 0 66.332-13.314 90.508-37.488 24.176-24.177 37.489-56.319 37.489-90.507 0-29.228-10.515-58.295-29.115-81.208"/><path fill="#fff" d="M167.61 162.12c4.758-13.957 12.616-18.229 13.594-39.766.343-7.568-1.955-31.608-1.955-31.608s3.735-9.64-3.443-20.377c-11.13-16.649-34.053-17.78-46.091-17.78s-34.694 1.131-45.823 17.78c-7.178 10.737-3.443 20.377-3.443 20.377s-1.272 12.364-2.234 23.269c-.226 2.559.021 12.681.327 15.127.55 4.383 1.931 8.688 3.441 12.88 1.913 5.307 4.91 10.692 7.198 16.137 6.906 16.438 1.127 36.799 1.48 54.526.298 12.583-2.668 25.348-3.83 37.653 13.083 4.452 26.944 6.775 41.16 6.775 15.978 0 31.508-2.925 45.986-8.52-2.719-15.406-5.878-30.02-6.366-35.594-1.42-16.854-5.507-34.731-.001-50.879"/><path fill="#fff" d="M79.505 63.922c.153 2.498.4 5.058 1.103 7.488.22.758.547 2.624 1.522 2.902 1.212.345 3.454-1.101 4.305-1.728 1.647-1.212 3.19-2.46 4.837-3.686 1.052-.782 2.2-1.396 3.229-2.2 1.12-.873 1.962-1.93 2.894-2.957 1.131-1.248 1.98-2.54 2.85-3.933.68-1.087 4.942-1.795 5.624-2.804.745-1.103.122-2.468.122-3.826 0-9.888.594-19.675.825-29.371.239-6.652 2.85-14.55-7.125-11.432-21.374 6.651-21.137 36.167-20.186 51.548m94.157 13.892c-.214-.233-.559-.431-.834-.635-1.197-.887-2.326-1.815-3.354-2.865-1.255-1.281-2.56-2.527-3.755-3.857-1.053-1.168-2.309-2.213-3.334-3.41a37.845 37.845 0 0 1-1.948-2.474c-.308-.424-.47-.933-.712-1.387-.36-.668-5.317-1.349-4.825-2 .84-1.11 2.71-2.053 3.16-3.325 2.3-6.49 3.303-32.604 3.58-39.267.714-17.044 15.676.831 18.29 7.69 7.6 19.955 3.085 34.503-6.176 51.548"/><path fill="#f1e6d3" d="M153.316 143.387c-.01-9.84-1.233-13.82-6.72-18.633-3.433-3.008-7.445-4.156-13.832-3.999-6.387-.157-10.99 1.784-14.31 5.23-5.006 5.199-6.324 8.274-6.338 18.114-.008 5.32 5.727 17.088 7.434 19.805 2.833 4.79 8.075 6.513 13.214 6.154 5.139.36 10.382-1.363 13.212-6.154 1.708-2.716 7.347-14.26 7.34-20.515"/><path fill="#f1d7d4" d="M87.998 72.962c-1.282-11.478-5.144-31.996 8.198-44.164 1.472-1.343 1.867 3.227 2.113 5.075.339 2.539-.007 9.789.045 12.344.095 4.812 1.104 7.329.634 9.528-1.284 6.012-2.314 5.624-3.541 9.28-2.435 7.25-7.098 11.076-7.449 7.937m83.345-2.266c1.365 2.444 4.932-10.7 6.05-16.41 1.053-5.373 2.39-12.515.541-17.854-.991-2.864-7.077-11.275-7.795-8.385-.28 1.123-.424 9.48-1.112 13.478-.852 4.948-2.388 9.84-2.397 14.872-.02 11.276 3.378 11.74 4.712 14.298"/><path fill="#faeee0" d="M127.384 205.812c-.29.878-2.48 1.52-3.302 1.786-1.988.642-3.753-.925-4.864-2.246-1.544-1.83-1.503-4.75-2.15-6.885-.39-1.291-2.604-1.467-3.269-.272-2.217 3.986-10.82-3.516-8.821-6.013 1.318-1.647-1.838-3.101-3.139-1.477-3.86 4.821 6.523 13.8 12.477 11.366.265 1.204.543 2.407 1.055 3.551 1.003 2.247 3.197 3.699 5.468 4.919 3.092 1.658 9.1-1.255 10.018-4.034.64-1.934-2.837-2.618-3.473-.695m27.412-29.132c.32 1.339.37 5.876-2.124 3.394-1.012-1.007-3.022-.413-3.104.934-.193 3.118-3.32 3.187-6.018 2.244-2.141-.746-3.271 2.212-1.148 2.953 3.962 1.382 8.262.616 9.97-2.378 1.344.632 2.865.805 4.084-.343 2.13-2.005 2.45-4.83 1.83-7.427-.47-1.968-3.959-1.346-3.49.623m6.32 65.198c-.934 1.909-2.647 1.79-4.485.988-1.347-.586-3.014.384-2.607 1.748.818 2.736-2.638 3.535-4.975 2.56-2.057-.86-3.845 1.838-1.766 2.707 4.21 1.758 9.563.22 10.34-3.484 2.708.43 5.294-.331 6.586-2.975.894-1.824-2.187-3.396-3.093-1.544m-27.359-147.21c-.434 2.691-5.48-.442-6.732-1.292-1.103-.746-2.53-.293-2.665.966-.18 1.695-2.464 1.203-3.508.99-1.974-.402-3.648-1.632-3.695-3.48-.046-1.797 1.094-3.684 1.688-5.37.38-1.077-1.163-2.262-2.29-1.542-2.033 1.298-11.83 2.464-7.928-1.806 1.243-1.36-.95-3.306-2.207-1.93-1.802 1.973-3.021 6.493.878 7.45 2.058.504 5.037.478 7.575-.1-1.06 3.397-1.282 6.506 3.087 8.689 2.953 1.475 7.008 1.465 8.726-.814 3.616 1.944 9.294 3.83 10.08-1.035.278-1.721-2.728-2.464-3.01-.726"/><path fill="#494949" d="M116.85 157.027c5.25.444 10.5 1.636 15.797 1.445 3.387-.124 6.893-.598 10.234-1.093 2.427-.36 5.402-.784 7.026-2.583.152 6.002-12.335 7.88-17.179 8.003-5.619.142-11.934-2.297-15.878-5.772"/><path fill="#494949" d="M131.037 144.507a47.17 47.17 0 0 0-.363 11.635c.096 1.013-.174 3.428 1.173 3.937 1.092.412 2.442-.363 2.62-1.348.301-1.661-.405-3.755-.465-5.456-.071-1.992 0-3.987.21-5.97.126-1.174.786-2.76-.56-3.588-.987-.607-2.434-.383-2.615.79"/><path fill="#494949" d="M141.25 135.147c-3.155.137-6.084 1.902-8.453 3.603-2.144-1.423-5.39-2.73-8.092-1.97-1.61.453-.148.947.523 1.376 1.242.826 2.253 1.886 3.166 2.982 1.385 1.68 2.616 3.444 4.095 5.064 1.023-.737 2-1.48 2.89-2.341.412-.399 3.79-4.923 4.309-5.689.331-.487.665-.99 1.045-1.45.385-.463 1.476-1.202.517-1.575"/><path fill="#2c3844" d="M101.318 113.775c1.557-4.04 3.232-9.118 7.501-8.31 3.233.692 7.56 11.481 4.79 10.416-1.5-.577-2.694-5.481-5.51-6.117-1.79-.404-4.271 5.8-6.666 6.434-1.161.307-.577-1.385-.115-2.424m45.878.001c1.559-4.04 3.233-9.118 7.503-8.31 3.232.692 7.559 11.481 4.79 10.416-1.501-.577-2.695-5.481-5.512-6.117-1.79-.404-4.27 5.8-6.665 6.434-1.161.307-.577-1.385-.116-2.424"/></svg>