<svg xmlns="http://www.w3.org/2000/svg" viewBox="0 0 48 48"><path fill="#57cc00" d="M8.063 32C5.358 31.99-.004 24.99 0 24.085c.002-.563 5.38 3.5 8.082 3.51 2.712.012 8.16-4.006 8.158-3.443-.004.905-5.469 7.86-8.177 7.848z"/><g fill="#0143d6"><path d="M39.937 15.999c2.705.011 8.067 7.01 8.063 7.915-.002.563-5.38-3.5-8.082-3.51-2.711-.012-8.16 4.006-8.157 3.443.004-.905 5.468-7.86 8.176-7.848z"/><path d="M36.24 11.03c2.545-.914 9.977 3.829 10.283 4.681.19.53-6.253-1.448-8.796-.535-2.551.917-6.297 6.556-6.487 6.026-.306-.851 2.45-9.255 4.999-10.17zM11.761 36.972c-2.545.914-9.978-3.828-10.284-4.68-.19-.53 6.253 1.448 8.796.534 2.552-.916 6.297-6.556 6.488-6.026.305.852-2.45 9.256-5 10.171z"/><path d="M31.063 7.627c2.08-1.73 10.686.184 11.265.88.36.433-6.371.778-8.448 2.506-2.085 1.734-3.676 8.314-4.036 7.882-.579-.696-.863-9.536 1.22-11.268zM16.931 40.372c-2.079 1.73-10.685-.185-11.264-.88-.36-.434 6.37-.778 8.448-2.507 2.084-1.734 3.675-8.314 4.035-7.881.579.696.863 9.535-1.219 11.267z"/><path d="M25.04 6.198c1.362-2.337 10.104-3.481 10.886-3.025.486.283-5.72 2.91-7.082 5.244-1.365 2.342-.61 9.07-1.096 8.786-.782-.456-4.072-8.665-2.708-11.005zM22.96 41.803c-1.362 2.337-10.104 3.481-10.886 3.025-.486-.283 5.721-2.91 7.082-5.244 1.365-2.342.61-9.07 1.097-8.786.781.456 4.072 8.665 2.708 11.005z"/><path d="M18.888 6.916C19.37 4.254 27.193.189 28.084.35c.553.1-4.381 4.69-4.861 7.35-.482 2.668 2.529 8.731 1.974 8.631-.89-.16-6.79-6.75-6.308-9.415zM29.112 41.084c-.48 2.662-8.305 6.728-9.195 6.566-.554-.1 4.38-4.69 4.86-7.35.482-2.668-2.529-8.731-1.974-8.631.89.16 6.79 6.75 6.309 9.415z"/><path d="M13.35 9.695C12.891 7.029 18.853.533 19.745.38c.554-.096-2.512 5.906-2.054 8.569.46 2.672 5.363 7.34 4.807 7.435-.891.154-8.689-4.02-9.148-6.69zM34.644 38.304c.459 2.665-5.502 9.161-6.394 9.315-.555.095 2.512-5.907 2.054-8.57-.46-2.671-5.363-7.34-4.808-7.435.892-.153 8.69 4.02 9.149 6.69z"/><path d="M9.103 14.199C7.76 11.851 11.14 3.708 11.926 3.259c.489-.28-.34 6.409 1.001 8.754 1.346 2.354 7.55 5.064 7.06 5.343-.785.45-9.54-.806-10.884-3.157zM38.897 33.8c1.343 2.347-2.037 10.49-2.823 10.94-.489.28.34-6.41-1-8.755-1.347-2.354-7.551-5.063-7.061-5.343.785-.449 9.54.806 10.884 3.157z"/><path d="M6.65 19.885C4.584 18.138 4.975 9.33 5.56 8.639c.364-.43 1.873 6.139 3.935 7.884 2.07 1.751 8.827 2.176 8.462 2.606-.584.69-9.24 2.505-11.308.756zM41.35 28.115c2.066 1.747 1.675 10.556 1.09 11.247-.364.43-1.872-6.14-3.935-7.885-2.07-1.751-8.827-2.175-8.462-2.605.584-.69 9.24-2.506 11.308-.756z"/><path d="M6.287 26.07c-2.538-.935-5.183-9.346-4.87-10.195.195-.528 3.86 5.129 6.395 6.063 2.544.938 9.038-.974 8.843-.445-.313.848-7.827 5.515-10.368 4.578zM41.713 21.934c2.538.936 5.183 9.346 4.87 10.196-.195.528-3.86-5.129-6.395-6.064-2.543-.937-9.038.975-8.843.446.314-.849 7.827-5.515 10.368-4.578z"/></g></svg>