<svg xmlns="http://www.w3.org/2000/svg" xmlns:xlink="http://www.w3.org/1999/xlink" xml:space="preserve" viewBox="0 0 48 48"><g transform="matrix(.31989 0 0 -.31989 -96.663 114.78)"><defs><path id="vmware_svg__a" d="M-193.8-199.5h956.2v1237h-956.2z"/></defs><clipPath id="vmware_svg__b"><use xlink:href="#vmware_svg__a" width="100%" height="100%" overflow="visible"/></clipPath><g fill="#696566" clip-path="url(#vmware_svg__b)"><path d="m366.58 274.1-6.571 18.3c-.084.253-.209.587-.209.88 0 .793.67 1.546 1.63 1.546.838 0 1.384-.544 1.634-1.337l5.445-15.77 5.484 15.81c.25.75.753 1.294 1.586 1.294h.17c.881 0 1.425-.544 1.675-1.294l5.439-15.81 5.531 15.85c.209.673.666 1.255 1.548 1.255.92 0 1.591-.708 1.591-1.505 0-.292-.127-.625-.209-.88l-6.613-18.34c-.338-.958-1.005-1.461-1.76-1.461h-.125c-.838 0-1.467.503-1.762 1.461l-5.397 15.55-5.444-15.55c-.293-.958-.923-1.461-1.758-1.461h-.088c-.793 0-1.46.503-1.797 1.461m47.9 19.101c0 .883.712 1.637 1.591 1.637a1.61 1.61 0 0 0 1.637-1.637v-3.713c1.592 3.606 5.123 5.308 7.463 5.308.969 0 1.598-.712 1.598-1.634 0-.882-.584-1.508-1.43-1.634-4.195-.503-7.63-3.65-7.63-9.9v-7.353c0-.881-.67-1.634-1.592-1.634-.923 0-1.636.716-1.636 1.634l-.001 18.93zm22.7-20.8c-5.837 0-10.6 4.527-10.6 11.17v.086c0 6.183 4.316 11.16 10.19 11.16 6.283 0 9.861-5.184 9.861-10.87 0-.874-.705-1.499-1.481-1.499h-15.36c.448-4.645 3.692-7.259 7.477-7.259 2.631 0 4.556 1.038 6.12 2.491.247.205.534.371.906.371.778 0 1.397-.623 1.397-1.373 0-.372-.164-.747-.497-1.034-2.011-1.949-4.397-3.24-8.01-3.24m6.286 12.41c-.33 3.905-2.55 7.305-6.783 7.305-3.698 0-6.492-3.111-6.898-7.305zM391.68 279.1v.084c0 4.556 3.764 6.984 9.239 6.984 2.761 0 4.725-.376 6.652-.923v.756c0 3.885-2.39 5.895-6.441 5.895-2.175 0-3.441-.277-5.033-.986a1.617 1.617 0 0 0-.58-.127c-.753 0-1.425.629-1.425 1.38 0 .667.291 1.08.88 1.341 2.129.924 3.734 1.231 6.492 1.231 3.05 0 5.392-.792 6.978-2.382 1.466-1.463 2.219-3.553 2.219-6.314v-11.93c0-.917-.669-1.588-1.552-1.588-.916 0-1.537.67-1.537 1.505v2.062c-1.508-1.969-4.019-3.722-7.816-3.722-4.016.003-8.076 2.3-8.076 6.732m15.93 1.673v2.091c-1.592.459-3.727.92-6.359.92-4.05 0-6.311-1.758-6.311-4.473v-.083c0-2.717 2.506-4.306 5.436-4.306 3.97 0 7.234 2.426 7.234 5.851M308.08 293.4c-.708 1.552-2.458 2.255-4.092 1.529-1.636-.727-2.238-2.541-1.499-4.094l6.861-14.91c1.079-2.337 2.216-3.562 4.35-3.562 2.28 0 3.274 1.334 4.352 3.562 0 0 5.984 13.03 6.044 13.17a.866.866 0 0 0 .862.555.953.953 0 0 0 .948-.966v-12.74c0-1.964 1.089-3.575 3.185-3.575 2.094 0 3.226 1.611 3.226 3.575v10.43c0 2.011 1.441 3.316 3.405 3.316s3.271-1.352 3.271-3.316v-10.43c0-1.964 1.093-3.575 3.185-3.575 2.094 0 3.232 1.611 3.232 3.575v10.43c0 2.011 1.435 3.316 3.4 3.316 1.961 0 3.273-1.352 3.273-3.316v-10.43c0-1.964 1.092-3.575 3.186-3.575 2.093 0 3.229 1.611 3.229 3.575v11.87c0 4.361-3.507 7.416-7.727 7.416-4.215 0-6.855-2.916-6.855-2.916-1.403 1.819-3.337 2.912-6.61 2.912-3.454 0-6.477-2.912-6.477-2.912-1.404 1.819-3.794 2.912-5.773 2.912-3.061 0-5.492-1.346-6.975-4.737l-4.381-10.33zm138.8-1.3v.018c0 1.459 1.184 2.688 2.672 2.688a2.669 2.669 0 0 0 2.677-2.677v-.011c0-1.464-1.181-2.693-2.677-2.693a2.661 2.661 0 0 0-2.672 2.675m4.835.018v.007c0 1.2-.927 2.184-2.163 2.184-1.225 0-2.166-1.001-2.166-2.191v-.014c0-1.197.93-2.181 2.166-2.181 1.221 0 2.163.999 2.163 2.195"/><path d="M448.58 293.2c0 .159.127.286.288.286h.892c.336 0 .595-.095.756-.265a.805.805 0 0 0 .227-.59v-.008c0-.408-.206-.657-.517-.788l.394-.48c.055-.072.092-.131.092-.219a.266.266 0 0 0-.27-.262c-.127 0-.213.065-.28.147l-.555.702h-.455v-.564a.28.28 0 0 0-.283-.284.284.284 0 0 0-.288.284v2.041zm1.148-.972c.278 0 .431.145.431.366v.009c0 .241-.164.371-.441.371h-.569v-.745h.579z"/></g></g></svg>