
<svg xmlns="http://www.w3.org/2000/svg" version="1.1" xmlns:xlink="http://www.w3.org/1999/xlink" preserveAspectRatio="none" x="0px" y="0px" width="550px" height="400px" viewBox="0 0 550 400">
<defs>
<g id="Layer0_0_FILL">
<path fill="#346DBE" stroke="none" d="
M 234.65 112
Q 226.2 111.75 218.5 106.9 211.8 102.6 208.05 96.3
L 207.85 136.1 225.15 136.1 225.2 147.1 207.8 147.1 207.35 234.05 237.35 115.5
Q 235.86875 113.8611328125 234.65 112 Z"/>

<path fill="#EC7617" stroke="none" d="
M 387 121.85
Q 378.4 128.8 366.95 128.8 366.4 128.8 365.9 128.8 356.45 138.25 343.05 138.25 338 138.25 333.55 136.9 326.65 140.65 318.25 140.65 304.85 140.65 295.35 131.15 290.2 126 287.85 119.65 279.65 117.55 273.25 111.15 267.6 105.5 265.35 98.5
L 256.4 137.3 273.3 141.1 270.9 151.85 253.95 148 223.7 278.85 234.4 281.35
Q 237.45 276.75 241.6 272.6 257.7 256.5 280.45 256.5 303.2 256.5 319.3 272.6 332.95 286.25 335.05 304.75
L 344.3 306.9 374.7 175.3 356.7 171.2 359.1 160.45 377.15 164.55 387 121.85
M 346.05 157.5
L 343.65 168.25 320.65 163.05 323.05 152.3 346.05 157.5
M 309.55 149.25
L 307.15 160 284.15 154.8 286.55 144.05 309.55 149.25 Z"/>
</g>

<g id="Layer0_1_FILL">
<path fill="#7FD858" stroke="none" d="
M 187.3 127.1
Q 185.8 126 184.5 124.7 177.6 125.95 170.5 123.4 164.3 121.1 160.1 116.6
L 166.9 148.95 181 145.95 183 154.85 168.85 157.95 183.75 228.75 187.3 127.1 Z"/>
</g>

<path id="Layer0_0_1_STROKES" stroke="#EC7617" stroke-width="7" stroke-linejoin="round" stroke-linecap="round" fill="none" d="
M 257.25 80.3
L 209.7 289.2 238.425 295.775
Q 241.66953125 288.08046875 248.05 281.7 261 268.75 279.35 268.75 297.7 268.75 310.65 281.7 323.6 294.65 323.6 313 323.6 314.1314453125 323.55 315.25
L 353.1 322 401 113.9 381.775 109.4
Q 380.9431640625 110.4568359375 379.95 111.45 373.65 117.75 364.75 117.75 362.5109375 117.75 360.425 117.35 359.784375 118.115625 359.05 118.85 352.75 125.15 343.85 125.15 337.7109375 125.15 332.8 122.15 326.7638671875 127.65 318.45 127.65 309.55 127.65 303.25 121.35 297.9703125 116.0703125 297.15 109 288.25 109 281.95 102.7 276.3 97.05 275.75 89.35 275.65 88.45 275.65 87.5 275.65 86.03515625 275.825 84.65
L 257.25 80.3 Z"/>

<path id="Layer0_0_2_STROKES" stroke="#EC7617" stroke-width="0.1" stroke-linejoin="round" stroke-linecap="round" fill="none" d="
M 223.7 278.85
L 234.4 281.35
Q 237.45 276.75 241.6 272.6 257.7 256.5 280.45 256.5 303.2 256.5 319.3 272.6 332.95 286.25 335.05 304.75
L 344.3 306.9 374.7 175.3 356.7 171.2 359.1 160.45 377.15 164.55 387 121.85
Q 378.4 128.8 366.95 128.8 366.4 128.8 365.9 128.8 356.45 138.25 343.05 138.25 338 138.25 333.55 136.9 326.65 140.65 318.25 140.65 304.85 140.65 295.35 131.15 290.2 126 287.85 119.65 279.65 117.55 273.25 111.15 267.6 105.5 265.35 98.5
L 256.4 137.3 273.3 141.1 270.9 151.85 253.95 148 223.7 278.85 Z
M 323.05 152.3
L 346.05 157.5 343.65 168.25 320.65 163.05 323.05 152.3 Z
M 286.55 144.05
L 309.55 149.25 307.15 160 284.15 154.8 286.55 144.05 Z"/>

<path id="Layer0_0_3_STROKES" stroke="#346DBE" stroke-width="4" stroke-linejoin="round" stroke-linecap="round" fill="none" d="
M 241.4 99.55
Q 232.7 101.5 225.15 96.75 218.45 92.5 216.2 85.05 215.9 84.25 215.7 83.3 215.35 81.9 215.25 80.5
L 196.15 80.3 195.675 280.05"/>

<path id="Layer0_0_4_STROKES" stroke="#346DBE" stroke-width="0.1" stroke-linejoin="round" stroke-linecap="round" fill="none" d="
M 234.65 112
Q 226.2 111.75 218.5 106.9 211.8 102.6 208.05 96.3
L 207.85 136.1 225.15 136.1 225.2 147.1 207.8 147.1 207.35 234.05 237.35 115.525
Q 235.86875 113.8611328125 234.65 112 Z"/>

<path id="Layer0_1_1_STROKES" stroke="#7FD858" stroke-width="3" stroke-linejoin="round" stroke-linecap="round" fill="none" d="
M 187.8 113.35
Q 181.1 116.5 174.1 114 167.9 111.65 164.75 106 164.35 105.4 164.05 104.7 163.5 103.6 163.2 102.45
L 147.6 105.7 182.35 268.2"/>

<path id="Layer0_1_2_STROKES" stroke="#7FD858" stroke-width="0.1" stroke-linejoin="round" stroke-linecap="round" fill="none" d="
M 184.5 124.7
Q 177.6 125.95 170.5 123.4 164.3 121.1 160.1 116.6
L 166.9 148.95 181 145.95 183 154.85 168.85 157.95 183.75 228.75 187.3 127.1
Q 185.8 126 184.5 124.7 Z"/>
</defs>

<g transform="matrix( 1, 0, 0, 1, 0,0) ">
<use xlink:href="#Layer0_0_FILL"/>

<use xlink:href="#Layer0_0_1_STROKES"/>

<use xlink:href="#Layer0_0_2_STROKES"/>

<use xlink:href="#Layer0_0_3_STROKES"/>

<use xlink:href="#Layer0_0_4_STROKES"/>
</g>

<g transform="matrix( 1, 0, 0, 1, 0,0) ">
<use xlink:href="#Layer0_1_FILL"/>

<use xlink:href="#Layer0_1_1_STROKES"/>

<use xlink:href="#Layer0_1_2_STROKES"/>
</g>
</svg>
