<svg xmlns="http://www.w3.org/2000/svg" viewBox="0 0 48 48"><style>.vulkan_svg__st0{fill:#a41e22}</style><path d="M26.822 30.24h-1.751v-5.596c.56.31 1.298.884 1.751 1.437zM12.056 30.24H9.873l-2.848-8.801H9.01l1.958 6.186h.026l1.985-6.186h1.997zM20.843 30.24h-1.665v-.89h-.035q-.334.558-.862.803c-.528.245-.716.246-1.083.246q-.705.002-1.152-.186-.451-.186-.707-.522c-.256-.336-.294-.5-.363-.824s-.103-.686-.103-1.078v-3.922h1.751v3.598q0 .79.246 1.178c.246.388.457.388.876.388q.712 0 1.035-.427c.323-.427.32-.75.32-1.398v-3.339h1.75zM29.316 23.863h2.07l-2.402 2.343 2.674 4.033h-2.122l-2.425-3.835-.004-.246zM31.978 25.826q.038-.614.31-1.022c.272-.408.41-.488.69-.652s.596-.28.945-.35.7-.103 1.053-.103q.481-.001.975.07c.494.07.63.133.901.262q.407.2.665.548c.258.348.259.544.259.932v3.318q.001.435.047.824.05.395.173.59h-1.778a2.4 2.4 0 0 1-.125-.616c-.28.289-.608.487-.988.604s-.763.172-1.16.172q-.454-.001-.85-.112c-.396-.111-.492-.19-.69-.345s-.354-.354-.462-.591a2 2 0 0 1-.168-.85q.001-.543.19-.893a1.64 1.64 0 0 1 .491-.56q.304-.21.69-.316c.387-.106.518-.125.782-.168q.395-.059.776-.1c.381-.04.479-.06.677-.111q.297-.073.47-.216c.174-.143.169-.233.16-.414q.001-.286-.095-.449-.09-.168-.246-.259c-.156-.09-.22-.103-.358-.125s-.28-.03-.435-.03q-.518 0-.816.22c-.298.22-.31.393-.345.738zm4.042 1.294a.9.9 0 0 1-.276.155 2 2 0 0 1-.358.091c-.13.026-.26.043-.402.06-.138.018-.28.04-.418.06-.13.027-.259.057-.388.1s-.238.095-.332.168a.8.8 0 0 0-.23.264.9.9 0 0 0-.085.405c0 .155.03.29.086.393.056.107.138.19.233.254q.15.09.345.13c.195.04.267.038.406.038q.517.001.802-.172c.285-.173.328-.255.418-.414s.147-.324.164-.488q.032-.248.03-.392zM38.906 23.863h1.665v.889h.035q.331-.556.862-.807c.531-.25.717-.254 1.083-.254q.705 0 1.152.19.448.194.708.53c.26.336.293.5.362.824s.103.686.103 1.078v3.922h-1.751v-3.598q0-.79-.246-1.178c-.246-.388-.457-.388-.876-.388-.479 0-.82.142-1.035.427s-.32.75-.32 1.398v3.339h-1.75zM22.004 22.763v7.472h1.751v-6.506a22 22 0 0 0-1.751-.966" class="vulkan_svg__st0"/><path d="M4.144 23.082c1.013-2.972 7.079-4.064 13.55-2.433 3.883.975 7.053 2.869 9.124 4.741-.936-2.485-5.496-6.022-11.769-7.234C7.953 16.784.956 17.992.09 21.136c-.626 2.274 2.122 4.94 6.367 6.76-1.907-1.544-2.834-3.278-2.312-4.814M26.827 24.307v-2.873h-1.752v.872c.747.668 1.338 1.346 1.752 2.001M48 29.303c0 .53-.414.945-.958.945a.946.946 0 0 1-.962-.945c0-.518.427-.932.962-.932.54 0 .958.414.958.932m-1.678 0c0 .414.306.746.729.746.41 0 .712-.327.712-.737 0-.414-.302-.75-.717-.75-.418 0-.724.331-.724.741m.573.492h-.215v-.932c.086-.017.207-.03.358-.03.177 0 .254.03.323.069.052.039.09.112.09.207 0 .103-.077.181-.193.216v.013c.09.034.142.103.172.228.03.143.048.199.07.233h-.234c-.03-.034-.047-.12-.073-.228-.017-.104-.073-.147-.194-.147h-.104zm.005-.53h.103c.121 0 .216-.04.216-.139 0-.086-.06-.142-.198-.142a.4.4 0 0 0-.121.013z" class="vulkan_svg__st0"/></svg>
