<svg xmlns="http://www.w3.org/2000/svg" viewBox="0 0 48 48"><path d="M14.63 1a2.09 2.09 0 0 0-1.77-1H2.1A2.1 2.1 0 0 0 0 2.1a2.12 2.12 0 0 0 .32 1.12l2.77 4.07 13.85-3z" style="fill:#c9f4ff" transform="translate(0 3.367) scale(1.1429)"/><path d="M17 4.37a2.11 2.11 0 0 0-1.78-1H4.5a2.09 2.09 0 0 0-1.84 3.24l3.09 4.9 14.31-2.24z" style="fill:#51b9ff" transform="translate(0 3.367) scale(1.1429)"/><path d="M6.423 16.294a2.446 2.446 0 0 1-.217-2.15 2.412 2.412 0 0 1 2.286-1.53h12.252a2.4 2.4 0 0 1 2.034 1.142l11.006 17.452a2.423 2.423 0 0 1 .366 1.28 2.457 2.457 0 0 1-.366 1.28l-6.149 9.75a2.412 2.412 0 0 1-4.068 0zm30.996 5.577a2.412 2.412 0 0 0 4.068 0l2.115-3.349 4.034-6.4a2.423 2.423 0 0 0 .366-1.28 2.457 2.457 0 0 0-.366-1.28l-3.2-5.052a2.412 2.412 0 0 0-2.034-1.143H30.104a2.4 2.4 0 0 0-2.4 2.4 2.286 2.286 0 0 0 .377 1.28z" style="fill:#007bfc"/></svg>