<svg xmlns="http://www.w3.org/2000/svg" viewBox="0 0 48 48"><path d="M14.63 4a2.09 2.09 0 0 0-1.77-1H2.1A2.1 2.1 0 0 0 0 5.1a2.12 2.12 0 0 0 .32 1.12l2.21 3.5 14.31-2.24z" style="fill:#007bfc" transform="translate(0 -.238) scale(1.1429)"/><path d="M16.84 7.48a2.1 2.1 0 0 0-1.78-1H4.31a2.1 2.1 0 0 0-2.1 2.1 2 2 0 0 0 .32 1.12l3.09 4.9 14.31-2.24z" style="fill:#51b9ff" transform="translate(0 -.238) scale(1.1429)"/><path d="M6.423 16.47a2.286 2.286 0 0 1-.366-1.28 2.4 2.4 0 0 1 2.4-2.4h12.287a2.4 2.4 0 0 1 2.034 1.144l10.995 17.452a2.286 2.286 0 0 1 .377 1.28 2.366 2.366 0 0 1-.377 1.28l-6.138 9.749a2.412 2.412 0 0 1-4.068 0zm30.996 5.224a2.412 2.412 0 0 0 4.068 0l2.115-3.349 4.034-6.4a2.423 2.423 0 0 0 .366-1.28 2.457 2.457 0 0 0-.366-1.28l-3.2-5.052a2.412 2.412 0 0 0-2.034-1.143H30.104a2.4 2.4 0 0 0-2.4 2.4 2.286 2.286 0 0 0 .377 1.28z" style="fill:#fff"/></svg>