<svg xmlns="http://www.w3.org/2000/svg" xml:space="preserve" fill-rule="evenodd" stroke-linecap="round" stroke-linejoin="round" stroke-miterlimit="1.5" clip-rule="evenodd" viewBox="0 0 48 48"><g transform="translate(-3.873 -23.069) scale(.00601)"><circle cx="4637.2" cy="7830.9" r="3948.7" fill="none"/><clipPath id="watchtower_svg__a"><circle cx="4637.2" cy="7830.9" r="3948.7"/></clipPath><g clip-path="url(#watchtower_svg__a)"><circle cx="4637.2" cy="7830.9" r="3948.7" fill="#406170" transform="matrix(1.1185 0 0 1.2291 -549.48 -1398.6)"/><path fill="#acbfc7" d="M556.454 6791.422 529.681 9156.19l3832.034-774.093 4.45-604.013z"/><ellipse cx="5203.2" cy="7389.3" fill="#acbfc7" rx="173.81" ry="391.61" transform="matrix(-.56136 0 0 .77045 7280.456 2386.316)"/><path fill="#acbfc7" d="m8811.458 6791.399 26.773 2364.768-3832.034-774.093-4.45-604.013z"/><ellipse cx="5203.2" cy="7389.3" fill="#acbfc7" rx="173.81" ry="391.61" transform="matrix(.56136 0 0 .77045 2087.756 2386.293)"/><path fill="#003343" d="M5138.778 8826.299h-902.072L4347.68 7626.98h680.14z"/><path fill="#fff" d="M6286.454 7221.737H3077.062v2019.669h3209.392zm-83.882 113.538H5294.07V8764.32h908.502zm-2131.152 0h-908.5v1427.25h908.501zm1129.395 0H4165.852v1427.25h1034.963z"/><path fill="#003343" d="m7195.08 9309.224-900.54 460.708 216.777 1502.046c-22.7 10.257-538.138 442.974-1840.918 463.392-20.893.384-15.687-2507.532-15.687-2507.532l2538.838 11.782z"/><path fill="#003343" d="m2162.955 9309.754 901.637 464.288-217.041 1513.72c22.728 10.336 538.793 446.416 1843.16 466.993 20.919.386 15.706-2527.02 15.706-2527.02l-2541.93 11.873zm2514.541-2991.721 1775.96 872.109h-3551.92z"/><path fill="#003343" d="M2253.636 8868.785h72.162v396.016h-72.162zm787.767 0h72.162v396.016h-72.162zm3201.95 0h72.162v396.016h-72.162zm-1120.8 0h72.162v396.016h-72.162zm-944.7 0h72.162v396.016h-72.162zm2853.2 0h72.162v396.016h-72.162z"/><path fill="#003343" d="M2255.344 8868.81h4848.25v84.24h-4848.25zm643.29-1680.356h3554.275v63.422H2898.634z"/><path fill="#fff" d="M6299.863 9790.731H3059.079l-98.923 723.703h3439.982zm213.44 1479.439H2854.815l-99.497 733.718h3837.665z"/></g><circle cx="4637.2" cy="7830.9" r="3948.7" fill="none" stroke="#304954" stroke-width="88.34"/></g></svg>