<svg xmlns="http://www.w3.org/2000/svg" viewBox="0 0 48 48"><path d="m8.197 28.669 2.31-7.56H9.065l-1.582 5.187-1.596-5.187h-1.26l-1.596 5.187-1.581-5.19H0l2.31 7.563h1.176l1.772-5.474 1.763 5.474zm12.567-6.251h3.898l-4.29 6.02v.23h6.404V27.36h-4.073l4.283-6.013v-.238h-6.222zm-3.308-.512c-.648-.676-1.533-1.032-2.573-1.032-2.202 0-3.862 1.729-3.862 4.021 0 2.293 1.66 4.021 3.862 4.021 1.038 0 1.922-.354 2.573-1.025v.867h1.48v-7.725h-1.48zm-2.422 5.618c-1.454 0-2.51-1.106-2.51-2.629 0-1.518 1.056-2.62 2.51-2.62 1.449 0 2.5 1.102 2.5 2.62 0 1.523-1.051 2.629-2.5 2.629zm18.846-2.136c0 1.357-.746 2.135-2.048 2.135-1.307 0-2.056-.778-2.056-2.135v-4.355h-1.48v4.474c0 2.516 1.905 3.41 3.536 3.41 1.628 0 3.529-.894 3.529-3.41v-4.474h-1.48zm10.038-1.731a4.594 4.594 0 0 0-.238-.945 3.063 3.063 0 0 0-.508-.892 2.441 2.441 0 0 0-.864-.662c-.355-.168-.794-.252-1.316-.252-.681 0-1.262.147-1.743.441a2.87 2.87 0 0 0-.756.67v-2.934h-1.309v9.586h1.484v-3.934c0-.448.05-.828.15-1.141.101-.313.239-.565.414-.756s.379-.33.612-.416c.233-.087.48-.13.742-.13.401 0 .727.082.977.245s.443.378.58.644c.138.266.232.554.28.864.05.31.074.613.074.907v3.717h1.484v-4.2a6.11 6.11 0 0 0-.063-.812z"/><circle r="55.013" fill="#007aff" transform="translate(46.806 27.626) scale(.02169)"/></svg>