<svg xmlns="http://www.w3.org/2000/svg" viewBox="0 0 48 48"><g fill-rule="evenodd"><path fill="#32324b" d="M13.94 26.969 38.558 5.12a24.137 24.137 0 0 0-6.524-3.635l-18.09 16.058v9.425zm-7.073-3.147L.198 29.744a23.804 23.804 0 0 0 2.896 6.852l3.773-3.347v-9.43z"/><path fill="#00d2ff" d="M27.108 5.86V.246a24.447 24.447 0 0 0-7.073.022v11.869zm0 33.013V15.281l-7.073 6.288V47.73c1.18.176 2.383.27 3.616.27 1.44 0 2.846-.145 4.218-.386L46.81 30.787a23.925 23.925 0 0 0 .763-10.111L27.086 38.827z"/><path fill="#ff4b19" d="m27.108 31.945 18.978-16.84a23.344 23.344 0 0 0-3.636-6.187L27.115 22.525v9.422zM20.035 28.8l-6.09 5.407V2.02a24.267 24.267 0 0 0-7.078 4.728v34.498a23.978 23.978 0 0 0 5.368 3.9l7.8-6.919z"/></g></svg>