<svg xmlns="http://www.w3.org/2000/svg" viewBox="0 0 48 48"><path fill="#6891ce" d="M33.121 46.075a7.3 7.3 0 0 1-2.539-.742c-.522-.259-.727-.377-4.482-2.6l-2.432-1.438-3.273 1.828c-3.495 1.951-3.83 2.128-4.42 2.333-.737.257-1.152.329-2.065.358-.748.023-.945.012-1.481-.083-1.385-.244-2.67-.767-3.72-1.513-.53-.376-1.457-1.357-1.818-1.922a8.7 8.7 0 0 1-1.377-5.13c.016-.37.043-.756.06-.858.026-.155.016-.192-.059-.218a11.4 11.4 0 0 1-1.504-.722c-.664-.39-1.07-.709-1.67-1.313C.473 32.18-.31 29.795.11 27.257c.226-1.374.72-2.616 1.445-3.635.348-.49 1.092-1.246 1.584-1.61.357-.265 3.833-2.413 5.898-3.645l.832-.496-.034-3.983c-.036-4.342-.026-4.6.217-5.581.349-1.403 1.05-2.606 2.188-3.757 1.345-1.36 2.69-2.102 4.337-2.394.834-.148 2.282-.114 3.12.073a10 10 0 0 1 3.738 1.732l.322.239.47-.364c1.264-.98 2.5-1.544 4.019-1.831.76-.144 2.26-.157 2.933-.027 1.677.327 3.077 1.113 4.352 2.445 1.277 1.334 2 2.75 2.303 4.51.106.617.11 1.483.024 5.59-.041 2.006-.05 3.293-.024 3.32.08.08 1.437.885 3.631 2.152 3.305 1.91 3.491 2.035 4.323 2.904 1.068 1.114 1.768 2.522 2.093 4.208.146.763.16 2.236.026 2.882-.277 1.335-.815 2.447-1.736 3.586-.908 1.124-2.278 2.1-3.677 2.618l-.431.16-.009 1.29c-.01 1.416-.058 1.78-.372 2.803-.488 1.59-1.545 3.114-2.797 4.031-.556.408-1.524.9-2.253 1.147-1.231.417-2.38.564-3.51.45zm1.969-5.244c.838-.294 1.381-.848 1.746-1.784.162-.417.2-1.074.088-1.532-.281-1.154-.796-1.568-4.965-3.997-3.84-2.236-3.966-2.316-4.414-2.807-.478-.523-.668-.996-.668-1.665 0-.51.134-.943.435-1.411.296-.46.544-.689.98-.905.46-.23.922-.306 1.401-.233.781.12.784.122 4.998 2.55 1.727.995 3.305 1.883 3.507 1.973.651.29 1.325.44 1.982.443.55.001.589-.005.902-.159.617-.303 1.31-1.145 1.522-1.85.202-.667.17-1.426-.082-1.982-.227-.5-.767-1.004-1.756-1.64-.407-.261-3.677-2.184-5.787-3.403-1.732-1-2.022-1.238-2.33-1.911-.325-.713-.323-.665-.274-5.153.024-2.209.028-4.341.009-4.738-.063-1.29-.248-1.86-.785-2.417-1.064-1.105-3.084-1.165-4.091-.123-.467.483-.74 1.07-.927 1.992-.09.441-.099.767-.141 4.83-.035 3.349-.061 4.454-.113 4.78-.182 1.125-.959 1.993-1.99 2.22-1.571.346-2.972-.615-3.24-2.223-.06-.364-.064-.986-.03-4.356.023-2.163.024-4.269.004-4.68-.064-1.318-.245-1.88-.785-2.44-1.064-1.105-3.084-1.165-4.092-.123-.465.482-.737 1.065-.927 1.992-.092.446-.1.723-.134 4.954-.024 2.993-.054 4.559-.09 4.715-.211.923-.693 1.598-1.481 2.074l-1.641.992c-.725.438-2.052 1.228-2.948 1.756-2.36 1.389-2.973 1.802-3.412 2.3-.375.426-.557.96-.558 1.638-.001.762.332 1.522.94 2.143.732.748 1.596.85 3.078.36.595-.197 1.109-.468 3.02-1.596a156 156 0 0 1 3.67-2.125c1.09-.614 1.418-.753 1.983-.838.995-.15 1.835.24 2.409 1.117.347.53.464.943.438 1.548-.016.403-.04.506-.196.845-.186.407-.569.876-.922 1.128-.296.211-1.007.627-3.451 2.018-2.727 1.552-3.336 1.915-4.05 2.418-.876.615-1.215 1.036-1.417 1.76-.125.45-.08 1.248.093 1.647.28.647.907 1.319 1.49 1.599.317.151.762.269 1.02.269.492 0 1.436-.29 2.145-.66.5-.26 2.432-1.342 4.65-2.602 2.785-1.583 2.883-1.627 3.69-1.632.804-.005 1.298.173 2.59.935 6.1 3.596 6.786 3.97 7.517 4.106.41.076.972.029 1.39-.118z" style="paint-order:stroke fill markers"/></svg>