<svg xmlns="http://www.w3.org/2000/svg" viewBox="0 0 48 48"><path fill="#5da7fb" d="M32.243 11.496h5.813a2.575 2.575 0 0 1 2.543 2.543v5.812a2.53 2.53 0 0 1-4.288 1.816l-5.813-5.813a2.523 2.523 0 0 1 1.745-4.358" data-name="Path 24186"/><path fill="#fc1859" d="M19.454 25.518h-4.14a4.403 4.403 0 0 1-4.431-4.431v-7.048a2.575 2.575 0 0 0-2.545-2.543H2.526A2.53 2.53 0 0 0 .71 15.784l2.258 2.252 3.624 3.624 8.21 8.137 3.996 3.996 1.816 1.89a2.506 2.506 0 0 0 4.287-1.817v-5.805a2.575 2.575 0 0 0-2.543-2.543z" data-name="Path 24187"/><path fill="#995dff" d="M35.148 25.518h-4.14a4.403 4.403 0 0 1-4.431-4.431v-7.048a2.575 2.575 0 0 0-2.545-2.543H18.22a2.53 2.53 0 0 0-1.816 4.288l2.258 2.252 3.624 3.624 8.212 8.216 5.885 5.885a2.506 2.506 0 0 0 4.288-1.816v-5.81a2.575 2.575 0 0 0-2.543-2.543h-2.98z" data-name="Path 24188"/><g fill="#995dff" data-name="Group 26611"><path d="M44.956 34.165h-.798v2.253h-.291v-2.253h-.8v-.29h1.961v.29z" data-name="Path 24189"/><path d="M45.39 33.946h.437l.872 1.962.864-1.962H48v2.47h-.29v-2.107l-.945 2.107h-.145l-.872-2.107v2.107h-.29v-2.47z" data-name="Path 24190"/></g></svg>