
<svg xmlns="http://www.w3.org/2000/svg" version="1.1" xmlns:xlink="http://www.w3.org/1999/xlink" preserveAspectRatio="none" x="0px" y="0px" width="367px" height="367px" viewBox="0 0 367 367">
<defs>
<g id="Layer0_0_FILL">
<path fill="#88161A" stroke="none" d="
M 210.15 295.35
Q 208.934765625 279.175 220 263 185.55 272.3166015625 172.05 299.45 188.1236328125 295.074609375 210.15 295.35
M 373.15 48.5
L 370.55 45.55 348.1 45.55
Q 347.2 44.65 346.3 43.8 343.35 41.15 340.3 38.7 338.25 36.95 336.1 35.4 333.95 33.75 331.7 32.25 329.4 30.75 327.05 29.45 324.65 27.95 322.15 26.6 319.65 25.2 317.05 24.1 314.4 23 311.65 22.15 303.7 20.45 295.65 19.55
L 286.85 19.55 295.9 27.1 279.3 27.1
Q 272.26875 29.03125 279.3 31.9 282.2 33.25 284.6 34.9 286.2 36.05 287.35 37.7 288.45 39.3 287.3 41.05 286.3 42.5 284.65 43.2 283.75 43.55 282.85 43.95 279.1 45.3 275.3 46.05 273.6 46.3 272.05 46.05 266.1 45 260.25 43.45 252.05 42.3888671875 243.85 43.45 253.2916015625 50.76640625 258.35 59.6 261.2310546875 62.95 258.35 66.3 251.3705078125 73.499609375 238.65 75.75 235.0423828125 78.675 238.65 81.6
L 270.1 84.35
Q 272.246875 86.3064453125 270.1 88.95
L 262.3 94.65 272.4 94.65
Q 274.3 95.8 276.25 97 281.7 100.3 287 103.9 293.45 108.3 299.8 113 305.5 117.25 310.8 122 315.45 126.25 319.85 130.85 323.9 135.05 327.35 139.65 331.85 145.65 334.9 152.55 337.6 158.65 338.35 165.2 339.2 172.6 337.35 179.75 335.35 187.3 330.8 193.9 326.4 200.35 320.7 205.8 315.2 211.1 309.15 215.45 303.5 219.4 297.85 222.95 293.05 225.85 287.85 227.5 281.55 229.35 275 231.05 268.75 232.8 262.75 235.75 256.7 238.6 251.25 242.45 245.65 246.5 240.75 251.35 235.2 256.9 230.7 263.45 226.4 269.7 223.55 276.75 220.7 283.75 219.15 291.2 217.6 298.85 217.65 306.85 217.7 314.7 219.15 322.55 220.55 329.95 223.4 337.05 226.2 344.15 230.6 350.35 235.1 356.8 240.7 362.35 244.95 366.55 249.75 370.25 255.9 375.05 262.7 378.2 269.6 381.4 276.9 383.25 284.35 385.05 292.25 385.4 298.25 385.65 304.3 385.1 312 384.4 319.4 382.25 326.55 380 333.25 376.4 340.05 372.85 345.85 367.75 348.85 365.1 351.75 362.35 356.1 358.25 359.7 353.45 364.3 347.45 367.6 340.55 370.8 333.7 372.55 326.3 374.35 318.85 374.75 310.95 375.05 304.95 374.55 298.9 373.9 291.25 371.7 283.85 369.55 276.75 365.95 269.95 362.3 263.1 357.25 257.2 352.25 251.35 346.4 246.3
L 306.85 265.65
Q 314.25 267.8 320.25 272.5 325.45 276.65 329.3 282.15 333.8 288.65 335.15 296.35 336.4 303.4 335.5 310.5 334.5 318.1 330.3 324.95 326.65 330.95 321.2 335.55 315.2 340.6 307.6 342.9 301.8 344.7 295.75 344.65 287.7 344.55 280.35 341.6 273 338.6 267.3 332.8 261.75 327.15 258.65 319.75 255.5 312.3 255.5 304.35 255.55 296.35 258.65 289 261.7 281.7 267.45 276.05 272.5 271 278.9 268.1 283.75 265.9 288.35 263.6 293.45 261 298.5 258.3 303.3 255.75 308.05 253.15 314.7 249.4 321.2 245.3 327.25 241.45 332.95 237.25 338.25 233.35 343.3 229.2 349.45 224.15 355 218.35 359.95 213.2 364.2 207.35 368.05 202 370.9 196.25 374.2 189.5 375.8 182.2 377.3 175.2 376.9 168 376.5 160.6 374.2 153.6 372.25 147.55 369.3 141.9 366.1 135.7 361.9 130.05 357.2 123.7 351.85 118.1 347.35 113.5 342.75 109.1 337.8 104.3 332.45 99.95 326.55 95.2 320.55 90.8 316.2 87.7 311.85 84.6 301.6798828125 71.7392578125 327.75 67.15
L 353.35 67.15
Q 361.04609375 78.3921875 367.2 63.8
L 367.2 61.7 341.8 61.7
Q 334.0888671875 58.65 341.8 55.6
L 371.8 55.6
Q 381.0763671875 58.5982421875 373.15 48.5
M 330.4 43.4
Q 332.55 43.4 334.05 44.45 335.55 45.55 335.55 47.1 335.55 48.65 334.05 49.7 332.55 50.8 330.4 50.8 328.25 50.8 326.75 49.7 325.25 48.65 325.25 47.1 325.25 45.55 326.75 44.45 328.25 43.4 330.4 43.4 Z"/>
</g>

<g id="Layer0_1_FILL">
<path fill="#88161A" stroke="none" d="
M 329.75 175.4
Q 330.75 172.8 330.7 170.25 330.6 163.35 328.25 157.05 326 150.95 322.3 145.7 318.75 140.7 314.2 136.6 308.65 131.7 302.55 127.9 296.55 124.15 289.75 121.8 282.9 119.45 275.8 118.4 268.3 117.35 260.8 117.7 253.45 118.05 246.3 119.8 239.4 121.35 232.9 124.4 226.45 127.55 220.65 131.9 214.7 136.45 209.6 142.05 204.65 147.4 200.8 153.75 197.15 159.75 194.75 166.55 192.4 173.25 191.35 180.45 190.25 187.9 190.65 195.45 191 202.75 192.7 209.95 194.4 217 197.4 223.4 200.5 229.85 204.9 235.55 209.75 241.9 215.6 247.2 220.7 251.7 226.45 255.25
L 257.7 226.05
Q 247.85 224.3 240.35 216.8 230.55 207 230.55 193.1 230.55 179.2 240.35 169.4 250.15 159.6 264.05 159.6 277.95 159.6 287.75 169.4 297.55 179.2 297.55 193.1 297.55 205.55 289.7 214.7 290.55 214.6 291.4 214.55 298.95 213.65 305.45 209.45 310.75 205.95 315 201.1 319.9 195.5 323.55 188.95 327.15 182.4 329.75 175.4 Z"/>
</g>

<path id="Layer0_0_1_STROKES" stroke="#88161A" stroke-width="1" stroke-linejoin="round" stroke-linecap="round" fill="none" d="
M 346.425 246.3
L 306.85 265.65
Q 314.25 267.8 320.25 272.5 325.45 276.65 329.3 282.15 333.8 288.65 335.15 296.35 336.4 303.4 335.5 310.5 334.5 318.1 330.3 324.95 326.65 330.95 321.2 335.55 315.2 340.6 307.6 342.9 301.8 344.7 295.75 344.65 287.7 344.55 280.35 341.6 273 338.6 267.3 332.8 261.75 327.15 258.65 319.75 255.5 312.3 255.5 304.35 255.55 296.35 258.65 289 261.7 281.7 267.45 276.05 272.5 271 278.9 268.1 283.75 265.9 288.35 263.6 293.45 261 298.5 258.3 303.3 255.75 308.05 253.15 314.7 249.4 321.2 245.3 327.25 241.45 332.95 237.25 338.25 233.35 343.3 229.2 349.45 224.15 355 218.35 359.95 213.2 364.2 207.35 368.05 202 370.9 196.25 374.2 189.5 375.8 182.2 377.3 175.2 376.9 168 376.5 160.6 374.2 153.6 372.25 147.55 369.3 141.9 366.1 135.7 361.9 130.05 357.2 123.7 351.85 118.1 347.35 113.5 342.75 109.1 337.8 104.3 332.45 99.95 326.55 95.2 320.55 90.8 316.2 87.7 311.85 84.6 301.6798828125 71.7392578125 327.75 67.15
L 353.35 67.15
Q 361.04609375 78.3921875 367.2 63.8
L 367.2 61.7 341.8 61.7
Q 334.0888671875 58.65 341.8 55.6
L 371.8 55.6
Q 381.0763671875 58.5982421875 373.15 48.5
L 370.55 45.55 348.1 45.55
Q 347.2 44.65 346.3 43.8 343.35 41.15 340.3 38.7 338.25 36.95 336.1 35.4 333.95 33.75 331.7 32.25 329.4 30.75 327.05 29.45 324.65 27.95 322.15 26.6 319.65 25.2 317.05 24.1 314.4 23 311.65 22.15 303.7 20.45 295.65 19.55
L 286.85 19.55 295.9 27.1 279.3 27.1
Q 272.26875 29.03125 279.3 31.9 282.2 33.25 284.6 34.9 286.2 36.05 287.35 37.7 288.45 39.3 287.3 41.05 286.3 42.5 284.65 43.2 283.75 43.55 282.85 43.95 279.1 45.3 275.3 46.05 273.6 46.3 272.05 46.05 266.1 45 260.25 43.45 252.05 42.3888671875 243.85 43.45 253.2916015625 50.76640625 258.35 59.6 261.2310546875 62.95 258.35 66.3 251.3705078125 73.499609375 238.65 75.75 235.0423828125 78.675 238.65 81.6
L 270.1 84.35
Q 272.246875 86.3064453125 270.1 88.95
L 262.3 94.65 272.4 94.65
Q 274.3 95.8 276.25 97 281.7 100.3 287 103.9 293.45 108.3 299.8 113 305.5 117.25 310.8 122 315.45 126.25 319.85 130.85 323.9 135.05 327.35 139.65 331.85 145.65 334.9 152.55 337.6 158.65 338.35 165.2 339.2 172.6 337.35 179.75 335.35 187.3 330.8 193.9 326.4 200.35 320.7 205.8 315.2 211.1 309.15 215.45 303.5 219.4 297.85 222.95 293.05 225.85 287.85 227.5 281.55 229.35 275 231.05 268.75 232.8 262.75 235.75 256.7 238.6 251.25 242.45 245.65 246.5 240.75 251.35 235.2 256.9 230.7 263.45 226.4 269.7 223.55 276.75 220.7 283.75 219.15 291.2 217.6 298.85 217.65 306.85 217.7 314.7 219.15 322.55 220.55 329.95 223.4 337.05 226.2 344.15 230.6 350.35 235.1 356.8 240.7 362.35 244.95 366.55 249.75 370.25 255.9 375.05 262.7 378.2 269.6 381.4 276.9 383.25 284.35 385.05 292.25 385.4 298.25 385.65 304.3 385.1 312 384.4 319.4 382.25 326.55 380 333.25 376.4 340.05 372.85 345.85 367.75 348.85 365.1 351.75 362.35 356.1 358.25 359.7 353.45 364.3 347.45 367.6 340.55 370.8 333.7 372.55 326.3 374.35 318.85 374.75 310.95 375.05 304.95 374.55 298.9 373.9 291.25 371.7 283.85 369.55 276.75 365.95 269.95 362.3 263.1 357.25 257.2 352.25 251.35 346.425 246.3 Z
M 335.55 47.1
Q 335.55 48.65 334.05 49.7 332.55 50.8 330.4 50.8 328.25 50.8 326.75 49.7 325.25 48.65 325.25 47.1 325.25 45.55 326.75 44.45 328.25 43.4 330.4 43.4 332.55 43.4 334.05 44.45 335.55 45.55 335.55 47.1 Z
M 172.05 299.45
Q 185.55 272.3166015625 220 263 208.934765625 279.175 210.15 295.35 188.1236328125 295.074609375 172.05 299.45 Z"/>

<path id="Layer0_1_1_STROKES" stroke="#88161A" stroke-width="1" stroke-linejoin="round" stroke-linecap="round" fill="none" d="
M 289.7 214.7
Q 297.55 205.55 297.55 193.1 297.55 179.2 287.75 169.4 277.95 159.6 264.05 159.6 250.15 159.6 240.35 169.4 230.55 179.2 230.55 193.1 230.55 207 240.35 216.8 247.85 224.3 257.7 226.05
L 226.45 255.25
Q 220.7 251.7 215.6 247.2 209.75 241.9 204.9 235.55 200.5 229.85 197.4 223.4 194.4 217 192.7 209.95 191 202.75 190.65 195.45 190.25 187.9 191.35 180.45 192.4 173.25 194.75 166.55 197.15 159.75 200.8 153.75 204.65 147.4 209.6 142.05 214.7 136.45 220.65 131.9 226.45 127.55 232.9 124.4 239.4 121.35 246.3 119.8 253.45 118.05 260.8 117.7 268.3 117.35 275.8 118.4 282.9 119.45 289.75 121.8 296.55 124.15 302.55 127.9 308.65 131.7 314.2 136.6 318.75 140.7 322.3 145.7 326 150.95 328.25 157.05 330.6 163.35 330.7 170.25 330.75 172.8 329.75 175.4 327.15 182.4 323.55 188.95 319.9 195.5 315 201.1 310.75 205.95 305.45 209.45 298.95 213.65 291.4 214.55 290.55 214.6 289.7 214.7 Z"/>
</defs>

<g transform="matrix( 1, 0, 0, 1, -93.25,-19.55) ">
<use xlink:href="#Layer0_0_FILL"/>

<use xlink:href="#Layer0_0_1_STROKES"/>
</g>

<g transform="matrix( 1, 0, 0, 1, -93.25,-19.55) ">
<use xlink:href="#Layer0_1_FILL"/>

<use xlink:href="#Layer0_1_1_STROKES"/>
</g>
</svg>
