<svg xmlns="http://www.w3.org/2000/svg" viewBox="0 0 48 48"><path fill="#103928" fill-rule="evenodd" d="M40.925 6.975C36.435 2.48 30.463.002 24.101 0 10.99 0 .32 10.669.315 23.783A23.736 23.736 0 0 0 3.49 35.674L.115 48l12.61-3.307a23.754 23.754 0 0 0 11.365 2.894h.01c13.11 0 23.78-10.67 23.786-23.785a23.643 23.643 0 0 0-6.96-16.826zM24.101 43.57h-.008a19.742 19.742 0 0 1-10.062-2.755l-.722-.429-7.483 1.963 1.997-7.296-.47-.748a19.718 19.718 0 0 1-3.022-10.521c.005-10.9 8.873-19.768 19.778-19.768a19.633 19.633 0 0 1 13.976 5.798A19.647 19.647 0 0 1 43.87 23.8c-.005 10.901-8.873 19.769-19.77 19.769zm10.844-14.806c-.594-.298-3.516-1.735-4.061-1.933-.545-.199-.941-.298-1.337.298-.395.595-1.535 1.934-1.882 2.33-.346.397-.693.446-1.287.148-.594-.298-2.51-.925-4.78-2.95-1.766-1.575-2.96-3.521-3.306-4.116-.347-.596-.036-.917.26-1.213.267-.267.594-.694.892-1.041.298-.347.396-.595.594-.991.198-.397.1-.744-.049-1.041-.148-.298-1.337-3.223-1.833-4.413-.482-1.158-.973-1.001-1.336-1.02a22.886 22.886 0 0 0-1.14-.021c-.397 0-1.04.148-1.585.744-.545.595-2.08 2.033-2.08 4.957s2.13 5.752 2.427 6.149c.297.397 4.19 6.399 10.152 8.974a34.08 34.08 0 0 0 3.388 1.252c1.424.453 2.719.389 3.743.236 1.142-.17 3.516-1.438 4.011-2.826.495-1.388.495-2.579.347-2.826-.148-.247-.545-.397-1.14-.695z" clip-rule="evenodd"/></svg>