<svg xmlns="http://www.w3.org/2000/svg" viewBox="0 0 48 48"><defs><linearGradient id="b" x1="85.915" x2="86.535" y1="32.567" y2="137.09" gradientTransform="translate(-1.427 -1.475) scale(.29023)" gradientUnits="userSpaceOnUse"><stop offset="0" stop-color="#57d163"/><stop offset="1" stop-color="#23b33a"/></linearGradient><filter id="a" width="1.115" height="1.114" x="-.057" y="-.057" color-interpolation-filters="sRGB"><feGaussianBlur stdDeviation="3.531"/></filter></defs><path fill="#b3b3b3" d="m54.532 138.45 2.235 1.324c9.387 5.571 20.15 8.518 31.126 8.523h.023c33.707 0 61.139-27.426 61.153-61.135.006-16.335-6.349-31.696-17.895-43.251A60.75 60.75 0 0 0 87.94 25.983c-33.733 0-61.166 27.423-61.178 61.13a60.98 60.98 0 0 0 9.349 32.535l1.455 2.312-6.179 22.558zm-40.811 23.544L24.16 123.88c-6.438-11.154-9.825-23.808-9.821-36.772.017-40.556 33.021-73.55 73.578-73.55 19.681.01 38.154 7.669 52.047 21.572s21.537 32.383 21.53 52.037c-.018 40.553-33.027 73.553-73.578 73.553h-.032a73.537 73.537 0 0 1-35.159-8.954z" filter="url(#a)" transform="translate(-1.427 -1.475) scale(.29023)"/><g stroke-width=".29"><path fill="#fff" d="m2.337 45.321 3.03-11.062a21.309 21.309 0 0 1-2.851-10.672C2.52 11.816 12.1 2.24 23.87 2.24c5.712.003 11.074 2.226 15.106 6.26a21.215 21.215 0 0 1 6.249 15.104C45.22 35.374 35.64 44.95 23.87 44.95h-.01a21.342 21.342 0 0 1-10.204-2.599z"/><path fill="url(#linearGradient1780)" d="M23.877 5.846c-9.79 0-17.752 7.96-17.756 17.742a17.698 17.698 0 0 0 2.713 9.443l.423.671-1.794 6.547 6.718-1.761.649.384a17.725 17.725 0 0 0 9.034 2.474h.006c9.783 0 17.745-7.96 17.75-17.743a17.632 17.632 0 0 0-5.194-12.553 17.632 17.632 0 0 0-12.548-5.204z"/><path fill="url(#b)" d="M23.877 5.846c-9.79 0-17.752 7.96-17.756 17.742a17.698 17.698 0 0 0 2.713 9.443l.423.671-1.794 6.547 6.718-1.761.649.384a17.725 17.725 0 0 0 9.034 2.474h.006c9.783 0 17.745-7.96 17.75-17.743a17.632 17.632 0 0 0-5.194-12.553 17.632 17.632 0 0 0-12.548-5.203z"/><path fill="#fff" fill-rule="evenodd" d="M18.533 14.662c-.4-.888-.82-.906-1.2-.922l-1.023-.012c-.356 0-.934.133-1.423.667s-1.868 1.825-1.868 4.45 1.912 5.162 2.179 5.518c.266.357 3.69 5.915 9.114 8.054 4.507 1.778 5.425 1.424 6.403 1.335.979-.089 3.157-1.29 3.601-2.536.445-1.246.445-2.314.312-2.537s-.49-.356-1.023-.623c-.534-.267-3.157-1.557-3.646-1.736-.49-.178-.845-.266-1.2.268-.357.534-1.378 1.735-1.69 2.091-.311.356-.622.4-1.156.134-.534-.267-2.252-.83-4.29-2.648-1.587-1.414-2.658-3.16-2.97-3.695-.311-.533-.032-.822.235-1.088.24-.24.534-.624.8-.935s.356-.534.534-.89c.177-.355.089-.667-.045-.934-.133-.267-1.17-2.906-1.644-3.96"/></g></svg>