<svg xmlns="http://www.w3.org/2000/svg" viewBox="0 0 48 48"><g transform="translate(-.161 -.161) scale(.04027)"><circle cx="600" cy="600" r="566" fill="#ff69b4" stroke="#333" stroke-width="60" style="paint-order:fill"/><path fill="#333" d="M142.19 966.23q-15.381 0-10.146-22.122 5.007-21.159 28.127-53.858l228.19-267.36q105.18-123.1 160.59-201.96 55.407-78.863 63.146-111.56 3.642-15.388-4.792-23.083-8.433-7.695-21.423-10.581-12.989-2.886-24.953-2.887-72.634-.004-226.19 100.01-43.345 27.89-82.3 62.511t-74.779 74.053q-69.934 78.862-82.68 132.72-9.787 41.356 22.345 50.014 11.907 3.848 28.143 3.849 30.763.002 65.622-17.308 34.86-17.31 70.286-44.238 27.225-21.158 30.643-21.157 3.418 0 .97 6.732-9.906 20.197-33.884 38.47-23.978 18.271-54.851 33.177-30.872 14.906-60.58 23.08-29.705 8.173-51.068 8.172-34.181-.002-55.15-19.72-20.97-19.718-11.866-58.188 13.884-58.668 94.81-144.26 77.682-82.708 178.38-147.14 41.409-26.927 94.21-51.45 52.803-24.522 104.41-40.39 51.609-15.865 89.208-15.863 67.507.004 55.672 50.016-14.34 60.59-130.57 208.7-81.378 101.94-208.6 242.36-105.3 116.37-106.16 116.37 2.563 0 105.48-99.057 63.274-61.55 117.92-110.12 54.647-48.567 100.04-85.112 22.269-18.273 54.39-45.681l74.953-63.954q37.19-30.775 71.735-55.78 34.544-25.003 58.47-25.002 24.78 0 29.285 13.467-104.56 109.64-210.48 268.32-75.564 113.49-89.448 172.15-8.194 34.624 4.4 50.013t39.084 15.39q29.054.003 65.422-18.27 36.37-18.271 74.814-47.122 38.445-28.851 73.3-60.588 124.67-111.56 213.5-241.39 69.415-101.94 83.754-162.54 1.366-5.771 2.077-10.58.71-4.808.766-8.655-17.945-.001-33.446-21.161-10.086-11.542-7.127-24.045 2.73-11.541 13.097-19.235t21.475-7.693q16.236 0 20.057 16.35 1.597 7.695 9.12 19.237 5.015 7.694 3.25 11.542 3.079 8.656 15.042 8.656 11.963.001 25.376-11.54t26.23-11.54q6.836 0 5.47 5.771-2.503 10.58-21.014 20.196-10.138 6.732-22.557 8.655-7.064.962-14.014 1.442-6.95.48-13.331-1.443 1.15 38.47-3.175 56.745-18.208 76.94-112.06 199.08-47.038 61.55-101.88 116.37-54.845 54.818-118.35 102.9-126.61 98.094-206.94 98.09-88.015-.005-66.165-92.335 10.242-43.28 39.565-98.58t64.514-110.12l97.258-150.99q-45.337 32.698-73.73 53.374-28.393 20.677-47.615 35.102-19.223 14.426-36.85 29.332-17.627 14.907-42.288 36.064-27.053 24.043-73.526 68.763-46.473 44.72-110.03 111.08l-131.44 136.57q-11.276 11.54-24.66 21.158-13.386 9.617-24.494 9.616z" style="white-space:pre"/></g></svg>