<svg xmlns="http://www.w3.org/2000/svg" viewBox="0 0 48 48"><path fill="#1c9cf3" d="M24.264 24.393s7.947.286 11.599 3.437c3.651 3.15 6.157 9.165 5.083 14.392-2.148-.502-11.313-2.077-15.036-6.66s-3.58-7.804-3.15-9.737c.43-1.933 1.504-1.432 1.504-1.432"/><path fill="url(#wikijs_svg__a)" d="M62.038 54.454c-.475 2.139-.988 5.498.046 9.953 1.125 4.848 3.801 10.068 8.198 15.31 10.06 11.993 38.391 16.857 38.735 16.932 1.077-6.234.35-12.729-2.175-19.516-2.494-6.704-6.5-12.668-11.279-16.793-9.415-8.121-30.26-8.963-30.469-8.97l-.215-.008-.155-.081c-.002 0-.177-.067-.418-.067-.998 0-1.803 1.15-2.268 3.24z" transform="translate(-.82 5.05) scale(.38187)"/><path fill="#04bbf3" d="M22.187 24.393s1.002 2.076-1.36 5.227c-2.363 3.15-7.304 8.234-19.619 7.16.43-2.936 2.578-5.943 4.94-8.091 2.363-2.148 7.662-4.368 11.17-4.44 3.509-.07 4.869.144 4.869.144"/><path fill="url(#wikijs_svg__b)" d="M47.661 51.007c-4.286.087-10.037 1.469-15.783 3.792-5.597 2.262-10.53 5.127-13.534 7.858-6.762 6.148-11.115 13.417-12.413 19.94 2.596.201 7.447.302 7.447.302 11.549 0 21.195-2.117 29.11-6.626 7.017-3.996 11.231-8.995 13.79-12.407 4.909-6.545 4.149-11.122 3.717-12.555-1.08-.116-3.81-.344-8.669-.344-1.165 0-2.398.013-3.665.04z" transform="translate(-.82 5.05) scale(.38187)"/><path fill="#02bef3" d="M47.247 17.09s-1.432 4.152-8.449 6.157-14.534.716-14.534.716 1.79-4.725 6.945-6.945c5.155-2.22 14.248-.215 16.038.072"/><path fill="url(#wikijs_svg__c)" d="M83.538 32.552C72.55 37.283 67.364 46.439 65.843 49.607c2.266.309 7.463.902 13.983.902 8.656 0 16.566-1.006 23.51-2.99 14.825-4.235 20.235-12.672 21.72-15.505-.243-.043-17.126-3.378-26.758-3.378-6.903 0-10.593 2.121-14.76 3.916z" transform="translate(-.82 5.05) scale(.38187)"/><path fill="#02bef3" d="M22.06 24.632s-10.211-.481-16.205-4.854C-.139 15.405 0 13.964 0 13.964s6.721-.021 10.038 1.175c3.318 1.196 8.53 4.563 12.023 9.493"/><path fill="url(#wikijs_svg__d)" d="M18.403 38.359c6.069 4.428 13.396 7.558 22.006 9.664l.004.001c9.149 1.098 16.735 2.791 18.559 2.947-4.016-5.463-9.015-10.405-14.381-14.518-5.193-3.99-10.674-7.143-15.228-8.942a31.94 31.94 0 0 0-2.662-.915c-8.018-2.397-21.465-2.554-23.533-2.584.509.942 2.299 4.909 15.235 14.347z" transform="translate(-.82 5.05) scale(.38187)"/><path fill="url(#wikijs_svg__e)" d="M60.107 53.87c2.377.304 3.66 5.62 2.862 11.865-.798 6.244-3.376 11.067-5.754 10.763-2.377-.303-3.66-5.62-2.862-11.864.798-6.245 3.376-11.068 5.754-10.764z" transform="translate(-.82 5.05) scale(.38187)"/><path fill="url(#wikijs_svg__f)" d="M63.623 50.523c-7.957 1.497 3.291 37.119 15.337 42.529 23.156 10.401 35.993-9.611 35.993-16.859 0-7.249-31.884-29.326-51.33-25.67z" transform="translate(-.82 5.05) scale(.38187)"/><path fill="url(#wikijs_svg__g)" d="M52.38 60.705c-2.895 5.261 20.366 23.165 30.768 21.166s24.271-12.529 23.192-18.252c-1.079-5.724-19.995-21.583-35.131-15.913-9.929 3.719-15.934 7.738-18.829 12.999z" transform="translate(-.82 5.05) scale(.38187)"/><path fill="url(#wikijs_svg__h)" d="M62.304 63.032c-2.177 5.597 13.08 21.534 23.128 18.182s22.409-15.617 20.586-21.148c-1.824-5.531-22.664-18.761-36.921-11.146-9.352 4.994-4.616 8.515-6.793 14.112z" transform="translate(-.82 5.05) scale(.38187)"/><path fill="url(#wikijs_svg__i)" d="M60.721 60.475c-1.854 4.721 11.081 18.141 19.616 15.304S99.38 62.588 97.838 57.926s-19.221-15.793-31.334-9.357c-7.945 4.221-3.928 7.185-5.783 11.906z" transform="translate(-.82 5.05) scale(.38187)"/><path fill="url(#wikijs_svg__j)" d="M63.547 59.973c-1.577 4.793-19.173 24.596-31.312 27.374-12.14 2.779-24.093-9.922-25.212-15.785C5.904 65.7 24.225 48.99 42.998 47.542c12.314-.95 23.195 4.395 20.549 12.431" transform="translate(-.82 5.05) scale(.38187)"/><path fill="url(#wikijs_svg__k)" d="M63.205 57.315c-1.214 5.58-17.369 27.784-29.357 30.149C21.859 89.832 8.86 73.791 7.281 66.728 5.703 59.665 22.826 41.199 41.586 40.93c12.304-.177 23.656 7.026 21.619 16.385" transform="translate(-.82 5.05) scale(.38187)"/><path fill="url(#wikijs_svg__l)" d="M54.504 60.754c-1.717 3.102-15.803 13.833-23.882 13.516-8.079-.316-13.708-11.577-13.531-15.946S31.346 45.556 43.41 48.065c7.913 1.647 13.974 7.488 11.094 12.689" transform="translate(-.82 5.05) scale(.38187)"/><path fill="url(#wikijs_svg__m)" d="M36.741 55.538c-3.519.436-20.482-4.644-24.978-11.365-4.497-6.719 1.299-17.895 4.937-20.322 3.637-2.426 18.71 4.018 23.777 15.251 3.323 7.368 2.164 15.705-3.736 16.436" transform="translate(-.82 5.05) scale(.38187)"/><path fill="url(#wikijs_svg__n)" d="M98.43 26.371c15.231-2.015 28.385 2.308 29.356 9.649.972 7.34-10.605 14.936-25.836 16.951s-28.384-2.308-29.356-9.648C71.623 35.982 83.2 28.387 98.43 26.371z" transform="translate(-.82 5.05) scale(.38187)"/><path fill="url(#wikijs_svg__o)" d="M101.52 27.364c13.736 1.417 24.292 8.341 23.559 15.452-.734 7.111-12.482 11.734-26.218 10.316-13.737-1.417-24.293-8.341-23.559-15.452s12.481-11.734 26.218-10.316z" transform="translate(-.82 5.05) scale(.38187)"/><path fill="url(#wikijs_svg__p)" d="M91.728 29.668c11.581-1.43 21.601 2.407 22.36 8.562.76 6.154-8.027 12.311-19.608 13.74-11.582 1.429-21.602-2.407-22.361-8.562-.76-6.154 8.027-12.311 19.609-13.74z" transform="translate(-.82 5.05) scale(.38187)"/><path fill="#b3c3ce" d="M22.607 24.539c.008.14.373 2.996-2.097 4.068-1.91.829-4.259 1.238-9.467-1.126-5.208-2.363-7.018-5.796-7.018-5.796s2.913 1.07 4.723 1.204c1.81.134 6.488.802 7.68 1.025 1.191.223 3.31.045 4.104-.133.795-.179 1.986-.67 2.075.758"/><path fill="url(#wikijs_svg__q)" d="M31.065 58.366c13.639 6.189 19.79 5.118 24.792 2.948 6.468-2.809 5.512-10.286 5.49-10.655-.232-3.736-3.352-2.451-5.432-1.984-2.081.467-7.49.137-11.979-.178-5.344-.375-13.969-1.5-18.88-2.158-4.71-.63-12.368-3.153-12.368-3.153s4.74 8.991 18.377 15.18z" transform="translate(-.82 5.05) scale(.38187)"/><path fill="#f5f6f2" d="M21.044 21.939s-1.658-1.311-3.007-2.737c-1.35-1.427-5.706-5.552-6.786-6.67-1.079-1.118-4.01-4.935-4.395-6.555C5.969 7.944 5.391 11.53 6.471 15c1.079 3.47 3.585 5.976 6.9 7.364 3.317 1.388 6.208 1.311 7.018 1.311.81 0 1.928-.54.655-1.735"/><path fill="url(#wikijs_svg__r)" d="M19.467 26.054c2.827 9.086 9.39 15.649 18.073 19.283 8.682 3.636 16.254 3.687 18.375 3.687 1.197 0 4.989-.152 5.177-.714.403-1.211-1.926-2.108-3.375-3.469-3.848-3.042-3.776-3.358-7.961-7.782-3.534-3.736-14.943-14.539-17.769-17.467C29.16 16.664 21.485 6.669 20.476 2.428c-2.322 5.149-3.837 14.539-1.009 23.626Z" transform="translate(-.82 5.05) scale(.38187)"/><path fill="url(#wikijs_svg__s)" d="M105.33 7.54c-3.75 3.375-10.395 7.863-16.77 11.988s-10.5 11.063-15.375 18.375c-4.875 7.313-9.75 10.875-9.75 10.875s7.687 1.125 15 1.125c11.256 0 24-9.375 28.687-14.437 4.688-5.063 7.838-13.31 7.875-21.75.043-9.861-4.519-11.792-4.519-11.792s-1.398 2.241-5.148 5.616z" transform="translate(-.82 5.05) scale(.38187)"/><path fill="url(#wikijs_svg__t)" d="M105.859 6.779c-3.751 3.375-11.298 8.624-17.673 12.749-6.375 4.125-10.5 11.063-15.375 18.375-3.75 5.626-8.444 8.724-10.41 10.329-.59.482-.934 1.765-.934 1.765 6.769.99 8.351-.094 16.594-.094 11.255 0 24-9.375 28.687-14.437 4.688-5.063 7.688-13.313 7.875-21.75.188-8.438-4.125-11.813-4.125-11.813s-.89 1.501-4.639 4.876z" transform="translate(-.82 5.05) scale(.38187)"/><path fill="url(#wikijs_svg__u)" d="M44.632 31.45c8.133 5.258 12.662 12.735 10.107 16.686-2.555 3.952-11.232 2.89-19.364-2.368-8.133-5.259-12.662-12.736-10.107-16.687s11.232-2.89 19.364 2.369z" transform="translate(-.82 5.05) scale(.38187)"/><path fill="url(#wikijs_svg__v)" d="M43.849 30.894c7.726 5.84 12.066 13.139 9.684 16.29s-10.588.968-18.314-4.871-12.065-13.139-9.684-16.29c2.382-3.151 10.588-.968 18.314 4.871z" transform="translate(-.82 5.05) scale(.38187)"/><path fill="url(#wikijs_svg__w)" d="M78.741 36.006c8.038-4.494 15.958-5.648 17.675-2.577 1.716 3.071-3.415 9.212-11.453 13.706-8.038 4.493-15.957 5.648-17.674 2.577s3.415-9.212 11.452-13.706z" transform="translate(-.82 5.05) scale(.38187)"/><path fill="url(#wikijs_svg__x)" d="M81.132 32.187c7.951-4.445 15.94-5.31 17.83-1.93S95.93 39.99 87.979 44.435s-15.94 5.31-17.829 1.93c-1.89-3.38 3.031-9.733 10.982-14.178z" transform="translate(-.82 5.05) scale(.38187)"/><path fill="url(#wikijs_svg__y)" d="M80.126 35.267c7.501-5.169 15.482-6.621 17.812-3.24 2.331 3.381-1.867 10.323-9.367 15.493-7.5 5.169-15.481 6.621-17.812 3.24-2.33-3.381 1.867-10.323 9.367-15.493z" transform="translate(-.82 5.05) scale(.38187)"/><path fill="url(#wikijs_svg__z)" d="M89.308 27.918c2.879-6.448 7.508-10.659 10.333-9.399 2.824 1.261 2.78 7.52-.098 13.967-2.879 6.448-7.509 10.659-10.333 9.399-2.824-1.261-2.78-7.519.098-13.967z" transform="translate(-.82 5.05) scale(.38187)"/><path fill="url(#wikijs_svg__A)" d="M26.696 18.134c-.805 5.903.586 11.978 3.363 15.977 2.778 4.002 10.763 11.808 18.631 12.918 5.111.719 10.596.69 10.596.69s-3.058-2.97-5.745-8.562c-2.687-5.591-4.888-10.846-8.937-14.358-4.05-3.51-8.254-7.302-10.543-10.031-2.288-2.728-3.044-4.431-3.044-4.431s-3.38.899-4.321 7.797z" transform="translate(-.82 5.05) scale(.38187)"/><path fill="url(#wikijs_svg__B)" d="M26.959 18.171c-.7 5.916.585 11.978 3.363 15.978s10.762 11.808 18.63 12.916c5.762.812 6.31 1.127 11.139 1.101 0 0-3.6-3.381-6.288-8.972s-4.887-10.847-8.937-14.358c-4.05-3.51-8.808-7.923-11.097-10.651s-2.764-3.865-2.764-3.865-3.347 1.934-4.046 7.851z" transform="translate(-.82 5.05) scale(.38187)"/><path fill="url(#wikijs_svg__C)" d="M57.708 51.938c1.06 3.068-2.837 7.203-8.697 9.227-5.861 2.024-11.479 1.176-12.539-1.892-1.059-3.069 2.838-7.203 8.698-9.227s11.479-1.176 12.538 1.892z" transform="translate(-.82 5.05) scale(.38187)"/><path fill="url(#wikijs_svg__D)" d="M55.199 53.999c.119 2.902-4.178 5.44-9.592 5.663-5.413.223-9.904-1.952-10.024-4.854-.12-2.903 4.178-5.44 9.591-5.664 5.413-.223 9.905 1.953 10.025 4.855z" transform="translate(-.82 5.05) scale(.38187)"/><path fill="url(#wikijs_svg__E)" d="M60.024 52.648c.852 2.014-2.078 5.179-6.538 7.064-4.459 1.885-8.771 1.781-9.622-.233s2.079-5.179 6.538-7.064c4.46-1.885 8.771-1.78 9.622.233z" transform="translate(-.82 5.05) scale(.38187)"/><path fill="url(#wikijs_svg__F)" d="M33.667 51.566c2.166 3.131 5.442 5.398 8.477 6.086 3.035.69 10.168.927 14.358-1.941 2.722-1.866 5.295-4.245 5.295-4.245s-2.723-.081-6.401-1.56c-3.679-1.479-6.984-3.009-10.407-2.919-3.425.09-7.043.115-9.299-.185-2.257-.299-3.348-.777-3.348-.777s-1.205 1.882 1.325 5.541z" transform="translate(-.82 5.05) scale(.38187)"/><path fill="url(#wikijs_svg__G)" d="M33.807 51.471c2.221 3.091 5.441 5.396 8.476 6.086 3.036.688 10.17.928 14.358-1.942 3.068-2.103 3.462-2.19 5.729-4.285 0 0-3.155-.041-6.835-1.52-3.679-1.478-6.982-3.009-10.407-2.918-3.424.091-7.572.062-9.828-.238-2.256-.3-2.97-.632-2.97-.632s-.745 2.356 1.477 5.449z" transform="translate(-.82 5.05) scale(.38187)"/><path fill="url(#wikijs_svg__H)" d="M100.92 50.491c-3.373 1.42-18.374.622-23.876 0-5.503-.621-11.189-.525-12.25-.621-3.796-.342-3.106.887-3.373 4.704-.621 10.563 3.373 12.693 6.302 13.137 2.93.444 5.593-.976 5.593-.976s29.024-13.137 31.687-14.558c.496-2.724.376-3.586-.232-3.586-.7 0-2.047 1.141-3.851 1.9z" transform="translate(-.82 5.05) scale(.38187)"/><path fill="url(#wikijs_svg__I)" d="M73.82 53.958c4.948 3.511 7.617 8.26 5.958 10.598-1.66 2.339-7.024 1.386-11.971-2.126-4.948-3.511-7.617-8.26-5.958-10.599 1.66-2.338 7.024-1.385 11.971 2.127z" transform="translate(-.82 5.05) scale(.38187)"/><path fill="url(#wikijs_svg__J)" d="M72.54 53.958c3.799 2.696 5.535 6.783 3.876 9.121-1.66 2.338-6.091 2.047-9.889-.649-3.799-2.696-5.535-6.783-3.876-9.121 1.66-2.338 6.091-2.047 9.889.649z" transform="translate(-.82 5.05) scale(.38187)"/><path fill="url(#wikijs_svg__K)" d="M76.317 54.251c3.798 2.696 5.534 6.783 3.875 9.121-1.66 2.338-6.091 2.048-9.889-.648s-5.535-6.783-3.875-9.122c1.659-2.338 6.09-2.047 9.889.649z" transform="translate(-.82 5.05) scale(.38187)"/><path fill="url(#wikijs_svg__L)" d="M63.496 55.18c2.637 4.341 9.236 7.059 12.286 7.681s6.968-.097 10.231-2.059c3.811-2.292 3.487-4.503 3.487-4.503s-1.191-.015-3.37-.669c-2.18-.657-5.468-2.168-8.551-3.66-3.083-1.491-6.724-1.457-10.686-1.624-3.961-.167-6.476-1.212-6.476-1.212s1.366 3.228 3.079 6.046z" transform="translate(-.82 5.05) scale(.38187)"/><path fill="url(#wikijs_svg__M)" d="M63.409 55.036c2.635 4.341 9.235 7.059 12.285 7.68 3.05.622 6.933-.154 10.23-2.058 3.298-1.903 3.588-4.356 3.588-4.356s-.786.007-2.965-.648c-2.18-.656-5.972-2.337-9.056-3.828-3.083-1.492-6.724-1.458-10.686-1.624-3.961-.168-6.854-1.429-6.854-1.429 1.203 2.843 1.527 3.085 3.458 6.263z" transform="translate(-.82 5.05) scale(.38187)"/><path fill="#cbd3dd" d="M38.906 25.145s.465-.358.43-1.074c-.036-.716.142-1.79-3.652-4.117-1.253 2.255-5.585 8.27-7.483 9.63C26.304 30.944 26 30.898 26 30.898s1.096-.13 2.058-.848c1.04-.776 10.848-4.905 10.848-4.905"/><path fill="url(#wikijs_svg__N)" d="M76.373 64.435c-3.085 2.212-4.026 2.655-4.716 2.945.257-.077 2.189-.583 4.341-1.726 3-1.594 28.406-12.844 28.406-12.844s1.219-.938 1.125-2.813c-.093-1.875.375-4.687-9.562-10.781-3.281 5.906-14.625 21.657-19.594 25.219z" transform="translate(-.82 5.05) scale(.38187)"/><path fill="url(#wikijs_svg__O)" d="M60.909 53.32c-.618-.001-6.022 9.819-3.491 21.069 0 0 3.615-4.338 4.058-15.247.183-4.5-.133-5.822-.567-5.822z" transform="translate(-.82 5.05) scale(.38187)"/><path fill="#00c6f9" d="M17.06 13.47c.486-.473 2.138-.094 2.526.427.38.509 2.337 2.466 2.244 5.427.3.013.7.065 1.157.065.396 0 .762-.039 1.062-.058-.096-2.965 1.863-4.925 2.243-5.434.388-.521 2.04-.9 2.526-.426.486.473-.777.426-1.36.284-1.887.417-3.092 4.597-3.349 5.573.44-.024.724.007.724.298 0 .441-.618 1.154-1.478 1.23.035.177.24 1.166.009 2.206-.094.423-.962.901-.962.901-.922-3.021-.009-3.315.004-3.34-.756-.113-1.168-.592-1.168-.997 0-.258.198-.312.53-.304-.26-.986-1.464-5.15-3.347-5.567-.583.142-1.846.19-1.36-.284"/><path fill="url(#wikijs_svg__P)" d="M70.998 23.542c-.995 1.335-6.125 6.465-5.873 14.232-.787.049-1.746.151-2.781.151-1.199 0-2.243-.136-3.031-.17.243-7.755-4.88-12.88-5.874-14.213-1.018-1.365-5.344-2.356-6.616-1.116-1.272 1.24 2.036 1.116 3.563.744 4.93 1.092 8.084 11.997 8.765 14.579-.87-.02-1.387.12-1.387.796 0 1.061.786 2.39 2.763 2.684-.033.066-1.658 1.243.284 8.674 0 0 3.102-.292 2.628-6.639a14.766 14.766 0 0 0-.223-1.783c2.252-.201 3.962-1.781 3.962-2.936 0-.762-.744-.843-1.897-.781.674-2.555 3.829-13.5 8.77-14.594 1.527.372 4.835.496 3.562-.744-.408-.398-1.13-.566-1.956-.566-1.75 0-3.968.755-4.659 1.682z" transform="translate(-.82 5.05) scale(.38187)"/><path fill="url(#wikijs_svg__Q)" d="M50.005 10.069c-.937 1.89 2.368 2.172 3.493 1.605 3.635 1.665 5.958 18.288 6.46 22.224-.641-.032-1.022.182-1.022 1.212 0 1.617.873 3.929 2.329 4.38l-.037.16s-2.48 4.628-.417 14.753c0 0 2.307-5.062 2.307-12.099 0-1.119-.096-2.01-.165-2.718 1.66-.306 2.92-2.714 2.92-4.476 0-1.161-.547-1.285-1.397-1.189.387-4.644 1.969-20.385 6.463-22.247 1.125.567 4.286.354 3.348-1.536-.937-1.89-4.255-.383-5.571 1.387-1.445 1.942-4.932 10.629-4.747 22.466-.579.076-.896.174-1.658.174-.883 0-1.653-.208-2.234-.259.179-11.822-3.677-19.606-4.329-21.665-.616-1.95-2.533-3.102-4.027-3.102-.755 0-1.401.295-1.716.93z" transform="translate(-.82 5.05) scale(.38187)"/><path fill="url(#wikijs_svg__R)" d="M50.005 10.437c-.937 1.874 2.368 2.154 3.493 1.591 3.635 1.652 5.958 18.142 6.46 22.047-.641-.031-1.022.181-1.022 1.203 0 1.604.873 3.897 2.329 4.344l-.037.159s-4.295 14.834-1.47 24.548c0 0 3.708-12.317 3.36-21.915a44.73 44.73 0 0 0-.165-2.697c1.66-.302 2.92-2.691 2.92-4.439 0-1.153-.547-1.275-1.397-1.181.387-4.606 1.969-20.221 6.463-22.069 1.125.563 4.286.352 3.348-1.523-.937-1.875-4.255-.38-5.571 1.376-1.445 1.926-4.932 10.544-4.747 22.287-.579.075-.896.173-1.658.173-.883 0-1.653-.207-2.234-.257.179-11.729-3.677-19.449-4.329-21.493-.616-1.934-2.533-3.077-4.027-3.077-.754.001-1.401.293-1.716.923Z" transform="translate(-.82 5.05) scale(.38187)"/><path fill="#f5f6f2" d="M24.49 21.963s1.429-1.13 2.593-2.36c1.163-1.23 4.92-4.787 5.851-5.752.931-.964 3.458-4.256 3.79-5.652.766 1.696 1.264 4.788.333 7.78-.93 2.992-3.092 5.153-5.951 6.35-2.86 1.197-5.353 1.13-6.05 1.13-.7 0-1.664-.465-.566-1.496"/><path fill="url(#wikijs_svg__S)" d="M88.069 23.047C85.63 25.573 75.793 34.888 72.746 38.11c-3.609 3.815-3.547 4.087-6.865 6.711-1.25 1.173-3.205 2.507-2.946 3.072.259.564 3.467.316 4.5.316 1.828 0 8.358.174 15.846-2.96 7.487-3.134 13.146-8.794 15.584-16.629 2.439-7.836 1.132-15.933-.871-20.374-.87 3.658-7.487 12.277-9.925 14.801z" transform="translate(-.82 5.05) scale(.38187)"/><defs><radialGradient id="wikijs_svg__a" cx="0" cy="0" r="1" gradientTransform="matrix(-66.139 0 0 66.139 62.575 49.822)" gradientUnits="userSpaceOnUse"><stop offset="0" stop-color="#3d4ead"/><stop offset="1" stop-color="#00c0f3"/></radialGradient><radialGradient id="wikijs_svg__c" cx="0" cy="0" r="1" gradientTransform="matrix(-66.137 0 0 66.137 62.575 49.822)" gradientUnits="userSpaceOnUse"><stop offset="0" stop-color="#3d4ead"/><stop offset="1" stop-color="#00c0f3"/></radialGradient><radialGradient id="wikijs_svg__d" cx="0" cy="0" r="1" gradientTransform="matrix(-52.636 -107.6 -12.843 112.24 50.78 124.46)" gradientUnits="userSpaceOnUse"><stop offset="0" stop-color="#0072e9"/><stop offset="1" stop-color="#00fdfe"/></radialGradient><radialGradient id="wikijs_svg__e" cx="0" cy="0" r="1" gradientTransform="matrix(4.0052 .52656 -1.4689 11.311 58.661 65.184)" gradientUnits="userSpaceOnUse"><stop offset="0" stop-color="#153e68" stop-opacity=".34"/><stop offset="1" stop-color="#153e68" stop-opacity=".01"/></radialGradient><radialGradient id="wikijs_svg__f" cx="0" cy="0" r="1" gradientTransform="matrix(-10.357 10.999 26.038 24.518 76.53 64.263)" gradientUnits="userSpaceOnUse"><stop offset="0" stop-color="#00336f"/><stop offset="1" stop-color="#00336f" stop-opacity="0"/></radialGradient><radialGradient id="wikijs_svg__g" cx="0" cy="0" r="1" gradientTransform="matrix(-6.5196 11.406 24.567 14.423 74.746 58.644)" gradientUnits="userSpaceOnUse"><stop offset="0" stop-color="#00336f" stop-opacity=".5"/><stop offset="1" stop-color="#00336f" stop-opacity="0"/></radialGradient><radialGradient id="wikijs_svg__h" cx="0" cy="0" r="1" gradientTransform="matrix(-4.9605 12.165 26.253 11.061 74.044 59.297)" gradientUnits="userSpaceOnUse"><stop offset="0" stop-color="#00336f" stop-opacity=".5"/><stop offset="1" stop-color="#00336f" stop-opacity="0"/></radialGradient><radialGradient id="wikijs_svg__i" cx="0" cy="0" r="1" gradientTransform="matrix(-4.2249 10.262 22.277 9.2972 70.693 57.313)" gradientUnits="userSpaceOnUse"><stop offset="0" stop-color="#00336f"/><stop offset="1" stop-color="#00336f" stop-opacity="0"/></radialGradient><radialGradient id="wikijs_svg__j" cx="0" cy="0" r="1" gradientTransform="matrix(-9.789 -10.045 -28.136 22.898 44.685 58.413)" gradientUnits="userSpaceOnUse"><stop offset="0" stop-color="#002d68"/><stop offset="1" stop-color="#002d68" stop-opacity="0"/></radialGradient><radialGradient id="wikijs_svg__k" cx="0" cy="0" r="1" gradientTransform="matrix(-10.618 -12.712 -26.51 25.07 44.123 53.997)" gradientUnits="userSpaceOnUse"><stop offset="0" stop-color="#002d68"/><stop offset="1" stop-color="#002d68" stop-opacity="0"/></radialGradient><radialGradient id="wikijs_svg__l" cx="0" cy="0" r="1" gradientTransform="matrix(-4.664 -8.969 -21.203 10.94 42.837 56.094)" gradientUnits="userSpaceOnUse"><stop offset="0" stop-color="#002d68"/><stop offset="1" stop-color="#002d68" stop-opacity="0"/></radialGradient><radialGradient id="wikijs_svg__m" cx="0" cy="0" r="1" gradientTransform="matrix(4.5101 -9.0474 -21.318 -10.713 33.647 43.36)" gradientUnits="userSpaceOnUse"><stop offset="0" stop-color="#002d68"/><stop offset="1" stop-color="#002d68" stop-opacity="0"/></radialGradient><radialGradient id="wikijs_svg__n" cx="0" cy="0" r="1" gradientTransform="matrix(55.562 -7.2533 2.082 15.948 72.585 43.252)" gradientUnits="userSpaceOnUse"><stop offset="0" stop-color="#00326d"/><stop offset="1" stop-color="#003b79" stop-opacity="0"/></radialGradient><radialGradient id="wikijs_svg__o" cx="0" cy="0" r="1" gradientTransform="matrix(50.089 5.2634 -1.619 15.444 75.309 37.612)" gradientUnits="userSpaceOnUse"><stop offset="0" stop-color="#00326d"/><stop offset="1" stop-color="#003b79" stop-opacity="0"/></radialGradient><radialGradient id="wikijs_svg__p" cx="0" cy="0" r="1" gradientTransform="matrix(42.251 -5.1309 1.6285 13.372 72.112 43.35)" gradientUnits="userSpaceOnUse"><stop offset="0" stop-color="#00326d"/><stop offset="1" stop-color="#003b79" stop-opacity="0"/></radialGradient><radialGradient id="wikijs_svg__u" cx="0" cy="0" r="1" gradientTransform="matrix(14.735 9.5278 -4.6289 7.159 40.004 38.609)" gradientUnits="userSpaceOnUse"><stop offset="0" stop-color="#153e68"/><stop offset="1" stop-color="#153e68" stop-opacity="0"/></radialGradient><radialGradient id="wikijs_svg__v" cx="0" cy="0" r="1" gradientTransform="matrix(13.999 10.58 -4.3151 5.7093 39.534 36.604)" gradientUnits="userSpaceOnUse"><stop offset="0" stop-color="#153e68"/><stop offset="1" stop-color="#153e68" stop-opacity="0"/></radialGradient><radialGradient id="wikijs_svg__w" cx="0" cy="0" r="1" gradientTransform="matrix(14.563 -8.1418 3.1107 5.5643 81.852 41.57)" gradientUnits="userSpaceOnUse"><stop offset="0" stop-color="#153e68"/><stop offset="1" stop-color="#153e68" stop-opacity="0"/></radialGradient><radialGradient id="wikijs_svg__x" cx="0" cy="0" r="1" gradientTransform="matrix(14.406 -8.0539 3.4237 6.1241 84.556 38.311)" gradientUnits="userSpaceOnUse"><stop offset="0" stop-color="#153e68"/><stop offset="1" stop-color="#153e68" stop-opacity="0"/></radialGradient><radialGradient id="wikijs_svg__y" cx="0" cy="0" r="1" gradientTransform="matrix(13.589 -9.3664 4.2224 6.1262 84.349 41.393)" gradientUnits="userSpaceOnUse"><stop offset="0" stop-color="#153e68"/><stop offset="1" stop-color="#1a426b" stop-opacity="0"/></radialGradient><radialGradient id="wikijs_svg__z" cx="0" cy="0" r="1" gradientTransform="matrix(5.2152 -11.683 5.1171 2.2843 94.425 30.202)" gradientUnits="userSpaceOnUse"><stop offset="0" stop-color="#153e68"/><stop offset="1" stop-color="#1b436c" stop-opacity="0"/></radialGradient><radialGradient id="wikijs_svg__C" cx="0" cy="0" r="1" gradientTransform="matrix(1.9202 5.5594 -10.618 3.6674 47.09 55.605)" gradientUnits="userSpaceOnUse"><stop offset="0" stop-color="#153e68"/><stop offset="1" stop-color="#153e68" stop-opacity="0"/></radialGradient><radialGradient id="wikijs_svg__D" cx="0" cy="0" r="1" gradientTransform="matrix(.21678 5.2589 -9.8078 .4043 45.39 54.403)" gradientUnits="userSpaceOnUse"><stop offset="0" stop-color="#153e68"/><stop offset="1" stop-color="#153e68" stop-opacity="0"/></radialGradient><radialGradient id="wikijs_svg__E" cx="0" cy="0" r="1" gradientTransform="matrix(1.5421 3.6485 -8.0801 3.4152 51.944 56.064)" gradientUnits="userSpaceOnUse"><stop offset="0" stop-color="#153e68"/><stop offset="1" stop-color="#153e68" stop-opacity="0"/></radialGradient><radialGradient id="wikijs_svg__H" cx="0" cy="0" r="1" gradientTransform="matrix(-16.959 0 0 16.959 83.334 58.194)" gradientUnits="userSpaceOnUse"><stop offset="0" stop-color="#f9f9fa"/><stop offset="1" stop-color="#f5f7f7"/></radialGradient><radialGradient id="wikijs_svg__I" cx="0" cy="0" r="1" gradientTransform="matrix(8.9641 6.3625 -3.0068 4.2363 70.813 58.194)" gradientUnits="userSpaceOnUse"><stop offset="0" stop-color="#153e68"/><stop offset="1" stop-color="#153e68" stop-opacity="0"/></radialGradient><radialGradient id="wikijs_svg__J" cx="0" cy="0" r="1" gradientTransform="matrix(6.8821 4.8848 -3.0068 4.2363 69.534 58.194)" gradientUnits="userSpaceOnUse"><stop offset="0" stop-color="#153e68"/><stop offset="1" stop-color="#153e68" stop-opacity="0"/></radialGradient><radialGradient id="wikijs_svg__K" cx="0" cy="0" r="1" gradientTransform="matrix(6.8821 4.8848 -3.0068 4.2363 73.31 58.487)" gradientUnits="userSpaceOnUse"><stop offset="0" stop-color="#153e68"/><stop offset="1" stop-color="#153e68" stop-opacity="0"/></radialGradient><radialGradient id="wikijs_svg__P" cx="0" cy="0" r="1" gradientTransform="matrix(-18.218 0 0 12.495 62.218 35.882)" gradientUnits="userSpaceOnUse"><stop offset="0" stop-color="#3f51b5"/><stop offset="1" stop-color="#04bbf3"/></radialGradient><linearGradient id="wikijs_svg__b" x2="1" gradientTransform="matrix(-54.736 0 0 -32.102 60.315 67.018)" gradientUnits="userSpaceOnUse"><stop offset="0" stop-color="#3f51b4"/><stop offset="1" stop-color="#00c0f3"/></linearGradient><linearGradient id="wikijs_svg__q" x2="1" gradientTransform="matrix(-48.721 0 0 48.721 61.409 53.1)" gradientUnits="userSpaceOnUse"><stop offset="0" stop-color="#f5f7fa"/><stop offset=".53" stop-color="#f1f4f2"/><stop offset="1" stop-color="#bad7e9"/></linearGradient><linearGradient id="wikijs_svg__r" x2="1" gradientTransform="matrix(-43.208 0 0 43.208 61.138 25.603)" gradientUnits="userSpaceOnUse"><stop offset="0" stop-color="#fafafa"/><stop offset=".26" stop-color="#f1f6f8"/><stop offset=".73" stop-color="#dce5eb"/><stop offset="1" stop-color="#bbcfda"/></linearGradient><linearGradient id="wikijs_svg__s" x2="1" gradientTransform="matrix(0 -47.979 -47.979 0 89.217 49.903)" gradientUnits="userSpaceOnUse"><stop offset="0" stop-color="#fdfdff"/><stop offset=".26" stop-color="#f1f2f2"/><stop offset=".73" stop-color="#bfd2e0"/><stop offset="1" stop-color="#afc0cc"/></linearGradient><linearGradient id="wikijs_svg__t" x2="1" gradientTransform="matrix(0 -48.054 48.054 0 88.42 49.976)" gradientUnits="userSpaceOnUse"><stop offset="0" stop-color="#f1f6f6"/><stop offset=".41" stop-color="#fdfdfd"/><stop offset=".55" stop-color="#f5f8fa"/><stop offset=".89" stop-color="#d6e1e7"/><stop offset=".98" stop-color="#c3d3dd"/><stop offset="1" stop-color="#c3d3dd"/></linearGradient><linearGradient id="wikijs_svg__A" x2="1" gradientTransform="rotate(-81.981 47.041 -.677) scale(33.867)" gradientUnits="userSpaceOnUse"><stop offset="0" stop-color="#fdfdff"/><stop offset=".26" stop-color="#f1f2f2"/><stop offset=".73" stop-color="#bfd2e0"/><stop offset="1" stop-color="#afc0cc"/></linearGradient><linearGradient id="wikijs_svg__B" x2="1" gradientTransform="rotate(180 30.046 14.622) scale(33.32)" gradientUnits="userSpaceOnUse"><stop offset="0" stop-color="#fafafa"/><stop offset=".26" stop-color="#f1f6f8"/><stop offset=".73" stop-color="#dce5eb"/><stop offset="1" stop-color="#bbcfda"/></linearGradient><linearGradient id="wikijs_svg__F" x2="1" gradientTransform="rotate(-124.42 41.65 15.398) scale(21.645)" gradientUnits="userSpaceOnUse"><stop offset="0" stop-color="#fdfdff"/><stop offset=".26" stop-color="#f1f2f2"/><stop offset=".73" stop-color="#bfd2e0"/><stop offset="1" stop-color="#afc0cc"/></linearGradient><linearGradient id="wikijs_svg__G" x2="1" gradientTransform="rotate(137.56 18.873 31.726) scale(21.295)" gradientUnits="userSpaceOnUse"><stop offset="0" stop-color="#fafafa"/><stop offset=".26" stop-color="#f1f6f8"/><stop offset=".73" stop-color="#dce5eb"/><stop offset="1" stop-color="#bbcfda"/></linearGradient><linearGradient id="wikijs_svg__L" x2="1" gradientTransform="scale(21.644 -21.644) rotate(31.277 6.422 4.078)" gradientUnits="userSpaceOnUse"><stop offset="0" stop-color="#fdfdff"/><stop offset=".26" stop-color="#f1f2f2"/><stop offset=".73" stop-color="#bfd2e0"/><stop offset="1" stop-color="#afc0cc"/></linearGradient><linearGradient id="wikijs_svg__M" x2="1" gradientTransform="scale(21.295 -21.295) rotate(-66.741 .1 -3.566)" gradientUnits="userSpaceOnUse"><stop offset="0" stop-color="#fafafa"/><stop offset=".26" stop-color="#f1f6f8"/><stop offset=".73" stop-color="#dce5eb"/><stop offset="1" stop-color="#bbcfda"/></linearGradient><linearGradient id="wikijs_svg__N" x2="1" gradientTransform="scale(15.735 -15.735) rotate(-65.726 .379 -5.497)" gradientUnits="userSpaceOnUse"><stop offset="0" stop-color="#aebcd0"/><stop offset=".22" stop-color="#859bb9"/><stop offset=".53" stop-color="#a1b1c9"/><stop offset="1" stop-color="#97a9c3"/></linearGradient><linearGradient id="wikijs_svg__O" x2="1" gradientTransform="matrix(0 -21.069 -21.069 0 59.09 74.388)" gradientUnits="userSpaceOnUse"><stop offset="0" stop-color="#c0cbda"/><stop offset=".02" stop-color="#c0cbda"/><stop offset=".11" stop-color="#d4dbe5"/><stop offset=".45" stop-color="#f5f6f9"/><stop offset=".59" stop-color="#fdfdfd"/><stop offset="1" stop-color="#fcfdfd"/></linearGradient><linearGradient id="wikijs_svg__Q" x2="1" gradientTransform="matrix(0 -45.264 -45.264 0 62.15 54.403)" gradientUnits="userSpaceOnUse"><stop offset="0" stop-color="#afc0cc"/><stop offset=".24" stop-color="#afc0cc"/><stop offset=".74" stop-color="#f1f2f2"/><stop offset="1" stop-color="#fdfdff"/></linearGradient><linearGradient id="wikijs_svg__R" x2="1" gradientTransform="matrix(0 -46.526 -46.526 0 62.15 56.04)" gradientUnits="userSpaceOnUse"><stop offset="0" stop-color="#fafafa"/><stop offset=".26" stop-color="#f1f6f8"/><stop offset=".73" stop-color="#dce5eb"/><stop offset="1" stop-color="#bbcfda"/></linearGradient><linearGradient id="wikijs_svg__S" x2="1" gradientTransform="rotate(-90 64.888 -16.673) scale(39.969)" gradientUnits="userSpaceOnUse"><stop offset="0" stop-color="#f1f6f6"/><stop offset=".41" stop-color="#fdfdfd"/><stop offset=".55" stop-color="#f5f8fa"/><stop offset=".89" stop-color="#d6e1e7"/><stop offset=".98" stop-color="#c3d3dd"/><stop offset="1" stop-color="#c3d3dd"/></linearGradient></defs></svg>