<svg xmlns="http://www.w3.org/2000/svg" viewBox="0 0 48 48"><defs id="wireguard_svg__defs4"><style id="style2">.wireguard_svg__a{fill:#88171a}</style></defs><g id="wireguard_svg__g327" style="stroke-width:6.25008" transform="scale(.16)"><path id="wireguard_svg__path80" d="M299.74 145.56S306.68 0 146.7 0C5.22 0 .8 139.63.8 139.63S-20.01 300 149.96 300c163.02 0 149.78-154.44 149.78-154.44zm-197.8-50.863c30.018-18.364 68.367-7.14 82.736 20.476 2.723 5.234 3.069 13.291 1.344 18.782-5.954 18.956-20.014 29.587-39.312 34.103 5.69-4.87 10.218-10.394 11.66-18.025a26.402 26.402 0 0 0-4.543-20.956 26.76 26.76 0 0 0-30.811-9.39c-11.881 4.512-18.39 15.355-17.216 28.684 1.09 12.38 10.484 20.405 28.06 23.453-2.626 1.39-4.65 2.414-6.63 3.517a63.918 63.918 0 0 0-20.543 17.868c-1.784 2.408-3.01 2.602-5.727.941-35.338-21.61-37.61-75.844.982-99.453zm-26.448 133.53c-5.677 1.441-11.178 3.574-16.981 5.478 2.838-19.152 25.265-36.789 44.23-34.777a48.881 48.881 0 0 0-9.242 25.893c-6.302 1.161-12.241 1.942-18.007 3.405zm120.79-186.98c5.61.206 11.23.12 16.844.254a29.052 29.052 0 0 1 4.167.58 40.607 40.607 0 0 1-4.236 5.434c-2.007 1.87-4.274 3.698-7.166.856-.695-.684-2.338-.527-3.549-.543-5.582-.073-11.172-.252-16.746-.041a104.04 104.04 0 0 0-14.425 1.473c-.893.16-2.23 3.131-1.819 4.227.97 2.585 2.384 5.436 4.478 7.09 7.74 6.11 15.972 11.595 23.748 17.663 7.556 5.897 14.59 12.358 18.875 21.253 5.585 11.59 5.747 23.743 3.34 35.95-4.021 20.378-14.334 37.261-31.033 49.524-6.729 4.941-15.06 7.746-22.767 11.295-6.778 3.123-13.755 5.812-20.549 8.901-12.249 5.57-19.133 18.865-17.108 32.688 1.859 12.685 12.987 23.271 25.735 25.456 15.292 2.622 31.071-7.316 34.812-22.86 4.207-17.478-5.29-33.083-23.065-37.813-.783-.208-1.568-.405-3.201-.827 4.755-2.124 8.861-3.638 12.653-5.724q9.921-5.46 19.48-11.562c1.875-1.2 2.888-1.2 4.486.182 12.225 10.57 19.518 23.718 21.563 39.84 3.385 26.683-9.247 51.197-33.072 63.761-36.86 19.44-81.965-2.686-90.106-43.552-6.974-35.003 17.73-66.754 47.462-72.884 12.787-2.636 24.48-7.96 33.57-17.807 5.865-6.354 8.708-11.806 9.677-14.266a39.565 39.565 0 0 0 2.721-14.469 33.867 33.867 0 0 0-2.965-12.398c-3.104-7.075-14.995-18.33-17.939-20.704l-28-21.92c-.988-.813-2.1-.754-4.508-.591-2.861.194-10.175.599-13.33-.228 2.552-1.933 9.512-4.746 12.501-7.007-9.073-6.13-19.43-3.916-28.94-5.747 2.198-4.095 13.08-10.39 19.27-11.09a91.533 91.533 0 0 0-1.689-10.282c-.377-1.391-1.93-2.74-3.286-3.535-3.286-1.927-6.77-3.517-10.549-5.433a21.936 21.936 0 0 1 11.332-3.505 42.316 42.316 0 0 1 11.348 1.105c6.742 1.54 12.124.535 17.488-4.048-4.222-1.7-8.443-3.253-12.538-5.09a123.04 123.04 0 0 1-11.779-6.159c10.622 1.476 20.896 5.459 31.757 4.004l.277-1.481-25.229-5.873c15.04-1.376 29.042-1.604 42.301 4.855 3.731 1.817 7.635 3.321 11.211 5.397 1.745 1.012 2.919 3.008 4.35 4.56 1.137 1.232 2.05 2.883 3.446 3.626 5.3 2.818 11.134 2.929 17.078 2.787l.13-1.993c5.983 1.87 12.716 8.768 12.705 13.806-9.691 0-19.374-.037-29.056.054-1.035.01-2.063.766-3.094 1.175.98.571 1.943 1.6 2.942 1.637z" class="wireguard_svg__a" style="stroke-width:6.25008"/><path id="wireguard_svg__path82" d="M183.78 26.906a1.48 1.48 0 0 0-.189 2.369 2.233 2.233 0 0 0 3.073.822c.933-.471 1.848-.972 2.975-1.567-.908-.775-1.636-1.415-2.386-2.032-1.318-1.086-2.411-.404-3.472.408z" class="wireguard_svg__a" style="stroke-width:6.25008"/></g></svg>