<svg xmlns="http://www.w3.org/2000/svg" viewBox="0 0 48 48"><path fill="#ff4155" d="M47.953 47.907H.046V0h47.907v47.907z"/><path fill="#442953" stroke="#442a53" stroke-width=".07984" d="M30.015 13.317c-1.021-1.953-1.988-3.916-3.01-5.849-.498-.94-1.05-1.728-1.934-2.393.57.193 1.091.282 1.63.575 1.712.93 3.14 2.232 4.423 3.677.879.99 1.664 2.066 2.463 3.125.228.302.385.668.52 1.026.197.522.034.776-.512.706-.733-.093-1.458-.27-2.179-.443-.463-.11-.914-.278-1.401-.424z"/><path fill="#543e5b" d="M6.072 47.987a654.72 654.72 0 0 1 3.533-10.243c.381-1.073.845-2.12 1.306-3.163.298-.672.69-1.29 1.41-1.694 1.64-.805 3.338-1.268 5.066-1.61.084.915.574 1.503 1.35 1.861.54.249.866.64.956 1.226.095.622.378 1.159.77 1.636 1.103 1.337 2.548 2.07 4.31 2.158.323.364.58.777.942 1.06 2.66 2.083 5.633 2.54 8.904 2.666.3.011.505-.1.592-.42.235-.86.391-1.53.649-2.383.096-.318.56-.465.781-.293.12.093.205.383.204.543-.01 1.209.062 2.409.01 3.616-.028.649-.012 1.326-.118 1.966-.171 1.035-.407 2.052-.605 3.083-6.602 0-13.36-.01-20.005-.038-.82-2.388-1.6-4.745-2.372-7.106-.19-.58-.334-1.176-.547-1.747-.05-.135-.306-.286-.444-.267-.129.019-.297.241-.324.396-.052.297-.025.609-.016.914.056 1.874-.214 3.703-.732 5.501-.224.775-.419 1.558-.627 2.338H6.072z"/><path fill="#665364" d="M36.014 47.987c.16-1.03.379-2.057.55-3.092.105-.64.172-1.29.2-1.938.052-1.208.07-2.417.081-3.626.002-.16-.083-.377-.203-.47-.222-.171-.496-.015-.593.303-.257.853-.522 1.705-.756 2.564-.088.32-.274.433-.574.43-3.314-.042-6.405-.78-9.03-2.932-.355-.291-.716-.693-1.006-1.064 1.589-.12 2.928-.788 3.959-1.928.41-.454.775-.948.89-1.606.084-.765.46-1.25 1.143-1.57.73-.34 1.174-.93 1.237-1.782.165.015.298.03.426.06 1.592.382 3.16.83 4.642 1.542.894.526 1.317 1.413 1.688 2.306 1.713 4.117 3.3 8.282 4.624 12.544.02.063.025.13.034.227-2.427.032-4.851.032-7.312.032z"/><path fill="#422a53" d="M11.037 48c.17-.78.427-1.58.65-2.356.518-1.798.69-3.585.635-5.46-.01-.305.061-.659.114-.955.027-.155.195-.377.324-.396.138-.02.416.132.466.267.213.57.374 1.163.564 1.743.772 2.36 1.622 4.727 2.405 7.115-1.646.029-3.469.042-5.158.042z"/><path fill="#432953" stroke="#432a53" d="M387.56 195.6c-9.532-2.321-20.438-6.585-30.107-8.86-15.168-3.57-29.315-7.664-44.72-8.675-12.478-.818-26.409 2.106-38.951 4.382-7.48 1.357-14.682 4.241-22.746 6.586-8.212 2.403-16.742 5.525-24.217 7.781 11.136-24.893 22.706-50.957 34.7-75.43 7.141-14.571 16.608-28.003 25.484-41.807 1.167 10.757 6.553 19.304 12.607 27.55 16.734 22.794 37.286 42.018 57.606 61.446 4.802 4.591 10.065 8.694 14.957 13.195 4.74 4.361 10.761 9.346 15.387 13.832z" style="paint-order:stroke" transform="matrix(.07984 0 0 .07984 .046 0)"/><path fill="#665364" stroke="#665364" d="M388.44 195.93c15.819 5.987 32.253 9.231 49.021 10.964 3.304.341 6.626.506 10.103 1.234-11.714 9.437-23.593 18.393-35.857 27.407-5.541 2.612-10.696 5.165-16.243 7.791-4.067 1.31-7.744 2.548-11.747 3.566-6.42-.82-12.518-1.371-18.605-2.027-26.228-2.826-52.113-7.534-76.535-17.733-11.574-4.833-22.663-11.136-33.272-17.875-9.456-6.006-10.982-12.134-4.762-20.414 7.69-2.29 15.761-5.039 23.241-6.396 12.542-2.276 25.392-5.599 37.87-4.78 15.405 1.011 30.633 5.503 45.801 9.073 9.669 2.275 19.09 5.603 28.887 8.62.876.298 1.487.434 2.098.57z" style="paint-order:stroke" transform="matrix(.07984 0 0 .07984 .046 0)"/><path fill="#bec7f6" stroke="#bec7f6" d="M462.73 411.45c-18.709-8.588-38.362-14.206-58.294-18.977-1.61-.385-3.265-.575-5.492-1.1-1.441-5.306-2.384-10.355-3.112-15.435-.681-4.75-1.513-9.525-1.588-14.3-.085-5.406 2.587-9.262 7.737-11.685 9.82-4.62 13.694-12.329 11.667-23.18-1.217-6.516-3.142-12.897-4.636-19.364-3.433-14.86-6.797-29.739-9.983-44.87 3.534-4.91 6.862-9.56 10.48-13.916 1.464 2.487 2.77 4.622 3.79 6.885 7.9 17.514 15.743 35.053 23.604 52.584.92 4.05 2.42 8.074 2.609 12.158.224 4.858-.962 9.766-1 14.656-.03 3.824-.223 8.15 1.407 11.366 2.595 5.122 6.671 9.488 10.077 14.206 4.28 5.932 8.974 11.627 12.67 17.907 6.294 10.692 6.612 21.78.064 33.065z" style="paint-order:stroke" transform="matrix(.07984 0 0 .07984 .046 0)"/><path fill="#bec6f5" d="M17.398 31.269c-1.725.377-3.436.813-5.055 1.598-.588-.935-.533-1.876.038-2.777.346-.547.773-1.043 1.157-1.567.219-.3.457-.592.622-.92.106-.21.198-.524.117-.715-.301-.71-.14-1.379.053-2.06.014-.051.023-.103.055-.21.746-1.637 1.472-3.22 2.217-4.778.274.394.56.768.812 1.175-.12.648-.246 1.262-.396 1.867-.246.994-.546 1.975-.79 2.969-.232.948.094 1.738.813 2.087.611.296.795.637.686 1.303-.11.668-.215 1.361-.33 2.028z"/><path fill="#32154b" d="M34.951 24.503c-.648-1.383-1.275-2.783-1.905-4.182-.082-.18-.186-.351-.3-.579.054-.375.129-.697.204-1.02a533.37 533.37 0 0 0 2.86-2.167c.274-.128.525-.257.79-.334.74-.215 1.318.071 1.432.828.098.644.111 1.334-.01 1.971-.412 2.146-1.397 3.999-3.07 5.483zM16.663 19.816c-.726 1.582-1.452 3.165-2.194 4.77-1.807-1.582-2.843-3.594-3.192-5.96a4.254 4.254 0 0 1 .017-1.304c.165-.982.781-1.306 1.71-.951.135.052.266.119.425.194.995.75 1.964 1.487 2.953 2.264.108.356.195.672.281.987z"/><path fill="#543e5b" stroke="#543e5b" d="M386.34 195.36c-4.891-4.647-9.427-9.231-14.167-13.592-4.892-4.5-10.155-8.604-14.957-13.195-20.32-19.428-40.872-38.652-57.606-61.446-6.054-8.246-11.44-16.793-12.338-27.751 3.493-4.277 6.988-8.409 10.902-12.096 4.18-3.939 9.303-5.409 15.623-3.629 11.474 8.53 19.603 19.116 25.831 30.882 12.813 24.205 24.914 48.787 37.308 73.214 3.76 9.149 7.52 18.297 11.392 27.814-.5.232-1.111.096-1.988-.202z" style="paint-order:stroke" transform="matrix(.07984 0 0 .07984 .046 0)"/><path fill="#d9e1fd" d="M17.386 31.277c.113-.702.231-1.368.34-2.036.11-.666-.074-1.008-.685-1.304-.719-.348-1.045-1.138-.813-2.086.244-.995.544-1.975.79-2.969.15-.605.244-1.224.384-1.893.09-.56.159-1.063.227-1.566.277.097.555.157.847.305-.005.129-.033.242-.042.32-.168 1.357-.354 2.712-.489 4.072-.058.593-.05 1.22.34 1.721.267.342.627.61.939.919.245.242.515.469.71.747.361.512.261 1.087.131 1.654-.304 1.327.385 2.284 1.71 2.468 1.564.217 2.742.95 3.234 2.557.19.623.607 1.104 1.216 1.347.97.389 1.847.108 2.662-.468.204-.144.447-.363.656-.5-.097.633-.491 1.215-.9 1.668-1.032 1.141-2.295 1.835-3.891 1.928-1.79-.055-3.187-.824-4.288-2.161-.393-.477-.676-1.013-.771-1.636-.09-.585-.416-.977-.956-1.226-.777-.357-1.267-.946-1.35-1.861z"/><path fill="#e9efff" stroke="#e9efff" stroke-width=".07984" d="M29.521 34.547c-.121.446-.43.374-.634.519-.815.576-1.692.856-2.662.468-.61-.244-1.026-.725-1.216-1.348-.492-1.607-1.67-2.34-3.234-2.557-1.325-.184-2.014-1.14-1.71-2.468.13-.567.23-1.142-.13-1.654-.196-.278-.466-.505-.711-.747-.312-.308-.672-.576-.939-.919-.389-.5-.398-1.128-.34-1.72.135-1.36.321-2.716.489-4.072.01-.079.037-.227.065-.34.383.07.76.247 1.158.406.05.21.052.376.109.52.362.93.737 1.855 1.117 2.807.501-.4.946-.779 1.446-1.166.638-.428 1.296-.463 1.912-.044.297.203.527.202.827.003.584-.387 1.2-.411 1.788.002.4.282.777.597 1.167.894.117.089.243.165.342.231.219-.44.449-.817.597-1.223.243-.668.432-1.355.644-2.034.351-.115.703-.23 1.08-.36.318-.113.612-.212.94-.277.11.527.187 1.021.264 1.515.27 1.187.54 2.375.814 3.562.119.516.273 1.026.37 1.546.162.866-.148 1.482-.932 1.85-.411.194-.624.502-.618.934.006.381.073.762.127 1.142.058.405.134.808.214 1.24-.015.872-.46 1.46-1.19 1.802-.682.319-1.073.737-1.157 1.502m-6.47-10.227c-.654.105-1.309.202-1.96.323-.1.019-.258.147-.26.227-.007.58-.04 1.171.048 1.741.094.602.605.84 1.179.61.242-.096.454-.268.679-.407.394-.242.711-.661 1.248-.735.78-.178 1.5-.062 2.153.418.31.227.617.465.95.652.683.38 1.276.102 1.371-.664.06-.482.014-.976.03-1.463.01-.272-.13-.374-.373-.413-.864-.137-1.725-.304-2.592-.417a6.537 6.537 0 0 0-2.473.128z"/><path fill="#f9bb91" stroke="#f9bb91" d="M399.86 262.91c-1.169-5.927-2.812-12.549-3.812-19.225 5.119-3.043 10.116-5.867 15.657-8.479-.554 3.981-1.494 8.355-2.464 12.759-3.357 5.013-5.847 10.035-9.381 14.945z" style="paint-order:stroke" transform="matrix(.07984 0 0 .07984 .046 0)"/><path fill="#f8d0b4" d="M29.57 20.102c-.176.683-.365 1.37-.608 2.037-.148.407-.378.783-.596 1.224-.1-.067-.226-.143-.343-.232-.39-.296-.767-.611-1.167-.893-.588-.414-1.204-.39-1.788-.002-.3.198-.53.199-.827-.004-.615-.418-1.246-.383-1.885.01-.109-.606-.2-1.22-.28-1.8 1.817.133 3.645.203 5.458-.022.67-.084 1.335-.214 2.037-.318z"/><path fill="#f9bb91" d="M22.092 20.448c.11.592.179 1.161.26 1.776-.471.413-.968.818-1.469 1.218-.38-.952-.755-1.877-1.118-2.806-.056-.145-.055-.41-.083-.602.783.083 1.599.284 2.41.414z"/><path fill="#f6ab71" d="M17.639 19.416c-.05.52-.152 1.1-.24 1.624-.274-.35-.523-.806-.797-1.2-.106-.339-.189-.694-.272-1.044.423.161.869.407 1.309.62z"/><path fill="#563f5c" d="M18.214 15.658c.624-.192 1.242-.445 1.87-.63-.439.65-.408 1.201.347 1.68.847.539 1.732 1.042 2.657 1.428 1.95.814 4.016 1.19 6.11 1.416.487.052.973.096 1.461.176a9.56 9.56 0 0 1-1.089.374c-.702.104-1.366.234-2.037.317-1.812.226-3.63.191-5.475.046-.812-.13-1.596-.249-2.401-.385-.399-.124-.775-.23-1.174-.35-.3-.113-.577-.21-.874-.323-.44-.213-.86-.41-1.304-.612-.993-.743-1.966-1.526-2.935-2.262 1.2-.182 2.407-.302 3.602-.507.414-.07.811-.235 1.242-.368z"/><path fill="#f9d1b5" d="M23.12 24.337c.79-.216 1.597-.236 2.401-.131.868.113 1.728.28 2.592.418.244.038.382.14.373.412-.016.488.03.982-.03 1.463-.095.766-.687 1.045-1.37.664-.334-.186-.64-.424-.95-.652-.654-.48-1.374-.596-2.192-.44-.3-.594-.563-1.164-.825-1.734z"/><path fill="#f9bb91" d="M23.134 24.335c.297.572.547 1.132.815 1.73-.475.225-.821.521-1.216.763-.225.138-.436.31-.678.407-.574.23-1.086-.009-1.179-.61-.088-.57-.056-1.16-.048-1.741.001-.08.159-.208.26-.227.651-.121 1.356-.218 2.046-.322z"/></svg>