<svg xmlns="http://www.w3.org/2000/svg" viewBox="0 0 48 48"><path d="M15.235.449c1.101 1.044 1.519 2.1 2.74 2.242l.035.007c-.564.582-1.046 1.346-1.385 2.326-.365 1.052-.468 2.194-.59 3.513-.182 1.964-.384 4.19-1.493 6.978-2.387 6.008-1.075 11.165.319 16.625.637 2.5 1.294 5.085 1.576 7.783a.823.823 0 0 0 .608.714.826.826 0 0 0 .885-.31c.218-.3.503-.765.825-1.367.807 3.19 1.301 5.885 1.712 8.35a.831.831 0 0 0 1.457.393c2.764-3.324 3.612-8.29 2.096-12.167.44-2.336 1.346-4.272 2.302-6.32.515-1.104 1.037-2.225 1.488-3.423.22-.08.547-.302.759-.423l1.639-.942-.246 1.01a.83.83 0 0 0 1.61.391l.654-2.743 1.233-2.832a.829.829 0 1 0-1.518-.66l-1.106 2.562-2.287 1.318a18.212 18.212 0 0 0 .487-2.862c.415-4.666-.689-8.711-2.943-10.816-.156-.151-.2-.27-.237-.25.091-.115.239-.25.344-.359 2.191-1.625 5.805-.141 7.986.72.565.223.841-.323.303-.643-1.872-1.107-5.71-4.028-7.86-5.946-.3-.264-.506-.582-.855-.876C23.455-1.653 17.932.749 15.323.281c-.098-.017-.16.099-.088.168m10.54 5.663c-.057 1.192-.578 1.728-.96 2.12-.207.215-.408.418-.502.708-.227.686.008 1.45.633 2.058 1.896 1.766 2.809 5.306 2.437 9.465-.28 3.157-1.39 5.533-2.564 8.05-.99 2.12-2.012 4.31-2.474 6.97a.819.819 0 0 0 .054.46c.979 2.337 1.09 5.95-.646 9.082a92.725 92.725 0 0 0-1.89-8.363c1.885-4.309 4.034-11.28 2.802-16.962-.312-1.437-1.252-3.145-2.292-4.039-.2-.173-.386-.227-.475-.16-.08.057-.145.228-.06.426.528 1.215.844 2.495 1.177 4.105 1.08 5.226-.918 11.991-2.722 16.111l-.11.249-.44.942c-.341-1.933-.816-3.792-1.276-5.606-1.325-5.19-2.573-10.095-.385-15.604 1.197-3.012 1.423-5.464 1.605-7.436.111-1.213.207-2.261.505-3.122.869-2.501 2.94-3.051 4.554-2.738 1.567.303 3.11 1.529 3.03 3.283zm-2.752.595a1.13 1.13 0 1 0 .706-2.146 1.13 1.13 0 1 0-.706 2.147z"/></svg>