<svg xmlns="http://www.w3.org/2000/svg" width="48" height="48" viewBox="0 0 12.7 12.7"><defs><clipPath id="a" clipPathUnits="userSpaceOnUse"/><clipPath id="b" clipPathUnits="userSpaceOnUse"/></defs><g clip-path="url(#a)" transform="matrix(.03082 0 0 -.03082 6.35 0)"><path d="M0 0c-113.788 0-206.032-92.245-206.032-206.035 0-113.789 92.244-206.034 206.032-206.034 113.788 0 206.032 92.245 206.032 206.034C206.032-92.245 113.788 0 0 0m0-12.362c26.151 0 51.513-5.119 75.381-15.215a193.673 193.673 0 0 0 32.893-17.854 195.058 195.058 0 0 0 28.672-23.657 195.106 195.106 0 0 0 23.656-28.671 193.71 193.71 0 0 0 17.854-32.893c10.095-23.869 15.214-49.232 15.214-75.383 0-26.151-5.119-51.513-15.214-75.382a193.71 193.71 0 0 0-17.854-32.893 195.114 195.114 0 0 0-23.656-28.672 195.114 195.114 0 0 0-28.672-23.656 193.602 193.602 0 0 0-32.893-17.854C51.513-394.588 26.151-399.707 0-399.707c-26.151 0-51.513 5.119-75.381 15.215a193.64 193.64 0 0 0-32.893 17.854 195.106 195.106 0 0 0-28.671 23.656 195.12 195.12 0 0 0-23.657 28.672 193.71 193.71 0 0 0-17.854 32.893c-10.095 23.869-15.214 49.231-15.214 75.382 0 26.151 5.119 51.514 15.214 75.383a193.71 193.71 0 0 0 17.854 32.893 195.113 195.113 0 0 0 23.657 28.671 195.05 195.05 0 0 0 28.671 23.657 193.71 193.71 0 0 0 32.893 17.854C-51.513-17.481-26.151-12.362 0-12.362" style="fill:#32373c;fill-opacity:1;fill-rule:nonzero;stroke:none"/></g><g clip-path="url(#b)" transform="matrix(.03082 0 0 -.03082 10.994 3.811)"><path d="M0 0c.737-5.468 1.154-11.334 1.154-17.654 0-17.416-3.263-37.002-13.06-61.495l-52.439-151.619c51.045 29.759 85.372 85.06 85.372 148.401C21.027-52.516 13.399-24.453 0 0m-147.65-97.385-51.522-149.688a171.559 171.559 0 0 1 48.506-6.996c19.993 0 39.174 3.451 57.018 9.735a15.67 15.67 0 0 0-1.232 2.366zm112.891 23.677c0 21.226-7.624 35.917-14.154 47.35-8.704 14.15-16.866 26.121-16.866 40.27 0 15.78 11.967 30.471 28.832 30.471.762 0 1.484-.092 2.223-.139-30.546 27.989-71.245 45.078-115.942 45.078-59.986 0-112.754-30.778-143.455-77.385 4.031-.127 7.829-.208 11.05-.208 17.954 0 45.76 2.183 45.76 2.183 9.251.542 10.344-13.056 1.098-14.149 0 0-9.304-1.09-19.649-1.632l62.521-185.977 37.578 112.686-26.748 73.291c-9.25.542-18.008 1.632-18.008 1.632-9.255.546-8.17 14.691 1.089 14.149 0 0 28.348-2.183 45.218-2.183 17.955 0 45.765 2.183 45.765 2.183 9.255.542 10.344-13.056 1.094-14.149 0 0-9.314-1.09-19.649-1.632l62.048-184.561 17.712 56.125c7.869 24.528 12.483 41.906 12.483 56.597m-287.601-8.659c0-67.957 39.49-126.691 96.769-154.519l-81.902 224.393c-9.527-21.351-14.867-44.981-14.867-69.874" style="fill:#32373c;fill-opacity:1;fill-rule:nonzero;stroke:none"/></g></svg>