<svg xmlns="http://www.w3.org/2000/svg" viewBox="0 0 48 48"><defs><clipPath id="wygiwyh_svg__a"><path d="M1.98 1.98H373V373H1.98z"/></clipPath></defs><g clip-path="url(#wygiwyh_svg__a)" transform="translate(-.253 -.253)scale(.12937)"><path fill="#fbb700" d="M239.67 301.76 79.15 141.24l39.082-39.086 121.44 121.44 115.51-115.51c-29.75-62.734-93.66-106.12-167.71-106.12-74.098 0-138.04 43.453-167.77 106.25l154.8 154.79-38.746 38.754-132.87-132.88c-.61 6.117-.926 12.32-.926 18.594 0 102.46 83.06 185.52 185.52 185.52S373 289.933 373 187.472c0-6.125-.308-12.176-.887-18.152l-132.43 132.44"/></g></svg>
