<svg xmlns="http://www.w3.org/2000/svg" xmlns:xlink="http://www.w3.org/1999/xlink" viewBox="0 0 48 48"><defs><radialGradient id="xcpng_svg__Dégradé_sans_nom_2" cx="-4356.5" cy="-412.4" r="570" gradientTransform="matrix(.35 0 0 .35 638.22 423.96)" gradientUnits="userSpaceOnUse"><stop offset="0" stop-color="#fff"/><stop offset=".11" stop-color="#fff" stop-opacity=".98"/><stop offset=".23" stop-color="#fff" stop-opacity=".93"/><stop offset=".36" stop-color="#fff" stop-opacity=".84"/><stop offset=".5" stop-color="#fff" stop-opacity=".72"/><stop offset=".64" stop-color="#fff" stop-opacity=".56"/><stop offset=".78" stop-color="#fff" stop-opacity=".36"/><stop offset=".92" stop-color="#fff" stop-opacity=".14"/><stop offset="1" stop-color="#fff" stop-opacity="0"/></radialGradient><radialGradient id="xcpng_svg__Dégradé_sans_nom_12" cx="10618" cy="5360.3" r="1.2" gradientTransform="rotate(225 4453.6 5068.8)" gradientUnits="userSpaceOnUse"><stop offset="0" stop-color="#fff"/><stop offset="1" stop-color="#fff" stop-opacity="0"/></radialGradient><radialGradient xlink:href="#xcpng_svg__D%C3%A9grad%C3%A9_sans_nom_12" id="xcpng_svg__Dégradé_sans_nom_12-2" cx="10583" cy="5407.8" r="1.2"/><radialGradient xlink:href="#xcpng_svg__D%C3%A9grad%C3%A9_sans_nom_12" id="xcpng_svg__Dégradé_sans_nom_12-3" cx="10576" cy="5445.7" r="1.2"/><radialGradient xlink:href="#xcpng_svg__D%C3%A9grad%C3%A9_sans_nom_12" id="xcpng_svg__Dégradé_sans_nom_12-4" cx="10505" cy="5477.9" r="1.2"/><radialGradient xlink:href="#xcpng_svg__D%C3%A9grad%C3%A9_sans_nom_12" id="xcpng_svg__Dégradé_sans_nom_12-5" cx="10515" cy="5492.6" r="1.2"/><radialGradient xlink:href="#xcpng_svg__D%C3%A9grad%C3%A9_sans_nom_12" id="xcpng_svg__Dégradé_sans_nom_12-6" cx="10638" cy="5497.7" r="1.2"/><radialGradient xlink:href="#xcpng_svg__D%C3%A9grad%C3%A9_sans_nom_12" id="xcpng_svg__Dégradé_sans_nom_12-7" cx="10636" cy="5528.5" r="1.2"/><radialGradient xlink:href="#xcpng_svg__D%C3%A9grad%C3%A9_sans_nom_12" id="xcpng_svg__Dégradé_sans_nom_12-8" cx="10685" cy="5510.3" r="1.2"/><radialGradient xlink:href="#xcpng_svg__D%C3%A9grad%C3%A9_sans_nom_12" id="xcpng_svg__Dégradé_sans_nom_12-9" cx="10687" cy="5526.4" r="1.2"/><radialGradient xlink:href="#xcpng_svg__D%C3%A9grad%C3%A9_sans_nom_12" id="xcpng_svg__Dégradé_sans_nom_12-10" cx="10747" cy="5551.6" r="1.2"/><radialGradient xlink:href="#xcpng_svg__D%C3%A9grad%C3%A9_sans_nom_12" id="xcpng_svg__Dégradé_sans_nom_12-11" cx="10764" cy="5354.8" r="1.2"/><radialGradient xlink:href="#xcpng_svg__D%C3%A9grad%C3%A9_sans_nom_12" id="xcpng_svg__Dégradé_sans_nom_12-12" cx="10787" cy="5497" r="1.2"/><radialGradient xlink:href="#xcpng_svg__D%C3%A9grad%C3%A9_sans_nom_12" id="xcpng_svg__Dégradé_sans_nom_12-13" cx="10700" cy="5506.5" r="2.4"/><radialGradient xlink:href="#xcpng_svg__D%C3%A9grad%C3%A9_sans_nom_12" id="xcpng_svg__Dégradé_sans_nom_12-14" cx="10675" cy="5523.5" r="2.4"/><radialGradient xlink:href="#xcpng_svg__D%C3%A9grad%C3%A9_sans_nom_12" id="xcpng_svg__Dégradé_sans_nom_12-15" cx="10782" cy="5440.8" r="2.4"/><radialGradient xlink:href="#xcpng_svg__D%C3%A9grad%C3%A9_sans_nom_12" id="xcpng_svg__Dégradé_sans_nom_12-16" cx="10778" cy="5494.6" r="2.4"/><radialGradient xlink:href="#xcpng_svg__D%C3%A9grad%C3%A9_sans_nom_12" id="xcpng_svg__Dégradé_sans_nom_12-17" cx="10753" cy="5543.9" r="2.4"/><radialGradient xlink:href="#xcpng_svg__D%C3%A9grad%C3%A9_sans_nom_12" id="xcpng_svg__Dégradé_sans_nom_12-18" cx="10767" cy="5561.5" r="2.4"/><radialGradient xlink:href="#xcpng_svg__D%C3%A9grad%C3%A9_sans_nom_12" id="xcpng_svg__Dégradé_sans_nom_12-19" cx="10571" cy="5436.8" r="2.4"/><radialGradient xlink:href="#xcpng_svg__D%C3%A9grad%C3%A9_sans_nom_12" id="xcpng_svg__Dégradé_sans_nom_12-20" cx="10625" cy="5481.6" r="2.4"/><radialGradient xlink:href="#xcpng_svg__D%C3%A9grad%C3%A9_sans_nom_12" id="xcpng_svg__Dégradé_sans_nom_12-21" cx="10622" cy="5501.4" r="2.4"/><radialGradient xlink:href="#xcpng_svg__D%C3%A9grad%C3%A9_sans_nom_12" id="xcpng_svg__Dégradé_sans_nom_12-22" cx="10577" cy="5400" r="2.4"/><radialGradient xlink:href="#xcpng_svg__D%C3%A9grad%C3%A9_sans_nom_12" id="xcpng_svg__Dégradé_sans_nom_12-23" cx="10880" cy="5469" r="1.2"/><radialGradient xlink:href="#xcpng_svg__D%C3%A9grad%C3%A9_sans_nom_12" id="xcpng_svg__Dégradé_sans_nom_12-24" cx="10873" cy="5506.9" r="1.2"/><radialGradient xlink:href="#xcpng_svg__D%C3%A9grad%C3%A9_sans_nom_12" id="xcpng_svg__Dégradé_sans_nom_12-25" cx="10801" cy="5539.1" r="1.2"/><radialGradient xlink:href="#xcpng_svg__D%C3%A9grad%C3%A9_sans_nom_12" id="xcpng_svg__Dégradé_sans_nom_12-26" cx="10811" cy="5553.9" r="1.2"/><radialGradient xlink:href="#xcpng_svg__D%C3%A9grad%C3%A9_sans_nom_12" id="xcpng_svg__Dégradé_sans_nom_12-27" cx="10665" cy="5353.8" r="1.2"/><radialGradient xlink:href="#xcpng_svg__D%C3%A9grad%C3%A9_sans_nom_12" id="xcpng_svg__Dégradé_sans_nom_12-28" cx="10660" cy="5374" r="1.2"/><radialGradient xlink:href="#xcpng_svg__D%C3%A9grad%C3%A9_sans_nom_12" id="xcpng_svg__Dégradé_sans_nom_12-29" cx="10681" cy="5363.5" r="1.2"/><radialGradient xlink:href="#xcpng_svg__D%C3%A9grad%C3%A9_sans_nom_12" id="xcpng_svg__Dégradé_sans_nom_12-30" cx="10673" cy="5425.9" r="1.2"/><radialGradient xlink:href="#xcpng_svg__D%C3%A9grad%C3%A9_sans_nom_12" id="xcpng_svg__Dégradé_sans_nom_12-31" cx="10725" cy="5493.8" r="1.2"/><radialGradient xlink:href="#xcpng_svg__D%C3%A9grad%C3%A9_sans_nom_12" id="xcpng_svg__Dégradé_sans_nom_12-32" cx="10747" cy="5491" r="1.2"/><radialGradient xlink:href="#xcpng_svg__D%C3%A9grad%C3%A9_sans_nom_12" id="xcpng_svg__Dégradé_sans_nom_12-33" cx="10742" cy="5507.8" r="1.2"/><radialGradient xlink:href="#xcpng_svg__D%C3%A9grad%C3%A9_sans_nom_12" id="xcpng_svg__Dégradé_sans_nom_12-34" cx="10867" cy="5498" r="2.4"/><radialGradient xlink:href="#xcpng_svg__D%C3%A9grad%C3%A9_sans_nom_12" id="xcpng_svg__Dégradé_sans_nom_12-35" cx="10684" cy="5437.4" r="2.4"/><radialGradient xlink:href="#xcpng_svg__D%C3%A9grad%C3%A9_sans_nom_12" id="xcpng_svg__Dégradé_sans_nom_12-36" cx="10679" cy="5351.2" r="2.4"/><radialGradient xlink:href="#xcpng_svg__D%C3%A9grad%C3%A9_sans_nom_12" id="xcpng_svg__Dégradé_sans_nom_12-37" cx="10754" cy="5498.6" r="2.4"/><radialGradient xlink:href="#xcpng_svg__D%C3%A9grad%C3%A9_sans_nom_12" id="xcpng_svg__Dégradé_sans_nom_12-38" cx="10873" cy="5461.2" r="2.4"/><radialGradient xlink:href="#xcpng_svg__D%C3%A9grad%C3%A9_sans_nom_12" id="xcpng_svg__Dégradé_sans_nom_12-39" cx="10883" cy="5535.6" r="1.2"/><radialGradient xlink:href="#xcpng_svg__D%C3%A9grad%C3%A9_sans_nom_12" id="xcpng_svg__Dégradé_sans_nom_12-40" cx="10845" cy="5525.8" r="1.2"/><radialGradient xlink:href="#xcpng_svg__D%C3%A9grad%C3%A9_sans_nom_12" id="xcpng_svg__Dégradé_sans_nom_12-41" cx="10819" cy="5451.8" r="1.2"/><radialGradient xlink:href="#xcpng_svg__D%C3%A9grad%C3%A9_sans_nom_12" id="xcpng_svg__Dégradé_sans_nom_12-42" cx="10804" cy="5460.6" r="1.2"/><radialGradient xlink:href="#xcpng_svg__D%C3%A9grad%C3%A9_sans_nom_12" id="xcpng_svg__Dégradé_sans_nom_12-43" cx="10789" cy="5582.6" r="1.2"/><radialGradient xlink:href="#xcpng_svg__D%C3%A9grad%C3%A9_sans_nom_12" id="xcpng_svg__Dégradé_sans_nom_12-44" cx="10758" cy="5578.1" r="1.2"/><radialGradient xlink:href="#xcpng_svg__D%C3%A9grad%C3%A9_sans_nom_12" id="xcpng_svg__Dégradé_sans_nom_12-45" cx="10773" cy="5628.4" r="1.2"/><radialGradient xlink:href="#xcpng_svg__D%C3%A9grad%C3%A9_sans_nom_12" id="xcpng_svg__Dégradé_sans_nom_12-46" cx="10756" cy="5629.3" r="1.2"/><radialGradient xlink:href="#xcpng_svg__D%C3%A9grad%C3%A9_sans_nom_12" id="xcpng_svg__Dégradé_sans_nom_12-47" cx="10726" cy="5687.3" r="1.2"/><radialGradient xlink:href="#xcpng_svg__D%C3%A9grad%C3%A9_sans_nom_12" id="xcpng_svg__Dégradé_sans_nom_12-48" cx="10778" cy="5731.4" r="1.2"/><radialGradient xlink:href="#xcpng_svg__D%C3%A9grad%C3%A9_sans_nom_12" id="xcpng_svg__Dégradé_sans_nom_12-49" cx="10775" cy="5644.1" r="2.4"/><radialGradient xlink:href="#xcpng_svg__D%C3%A9grad%C3%A9_sans_nom_12" id="xcpng_svg__Dégradé_sans_nom_12-50" cx="10760" cy="5617.9" r="2.4"/><radialGradient xlink:href="#xcpng_svg__D%C3%A9grad%C3%A9_sans_nom_12" id="xcpng_svg__Dégradé_sans_nom_12-51" cx="10734" cy="5694.3" r="2.4"/><radialGradient xlink:href="#xcpng_svg__D%C3%A9grad%C3%A9_sans_nom_12" id="xcpng_svg__Dégradé_sans_nom_12-52" cx="10715" cy="5706.5" r="2.4"/><radialGradient xlink:href="#xcpng_svg__D%C3%A9grad%C3%A9_sans_nom_12" id="xcpng_svg__Dégradé_sans_nom_12-53" cx="10855" cy="5521.3" r="2.4"/><radialGradient xlink:href="#xcpng_svg__D%C3%A9grad%C3%A9_sans_nom_12" id="xcpng_svg__Dégradé_sans_nom_12-54" cx="10806" cy="5570.9" r="2.4"/><radialGradient xlink:href="#xcpng_svg__D%C3%A9grad%C3%A9_sans_nom_12" id="xcpng_svg__Dégradé_sans_nom_12-55" cx="10786" cy="5566.5" r="2.4"/><radialGradient xlink:href="#xcpng_svg__D%C3%A9grad%C3%A9_sans_nom_12" id="xcpng_svg__Dégradé_sans_nom_12-56" cx="10891" cy="5529.8" r="2.4"/><radialGradient xlink:href="#xcpng_svg__D%C3%A9grad%C3%A9_sans_nom_12" id="xcpng_svg__Dégradé_sans_nom_12-57" cx="10490" cy="5559" r="1.2"/><radialGradient xlink:href="#xcpng_svg__D%C3%A9grad%C3%A9_sans_nom_12" id="xcpng_svg__Dégradé_sans_nom_12-58" cx="10585" cy="5661.8" r="1.2"/><radialGradient xlink:href="#xcpng_svg__D%C3%A9grad%C3%A9_sans_nom_12" id="xcpng_svg__Dégradé_sans_nom_12-59" cx="10551" cy="5661.4" r="1.2"/><radialGradient xlink:href="#xcpng_svg__D%C3%A9grad%C3%A9_sans_nom_12" id="xcpng_svg__Dégradé_sans_nom_12-60" cx="10527" cy="5513.1" r="1.2"/><radialGradient xlink:href="#xcpng_svg__D%C3%A9grad%C3%A9_sans_nom_12" id="xcpng_svg__Dégradé_sans_nom_12-61" cx="10536" cy="5475.5" r="1.2"/><radialGradient xlink:href="#xcpng_svg__D%C3%A9grad%C3%A9_sans_nom_12" id="xcpng_svg__Dégradé_sans_nom_12-62" cx="10609" cy="5446.5" r="1.2"/><radialGradient xlink:href="#xcpng_svg__D%C3%A9grad%C3%A9_sans_nom_12" id="xcpng_svg__Dégradé_sans_nom_12-63" cx="10599" cy="5431.4" r="1.2"/><radialGradient xlink:href="#xcpng_svg__D%C3%A9grad%C3%A9_sans_nom_12" id="xcpng_svg__Dégradé_sans_nom_12-64" cx="10477" cy="5420.9" r="1.2"/><radialGradient xlink:href="#xcpng_svg__D%C3%A9grad%C3%A9_sans_nom_12" id="xcpng_svg__Dégradé_sans_nom_12-65" cx="10516" cy="5724" r="1.2"/><radialGradient xlink:href="#xcpng_svg__D%C3%A9grad%C3%A9_sans_nom_12" id="xcpng_svg__Dégradé_sans_nom_12-66" cx="10519" cy="5703.8" r="1.2"/><radialGradient xlink:href="#xcpng_svg__D%C3%A9grad%C3%A9_sans_nom_12" id="xcpng_svg__Dégradé_sans_nom_12-67" cx="10736" cy="5637.7" r="1.2"/><radialGradient xlink:href="#xcpng_svg__D%C3%A9grad%C3%A9_sans_nom_12" id="xcpng_svg__Dégradé_sans_nom_12-68" cx="10742" cy="5617.6" r="1.2"/><radialGradient xlink:href="#xcpng_svg__D%C3%A9grad%C3%A9_sans_nom_12" id="xcpng_svg__Dégradé_sans_nom_12-69" cx="10721" cy="5627.2" r="1.2"/><radialGradient xlink:href="#xcpng_svg__D%C3%A9grad%C3%A9_sans_nom_12" id="xcpng_svg__Dégradé_sans_nom_12-70" cx="10732" cy="5565.3" r="1.2"/><radialGradient xlink:href="#xcpng_svg__D%C3%A9grad%C3%A9_sans_nom_12" id="xcpng_svg__Dégradé_sans_nom_12-71" cx="10682" cy="5495.1" r="1.2"/><radialGradient xlink:href="#xcpng_svg__D%C3%A9grad%C3%A9_sans_nom_12" id="xcpng_svg__Dégradé_sans_nom_12-72" cx="10661" cy="5497" r="1.2"/><radialGradient xlink:href="#xcpng_svg__D%C3%A9grad%C3%A9_sans_nom_12" id="xcpng_svg__Dégradé_sans_nom_12-73" cx="10666" cy="5480.4" r="1.2"/><radialGradient xlink:href="#xcpng_svg__D%C3%A9grad%C3%A9_sans_nom_12" id="xcpng_svg__Dégradé_sans_nom_12-74" cx="10595" cy="5681.2" r="1.2"/><radialGradient xlink:href="#xcpng_svg__D%C3%A9grad%C3%A9_sans_nom_12" id="xcpng_svg__Dégradé_sans_nom_12-75" cx="10449" cy="5612.7" r="2.4"/><radialGradient xlink:href="#xcpng_svg__D%C3%A9grad%C3%A9_sans_nom_12" id="xcpng_svg__Dégradé_sans_nom_12-76" cx="10540" cy="5484.6" r="2.4"/><radialGradient xlink:href="#xcpng_svg__D%C3%A9grad%C3%A9_sans_nom_12" id="xcpng_svg__Dégradé_sans_nom_12-77" cx="10489" cy="5437.6" r="2.4"/><radialGradient xlink:href="#xcpng_svg__D%C3%A9grad%C3%A9_sans_nom_12" id="xcpng_svg__Dégradé_sans_nom_12-78" cx="10493" cy="5417.9" r="2.4"/><radialGradient xlink:href="#xcpng_svg__D%C3%A9grad%C3%A9_sans_nom_12" id="xcpng_svg__Dégradé_sans_nom_12-79" cx="10721" cy="5553.3" r="2.4"/><radialGradient xlink:href="#xcpng_svg__D%C3%A9grad%C3%A9_sans_nom_12" id="xcpng_svg__Dégradé_sans_nom_12-80" cx="10722" cy="5639.6" r="2.4"/><radialGradient xlink:href="#xcpng_svg__D%C3%A9grad%C3%A9_sans_nom_12" id="xcpng_svg__Dégradé_sans_nom_12-81" cx="10595" cy="5672.6" r="2.4"/><radialGradient xlink:href="#xcpng_svg__D%C3%A9grad%C3%A9_sans_nom_12" id="xcpng_svg__Dégradé_sans_nom_12-82" cx="10531" cy="5712.3" r="2.4"/><radialGradient xlink:href="#xcpng_svg__D%C3%A9grad%C3%A9_sans_nom_12" id="xcpng_svg__Dégradé_sans_nom_12-83" cx="10654" cy="5489.1" r="2.4"/><radialGradient xlink:href="#xcpng_svg__D%C3%A9grad%C3%A9_sans_nom_12" id="xcpng_svg__Dégradé_sans_nom_12-84" cx="10473" cy="5682" r="2.4"/><radialGradient xlink:href="#xcpng_svg__D%C3%A9grad%C3%A9_sans_nom_12" id="xcpng_svg__Dégradé_sans_nom_12-85" cx="10485" cy="5607.6" r="2.4"/><radialGradient xlink:href="#xcpng_svg__D%C3%A9grad%C3%A9_sans_nom_12" id="xcpng_svg__Dégradé_sans_nom_12-86" cx="10533" cy="5521.2" r="2.4"/><radialGradient xlink:href="#xcpng_svg__D%C3%A9grad%C3%A9_sans_nom_12" id="xcpng_svg__Dégradé_sans_nom_12-87" cx="-13.1" cy="9145" r="1.2" gradientTransform="rotate(90 4569.9 4895.7)"/><radialGradient xlink:href="#xcpng_svg__D%C3%A9grad%C3%A9_sans_nom_12" id="xcpng_svg__Dégradé_sans_nom_12-88" cx="-19.95" cy="9183" r="1.2" gradientTransform="rotate(90 4569.9 4895.7)"/><radialGradient xlink:href="#xcpng_svg__D%C3%A9grad%C3%A9_sans_nom_12" id="xcpng_svg__Dégradé_sans_nom_12-89" cx="-91.62" cy="9215.1" r="1.2" gradientTransform="rotate(90 4569.9 4895.7)"/><radialGradient xlink:href="#xcpng_svg__D%C3%A9grad%C3%A9_sans_nom_12" id="xcpng_svg__Dégradé_sans_nom_12-90" cx="-81.61" cy="9229.9" r="1.2" gradientTransform="rotate(90 4569.9 4895.7)"/><radialGradient xlink:href="#xcpng_svg__D%C3%A9grad%C3%A9_sans_nom_12" id="xcpng_svg__Dégradé_sans_nom_12-91" cx="-227.71" cy="9029.8" r="1.2" gradientTransform="rotate(90 4569.9 4895.7)"/><radialGradient xlink:href="#xcpng_svg__D%C3%A9grad%C3%A9_sans_nom_12" id="xcpng_svg__Dégradé_sans_nom_12-92" cx="-232.61" cy="9050.1" r="1.2" gradientTransform="rotate(90 4569.9 4895.7)"/><radialGradient xlink:href="#xcpng_svg__D%C3%A9grad%C3%A9_sans_nom_12" id="xcpng_svg__Dégradé_sans_nom_12-93" cx="-211.6" cy="9039.6" r="1.2" gradientTransform="rotate(90 4569.9 4895.7)"/><radialGradient xlink:href="#xcpng_svg__D%C3%A9grad%C3%A9_sans_nom_12" id="xcpng_svg__Dégradé_sans_nom_12-94" cx="-220.01" cy="9101.9" r="1.2" gradientTransform="rotate(90 4569.9 4895.7)"/><radialGradient xlink:href="#xcpng_svg__D%C3%A9grad%C3%A9_sans_nom_12" id="xcpng_svg__Dégradé_sans_nom_12-95" cx="-167.49" cy="9169.8" r="1.2" gradientTransform="rotate(90 4569.9 4895.7)"/><radialGradient xlink:href="#xcpng_svg__D%C3%A9grad%C3%A9_sans_nom_12" id="xcpng_svg__Dégradé_sans_nom_12-96" cx="-145.78" cy="9167" r="1.2" gradientTransform="rotate(90 4569.9 4895.7)"/><radialGradient xlink:href="#xcpng_svg__D%C3%A9grad%C3%A9_sans_nom_12" id="xcpng_svg__Dégradé_sans_nom_12-97" cx="-150.68" cy="9183.8" r="1.2" gradientTransform="rotate(90 4569.9 4895.7)"/><radialGradient xlink:href="#xcpng_svg__D%C3%A9grad%C3%A9_sans_nom_12" id="xcpng_svg__Dégradé_sans_nom_12-98" cx="-25.14" cy="9174.1" r="2.4" gradientTransform="rotate(90 4569.9 4895.7)"/><radialGradient xlink:href="#xcpng_svg__D%C3%A9grad%C3%A9_sans_nom_12" id="xcpng_svg__Dégradé_sans_nom_12-99" cx="-208.23" cy="9113.4" r="2.4" gradientTransform="rotate(90 4569.9 4895.7)"/><radialGradient xlink:href="#xcpng_svg__D%C3%A9grad%C3%A9_sans_nom_12" id="xcpng_svg__Dégradé_sans_nom_12-100" cx="-213.34" cy="9027.3" r="2.4" gradientTransform="rotate(90 4569.9 4895.7)"/><radialGradient xlink:href="#xcpng_svg__D%C3%A9grad%C3%A9_sans_nom_12" id="xcpng_svg__Dégradé_sans_nom_12-101" cx="-138.51" cy="9174.6" r="2.4" gradientTransform="rotate(90 4569.9 4895.7)"/><radialGradient xlink:href="#xcpng_svg__D%C3%A9grad%C3%A9_sans_nom_12" id="xcpng_svg__Dégradé_sans_nom_12-102" cx="-19.48" cy="9137.2" r="2.4" gradientTransform="rotate(90 4569.9 4895.7)"/><radialGradient xlink:href="#xcpng_svg__D%C3%A9grad%C3%A9_sans_nom_12" id="xcpng_svg__radialGradient752" cx="10618" cy="5360.3" r="1.2" gradientTransform="rotate(225 4453.6 5068.8)" gradientUnits="userSpaceOnUse"/><linearGradient id="xcpng_svg__Dégradé_sans_nom_17" x1="343.3" x2="628.93" y1="233.41" y2="233.41" gradientUnits="userSpaceOnUse"><stop offset="0" stop-color="#bd1622" stop-opacity=".7"/><stop offset="0" stop-color="#b71622" stop-opacity=".7"/><stop offset=".01" stop-color="#a61622" stop-opacity=".7"/><stop offset=".02" stop-color="#8d1622" stop-opacity=".7"/><stop offset=".23" stop-color="#92212c" stop-opacity=".67"/><stop offset=".44" stop-color="#a2424c" stop-opacity=".57"/><stop offset=".66" stop-color="#be7a81" stop-opacity=".42"/><stop offset=".88" stop-color="#e4c8cb" stop-opacity=".2"/><stop offset="1" stop-color="#fff" stop-opacity=".05"/></linearGradient><linearGradient id="xcpng_svg__Dégradé_sans_nom_95" x1="291.1" x2="391.78" y1="406.25" y2="406.25" gradientTransform="translate(-1276.5 -61.166)" gradientUnits="userSpaceOnUse"><stop offset="0" stop-color="#fff" stop-opacity=".9"/><stop offset=".18" stop-color="#f9f9e4" stop-opacity=".68"/><stop offset=".39" stop-color="#f4f4c7" stop-opacity=".44"/><stop offset=".59" stop-color="#efefb0" stop-opacity=".25"/><stop offset=".77" stop-color="#ecec9f" stop-opacity=".11"/><stop offset=".91" stop-color="#eaea95" stop-opacity=".03"/><stop offset="1" stop-color="#eaea92" stop-opacity="0"/></linearGradient><style>.xcpng_svg__cls-15{opacity:.5}.xcpng_svg__cls-18{fill:#edf1ca}.xcpng_svg__cls-18,.xcpng_svg__cls-20{mix-blend-mode:overlay}.xcpng_svg__cls-18{opacity:.62}.xcpng_svg__cls-20{fill:#fff}.xcpng_svg__cls-80{fill:#d91118}.xcpng_svg__cls-101{fill:#b4c4ff}.xcpng_svg__cls-102{fill:#5d69ce}</style></defs><g transform="translate(104.72 .835) scale(.09362)"><path d="M-617.02 284.47a246.513 246.513 0 0 1-14.88 61.23c-12.02 31.28-30.64 60.61-55.86 85.83a247.49 247.49 0 0 1-17.56 15.96c-17.74 14.66-37.04 26.45-57.3 35.37-14.03 6.19-28.52 11-43.26 14.44-54.16 12.64-111.74 6.78-162.7-17.58-24.6-11.76-47.65-27.82-68.02-48.19-29.71-29.72-50.26-65.11-61.64-102.7-1.28-4.2-2.44-8.43-3.48-12.68-1.46-5.96-2.7-11.97-3.71-18-3.99-23.7-4.49-47.87-1.52-71.69.35-2.84.75-5.67 1.2-8.49 5.28-33.01 17.27-65.14 35.99-94.21 2.81-4.39 5.79-8.7 8.91-12.93 6-8.13 12.56-15.97 19.69-23.47 1.49-1.58 3.01-3.14 4.55-4.68 41.19-41.19 93.33-64.77 147.06-70.74 17.34-1.92 34.85-2.01 52.2-.26 54.62 5.49 107.75 29.16 149.59 71 55.14 55.13 78.72 129.88 70.74 201.79z" style="isolation:isolate;fill:#191732"/><circle cx="-895.29" cy="278.79" r="200.64" fill="url(#xcpng_svg__D%C3%A9grad%C3%A9_sans_nom_2)" style="isolation:isolate;fill:url(#xcpng_svg__Dégradé_sans_nom_2);mix-blend-mode:overlay"/><path d="M-705.32 447.49c-17.74 14.66-37.04 26.45-57.3 35.37-14.03 6.19-28.52 11-43.26 14.44-54.16 12.64-111.74 6.78-162.7-17.58-24.6-11.76-47.65-27.82-68.02-48.19-29.71-29.72-50.26-65.11-61.64-102.7-1.28-4.2-2.44-8.43-3.48-12.68-1.46-5.96-2.7-11.97-3.71-18-3.99-23.7-4.49-47.87-1.52-71.69.35-2.84.75-5.67 1.2-8.49 5.28-33.01 17.27-65.14 35.99-94.21 2.81-4.39 5.79-8.7 8.91-12.93 6-8.13 12.56-15.97 19.69-23.47 31.74 15.39 33.62 48.45 33.62 48.45 24.12-2.25 37.02 19.63 37.02 19.63h.02c38.95 2.06 40.21 39.5 40.21 39.5-.59 6.62-2.34 12.33-4.57 17.13-6.04 12.99-15.63 19.38-15.63 19.38 22.06 48.07-21.12 64.74-21.12 64.74 43.9 13.7 26.77 59.53 26.77 59.53 19.21 10.17 16.95 21.47 16.95 21.47s26.03-21.36 62.18-22.01c10.89-.19 22.69 1.49 34.98 6.19 38.72 14.83 52.81 54.89 57.6 75.5 1.78 7.65 2.28 12.62 2.28 12.62s24.85-25.98 48.58-16.94c8.36 3.18 13.63 8.89 16.95 14.95z" class="xcpng_svg__cls-20" style="isolation:isolate"/><path d="M-762.62 482.86c-14.03 6.19-28.52 11-43.26 14.44-54.16 12.64-111.74 6.78-162.7-17.58-24.6-11.76-47.65-27.82-68.02-48.19-29.71-29.72-50.26-65.11-61.64-102.7-1.28-4.2-2.44-8.43-3.48-12.68-1.46-5.96-2.7-11.97-3.71-18-3.99-23.7-4.49-47.87-1.52-71.69.35-2.84.75-5.67 1.2-8.49 5.28-33.01 17.27-65.14 35.99-94.21 3.54 6.86 6.57 14.81 8.84 24 48.9 2.91 32.32 41.87 32.32 41.87h.02c.68-.38 23.34-12.65 37.88 14.31 13.9 43.1-17.37 64.07-17.37 64.07 30.11 39.61-6.95 59.42-6.95 59.42 46.33 30.29 12.74 68.74 12.74 68.74 19.69 10.48 17.37 22.14 17.37 22.14s45.17-37.28 99.6-16.31 61.38 90.87 61.38 90.87 25.48-26.8 49.79-17.47c4.74 1.82 8.52 4.43 11.52 7.47z" class="xcpng_svg__cls-20" style="isolation:isolate"/><g style="isolation:isolate" transform="translate(-1276.5 -61.166)"><path fill="url(#xcpng_svg__radialGradient752)" d="M301.73 502.78c-1.11-1.11-2.84.61-1.72 1.72s2.84-.61 1.72-1.72z" style="fill:url(#xcpng_svg__Dégradé_sans_nom_12)"/><path fill="url(#xcpng_svg__D%C3%A9grad%C3%A9_sans_nom_12-2)" d="M359.86 493.84c-1.11-1.11-2.84.61-1.72 1.72 1.11 1.11 2.84-.61 1.72-1.72z" style="fill:url(#xcpng_svg__Dégradé_sans_nom_12-2)"/><path fill="url(#xcpng_svg__D%C3%A9grad%C3%A9_sans_nom_12-3)" d="M391.54 471.85c-1.11-1.11-2.84.61-1.72 1.72s2.84-.61 1.72-1.72z" style="fill:url(#xcpng_svg__Dégradé_sans_nom_12-3)"/><path fill="url(#xcpng_svg__D%C3%A9grad%C3%A9_sans_nom_12-4)" d="M464.96 499.8c-1.11-1.11-2.84.61-1.72 1.72s2.84-.61 1.72-1.72z" style="fill:url(#xcpng_svg__Dégradé_sans_nom_12-4)"/><path fill="url(#xcpng_svg__D%C3%A9grad%C3%A9_sans_nom_12-5)" d="M468.31 482.28c-1.11-1.11-2.84.61-1.72 1.72s2.84-.61 1.72-1.72z" style="fill:url(#xcpng_svg__Dégradé_sans_nom_12-5)"/><path fill="url(#xcpng_svg__D%C3%A9grad%C3%A9_sans_nom_12-6)" d="M385.07 391.86c-1.11-1.11-2.84.61-1.72 1.72 1.11 1.11 2.84-.61 1.72-1.72z" style="fill:url(#xcpng_svg__Dégradé_sans_nom_12-6)"/><path fill="url(#xcpng_svg__D%C3%A9grad%C3%A9_sans_nom_12-7)" d="M408.34 371.56c-1.11-1.11-2.84.61-1.72 1.72s2.84-.61 1.72-1.72z" style="fill:url(#xcpng_svg__Dégradé_sans_nom_12-7)"/><path fill="url(#xcpng_svg__D%C3%A9grad%C3%A9_sans_nom_12-8)" d="M360.81 349.77c-1.11-1.11-2.84.61-1.72 1.72s2.84-.61 1.72-1.72z" style="fill:url(#xcpng_svg__Dégradé_sans_nom_12-8)"/><path fill="url(#xcpng_svg__D%C3%A9grad%C3%A9_sans_nom_12-9)" d="M370.71 336.9c-1.11-1.11-2.84.61-1.72 1.72s2.84-.61 1.72-1.72z" style="fill:url(#xcpng_svg__Dégradé_sans_nom_12-9)"/><path fill="url(#xcpng_svg__D%C3%A9grad%C3%A9_sans_nom_12-10)" d="M345.95 276.49c-1.11-1.11-2.84.61-1.72 1.72s2.84-.61 1.72-1.72z" style="fill:url(#xcpng_svg__Dégradé_sans_nom_12-10)"/><path fill="url(#xcpng_svg__D%C3%A9grad%C3%A9_sans_nom_12-11)" d="M194.43 403.25c-1.11-1.11-2.84.61-1.72 1.72s2.84-.61 1.72-1.72z" style="fill:url(#xcpng_svg__Dégradé_sans_nom_12-11)"/><path fill="url(#xcpng_svg__D%C3%A9grad%C3%A9_sans_nom_12-12)" d="M279.1 286.89c-1.11-1.11-2.84.61-1.72 1.72 1.11 1.11 2.84-.61 1.72-1.72z" style="fill:url(#xcpng_svg__Dégradé_sans_nom_12-12)"/><g class="xcpng_svg__cls-15"><path fill="url(#xcpng_svg__D%C3%A9grad%C3%A9_sans_nom_12-13)" d="M348.09 340.68c-2.22-2.22-5.67 1.23-3.45 3.45s5.67-1.23 3.45-3.45z" style="fill:url(#xcpng_svg__Dégradé_sans_nom_12-13)"/><path fill="url(#xcpng_svg__D%C3%A9grad%C3%A9_sans_nom_12-14)" d="M377.75 346.29c-2.22-2.22-5.67 1.23-3.45 3.45s5.67-1.23 3.45-3.45z" style="fill:url(#xcpng_svg__Dégradé_sans_nom_12-14)"/><path fill="url(#xcpng_svg__D%C3%A9grad%C3%A9_sans_nom_12-15)" d="M243.88 329.46c-2.22-2.22-5.67 1.23-3.45 3.45s5.67-1.23 3.45-3.45z" style="fill:url(#xcpng_svg__Dégradé_sans_nom_12-15)"/><path fill="url(#xcpng_svg__D%C3%A9grad%C3%A9_sans_nom_12-16)" d="M284.76 294.18c-2.22-2.22-5.67 1.23-3.45 3.45s5.67-1.23 3.45-3.45z" style="fill:url(#xcpng_svg__Dégradé_sans_nom_12-16)"/><path fill="url(#xcpng_svg__D%C3%A9grad%C3%A9_sans_nom_12-17)" d="M336.87 276.55c-2.22-2.22-5.67 1.23-3.45 3.45s5.67-1.23 3.45-3.45z" style="fill:url(#xcpng_svg__Dégradé_sans_nom_12-17)"/><path fill="url(#xcpng_svg__D%C3%A9grad%C3%A9_sans_nom_12-18)" d="M339.67 254.5c-2.22-2.22-5.67 1.23-3.45 3.45s5.67-1.23 3.45-3.45z" style="fill:url(#xcpng_svg__Dégradé_sans_nom_12-18)"/><path fill="url(#xcpng_svg__D%C3%A9grad%C3%A9_sans_nom_12-19)" d="M389.77 480.96c-2.22-2.22-5.67 1.23-3.45 3.45s5.67-1.23 3.45-3.45z" style="fill:url(#xcpng_svg__Dégradé_sans_nom_12-19)"/><path fill="url(#xcpng_svg__D%C3%A9grad%C3%A9_sans_nom_12-20)" d="M383.76 411.62c-2.22-2.22-5.67 1.23-3.45 3.45s5.67-1.23 3.45-3.45z" style="fill:url(#xcpng_svg__Dégradé_sans_nom_12-20)"/><path fill="url(#xcpng_svg__D%C3%A9grad%C3%A9_sans_nom_12-21)" d="M399.8 399.6c-2.22-2.22-5.67 1.23-3.45 3.45s5.67-1.23 3.45-3.45z" style="fill:url(#xcpng_svg__Dégradé_sans_nom_12-21)"/><path fill="url(#xcpng_svg__D%C3%A9grad%C3%A9_sans_nom_12-22)" d="M359.71 503.01c-2.22-2.22-5.67 1.23-3.45 3.45s5.67-1.23 3.45-3.45z" style="fill:url(#xcpng_svg__Dégradé_sans_nom_12-22)"/></g><path fill="url(#xcpng_svg__D%C3%A9grad%C3%A9_sans_nom_12-23)" d="M193.71 241.09c-1.11-1.11-2.84.61-1.72 1.72 1.11 1.11 2.84-.61 1.72-1.72z" style="fill:url(#xcpng_svg__Dégradé_sans_nom_12-23)"/><path fill="url(#xcpng_svg__D%C3%A9grad%C3%A9_sans_nom_12-24)" d="M225.39 219.11c-1.11-1.11-2.84.61-1.72 1.72s2.84-.61 1.72-1.72z" style="fill:url(#xcpng_svg__Dégradé_sans_nom_12-24)"/><path fill="url(#xcpng_svg__D%C3%A9grad%C3%A9_sans_nom_12-25)" d="M298.81 247.06c-1.11-1.11-2.84.61-1.72 1.72s2.84-.61 1.72-1.72z" style="fill:url(#xcpng_svg__Dégradé_sans_nom_12-25)"/><path fill="url(#xcpng_svg__D%C3%A9grad%C3%A9_sans_nom_12-26)" d="M302.16 229.54c-1.11-1.11-2.84.61-1.72 1.72 1.11 1.11 2.84-.61 1.72-1.72z" style="fill:url(#xcpng_svg__Dégradé_sans_nom_12-26)"/><path fill="url(#xcpng_svg__D%C3%A9grad%C3%A9_sans_nom_12-27)" d="M263.98 474.34c-1.11-1.11-2.84.61-1.72 1.72s2.84-.61 1.72-1.72z" style="fill:url(#xcpng_svg__Dégradé_sans_nom_12-27)"/><path fill="url(#xcpng_svg__D%C3%A9grad%C3%A9_sans_nom_12-28)" d="M281.8 463.45c-1.11-1.11-2.84.61-1.72 1.72s2.84-.61 1.72-1.72z" style="fill:url(#xcpng_svg__Dégradé_sans_nom_12-28)"/><path fill="url(#xcpng_svg__D%C3%A9grad%C3%A9_sans_nom_12-29)" d="M259.52 456.02c-1.11-1.11-2.84.61-1.72 1.72 1.11 1.11 2.84-.61 1.72-1.72z" style="fill:url(#xcpng_svg__Dégradé_sans_nom_12-29)"/><path fill="url(#xcpng_svg__D%C3%A9grad%C3%A9_sans_nom_12-30)" d="M309.53 417.89c-1.11-1.11-2.84.61-1.72 1.72s2.84-.61 1.72-1.72z" style="fill:url(#xcpng_svg__Dégradé_sans_nom_12-30)"/><path fill="url(#xcpng_svg__D%C3%A9grad%C3%A9_sans_nom_12-31)" d="M320.42 332.73c-1.11-1.11-2.84.61-1.72 1.72s2.84-.61 1.72-1.72z" style="fill:url(#xcpng_svg__Dégradé_sans_nom_12-31)"/><path fill="url(#xcpng_svg__D%C3%A9grad%C3%A9_sans_nom_12-32)" d="M303.09 319.36c-1.11-1.11-2.84.61-1.72 1.72 1.11 1.11 2.84-.61 1.72-1.72z" style="fill:url(#xcpng_svg__Dégradé_sans_nom_12-32)"/><path fill="url(#xcpng_svg__D%C3%A9grad%C3%A9_sans_nom_12-33)" d="M318.44 310.94c-1.11-1.11-2.84.61-1.72 1.72s2.84-.61 1.72-1.72z" style="fill:url(#xcpng_svg__Dégradé_sans_nom_12-33)"/><g class="xcpng_svg__cls-15"><path fill="url(#xcpng_svg__D%C3%A9grad%C3%A9_sans_nom_12-34)" d="M223.62 228.22c-2.22-2.22-5.67 1.23-3.45 3.45s5.67-1.23 3.45-3.45z" style="fill:url(#xcpng_svg__Dégradé_sans_nom_12-34)"/><path fill="url(#xcpng_svg__D%C3%A9grad%C3%A9_sans_nom_12-35)" d="M310.2 400.57c-2.22-2.22-5.67 1.23-3.45 3.45s5.67-1.23 3.45-3.45z" style="fill:url(#xcpng_svg__Dégradé_sans_nom_12-35)"/><path fill="url(#xcpng_svg__D%C3%A9grad%C3%A9_sans_nom_12-36)" d="M252.88 465.1c-2.22-2.22-5.67 1.23-3.45 3.45s5.67-1.23 3.45-3.45z" style="fill:url(#xcpng_svg__Dégradé_sans_nom_12-36)"/><path fill="url(#xcpng_svg__D%C3%A9grad%C3%A9_sans_nom_12-37)" d="M304.19 307.98c-2.22-2.22-5.67 1.23-3.45 3.45s5.67-1.23 3.45-3.45z" style="fill:url(#xcpng_svg__Dégradé_sans_nom_12-37)"/><path fill="url(#xcpng_svg__D%C3%A9grad%C3%A9_sans_nom_12-38)" d="M193.56 250.27c-2.22-2.22-5.67 1.23-3.45 3.45s5.67-1.23 3.45-3.45z" style="fill:url(#xcpng_svg__Dégradé_sans_nom_12-38)"/></g><path fill="url(#xcpng_svg__D%C3%A9grad%C3%A9_sans_nom_12-39)" d="M238.47 193.55c1.19-1.02-.39-2.87-1.58-1.85s.39 2.87 1.58 1.85z" style="fill:url(#xcpng_svg__Dégradé_sans_nom_12-39)"/><path fill="url(#xcpng_svg__D%C3%A9grad%C3%A9_sans_nom_12-40)" d="M257.91 226.85c1.19-1.02-.39-2.87-1.58-1.85s.39 2.87 1.58 1.85z" style="fill:url(#xcpng_svg__Dégradé_sans_nom_12-40)"/><path fill="url(#xcpng_svg__D%C3%A9grad%C3%A9_sans_nom_12-41)" d="M224.29 297.85c1.19-1.02-.39-2.87-1.58-1.85s.39 2.87 1.58 1.85z" style="fill:url(#xcpng_svg__Dégradé_sans_nom_12-41)"/><path fill="url(#xcpng_svg__D%C3%A9grad%C3%A9_sans_nom_12-42)" d="M241.49 302.57c1.19-1.02-.39-2.87-1.58-1.85s.39 2.87 1.58 1.85z" style="fill:url(#xcpng_svg__Dégradé_sans_nom_12-42)"/><path fill="url(#xcpng_svg__D%C3%A9grad%C3%A9_sans_nom_12-43)" d="M338.16 226.67c1.19-1.02-.39-2.87-1.58-1.85s.39 2.87 1.58 1.85z" style="fill:url(#xcpng_svg__Dégradé_sans_nom_12-43)"/><path fill="url(#xcpng_svg__D%C3%A9grad%C3%A9_sans_nom_12-44)" d="M356.58 251.46c1.19-1.02-.39-2.87-1.58-1.85s.39 2.87 1.58 1.85z" style="fill:url(#xcpng_svg__Dégradé_sans_nom_12-44)"/><path fill="url(#xcpng_svg__D%C3%A9grad%C3%A9_sans_nom_12-45)" d="M382.02 205.78c1.19-1.02-.39-2.87-1.58-1.85s.39 2.87 1.58 1.85z" style="fill:url(#xcpng_svg__Dégradé_sans_nom_12-45)"/><path fill="url(#xcpng_svg__D%C3%A9grad%C3%A9_sans_nom_12-46)" d="M394.08 216.66c1.19-1.02-.39-2.87-1.58-1.85s.39 2.87 1.58 1.85z" style="fill:url(#xcpng_svg__Dégradé_sans_nom_12-46)"/><path fill="url(#xcpng_svg__D%C3%A9grad%C3%A9_sans_nom_12-47)" d="M456.24 196.71c1.19-1.02-.39-2.87-1.58-1.85s.39 2.87 1.58 1.85z" style="fill:url(#xcpng_svg__Dégradé_sans_nom_12-47)"/><path fill="url(#xcpng_svg__D%C3%A9grad%C3%A9_sans_nom_12-48)" d="M451.12 129.25c1.19-1.02-.39-2.87-1.58-1.85s.39 2.87 1.58 1.85z" style="fill:url(#xcpng_svg__Dégradé_sans_nom_12-48)"/><g class="xcpng_svg__cls-15"><path fill="url(#xcpng_svg__D%C3%A9grad%C3%A9_sans_nom_12-49)" d="M392.08 193.81c2.39-2.04-.78-5.75-3.17-3.71s.78 5.75 3.17 3.71z" style="fill:url(#xcpng_svg__Dégradé_sans_nom_12-49)"/><path fill="url(#xcpng_svg__D%C3%A9grad%C3%A9_sans_nom_12-50)" d="M384.17 222.94c2.39-2.04-.78-5.75-3.17-3.71s.78 5.75 3.17 3.71z" style="fill:url(#xcpng_svg__Dégradé_sans_nom_12-50)"/><path fill="url(#xcpng_svg__D%C3%A9grad%C3%A9_sans_nom_12-51)" d="M456.9 187.65c2.39-2.04-.78-5.75-3.17-3.71s.78 5.75 3.17 3.71z" style="fill:url(#xcpng_svg__Dégradé_sans_nom_12-51)"/><path fill="url(#xcpng_svg__D%C3%A9grad%C3%A9_sans_nom_12-52)" d="M478.65 192.17c2.39-2.04-.78-5.75-3.17-3.71s.78 5.75 3.17 3.71z" style="fill:url(#xcpng_svg__Dégradé_sans_nom_12-52)"/><path fill="url(#xcpng_svg__D%C3%A9grad%C3%A9_sans_nom_12-53)" d="M248.96 224.38c2.39-2.04-.78-5.75-3.17-3.71s.78 5.75 3.17 3.71z" style="fill:url(#xcpng_svg__Dégradé_sans_nom_12-53)"/><path fill="url(#xcpng_svg__D%C3%A9grad%C3%A9_sans_nom_12-54)" d="M318.56 223.82c2.39-2.04-.78-5.75-3.17-3.71s.78 5.75 3.17 3.71z" style="fill:url(#xcpng_svg__Dégradé_sans_nom_12-54)"/><path fill="url(#xcpng_svg__D%C3%A9grad%C3%A9_sans_nom_12-55)" d="M329.29 240.74c2.39-2.04-.78-5.75-3.17-3.71s.78 5.75 3.17 3.71z" style="fill:url(#xcpng_svg__Dégradé_sans_nom_12-55)"/><path fill="url(#xcpng_svg__D%C3%A9grad%C3%A9_sans_nom_12-56)" d="M229.34 192.68c2.39-2.04-.78-5.75-3.17-3.71s.78 5.75 3.17 3.71z" style="fill:url(#xcpng_svg__Dégradé_sans_nom_12-56)"/></g><path fill="url(#xcpng_svg__D%C3%A9grad%C3%A9_sans_nom_12-57)" d="M530.91 454.48c1.06 1.16 2.86-.49 1.8-1.65s-2.86.49-1.8 1.65z" style="fill:url(#xcpng_svg__Dégradé_sans_nom_12-57)"/><path fill="url(#xcpng_svg__D%C3%A9grad%C3%A9_sans_nom_12-58)" d="M536.68 314.85c1.06 1.16 2.86-.49 1.8-1.65s-2.86.49-1.8 1.65z" style="fill:url(#xcpng_svg__Dégradé_sans_nom_12-58)"/><path fill="url(#xcpng_svg__D%C3%A9grad%C3%A9_sans_nom_12-59)" d="M560.24 339.01c1.06 1.16 2.86-.49 1.8-1.65s-2.86.49-1.8 1.65z" style="fill:url(#xcpng_svg__Dégradé_sans_nom_12-59)"/><path fill="url(#xcpng_svg__D%C3%A9grad%C3%A9_sans_nom_12-60)" d="M472.44 460.86c1.06 1.16 2.86-.49 1.8-1.65s-2.86.49-1.8 1.65z" style="fill:url(#xcpng_svg__Dégradé_sans_nom_12-60)"/><path fill="url(#xcpng_svg__D%C3%A9grad%C3%A9_sans_nom_12-61)" d="M439.82 481.43c1.06 1.16 2.86-.49 1.8-1.65s-2.86.49-1.8 1.65z" style="fill:url(#xcpng_svg__Dégradé_sans_nom_12-61)"/><path fill="url(#xcpng_svg__D%C3%A9grad%C3%A9_sans_nom_12-62)" d="M367.71 450.28c1.06 1.16 2.86-.49 1.8-1.65s-2.86.49-1.8 1.65z" style="fill:url(#xcpng_svg__Dégradé_sans_nom_12-62)"/><path fill="url(#xcpng_svg__D%C3%A9grad%C3%A9_sans_nom_12-63)" d="M363.59 467.64c1.06 1.16 2.86-.49 1.8-1.65s-2.86.49-1.8 1.65z" style="fill:url(#xcpng_svg__Dégradé_sans_nom_12-63)"/><path fill="url(#xcpng_svg__D%C3%A9grad%C3%A9_sans_nom_12-64)" d="M442.78 561.63c1.06 1.16 2.86-.49 1.8-1.65s-2.86.49-1.8 1.65z" style="fill:url(#xcpng_svg__Dégradé_sans_nom_12-64)"/><path fill="url(#xcpng_svg__D%C3%A9grad%C3%A9_sans_nom_12-65)" d="M629.38 319.54c1.06 1.16 2.86-.49 1.8-1.65s-2.86.49-1.8 1.65z" style="fill:url(#xcpng_svg__Dégradé_sans_nom_12-65)"/><path fill="url(#xcpng_svg__D%C3%A9grad%C3%A9_sans_nom_12-66)" d="M612.98 331.71c1.06 1.16 2.86-.49 1.8-1.65s-2.86.49-1.8 1.65z" style="fill:url(#xcpng_svg__Dégradé_sans_nom_12-66)"/><path fill="url(#xcpng_svg__D%C3%A9grad%C3%A9_sans_nom_12-67)" d="M412.49 224.75c1.06 1.16 2.86-.49 1.8-1.65s-2.86.49-1.8 1.65z" style="fill:url(#xcpng_svg__Dégradé_sans_nom_12-67)"/><path fill="url(#xcpng_svg__D%C3%A9grad%C3%A9_sans_nom_12-68)" d="M394.21 234.85c1.06 1.16 2.86-.49 1.8-1.65s-2.86.49-1.8 1.65z" style="fill:url(#xcpng_svg__Dégradé_sans_nom_12-68)"/><path fill="url(#xcpng_svg__D%C3%A9grad%C3%A9_sans_nom_12-69)" d="M416.14 243.25c1.06 1.16 2.86-.49 1.8-1.65s-2.86.49-1.8 1.65z" style="fill:url(#xcpng_svg__Dégradé_sans_nom_12-69)"/><path fill="url(#xcpng_svg__D%C3%A9grad%C3%A9_sans_nom_12-70)" d="M364.5 279.14c1.06 1.16 2.86-.49 1.8-1.65s-2.86.49-1.8 1.65z" style="fill:url(#xcpng_svg__Dégradé_sans_nom_12-70)"/><path fill="url(#xcpng_svg__D%C3%A9grad%C3%A9_sans_nom_12-71)" d="M349.88 363.75c1.06 1.16 2.86-.49 1.8-1.65s-2.86.49-1.8 1.65z" style="fill:url(#xcpng_svg__Dégradé_sans_nom_12-71)"/><path fill="url(#xcpng_svg__D%C3%A9grad%C3%A9_sans_nom_12-72)" d="M366.6 377.87c1.06 1.16 2.86-.49 1.8-1.65s-2.86.49-1.8 1.65z" style="fill:url(#xcpng_svg__Dégradé_sans_nom_12-72)"/><path fill="url(#xcpng_svg__D%C3%A9grad%C3%A9_sans_nom_12-73)" d="M350.9 385.6c1.06 1.16 2.86-.49 1.8-1.65s-2.86.49-1.8 1.65z" style="fill:url(#xcpng_svg__Dégradé_sans_nom_12-73)"/><path fill="url(#xcpng_svg__D%C3%A9grad%C3%A9_sans_nom_12-74)" d="M543.27 293.95c1.06 1.16 2.86-.49 1.8-1.65s-2.86.49-1.8 1.65z" style="fill:url(#xcpng_svg__Dégradé_sans_nom_12-74)"/><g class="xcpng_svg__cls-15"><path fill="url(#xcpng_svg__D%C3%A9grad%C3%A9_sans_nom_12-75)" d="M596.99 446.26c2.12 2.31 5.72-.98 3.6-3.29s-5.72.98-3.6 3.29z" style="fill:url(#xcpng_svg__Dégradé_sans_nom_12-75)"/><path fill="url(#xcpng_svg__D%C3%A9grad%C3%A9_sans_nom_12-76)" d="M441.99 472.4c2.12 2.31 5.72-.98 3.6-3.29s-5.72.98-3.6 3.29z" style="fill:url(#xcpng_svg__Dégradé_sans_nom_12-76)"/><path fill="url(#xcpng_svg__D%C3%A9grad%C3%A9_sans_nom_12-77)" d="M444.95 541.94c2.12 2.31 5.72-.98 3.6-3.29s-5.72.98-3.6 3.29z" style="fill:url(#xcpng_svg__Dégradé_sans_nom_12-77)"/><path fill="url(#xcpng_svg__D%C3%A9grad%C3%A9_sans_nom_12-78)" d="M428.4 553.25c2.12 2.31 5.72-.98 3.6-3.29s-5.72.98-3.6 3.29z" style="fill:url(#xcpng_svg__Dégradé_sans_nom_12-78)"/><path fill="url(#xcpng_svg__D%C3%A9grad%C3%A9_sans_nom_12-79)" d="M363.07 296.42c2.12 2.31 5.72-.98 3.6-3.29s-5.72.98-3.6 3.29z" style="fill:url(#xcpng_svg__Dégradé_sans_nom_12-79)"/><path fill="url(#xcpng_svg__D%C3%A9grad%C3%A9_sans_nom_12-80)" d="M423.17 234.47c2.12 2.31 5.72-.98 3.6-3.29s-5.72.98-3.6 3.29z" style="fill:url(#xcpng_svg__Dégradé_sans_nom_12-80)"/><path fill="url(#xcpng_svg__D%C3%A9grad%C3%A9_sans_nom_12-81)" d="M536.2 300.82c2.12 2.31 5.72-.98 3.6-3.29s-5.72.98-3.6 3.29z" style="fill:url(#xcpng_svg__Dégradé_sans_nom_12-81)"/><path fill="url(#xcpng_svg__D%C3%A9grad%C3%A9_sans_nom_12-82)" d="M609.66 318.1c2.12 2.31 5.72-.98 3.6-3.29s-5.72.98-3.6 3.29z" style="fill:url(#xcpng_svg__Dégradé_sans_nom_12-82)"/><path fill="url(#xcpng_svg__D%C3%A9grad%C3%A9_sans_nom_12-83)" d="M365.01 389.18c2.12 2.31 5.72-.98 3.6-3.29s-5.72.98-3.6 3.29z" style="fill:url(#xcpng_svg__Dégradé_sans_nom_12-83)"/><path fill="url(#xcpng_svg__D%C3%A9grad%C3%A9_sans_nom_12-84)" d="M628.99 380.33c2.12 2.31 5.72-.98 3.6-3.29s-5.72.98-3.6 3.29z" style="fill:url(#xcpng_svg__Dégradé_sans_nom_12-84)"/><path fill="url(#xcpng_svg__D%C3%A9grad%C3%A9_sans_nom_12-85)" d="M568.07 424.59c2.12 2.31 5.72-.98 3.6-3.29s-5.72.98-3.6 3.29z" style="fill:url(#xcpng_svg__Dégradé_sans_nom_12-85)"/><path fill="url(#xcpng_svg__D%C3%A9grad%C3%A9_sans_nom_12-86)" d="M472.99 451.7c2.12 2.31 5.72-.98 3.6-3.29s-5.72.98-3.6 3.29z" style="fill:url(#xcpng_svg__Dégradé_sans_nom_12-86)"/></g><path fill="url(#xcpng_svg__D%C3%A9grad%C3%A9_sans_nom_12-87)" d="M319.28 312.74c0 1.57 2.44 1.57 2.44 0s-2.44-1.57-2.44 0z" style="fill:url(#xcpng_svg__Dégradé_sans_nom_12-87)"/><path fill="url(#xcpng_svg__D%C3%A9grad%C3%A9_sans_nom_12-88)" d="M281.33 305.89c0 1.57 2.44 1.57 2.44 0s-2.44-1.57-2.44 0z" style="fill:url(#xcpng_svg__Dégradé_sans_nom_12-88)"/><path fill="url(#xcpng_svg__D%C3%A9grad%C3%A9_sans_nom_12-89)" d="M249.18 234.21c0 1.57 2.44 1.57 2.44 0s-2.44-1.57-2.44 0z" style="fill:url(#xcpng_svg__Dégradé_sans_nom_12-89)"/><path fill="url(#xcpng_svg__D%C3%A9grad%C3%A9_sans_nom_12-90)" d="M234.42 244.22c0 1.57 2.44 1.57 2.44 0s-2.44-1.57-2.44 0z" style="fill:url(#xcpng_svg__Dégradé_sans_nom_12-90)"/><path fill="url(#xcpng_svg__D%C3%A9grad%C3%A9_sans_nom_12-91)" d="M434.52 98.12c0 1.57 2.44 1.57 2.44 0s-2.44-1.57-2.44 0z" style="fill:url(#xcpng_svg__Dégradé_sans_nom_12-91)"/><path fill="url(#xcpng_svg__D%C3%A9grad%C3%A9_sans_nom_12-92)" d="M414.22 93.22c0 1.57 2.44 1.57 2.44 0s-2.44-1.57-2.44 0z" style="fill:url(#xcpng_svg__Dégradé_sans_nom_12-92)"/><path fill="url(#xcpng_svg__D%C3%A9grad%C3%A9_sans_nom_12-93)" d="M424.72 114.23c0 1.57 2.44 1.57 2.44 0s-2.44-1.57-2.44 0z" style="fill:url(#xcpng_svg__Dégradé_sans_nom_12-93)"/><path fill="url(#xcpng_svg__D%C3%A9grad%C3%A9_sans_nom_12-94)" d="M362.4 105.83c0 1.57 2.44 1.57 2.44 0s-2.44-1.57-2.44 0z" style="fill:url(#xcpng_svg__Dégradé_sans_nom_12-94)"/><path fill="url(#xcpng_svg__D%C3%A9grad%C3%A9_sans_nom_12-95)" d="M294.47 158.35c0 1.57 2.44 1.57 2.44 0s-2.44-1.57-2.44 0z" style="fill:url(#xcpng_svg__Dégradé_sans_nom_12-95)"/><path fill="url(#xcpng_svg__D%C3%A9grad%C3%A9_sans_nom_12-96)" d="M297.27 180.05c0 1.57 2.44 1.57 2.44 0s-2.44-1.57-2.44 0z" style="fill:url(#xcpng_svg__Dégradé_sans_nom_12-96)"/><path fill="url(#xcpng_svg__D%C3%A9grad%C3%A9_sans_nom_12-97)" d="M280.47 175.15c0 1.57 2.44 1.57 2.44 0s-2.44-1.57-2.44 0z" style="fill:url(#xcpng_svg__Dégradé_sans_nom_12-97)"/><g class="xcpng_svg__cls-15"><path fill="url(#xcpng_svg__D%C3%A9grad%C3%A9_sans_nom_12-98)" d="M289.03 300.69c0 3.14 4.88 3.14 4.88 0s-4.88-3.14-4.88 0z" style="fill:url(#xcpng_svg__Dégradé_sans_nom_12-98)"/><path fill="url(#xcpng_svg__D%C3%A9grad%C3%A9_sans_nom_12-99)" d="M349.68 117.6c0 3.14 4.88 3.14 4.88 0s-4.88-3.14-4.88 0z" style="fill:url(#xcpng_svg__Dégradé_sans_nom_12-99)"/><path fill="url(#xcpng_svg__D%C3%A9grad%C3%A9_sans_nom_12-100)" d="M435.84 112.5c0 3.14 4.88 3.14 4.88 0s-4.88-3.14-4.88 0z" style="fill:url(#xcpng_svg__Dégradé_sans_nom_12-100)"/><path fill="url(#xcpng_svg__D%C3%A9grad%C3%A9_sans_nom_12-101)" d="M288.46 187.32c0 3.14 4.88 3.14 4.88 0s-4.88-3.14-4.88 0z" style="fill:url(#xcpng_svg__Dégradé_sans_nom_12-101)"/><path fill="url(#xcpng_svg__D%C3%A9grad%C3%A9_sans_nom_12-102)" d="M325.87 306.36c0 3.14 4.88 3.14 4.88 0s-4.88-3.14-4.88 0z" style="fill:url(#xcpng_svg__Dégradé_sans_nom_12-102)"/></g><path d="M488.75 371.49c-.24.61-.49 1.22-.72 1.82l.72-1.83zm53.88 10.9c-8.28 5.35-17.28 9.79-25.83 13.34-13.33-6.6-23.42-17.28-28.05-24.23 3.73-9.41 8.58-19.51 14.62-28.69.33-.48 1.62-2.38 2.26-3.32.02-.03.03-.03.03-.03 3.39-5.73-4.91-12.55-8.52-9.98-.1.07-.19.13-.26.16 11.26-8.92 22.9-18.88 34.42-29.81-3.1 3.57-6.22 8.55-3.75 12.16.74 1.1 1.51 1.81 2.33 2.22 12.57-8.12 25.97-8.94 38.52 3.73 22.1 22.28 2.14 46.4-25.77 64.45z" class="xcpng_svg__cls-80"/><path d="M391.57 390.58c1.4 9.95-1.3 20.04-7.49 27.95-24.77 31.22-92.94 44.99-92.94 44.99s-2.08-69.51 22.69-100.73a37.03 37.03 0 0 1 25.52-13.65l52.22 41.43z" style="fill:#eaea92"/><path d="M380.68 381.94c.82 5.81-.75 11.7-4.36 16.32-14.46 18.22-54.21 26.24-54.21 26.24s-1.23-40.53 13.23-58.76c3.68-4.57 9.06-7.44 14.9-7.96l30.44 24.15z" style="opacity:.85;fill:#fff"/><path d="M419.37 381.72c-2.78 1.53-4.37 2.38-4.52 2.45l-71.56-56.78c.03-.16.5-1.91 1.35-4.96 3.46-12.49 13.82-46.95 32.96-87.37l.02-.03c6.13-13 13.19-26.6 21.21-40.3l.04-.06c14.89-25.43 33.13-51.15 55.14-73.73 32.89-33.79 64.74-51.71 91.41-60.61 4.16 16.28 15.09 32.97 31.53 46.01 16.44 13.05 35.15 19.88 51.95 20.28-2.6 28-12.81 63.08-38.24 102.79-54.61 85.3-149.45 140.37-171.31 152.31z" class="xcpng_svg__cls-80"/><path d="M628.93 126.62c-16.81-.4-35.51-7.23-51.95-20.28s-27.37-29.73-31.53-46.01c4.92-1.67 9.64-2.98 14.19-4.07 2.71 13.47 11.82 27.98 25.97 39.21s30.3 16.82 44.04 16.39c0 4.7-.2 9.6-.71 14.76z" class="xcpng_svg__cls-102"/><path d="M629.64 111.86c-13.74.43-29.88-5.16-44.04-16.39-14.15-11.23-23.27-25.74-25.97-39.21 30.71-7.26 52.15-2.54 56.42.84s13.73 23.19 13.6 54.75z" style="fill:#282465"/><path d="M414.99 208.6s-38.86 32.15-37.38 26.46l.02-.03c6.13-13 13.19-26.6 21.21-40.3l.04-.06c1.99-2.75 3.26-5.33 3.26-5.33l12.84 19.26z" class="xcpng_svg__cls-80"/><path d="M377.73 234.73c1.68-4.09-6.84-10.63-11.66-6.02 0 0 0 .01-.02.03-.76.84-2.32 2.53-2.71 2.96-6.91 7.27-14.8 13.76-22.44 19.23-14.33-4.12-25.07-13.73-31.9-21.69 1.5-8.73 3.71-17.97 6.87-26.78 11.24-31.28 30.18-56.21 56.91-39.75 15.19 9.34 17.43 22.59 12.38 36.67.59.7 1.46 1.3 2.7 1.77 4.07 1.58 8.21-2.59 10.98-6.42-8.02 13.7-15.08 27.3-21.2 40.3.01-.08.05-.19.09-.3z" style="fill:#c51116"/><path d="M615.57 56.55c-7.43.72-37.46-1.06-62.11 9.48a225.68 225.68 0 0 0-12.94 6.01c-56.49 28.32-125.08 100.72-179.42 263.2l-16.41-13.01c3.47-12.49 13.82-46.94 32.96-87.37l.02-.03c6.12-13 13.18-26.6 21.2-40.3 0 0 .02-.02.05-.06 14.88-25.43 33.13-51.15 55.15-73.73 32.89-33.8 64.74-51.7 91.4-60.6 4.92-1.67 9.64-2.99 14.19-4.08 29.62-6.99 50.62-2.86 55.9.49z" class="xcpng_svg__cls-18"/><path d="M340.9 250.93c-17.01 12.17-32.82 19.29-33.96 18.6-1.14-.7-1.65-18.91 2.06-40.29 6.83 7.96 17.57 17.57 31.9 21.69zm175.9 144.8c-.37.15-.74.3-1.1.45-.4.17-.8.33-1.2.49a213.942 213.942 0 0 1-11.53 4.22c-2.91.97-5.65 1.81-8.17 2.52-.31.09-.62.18-.93.26-.31.09-.61.17-.91.25s-.6.16-.89.24c-2.64.7-4.96 1.24-6.87 1.62-.22.04-.43.08-.63.12-.94.18-1.76.32-2.47.41-.18.03-.35.05-.52.07-1.28.15-2.05.13-2.23-.05-.32-.33-.13-2.6.59-6.23.16-.78.34-1.63.54-2.54.18-.75.37-1.55.57-2.39l.44-1.72c.02-.08.04-.16.07-.25.29-1.1.61-2.26.95-3.47.19-.65.38-1.31.58-1.98.3-1.01.62-2.05.96-3.11.02-.05.03-.1.05-.15.14-.45.29-.9.44-1.36.28-.87.58-1.75.88-2.65.18-.52.37-1.04.55-1.57.17-.48.34-.97.52-1.45.49-1.36 1-2.74 1.54-4.14l.72-1.83c4.62 6.95 14.72 17.64 28.05 24.24z" class="xcpng_svg__cls-101"/><path fill="url(#xcpng_svg__D%C3%A9grad%C3%A9_sans_nom_17)" d="M590.68 229.41c25.43-39.71 35.64-74.8 38.24-102.79-16.81-.4-35.51-7.23-51.95-20.28s-27.37-29.73-31.53-46.01c-26.67 8.9-58.52 26.81-91.41 60.61-22.02 22.58-40.26 48.3-55.14 73.73l-.04.06a515.139 515.139 0 0 0-21.21 40.3l-.02.03c-19.14 40.43-29.49 74.89-32.96 87.37-.85 3.05-1.32 4.8-1.35 4.96l71.56 56.78c.15-.07 1.74-.92 4.52-2.45 11.46-6.26 43.01-24.4 78.3-52.53 3.82-1.64 11.22 4.81 7.98 10.27l-.02.03c-.64.93-1.93 2.84-2.26 3.31-17.76 27.02-25.37 62.14-24.03 63.53 1.33 1.34 36.17-6.42 63.29-23.95 27.9-18.05 47.87-42.17 25.77-64.44-12.55-12.67-25.96-11.85-38.52-3.73-.82-.42-1.59-1.13-2.33-2.22-2.29-3.36.24-7.89 3.09-11.38 21.65-20.47 42.84-44.33 60.04-71.2z" style="fill:url(#xcpng_svg__Dégradé_sans_nom_17);mix-blend-mode:multiply;opacity:.61"/><circle cx="531.62" cy="163.51" r="43.18" class="xcpng_svg__cls-101"/><circle cx="531.81" cy="163.43" r="36.34" class="xcpng_svg__cls-102" transform="rotate(-70.76 531.78 163.44)"/><path d="M587.51 182.8c1.28-4.21-5.42-9.4-11.62-13.18 1.46-10.96-1.21-21.93-7.61-31.01-7.61-10.78-19.52-17.51-32.7-18.45-1.29-.09-2.58-.13-3.83-.11-6.68.1-13.16 1.72-19.06 4.71-7.91-6.98-13.89-9.69-16.91-7.59-3.12 2.17-2.44 9.28 1.91 20.03a42.63 42.63 0 0 0-4.36 6.98c-10.65-.6-17.09.99-18.17 4.53-1.09 3.58 3.71 8.65 13.51 14.29-.03 1.29 0 2.59.08 3.88.54 7.97 3.28 15.66 7.91 22.23 5.08 7.2 11.98 12.56 20.1 15.66 1.04.4 2.09.75 3.17 1.07 5.51 1.64 11.2 2.19 16.92 1.62 2.97-.29 5.9-.91 8.74-1.81h.01c3.58 3.19 7.91 6.54 11.59 7.94 2.19.83 4.15.98 5.58-.02 3.57-2.48 1.63-10.53-.85-17.28 2.96-2.67 5.51-5.72 7.62-9.06 7.56.41 16.64-.07 17.97-4.45zm-13.44-5.19c.53-1.61.97-3.27 1.31-4.93 5.79 3.65 8.74 6.87 8.13 8.91-.64 2.1-5.13 3.13-12.36 2.87 1.15-2.18 2.13-4.46 2.92-6.84zm-14.49 20.66c2.23 6.38 2.53 10.68.8 11.89-1.83 1.27-6.08-.78-11.7-5.61 3.18-1.27 6.22-2.89 9.04-4.88.64-.45 1.25-.92 1.86-1.4zm-59.8-63.59c-2.96-7.62-3.56-12.74-1.62-14.09 1.9-1.31 6.18.74 11.84 5.64-.94.57-1.87 1.17-2.78 1.81a44.426 44.426 0 0 0-7.44 6.63zm-2.35 7.36c.45-.72.92-1.42 1.41-2.1 4.23 9.71 10.75 21.11 18.61 32.51-10.14-3.55-19.32-7.51-26.15-11.26.45-6.76 2.55-13.4 6.13-19.14zm-18.27 7.88c.67-2.22 5.34-3.26 12.87-2.91a44.373 44.373 0 0 0-3.17 12.78c-6.85-4.07-10.37-7.64-9.7-9.86zm77.09 47.66a41.698 41.698 0 0 1-9.7 5.06c-6.34-5.86-13.75-14.38-21.13-24.33.64.2 1.28.4 1.93.6 14.4 4.37 28.22 7.23 39.28 8.14a41.084 41.084 0 0 1-10.38 10.54zm-24.46-74.99c1.18-.02 2.39.01 3.61.1a41.163 41.163 0 0 1 30.8 17.38c6.23 8.84 8.73 19.59 7.03 30.26-.35 2.19-.88 4.36-1.57 6.47-.86 2.62-1.98 5.13-3.31 7.48-10.63-.78-25.09-3.77-40.11-8.33-1.97-.6-3.94-1.22-5.87-1.85-.62-.87-1.24-1.75-1.86-2.64-8.45-12.16-15.53-24.47-19.65-34.14a41.29 41.29 0 0 1 7.83-7.2c6.81-4.8 14.8-7.41 23.1-7.54zm4.8 82.33c-5.38.54-10.75.02-15.94-1.52-8.94-2.66-16.52-8.12-21.91-15.76-4.36-6.19-6.94-13.42-7.45-20.93-.05-.76-.07-1.53-.08-2.29 5.67 3.06 12.54 6.15 20.06 9.01 2.97 1.13 6.05 2.23 9.18 3.28 7.7 10.7 15.75 20.14 22.95 26.93-2.23.61-4.5 1.06-6.8 1.29z" class="xcpng_svg__cls-101"/><path d="M557.44 127.82c-3.03.17-6.94.64-11.34 1.71-15.54 3.76-37.19 15.03-48.04 47.93-1.02 3.07-1.94 6.34-2.75 9.79-5.75-9.07-8.2-20.27-6.03-31.66 4.52-23.79 27.48-39.41 51.28-34.88 6.27 1.19 11.98 3.66 16.89 7.1z" class="xcpng_svg__cls-18"/><path d="m399.63 398.6-69.92-55.48 10.86-23.94 79.91 63.41z" style="fill:#181849"/><path d="M376.45 347.66s-5.18 10.53-10.56 24.18l-36.18-28.71 10.86-23.94 35.89 28.48z" style="mix-blend-mode:overlay;fill:#edf1ca"/></g><path fill="url(#xcpng_svg__D%C3%A9grad%C3%A9_sans_nom_95)" d="M-885.12 331.21c1.4 9.95-1.13 17.8-7.32 25.72-24.77 31.22-92.94 44.99-92.94 44.99s-2.08-69.51 22.69-100.73c6.95-7.6 13.8-12.05 23.81-12.94l53.76 42.97z" style="isolation:isolate;fill:url(#xcpng_svg__Dégradé_sans_nom_95);mix-blend-mode:hard-light;opacity:.62"/></g></svg>