<svg xmlns="http://www.w3.org/2000/svg" viewBox="0 0 48 48"><g fill-rule="evenodd"><path fill="#020202" stroke="#000002" stroke-width=".369" d="M.205 11.638c.149-.025 3.861 1.935 6.356 2.612 4.45 1.137 8.512 4.56 10.475 6.526.146.168 1.686-1.154 3.298-1.059 2.203.134 9.017 2.05 9.928.745.552-.766.512-1.706 1.201-2.09.37-.104-1.378-3.304.48-4.329 1.326-.662 2.45 3.047 2.79 3.462.152.186.961.232.866-.192-.104-.46-1.413-4.02.192-4.617 2.606-1.031 2.144 4.554 2.212 4.713.144.339 9.076.6 9.618 4.617.313 2.211-7.156 5.069-7.887 5.578-.73.51-.67 1.324-.384 1.828.327.546 2.503 2.391 2.212 3.27-.2.507-4.261-1.353-4.52-.962-.592.747 2.956 2.617 1.73 3.943-.485.318-6.073-2.34-6.059-2.308-.15.057-7.896 1.415-13.85-.385-.21-.06-3.82 3.489-4.232 3.367-.561-.206.828-3.086.674-3.655-.253-.317-2.56 1.287-2.693.48-.16-1.06 2.025-2.278 1.923-2.98-.563-3.993.252-6.324 1.635-8.272.462-.717-5.422-5.16-9.68-6.914-4.26-1.753-6.539-3.24-6.285-3.378z"/><g stroke="#000" stroke-width=".8" transform="translate(-40.926 -83.505) scale(.27674)"><path fill="#fff" d="M286.93 392.03c-.169-.59 10.503-7.045 12.048-5.561 2.781 1.008-11.95 6.31-12.048 5.561zm5.1 5.87c-.94-.568 6.389-9.114 8.187-8.187 2.625 2.608-8.31 8.39-8.187 8.187z"/><path fill="#020202" d="M320.92 358.36c-.891-.737-7.878 10.287-6.333 11.431.929.695 6.731-11.038 6.333-11.431z"/><ellipse cx="288.86" cy="374.59" fill="#fff" rx="3.012" ry="3.398" transform="matrix(.9253 0 0 .93379 22.028 24.352)"/><path fill="#020202" d="M312.888 356.815c-.441-.512-2.781 11.368-1.7 11.894.93.695 2.548-11.276 1.7-11.894z"/><path fill="#fff" d="M283.063 372.893c-2.771 1.959 1.521 13.045 8.58 6.572-5.546.163-7.396-1.461-8.58-6.572z"/></g></g></svg>