<svg xmlns="http://www.w3.org/2000/svg" viewBox="0 0 48 48"><g fill-rule="evenodd" clip-rule="evenodd"><path fill="#af0084" d="M44.548 18.491c.098-.85.164-1.909.497-2.636.251.755.336 1.732.852 2.3.667-.158 1.414-.12 2.103.028-.414.543-1.31.916-1.848 1.266.647.543.963 1.18 1.315 1.934-.936-.018-1.795-.834-2.52-1.274-.624.704-1.06 1.388-1.976 1.644.33-.703 1.102-1.312 1.197-2.043-.73-.272-1.637-.856-2.111-1.449a49 49 0 0 1 2.491.23"/><path fill="#98c000" d="M44.988 23.876c.071-.616.12-1.385.361-1.912.183.548.244 1.256.618 1.668.484-.114 1.026-.087 1.526.021-.3.394-.95.665-1.34.918.469.395.698.857.954 1.404-.68-.013-1.303-.605-1.828-.924-.454.51-.77 1.007-1.435 1.192.24-.51.8-.952.87-1.482-.53-.198-1.19-.622-1.533-1.052.546.034 1.26.104 1.807.167"/><path fill="#f08400" d="M42.851 28.131c.05-.426.083-.957.25-1.322.126.38.168.869.428 1.154.334-.08.709-.06 1.054.014-.208.272-.657.46-.926.635.324.272.482.592.659.97-.47-.009-.9-.418-1.264-.64-.313.354-.532.697-.992.825.166-.352.553-.658.601-1.024-.365-.137-.821-.43-1.06-.728.379.024.872.072 1.25.116"/><path fill="#005fad" d="M7.913 27.863c-.389 0-4.774 4.299-5.23 4.803-.357.395-.554 1.129-1.165 1.21-.655.088-.803-.166-1.116-.657-.298-.467-.66-1.297-.138-1.634.5-.323 6.716-6.028 6.932-6.247.242-.246-.024-.858-.14-1.78-.148-1.184-.224-2.268-.133-3.439.093-1.201.381-2.686.695-3.85.192-.714.08-2.12 1.073-2.162.202.048 1.732 1.105 1.318 2.497-.595 1.995-1.167 4.26-.993 6.374.034.411.2.77.463.582 2.82-2.017 7.25-4.217 8.379-4.578a9.3 9.3 0 0 1 1.666-.38c.404.048.714.426 1.03.697 1.6 1.372-1.506 6.213-1.77 7.707.25 0 .52-.376.992-.806a98 98 0 0 0 1.872-1.743c.886-.664 1.662-1.277 2.788-1.42 2.703-.343 1.896 3.55 1.286 4.96.349 0 1.203-.98 1.884-1.625.344-.326.723-.668 1.07-.99.41-.379.604-.576.916-.425.208.06 1.112.606 1.164 1.442.043.677-.235 1.341-.371 1.994-.114.545-.086 2.316.65 2.322.29-.21.67-.3 1.014-.357.556-.094.528.086.989.257.719.268.07 1.29-.308 1.665-.51.506-1.24.84-1.964.829-.8-.014-1.434-.505-1.794-1.198-.198-.38-.451-1.784-.55-2.2-.099-.409-.014-.9-.447-.482-1.224 1.18-2.489 2.278-3.735 3.44-1.372 1.279-2.684-.48-2.434-1.913.245-1.404 1.458-3.122 1.678-4.509-.579 0-1.557 1.013-1.925 1.428-.6.677-1.266 1.426-1.942 2.138-.68.717-1.264 1.373-1.948 2.088-.495.515-1.059 1.243-1.893 1.29-.409-.065-1.064-.745-1.174-1.614-.092-.724.092-1.521.37-2.188.802-1.927 3-5.976 3.515-8.023-1.055.102-5.507 2.167-8.495 4.626-.855.704-.066 1.997.292 2.855.383.919 1.513 2.58 1.854 2.862.89.737.18 1.388-.7 1.337-.373-.264-.824-.548-1.175-.898a8.4 8.4 0 0 1-1.009-1.258c-.607-.899-1.186-1.939-1.341-3.027M39.54 16.316c-.252-.932-1.417.49-2.001 1.242-1.614 2.078-3.085 6.3-3.323 7.085-.724 2.388-1.002 5.344.561 7.443.912 1.224 2.516 1.32 4.082.868.81-.233 1.624-.811 1.9-1.446.229-.526.347-1.507-.808-.76-.448.289-1.27.608-2.74.583-.494-.008-1.302-.716-1.522-1.446-.383-1.19-.22-2.784-.22-2.784.335-2.057 1.287-4.294 2.125-6.153.325-.72 1.315-2.518 1.683-3.092 0 0 .477-.747.263-1.54"/></g></svg>
