<svg xmlns="http://www.w3.org/2000/svg" viewBox="0 0 48 48"><defs><style>.yacht_svg__cls-1{fill:#606060}.yacht_svg__cls-2{fill:#34495e}</style></defs><g data-name="Layer 2"><g data-name="Layer 1"><path d="M38.758 11.294s-4.981.073-11.776 1.879l.772.642s5.094-.735 9.36-.383z" class="yacht_svg__cls-1"/><path d="M42.496 40.217c-3.735-4.382-11.636-14.265-36.86-13.594 0 0-.206 1.138-3.881 5.752 20.697-1.781 27.853-.495 40.741 7.842z" class="yacht_svg__cls-2"/><path d="M989.74 751.87c6.61 5.94 10.17 9.39 10.47 9.69C840.69 389.18 369 351.53 369 351.53c-7.46 27.49-47.67 62.74-96.28 92C738.86 464 906.42 654 989.74 751.87z" style="fill:#41b883" transform="translate(0 7.783) scale(.04257)"/><path d="M42.581 40.205c-.993-4.018-4.105-13.811-18.292-20.837 0 0-.062 1.884-2.299 4.604 6.488 1.793 16.252 6.105 20.591 16.233z" class="yacht_svg__cls-2"/><path d="M47.192 7.834c-.018 0-.762-.05-2.072-.05-1.888 0-4.951.102-8.71.6a72.885 72.885 0 0 0-6.48 1.162c-4.002-.244-10.741-.656-10.942-.677-2.977-.313-6.11 2.987-6.11 2.987s-.448 2.508-.792 4.48c-.262.145-.524.292-.79.441a.392.392 0 0 0-.046.027l-.511.338c.272-1.55.565-3.197.644-3.638-2.243.74-4.139 2.735-4.139 2.735l-.01 3.225-6.076 4.029a.439.439 0 0 0-.186.267l-.96 4.179a.439.439 0 0 0 .423.535l4.172.042c.227-.347.405-.635.543-.875L.995 27.6l.798-3.473 9.922-6.575.013-.007c.624-.351 1.23-.686 1.855-1.024 8.564-4.627 17.203-6.504 22.942-7.264 3.7-.49 6.717-.592 8.595-.592.475 0 .873.006 1.186.015a194.224 194.224 0 0 0-5.142 7.297c-3.167 4.74-5.236 8.391-6.178 10.891q.351.353.681.705C37.753 21.47 47.408 8.67 47.511 8.536L48 7.98z" class="yacht_svg__cls-1"/></g></g></svg>