
<svg xmlns="http://www.w3.org/2000/svg" version="1.1" xmlns:xlink="http://www.w3.org/1999/xlink" preserveAspectRatio="none" x="0px" y="0px" width="48px" height="48px" viewBox="0 0 48 48">
<defs>
<g id="Layer0_0_FILL">
<path fill="#5F9196" stroke="none" d="
M 12.45 39.3
L 19.5 46.8
Q 21.6 47.2 23.9 47.2 33.6 47.2 40.45 40.35 42.2 38.6 43.5 36.65
L 39 36.2
Q 38.45 36.85 37.8 37.5 32.2 43.15 24.15 43.15 17.55 43.15 12.45 39.3 Z"/>

<path fill="#7CCAFB" stroke="none" d="
M 4.8 23.8
Q 4.8 23.75 4.8 23.7
L 1.2 18.05
Q 0.5 20.8 0.5 23.8 0.5 33.5 7.35 40.35 12.6 45.6 19.5 46.8
L 12.45 39.3
Q 11.4 38.45 10.45 37.5 4.8 31.85 4.8 23.8 Z"/>

<path fill="#FFFFFF" stroke="none" d="
M 40.45 13.25
Q 39.35 11.6 37.8 10.1 32.2 4.45 24.15 4.45 16.1 4.45 10.45 10.1 4.85 15.75 4.8 23.7 4.8 23.75 4.8 23.8 4.8 31.85 10.45 37.5 11.4 38.45 12.45 39.3 17.55 43.15 24.15 43.15 32.2 43.15 37.8 37.5 38.45 36.85 39 36.2 43.5 30.95 43.5 23.8 43.5 17.9 40.45 13.25
M 29.5 12.35
Q 29.85 12.35 30.25 12.35
L 30.6 12.35
Q 32.5 12.45 33.9 13.85 35.15 15.1 35.35 16.8 35.4 17.05 35.4 17.35
L 35.4 30.45
Q 35.4 32.6 33.9 34.1 32.35 35.65 30.25 35.65 30.1 35.65 30 35.65 29.75 35.65 29.5 35.6
L 18.4 35.6
Q 18.05 35.65 17.75 35.65 17.7 35.65 17.65 35.65 15.5 35.65 14 34.1 12.5 32.65 12.45 30.55
L 12.45 17.4
Q 12.45 17.2 12.5 17.05 12.6 15.2 14 13.85 15.5 12.35 17.6 12.35
L 17.65 12.35
Q 18 12.35 18.4 12.35
L 29.5 12.35
M 28.1 23.95
L 20.55 19.85 20.55 28.25 28.1 23.95 Z"/>

<path fill="#884D58" stroke="none" d="
M 30.25 12.35
Q 29.85 12.35 29.5 12.35
L 18.4 12.35
Q 18 12.35 17.65 12.35
L 17.6 12.35
Q 15.5 12.35 14 13.85 12.6 15.2 12.5 17.05 12.45 17.2 12.45 17.4
L 12.45 30.55
Q 12.5 32.65 14 34.1 15.5 35.65 17.65 35.65 17.7 35.65 17.75 35.65 18.05 35.65 18.4 35.6
L 29.5 35.6
Q 29.75 35.65 30 35.65 30.1 35.65 30.25 35.65 32.35 35.65 33.9 34.1 35.4 32.6 35.4 30.45
L 35.4 17.35
Q 35.4 17.05 35.35 16.8 35.15 15.1 33.9 13.85 32.5 12.45 30.6 12.35
L 30.25 12.35
M 20.55 19.85
L 28.1 23.95 20.55 28.25 20.55 19.85 Z"/>

<path fill="#1250FF" stroke="none" d="
M 40.45 7.25
Q 33.6 0.4 23.9 0.4 14.2 0.4 7.35 7.25 2.65 12 1.2 18.05
L 4.8 23.7
Q 4.85 15.75 10.45 10.1 16.1 4.45 24.15 4.45 32.2 4.45 37.8 10.1 39.35 11.6 40.45 13.25
L 46.95 19.6
Q 45.75 12.55 40.45 7.25 Z"/>

<path fill="#3F6D97" stroke="none" d="
M 47.3 23.8
Q 47.3 21.6 46.95 19.6
L 40.45 13.25
Q 43.5 17.9 43.5 23.8 43.5 30.95 39 36.2
L 43.5 36.65
Q 47.3 31 47.3 23.8 Z"/>
</g>

<path id="Layer0_0_1_STROKES" stroke="#FF0000" stroke-width="0.1" stroke-linejoin="round" stroke-linecap="round" fill="none" d="
M 29.5 12.35
Q 29.85 12.35 30.25 12.35"/>

<path id="Layer0_0_2_STROKES" stroke="#1250FF" stroke-width="0.1" stroke-linejoin="round" stroke-linecap="round" fill="none" d="
M 1.2 18.05
Q 2.65 12 7.35 7.25 14.2 0.4 23.9 0.4 33.6 0.4 40.45 7.25 45.75 12.55 46.95 19.6
L 40.45 13.25
M 4.8 23.7
Q 4.85 15.75 10.45 10.1 16.1 4.45 24.15 4.45 32.2 4.45 37.8 10.1 39.35 11.6 40.45 13.25
M 4.8 23.7
L 1.2 18.05"/>

<path id="Layer0_0_3_STROKES" stroke="#3F6D97" stroke-width="0.1" stroke-linejoin="round" stroke-linecap="round" fill="none" d="
M 46.95 19.6
Q 47.3 21.6 47.3 23.8 47.3 31 43.5 36.65
M 40.45 13.25
Q 43.5 17.9 43.5 23.8 43.5 30.95 39 36.2"/>

<path id="Layer0_0_4_STROKES" stroke="#5F9196" stroke-width="0.1" stroke-linejoin="round" stroke-linecap="round" fill="none" d="
M 43.5 36.65
Q 42.2 38.6 40.45 40.35 33.6 47.2 23.9 47.2 21.6 47.2 19.5 46.8
M 39 36.2
L 43.5 36.65
M 19.5 46.8
L 12.45 39.3
Q 17.55 43.15 24.15 43.15 32.2 43.15 37.8 37.5 38.45 36.85 39 36.2"/>

<path id="Layer0_0_5_STROKES" stroke="#7CCAFB" stroke-width="0.1" stroke-linejoin="round" stroke-linecap="round" fill="none" d="
M 19.5 46.8
Q 12.6 45.6 7.35 40.35 0.5 33.5 0.5 23.8 0.5 20.8 1.2 18.05
M 12.45 39.3
Q 11.4 38.45 10.45 37.5 4.8 31.85 4.8 23.8 4.8 23.75 4.8 23.7"/>

<path id="Layer0_0_6_STROKES" stroke="#884D58" stroke-width="0.1" stroke-linejoin="round" stroke-linecap="round" fill="none" d="
M 30.25 12.35
L 30.6 12.35
Q 32.5 12.45 33.9 13.85 35.15 15.1 35.35 16.8 35.4 17.05 35.4 17.35
L 35.4 30.45
Q 35.4 32.6 33.9 34.1 32.35 35.65 30.25 35.65 30.1 35.65 30 35.65 29.75 35.65 29.5 35.6
L 18.4 35.6
Q 18.05 35.65 17.75 35.65 17.7 35.65 17.65 35.65 15.5 35.65 14 34.1 12.5 32.65 12.45 30.55
L 12.45 17.4
Q 12.45 17.2 12.5 17.05 12.6 15.2 14 13.85 15.5 12.35 17.6 12.35
L 17.65 12.35
Q 18 12.35 18.4 12.35
L 29.5 12.35
M 28.1 23.95
L 20.55 19.85 20.55 28.25 28.1 23.95 Z"/>
</defs>

<g transform="matrix( 1, 0, 0, 1, 0,0) ">
<use xlink:href="#Layer0_0_FILL"/>

<use xlink:href="#Layer0_0_1_STROKES"/>

<use xlink:href="#Layer0_0_2_STROKES"/>

<use xlink:href="#Layer0_0_3_STROKES"/>

<use xlink:href="#Layer0_0_4_STROKES"/>

<use xlink:href="#Layer0_0_5_STROKES"/>

<use xlink:href="#Layer0_0_6_STROKES"/>
</g>
</svg>
