<svg xmlns="http://www.w3.org/2000/svg" viewBox="0 0 48 48"><path fill="#d40000" d="M0 17.717h47.998V30.29H0z"/><path fill="#fff" d="M2.052 19.633h6.942v.902l-5.587 6.844H9.13v.995H1.916v-.902l5.586-6.844h-5.45zm11.772 1.165-1.622 4.35h3.249zm-.675-1.165h1.355l3.367 8.74h-1.243l-.804-2.241h-3.983l-.805 2.242h-1.26zM20.35 24.2v3.202h1.917c.643 0 1.12-.132 1.43-.395.31-.264.464-.667.464-1.209 0-.546-.154-.95-.464-1.21-.31-.258-.787-.388-1.43-.388zm0-3.595v2.634h1.77c.583 0 1.018-.108 1.305-.325.285-.216.428-.547.428-.992 0-.441-.143-.77-.428-.99-.287-.218-.722-.327-1.305-.327zm-1.195-.972h3.053c.912 0 1.614.187 2.107.562s.74.908.74 1.599c0 .534-.126.96-.379 1.276-.252.316-.623.513-1.113.591.589.125 1.045.385 1.37.781.326.397.489.891.489 1.485 0 .78-.269 1.383-.805 1.809-.537.425-1.3.638-2.29.638h-3.172zm9.378 4.567v3.202h1.918c.643 0 1.12-.132 1.43-.395.31-.264.464-.667.464-1.209 0-.546-.155-.95-.465-1.21-.31-.258-.786-.388-1.429-.388zm0-3.595v2.634h1.77c.584 0 1.02-.108 1.305-.325.286-.216.43-.547.43-.992 0-.441-.144-.77-.43-.99-.286-.218-.72-.327-1.305-.327zm-1.195-.972h3.054c.911 0 1.614.187 2.107.562.493.375.74.908.74 1.599 0 .534-.126.96-.38 1.276-.252.316-.623.513-1.112.591.588.125 1.045.385 1.37.781.326.397.489.891.489 1.485 0 .78-.269 1.383-.806 1.809-.536.425-1.3.638-2.29.638h-3.172zm11.645 0h1.314l2.078 3.139 2.097-3.139h1.27l-2.735 4.095 3.075 4.646h-1.314l-2.421-3.658-2.444 3.658h-1.27l3.081-4.613zm-3.463 0h1.196v8.74h-1.195z"/></svg>