<svg xmlns="http://www.w3.org/2000/svg" viewBox="0 0 48 48"><mask id="zerotier_svg__a" width="87" height="87" x="0" y="0" maskUnits="userSpaceOnUse"><path fill="#fff" d="M86.376 0H0v86.476h86.376z"/></mask><g mask="url(#zerotier_svg__a)" transform="translate(.027)scale(.55508)"><path fill="#ffb441" fill-rule="evenodd" d="M0 14.412C0 6.454 6.445 0 14.396 0h57.585c7.95 0 14.396 6.454 14.396 14.412v57.65c0 7.96-6.445 14.412-14.396 14.412H14.396C6.446 86.474 0 80.02 0 72.062z" clip-rule="evenodd"/></g><path fill="#000" fill-rule="evenodd" d="M41.325 5.67H6.675a1.136 1.136 0 1 0 0 2.273H22.93a1.1 1.1 0 0 0-.066.38v3.605c-6.156.574-10.977 5.76-10.977 12.073s4.82 11.499 10.977 12.072v5.122a1.137 1.137 0 0 0 2.274 0v-5.122c6.156-.573 10.976-5.76 10.976-12.072s-4.819-11.5-10.976-12.073V8.322q-.002-.2-.066-.379h16.254a1.136 1.136 0 1 0 0-2.273zM14.225 24a9.78 9.78 0 0 1 8.64-9.718V33.72a9.78 9.78 0 0 1-8.64-9.718zm19.551 0a9.78 9.78 0 0 1-8.64 9.718V14.282a9.783 9.783 0 0 1 8.64 9.72z" clip-rule="evenodd"/></svg>
