<?xml version="1.0" encoding="utf-8"?>
<!-- Generator: Adobe Illustrator 27.1.1, SVG Export Plug-In . SVG Version: 6.00 Build 0)  -->
<svg version="1.1" id="Layer_1" xmlns="http://www.w3.org/2000/svg" xmlns:xlink="http://www.w3.org/1999/xlink" x="0px" y="0px"
	 viewBox="0 0 48 48" style="enable-background:new 0 0 48 48;" xml:space="preserve">
<style type="text/css">
	.st0{fill:#E78200;}
	.st1{fill:none;stroke:#7E7E7E;stroke-width:2.5;stroke-linecap:round;stroke-linejoin:round;}
	.st2{fill:none;stroke:#E78200;stroke-width:0.1;stroke-linecap:round;stroke-linejoin:round;}
</style>
<g transform="matrix( 1, 0, 0, 1, 0,0) ">
	<g>
		<g id="Layer0_0_FILL">
			<path class="st0" d="M24.8,28.7c0,0.5,0.2,1,0.6,1.4c0.4,0.4,0.9,0.6,1.4,0.6c0.5,0,1-0.2,1.4-0.6c0.4-0.4,0.6-0.8,0.6-1.4
				c0-0.5-0.2-1-0.6-1.4c-0.4-0.4-0.8-0.6-1.4-0.6c-0.5,0-1,0.2-1.4,0.6C25,27.7,24.8,28.2,24.8,28.7 M31.6,22.4
				c-0.4-0.4-0.8-0.6-1.4-0.6c-0.5,0-1,0.2-1.4,0.6c-0.4,0.4-0.6,0.9-0.6,1.4s0.2,1,0.6,1.4c0.4,0.4,0.9,0.6,1.4,0.6
				c0.5,0,1-0.2,1.4-0.6c0.4-0.4,0.6-0.8,0.6-1.4S32,22.8,31.6,22.4 M18.6,28.7c0,0.5,0.2,1,0.6,1.4c0.4,0.4,0.9,0.6,1.4,0.6
				s1-0.2,1.4-0.6c0.4-0.4,0.6-0.8,0.6-1.4s-0.2-1-0.6-1.4c-0.4-0.4-0.8-0.6-1.4-0.6c-0.5,0-1,0.2-1.4,0.6
				C18.8,27.7,18.6,28.2,18.6,28.7 M19.2,22.4c-0.4-0.4-0.8-0.6-1.4-0.6c-0.5,0-1,0.2-1.4,0.6c-0.4,0.4-0.6,0.9-0.6,1.4
				c0,0.5,0.2,1,0.6,1.4c0.4,0.4,0.9,0.6,1.4,0.6c0.5,0,1-0.2,1.4-0.6c0.4-0.4,0.6-0.8,0.6-1.4S19.6,22.8,19.2,22.4 M28.1,19.4
				c0.4-0.4,0.6-0.8,0.6-1.4c0-0.5-0.2-1-0.6-1.4c-0.4-0.4-0.8-0.6-1.4-0.6c-0.5,0-1,0.2-1.4,0.6c-0.4,0.4-0.6,0.9-0.6,1.4
				c0,0.5,0.2,1,0.6,1.4c0.4,0.4,0.9,0.6,1.4,0.6C27.3,20,27.7,19.8,28.1,19.4 M21.9,19.4c0.4-0.4,0.6-0.8,0.6-1.4
				c0-0.5-0.2-1-0.6-1.4c-0.4-0.4-0.8-0.6-1.4-0.6s-1,0.2-1.4,0.6c-0.4,0.4-0.6,0.9-0.6,1.4c0,0.5,0.2,1,0.6,1.4
				c0.4,0.4,0.9,0.6,1.4,0.6C21.1,20,21.6,19.8,21.9,19.4z"/>
		</g>
	</g>
	<g>
		<path id="Layer0_0_1_STROKES" class="st1" d="M43.9,15.4c0,1.3-0.5,2.4-1.4,3.3c-0.9,0.9-2,1.4-3.3,1.4c-1.3,0-2.4-0.5-3.3-1.4
			s-1.4-2-1.4-3.3s0.5-2.4,1.4-3.3c0.9-0.9,2-1.4,3.3-1.4c1.3,0,2.4,0.5,3.3,1.4C43.5,13,43.9,14.1,43.9,15.4z M43.9,32.6
			c0,1.3-0.5,2.4-1.4,3.3c-0.9,0.9-2,1.4-3.3,1.4s-2.4-0.5-3.3-1.4s-1.4-2-1.4-3.3c0-1.3,0.5-2.4,1.4-3.3s2-1.4,3.3-1.4
			s2.4,0.5,3.3,1.4C43.5,30.2,43.9,31.3,43.9,32.6z M28.3,6.1c0,1.3-0.5,2.4-1.4,3.3c-0.9,0.9-2,1.4-3.3,1.4c-1.3,0-2.4-0.5-3.3-1.4
			c-0.9-0.9-1.4-2-1.4-3.3s0.5-2.4,1.4-3.3c0.9-0.9,2-1.4,3.3-1.4S26,2,26.9,2.9C27.8,3.8,28.3,4.9,28.3,6.1z M13.4,15.4
			c0,1.3-0.5,2.4-1.4,3.3S10,20,8.7,20c-1.3,0-2.4-0.5-3.3-1.4s-1.4-2-1.4-3.3s0.5-2.4,1.4-3.3c0.9-0.9,2-1.4,3.3-1.4
			c1.3,0,2.4,0.5,3.3,1.4C12.9,13,13.4,14.1,13.4,15.4z M13.4,32.6c0,1.3-0.5,2.4-1.4,3.3s-2,1.4-3.3,1.4s-2.4-0.5-3.3-1.4
			s-1.4-2-1.4-3.3c0-1.3,0.5-2.4,1.4-3.3s2-1.4,3.3-1.4s2.4,0.5,3.3,1.4S13.4,31.3,13.4,32.6z M28.3,41.9c0,1.3-0.5,2.4-1.4,3.3
			c-0.9,0.9-2,1.4-3.3,1.4s-2.4-0.5-3.3-1.4c-0.9-0.9-1.4-2-1.4-3.3s0.5-2.4,1.4-3.3c0.9-0.9,2-1.4,3.3-1.4s2.4,0.5,3.3,1.4
			C27.8,39.5,28.3,40.6,28.3,41.9z"/>
	</g>
	<g>
		<path id="Layer0_0_2_STROKES" class="st2" d="M19.8,23.9c0,0.5-0.2,1-0.6,1.4c-0.4,0.4-0.8,0.6-1.4,0.6c-0.5,0-1-0.2-1.4-0.6
			c-0.4-0.4-0.6-0.8-0.6-1.4c0-0.5,0.2-1,0.6-1.4c0.4-0.4,0.9-0.6,1.4-0.6c0.5,0,1,0.2,1.4,0.6C19.6,22.8,19.8,23.3,19.8,23.9z"/>
	</g>
</g>
</svg>
