<?xml version="1.0" encoding="utf-8"?>
<!-- Generator: Adobe Illustrator 27.1.1, SVG Export Plug-In . SVG Version: 6.00 Build 0)  -->
<svg version="1.1" id="Layer_1" xmlns="http://www.w3.org/2000/svg" xmlns:xlink="http://www.w3.org/1999/xlink" x="0px" y="0px"
	 viewBox="0 0 48 48" style="enable-background:new 0 0 48 48;" xml:space="preserve">
<style type="text/css">
	.st0{fill:url(#SVGID_1_);}
	.st1{fill:url(#SVGID_00000093173927333920996570000008415478359790513043_);}
	.st2{fill:url(#SVGID_00000160893359382757754780000005071285277473113999_);}
	.st3{fill:url(#SVGID_00000026129992473175565870000009699461579216277929_);}
	.st4{fill:url(#SVGID_00000070114266351809022630000006713605586140442281_);}
	.st5{fill:url(#SVGID_00000089541201310676533220000004913875706065182383_);}
	.st6{fill:url(#SVGID_00000095321271740155527400000001801447413654058371_);}
	.st7{fill:url(#SVGID_00000005945383807421473740000003840399664525277080_);}
	.st8{fill:url(#SVGID_00000083075672426164184140000002659534957323940509_);}
</style>
<g>
	<g transform="matrix(1.8288,0,0,1.8288,-76.3478,13.5303) matrix(1.6652,0,0,1.6704,50.2843,0.6537)">
		<g>
			
				<linearGradient id="SVGID_1_" gradientUnits="userSpaceOnUse" x1="-21.8736" y1="27.5781" x2="-21.8212" y2="27.5781" gradientTransform="matrix(897.2014 0 0 -899.9979 19620.0449 24823.3027)">
				<stop  offset="0" style="stop-color:#000000"/>
				<stop  offset="1" style="stop-color:#000000"/>
			</linearGradient>
			<polygon class="st0" points="-0.4,10.8 -5,6.2 -5,-0.2 -0.4,-4.7 6,-4.7 10.5,-0.2 10.5,6.2 6,10.8 			"/>
		</g>
	</g>
	<g transform="matrix(1.8288,0,0,1.8288,-76.3478,13.5303) matrix(1.6204,0,0,1.6204,53.946,5.3)">
		<g>
			
				<linearGradient id="SVGID_00000077292329374728488950000000462259775815206797_" gradientUnits="userSpaceOnUse" x1="-24.7419" y1="25.5666" x2="-24.6895" y2="25.5666" gradientTransform="matrix(873.0634 0 0 -873.0583 21594.0918 22321.4082)">
				<stop  offset="0" style="stop-color:#FFC038"/>
				<stop  offset="1" style="stop-color:#FFC038"/>
			</linearGradient>
			<polygon style="fill:url(#SVGID_00000077292329374728488950000000462259775815206797_);" points="-2.7,8 -7.2,3.5 -7.2,-2.9 
				-2.7,-7.5 3.7,-7.5 8.3,-2.9 8.3,3.5 3.7,8 			"/>
		</g>
	</g>
	<g transform="matrix(1.8288,0,0,1.8288,-76.3478,13.5303) matrix(1.6146,0,0,1.6146,185.8484,123.0829)">
		<g>
			
				<linearGradient id="SVGID_00000007407876638372240380000015346803639740707774_" gradientUnits="userSpaceOnUse" x1="-108.0779" y1="-43.6346" x2="-108.0255" y2="-43.6346" gradientTransform="matrix(84.9662 0 0 -32.5145 9101.2119 -1492.5333)">
				<stop  offset="0" style="stop-color:#000000"/>
				<stop  offset="1" style="stop-color:#000000"/>
			</linearGradient>
			<path style="fill:url(#SVGID_00000007407876638372240380000015346803639740707774_);" d="M-81.8-74.1c0.1,0.2,0.3,0.3,0.5,0.5
				c0,0,0.1,0.1,0.3,0.1c0.2,0,0.3-0.1,0.3-0.1c0.2-0.1,0.3-0.3,0.4-0.4c-0.2,0-0.4,0.1-0.7,0.1C-81.2-74-81.5-74-81.8-74.1z"/>
		</g>
	</g>
	<g transform="matrix(1.8288,0,0,1.8288,-76.3478,13.5303) matrix(1.6146,0,0,1.6146,182.6191,109.0829)">
		<g>
			
				<linearGradient id="SVGID_00000158008155559982798420000003577844846120342975_" gradientUnits="userSpaceOnUse" x1="-105.7139" y1="-35.477" x2="-105.6615" y2="-35.477" gradientTransform="matrix(108.2292 0 0 -33.4653 11361.3994 -1253.0992)">
				<stop  offset="0" style="stop-color:#FFFFFF"/>
				<stop  offset="1" style="stop-color:#FFFFFF"/>
			</linearGradient>
			<path style="fill:url(#SVGID_00000158008155559982798420000003577844846120342975_);" d="M-79.9-66.2c0,0.2,0,0.3,0.1,0.4
				c0.5,0.2,1.3,0.2,1.8,0c0-0.1,0.1-0.3,0.1-0.5c-0.3,0.1-0.6,0.1-0.9,0.1C-79.3-66-79.6-66.1-79.9-66.2z"/>
		</g>
	</g>
	<g transform="matrix(1.8288,0,0,1.8288,-76.3478,13.5303) matrix(1.6146,0,0,1.6146,182.6191,96.0829)">
		<g>
			
				<linearGradient id="SVGID_00000139972691749502537230000007606091725789348003_" gradientUnits="userSpaceOnUse" x1="-105.7207" y1="-27.7348" x2="-105.6683" y2="-27.7348" gradientTransform="matrix(107.619 0 0 -32.6327 11297.6162 -963.574)">
				<stop  offset="0" style="stop-color:#000000"/>
				<stop  offset="1" style="stop-color:#000000"/>
			</linearGradient>
			<path style="fill:url(#SVGID_00000139972691749502537230000007606091725789348003_);" d="M-78.9-58.7c-0.3,0-0.7,0-1-0.1
				c0,0.1-0.1,0.3-0.1,0.4c0.5,0.2,1.4,0.2,1.9,0c0-0.1,0-0.3-0.1-0.4C-78.3-58.7-78.6-58.7-78.9-58.7z"/>
		</g>
	</g>
	<g transform="matrix(1.8288,0,0,1.8288,-76.3478,13.5303) matrix(1.6146,0,0,1.6146,185.041,84.8902)">
		<g>
			
				<linearGradient id="SVGID_00000006673396637956389360000006346486064252135346_" gradientUnits="userSpaceOnUse" x1="-107.4394" y1="-20.7738" x2="-107.3871" y2="-20.7738" gradientTransform="matrix(92.6976 0 0 -28.4847 9878.0723 -643.958)">
				<stop  offset="0" style="stop-color:#FFFFFF"/>
				<stop  offset="1" style="stop-color:#FFFFFF"/>
			</linearGradient>
			<path style="fill:url(#SVGID_00000006673396637956389360000006346486064252135346_);" d="M-79.7-52.1c0-0.2-0.1-0.3-0.2-0.4
				c-0.2,0-0.5,0.1-0.7,0.1c-0.2,0-0.4,0-0.6-0.1c0,0.1-0.1,0.2-0.1,0.4C-80.8-52-80.2-51.9-79.7-52.1z"/>
		</g>
	</g>
	<g transform="matrix(1.8288,0,0,1.8288,-76.3478,13.5303) matrix(1.6146,0,0,1.6146,120.4554,23.9828)">
		<g>
			
				<linearGradient id="SVGID_00000065786008354119412070000006447308597085651094_" gradientUnits="userSpaceOnUse" x1="-66.1608" y1="14.1772" x2="-66.1084" y2="14.1772" gradientTransform="matrix(483.9106 0 0 -233.9657 31971.0918 3301.0149)">
				<stop  offset="0" style="stop-color:#000000"/>
				<stop  offset="1" style="stop-color:#000000"/>
			</linearGradient>
			<path style="fill:url(#SVGID_00000065786008354119412070000006447308597085651094_);" d="M-39.7-16.1c-0.1-0.1-0.1-0.2-0.1-0.2
				c0,0,0,0,0,0c0-0.1,0.1-0.2,0.1-0.3c0-0.3-0.2-0.5-0.4-0.7L-40-18l0.5,0c0,0,0,0,0,0c0,0,0,0,0,0l-0.6,0c0,0,0,0,0,0l-0.3,0.6
				c0,0-0.1,0-0.1,0c0,0-0.1,0-0.1,0l-0.3-0.6c0,0,0,0,0,0l-0.6,0c0,0,0,0,0,0c0,0,0,0,0,0l0.5,0l0.2,0.6c-0.2,0.1-0.4,0.4-0.4,0.7
				c0,0.1,0,0.2,0.1,0.3c0,0,0,0,0,0c0,0-0.1,0.1-0.1,0.2c-1.1,0.3-3.8,0.7-3.5,1.6c0.3,0.9,2.2,0.7,2.5,0.4c0.4-0.4,0.8-0.7,1-1
				c0,0,0,0.1,0.1,0.1c0.4,0.1,0.9,0.1,1.3,0c0,0,0-0.1,0-0.1c0.2,0.3,0.6,0.6,1,0.9c0.3,0.3,2.2,0.5,2.5-0.4
				C-35.9-15.4-38.6-15.8-39.7-16.1z"/>
		</g>
	</g>
	<g transform="matrix(1.8288,0,0,1.8288,-76.3478,13.5303) matrix(0.5515,-0.0096,0.0096,0.5515,184.0296,161.5473)">
		<g>
			
				<linearGradient id="SVGID_00000104693637387084843440000010150111817351466127_" gradientUnits="userSpaceOnUse" x1="-307.6163" y1="-210.7058" x2="-307.5639" y2="-210.7058" gradientTransform="matrix(132.6287 2.6333 2.3085 -151.2875 41053.0664 -31349.502)">
				<stop  offset="0" style="stop-color:#000000"/>
				<stop  offset="1" style="stop-color:#000000"/>
			</linearGradient>
			<path style="fill:url(#SVGID_00000104693637387084843440000010150111817351466127_);" d="M-230.2-286L-230.2-286v7.2
				c0,0.1,0,0.2-0.1,0.2c0,0-0.1,0.1-0.2,0.1l0,0h-1.3c-0.1,0-0.2,0-0.2-0.1c0,0-0.1-0.1-0.1-0.2l0,0v-7.2c0-0.1,0-0.2,0.1-0.2
				c0,0,0.1-0.1,0.2-0.1l0,0h1.3c0.1,0,0.2,0,0.2,0.1C-230.2-286.2-230.2-286.1-230.2-286z M-225.2-286L-225.2-286v7.2
				c0,0.1,0,0.2-0.1,0.2c0,0-0.1,0.1-0.2,0.1l0,0h-1.3c-0.1,0-0.2,0-0.2-0.1c0,0-0.1-0.1-0.1-0.2l0,0v-7.2c0-0.1,0-0.2,0.1-0.2
				c0,0,0.1-0.1,0.2-0.1l0,0h1.3c0.1,0,0.2,0,0.2,0.1C-225.2-286.2-225.2-286.1-225.2-286z"/>
		</g>
	</g>
	<g transform="matrix(1.8288,0,0,1.8288,-76.3478,13.5303) matrix(0.5,0,0,0.5,136.759,231)">
		<g>
			
				<linearGradient id="SVGID_00000113353743494978849140000010171453723741664438_" gradientUnits="userSpaceOnUse" x1="-246.4019" y1="-362.9742" x2="-246.3495" y2="-362.9742" gradientTransform="matrix(426.1104 0 0 -125.73 104819.1875 -46070.582)">
				<stop  offset="0" style="stop-color:#000000"/>
				<stop  offset="1" style="stop-color:#000000"/>
			</linearGradient>
			<path style="fill:url(#SVGID_00000113353743494978849140000010171453723741664438_);" d="M-173.6-431L-173.6-431h-1.3
				c-0.1,0-0.2,0-0.2-0.1c0,0-0.1-0.1-0.1-0.2l0,0v-5.7c0-0.1,0-0.2,0.1-0.2c0,0,0.1-0.1,0.2-0.1l0,0h1.4c0.1,0,0.2,0,0.2,0.1
				s0.1,0.1,0.2,0.2l0,0l0.8,1.4c0,0.1,0.1,0.1,0.1,0.1s0,0,0.1,0l0,0h0.1c0,0,0.1,0,0.1,0s0-0.1,0.1-0.1l0,0l0.8-1.4
				c0.1-0.1,0.1-0.2,0.2-0.2s0.1-0.1,0.2-0.1l0,0h1.4c0.1,0,0.2,0,0.2,0.1c0,0,0.1,0.1,0.1,0.2l0,0v5.7c0,0.1,0,0.2-0.1,0.2
				c0,0-0.1,0.1-0.2,0.1l0,0h-1.3c-0.1,0-0.2,0-0.2-0.1c0,0-0.1-0.1-0.1-0.2l0,0v-3.1l-0.5,1c-0.1,0.1-0.1,0.2-0.2,0.2
				c-0.1,0-0.2,0.1-0.3,0.1l0,0h-0.3c-0.1,0-0.2,0-0.3-0.1c-0.1,0-0.1-0.1-0.2-0.2l0,0l-0.5-1v3.1c0,0.1,0,0.2-0.1,0.2
				C-173.4-431-173.5-431-173.6-431z M-164.5-430.2L-164.5-430.2h-1.3c-0.1,0-0.2,0-0.2-0.1s-0.1-0.1-0.1-0.2l0,0v-0.5
				c-0.7-0.1-1.1-0.3-1.4-0.6s-0.4-0.7-0.4-1.1l0,0v-2.9c0-0.3,0-0.5,0.1-0.7c0.1-0.2,0.2-0.4,0.4-0.6c0.2-0.2,0.5-0.3,0.8-0.4
				s0.8-0.1,1.3-0.1l0,0c0.5,0,1,0,1.3,0.1s0.6,0.2,0.8,0.4c0.2,0.2,0.3,0.3,0.4,0.6c0.1,0.2,0.1,0.5,0.1,0.7l0,0v2.9
				c0,0.2,0,0.4-0.1,0.6c-0.1,0.2-0.1,0.4-0.3,0.5c-0.1,0.1-0.3,0.3-0.5,0.4s-0.5,0.2-0.9,0.2l0,0v0.5c0,0.1,0,0.2-0.1,0.2
				C-164.3-430.3-164.4-430.2-164.5-430.2z M-165.9-435.3v2.4c0,0.1,0,0.2,0.1,0.3s0.3,0.1,0.6,0.1l0,0c0.3,0,0.5,0,0.6-0.1
				s0.1-0.2,0.1-0.3l0,0v-2.4c0-0.1,0-0.2-0.1-0.3s-0.3-0.1-0.6-0.1l0,0c-0.3,0-0.5,0-0.6,0.1S-165.9-435.4-165.9-435.3
				L-165.9-435.3z M-158.5-431L-158.5-431h-1.4c-0.1,0-0.2,0-0.2-0.1c0,0-0.1-0.1-0.1-0.2l0,0v-4.3h-1.3c-0.1,0-0.2,0-0.2-0.1
				c0,0-0.1-0.1-0.1-0.2l0,0v-1.1c0-0.1,0-0.2,0.1-0.2c0,0,0.1-0.1,0.2-0.1l0,0h4.6c0.1,0,0.2,0,0.2,0.1c0,0,0.1,0.1,0.1,0.2l0,0
				v1.1c0,0.1,0,0.2-0.1,0.2c0,0-0.1,0.1-0.2,0.1l0,0h-1.3v4.3c0,0.1,0,0.2-0.1,0.2C-158.3-431-158.3-431-158.5-431z M-152.7-431
				L-152.7-431h-1.4c-0.1,0-0.2,0-0.2-0.1c0,0-0.1-0.1-0.1-0.2l0,0v-4.3h-1.3c-0.1,0-0.2,0-0.2-0.1s-0.1-0.1-0.1-0.2l0,0v-1.1
				c0-0.1,0-0.2,0.1-0.2c0,0,0.1-0.1,0.2-0.1l0,0h4.6c0.1,0,0.2,0,0.2,0.1c0,0,0.1,0.1,0.1,0.2l0,0v1.1c0,0.1,0,0.2-0.1,0.2
				s-0.1,0.1-0.2,0.1l0,0h-1.3v4.3c0,0.1,0,0.2-0.1,0.2C-152.5-431-152.6-431-152.7-431z"/>
		</g>
	</g>
</g>
</svg>
