<svg xmlns="http://www.w3.org/2000/svg" viewBox="0 0 48 48"><path fill="#ec164d" d="M23.976 0C17.199 0 11.099 2.821 6.742 7.393c14.039-1.751 22.803-1.168 26.579-.681 7.504 1.167 7.115 6.808 7.115 6.808L16.474 38.225c4.6.437 13.795.73 27.592-1.264a23.721 23.721 0 0 0 3.825-12.937C47.891 10.747 37.193 0 23.977 0zm.463 8.622c-4.901-.03-11.543.29-19.924 1.444C1.707 14.006.11 18.82.11 24.024.11 37.252 10.76 48 23.976 48c7.262 0 13.7-3.258 18.106-8.365-14.57 1.897-23.625 1.264-27.498.778-7.552-1.119-7.115-6.808-7.115-6.808L31.383 8.948c-1.688-.164-4.002-.308-6.943-.326z"/></svg>