<svg xmlns="http://www.w3.org/2000/svg" viewBox="0 0 48 48"><g fill="none" fill-rule="evenodd"><path fill="#03a9f4" d="m0 8.68 2.027 28.73 38.897 1.91 6.809-20.966c.973-2.998-.786-5.647-3.927-5.917z"/><path fill="#fff" d="m30.93 26.035-6.243-9.75c-.511-.924-1.74-.641-1.74.462v14.778c0 1.232 1.868 1.232 1.868 0V19.877l5.22 8.159c.383.744 1.356.744 1.765 0l5.22-8.185v11.674c0 1.232 1.867 1.232 1.867 0V16.747c0-1.078-1.177-1.386-1.765-.462z"/><path fill="#fff" d="M19.98 17.795c.588-.744.307-1.54-.742-1.54H7.059c-1.151.077-1.125 1.693 0 1.693h10.362L5.96 31.111c-.563.692-.256 1.488.742 1.488H23.89c1.228-.077 1.202-1.77 0-1.77H8.416z"/></g></svg>