<svg xmlns="http://www.w3.org/2000/svg" viewBox="0 0 48 48"><g fill="#213040"><path d="m40.044 6.153-5.45 6.063c3.224 2.901 5.253 7.106 5.253 11.784s-2.029 8.884-5.253 11.784l5.45 6.064C44.928 37.455 48 31.087 48 24.001s-3.072-13.454-7.956-17.847zM7.956 41.848l5.451-6.063C10.182 32.884 8.154 28.679 8.154 24s2.028-8.883 5.253-11.784l-5.45-6.063C3.071 10.546 0 16.914 0 24s3.072 13.454 7.956 17.847z"/></g><g fill="#a9d1f3" transform="translate(-13.217 -14.731)scale(.14538)"><path d="M291.25 122.46 256 164.83l-35.25-42.37zM291.25 367.99 256 410.36l-35.25-42.37z"/><circle cx="256" cy="266.41" r="52.333"/></g></svg>
