<svg xmlns="http://www.w3.org/2000/svg" fill="none" viewBox="0 0 48 48"><g stroke-linecap="round"><g stroke="#f15a24" stroke-linejoin="round" transform="translate(-.462 8.22) scale(.09246)"><path stroke-width="6.268" d="m101.04 104.46-58.198 69.311"/><circle cx="57.608" cy="120" r="12.013" stroke-width="9.788"/><circle cx="86.083" cy="158.26" r="12.013" stroke-width="9.788"/><path stroke-width="6.268" d="M166.68 172.03h-41.559"/></g><path stroke="#000" stroke-width="1.649" d="M16.092 38.478H4.903a4.078 4.078 0 0 1-4.078-4.079V13.585a4.078 4.078 0 0 1 4.078-4.078h22.775a4.078 4.078 0 0 1 4.078 4.078v24.893M1.27 15.182h29.807"/></g><path fill="#000" d="M22.485 38.463a.85.85 0 0 0-.849-.849l-.02.001h-1.908a.095.095 0 0 1-.046-.011.096.096 0 0 1-.035-.032.096.096 0 0 1-.017-.045.091.091 0 0 1 .007-.047l2.791-6.96a.754.754 0 0 0-.7-1.034h-2.941c-.017 0-.033-.003-.05-.003a.827.827 0 1 0 0 1.655l.038-.001h1.525a.11.11 0 0 1 .048.011.11.11 0 0 1 .037.034.103.103 0 0 1 .01.095l-2.42 6.045a.91.91 0 0 0-.066.338v.742a.91.91 0 0 0 .91.91h2.838a.85.85 0 0 0 .848-.849zM27.4 31.59a4.343 4.343 0 0 0-.091-.961 1.216 1.216 0 0 0-.31-.638c-.147-.166-.353-.283-.62-.35-.259-.074-.59-.112-.995-.112-.388 0-.832.038-1.099.113a1.284 1.284 0 0 0-.633.362c-.155.175-.266.412-.335.712a4.954 4.954 0 0 0-.104 1.112c0 .433.005.783.013 1.05.011.218.037.435.078.65.032.141.089.276.168.4.074.105.16.201.258.287.135.118.282.223.44.312.171.1.348.196.529.287.18.092.353.188.517.288.154.086.297.191.426.312.05.055.098.114.142.175.031.037.056.08.072.125a.883.883 0 0 1 .057.325c.008.1.013.237.013.412.004.238-.01.476-.039.712a1.014 1.014 0 0 1-.103.387.355.355 0 0 1-.207.163c-.086.025-.384.037-.513.037a1.12 1.12 0 0 1-.31-.037.427.427 0 0 1-.194-.175 1.45 1.45 0 0 1-.103-.375 6 6 0 0 1-.026-.623c0-.024 0-.047-.003-.07h-.006a.695.695 0 0 0-.692-.597.7.7 0 0 0-.691.597h-.004a.704.704 0 0 0-.004.077v.031l.005.385c0 .492.035.892.103 1.2.078.3.198.537.362.712.17.17.385.287.62.337.3.073.609.106.917.1.414 0 .948-.037 1.224-.112.26-.066.492-.215.659-.425.172-.208.293-.496.361-.862.078-.375.117-.854.117-1.437 0-.425-.013-.766-.04-1.024a2.234 2.234 0 0 0-.115-.638 1.037 1.037 0 0 0-.246-.4 2.037 2.037 0 0 0-.374-.3 3.68 3.68 0 0 0-.388-.212 5.969 5.969 0 0 0-.465-.237 11.472 11.472 0 0 1-.465-.25 3.892 3.892 0 0 1-.375-.262 1.277 1.277 0 0 1-.155-.15.54.54 0 0 1-.077-.188 1.978 1.978 0 0 1-.039-.287v-.475a4.37 4.37 0 0 1 .026-.537.856.856 0 0 1 .09-.313.312.312 0 0 1 .194-.137 1.99 1.99 0 0 1 .414-.037c.275 0 .448.079.516.237.055.1.086.211.09.325.003.09.005.209.005.333H26v.005a.695.695 0 0 0 .7.696.701.701 0 0 0 .699-.696v-.338zm5.171-1.286a.826.826 0 0 0-.263-.604.816.816 0 0 0-1.356.745v2.909a.182.182 0 0 1-.182.182h-1.01a.182.182 0 0 1-.182-.182v-3.051a.816.816 0 1 0-1.632 0v8.198a.816.816 0 0 0 1.632 0V35.26a.182.182 0 0 1 .182-.182h1.01a.182.182 0 0 1 .182.182v3.098a.814.814 0 0 0 .803.957h.006a.81.81 0 0 0 .81-.81v-8.2zm10.896 8.988a.231.231 0 0 1-.231-.231v-8.78a.797.797 0 0 1 1.593 0v7.16c0 .084.07.153.154.153h2.168a.849.849 0 1 1 0 1.698zm-5.324 0a.231.231 0 0 1-.231-.231v-8.78a.797.797 0 0 1 1.593 0v7.16c0 .084.069.153.154.153h2.168a.849.849 0 1 1 0 1.698zm-4.695 0a.315.315 0 0 1-.315-.315v-9.178c0-.174.142-.315.316-.315h3.097a.81.81 0 1 1 0 1.62h-1.622a.197.197 0 0 0-.197.196v2.02c0 .106.087.193.194.193h1.625a.77.77 0 1 1 0 1.542H34.92a.194.194 0 0 0-.194.193v2.15c0 .109.088.196.196.196h1.571a.849.849 0 1 1 0 1.698z"/></svg>