<svg xmlns="http://www.w3.org/2000/svg" viewBox="0 0 48 48"><path fill="#00396f" d="M48 26.883c-32-17.632-16-8.816 0 0zm-7.839 9.607-2.668 4.336H25.885l6.438-9.974h-5.948l2.478-3.969h11.308l-6.037 9.607zm-6.633-15.744c-7.406 0-13.409 6.003-13.409 13.409s6.004 13.409 13.41 13.409c7.405 0 13.408-6.004 13.408-13.41s-6.004-13.408-13.409-13.408zm-.305-15.9V.435C14.861.516 0 15.422 0 33.804c0 .084.006.167.007.25h4.399c.053-15.979 12.889-28.94 28.817-29.207zm0 9.203V9.64c-.033 0-.066-.003-.1-.003-13.43 0-24.317 10.887-24.317 24.317 0 .034.003.067.003.1h4.409c.186-10.967 9.038-19.819 20.005-20.005z"/></svg>